export default {
  "header": {
    "keySignatures": [],
    "meta": [],
    "name": "",
    "ppq": 960,
    "tempos": [],
    "timeSignatures": []
  },
  "tracks": [
    {
      "channel": 0,
      "controlChanges": {},
      "pitchBends": [],
      "instrument": {
        "family": "piano",
        "name": "acoustic grand piano",
        "number": 0
      },
      "name": "",
      "notes": [
        {
          "duration": 0.10468750000000004,
          "durationTicks": 201,
          "midi": 21,
          "name": "A0",
          "ticks": 2094,
          "time": 1.090625,
          "velocity": 0.41732283464566927
        },
        {
          "duration": 0.1020833333333333,
          "durationTicks": 196,
          "midi": 22,
          "name": "A#0",
          "ticks": 3355,
          "time": 1.7473958333333333,
          "velocity": 0.49606299212598426
        },
        {
          "duration": 0.11302083333333313,
          "durationTicks": 217,
          "midi": 23,
          "name": "B0",
          "ticks": 4557,
          "time": 2.3734375,
          "velocity": 0.4409448818897638
        },
        {
          "duration": 0.12031250000000027,
          "durationTicks": 231,
          "midi": 24,
          "name": "C1",
          "ticks": 5853,
          "time": 3.0484375,
          "velocity": 0.44881889763779526
        },
        {
          "duration": 0.12708333333333366,
          "durationTicks": 244,
          "midi": 25,
          "name": "C#1",
          "ticks": 7072,
          "time": 3.683333333333333,
          "velocity": 0.4645669291338583
        },
        {
          "duration": 0.13489583333333321,
          "durationTicks": 259,
          "midi": 26,
          "name": "D1",
          "ticks": 8315,
          "time": 4.330729166666667,
          "velocity": 0.4409448818897638
        },
        {
          "duration": 0.11666666666666714,
          "durationTicks": 224,
          "midi": 27,
          "name": "D#1",
          "ticks": 9561,
          "time": 4.9796875,
          "velocity": 0.44881889763779526
        },
        {
          "duration": 0.12656250000000036,
          "durationTicks": 243,
          "midi": 28,
          "name": "E1",
          "ticks": 10738,
          "time": 5.592708333333333,
          "velocity": 0.44881889763779526
        },
        {
          "duration": 0.1192708333333341,
          "durationTicks": 229,
          "midi": 29,
          "name": "F1",
          "ticks": 11907,
          "time": 6.2015625,
          "velocity": 0.48031496062992124
        },
        {
          "duration": 0.1260416666666666,
          "durationTicks": 242,
          "midi": 30,
          "name": "F#1",
          "ticks": 13074,
          "time": 6.809375,
          "velocity": 0.4645669291338583
        },
        {
          "duration": 0.13229166666666625,
          "durationTicks": 254,
          "midi": 31,
          "name": "G1",
          "ticks": 14341,
          "time": 7.469270833333334,
          "velocity": 0.4409448818897638
        },
        {
          "duration": 0.10989583333333286,
          "durationTicks": 211,
          "midi": 32,
          "name": "G#1",
          "ticks": 15540,
          "time": 8.09375,
          "velocity": 0.49606299212598426
        },
        {
          "duration": 0.13333333333333286,
          "durationTicks": 256,
          "midi": 33,
          "name": "A1",
          "ticks": 16743,
          "time": 8.7203125,
          "velocity": 0.44881889763779526
        },
        {
          "duration": 0.10885416666666714,
          "durationTicks": 209,
          "midi": 34,
          "name": "A#1",
          "ticks": 17836,
          "time": 9.289583333333333,
          "velocity": 0.48031496062992124
        },
        {
          "duration": 0.12864583333333357,
          "durationTicks": 247,
          "midi": 35,
          "name": "B1",
          "ticks": 18986,
          "time": 9.888541666666667,
          "velocity": 0.41732283464566927
        },
        {
          "duration": 0.11979166666666607,
          "durationTicks": 230,
          "midi": 36,
          "name": "C2",
          "ticks": 20119,
          "time": 10.478645833333333,
          "velocity": 0.4330708661417323
        },
        {
          "duration": 0.12552083333333464,
          "durationTicks": 241,
          "midi": 37,
          "name": "C#2",
          "ticks": 21208,
          "time": 11.045833333333333,
          "velocity": 0.4645669291338583
        },
        {
          "duration": 0.10520833333333357,
          "durationTicks": 202,
          "midi": 38,
          "name": "D2",
          "ticks": 22271,
          "time": 11.599479166666667,
          "velocity": 0.4015748031496063
        },
        {
          "duration": 0.09947916666666679,
          "durationTicks": 191,
          "midi": 39,
          "name": "D#2",
          "ticks": 23313,
          "time": 12.1421875,
          "velocity": 0.4409448818897638
        },
        {
          "duration": 0.14583333333333215,
          "durationTicks": 280,
          "midi": 40,
          "name": "E2",
          "ticks": 24393,
          "time": 12.7046875,
          "velocity": 0.3858267716535433
        },
        {
          "duration": 0.10312500000000036,
          "durationTicks": 198,
          "midi": 41,
          "name": "F2",
          "ticks": 25422,
          "time": 13.240625,
          "velocity": 0.3779527559055118
        },
        {
          "duration": 0.08333333333333393,
          "durationTicks": 160,
          "midi": 42,
          "name": "F#2",
          "ticks": 26468,
          "time": 13.785416666666666,
          "velocity": 0.4015748031496063
        },
        {
          "duration": 0.13229166666666536,
          "durationTicks": 254,
          "midi": 43,
          "name": "G2",
          "ticks": 27501,
          "time": 14.3234375,
          "velocity": 0.41732283464566927
        },
        {
          "duration": 0.10520833333333357,
          "durationTicks": 202,
          "midi": 44,
          "name": "G#2",
          "ticks": 28513,
          "time": 14.850520833333333,
          "velocity": 0.44881889763779526
        },
        {
          "duration": 0.12031250000000071,
          "durationTicks": 231,
          "midi": 45,
          "name": "A2",
          "ticks": 29546,
          "time": 15.388541666666667,
          "velocity": 0.4409448818897638
        },
        {
          "duration": 0.09010416666666643,
          "durationTicks": 173,
          "midi": 46,
          "name": "A#2",
          "ticks": 30579,
          "time": 15.9265625,
          "velocity": 0.44881889763779526
        },
        {
          "duration": 0.10416666666666785,
          "durationTicks": 200,
          "midi": 47,
          "name": "B2",
          "ticks": 31585,
          "time": 16.450520833333332,
          "velocity": 0.4094488188976378
        },
        {
          "duration": 0.09583333333333144,
          "durationTicks": 184,
          "midi": 48,
          "name": "C3",
          "ticks": 32572,
          "time": 16.964583333333334,
          "velocity": 0.4409448818897638
        },
        {
          "duration": 0.109375,
          "durationTicks": 210,
          "midi": 49,
          "name": "C#3",
          "ticks": 33605,
          "time": 17.502604166666668,
          "velocity": 0.44881889763779526
        },
        {
          "duration": 0.11406250000000284,
          "durationTicks": 219,
          "midi": 50,
          "name": "D3",
          "ticks": 34601,
          "time": 18.021354166666665,
          "velocity": 0.4015748031496063
        },
        {
          "duration": 0.09479166666666572,
          "durationTicks": 182,
          "midi": 51,
          "name": "D#3",
          "ticks": 35625,
          "time": 18.5546875,
          "velocity": 0.44881889763779526
        },
        {
          "duration": 0.11927083333333144,
          "durationTicks": 229,
          "midi": 52,
          "name": "E3",
          "ticks": 36665,
          "time": 19.096354166666668,
          "velocity": 0.4409448818897638
        },
        {
          "duration": 0.08333333333333215,
          "durationTicks": 160,
          "midi": 53,
          "name": "F3",
          "ticks": 37639,
          "time": 19.603645833333335,
          "velocity": 0.4094488188976378
        },
        {
          "duration": 0.07604166666666501,
          "durationTicks": 146,
          "midi": 54,
          "name": "F#3",
          "ticks": 38700,
          "time": 20.15625,
          "velocity": 0.41732283464566927
        },
        {
          "duration": 0.10312500000000213,
          "durationTicks": 198,
          "midi": 55,
          "name": "G3",
          "ticks": 39699,
          "time": 20.6765625,
          "velocity": 0.41732283464566927
        },
        {
          "duration": 0.10781249999999787,
          "durationTicks": 207,
          "midi": 56,
          "name": "G#3",
          "ticks": 40744,
          "time": 21.220833333333335,
          "velocity": 0.48031496062992124
        },
        {
          "duration": 0.09479166666666572,
          "durationTicks": 182,
          "midi": 57,
          "name": "A3",
          "ticks": 41736,
          "time": 21.7375,
          "velocity": 0.4330708661417323
        },
        {
          "duration": 0.08385416666666501,
          "durationTicks": 161,
          "midi": 58,
          "name": "A#3",
          "ticks": 42754,
          "time": 22.267708333333335,
          "velocity": 0.48031496062992124
        },
        {
          "duration": 0.07187500000000213,
          "durationTicks": 138,
          "midi": 59,
          "name": "B3",
          "ticks": 43802,
          "time": 22.813541666666666,
          "velocity": 0.4566929133858268
        },
        {
          "duration": 0.09583333333333144,
          "durationTicks": 184,
          "midi": 60,
          "name": "C4",
          "ticks": 44766,
          "time": 23.315625,
          "velocity": 0.44881889763779526
        },
        {
          "duration": 0.09739583333333357,
          "durationTicks": 187,
          "midi": 61,
          "name": "C#4",
          "ticks": 45758,
          "time": 23.832291666666666,
          "velocity": 0.4881889763779528
        },
        {
          "duration": 0.10677083333333215,
          "durationTicks": 205,
          "midi": 62,
          "name": "D4",
          "ticks": 46740,
          "time": 24.34375,
          "velocity": 0.44881889763779526
        },
        {
          "duration": 0.06406249999999858,
          "durationTicks": 123,
          "midi": 63,
          "name": "D#4",
          "ticks": 47715,
          "time": 24.8515625,
          "velocity": 0.44881889763779526
        },
        {
          "duration": 0.09218750000000142,
          "durationTicks": 177,
          "midi": 64,
          "name": "E4",
          "ticks": 48715,
          "time": 25.372395833333332,
          "velocity": 0.4409448818897638
        },
        {
          "duration": 0.12083333333333357,
          "durationTicks": 232,
          "midi": 65,
          "name": "F4",
          "ticks": 49635,
          "time": 25.8515625,
          "velocity": 0.44881889763779526
        },
        {
          "duration": 0.09479166666666572,
          "durationTicks": 182,
          "midi": 66,
          "name": "F#4",
          "ticks": 50649,
          "time": 26.3796875,
          "velocity": 0.4566929133858268
        },
        {
          "duration": 0.11354166666666643,
          "durationTicks": 218,
          "midi": 67,
          "name": "G4",
          "ticks": 51636,
          "time": 26.89375,
          "velocity": 0.44881889763779526
        },
        {
          "duration": 0.11197916666666785,
          "durationTicks": 215,
          "midi": 68,
          "name": "G#4",
          "ticks": 52584,
          "time": 27.3875,
          "velocity": 0.47244094488188976
        },
        {
          "duration": 0.11302083333333357,
          "durationTicks": 217,
          "midi": 69,
          "name": "A4",
          "ticks": 53515,
          "time": 27.872395833333332,
          "velocity": 0.44881889763779526
        },
        {
          "duration": 0.10312500000000213,
          "durationTicks": 198,
          "midi": 70,
          "name": "A#4",
          "ticks": 54452,
          "time": 28.360416666666666,
          "velocity": 0.47244094488188976
        },
        {
          "duration": 0.10885416666666714,
          "durationTicks": 209,
          "midi": 71,
          "name": "B4",
          "ticks": 55432,
          "time": 28.870833333333334,
          "velocity": 0.44881889763779526
        },
        {
          "duration": 0.10624999999999929,
          "durationTicks": 204,
          "midi": 72,
          "name": "C5",
          "ticks": 56449,
          "time": 29.400520833333335,
          "velocity": 0.47244094488188976
        },
        {
          "duration": 0.09531249999999858,
          "durationTicks": 183,
          "midi": 73,
          "name": "C#5",
          "ticks": 57510,
          "time": 29.953125,
          "velocity": 0.47244094488188976
        },
        {
          "duration": 0.12708333333333144,
          "durationTicks": 244,
          "midi": 74,
          "name": "D5",
          "ticks": 58461,
          "time": 30.4484375,
          "velocity": 0.3937007874015748
        },
        {
          "duration": 0.12812499999999716,
          "durationTicks": 246,
          "midi": 75,
          "name": "D#5",
          "ticks": 59404,
          "time": 30.939583333333335,
          "velocity": 0.4330708661417323
        },
        {
          "duration": 0.12083333333333357,
          "durationTicks": 232,
          "midi": 76,
          "name": "E5",
          "ticks": 60357,
          "time": 31.4359375,
          "velocity": 0.44881889763779526
        },
        {
          "duration": 0.10104166666666714,
          "durationTicks": 194,
          "midi": 77,
          "name": "F5",
          "ticks": 61364,
          "time": 31.960416666666667,
          "velocity": 0.44881889763779526
        },
        {
          "duration": 0.0989583333333357,
          "durationTicks": 190,
          "midi": 78,
          "name": "F#5",
          "ticks": 62345,
          "time": 32.471354166666664,
          "velocity": 0.44881889763779526
        },
        {
          "duration": 0.10520833333333002,
          "durationTicks": 202,
          "midi": 79,
          "name": "G5",
          "ticks": 63313,
          "time": 32.975520833333334,
          "velocity": 0.44881889763779526
        },
        {
          "duration": 0.10572916666666288,
          "durationTicks": 203,
          "midi": 80,
          "name": "G#5",
          "ticks": 64287,
          "time": 33.4828125,
          "velocity": 0.47244094488188976
        },
        {
          "duration": 0.09427083333333286,
          "durationTicks": 181,
          "midi": 81,
          "name": "A5",
          "ticks": 65263,
          "time": 33.991145833333334,
          "velocity": 0.4566929133858268
        },
        {
          "duration": 0.1067708333333286,
          "durationTicks": 205,
          "midi": 82,
          "name": "A#5",
          "ticks": 66249,
          "time": 34.5046875,
          "velocity": 0.4566929133858268
        },
        {
          "duration": 0.09999999999999432,
          "durationTicks": 192,
          "midi": 83,
          "name": "B5",
          "ticks": 67224,
          "time": 35.0125,
          "velocity": 0.4566929133858268
        },
        {
          "duration": 0.08906250000000426,
          "durationTicks": 171,
          "midi": 84,
          "name": "C6",
          "ticks": 68209,
          "time": 35.52552083333333,
          "velocity": 0.4566929133858268
        },
        {
          "duration": 0.09010416666666288,
          "durationTicks": 173,
          "midi": 85,
          "name": "C#6",
          "ticks": 69175,
          "time": 36.028645833333336,
          "velocity": 0.4566929133858268
        },
        {
          "duration": 0.09375,
          "durationTicks": 180,
          "midi": 86,
          "name": "D6",
          "ticks": 70204,
          "time": 36.56458333333333,
          "velocity": 0.4409448818897638
        },
        {
          "duration": 0.05416666666666714,
          "durationTicks": 104,
          "midi": 87,
          "name": "D#6",
          "ticks": 71210,
          "time": 37.088541666666664,
          "velocity": 0.4094488188976378
        },
        {
          "duration": 0.0963541666666714,
          "durationTicks": 185,
          "midi": 88,
          "name": "E6",
          "ticks": 72170,
          "time": 37.588541666666664,
          "velocity": 0.4645669291338583
        },
        {
          "duration": 0.11093749999999858,
          "durationTicks": 213,
          "midi": 89,
          "name": "F6",
          "ticks": 73195,
          "time": 38.122395833333336,
          "velocity": 0.4409448818897638
        },
        {
          "duration": 0.10625000000000284,
          "durationTicks": 204,
          "midi": 90,
          "name": "F#6",
          "ticks": 74207,
          "time": 38.649479166666666,
          "velocity": 0.47244094488188976
        },
        {
          "duration": 0.1015625,
          "durationTicks": 195,
          "midi": 91,
          "name": "G6",
          "ticks": 75131,
          "time": 39.13072916666667,
          "velocity": 0.44881889763779526
        },
        {
          "duration": 0.10312499999999858,
          "durationTicks": 198,
          "midi": 92,
          "name": "G#6",
          "ticks": 76183,
          "time": 39.678645833333334,
          "velocity": 0.4645669291338583
        },
        {
          "duration": 0.11093749999999858,
          "durationTicks": 213,
          "midi": 93,
          "name": "A6",
          "ticks": 77139,
          "time": 40.1765625,
          "velocity": 0.41732283464566927
        },
        {
          "duration": 0.1145833333333286,
          "durationTicks": 220,
          "midi": 94,
          "name": "A#6",
          "ticks": 78132,
          "time": 40.69375,
          "velocity": 0.4645669291338583
        },
        {
          "duration": 0.11927083333333144,
          "durationTicks": 229,
          "midi": 95,
          "name": "B6",
          "ticks": 79203,
          "time": 41.2515625,
          "velocity": 0.4330708661417323
        },
        {
          "duration": 0.12343749999999432,
          "durationTicks": 237,
          "midi": 96,
          "name": "C7",
          "ticks": 80184,
          "time": 41.7625,
          "velocity": 0.44881889763779526
        },
        {
          "duration": 0.1171875,
          "durationTicks": 225,
          "midi": 97,
          "name": "C#7",
          "ticks": 81238,
          "time": 42.311458333333334,
          "velocity": 0.47244094488188976
        },
        {
          "duration": 0.11927083333333144,
          "durationTicks": 229,
          "midi": 98,
          "name": "D7",
          "ticks": 82242,
          "time": 42.834375,
          "velocity": 0.4645669291338583
        },
        {
          "duration": 0.10781249999999432,
          "durationTicks": 207,
          "midi": 99,
          "name": "D#7",
          "ticks": 83185,
          "time": 43.325520833333336,
          "velocity": 0.5196850393700787
        },
        {
          "duration": 0.10989583333333286,
          "durationTicks": 211,
          "midi": 100,
          "name": "E7",
          "ticks": 84180,
          "time": 43.84375,
          "velocity": 0.4645669291338583
        },
        {
          "duration": 0.11302083333333712,
          "durationTicks": 217,
          "midi": 101,
          "name": "F7",
          "ticks": 85130,
          "time": 44.338541666666664,
          "velocity": 0.48031496062992124
        },
        {
          "duration": 0.10572916666666998,
          "durationTicks": 203,
          "midi": 102,
          "name": "F#7",
          "ticks": 86175,
          "time": 44.8828125,
          "velocity": 0.5039370078740157
        },
        {
          "duration": 0.10989583333333286,
          "durationTicks": 211,
          "midi": 103,
          "name": "G7",
          "ticks": 87140,
          "time": 45.385416666666664,
          "velocity": 0.4566929133858268
        },
        {
          "duration": 0.09583333333333144,
          "durationTicks": 184,
          "midi": 104,
          "name": "G#7",
          "ticks": 88139,
          "time": 45.90572916666667,
          "velocity": 0.5039370078740157
        },
        {
          "duration": 0.10052083333333428,
          "durationTicks": 193,
          "midi": 105,
          "name": "A7",
          "ticks": 89081,
          "time": 46.39635416666667,
          "velocity": 0.4409448818897638
        },
        {
          "duration": 0.11093749999999858,
          "durationTicks": 213,
          "midi": 106,
          "name": "A#7",
          "ticks": 90070,
          "time": 46.911458333333336,
          "velocity": 0.5039370078740157
        },
        {
          "duration": 0.11302083333333002,
          "durationTicks": 217,
          "midi": 107,
          "name": "B7",
          "ticks": 91015,
          "time": 47.403645833333336,
          "velocity": 0.48031496062992124
        },
        {
          "duration": 0.3411458333333357,
          "durationTicks": 655,
          "midi": 108,
          "name": "C8",
          "ticks": 92042,
          "time": 47.938541666666666,
          "velocity": 0.5118110236220472
        }
      ],
      "endOfTrackTicks": 92697
    }
  ]
}