{
    "header": {
        "keySignatures": [],
        "meta": [],
        "name": "Melody / Rhodes & mute trump",
        "ppq": 960,
        "tempos": [],
        "timeSignatures": []
    },
    "tracks": [
        {
            "channel": 3,
            "controlChanges": {
                "7": [
                    {
                        "number": 7,
                        "ticks": 0,
                        "time": 0,
                        "value": 0.7480314960629921
                    }
                ],
                "10": [
                    {
                        "number": 10,
                        "ticks": 0,
                        "time": 0,
                        "value": 0.4251968503937008
                    }
                ],
                "91": [
                    {
                        "number": 91,
                        "ticks": 0,
                        "time": 0,
                        "value": 0.31496062992125984
                    }
                ],
                "93": [
                    {
                        "number": 93,
                        "ticks": 0,
                        "time": 0,
                        "value": 0
                    }
                ],
                "123": [
                    {
                        "number": 123,
                        "ticks": 0,
                        "time": 0,
                        "value": 0
                    }
                ]
            },
            "pitchBends": [],
            "instrument": {
                "family": "piano",
                "name": "electric piano 1",
                "number": 4
            },
            "name": "Melody / Rhodes & mute trump",
            "notes": [
                {
                    "duration": 0.6083333333333334,
                    "durationTicks": 1168,
                    "midi": 64,
                    "name": "E4",
                    "ticks": 4496,
                    "time": 2.341666666666667,
                    "velocity": 0.8582677165354331
                },
                {
                    "duration": 0.1875,
                    "durationTicks": 360,
                    "midi": 66,
                    "name": "F#4",
                    "ticks": 5800,
                    "time": 3.0208333333333335,
                    "velocity": 0.8582677165354331
                },
                {
                    "duration": 0.31666666666666643,
                    "durationTicks": 608,
                    "midi": 67,
                    "name": "G4",
                    "ticks": 6760,
                    "time": 3.5208333333333335,
                    "velocity": 0.8582677165354331
                },
                {
                    "duration": 2.283333333333333,
                    "durationTicks": 4384,
                    "midi": 72,
                    "name": "C5",
                    "ticks": 7528,
                    "time": 3.9208333333333334,
                    "velocity": 0.9291338582677166
                },
                {
                    "duration": 0.4708333333333332,
                    "durationTicks": 904,
                    "midi": 62,
                    "name": "D4",
                    "ticks": 12304,
                    "time": 6.408333333333333,
                    "velocity": 0.8582677165354331
                },
                {
                    "duration": 0.2041666666666666,
                    "durationTicks": 392,
                    "midi": 64,
                    "name": "E4",
                    "ticks": 13568,
                    "time": 7.066666666666666,
                    "velocity": 0.7874015748031497
                },
                {
                    "duration": 0.3125,
                    "durationTicks": 600,
                    "midi": 66,
                    "name": "F#4",
                    "ticks": 14432,
                    "time": 7.516666666666667,
                    "velocity": 0.7716535433070866
                },
                {
                    "duration": 0.6375000000000011,
                    "durationTicks": 1224,
                    "midi": 71,
                    "name": "B4",
                    "ticks": 15432,
                    "time": 8.0375,
                    "velocity": 0.8740157480314961
                },
                {
                    "duration": 1.375,
                    "durationTicks": 2640,
                    "midi": 71,
                    "name": "B4",
                    "ticks": 17056,
                    "time": 8.883333333333333,
                    "velocity": 0.7874015748031497
                },
                {
                    "duration": 0.3916666666666675,
                    "durationTicks": 752,
                    "midi": 60,
                    "name": "C4",
                    "ticks": 19984,
                    "time": 10.408333333333333,
                    "velocity": 0.905511811023622
                },
                {
                    "duration": 0.20416666666666572,
                    "durationTicks": 392,
                    "midi": 62,
                    "name": "D4",
                    "ticks": 21216,
                    "time": 11.05,
                    "velocity": 0.8267716535433071
                },
                {
                    "duration": 0.31666666666666643,
                    "durationTicks": 608,
                    "midi": 64,
                    "name": "E4",
                    "ticks": 22112,
                    "time": 11.516666666666667,
                    "velocity": 0.7716535433070866
                },
                {
                    "duration": 2.408333333333333,
                    "durationTicks": 4624,
                    "midi": 69,
                    "name": "A4",
                    "ticks": 22792,
                    "time": 11.870833333333334,
                    "velocity": 0.8031496062992126
                },
                {
                    "duration": 0.5833333333333339,
                    "durationTicks": 1120,
                    "midi": 59,
                    "name": "B3",
                    "ticks": 27656,
                    "time": 14.404166666666667,
                    "velocity": 0.8031496062992126
                },
                {
                    "duration": 0.7416666666666671,
                    "durationTicks": 1424,
                    "midi": 61,
                    "name": "C#4",
                    "ticks": 28856,
                    "time": 15.029166666666667,
                    "velocity": 0.8031496062992126
                },
                {
                    "duration": 0.26250000000000107,
                    "durationTicks": 504,
                    "midi": 63,
                    "name": "D#4",
                    "ticks": 30200,
                    "time": 15.729166666666666,
                    "velocity": 0.7716535433070866
                },
                {
                    "duration": 1.9458333333333329,
                    "durationTicks": 3736,
                    "midi": 67,
                    "name": "G4",
                    "ticks": 30832,
                    "time": 16.058333333333334,
                    "velocity": 0.8267716535433071
                },
                {
                    "duration": 0.4875000000000007,
                    "durationTicks": 936,
                    "midi": 64,
                    "name": "E4",
                    "ticks": 35280,
                    "time": 18.375,
                    "velocity": 0.84251968503937
                },
                {
                    "duration": 0.1875,
                    "durationTicks": 360,
                    "midi": 66,
                    "name": "F#4",
                    "ticks": 36584,
                    "time": 19.054166666666667,
                    "velocity": 0.7716535433070866
                },
                {
                    "duration": 0.3000000000000007,
                    "durationTicks": 576,
                    "midi": 67,
                    "name": "G4",
                    "ticks": 37472,
                    "time": 19.516666666666666,
                    "velocity": 0.8267716535433071
                },
                {
                    "duration": 2.195833333333333,
                    "durationTicks": 4216,
                    "midi": 72,
                    "name": "C5",
                    "ticks": 38192,
                    "time": 19.891666666666666,
                    "velocity": 0.9291338582677166
                },
                {
                    "duration": 0.4458333333333364,
                    "durationTicks": 856,
                    "midi": 62,
                    "name": "D4",
                    "ticks": 43008,
                    "time": 22.4,
                    "velocity": 0.9606299212598425
                },
                {
                    "duration": 0.16666666666666785,
                    "durationTicks": 320,
                    "midi": 64,
                    "name": "E4",
                    "ticks": 44272,
                    "time": 23.058333333333334,
                    "velocity": 0.84251968503937
                },
                {
                    "duration": 0.22916666666666785,
                    "durationTicks": 440,
                    "midi": 66,
                    "name": "F#4",
                    "ticks": 45168,
                    "time": 23.525,
                    "velocity": 0.889763779527559
                },
                {
                    "duration": 0.6458333333333357,
                    "durationTicks": 1240,
                    "midi": 71,
                    "name": "B4",
                    "ticks": 46120,
                    "time": 24.020833333333332,
                    "velocity": 0.84251968503937
                },
                {
                    "duration": 1.2749999999999986,
                    "durationTicks": 2448,
                    "midi": 71,
                    "name": "B4",
                    "ticks": 47712,
                    "time": 24.85,
                    "velocity": 0.8031496062992126
                },
                {
                    "duration": 0.4875000000000007,
                    "durationTicks": 936,
                    "midi": 60,
                    "name": "C4",
                    "ticks": 50688,
                    "time": 26.4,
                    "velocity": 0.8267716535433071
                },
                {
                    "duration": 0.1999999999999993,
                    "durationTicks": 384,
                    "midi": 62,
                    "name": "D4",
                    "ticks": 51928,
                    "time": 27.045833333333334,
                    "velocity": 0.8582677165354331
                },
                {
                    "duration": 0.3000000000000007,
                    "durationTicks": 576,
                    "midi": 64,
                    "name": "E4",
                    "ticks": 52848,
                    "time": 27.525,
                    "velocity": 0.7716535433070866
                },
                {
                    "duration": 2.3583333333333343,
                    "durationTicks": 4528,
                    "midi": 69,
                    "name": "A4",
                    "ticks": 53520,
                    "time": 27.875,
                    "velocity": 0.8582677165354331
                },
                {
                    "duration": 0.49583333333333357,
                    "durationTicks": 952,
                    "midi": 66,
                    "name": "F#4",
                    "ticks": 58328,
                    "time": 30.379166666666666,
                    "velocity": 0.905511811023622
                },
                {
                    "duration": 0.279166666666665,
                    "durationTicks": 536,
                    "midi": 69,
                    "name": "A4",
                    "ticks": 59608,
                    "time": 31.045833333333334,
                    "velocity": 0.8031496062992126
                },
                {
                    "duration": 0.33750000000000213,
                    "durationTicks": 648,
                    "midi": 67,
                    "name": "G4",
                    "ticks": 60504,
                    "time": 31.5125,
                    "velocity": 0.7086614173228346
                },
                {
                    "duration": 27.90833333333333,
                    "durationTicks": 53584,
                    "midi": 64,
                    "name": "E4",
                    "ticks": 61248,
                    "time": 31.9,
                    "velocity": 0.8267716535433071
                },
                {
                    "duration": 6.583333333333336,
                    "durationTicks": 12640,
                    "midi": 64,
                    "name": "E4",
                    "ticks": 114312,
                    "time": 59.5375,
                    "velocity": 0.8267716535433071
                },
                {
                    "duration": 1.1291666666666629,
                    "durationTicks": 2168,
                    "midi": 69,
                    "name": "A4",
                    "ticks": 115328,
                    "time": 60.06666666666667,
                    "velocity": 0.8267716535433071
                },
                {
                    "duration": 0.5458333333333343,
                    "durationTicks": 1048,
                    "midi": 67,
                    "name": "G4",
                    "ticks": 117904,
                    "time": 61.40833333333333,
                    "velocity": 0.84251968503937
                },
                {
                    "duration": 0.8916666666666657,
                    "durationTicks": 1712,
                    "midi": 66,
                    "name": "F#4",
                    "ticks": 119128,
                    "time": 62.045833333333334,
                    "velocity": 0.8031496062992126
                },
                {
                    "duration": 0.19583333333333286,
                    "durationTicks": 376,
                    "midi": 67,
                    "name": "G4",
                    "ticks": 121096,
                    "time": 63.07083333333333,
                    "velocity": 0.8031496062992126
                },
                {
                    "duration": 0.23333333333333428,
                    "durationTicks": 448,
                    "midi": 59,
                    "name": "B3",
                    "ticks": 122040,
                    "time": 63.5625,
                    "velocity": 0.8031496062992126
                },
                {
                    "duration": 66.96666666666667,
                    "durationTicks": 128576,
                    "midi": 64,
                    "name": "E4",
                    "ticks": 122696,
                    "time": 63.90416666666667,
                    "velocity": 0.7401574803149606
                },
                {
                    "duration": 4.895833333333343,
                    "durationTicks": 9400,
                    "midi": 64,
                    "name": "E4",
                    "ticks": 250320,
                    "time": 130.375,
                    "velocity": 0.9606299212598425
                },
                {
                    "duration": 0.18333333333333712,
                    "durationTicks": 352,
                    "midi": 66,
                    "name": "F#4",
                    "ticks": 251632,
                    "time": 131.05833333333334,
                    "velocity": 0.9291338582677166
                },
                {
                    "duration": 0.32083333333332575,
                    "durationTicks": 616,
                    "midi": 67,
                    "name": "G4",
                    "ticks": 252480,
                    "time": 131.5,
                    "velocity": 0.8267716535433071
                },
                {
                    "duration": 1.9291666666666742,
                    "durationTicks": 3704,
                    "midi": 72,
                    "name": "C5",
                    "ticks": 253216,
                    "time": 131.88333333333333,
                    "velocity": 0.9448818897637795
                },
                {
                    "duration": 0.47083333333333144,
                    "durationTicks": 904,
                    "midi": 62,
                    "name": "D4",
                    "ticks": 258064,
                    "time": 134.40833333333333,
                    "velocity": 0.8582677165354331
                },
                {
                    "duration": 4.76666666666668,
                    "durationTicks": 9152,
                    "midi": 64,
                    "name": "E4",
                    "ticks": 259328,
                    "time": 135.06666666666666,
                    "velocity": 0.7874015748031497
                },
                {
                    "duration": 0.3125,
                    "durationTicks": 600,
                    "midi": 66,
                    "name": "F#4",
                    "ticks": 260192,
                    "time": 135.51666666666668,
                    "velocity": 0.7716535433070866
                },
                {
                    "duration": 0.637500000000017,
                    "durationTicks": 1224,
                    "midi": 71,
                    "name": "B4",
                    "ticks": 261192,
                    "time": 136.0375,
                    "velocity": 0.8740157480314961
                },
                {
                    "duration": 1.375,
                    "durationTicks": 2640,
                    "midi": 71,
                    "name": "B4",
                    "ticks": 262816,
                    "time": 136.88333333333333,
                    "velocity": 0.7874015748031497
                },
                {
                    "duration": 0.39166666666667993,
                    "durationTicks": 752,
                    "midi": 60,
                    "name": "C4",
                    "ticks": 265744,
                    "time": 138.40833333333333,
                    "velocity": 0.905511811023622
                },
                {
                    "duration": 0.2041666666666515,
                    "durationTicks": 392,
                    "midi": 62,
                    "name": "D4",
                    "ticks": 266976,
                    "time": 139.05,
                    "velocity": 0.8267716535433071
                },
                {
                    "duration": 7.345833333333331,
                    "durationTicks": 14104,
                    "midi": 64,
                    "name": "E4",
                    "ticks": 267872,
                    "time": 139.51666666666668,
                    "velocity": 0.7716535433070866
                },
                {
                    "duration": 2.4083333333333314,
                    "durationTicks": 4624,
                    "midi": 69,
                    "name": "A4",
                    "ticks": 268552,
                    "time": 139.87083333333334,
                    "velocity": 0.8031496062992126
                },
                {
                    "duration": 0.5833333333333428,
                    "durationTicks": 1120,
                    "midi": 59,
                    "name": "B3",
                    "ticks": 273416,
                    "time": 142.40416666666667,
                    "velocity": 0.8031496062992126
                },
                {
                    "duration": 0.7416666666666742,
                    "durationTicks": 1424,
                    "midi": 61,
                    "name": "C#4",
                    "ticks": 274616,
                    "time": 143.02916666666667,
                    "velocity": 0.8031496062992126
                },
                {
                    "duration": 0.26250000000001705,
                    "durationTicks": 504,
                    "midi": 63,
                    "name": "D#4",
                    "ticks": 275960,
                    "time": 143.72916666666666,
                    "velocity": 0.7716535433070866
                },
                {
                    "duration": 1.9458333333333258,
                    "durationTicks": 3736,
                    "midi": 67,
                    "name": "G4",
                    "ticks": 276592,
                    "time": 144.05833333333334,
                    "velocity": 0.8267716535433071
                },
                {
                    "duration": 4.849999999999994,
                    "durationTicks": 9312,
                    "midi": 64,
                    "name": "E4",
                    "ticks": 281040,
                    "time": 146.375,
                    "velocity": 0.84251968503937
                },
                {
                    "duration": 0.1875,
                    "durationTicks": 360,
                    "midi": 66,
                    "name": "F#4",
                    "ticks": 282344,
                    "time": 147.05416666666667,
                    "velocity": 0.7716535433070866
                },
                {
                    "duration": 0.29999999999998295,
                    "durationTicks": 576,
                    "midi": 67,
                    "name": "G4",
                    "ticks": 283232,
                    "time": 147.51666666666668,
                    "velocity": 0.8267716535433071
                },
                {
                    "duration": 2.1958333333333258,
                    "durationTicks": 4216,
                    "midi": 72,
                    "name": "C5",
                    "ticks": 283952,
                    "time": 147.89166666666668,
                    "velocity": 0.9291338582677166
                },
                {
                    "duration": 0.44583333333332575,
                    "durationTicks": 856,
                    "midi": 62,
                    "name": "D4",
                    "ticks": 288768,
                    "time": 150.4,
                    "velocity": 0.9606299212598425
                },
                {
                    "duration": 4.7666666666666515,
                    "durationTicks": 9152,
                    "midi": 64,
                    "name": "E4",
                    "ticks": 290032,
                    "time": 151.05833333333334,
                    "velocity": 0.84251968503937
                },
                {
                    "duration": 0.2291666666666572,
                    "durationTicks": 440,
                    "midi": 66,
                    "name": "F#4",
                    "ticks": 290928,
                    "time": 151.525,
                    "velocity": 0.889763779527559
                },
                {
                    "duration": 0.6458333333333144,
                    "durationTicks": 1240,
                    "midi": 71,
                    "name": "B4",
                    "ticks": 291880,
                    "time": 152.02083333333334,
                    "velocity": 0.84251968503937
                },
                {
                    "duration": 1.2750000000000057,
                    "durationTicks": 2448,
                    "midi": 71,
                    "name": "B4",
                    "ticks": 293472,
                    "time": 152.85,
                    "velocity": 0.8031496062992126
                },
                {
                    "duration": 0.48749999999998295,
                    "durationTicks": 936,
                    "midi": 60,
                    "name": "C4",
                    "ticks": 296448,
                    "time": 154.4,
                    "velocity": 0.8267716535433071
                },
                {
                    "duration": 0.20000000000001705,
                    "durationTicks": 384,
                    "midi": 62,
                    "name": "D4",
                    "ticks": 297688,
                    "time": 155.04583333333332,
                    "velocity": 0.8582677165354331
                },
                {
                    "duration": 32.28333333333333,
                    "durationTicks": 61984,
                    "midi": 64,
                    "name": "E4",
                    "ticks": 298608,
                    "time": 155.525,
                    "velocity": 0.7716535433070866
                },
                {
                    "duration": 2.35833333333332,
                    "durationTicks": 4528,
                    "midi": 69,
                    "name": "A4",
                    "ticks": 299280,
                    "time": 155.875,
                    "velocity": 0.8582677165354331
                },
                {
                    "duration": 0.4958333333333371,
                    "durationTicks": 952,
                    "midi": 66,
                    "name": "F#4",
                    "ticks": 304088,
                    "time": 158.37916666666666,
                    "velocity": 0.905511811023622
                },
                {
                    "duration": 0.27916666666666856,
                    "durationTicks": 536,
                    "midi": 69,
                    "name": "A4",
                    "ticks": 305368,
                    "time": 159.04583333333332,
                    "velocity": 0.8031496062992126
                },
                {
                    "duration": 0.3375000000000057,
                    "durationTicks": 648,
                    "midi": 67,
                    "name": "G4",
                    "ticks": 306264,
                    "time": 159.5125,
                    "velocity": 0.7086614173228346
                },
                {
                    "duration": 34.22083333333333,
                    "durationTicks": 65704,
                    "midi": 64,
                    "name": "E4",
                    "ticks": 307008,
                    "time": 159.9,
                    "velocity": 0.8267716535433071
                },
                {
                    "duration": 7.333333333333343,
                    "durationTicks": 14080,
                    "midi": 64,
                    "name": "E4",
                    "ticks": 360072,
                    "time": 187.5375,
                    "velocity": 0.8267716535433071
                },
                {
                    "duration": 1.1291666666666629,
                    "durationTicks": 2168,
                    "midi": 69,
                    "name": "A4",
                    "ticks": 361088,
                    "time": 188.06666666666666,
                    "velocity": 0.8267716535433071
                },
                {
                    "duration": 0.5458333333333485,
                    "durationTicks": 1048,
                    "midi": 67,
                    "name": "G4",
                    "ticks": 363664,
                    "time": 189.40833333333333,
                    "velocity": 0.84251968503937
                },
                {
                    "duration": 0.8916666666666799,
                    "durationTicks": 1712,
                    "midi": 66,
                    "name": "F#4",
                    "ticks": 364888,
                    "time": 190.04583333333332,
                    "velocity": 0.8031496062992126
                },
                {
                    "duration": 0.19583333333335418,
                    "durationTicks": 376,
                    "midi": 67,
                    "name": "G4",
                    "ticks": 366856,
                    "time": 191.07083333333333,
                    "velocity": 0.8031496062992126
                },
                {
                    "duration": 0.23333333333332007,
                    "durationTicks": 448,
                    "midi": 59,
                    "name": "B3",
                    "ticks": 367800,
                    "time": 191.5625,
                    "velocity": 0.8031496062992126
                },
                {
                    "duration": 8.099999999999994,
                    "durationTicks": 15552,
                    "midi": 64,
                    "name": "E4",
                    "ticks": 368456,
                    "time": 191.90416666666667,
                    "velocity": 0.7401574803149606
                },
                {
                    "duration": 0.18333333333333712,
                    "durationTicks": 352,
                    "midi": 66,
                    "name": "F#4",
                    "ticks": 374512,
                    "time": 195.05833333333334,
                    "velocity": 0.9291338582677166
                },
                {
                    "duration": 0.32083333333332575,
                    "durationTicks": 616,
                    "midi": 67,
                    "name": "G4",
                    "ticks": 375360,
                    "time": 195.5,
                    "velocity": 0.8267716535433071
                },
                {
                    "duration": 1.9291666666666742,
                    "durationTicks": 3704,
                    "midi": 72,
                    "name": "C5",
                    "ticks": 376096,
                    "time": 195.88333333333333,
                    "velocity": 0.9448818897637795
                },
                {
                    "duration": 0.4583333333333428,
                    "durationTicks": 880,
                    "midi": 78,
                    "name": "F#5",
                    "ticks": 377176,
                    "time": 196.44583333333333,
                    "velocity": 0.7559055118110236
                },
                {
                    "duration": 0.9624999999999773,
                    "durationTicks": 1848,
                    "midi": 76,
                    "name": "E5",
                    "ticks": 377856,
                    "time": 196.8,
                    "velocity": 0.6299212598425197
                },
                {
                    "duration": 0.46666666666666856,
                    "durationTicks": 896,
                    "midi": 73,
                    "name": "C#5",
                    "ticks": 378480,
                    "time": 197.125,
                    "velocity": 0.5748031496062992
                },
                {
                    "duration": 0.40833333333333144,
                    "durationTicks": 784,
                    "midi": 71,
                    "name": "B4",
                    "ticks": 379096,
                    "time": 197.44583333333333,
                    "velocity": 0.6299212598425197
                },
                {
                    "duration": 0.5333333333333314,
                    "durationTicks": 1024,
                    "midi": 67,
                    "name": "G4",
                    "ticks": 379672,
                    "time": 197.74583333333334,
                    "velocity": 0.6220472440944882
                }
            ],
            "endOfTrackTicks": 384008
        },
        {
            "channel": 3,
            "controlChanges": {},
            "pitchBends": [],
            "instrument": {
                "family": "brass",
                "name": "muted trumpet",
                "number": 59
            },
            "name": "",
            "notes": [
                {
                    "duration": 0.19166666666666998,
                    "durationTicks": 368,
                    "midi": 64,
                    "name": "E4",
                    "ticks": 66872,
                    "time": 34.829166666666666,
                    "velocity": 0.9606299212598425
                },
                {
                    "duration": 0.25416666666667,
                    "durationTicks": 488,
                    "midi": 63,
                    "name": "D#4",
                    "ticks": 67536,
                    "time": 35.175,
                    "velocity": 0.5984251968503937
                },
                {
                    "duration": 0.3333333333333286,
                    "durationTicks": 640,
                    "midi": 64,
                    "name": "E4",
                    "ticks": 68216,
                    "time": 35.52916666666667,
                    "velocity": 0.7716535433070866
                },
                {
                    "duration": 0.6958333333333329,
                    "durationTicks": 1336,
                    "midi": 66,
                    "name": "F#4",
                    "ticks": 69192,
                    "time": 36.0375,
                    "velocity": 0.8740157480314961
                },
                {
                    "duration": 0.29999999999999716,
                    "durationTicks": 576,
                    "midi": 59,
                    "name": "B3",
                    "ticks": 70600,
                    "time": 36.770833333333336,
                    "velocity": 0.6299212598425197
                },
                {
                    "duration": 1.4249999999999972,
                    "durationTicks": 2736,
                    "midi": 66,
                    "name": "F#4",
                    "ticks": 71232,
                    "time": 37.1,
                    "velocity": 0.6929133858267716
                },
                {
                    "duration": 0.32500000000000284,
                    "durationTicks": 624,
                    "midi": 66,
                    "name": "F#4",
                    "ticks": 74552,
                    "time": 38.829166666666666,
                    "velocity": 1
                },
                {
                    "duration": 0.21249999999999858,
                    "durationTicks": 408,
                    "midi": 64,
                    "name": "E4",
                    "ticks": 75240,
                    "time": 39.1875,
                    "velocity": 0.7401574803149606
                },
                {
                    "duration": 0.20416666666666572,
                    "durationTicks": 392,
                    "midi": 66,
                    "name": "F#4",
                    "ticks": 75880,
                    "time": 39.520833333333336,
                    "velocity": 0.84251968503937
                },
                {
                    "duration": 2.0416666666666714,
                    "durationTicks": 3920,
                    "midi": 67,
                    "name": "G4",
                    "ticks": 76624,
                    "time": 39.90833333333333,
                    "velocity": 0.8267716535433071
                },
                {
                    "duration": 0.36250000000000426,
                    "durationTicks": 696,
                    "midi": 67,
                    "name": "G4",
                    "ticks": 81440,
                    "time": 42.416666666666664,
                    "velocity": 0.8740157480314961
                },
                {
                    "duration": 0.1458333333333286,
                    "durationTicks": 280,
                    "midi": 66,
                    "name": "F#4",
                    "ticks": 82704,
                    "time": 43.075,
                    "velocity": 0.9291338582677166
                },
                {
                    "duration": 0.23749999999999716,
                    "durationTicks": 456,
                    "midi": 67,
                    "name": "G4",
                    "ticks": 83560,
                    "time": 43.520833333333336,
                    "velocity": 0.8267716535433071
                },
                {
                    "duration": 2.4375,
                    "durationTicks": 4680,
                    "midi": 69,
                    "name": "A4",
                    "ticks": 84296,
                    "time": 43.90416666666667,
                    "velocity": 0.84251968503937
                },
                {
                    "duration": 0.5916666666666686,
                    "durationTicks": 1136,
                    "midi": 62,
                    "name": "D4",
                    "ticks": 89088,
                    "time": 46.4,
                    "velocity": 0.905511811023622
                },
                {
                    "duration": 0.6708333333333343,
                    "durationTicks": 1288,
                    "midi": 74,
                    "name": "D5",
                    "ticks": 90288,
                    "time": 47.025,
                    "velocity": 0.8740157480314961
                },
                {
                    "duration": 0.30416666666666714,
                    "durationTicks": 584,
                    "midi": 72,
                    "name": "C5",
                    "ticks": 91672,
                    "time": 47.74583333333333,
                    "velocity": 0.84251968503937
                },
                {
                    "duration": 2.883333333333333,
                    "durationTicks": 5536,
                    "midi": 71,
                    "name": "B4",
                    "ticks": 92304,
                    "time": 48.075,
                    "velocity": 0.7559055118110236
                },
                {
                    "duration": 0.19166666666666998,
                    "durationTicks": 368,
                    "midi": 70,
                    "name": "A#4",
                    "ticks": 98568,
                    "time": 51.3375,
                    "velocity": 0.9448818897637795
                },
                {
                    "duration": 0.22083333333333854,
                    "durationTicks": 424,
                    "midi": 71,
                    "name": "B4",
                    "ticks": 99200,
                    "time": 51.666666666666664,
                    "velocity": 0.8267716535433071
                },
                {
                    "duration": 0.6083333333333343,
                    "durationTicks": 1168,
                    "midi": 72,
                    "name": "C5",
                    "ticks": 99896,
                    "time": 52.02916666666667,
                    "velocity": 0.889763779527559
                },
                {
                    "duration": 0.32500000000000284,
                    "durationTicks": 624,
                    "midi": 72,
                    "name": "C5",
                    "ticks": 101256,
                    "time": 52.7375,
                    "velocity": 0.84251968503937
                },
                {
                    "duration": 0.24166666666666714,
                    "durationTicks": 464,
                    "midi": 69,
                    "name": "A4",
                    "ticks": 101920,
                    "time": 53.083333333333336,
                    "velocity": 0.8031496062992126
                },
                {
                    "duration": 0.3125,
                    "durationTicks": 600,
                    "midi": 69,
                    "name": "A4",
                    "ticks": 102664,
                    "time": 53.47083333333333,
                    "velocity": 0.7559055118110236
                },
                {
                    "duration": 1.2333333333333272,
                    "durationTicks": 2368,
                    "midi": 66,
                    "name": "F#4",
                    "ticks": 103448,
                    "time": 53.87916666666667,
                    "velocity": 0.8267716535433071
                },
                {
                    "duration": 0.2291666666666643,
                    "durationTicks": 440,
                    "midi": 71,
                    "name": "B4",
                    "ticks": 106288,
                    "time": 55.358333333333334,
                    "velocity": 0.84251968503937
                },
                {
                    "duration": 0.5249999999999986,
                    "durationTicks": 1008,
                    "midi": 72,
                    "name": "C5",
                    "ticks": 106496,
                    "time": 55.46666666666667,
                    "velocity": 0.8031496062992126
                },
                {
                    "duration": 0.625,
                    "durationTicks": 1200,
                    "midi": 71,
                    "name": "B4",
                    "ticks": 107584,
                    "time": 56.03333333333333,
                    "velocity": 0.84251968503937
                },
                {
                    "duration": 122.08333333333334,
                    "durationTicks": 234400,
                    "midi": 71,
                    "name": "B4",
                    "ticks": 109200,
                    "time": 56.875,
                    "velocity": 0.84251968503937
                },
                {
                    "duration": 0.19166666666666288,
                    "durationTicks": 368,
                    "midi": 64,
                    "name": "E4",
                    "ticks": 312632,
                    "time": 162.82916666666668,
                    "velocity": 0.9606299212598425
                },
                {
                    "duration": 0.2541666666666629,
                    "durationTicks": 488,
                    "midi": 63,
                    "name": "D#4",
                    "ticks": 313296,
                    "time": 163.175,
                    "velocity": 0.5984251968503937
                },
                {
                    "duration": 0.3333333333333428,
                    "durationTicks": 640,
                    "midi": 64,
                    "name": "E4",
                    "ticks": 313976,
                    "time": 163.52916666666667,
                    "velocity": 0.7716535433070866
                },
                {
                    "duration": 0.6958333333333258,
                    "durationTicks": 1336,
                    "midi": 66,
                    "name": "F#4",
                    "ticks": 314952,
                    "time": 164.0375,
                    "velocity": 0.8740157480314961
                },
                {
                    "duration": 0.29999999999998295,
                    "durationTicks": 576,
                    "midi": 59,
                    "name": "B3",
                    "ticks": 316360,
                    "time": 164.77083333333334,
                    "velocity": 0.6299212598425197
                },
                {
                    "duration": 1.4250000000000114,
                    "durationTicks": 2736,
                    "midi": 66,
                    "name": "F#4",
                    "ticks": 316992,
                    "time": 165.1,
                    "velocity": 0.6929133858267716
                },
                {
                    "duration": 0.32499999999998863,
                    "durationTicks": 624,
                    "midi": 66,
                    "name": "F#4",
                    "ticks": 320312,
                    "time": 166.82916666666668,
                    "velocity": 1
                },
                {
                    "duration": 0.21250000000000568,
                    "durationTicks": 408,
                    "midi": 64,
                    "name": "E4",
                    "ticks": 321000,
                    "time": 167.1875,
                    "velocity": 0.7401574803149606
                },
                {
                    "duration": 0.2041666666666515,
                    "durationTicks": 392,
                    "midi": 66,
                    "name": "F#4",
                    "ticks": 321640,
                    "time": 167.52083333333334,
                    "velocity": 0.84251968503937
                },
                {
                    "duration": 2.041666666666657,
                    "durationTicks": 3920,
                    "midi": 67,
                    "name": "G4",
                    "ticks": 322384,
                    "time": 167.90833333333333,
                    "velocity": 0.8267716535433071
                },
                {
                    "duration": 0.36250000000001137,
                    "durationTicks": 696,
                    "midi": 67,
                    "name": "G4",
                    "ticks": 327200,
                    "time": 170.41666666666666,
                    "velocity": 0.8740157480314961
                },
                {
                    "duration": 0.1458333333333428,
                    "durationTicks": 280,
                    "midi": 66,
                    "name": "F#4",
                    "ticks": 328464,
                    "time": 171.075,
                    "velocity": 0.9291338582677166
                },
                {
                    "duration": 0.23749999999998295,
                    "durationTicks": 456,
                    "midi": 67,
                    "name": "G4",
                    "ticks": 329320,
                    "time": 171.52083333333334,
                    "velocity": 0.8267716535433071
                },
                {
                    "duration": 2.4375,
                    "durationTicks": 4680,
                    "midi": 69,
                    "name": "A4",
                    "ticks": 330056,
                    "time": 171.90416666666667,
                    "velocity": 0.84251968503937
                },
                {
                    "duration": 0.5916666666666686,
                    "durationTicks": 1136,
                    "midi": 62,
                    "name": "D4",
                    "ticks": 334848,
                    "time": 174.4,
                    "velocity": 0.905511811023622
                },
                {
                    "duration": 0.6708333333333201,
                    "durationTicks": 1288,
                    "midi": 74,
                    "name": "D5",
                    "ticks": 336048,
                    "time": 175.025,
                    "velocity": 0.8740157480314961
                },
                {
                    "duration": 0.30416666666667425,
                    "durationTicks": 584,
                    "midi": 72,
                    "name": "C5",
                    "ticks": 337432,
                    "time": 175.74583333333334,
                    "velocity": 0.84251968503937
                },
                {
                    "duration": 3.8125,
                    "durationTicks": 7320,
                    "midi": 71,
                    "name": "B4",
                    "ticks": 338064,
                    "time": 176.075,
                    "velocity": 0.7559055118110236
                },
                {
                    "duration": 0.19166666666666288,
                    "durationTicks": 368,
                    "midi": 70,
                    "name": "A#4",
                    "ticks": 344328,
                    "time": 179.3375,
                    "velocity": 0.9448818897637795
                },
                {
                    "duration": 3.9208333333333485,
                    "durationTicks": 7528,
                    "midi": 71,
                    "name": "B4",
                    "ticks": 344960,
                    "time": 179.66666666666666,
                    "velocity": 0.8267716535433071
                },
                {
                    "duration": 0.6083333333333201,
                    "durationTicks": 1168,
                    "midi": 72,
                    "name": "C5",
                    "ticks": 345656,
                    "time": 180.02916666666667,
                    "velocity": 0.889763779527559
                },
                {
                    "duration": 0.32499999999998863,
                    "durationTicks": 624,
                    "midi": 72,
                    "name": "C5",
                    "ticks": 347016,
                    "time": 180.7375,
                    "velocity": 0.84251968503937
                },
                {
                    "duration": 0.24166666666664582,
                    "durationTicks": 464,
                    "midi": 69,
                    "name": "A4",
                    "ticks": 347680,
                    "time": 181.08333333333334,
                    "velocity": 0.8031496062992126
                },
                {
                    "duration": 0.3125,
                    "durationTicks": 600,
                    "midi": 69,
                    "name": "A4",
                    "ticks": 348424,
                    "time": 181.47083333333333,
                    "velocity": 0.7559055118110236
                },
                {
                    "duration": 1.2333333333333485,
                    "durationTicks": 2368,
                    "midi": 66,
                    "name": "F#4",
                    "ticks": 349208,
                    "time": 181.87916666666666,
                    "velocity": 0.8267716535433071
                },
                {
                    "duration": 1.3000000000000114,
                    "durationTicks": 2496,
                    "midi": 71,
                    "name": "B4",
                    "ticks": 352048,
                    "time": 183.35833333333332,
                    "velocity": 0.84251968503937
                },
                {
                    "duration": 0.5250000000000057,
                    "durationTicks": 1008,
                    "midi": 72,
                    "name": "C5",
                    "ticks": 352256,
                    "time": 183.46666666666667,
                    "velocity": 0.8031496062992126
                }
            ]
        }
    ]
}