{
    "header": {
        "keySignatures": [],
        "meta": [],
        "name": "",
        "ppq": 240,
        "tempos": [
            {
                "bpm": 137.99987580011177,
                "ticks": 0
            }
        ],
        "timeSignatures": [
            {
                "ticks": 0,
                "timeSignature": [
                    4,
                    4
                ],
                "measures": 0
            }
        ]
    },
    "tracks": [
        {
            "channel": 0,
            "controlChanges": {},
            "pitchBends": [],
            "instrument": {
                "family": "piano",
                "name": "acoustic grand piano",
                "number": 0
            },
            "name": "      \" AUTUMN LEAVES \"",
            "notes": [],
            "endOfTrackTicks": 0
        },
        {
            "channel": 0,
            "controlChanges": {},
            "pitchBends": [],
            "instrument": {
                "family": "piano",
                "name": "acoustic grand piano",
                "number": 0
            },
            "name": "",
            "notes": [],
            "endOfTrackTicks": 0
        },
        {
            "channel": 0,
            "controlChanges": {},
            "pitchBends": [],
            "instrument": {
                "family": "piano",
                "name": "acoustic grand piano",
                "number": 0
            },
            "name": "Orchestration & midi prep by ",
            "notes": [],
            "endOfTrackTicks": 0
        },
        {
            "channel": 0,
            "controlChanges": {},
            "pitchBends": [],
            "instrument": {
                "family": "piano",
                "name": "acoustic grand piano",
                "number": 0
            },
            "name": "              MEL WEBB",
            "notes": [],
            "endOfTrackTicks": 0
        },
        {
            "channel": 0,
            "controlChanges": {},
            "pitchBends": [],
            "instrument": {
                "family": "piano",
                "name": "acoustic grand piano",
                "number": 0
            },
            "name": "",
            "notes": [],
            "endOfTrackTicks": 0
        },
        {
            "channel": 1,
            "controlChanges": {
                "7": [
                    {
                        "number": 7,
                        "ticks": 0,
                        "time": 0,
                        "value": 0.7086614173228346
                    }
                ],
                "10": [
                    {
                        "number": 10,
                        "ticks": 0,
                        "time": 0,
                        "value": 0.5039370078740157
                    }
                ],
                "64": [
                    {
                        "number": 64,
                        "ticks": 0,
                        "time": 0,
                        "value": 0
                    }
                ],
                "91": [
                    {
                        "number": 91,
                        "ticks": 0,
                        "time": 0,
                        "value": 0.31496062992125984
                    }
                ],
                "93": [
                    {
                        "number": 93,
                        "ticks": 0,
                        "time": 0,
                        "value": 0
                    }
                ],
                "123": [
                    {
                        "number": 123,
                        "ticks": 0,
                        "time": 0,
                        "value": 0
                    }
                ]
            },
            "pitchBends": [],
            "instrument": {
                "family": "bass",
                "name": "acoustic bass",
                "number": 32
            },
            "name": "Bass / Acoustic bass",
            "notes": [
                {
                    "duration": 0.8731891916666665,
                    "durationTicks": 482,
                    "midi": 33,
                    "name": "A1",
                    "ticks": 1932,
                    "time": 3.5000031500000004,
                    "velocity": 0.6299212598425197
                },
                {
                    "duration": 0.8333340833333338,
                    "durationTicks": 460,
                    "midi": 28,
                    "name": "E1",
                    "ticks": 2420,
                    "time": 4.384061916666667,
                    "velocity": 0.5669291338582677
                },
                {
                    "duration": 0.8731891916666665,
                    "durationTicks": 482,
                    "midi": 38,
                    "name": "D2",
                    "ticks": 2892,
                    "time": 5.239135150000001,
                    "velocity": 0.6299212598425197
                },
                {
                    "duration": 0.8333340833333329,
                    "durationTicks": 460,
                    "midi": 33,
                    "name": "A1",
                    "ticks": 3380,
                    "time": 6.123193916666668,
                    "velocity": 0.5669291338582677
                },
                {
                    "duration": 0.9456530250000004,
                    "durationTicks": 522,
                    "midi": 43,
                    "name": "G2",
                    "ticks": 3840,
                    "time": 6.9565280000000005,
                    "velocity": 0.6141732283464567
                },
                {
                    "duration": 0.8695659999999998,
                    "durationTicks": 480,
                    "midi": 38,
                    "name": "D2",
                    "ticks": 4320,
                    "time": 7.826094,
                    "velocity": 0.5748031496062992
                },
                {
                    "duration": 0.9166674916666668,
                    "durationTicks": 506,
                    "midi": 36,
                    "name": "C2",
                    "ticks": 4800,
                    "time": 8.69566,
                    "velocity": 0.6299212598425197
                },
                {
                    "duration": 0.5398555583333327,
                    "durationTicks": 298,
                    "midi": 31,
                    "name": "G1",
                    "ticks": 5280,
                    "time": 9.565226000000001,
                    "velocity": 0.5275590551181102
                },
                {
                    "duration": 0.12318851666666752,
                    "durationTicks": 68,
                    "midi": 31,
                    "name": "G1",
                    "ticks": 5692,
                    "time": 10.311603483333334,
                    "velocity": 0.5826771653543307
                },
                {
                    "duration": 0.8731891916666665,
                    "durationTicks": 482,
                    "midi": 42,
                    "name": "F#2",
                    "ticks": 5772,
                    "time": 10.456531150000002,
                    "velocity": 0.6299212598425197
                },
                {
                    "duration": 0.8333340833333338,
                    "durationTicks": 460,
                    "midi": 36,
                    "name": "C2",
                    "ticks": 6260,
                    "time": 11.340589916666667,
                    "velocity": 0.5669291338582677
                },
                {
                    "duration": 0.9021747250000001,
                    "durationTicks": 498,
                    "midi": 35,
                    "name": "B1",
                    "ticks": 6720,
                    "time": 12.173924000000001,
                    "velocity": 0.5748031496062992
                },
                {
                    "duration": 0.7246383333333348,
                    "durationTicks": 400,
                    "midi": 42,
                    "name": "F#2",
                    "ticks": 7200,
                    "time": 13.04349,
                    "velocity": 0.5984251968503937
                },
                {
                    "duration": 0.07971021666666722,
                    "durationTicks": 44,
                    "midi": 35,
                    "name": "B1",
                    "ticks": 7600,
                    "time": 13.768128333333335,
                    "velocity": 0.5748031496062992
                },
                {
                    "duration": 0.8840587666666657,
                    "durationTicks": 488,
                    "midi": 40,
                    "name": "E2",
                    "ticks": 7680,
                    "time": 13.913056000000001,
                    "velocity": 0.6220472440944882
                },
                {
                    "duration": 0.869565999999999,
                    "durationTicks": 480,
                    "midi": 47,
                    "name": "B2",
                    "ticks": 8160,
                    "time": 14.782622000000002,
                    "velocity": 0.5433070866141733
                },
                {
                    "duration": 0.47101491666666995,
                    "durationTicks": 260,
                    "midi": 28,
                    "name": "E1",
                    "ticks": 8640,
                    "time": 15.652188,
                    "velocity": 0.5669291338582677
                },
                {
                    "duration": 0.3985510833333308,
                    "durationTicks": 220,
                    "midi": 39,
                    "name": "D#2",
                    "ticks": 8900,
                    "time": 16.12320291666667,
                    "velocity": 0.5433070866141733
                },
                {
                    "duration": 0.869565999999999,
                    "durationTicks": 480,
                    "midi": 40,
                    "name": "E2",
                    "ticks": 9120,
                    "time": 16.521754,
                    "velocity": 0.5826771653543307
                },
                {
                    "duration": 0.3260872500000005,
                    "durationTicks": 180,
                    "midi": 45,
                    "name": "A2",
                    "ticks": 9600,
                    "time": 17.39132,
                    "velocity": 0.5511811023622047
                },
                {
                    "duration": 0.6014498166666655,
                    "durationTicks": 332,
                    "midi": 33,
                    "name": "A1",
                    "ticks": 9768,
                    "time": 17.695668100000002,
                    "velocity": 0.6456692913385826
                },
                {
                    "duration": 0.869565999999999,
                    "durationTicks": 480,
                    "midi": 40,
                    "name": "E2",
                    "ticks": 10080,
                    "time": 18.260886000000003,
                    "velocity": 0.5511811023622047
                },
                {
                    "duration": 0.7282615249999971,
                    "durationTicks": 402,
                    "midi": 38,
                    "name": "D2",
                    "ticks": 10560,
                    "time": 19.130452000000002,
                    "velocity": 0.49606299212598426
                },
                {
                    "duration": 0.18115958333333282,
                    "durationTicks": 100,
                    "midi": 45,
                    "name": "A2",
                    "ticks": 10968,
                    "time": 19.869583100000003,
                    "velocity": 0.5748031496062992
                },
                {
                    "duration": 0.18478277499999862,
                    "durationTicks": 102,
                    "midi": 50,
                    "name": "D3",
                    "ticks": 11040,
                    "time": 20.000018,
                    "velocity": 0.5118110236220472
                },
                {
                    "duration": 0.15942043333333444,
                    "durationTicks": 88,
                    "midi": 45,
                    "name": "A2",
                    "ticks": 11208,
                    "time": 20.304366100000003,
                    "velocity": 0.7165354330708661
                },
                {
                    "duration": 0.3913046999999992,
                    "durationTicks": 216,
                    "midi": 38,
                    "name": "D2",
                    "ticks": 11280,
                    "time": 20.434801,
                    "velocity": 0.6299212598425197
                },
                {
                    "duration": 0.8514500416666664,
                    "durationTicks": 470,
                    "midi": 43,
                    "name": "G2",
                    "ticks": 11520,
                    "time": 20.869584000000003,
                    "velocity": 0.6220472440944882
                },
                {
                    "duration": 0.7789862083333325,
                    "durationTicks": 430,
                    "midi": 38,
                    "name": "D2",
                    "ticks": 12000,
                    "time": 21.739150000000002,
                    "velocity": 0.6535433070866141
                },
                {
                    "duration": 0.039855108333330946,
                    "durationTicks": 22,
                    "midi": 31,
                    "name": "G1",
                    "ticks": 12408,
                    "time": 22.478281100000004,
                    "velocity": 0.48031496062992124
                },
                {
                    "duration": 0.7210151416666655,
                    "durationTicks": 398,
                    "midi": 36,
                    "name": "C2",
                    "ticks": 12480,
                    "time": 22.608716,
                    "velocity": 0.6062992125984252
                },
                {
                    "duration": 0.28260895000000374,
                    "durationTicks": 156,
                    "midi": 43,
                    "name": "G2",
                    "ticks": 12880,
                    "time": 23.333354333333332,
                    "velocity": 0.5511811023622047
                },
                {
                    "duration": 0.5797106666666672,
                    "durationTicks": 320,
                    "midi": 43,
                    "name": "G2",
                    "ticks": 13120,
                    "time": 23.768137333333335,
                    "velocity": 0.5905511811023622
                },
                {
                    "duration": 0.9456530249999986,
                    "durationTicks": 522,
                    "midi": 42,
                    "name": "F#2",
                    "ticks": 13440,
                    "time": 24.347848000000003,
                    "velocity": 0.6141732283464567
                },
                {
                    "duration": 0.869565999999999,
                    "durationTicks": 480,
                    "midi": 36,
                    "name": "C2",
                    "ticks": 13920,
                    "time": 25.217414,
                    "velocity": 0.5748031496062992
                },
                {
                    "duration": 0.8514500416666699,
                    "durationTicks": 470,
                    "midi": 35,
                    "name": "B1",
                    "ticks": 14400,
                    "time": 26.08698,
                    "velocity": 0.6220472440944882
                },
                {
                    "duration": 0.7789862083333325,
                    "durationTicks": 430,
                    "midi": 42,
                    "name": "F#2",
                    "ticks": 14880,
                    "time": 26.956546000000003,
                    "velocity": 0.6535433070866141
                },
                {
                    "duration": 0.039855108333330946,
                    "durationTicks": 22,
                    "midi": 23,
                    "name": "B0",
                    "ticks": 15288,
                    "time": 27.695677100000005,
                    "velocity": 0.48031496062992124
                },
                {
                    "duration": 0.840580466666669,
                    "durationTicks": 464,
                    "midi": 40,
                    "name": "E2",
                    "ticks": 15360,
                    "time": 27.826112000000002,
                    "velocity": 0.6377952755905512
                },
                {
                    "duration": 0.8695660000000025,
                    "durationTicks": 480,
                    "midi": 47,
                    "name": "B2",
                    "ticks": 15840,
                    "time": 28.695678,
                    "velocity": 0.7086614173228346
                },
                {
                    "duration": 0.35869597499999983,
                    "durationTicks": 198,
                    "midi": 40,
                    "name": "E2",
                    "ticks": 16320,
                    "time": 29.565244000000003,
                    "velocity": 0.5590551181102362
                },
                {
                    "duration": 0.09782617499999802,
                    "durationTicks": 54,
                    "midi": 28,
                    "name": "E1",
                    "ticks": 16488,
                    "time": 29.869592100000002,
                    "velocity": 0.3228346456692913
                },
                {
                    "duration": 0.394927891666665,
                    "durationTicks": 218,
                    "midi": 39,
                    "name": "D#2",
                    "ticks": 16560,
                    "time": 30.000027000000003,
                    "velocity": 0.5275590551181102
                },
                {
                    "duration": 0.4239134249999985,
                    "durationTicks": 234,
                    "midi": 40,
                    "name": "E2",
                    "ticks": 16800,
                    "time": 30.434810000000002,
                    "velocity": 0.6535433070866141
                },
                {
                    "duration": 0.3514495916666682,
                    "durationTicks": 194,
                    "midi": 41,
                    "name": "F2",
                    "ticks": 17040,
                    "time": 30.869593000000002,
                    "velocity": 0.6771653543307087
                },
                {
                    "duration": 0.4347829999999995,
                    "durationTicks": 240,
                    "midi": 42,
                    "name": "F#2",
                    "ticks": 17280,
                    "time": 31.304376,
                    "velocity": 0.6220472440944882
                },
                {
                    "duration": 0.4384061916666724,
                    "durationTicks": 242,
                    "midi": 48,
                    "name": "C3",
                    "ticks": 17520,
                    "time": 31.739159,
                    "velocity": 0.6141732283464567
                },
                {
                    "duration": 0.4384061916666653,
                    "durationTicks": 242,
                    "midi": 45,
                    "name": "A2",
                    "ticks": 17762,
                    "time": 32.17756519166667,
                    "velocity": 0.5748031496062992
                },
                {
                    "duration": 0.4275366166666643,
                    "durationTicks": 236,
                    "midi": 42,
                    "name": "F#2",
                    "ticks": 18004,
                    "time": 32.61597138333334,
                    "velocity": 0.7165354330708661
                },
                {
                    "duration": 0.4384061916666724,
                    "durationTicks": 242,
                    "midi": 35,
                    "name": "B1",
                    "ticks": 18240,
                    "time": 33.043508,
                    "velocity": 0.5039370078740157
                },
                {
                    "duration": 0.44202938333332753,
                    "durationTicks": 244,
                    "midi": 33,
                    "name": "A1",
                    "ticks": 18480,
                    "time": 33.478291000000006,
                    "velocity": 0.6377952755905512
                },
                {
                    "duration": 0.5036236416666711,
                    "durationTicks": 278,
                    "midi": 30,
                    "name": "F#1",
                    "ticks": 18724,
                    "time": 33.92032038333333,
                    "velocity": 0.47244094488188976
                },
                {
                    "duration": 0.4347829999999959,
                    "durationTicks": 240,
                    "midi": 41,
                    "name": "F2",
                    "ticks": 18960,
                    "time": 34.347857000000005,
                    "velocity": 0.6141732283464567
                },
                {
                    "duration": 0.4855076833333314,
                    "durationTicks": 268,
                    "midi": 28,
                    "name": "E1",
                    "ticks": 19200,
                    "time": 34.78264,
                    "velocity": 0.6850393700787402
                },
                {
                    "duration": 0.4746381083333304,
                    "durationTicks": 262,
                    "midi": 30,
                    "name": "F#1",
                    "ticks": 19440,
                    "time": 35.217423000000004,
                    "velocity": 0.6377952755905512
                },
                {
                    "duration": 0.43478300000000303,
                    "durationTicks": 240,
                    "midi": 31,
                    "name": "G1",
                    "ticks": 19680,
                    "time": 35.652206,
                    "velocity": 0.6535433070866141
                },
                {
                    "duration": 0.4746381083333375,
                    "durationTicks": 262,
                    "midi": 35,
                    "name": "B1",
                    "ticks": 19920,
                    "time": 36.086989,
                    "velocity": 0.6614173228346457
                },
                {
                    "duration": 0.45652214999999785,
                    "durationTicks": 252,
                    "midi": 40,
                    "name": "E2",
                    "ticks": 20160,
                    "time": 36.521772000000006,
                    "velocity": 0.5905511811023622
                },
                {
                    "duration": 0.4673917249999988,
                    "durationTicks": 258,
                    "midi": 35,
                    "name": "B1",
                    "ticks": 20400,
                    "time": 36.956555,
                    "velocity": 0.5354330708661418
                },
                {
                    "duration": 0.4384061916666653,
                    "durationTicks": 242,
                    "midi": 31,
                    "name": "G1",
                    "ticks": 20640,
                    "time": 37.391338000000005,
                    "velocity": 0.6377952755905512
                },
                {
                    "duration": 0.3876815083333369,
                    "durationTicks": 214,
                    "midi": 28,
                    "name": "E1",
                    "ticks": 20880,
                    "time": 37.826121,
                    "velocity": 0.6614173228346457
                },
                {
                    "duration": 0.4347829999999959,
                    "durationTicks": 240,
                    "midi": 33,
                    "name": "A1",
                    "ticks": 21120,
                    "time": 38.260904000000004,
                    "velocity": 0.6220472440944882
                },
                {
                    "duration": 0.4384061916666724,
                    "durationTicks": 242,
                    "midi": 40,
                    "name": "E2",
                    "ticks": 21360,
                    "time": 38.695687,
                    "velocity": 0.6141732283464567
                },
                {
                    "duration": 0.4384061916666653,
                    "durationTicks": 242,
                    "midi": 36,
                    "name": "C2",
                    "ticks": 21602,
                    "time": 39.13409319166667,
                    "velocity": 0.5748031496062992
                },
                {
                    "duration": 0.4275366166666643,
                    "durationTicks": 236,
                    "midi": 33,
                    "name": "A1",
                    "ticks": 21844,
                    "time": 39.57249938333334,
                    "velocity": 0.7165354330708661
                },
                {
                    "duration": 0.21739149999999796,
                    "durationTicks": 120,
                    "midi": 38,
                    "name": "D2",
                    "ticks": 22080,
                    "time": 40.000036,
                    "velocity": 0.5669291338582677
                },
                {
                    "duration": 0.48188449166666203,
                    "durationTicks": 266,
                    "midi": 38,
                    "name": "D2",
                    "ticks": 22320,
                    "time": 40.434819000000005,
                    "velocity": 0.6062992125984252
                },
                {
                    "duration": 0.4275366166666714,
                    "durationTicks": 236,
                    "midi": 33,
                    "name": "A1",
                    "ticks": 22560,
                    "time": 40.869602,
                    "velocity": 0.5984251968503937
                },
                {
                    "duration": 0.43478300000000303,
                    "durationTicks": 240,
                    "midi": 42,
                    "name": "F#2",
                    "ticks": 22800,
                    "time": 41.304385,
                    "velocity": 0.6299212598425197
                },
                {
                    "duration": 0.4855076833333243,
                    "durationTicks": 268,
                    "midi": 31,
                    "name": "G1",
                    "ticks": 23040,
                    "time": 41.73916800000001,
                    "velocity": 0.6850393700787402
                },
                {
                    "duration": 0.4746381083333375,
                    "durationTicks": 262,
                    "midi": 33,
                    "name": "A1",
                    "ticks": 23280,
                    "time": 42.173951,
                    "velocity": 0.6377952755905512
                },
                {
                    "duration": 0.4347829999999959,
                    "durationTicks": 240,
                    "midi": 35,
                    "name": "B1",
                    "ticks": 23520,
                    "time": 42.608734000000005,
                    "velocity": 0.6535433070866141
                },
                {
                    "duration": 0.4746381083333375,
                    "durationTicks": 262,
                    "midi": 38,
                    "name": "D2",
                    "ticks": 23760,
                    "time": 43.043517,
                    "velocity": 0.6614173228346457
                },
                {
                    "duration": 0.45652214999999785,
                    "durationTicks": 252,
                    "midi": 43,
                    "name": "G2",
                    "ticks": 24000,
                    "time": 43.478300000000004,
                    "velocity": 0.5905511811023622
                },
                {
                    "duration": 0.4673917250000059,
                    "durationTicks": 258,
                    "midi": 38,
                    "name": "D2",
                    "ticks": 24240,
                    "time": 43.913083,
                    "velocity": 0.5354330708661418
                },
                {
                    "duration": 0.4384061916666724,
                    "durationTicks": 242,
                    "midi": 35,
                    "name": "B1",
                    "ticks": 24480,
                    "time": 44.347866,
                    "velocity": 0.6377952755905512
                },
                {
                    "duration": 0.3876815083333298,
                    "durationTicks": 214,
                    "midi": 31,
                    "name": "G1",
                    "ticks": 24720,
                    "time": 44.782649000000006,
                    "velocity": 0.6614173228346457
                },
                {
                    "duration": 0.43478300000000303,
                    "durationTicks": 240,
                    "midi": 42,
                    "name": "F#2",
                    "ticks": 24960,
                    "time": 45.217432,
                    "velocity": 0.6220472440944882
                },
                {
                    "duration": 0.4384061916666653,
                    "durationTicks": 242,
                    "midi": 48,
                    "name": "C3",
                    "ticks": 25200,
                    "time": 45.652215000000005,
                    "velocity": 0.6141732283464567
                },
                {
                    "duration": 0.4384061916666653,
                    "durationTicks": 242,
                    "midi": 45,
                    "name": "A2",
                    "ticks": 25442,
                    "time": 46.09062119166667,
                    "velocity": 0.5748031496062992
                },
                {
                    "duration": 0.4275366166666643,
                    "durationTicks": 236,
                    "midi": 42,
                    "name": "F#2",
                    "ticks": 25684,
                    "time": 46.529027383333336,
                    "velocity": 0.7165354330708661
                },
                {
                    "duration": 0.514493216666672,
                    "durationTicks": 284,
                    "midi": 35,
                    "name": "B1",
                    "ticks": 25920,
                    "time": 46.956564,
                    "velocity": 0.6220472440944882
                },
                {
                    "duration": 0.4673917249999988,
                    "durationTicks": 258,
                    "midi": 42,
                    "name": "F#2",
                    "ticks": 26160,
                    "time": 47.391347,
                    "velocity": 0.6062992125984252
                },
                {
                    "duration": 0.4528989583333356,
                    "durationTicks": 250,
                    "midi": 47,
                    "name": "B2",
                    "ticks": 26400,
                    "time": 47.826130000000006,
                    "velocity": 0.6535433070866141
                },
                {
                    "duration": 0.3333336333333321,
                    "durationTicks": 184,
                    "midi": 42,
                    "name": "F#2",
                    "ticks": 26640,
                    "time": 48.260913,
                    "velocity": 0.7401574803149606
                },
                {
                    "duration": 0.057971066666674176,
                    "durationTicks": 32,
                    "midi": 41,
                    "name": "F2",
                    "ticks": 26848,
                    "time": 48.63772493333333,
                    "velocity": 0.5511811023622047
                },
                {
                    "duration": 0.47101491666666107,
                    "durationTicks": 260,
                    "midi": 28,
                    "name": "E1",
                    "ticks": 26880,
                    "time": 48.695696000000005,
                    "velocity": 0.5669291338582677
                },
                {
                    "duration": 0.3985510833333379,
                    "durationTicks": 220,
                    "midi": 38,
                    "name": "D2",
                    "ticks": 27140,
                    "time": 49.166710916666666,
                    "velocity": 0.5433070866141733
                },
                {
                    "duration": 0.41666704166666335,
                    "durationTicks": 230,
                    "midi": 39,
                    "name": "D#2",
                    "ticks": 27360,
                    "time": 49.565262000000004,
                    "velocity": 0.7401574803149606
                },
                {
                    "duration": 0.07246383333333739,
                    "durationTicks": 40,
                    "midi": 34,
                    "name": "A#1",
                    "ticks": 27538,
                    "time": 49.887726058333335,
                    "velocity": 0.5511811023622047
                },
                {
                    "duration": 0.32246405833333114,
                    "durationTicks": 178,
                    "midi": 46,
                    "name": "A#2",
                    "ticks": 27600,
                    "time": 50.000045,
                    "velocity": 0.6850393700787402
                },
                {
                    "duration": 0.06159425833334353,
                    "durationTicks": 34,
                    "midi": 34,
                    "name": "A#1",
                    "ticks": 27778,
                    "time": 50.32250905833333,
                    "velocity": 0.5669291338582677
                },
                {
                    "duration": 0.4130438500000011,
                    "durationTicks": 228,
                    "midi": 38,
                    "name": "D2",
                    "ticks": 27840,
                    "time": 50.434828,
                    "velocity": 0.6535433070866141
                },
                {
                    "duration": 0.4347829999999959,
                    "durationTicks": 240,
                    "midi": 36,
                    "name": "C2",
                    "ticks": 28080,
                    "time": 50.869611000000006,
                    "velocity": 0.6062992125984252
                },
                {
                    "duration": 0.43478300000000303,
                    "durationTicks": 240,
                    "midi": 37,
                    "name": "C#2",
                    "ticks": 28320,
                    "time": 51.304394,
                    "velocity": 0.6062992125984252
                },
                {
                    "duration": 0.4347829999999959,
                    "durationTicks": 240,
                    "midi": 37,
                    "name": "C#2",
                    "ticks": 28560,
                    "time": 51.739177000000005,
                    "velocity": 0.6614173228346457
                },
                {
                    "duration": 0.4673917250000059,
                    "durationTicks": 258,
                    "midi": 36,
                    "name": "C2",
                    "ticks": 28800,
                    "time": 52.17396,
                    "velocity": 0.6771653543307087
                },
                {
                    "duration": 0.4855076833333314,
                    "durationTicks": 268,
                    "midi": 48,
                    "name": "C3",
                    "ticks": 29040,
                    "time": 52.608743000000004,
                    "velocity": 0.5433070866141733
                },
                {
                    "duration": 0.4456525749999969,
                    "durationTicks": 246,
                    "midi": 43,
                    "name": "G2",
                    "ticks": 29280,
                    "time": 53.04352600000001,
                    "velocity": 0.6377952755905512
                },
                {
                    "duration": 0.43478300000000303,
                    "durationTicks": 240,
                    "midi": 40,
                    "name": "E2",
                    "ticks": 29520,
                    "time": 53.478309,
                    "velocity": 0.6850393700787402
                },
                {
                    "duration": 0.41666704166666335,
                    "durationTicks": 230,
                    "midi": 42,
                    "name": "F#2",
                    "ticks": 29760,
                    "time": 53.913092000000006,
                    "velocity": 0.7401574803149606
                },
                {
                    "duration": 0.07246383333333029,
                    "durationTicks": 40,
                    "midi": 36,
                    "name": "C2",
                    "ticks": 29938,
                    "time": 54.23555605833334,
                    "velocity": 0.5511811023622047
                },
                {
                    "duration": 0.32246405833333114,
                    "durationTicks": 178,
                    "midi": 48,
                    "name": "C3",
                    "ticks": 30000,
                    "time": 54.347875,
                    "velocity": 0.6850393700787402
                },
                {
                    "duration": 0.06159425833334353,
                    "durationTicks": 34,
                    "midi": 36,
                    "name": "C2",
                    "ticks": 30178,
                    "time": 54.67033905833333,
                    "velocity": 0.5669291338582677
                },
                {
                    "duration": 0.48913087500000074,
                    "durationTicks": 270,
                    "midi": 47,
                    "name": "B2",
                    "ticks": 30240,
                    "time": 54.782658000000005,
                    "velocity": 0.6377952755905512
                },
                {
                    "duration": 0.43478300000000303,
                    "durationTicks": 240,
                    "midi": 42,
                    "name": "F#2",
                    "ticks": 30480,
                    "time": 55.217441,
                    "velocity": 0.6299212598425197
                },
                {
                    "duration": 0.22826107500000603,
                    "durationTicks": 126,
                    "midi": 40,
                    "name": "E2",
                    "ticks": 30720,
                    "time": 55.652224000000004,
                    "velocity": 0.6299212598425197
                },
                {
                    "duration": 0.5362323666666597,
                    "durationTicks": 296,
                    "midi": 40,
                    "name": "E2",
                    "ticks": 30960,
                    "time": 56.08700700000001,
                    "velocity": 0.6456692913385826
                },
                {
                    "duration": 0.46376853333332946,
                    "durationTicks": 256,
                    "midi": 35,
                    "name": "B1",
                    "ticks": 31200,
                    "time": 56.52179,
                    "velocity": 0.6062992125984252
                },
                {
                    "duration": 0.4782612999999927,
                    "durationTicks": 264,
                    "midi": 31,
                    "name": "G1",
                    "ticks": 31440,
                    "time": 56.956573000000006,
                    "velocity": 0.6456692913385826
                },
                {
                    "duration": 0.4746381083333375,
                    "durationTicks": 262,
                    "midi": 28,
                    "name": "E1",
                    "ticks": 31680,
                    "time": 57.391356,
                    "velocity": 0.5984251968503937
                },
                {
                    "duration": 0.48188449166666203,
                    "durationTicks": 266,
                    "midi": 30,
                    "name": "F#1",
                    "ticks": 31920,
                    "time": 57.826139000000005,
                    "velocity": 0.6614173228346457
                },
                {
                    "duration": 0.45652215000000496,
                    "durationTicks": 252,
                    "midi": 31,
                    "name": "G1",
                    "ticks": 32160,
                    "time": 58.260922,
                    "velocity": 0.6456692913385826
                },
                {
                    "duration": 0.4275366166666643,
                    "durationTicks": 236,
                    "midi": 35,
                    "name": "B1",
                    "ticks": 32400,
                    "time": 58.695705000000004,
                    "velocity": 0.6220472440944882
                },
                {
                    "duration": 0.5072468333333262,
                    "durationTicks": 280,
                    "midi": 33,
                    "name": "A1",
                    "ticks": 32640,
                    "time": 59.13048800000001,
                    "velocity": 0.6377952755905512
                },
                {
                    "duration": 0.4673917249999988,
                    "durationTicks": 258,
                    "midi": 35,
                    "name": "B1",
                    "ticks": 32880,
                    "time": 59.565271,
                    "velocity": 0.6141732283464567
                },
                {
                    "duration": 0.45652215000000496,
                    "durationTicks": 252,
                    "midi": 36,
                    "name": "C2",
                    "ticks": 33120,
                    "time": 60.000054000000006,
                    "velocity": 0.6692913385826772
                },
                {
                    "duration": 0.4275366166666643,
                    "durationTicks": 236,
                    "midi": 36,
                    "name": "C2",
                    "ticks": 33360,
                    "time": 60.434837,
                    "velocity": 0.6141732283464567
                },
                {
                    "duration": 0.5072468333333262,
                    "durationTicks": 280,
                    "midi": 38,
                    "name": "D2",
                    "ticks": 33600,
                    "time": 60.869620000000005,
                    "velocity": 0.6377952755905512
                },
                {
                    "duration": 0.4746381083333304,
                    "durationTicks": 262,
                    "midi": 40,
                    "name": "E2",
                    "ticks": 33840,
                    "time": 61.30440300000001,
                    "velocity": 0.6535433070866141
                },
                {
                    "duration": 0.5072468333333333,
                    "durationTicks": 280,
                    "midi": 42,
                    "name": "F#2",
                    "ticks": 34080,
                    "time": 61.739186000000004,
                    "velocity": 0.6141732283464567
                },
                {
                    "duration": 0.4347829999999959,
                    "durationTicks": 240,
                    "midi": 45,
                    "name": "A2",
                    "ticks": 34320,
                    "time": 62.17396900000001,
                    "velocity": 0.6220472440944882
                },
                {
                    "duration": 0.5072468333333333,
                    "durationTicks": 280,
                    "midi": 43,
                    "name": "G2",
                    "ticks": 34560,
                    "time": 62.608752,
                    "velocity": 0.6377952755905512
                },
                {
                    "duration": 0.4746381083333304,
                    "durationTicks": 262,
                    "midi": 45,
                    "name": "A2",
                    "ticks": 34800,
                    "time": 63.043535000000006,
                    "velocity": 0.6535433070866141
                },
                {
                    "duration": 0.5072468333333333,
                    "durationTicks": 280,
                    "midi": 47,
                    "name": "B2",
                    "ticks": 35040,
                    "time": 63.478318,
                    "velocity": 0.6141732283464567
                },
                {
                    "duration": 0.43478300000000303,
                    "durationTicks": 240,
                    "midi": 50,
                    "name": "D3",
                    "ticks": 35280,
                    "time": 63.913101000000005,
                    "velocity": 0.6220472440944882
                },
                {
                    "duration": 0.503623641666664,
                    "durationTicks": 278,
                    "midi": 48,
                    "name": "C3",
                    "ticks": 35520,
                    "time": 64.34788400000001,
                    "velocity": 0.6535433070866141
                },
                {
                    "duration": 0.4673917249999988,
                    "durationTicks": 258,
                    "midi": 36,
                    "name": "C2",
                    "ticks": 35760,
                    "time": 64.782667,
                    "velocity": 0.6062992125984252
                },
                {
                    "duration": 0.46376853333333656,
                    "durationTicks": 256,
                    "midi": 40,
                    "name": "E2",
                    "ticks": 36000,
                    "time": 65.21745,
                    "velocity": 0.6377952755905512
                },
                {
                    "duration": 0.4347829999999959,
                    "durationTicks": 240,
                    "midi": 43,
                    "name": "G2",
                    "ticks": 36240,
                    "time": 65.65223300000001,
                    "velocity": 0.6220472440944882
                },
                {
                    "duration": 0.4855076833333385,
                    "durationTicks": 268,
                    "midi": 42,
                    "name": "F#2",
                    "ticks": 36480,
                    "time": 66.087016,
                    "velocity": 0.6850393700787402
                },
                {
                    "duration": 0.4746381083333375,
                    "durationTicks": 262,
                    "midi": 43,
                    "name": "G2",
                    "ticks": 36720,
                    "time": 66.521799,
                    "velocity": 0.6377952755905512
                },
                {
                    "duration": 0.4347829999999959,
                    "durationTicks": 240,
                    "midi": 45,
                    "name": "A2",
                    "ticks": 36960,
                    "time": 66.95658200000001,
                    "velocity": 0.6535433070866141
                },
                {
                    "duration": 0.4347829999999959,
                    "durationTicks": 240,
                    "midi": 48,
                    "name": "C3",
                    "ticks": 37200,
                    "time": 67.39136500000001,
                    "velocity": 0.6614173228346457
                },
                {
                    "duration": 0.4347829999999959,
                    "durationTicks": 240,
                    "midi": 35,
                    "name": "B1",
                    "ticks": 37440,
                    "time": 67.826148,
                    "velocity": 0.6220472440944882
                },
                {
                    "duration": 0.4384061916666724,
                    "durationTicks": 242,
                    "midi": 42,
                    "name": "F#2",
                    "ticks": 37680,
                    "time": 68.260931,
                    "velocity": 0.6141732283464567
                },
                {
                    "duration": 0.4384061916666724,
                    "durationTicks": 242,
                    "midi": 39,
                    "name": "D#2",
                    "ticks": 37922,
                    "time": 68.69933719166667,
                    "velocity": 0.5748031496062992
                },
                {
                    "duration": 0.4275366166666572,
                    "durationTicks": 236,
                    "midi": 35,
                    "name": "B1",
                    "ticks": 38164,
                    "time": 69.13774338333334,
                    "velocity": 0.7165354330708661
                },
                {
                    "duration": 0.5072468333333262,
                    "durationTicks": 280,
                    "midi": 40,
                    "name": "E2",
                    "ticks": 38400,
                    "time": 69.56528,
                    "velocity": 0.6377952755905512
                },
                {
                    "duration": 0.4746381083333233,
                    "durationTicks": 262,
                    "midi": 42,
                    "name": "F#2",
                    "ticks": 38640,
                    "time": 70.00006300000001,
                    "velocity": 0.6535433070866141
                },
                {
                    "duration": 0.5072468333333262,
                    "durationTicks": 280,
                    "midi": 43,
                    "name": "G2",
                    "ticks": 38880,
                    "time": 70.43484600000001,
                    "velocity": 0.6141732283464567
                },
                {
                    "duration": 0.4347829999999959,
                    "durationTicks": 240,
                    "midi": 47,
                    "name": "B2",
                    "ticks": 39120,
                    "time": 70.869629,
                    "velocity": 0.6220472440944882
                },
                {
                    "duration": 0.43478300000001013,
                    "durationTicks": 240,
                    "midi": 40,
                    "name": "E2",
                    "ticks": 39360,
                    "time": 71.304412,
                    "velocity": 0.6062992125984252
                },
                {
                    "duration": 0.4347829999999959,
                    "durationTicks": 240,
                    "midi": 40,
                    "name": "E2",
                    "ticks": 39600,
                    "time": 71.73919500000001,
                    "velocity": 0.6614173228346457
                },
                {
                    "duration": 0.4347829999999959,
                    "durationTicks": 240,
                    "midi": 40,
                    "name": "E2",
                    "ticks": 39840,
                    "time": 72.173978,
                    "velocity": 0.6062992125984252
                },
                {
                    "duration": 0.43478300000001013,
                    "durationTicks": 240,
                    "midi": 40,
                    "name": "E2",
                    "ticks": 40080,
                    "time": 72.608761,
                    "velocity": 0.6614173228346457
                },
                {
                    "duration": 0.503623641666664,
                    "durationTicks": 278,
                    "midi": 45,
                    "name": "A2",
                    "ticks": 40320,
                    "time": 73.04354400000001,
                    "velocity": 0.6535433070866141
                },
                {
                    "duration": 0.4673917249999988,
                    "durationTicks": 258,
                    "midi": 33,
                    "name": "A1",
                    "ticks": 40560,
                    "time": 73.47832700000001,
                    "velocity": 0.6062992125984252
                },
                {
                    "duration": 0.46376853333333656,
                    "durationTicks": 256,
                    "midi": 36,
                    "name": "C2",
                    "ticks": 40800,
                    "time": 73.91311,
                    "velocity": 0.6377952755905512
                },
                {
                    "duration": 0.43478300000001013,
                    "durationTicks": 240,
                    "midi": 40,
                    "name": "E2",
                    "ticks": 41040,
                    "time": 74.347893,
                    "velocity": 0.6220472440944882
                },
                {
                    "duration": 0.5144932166666649,
                    "durationTicks": 284,
                    "midi": 38,
                    "name": "D2",
                    "ticks": 41280,
                    "time": 74.78267600000001,
                    "velocity": 0.6220472440944882
                },
                {
                    "duration": 0.4673917249999988,
                    "durationTicks": 258,
                    "midi": 45,
                    "name": "A2",
                    "ticks": 41520,
                    "time": 75.217459,
                    "velocity": 0.6062992125984252
                },
                {
                    "duration": 0.4528989583333356,
                    "durationTicks": 250,
                    "midi": 50,
                    "name": "D3",
                    "ticks": 41760,
                    "time": 75.652242,
                    "velocity": 0.6535433070866141
                },
                {
                    "duration": 0.3333336333333392,
                    "durationTicks": 184,
                    "midi": 45,
                    "name": "A2",
                    "ticks": 42000,
                    "time": 76.08702500000001,
                    "velocity": 0.7401574803149606
                },
                {
                    "duration": 0.05797106666666707,
                    "durationTicks": 32,
                    "midi": 44,
                    "name": "G#2",
                    "ticks": 42208,
                    "time": 76.46383693333334,
                    "velocity": 0.5511811023622047
                },
                {
                    "duration": 0.4855076833333385,
                    "durationTicks": 268,
                    "midi": 31,
                    "name": "G1",
                    "ticks": 42240,
                    "time": 76.52180800000001,
                    "velocity": 0.5984251968503937
                },
                {
                    "duration": 0.4347829999999959,
                    "durationTicks": 240,
                    "midi": 35,
                    "name": "B1",
                    "ticks": 42480,
                    "time": 76.956591,
                    "velocity": 0.6535433070866141
                },
                {
                    "duration": 0.5036236416666782,
                    "durationTicks": 278,
                    "midi": 38,
                    "name": "D2",
                    "ticks": 42720,
                    "time": 77.391374,
                    "velocity": 0.6377952755905512
                },
                {
                    "duration": 0.4347829999999959,
                    "durationTicks": 240,
                    "midi": 43,
                    "name": "G2",
                    "ticks": 42960,
                    "time": 77.82615700000001,
                    "velocity": 0.6535433070866141
                },
                {
                    "duration": 0.3333336333333392,
                    "durationTicks": 184,
                    "midi": 36,
                    "name": "C2",
                    "ticks": 43200,
                    "time": 78.26094,
                    "velocity": 0.6929133858267716
                },
                {
                    "duration": 0.06884064166666803,
                    "durationTicks": 38,
                    "midi": 31,
                    "name": "G1",
                    "ticks": 43378,
                    "time": 78.58340405833334,
                    "velocity": 0.5275590551181102
                },
                {
                    "duration": 0.4311598083333479,
                    "durationTicks": 238,
                    "midi": 38,
                    "name": "D2",
                    "ticks": 43440,
                    "time": 78.695723,
                    "velocity": 0.6771653543307087
                },
                {
                    "duration": 0.28260894999999664,
                    "durationTicks": 156,
                    "midi": 40,
                    "name": "E2",
                    "ticks": 43680,
                    "time": 79.13050600000001,
                    "velocity": 0.7322834645669292
                },
                {
                    "duration": 0.06521745000000578,
                    "durationTicks": 36,
                    "midi": 31,
                    "name": "G1",
                    "ticks": 43858,
                    "time": 79.45297005833334,
                    "velocity": 0.5590551181102362
                },
                {
                    "duration": 0.3985510833333308,
                    "durationTicks": 220,
                    "midi": 43,
                    "name": "G2",
                    "ticks": 43920,
                    "time": 79.565289,
                    "velocity": 0.7480314960629921
                },
                {
                    "duration": 0.03623191666665093,
                    "durationTicks": 20,
                    "midi": 31,
                    "name": "G1",
                    "ticks": 44098,
                    "time": 79.88775305833335,
                    "velocity": 0.5039370078740157
                },
                {
                    "duration": 0.4347829999999959,
                    "durationTicks": 240,
                    "midi": 42,
                    "name": "F#2",
                    "ticks": 44160,
                    "time": 80.000072,
                    "velocity": 0.6220472440944882
                },
                {
                    "duration": 0.4384061916666724,
                    "durationTicks": 242,
                    "midi": 48,
                    "name": "C3",
                    "ticks": 44400,
                    "time": 80.434855,
                    "velocity": 0.6141732283464567
                },
                {
                    "duration": 0.4384061916666724,
                    "durationTicks": 242,
                    "midi": 45,
                    "name": "A2",
                    "ticks": 44642,
                    "time": 80.87326119166667,
                    "velocity": 0.5748031496062992
                },
                {
                    "duration": 0.4275366166666572,
                    "durationTicks": 236,
                    "midi": 42,
                    "name": "F#2",
                    "ticks": 44884,
                    "time": 81.31166738333334,
                    "velocity": 0.7165354330708661
                },
                {
                    "duration": 0.43478300000001013,
                    "durationTicks": 240,
                    "midi": 35,
                    "name": "B1",
                    "ticks": 45120,
                    "time": 81.739204,
                    "velocity": 0.6220472440944882
                },
                {
                    "duration": 0.4384061916666582,
                    "durationTicks": 242,
                    "midi": 42,
                    "name": "F#2",
                    "ticks": 45360,
                    "time": 82.17398700000001,
                    "velocity": 0.6141732283464567
                },
                {
                    "duration": 0.4384061916666724,
                    "durationTicks": 242,
                    "midi": 39,
                    "name": "D#2",
                    "ticks": 45602,
                    "time": 82.61239319166667,
                    "velocity": 0.5748031496062992
                },
                {
                    "duration": 0.4275366166666714,
                    "durationTicks": 236,
                    "midi": 35,
                    "name": "B1",
                    "ticks": 45844,
                    "time": 83.05079938333334,
                    "velocity": 0.7165354330708661
                },
                {
                    "duration": 0.48913087499998653,
                    "durationTicks": 270,
                    "midi": 28,
                    "name": "E1",
                    "ticks": 46080,
                    "time": 83.47833600000001,
                    "velocity": 0.6141732283464567
                },
                {
                    "duration": 0.4601453416666601,
                    "durationTicks": 254,
                    "midi": 30,
                    "name": "F#1",
                    "ticks": 46320,
                    "time": 83.91311900000001,
                    "velocity": 0.5905511811023622
                },
                {
                    "duration": 0.46376853333333656,
                    "durationTicks": 256,
                    "midi": 31,
                    "name": "G1",
                    "ticks": 46560,
                    "time": 84.347902,
                    "velocity": 0.7007874015748031
                },
                {
                    "duration": 0.4855076833333385,
                    "durationTicks": 268,
                    "midi": 35,
                    "name": "B1",
                    "ticks": 46800,
                    "time": 84.782685,
                    "velocity": 0.6456692913385826
                },
                {
                    "duration": 0.44927576666665914,
                    "durationTicks": 248,
                    "midi": 40,
                    "name": "E2",
                    "ticks": 47040,
                    "time": 85.21746800000001,
                    "velocity": 0.6614173228346457
                },
                {
                    "duration": 0.4456525749999969,
                    "durationTicks": 246,
                    "midi": 35,
                    "name": "B1",
                    "ticks": 47280,
                    "time": 85.652251,
                    "velocity": 0.6062992125984252
                },
                {
                    "duration": 0.4855076833333385,
                    "durationTicks": 268,
                    "midi": 31,
                    "name": "G1",
                    "ticks": 47520,
                    "time": 86.087034,
                    "velocity": 0.6062992125984252
                },
                {
                    "duration": 0.4347829999999959,
                    "durationTicks": 240,
                    "midi": 28,
                    "name": "E1",
                    "ticks": 47760,
                    "time": 86.52181700000001,
                    "velocity": 0.6299212598425197
                },
                {
                    "duration": 0.4855076833333385,
                    "durationTicks": 268,
                    "midi": 30,
                    "name": "F#1",
                    "ticks": 48000,
                    "time": 86.95660000000001,
                    "velocity": 0.6850393700787402
                },
                {
                    "duration": 0.4746381083333375,
                    "durationTicks": 262,
                    "midi": 31,
                    "name": "G1",
                    "ticks": 48240,
                    "time": 87.391383,
                    "velocity": 0.6377952755905512
                },
                {
                    "duration": 0.43478300000001013,
                    "durationTicks": 240,
                    "midi": 33,
                    "name": "A1",
                    "ticks": 48480,
                    "time": 87.826166,
                    "velocity": 0.6535433070866141
                },
                {
                    "duration": 0.4347829999999959,
                    "durationTicks": 240,
                    "midi": 36,
                    "name": "C2",
                    "ticks": 48720,
                    "time": 88.26094900000001,
                    "velocity": 0.6614173228346457
                },
                {
                    "duration": 0.4384061916666582,
                    "durationTicks": 242,
                    "midi": 35,
                    "name": "B1",
                    "ticks": 48960,
                    "time": 88.695732,
                    "velocity": 0.5039370078740157
                },
                {
                    "duration": 0.44202938333334885,
                    "durationTicks": 244,
                    "midi": 33,
                    "name": "A1",
                    "ticks": 49200,
                    "time": 89.130515,
                    "velocity": 0.6377952755905512
                },
                {
                    "duration": 0.503623641666664,
                    "durationTicks": 278,
                    "midi": 30,
                    "name": "F#1",
                    "ticks": 49444,
                    "time": 89.57254438333335,
                    "velocity": 0.47244094488188976
                },
                {
                    "duration": 0.4347829999999959,
                    "durationTicks": 240,
                    "midi": 41,
                    "name": "F2",
                    "ticks": 49680,
                    "time": 90.00008100000001,
                    "velocity": 0.6141732283464567
                },
                {
                    "duration": 0.31521767499999953,
                    "durationTicks": 174,
                    "midi": 40,
                    "name": "E2",
                    "ticks": 49920,
                    "time": 90.434864,
                    "velocity": 0.6614173228346457
                },
                {
                    "duration": 0.5797106666666707,
                    "durationTicks": 320,
                    "midi": 28,
                    "name": "E1",
                    "ticks": 50080,
                    "time": 90.72471933333334,
                    "velocity": 0.889763779527559
                },
                {
                    "duration": 0.46376853333332235,
                    "durationTicks": 256,
                    "midi": 31,
                    "name": "G1",
                    "ticks": 50400,
                    "time": 91.30443000000001,
                    "velocity": 0.6614173228346457
                },
                {
                    "duration": 0.44202938333333464,
                    "durationTicks": 244,
                    "midi": 33,
                    "name": "A1",
                    "ticks": 50640,
                    "time": 91.739213,
                    "velocity": 0.6692913385826772
                },
                {
                    "duration": 0.4746381083333233,
                    "durationTicks": 262,
                    "midi": 35,
                    "name": "B1",
                    "ticks": 50884,
                    "time": 92.18124238333334,
                    "velocity": 0.6929133858267716
                },
                {
                    "duration": 0.5072468333333262,
                    "durationTicks": 280,
                    "midi": 36,
                    "name": "C2",
                    "ticks": 51120,
                    "time": 92.60877900000001,
                    "velocity": 0.6929133858267716
                },
                {
                    "duration": 0.3985510833333308,
                    "durationTicks": 220,
                    "midi": 38,
                    "name": "D2",
                    "ticks": 51360,
                    "time": 93.04356200000001,
                    "velocity": 0.7559055118110236
                },
                {
                    "duration": 0.387681508333344,
                    "durationTicks": 214,
                    "midi": 32,
                    "name": "G#1",
                    "ticks": 51600,
                    "time": 93.478345,
                    "velocity": 0.6850393700787402
                },
                {
                    "duration": 0.4673917249999988,
                    "durationTicks": 258,
                    "midi": 33,
                    "name": "A1",
                    "ticks": 51840,
                    "time": 93.913128,
                    "velocity": 0.6771653543307087
                },
                {
                    "duration": 0.4855076833333385,
                    "durationTicks": 268,
                    "midi": 45,
                    "name": "A2",
                    "ticks": 52080,
                    "time": 94.34791100000001,
                    "velocity": 0.5433070866141733
                },
                {
                    "duration": 0.4456525749999969,
                    "durationTicks": 246,
                    "midi": 40,
                    "name": "E2",
                    "ticks": 52320,
                    "time": 94.782694,
                    "velocity": 0.6377952755905512
                },
                {
                    "duration": 0.43478300000001013,
                    "durationTicks": 240,
                    "midi": 36,
                    "name": "C2",
                    "ticks": 52560,
                    "time": 95.217477,
                    "velocity": 0.6850393700787402
                },
                {
                    "duration": 0.33695682500000146,
                    "durationTicks": 186,
                    "midi": 38,
                    "name": "D2",
                    "ticks": 52800,
                    "time": 95.65226000000001,
                    "velocity": 0.7795275590551181
                },
                {
                    "duration": 0.11231894166667189,
                    "durationTicks": 62,
                    "midi": 33,
                    "name": "A1",
                    "ticks": 52966,
                    "time": 95.95298490833333,
                    "velocity": 0.3937007874015748
                },
                {
                    "duration": 0.3804351250000053,
                    "durationTicks": 210,
                    "midi": 45,
                    "name": "A2",
                    "ticks": 53040,
                    "time": 96.08704300000001,
                    "velocity": 0.6456692913385826
                },
                {
                    "duration": 0.4347829999999959,
                    "durationTicks": 240,
                    "midi": 42,
                    "name": "F#2",
                    "ticks": 53280,
                    "time": 96.521826,
                    "velocity": 0.7086614173228346
                },
                {
                    "duration": 0.32971044166667696,
                    "durationTicks": 182,
                    "midi": 38,
                    "name": "D2",
                    "ticks": 53520,
                    "time": 96.956609,
                    "velocity": 0.7244094488188977
                },
                {
                    "duration": 0.06521745000000578,
                    "durationTicks": 36,
                    "midi": 33,
                    "name": "A1",
                    "ticks": 53700,
                    "time": 97.28269625,
                    "velocity": 0.5511811023622047
                },
                {
                    "duration": 0.48913087500000074,
                    "durationTicks": 270,
                    "midi": 31,
                    "name": "G1",
                    "ticks": 53760,
                    "time": 97.39139200000001,
                    "velocity": 0.6141732283464567
                },
                {
                    "duration": 0.4601453416666743,
                    "durationTicks": 254,
                    "midi": 33,
                    "name": "A1",
                    "ticks": 54000,
                    "time": 97.826175,
                    "velocity": 0.5905511811023622
                },
                {
                    "duration": 0.46376853333333656,
                    "durationTicks": 256,
                    "midi": 35,
                    "name": "B1",
                    "ticks": 54240,
                    "time": 98.260958,
                    "velocity": 0.7007874015748031
                },
                {
                    "duration": 0.4855076833333243,
                    "durationTicks": 268,
                    "midi": 38,
                    "name": "D2",
                    "ticks": 54480,
                    "time": 98.69574100000001,
                    "velocity": 0.6456692913385826
                },
                {
                    "duration": 0.44927576666665914,
                    "durationTicks": 248,
                    "midi": 43,
                    "name": "G2",
                    "ticks": 54720,
                    "time": 99.13052400000001,
                    "velocity": 0.6614173228346457
                },
                {
                    "duration": 0.4456525750000111,
                    "durationTicks": 246,
                    "midi": 38,
                    "name": "D2",
                    "ticks": 54960,
                    "time": 99.565307,
                    "velocity": 0.6062992125984252
                },
                {
                    "duration": 0.4855076833333385,
                    "durationTicks": 268,
                    "midi": 35,
                    "name": "B1",
                    "ticks": 55200,
                    "time": 100.00009,
                    "velocity": 0.6062992125984252
                },
                {
                    "duration": 0.4347829999999959,
                    "durationTicks": 240,
                    "midi": 31,
                    "name": "G1",
                    "ticks": 55440,
                    "time": 100.43487300000001,
                    "velocity": 0.6299212598425197
                },
                {
                    "duration": 0.3333336333333392,
                    "durationTicks": 184,
                    "midi": 42,
                    "name": "F#2",
                    "ticks": 55680,
                    "time": 100.869656,
                    "velocity": 0.6929133858267716
                },
                {
                    "duration": 0.06884064166666803,
                    "durationTicks": 38,
                    "midi": 36,
                    "name": "C2",
                    "ticks": 55858,
                    "time": 101.19212005833334,
                    "velocity": 0.5275590551181102
                },
                {
                    "duration": 0.4311598083333479,
                    "durationTicks": 238,
                    "midi": 43,
                    "name": "G2",
                    "ticks": 55920,
                    "time": 101.304439,
                    "velocity": 0.6771653543307087
                },
                {
                    "duration": 0.28260894999999664,
                    "durationTicks": 156,
                    "midi": 45,
                    "name": "A2",
                    "ticks": 56160,
                    "time": 101.73922200000001,
                    "velocity": 0.7322834645669292
                },
                {
                    "duration": 0.06521744999999157,
                    "durationTicks": 36,
                    "midi": 36,
                    "name": "C2",
                    "ticks": 56338,
                    "time": 102.06168605833335,
                    "velocity": 0.5590551181102362
                },
                {
                    "duration": 0.3985510833333308,
                    "durationTicks": 220,
                    "midi": 48,
                    "name": "C3",
                    "ticks": 56400,
                    "time": 102.17400500000001,
                    "velocity": 0.7480314960629921
                },
                {
                    "duration": 0.03623191666665093,
                    "durationTicks": 20,
                    "midi": 36,
                    "name": "C2",
                    "ticks": 56578,
                    "time": 102.49646905833335,
                    "velocity": 0.5039370078740157
                },
                {
                    "duration": 0.21739150000000507,
                    "durationTicks": 120,
                    "midi": 35,
                    "name": "B1",
                    "ticks": 56640,
                    "time": 102.608788,
                    "velocity": 0.5669291338582677
                },
                {
                    "duration": 0.4818844916666478,
                    "durationTicks": 266,
                    "midi": 35,
                    "name": "B1",
                    "ticks": 56880,
                    "time": 103.04357100000001,
                    "velocity": 0.6062992125984252
                },
                {
                    "duration": 0.4275366166666572,
                    "durationTicks": 236,
                    "midi": 30,
                    "name": "F#1",
                    "ticks": 57120,
                    "time": 103.47835400000001,
                    "velocity": 0.5984251968503937
                },
                {
                    "duration": 0.4347829999999959,
                    "durationTicks": 240,
                    "midi": 39,
                    "name": "D#2",
                    "ticks": 57360,
                    "time": 103.913137,
                    "velocity": 0.6299212598425197
                },
                {
                    "duration": 0.32971044166666275,
                    "durationTicks": 182,
                    "midi": 40,
                    "name": "E2",
                    "ticks": 57600,
                    "time": 104.34792,
                    "velocity": 0.6456692913385826
                },
                {
                    "duration": 0.11231894166667189,
                    "durationTicks": 62,
                    "midi": 28,
                    "name": "E1",
                    "ticks": 57778,
                    "time": 104.67038405833334,
                    "velocity": 0.5905511811023622
                },
                {
                    "duration": 0.43115980833333367,
                    "durationTicks": 238,
                    "midi": 40,
                    "name": "E2",
                    "ticks": 57840,
                    "time": 104.78270300000001,
                    "velocity": 0.6614173228346457
                },
                {
                    "duration": 0.4347829999999959,
                    "durationTicks": 240,
                    "midi": 39,
                    "name": "D#2",
                    "ticks": 58080,
                    "time": 105.21748600000001,
                    "velocity": 0.6062992125984252
                },
                {
                    "duration": 0.43478300000001013,
                    "durationTicks": 240,
                    "midi": 39,
                    "name": "D#2",
                    "ticks": 58320,
                    "time": 105.652269,
                    "velocity": 0.6614173228346457
                },
                {
                    "duration": 0.4347829999999959,
                    "durationTicks": 240,
                    "midi": 38,
                    "name": "D2",
                    "ticks": 58560,
                    "time": 106.08705200000001,
                    "velocity": 0.6062992125984252
                },
                {
                    "duration": 0.4347829999999959,
                    "durationTicks": 240,
                    "midi": 38,
                    "name": "D2",
                    "ticks": 58800,
                    "time": 106.52183500000001,
                    "velocity": 0.6614173228346457
                },
                {
                    "duration": 0.4347829999999959,
                    "durationTicks": 240,
                    "midi": 37,
                    "name": "C#2",
                    "ticks": 59040,
                    "time": 106.956618,
                    "velocity": 0.6062992125984252
                },
                {
                    "duration": 0.43478300000001013,
                    "durationTicks": 240,
                    "midi": 37,
                    "name": "C#2",
                    "ticks": 59280,
                    "time": 107.391401,
                    "velocity": 0.6614173228346457
                },
                {
                    "duration": 0.21739149999999086,
                    "durationTicks": 120,
                    "midi": 36,
                    "name": "C2",
                    "ticks": 59520,
                    "time": 107.82618400000001,
                    "velocity": 0.5669291338582677
                },
                {
                    "duration": 0.48188449166666203,
                    "durationTicks": 266,
                    "midi": 36,
                    "name": "C2",
                    "ticks": 59760,
                    "time": 108.26096700000001,
                    "velocity": 0.6062992125984252
                },
                {
                    "duration": 0.4275366166666714,
                    "durationTicks": 236,
                    "midi": 31,
                    "name": "G1",
                    "ticks": 60000,
                    "time": 108.69575,
                    "velocity": 0.5984251968503937
                },
                {
                    "duration": 0.4347829999999959,
                    "durationTicks": 240,
                    "midi": 41,
                    "name": "F2",
                    "ticks": 60240,
                    "time": 109.13053300000001,
                    "velocity": 0.6299212598425197
                },
                {
                    "duration": 0.31521767499999953,
                    "durationTicks": 174,
                    "midi": 42,
                    "name": "F#2",
                    "ticks": 60480,
                    "time": 109.56531600000001,
                    "velocity": 0.6614173228346457
                },
                {
                    "duration": 0.5797106666666707,
                    "durationTicks": 320,
                    "midi": 30,
                    "name": "F#1",
                    "ticks": 60640,
                    "time": 109.85517133333333,
                    "velocity": 0.889763779527559
                },
                {
                    "duration": 0.43478300000001013,
                    "durationTicks": 240,
                    "midi": 35,
                    "name": "B1",
                    "ticks": 60960,
                    "time": 110.434882,
                    "velocity": 0.6062992125984252
                },
                {
                    "duration": 0.4347829999999959,
                    "durationTicks": 240,
                    "midi": 35,
                    "name": "B1",
                    "ticks": 61200,
                    "time": 110.86966500000001,
                    "velocity": 0.6614173228346457
                },
                {
                    "duration": 0.4855076833333385,
                    "durationTicks": 268,
                    "midi": 28,
                    "name": "E1",
                    "ticks": 61440,
                    "time": 111.30444800000001,
                    "velocity": 0.6850393700787402
                },
                {
                    "duration": 0.4746381083333233,
                    "durationTicks": 262,
                    "midi": 30,
                    "name": "F#1",
                    "ticks": 61680,
                    "time": 111.739231,
                    "velocity": 0.6377952755905512
                },
                {
                    "duration": 0.4347829999999959,
                    "durationTicks": 240,
                    "midi": 31,
                    "name": "G1",
                    "ticks": 61920,
                    "time": 112.17401400000001,
                    "velocity": 0.6535433070866141
                },
                {
                    "duration": 0.4746381083333233,
                    "durationTicks": 262,
                    "midi": 35,
                    "name": "B1",
                    "ticks": 62160,
                    "time": 112.60879700000001,
                    "velocity": 0.6614173228346457
                },
                {
                    "duration": 0.45652215000001206,
                    "durationTicks": 252,
                    "midi": 40,
                    "name": "E2",
                    "ticks": 62400,
                    "time": 113.04358,
                    "velocity": 0.5905511811023622
                },
                {
                    "duration": 0.4673917249999988,
                    "durationTicks": 258,
                    "midi": 35,
                    "name": "B1",
                    "ticks": 62640,
                    "time": 113.478363,
                    "velocity": 0.5354330708661418
                },
                {
                    "duration": 0.4384061916666582,
                    "durationTicks": 242,
                    "midi": 31,
                    "name": "G1",
                    "ticks": 62880,
                    "time": 113.91314600000001,
                    "velocity": 0.6377952755905512
                },
                {
                    "duration": 0.3876815083333298,
                    "durationTicks": 214,
                    "midi": 28,
                    "name": "E1",
                    "ticks": 63120,
                    "time": 114.34792900000001,
                    "velocity": 0.6614173228346457
                },
                {
                    "duration": 0.3260872500000005,
                    "durationTicks": 180,
                    "midi": 45,
                    "name": "A2",
                    "ticks": 63360,
                    "time": 114.782712,
                    "velocity": 0.5511811023622047
                },
                {
                    "duration": 0.6014498166666584,
                    "durationTicks": 332,
                    "midi": 33,
                    "name": "A1",
                    "ticks": 63528,
                    "time": 115.0870601,
                    "velocity": 0.6456692913385826
                },
                {
                    "duration": 0.8695659999999918,
                    "durationTicks": 480,
                    "midi": 40,
                    "name": "E2",
                    "ticks": 63840,
                    "time": 115.65227800000001,
                    "velocity": 0.5511811023622047
                },
                {
                    "duration": 0.8731891916666541,
                    "durationTicks": 482,
                    "midi": 38,
                    "name": "D2",
                    "ticks": 64332,
                    "time": 116.54358315000002,
                    "velocity": 0.6299212598425197
                },
                {
                    "duration": 0.8333340833333409,
                    "durationTicks": 460,
                    "midi": 33,
                    "name": "A1",
                    "ticks": 64820,
                    "time": 117.42764191666667,
                    "velocity": 0.5669291338582677
                },
                {
                    "duration": 0.9347834499999834,
                    "durationTicks": 516,
                    "midi": 31,
                    "name": "G1",
                    "ticks": 65280,
                    "time": 118.26097600000001,
                    "velocity": 0.6220472440944882
                },
                {
                    "duration": 0.5398555583333433,
                    "durationTicks": 298,
                    "midi": 38,
                    "name": "D2",
                    "ticks": 65760,
                    "time": 119.130542,
                    "velocity": 0.6456692913385826
                },
                {
                    "duration": 0.12318851666668706,
                    "durationTicks": 68,
                    "midi": 38,
                    "name": "D2",
                    "ticks": 66172,
                    "time": 119.87691948333332,
                    "velocity": 0.5669291338582677
                },
                {
                    "duration": 0.721015141666669,
                    "durationTicks": 398,
                    "midi": 36,
                    "name": "C2",
                    "ticks": 66240,
                    "time": 120.00010800000001,
                    "velocity": 0.6062992125984252
                },
                {
                    "duration": 0.28260894999998243,
                    "durationTicks": 156,
                    "midi": 43,
                    "name": "G2",
                    "ticks": 66640,
                    "time": 120.72474633333336,
                    "velocity": 0.5511811023622047
                },
                {
                    "duration": 0.5797106666666565,
                    "durationTicks": 320,
                    "midi": 43,
                    "name": "G2",
                    "ticks": 66880,
                    "time": 121.15952933333335,
                    "velocity": 0.5905511811023622
                },
                {
                    "duration": 0.8731891916666683,
                    "durationTicks": 482,
                    "midi": 42,
                    "name": "F#2",
                    "ticks": 67212,
                    "time": 121.76097915000001,
                    "velocity": 0.6299212598425197
                },
                {
                    "duration": 0.8333340833333409,
                    "durationTicks": 460,
                    "midi": 36,
                    "name": "C2",
                    "ticks": 67700,
                    "time": 122.64503791666667,
                    "velocity": 0.5669291338582677
                },
                {
                    "duration": 0.8695660000000061,
                    "durationTicks": 480,
                    "midi": 35,
                    "name": "B1",
                    "ticks": 68160,
                    "time": 123.47837200000001,
                    "velocity": 0.5984251968503937
                },
                {
                    "duration": 0.6739136500000029,
                    "durationTicks": 372,
                    "midi": 42,
                    "name": "F#2",
                    "ticks": 68640,
                    "time": 124.34793800000001,
                    "velocity": 0.5984251968503937
                },
                {
                    "duration": 0.12318851666667285,
                    "durationTicks": 68,
                    "midi": 41,
                    "name": "F2",
                    "ticks": 69052,
                    "time": 125.09431548333333,
                    "velocity": 0.5590551181102362
                },
                {
                    "duration": 0.8731891916666683,
                    "durationTicks": 482,
                    "midi": 40,
                    "name": "E2",
                    "ticks": 69132,
                    "time": 125.23924315000001,
                    "velocity": 0.6299212598425197
                },
                {
                    "duration": 0.8333340833333409,
                    "durationTicks": 460,
                    "midi": 35,
                    "name": "B1",
                    "ticks": 69620,
                    "time": 126.12330191666666,
                    "velocity": 0.5669291338582677
                },
                {
                    "duration": 0.8695660000000061,
                    "durationTicks": 480,
                    "midi": 40,
                    "name": "E2",
                    "ticks": 70080,
                    "time": 126.956636,
                    "velocity": 0.5826771653543307
                },
                {
                    "duration": 0.8695660000000061,
                    "durationTicks": 480,
                    "midi": 40,
                    "name": "E2",
                    "ticks": 70560,
                    "time": 127.82620200000001,
                    "velocity": 0.5826771653543307
                },
                {
                    "duration": 0.916667491666658,
                    "durationTicks": 506,
                    "midi": 33,
                    "name": "A1",
                    "ticks": 71040,
                    "time": 128.69576800000002,
                    "velocity": 0.6299212598425197
                },
                {
                    "duration": 0.5398555583333291,
                    "durationTicks": 298,
                    "midi": 28,
                    "name": "E1",
                    "ticks": 71520,
                    "time": 129.565334,
                    "velocity": 0.5275590551181102
                },
                {
                    "duration": 0.12318851666665864,
                    "durationTicks": 68,
                    "midi": 28,
                    "name": "E1",
                    "ticks": 71932,
                    "time": 130.31171148333334,
                    "velocity": 0.5826771653543307
                },
                {
                    "duration": 0.7391311000000087,
                    "durationTicks": 408,
                    "midi": 38,
                    "name": "D2",
                    "ticks": 72000,
                    "time": 130.4349,
                    "velocity": 0.5590551181102362
                },
                {
                    "duration": 0.8695659999999918,
                    "durationTicks": 480,
                    "midi": 38,
                    "name": "D2",
                    "ticks": 72480,
                    "time": 131.30446600000002,
                    "velocity": 0.6062992125984252
                },
                {
                    "duration": 0.8731891916666541,
                    "durationTicks": 482,
                    "midi": 43,
                    "name": "G2",
                    "ticks": 72972,
                    "time": 132.19577115,
                    "velocity": 0.6299212598425197
                },
                {
                    "duration": 0.8333340833333693,
                    "durationTicks": 460,
                    "midi": 38,
                    "name": "D2",
                    "ticks": 73460,
                    "time": 133.07982991666665,
                    "velocity": 0.5669291338582677
                },
                {
                    "duration": 0.3007249083333079,
                    "durationTicks": 166,
                    "midi": 36,
                    "name": "C2",
                    "ticks": 73920,
                    "time": 133.91316400000002,
                    "velocity": 0.5984251968503937
                },
                {
                    "duration": 0.11956532499999639,
                    "durationTicks": 66,
                    "midi": 24,
                    "name": "C1",
                    "ticks": 74080,
                    "time": 134.20301933333334,
                    "velocity": 0.4330708661417323
                },
                {
                    "duration": 0.44202938333333464,
                    "durationTicks": 244,
                    "midi": 36,
                    "name": "C2",
                    "ticks": 74160,
                    "time": 134.347947,
                    "velocity": 0.6771653543307087
                },
                {
                    "duration": 0.42391342499999496,
                    "durationTicks": 234,
                    "midi": 38,
                    "name": "D2",
                    "ticks": 74400,
                    "time": 134.78273000000002,
                    "velocity": 0.6771653543307087
                },
                {
                    "duration": 0.3079712916666608,
                    "durationTicks": 170,
                    "midi": 40,
                    "name": "E2",
                    "ticks": 74640,
                    "time": 135.217513,
                    "velocity": 0.6456692913385826
                },
                {
                    "duration": 0.018115958333311255,
                    "durationTicks": 10,
                    "midi": 24,
                    "name": "C1",
                    "ticks": 74800,
                    "time": 135.50736833333335,
                    "velocity": 0.5039370078740157
                },
                {
                    "duration": 0.9347834499999976,
                    "durationTicks": 516,
                    "midi": 30,
                    "name": "F#1",
                    "ticks": 74880,
                    "time": 135.652296,
                    "velocity": 0.6220472440944882
                },
                {
                    "duration": 0.5398555583333575,
                    "durationTicks": 298,
                    "midi": 36,
                    "name": "C2",
                    "ticks": 75360,
                    "time": 136.521862,
                    "velocity": 0.6456692913385826
                },
                {
                    "duration": 0.12318851666668706,
                    "durationTicks": 68,
                    "midi": 36,
                    "name": "C2",
                    "ticks": 75772,
                    "time": 137.26823948333333,
                    "velocity": 0.5669291338582677
                },
                {
                    "duration": 0.8695659999999918,
                    "durationTicks": 480,
                    "midi": 35,
                    "name": "B1",
                    "ticks": 75840,
                    "time": 137.39142800000002,
                    "velocity": 0.5984251968503937
                },
                {
                    "duration": 0.6739136500000029,
                    "durationTicks": 372,
                    "midi": 42,
                    "name": "F#2",
                    "ticks": 76320,
                    "time": 138.260994,
                    "velocity": 0.5984251968503937
                },
                {
                    "duration": 0.12318851666665864,
                    "durationTicks": 68,
                    "midi": 41,
                    "name": "F2",
                    "ticks": 76732,
                    "time": 139.00737148333334,
                    "velocity": 0.5590551181102362
                },
                {
                    "duration": 0.9456530250000128,
                    "durationTicks": 522,
                    "midi": 40,
                    "name": "E2",
                    "ticks": 76800,
                    "time": 139.13056,
                    "velocity": 0.6141732283464567
                },
                {
                    "duration": 0.8840587666666693,
                    "durationTicks": 488,
                    "midi": 35,
                    "name": "B1",
                    "ticks": 77280,
                    "time": 140.00012600000002,
                    "velocity": 0.5748031496062992
                },
                {
                    "duration": 0.894928341666656,
                    "durationTicks": 494,
                    "midi": 28,
                    "name": "E1",
                    "ticks": 77760,
                    "time": 140.86969200000001,
                    "velocity": 0.5275590551181102
                },
                {
                    "duration": 0.5724642833333462,
                    "durationTicks": 316,
                    "midi": 35,
                    "name": "B1",
                    "ticks": 78240,
                    "time": 141.739258,
                    "velocity": 0.5905511811023622
                },
                {
                    "duration": 0.10869575000000964,
                    "durationTicks": 60,
                    "midi": 35,
                    "name": "B1",
                    "ticks": 78640,
                    "time": 142.46389633333334,
                    "velocity": 0.6141732283464567
                },
                {
                    "duration": 0.4746381083333233,
                    "durationTicks": 262,
                    "midi": 30,
                    "name": "F#1",
                    "ticks": 78720,
                    "time": 142.608824,
                    "velocity": 0.5748031496062992
                },
                {
                    "duration": 0.43478300000001013,
                    "durationTicks": 240,
                    "midi": 31,
                    "name": "G1",
                    "ticks": 78960,
                    "time": 143.043607,
                    "velocity": 0.6456692913385826
                },
                {
                    "duration": 0.5108700250000027,
                    "durationTicks": 282,
                    "midi": 31,
                    "name": "G1",
                    "ticks": 79200,
                    "time": 143.47839000000002,
                    "velocity": 0.6299212598425197
                },
                {
                    "duration": 0.43478300000001013,
                    "durationTicks": 240,
                    "midi": 36,
                    "name": "C2",
                    "ticks": 79440,
                    "time": 143.913173,
                    "velocity": 0.6692913385826772
                },
                {
                    "duration": 0.3659423583333137,
                    "durationTicks": 202,
                    "midi": 35,
                    "name": "B1",
                    "ticks": 79680,
                    "time": 144.347956,
                    "velocity": 0.7637795275590551
                },
                {
                    "duration": 0.11231894166667189,
                    "durationTicks": 62,
                    "midi": 30,
                    "name": "F#1",
                    "ticks": 79846,
                    "time": 144.64868090833335,
                    "velocity": 0.31496062992125984
                },
                {
                    "duration": 0.49637725833332524,
                    "durationTicks": 274,
                    "midi": 37,
                    "name": "C#2",
                    "ticks": 79920,
                    "time": 144.78273900000002,
                    "velocity": 0.7165354330708661
                },
                {
                    "duration": 0.36956555000000435,
                    "durationTicks": 204,
                    "midi": 38,
                    "name": "D2",
                    "ticks": 80160,
                    "time": 145.217522,
                    "velocity": 0.7322834645669292
                },
                {
                    "duration": 0.09057979166666996,
                    "durationTicks": 50,
                    "midi": 30,
                    "name": "F#1",
                    "ticks": 80326,
                    "time": 145.51824690833334,
                    "velocity": 0.5196850393700787
                },
                {
                    "duration": 0.40942065833331753,
                    "durationTicks": 226,
                    "midi": 39,
                    "name": "D#2",
                    "ticks": 80400,
                    "time": 145.652305,
                    "velocity": 0.7637795275590551
                },
                {
                    "duration": 0.48550768333331007,
                    "durationTicks": 268,
                    "midi": 40,
                    "name": "E2",
                    "ticks": 80640,
                    "time": 146.08708800000002,
                    "velocity": 0.6850393700787402
                },
                {
                    "duration": 0.4746381083333233,
                    "durationTicks": 262,
                    "midi": 42,
                    "name": "F#2",
                    "ticks": 80880,
                    "time": 146.521871,
                    "velocity": 0.6377952755905512
                },
                {
                    "duration": 0.4347829999999817,
                    "durationTicks": 240,
                    "midi": 43,
                    "name": "G2",
                    "ticks": 81120,
                    "time": 146.95665400000001,
                    "velocity": 0.6535433070866141
                },
                {
                    "duration": 0.4746381083333233,
                    "durationTicks": 262,
                    "midi": 47,
                    "name": "B2",
                    "ticks": 81360,
                    "time": 147.391437,
                    "velocity": 0.6614173228346457
                },
                {
                    "duration": 0.45652215000001206,
                    "durationTicks": 252,
                    "midi": 52,
                    "name": "E3",
                    "ticks": 81600,
                    "time": 147.82622,
                    "velocity": 0.5905511811023622
                },
                {
                    "duration": 0.4673917249999988,
                    "durationTicks": 258,
                    "midi": 47,
                    "name": "B2",
                    "ticks": 81840,
                    "time": 148.26100300000002,
                    "velocity": 0.5354330708661418
                },
                {
                    "duration": 0.4384061916666724,
                    "durationTicks": 242,
                    "midi": 43,
                    "name": "G2",
                    "ticks": 82080,
                    "time": 148.695786,
                    "velocity": 0.6377952755905512
                },
                {
                    "duration": 0.3876815083333156,
                    "durationTicks": 214,
                    "midi": 40,
                    "name": "E2",
                    "ticks": 82320,
                    "time": 149.130569,
                    "velocity": 0.6614173228346457
                },
                {
                    "duration": 0.33695682499998725,
                    "durationTicks": 186,
                    "midi": 33,
                    "name": "A1",
                    "ticks": 82560,
                    "time": 149.56535200000002,
                    "velocity": 0.7795275590551181
                },
                {
                    "duration": 0.11231894166664347,
                    "durationTicks": 62,
                    "midi": 28,
                    "name": "E1",
                    "ticks": 82726,
                    "time": 149.86607690833335,
                    "velocity": 0.3937007874015748
                },
                {
                    "duration": 0.3804351250000195,
                    "durationTicks": 210,
                    "midi": 40,
                    "name": "E2",
                    "ticks": 82800,
                    "time": 150.000135,
                    "velocity": 0.6456692913385826
                },
                {
                    "duration": 0.43478300000001013,
                    "durationTicks": 240,
                    "midi": 36,
                    "name": "C2",
                    "ticks": 83040,
                    "time": 150.434918,
                    "velocity": 0.7086614173228346
                },
                {
                    "duration": 0.32971044166666275,
                    "durationTicks": 182,
                    "midi": 33,
                    "name": "A1",
                    "ticks": 83280,
                    "time": 150.86970100000002,
                    "velocity": 0.7244094488188977
                },
                {
                    "duration": 0.06521744999997736,
                    "durationTicks": 36,
                    "midi": 28,
                    "name": "E1",
                    "ticks": 83460,
                    "time": 151.19578825000002,
                    "velocity": 0.5511811023622047
                },
                {
                    "duration": 0.4384061916666724,
                    "durationTicks": 242,
                    "midi": 38,
                    "name": "D2",
                    "ticks": 83520,
                    "time": 151.304484,
                    "velocity": 0.5039370078740157
                },
                {
                    "duration": 0.44202938333333464,
                    "durationTicks": 244,
                    "midi": 36,
                    "name": "C2",
                    "ticks": 83760,
                    "time": 151.739267,
                    "velocity": 0.6377952755905512
                },
                {
                    "duration": 0.5036236416666782,
                    "durationTicks": 278,
                    "midi": 33,
                    "name": "A1",
                    "ticks": 84004,
                    "time": 152.18129638333335,
                    "velocity": 0.47244094488188976
                },
                {
                    "duration": 0.43478300000001013,
                    "durationTicks": 240,
                    "midi": 44,
                    "name": "G#2",
                    "ticks": 84240,
                    "time": 152.608833,
                    "velocity": 0.6141732283464567
                },
                {
                    "duration": 0.48913087500000074,
                    "durationTicks": 270,
                    "midi": 31,
                    "name": "G1",
                    "ticks": 84480,
                    "time": 153.04361600000001,
                    "velocity": 0.6141732283464567
                },
                {
                    "duration": 0.4601453416666459,
                    "durationTicks": 254,
                    "midi": 33,
                    "name": "A1",
                    "ticks": 84720,
                    "time": 153.47839900000002,
                    "velocity": 0.5905511811023622
                },
                {
                    "duration": 0.46376853333333656,
                    "durationTicks": 256,
                    "midi": 35,
                    "name": "B1",
                    "ticks": 84960,
                    "time": 153.913182,
                    "velocity": 0.7007874015748031
                },
                {
                    "duration": 0.4855076833333385,
                    "durationTicks": 268,
                    "midi": 38,
                    "name": "D2",
                    "ticks": 85200,
                    "time": 154.34796500000002,
                    "velocity": 0.6456692913385826
                },
                {
                    "duration": 0.44927576666668756,
                    "durationTicks": 248,
                    "midi": 43,
                    "name": "G2",
                    "ticks": 85440,
                    "time": 154.782748,
                    "velocity": 0.6614173228346457
                },
                {
                    "duration": 0.4456525749999969,
                    "durationTicks": 246,
                    "midi": 38,
                    "name": "D2",
                    "ticks": 85680,
                    "time": 155.217531,
                    "velocity": 0.6062992125984252
                },
                {
                    "duration": 0.4855076833333385,
                    "durationTicks": 268,
                    "midi": 35,
                    "name": "B1",
                    "ticks": 85920,
                    "time": 155.65231400000002,
                    "velocity": 0.6062992125984252
                },
                {
                    "duration": 0.43478300000001013,
                    "durationTicks": 240,
                    "midi": 31,
                    "name": "G1",
                    "ticks": 86160,
                    "time": 156.087097,
                    "velocity": 0.6299212598425197
                },
                {
                    "duration": 0.19565234999998893,
                    "durationTicks": 108,
                    "midi": 42,
                    "name": "F#2",
                    "ticks": 86400,
                    "time": 156.52188,
                    "velocity": 0.5826771653543307
                },
                {
                    "duration": 0.22463788333331536,
                    "durationTicks": 124,
                    "midi": 42,
                    "name": "F#2",
                    "ticks": 86574,
                    "time": 156.83709767500002,
                    "velocity": 0.6692913385826772
                },
                {
                    "duration": 0.5289859833333139,
                    "durationTicks": 292,
                    "midi": 40,
                    "name": "E2",
                    "ticks": 86640,
                    "time": 156.95666300000002,
                    "velocity": 0.6062992125984252
                },
                {
                    "duration": 0.5434787500000198,
                    "durationTicks": 300,
                    "midi": 38,
                    "name": "D2",
                    "ticks": 86880,
                    "time": 157.391446,
                    "velocity": 0.6377952755905512
                },
                {
                    "duration": 0.43478300000001013,
                    "durationTicks": 240,
                    "midi": 36,
                    "name": "C2",
                    "ticks": 87120,
                    "time": 157.826229,
                    "velocity": 0.6614173228346457
                },
                {
                    "duration": 0.33695682499998725,
                    "durationTicks": 186,
                    "midi": 35,
                    "name": "B1",
                    "ticks": 87360,
                    "time": 158.26101200000002,
                    "velocity": 0.7795275590551181
                },
                {
                    "duration": 0.11231894166667189,
                    "durationTicks": 62,
                    "midi": 30,
                    "name": "F#1",
                    "ticks": 87526,
                    "time": 158.56173690833333,
                    "velocity": 0.3937007874015748
                },
                {
                    "duration": 0.3804351250000195,
                    "durationTicks": 210,
                    "midi": 42,
                    "name": "F#2",
                    "ticks": 87600,
                    "time": 158.695795,
                    "velocity": 0.6456692913385826
                },
                {
                    "duration": 0.43478300000001013,
                    "durationTicks": 240,
                    "midi": 39,
                    "name": "D#2",
                    "ticks": 87840,
                    "time": 159.130578,
                    "velocity": 0.7086614173228346
                },
                {
                    "duration": 0.32971044166666275,
                    "durationTicks": 182,
                    "midi": 35,
                    "name": "B1",
                    "ticks": 88080,
                    "time": 159.56536100000002,
                    "velocity": 0.7244094488188977
                },
                {
                    "duration": 0.06521744999997736,
                    "durationTicks": 36,
                    "midi": 30,
                    "name": "F#1",
                    "ticks": 88260,
                    "time": 159.89144825000002,
                    "velocity": 0.5511811023622047
                },
                {
                    "duration": 0.47101491666666107,
                    "durationTicks": 260,
                    "midi": 28,
                    "name": "E1",
                    "ticks": 88320,
                    "time": 160.000144,
                    "velocity": 0.5669291338582677
                },
                {
                    "duration": 0.3985510833333308,
                    "durationTicks": 220,
                    "midi": 38,
                    "name": "D2",
                    "ticks": 88580,
                    "time": 160.47115891666667,
                    "velocity": 0.5433070866141733
                },
                {
                    "duration": 0.41666704166667046,
                    "durationTicks": 230,
                    "midi": 39,
                    "name": "D#2",
                    "ticks": 88800,
                    "time": 160.86971,
                    "velocity": 0.7401574803149606
                },
                {
                    "duration": 0.07246383333335871,
                    "durationTicks": 40,
                    "midi": 34,
                    "name": "A#1",
                    "ticks": 88978,
                    "time": 161.19217405833334,
                    "velocity": 0.5511811023622047
                },
                {
                    "duration": 0.32246405833333824,
                    "durationTicks": 178,
                    "midi": 46,
                    "name": "A#2",
                    "ticks": 89040,
                    "time": 161.304493,
                    "velocity": 0.6850393700787402
                },
                {
                    "duration": 0.06159425833331511,
                    "durationTicks": 34,
                    "midi": 34,
                    "name": "A#1",
                    "ticks": 89218,
                    "time": 161.62695705833335,
                    "velocity": 0.5669291338582677
                },
                {
                    "duration": 0.48913087500000074,
                    "durationTicks": 270,
                    "midi": 50,
                    "name": "D3",
                    "ticks": 89280,
                    "time": 161.73927600000002,
                    "velocity": 0.6377952755905512
                },
                {
                    "duration": 0.43478300000001013,
                    "durationTicks": 240,
                    "midi": 45,
                    "name": "A2",
                    "ticks": 89520,
                    "time": 162.174059,
                    "velocity": 0.6299212598425197
                },
                {
                    "duration": 0.4130438500000082,
                    "durationTicks": 228,
                    "midi": 37,
                    "name": "C#2",
                    "ticks": 89760,
                    "time": 162.608842,
                    "velocity": 0.6535433070866141
                },
                {
                    "duration": 0.4347829999999817,
                    "durationTicks": 240,
                    "midi": 35,
                    "name": "B1",
                    "ticks": 90000,
                    "time": 163.04362500000002,
                    "velocity": 0.6062992125984252
                },
                {
                    "duration": 0.43478300000001013,
                    "durationTicks": 240,
                    "midi": 36,
                    "name": "C2",
                    "ticks": 90240,
                    "time": 163.478408,
                    "velocity": 0.6220472440944882
                },
                {
                    "duration": 0.4384061916666724,
                    "durationTicks": 242,
                    "midi": 43,
                    "name": "G2",
                    "ticks": 90480,
                    "time": 163.913191,
                    "velocity": 0.6141732283464567
                },
                {
                    "duration": 0.43840619166664396,
                    "durationTicks": 242,
                    "midi": 40,
                    "name": "E2",
                    "ticks": 90722,
                    "time": 164.35159719166668,
                    "velocity": 0.5748031496062992
                },
                {
                    "duration": 0.42753661666668563,
                    "durationTicks": 236,
                    "midi": 36,
                    "name": "C2",
                    "ticks": 90964,
                    "time": 164.79000338333333,
                    "velocity": 0.7165354330708661
                },
                {
                    "duration": 0.43478300000001013,
                    "durationTicks": 240,
                    "midi": 42,
                    "name": "F#2",
                    "ticks": 91200,
                    "time": 165.21754,
                    "velocity": 0.6062992125984252
                },
                {
                    "duration": 0.4347829999999817,
                    "durationTicks": 240,
                    "midi": 42,
                    "name": "F#2",
                    "ticks": 91440,
                    "time": 165.65232300000002,
                    "velocity": 0.6614173228346457
                },
                {
                    "duration": 0.46376853333333656,
                    "durationTicks": 256,
                    "midi": 35,
                    "name": "B1",
                    "ticks": 91680,
                    "time": 166.087106,
                    "velocity": 0.6377952755905512
                },
                {
                    "duration": 0.4057974666666837,
                    "durationTicks": 224,
                    "midi": 39,
                    "name": "D#2",
                    "ticks": 91936,
                    "time": 166.55087453333334,
                    "velocity": 0.44881889763779526
                },
                {
                    "duration": 0.2862321416666589,
                    "durationTicks": 158,
                    "midi": 40,
                    "name": "E2",
                    "ticks": 92160,
                    "time": 166.95667200000003,
                    "velocity": 0.6614173228346457
                },
                {
                    "duration": 0.08333340833334546,
                    "durationTicks": 46,
                    "midi": 28,
                    "name": "E1",
                    "ticks": 92338,
                    "time": 167.27913605833334,
                    "velocity": 0.7244094488188977
                },
                {
                    "duration": 0.4311598083333479,
                    "durationTicks": 238,
                    "midi": 42,
                    "name": "F#2",
                    "ticks": 92400,
                    "time": 167.391455,
                    "velocity": 0.6614173228346457
                },
                {
                    "duration": 0.4347829999999817,
                    "durationTicks": 240,
                    "midi": 43,
                    "name": "G2",
                    "ticks": 92640,
                    "time": 167.82623800000002,
                    "velocity": 0.5039370078740157
                },
                {
                    "duration": 0.30434809999999857,
                    "durationTicks": 168,
                    "midi": 47,
                    "name": "B2",
                    "ticks": 92880,
                    "time": 168.261021,
                    "velocity": 0.6062992125984252
                },
                {
                    "duration": 0.11231894166667189,
                    "durationTicks": 62,
                    "midi": 40,
                    "name": "E2",
                    "ticks": 93058,
                    "time": 168.58348505833334,
                    "velocity": 0.6456692913385826
                },
                {
                    "duration": 0.333333633333325,
                    "durationTicks": 184,
                    "midi": 40,
                    "name": "E2",
                    "ticks": 93120,
                    "time": 168.695804,
                    "velocity": 0.7007874015748031
                },
                {
                    "duration": 0.5615947083333026,
                    "durationTicks": 310,
                    "midi": 28,
                    "name": "E1",
                    "ticks": 93280,
                    "time": 168.98565933333336,
                    "velocity": 0.6535433070866141
                },
                {
                    "duration": 0.3913047000000063,
                    "durationTicks": 216,
                    "midi": 31,
                    "name": "G1",
                    "ticks": 93600,
                    "time": 169.56537,
                    "velocity": 0.6614173228346457
                },
                {
                    "duration": 0.43478300000001013,
                    "durationTicks": 240,
                    "midi": 35,
                    "name": "B1",
                    "ticks": 93840,
                    "time": 170.000153,
                    "velocity": 0.6614173228346457
                },
                {
                    "duration": 0.4347829999999817,
                    "durationTicks": 240,
                    "midi": 40,
                    "name": "E2",
                    "ticks": 94080,
                    "time": 170.43493600000002,
                    "velocity": 0.6062992125984252
                },
                {
                    "duration": 0.5181164083333272,
                    "durationTicks": 286,
                    "midi": 43,
                    "name": "G2",
                    "ticks": 94320,
                    "time": 170.869719,
                    "velocity": 0.6220472440944882
                },
                {
                    "duration": 0.49637725833332524,
                    "durationTicks": 274,
                    "midi": 45,
                    "name": "A2",
                    "ticks": 94560,
                    "time": 171.304502,
                    "velocity": 0.6220472440944882
                },
                {
                    "duration": 0.3550727833333269,
                    "durationTicks": 196,
                    "midi": 46,
                    "name": "A#2",
                    "ticks": 94800,
                    "time": 171.73928500000002,
                    "velocity": 0.6771653543307087
                },
                {
                    "duration": 0.22463788333334378,
                    "durationTicks": 124,
                    "midi": 47,
                    "name": "B2",
                    "ticks": 95040,
                    "time": 172.174068,
                    "velocity": 0.6062992125984252
                },
                {
                    "duration": 1.007247283333328,
                    "durationTicks": 556,
                    "midi": 40,
                    "name": "E2",
                    "ticks": 95440,
                    "time": 172.89870633333337,
                    "velocity": 0.6614173228346457
                }
            ],
            "endOfTrackTicks": 95996
        },
        {
            "channel": 2,
            "controlChanges": {
                "7": [
                    {
                        "number": 7,
                        "ticks": 0,
                        "time": 0,
                        "value": 0.7086614173228346
                    }
                ],
                "10": [
                    {
                        "number": 10,
                        "ticks": 0,
                        "time": 0,
                        "value": 0.4251968503937008
                    }
                ],
                "64": [
                    {
                        "number": 64,
                        "ticks": 0,
                        "time": 0,
                        "value": 0
                    },
                    {
                        "number": 64,
                        "ticks": 96000,
                        "time": 173.91320000000002,
                        "value": 0
                    }
                ],
                "91": [
                    {
                        "number": 91,
                        "ticks": 0,
                        "time": 0,
                        "value": 0.31496062992125984
                    }
                ],
                "93": [
                    {
                        "number": 93,
                        "ticks": 0,
                        "time": 0,
                        "value": 0
                    }
                ],
                "123": [
                    {
                        "number": 123,
                        "ticks": 0,
                        "time": 0,
                        "value": 0
                    }
                ]
            },
            "pitchBends": [],
            "instrument": {
                "family": "piano",
                "name": "electric piano 1",
                "number": 4
            },
            "name": "Piano / Rhodes elect.",
            "notes": [
                {
                    "duration": 0.13768128333333296,
                    "durationTicks": 76,
                    "midi": 67,
                    "name": "G4",
                    "ticks": 2160,
                    "time": 3.913047,
                    "velocity": 0.3700787401574803
                },
                {
                    "duration": 0.13768128333333296,
                    "durationTicks": 76,
                    "midi": 64,
                    "name": "E4",
                    "ticks": 2160,
                    "time": 3.913047,
                    "velocity": 0.3700787401574803
                },
                {
                    "duration": 0.13768128333333296,
                    "durationTicks": 76,
                    "midi": 60,
                    "name": "C4",
                    "ticks": 2160,
                    "time": 3.913047,
                    "velocity": 0.3700787401574803
                },
                {
                    "duration": 0.13768128333333296,
                    "durationTicks": 76,
                    "midi": 69,
                    "name": "A4",
                    "ticks": 2160,
                    "time": 3.913047,
                    "velocity": 0.3700787401574803
                },
                {
                    "duration": 0.15942043333333356,
                    "durationTicks": 88,
                    "midi": 67,
                    "name": "G4",
                    "ticks": 2568,
                    "time": 4.6521781,
                    "velocity": 0.3543307086614173
                },
                {
                    "duration": 0.15942043333333356,
                    "durationTicks": 88,
                    "midi": 64,
                    "name": "E4",
                    "ticks": 2568,
                    "time": 4.6521781,
                    "velocity": 0.3543307086614173
                },
                {
                    "duration": 0.15942043333333356,
                    "durationTicks": 88,
                    "midi": 60,
                    "name": "C4",
                    "ticks": 2568,
                    "time": 4.6521781,
                    "velocity": 0.3543307086614173
                },
                {
                    "duration": 0.15942043333333356,
                    "durationTicks": 88,
                    "midi": 69,
                    "name": "A4",
                    "ticks": 2568,
                    "time": 4.6521781,
                    "velocity": 0.3543307086614173
                },
                {
                    "duration": 0.1376812833333334,
                    "durationTicks": 76,
                    "midi": 66,
                    "name": "F#4",
                    "ticks": 3120,
                    "time": 5.652179,
                    "velocity": 0.36220472440944884
                },
                {
                    "duration": 0.1376812833333334,
                    "durationTicks": 76,
                    "midi": 64,
                    "name": "E4",
                    "ticks": 3120,
                    "time": 5.652179,
                    "velocity": 0.36220472440944884
                },
                {
                    "duration": 0.1376812833333334,
                    "durationTicks": 76,
                    "midi": 60,
                    "name": "C4",
                    "ticks": 3120,
                    "time": 5.652179,
                    "velocity": 0.36220472440944884
                },
                {
                    "duration": 0.1376812833333334,
                    "durationTicks": 76,
                    "midi": 69,
                    "name": "A4",
                    "ticks": 3120,
                    "time": 5.652179,
                    "velocity": 0.36220472440944884
                },
                {
                    "duration": 0.15942043333333356,
                    "durationTicks": 88,
                    "midi": 66,
                    "name": "F#4",
                    "ticks": 3600,
                    "time": 6.521745,
                    "velocity": 0.3858267716535433
                },
                {
                    "duration": 0.15942043333333356,
                    "durationTicks": 88,
                    "midi": 64,
                    "name": "E4",
                    "ticks": 3600,
                    "time": 6.521745,
                    "velocity": 0.3858267716535433
                },
                {
                    "duration": 0.15942043333333356,
                    "durationTicks": 88,
                    "midi": 60,
                    "name": "C4",
                    "ticks": 3600,
                    "time": 6.521745,
                    "velocity": 0.3858267716535433
                },
                {
                    "duration": 0.15942043333333356,
                    "durationTicks": 88,
                    "midi": 69,
                    "name": "A4",
                    "ticks": 3600,
                    "time": 6.521745,
                    "velocity": 0.3858267716535433
                },
                {
                    "duration": 0.09420298333333221,
                    "durationTicks": 52,
                    "midi": 66,
                    "name": "F#4",
                    "ticks": 4016,
                    "time": 7.275368866666668,
                    "velocity": 0.3543307086614173
                },
                {
                    "duration": 0.09420298333333221,
                    "durationTicks": 52,
                    "midi": 62,
                    "name": "D4",
                    "ticks": 4016,
                    "time": 7.275368866666668,
                    "velocity": 0.3543307086614173
                },
                {
                    "duration": 0.09420298333333221,
                    "durationTicks": 52,
                    "midi": 59,
                    "name": "B3",
                    "ticks": 4016,
                    "time": 7.275368866666668,
                    "velocity": 0.3543307086614173
                },
                {
                    "duration": 0.09420298333333221,
                    "durationTicks": 52,
                    "midi": 69,
                    "name": "A4",
                    "ticks": 4016,
                    "time": 7.275368866666668,
                    "velocity": 0.3543307086614173
                },
                {
                    "duration": 0.8115949333333337,
                    "durationTicks": 448,
                    "midi": 66,
                    "name": "F#4",
                    "ticks": 4334,
                    "time": 7.851456341666667,
                    "velocity": 0.4330708661417323
                },
                {
                    "duration": 0.8115949333333337,
                    "durationTicks": 448,
                    "midi": 62,
                    "name": "D4",
                    "ticks": 4334,
                    "time": 7.851456341666667,
                    "velocity": 0.4330708661417323
                },
                {
                    "duration": 0.8115949333333337,
                    "durationTicks": 448,
                    "midi": 59,
                    "name": "B3",
                    "ticks": 4334,
                    "time": 7.851456341666667,
                    "velocity": 0.4330708661417323
                },
                {
                    "duration": 0.8115949333333337,
                    "durationTicks": 448,
                    "midi": 69,
                    "name": "A4",
                    "ticks": 4334,
                    "time": 7.851456341666667,
                    "velocity": 0.4330708661417323
                },
                {
                    "duration": 0.09420298333333221,
                    "durationTicks": 52,
                    "midi": 64,
                    "name": "E4",
                    "ticks": 4976,
                    "time": 9.014500866666667,
                    "velocity": 0.3543307086614173
                },
                {
                    "duration": 0.09420298333333221,
                    "durationTicks": 52,
                    "midi": 62,
                    "name": "D4",
                    "ticks": 4976,
                    "time": 9.014500866666667,
                    "velocity": 0.3543307086614173
                },
                {
                    "duration": 0.09420298333333221,
                    "durationTicks": 52,
                    "midi": 59,
                    "name": "B3",
                    "ticks": 4976,
                    "time": 9.014500866666667,
                    "velocity": 0.3543307086614173
                },
                {
                    "duration": 0.09420298333333221,
                    "durationTicks": 52,
                    "midi": 67,
                    "name": "G4",
                    "ticks": 4976,
                    "time": 9.014500866666667,
                    "velocity": 0.3543307086614173
                },
                {
                    "duration": 0.8115949333333337,
                    "durationTicks": 448,
                    "midi": 64,
                    "name": "E4",
                    "ticks": 5294,
                    "time": 9.590588341666667,
                    "velocity": 0.4330708661417323
                },
                {
                    "duration": 0.8115949333333337,
                    "durationTicks": 448,
                    "midi": 62,
                    "name": "D4",
                    "ticks": 5294,
                    "time": 9.590588341666667,
                    "velocity": 0.4330708661417323
                },
                {
                    "duration": 0.8115949333333337,
                    "durationTicks": 448,
                    "midi": 59,
                    "name": "B3",
                    "ticks": 5294,
                    "time": 9.590588341666667,
                    "velocity": 0.4330708661417323
                },
                {
                    "duration": 0.8115949333333337,
                    "durationTicks": 448,
                    "midi": 67,
                    "name": "G4",
                    "ticks": 5294,
                    "time": 9.590588341666667,
                    "velocity": 0.4330708661417323
                },
                {
                    "duration": 0.09420298333333399,
                    "durationTicks": 52,
                    "midi": 66,
                    "name": "F#4",
                    "ticks": 5936,
                    "time": 10.753632866666667,
                    "velocity": 0.3543307086614173
                },
                {
                    "duration": 0.09420298333333399,
                    "durationTicks": 52,
                    "midi": 64,
                    "name": "E4",
                    "ticks": 5936,
                    "time": 10.753632866666667,
                    "velocity": 0.3543307086614173
                },
                {
                    "duration": 0.09420298333333399,
                    "durationTicks": 52,
                    "midi": 60,
                    "name": "C4",
                    "ticks": 5936,
                    "time": 10.753632866666667,
                    "velocity": 0.3543307086614173
                },
                {
                    "duration": 0.09420298333333399,
                    "durationTicks": 52,
                    "midi": 69,
                    "name": "A4",
                    "ticks": 5936,
                    "time": 10.753632866666667,
                    "velocity": 0.3543307086614173
                },
                {
                    "duration": 0.8115949333333337,
                    "durationTicks": 448,
                    "midi": 66,
                    "name": "F#4",
                    "ticks": 6254,
                    "time": 11.329720341666668,
                    "velocity": 0.4330708661417323
                },
                {
                    "duration": 0.8115949333333337,
                    "durationTicks": 448,
                    "midi": 64,
                    "name": "E4",
                    "ticks": 6254,
                    "time": 11.329720341666668,
                    "velocity": 0.4330708661417323
                },
                {
                    "duration": 0.8115949333333337,
                    "durationTicks": 448,
                    "midi": 60,
                    "name": "C4",
                    "ticks": 6254,
                    "time": 11.329720341666668,
                    "velocity": 0.4330708661417323
                },
                {
                    "duration": 0.8115949333333337,
                    "durationTicks": 448,
                    "midi": 69,
                    "name": "A4",
                    "ticks": 6254,
                    "time": 11.329720341666668,
                    "velocity": 0.4330708661417323
                },
                {
                    "duration": 0.13768128333333252,
                    "durationTicks": 76,
                    "midi": 63,
                    "name": "D#4",
                    "ticks": 6960,
                    "time": 12.608707,
                    "velocity": 0.36220472440944884
                },
                {
                    "duration": 0.13768128333333252,
                    "durationTicks": 76,
                    "midi": 59,
                    "name": "B3",
                    "ticks": 6960,
                    "time": 12.608707,
                    "velocity": 0.36220472440944884
                },
                {
                    "duration": 0.13768128333333252,
                    "durationTicks": 76,
                    "midi": 57,
                    "name": "A3",
                    "ticks": 6960,
                    "time": 12.608707,
                    "velocity": 0.36220472440944884
                },
                {
                    "duration": 0.13768128333333252,
                    "durationTicks": 76,
                    "midi": 66,
                    "name": "F#4",
                    "ticks": 6960,
                    "time": 12.608707,
                    "velocity": 0.36220472440944884
                },
                {
                    "duration": 0.15942043333333267,
                    "durationTicks": 88,
                    "midi": 63,
                    "name": "D#4",
                    "ticks": 7440,
                    "time": 13.478273000000002,
                    "velocity": 0.3858267716535433
                },
                {
                    "duration": 0.15942043333333267,
                    "durationTicks": 88,
                    "midi": 59,
                    "name": "B3",
                    "ticks": 7440,
                    "time": 13.478273000000002,
                    "velocity": 0.3858267716535433
                },
                {
                    "duration": 0.15942043333333267,
                    "durationTicks": 88,
                    "midi": 57,
                    "name": "A3",
                    "ticks": 7440,
                    "time": 13.478273000000002,
                    "velocity": 0.3858267716535433
                },
                {
                    "duration": 0.15942043333333267,
                    "durationTicks": 88,
                    "midi": 66,
                    "name": "F#4",
                    "ticks": 7440,
                    "time": 13.478273000000002,
                    "velocity": 0.3858267716535433
                },
                {
                    "duration": 0.12681170833333333,
                    "durationTicks": 70,
                    "midi": 64,
                    "name": "E4",
                    "ticks": 7920,
                    "time": 14.347839,
                    "velocity": 0.4330708661417323
                },
                {
                    "duration": 0.12681170833333333,
                    "durationTicks": 70,
                    "midi": 62,
                    "name": "D4",
                    "ticks": 7920,
                    "time": 14.347839,
                    "velocity": 0.4330708661417323
                },
                {
                    "duration": 0.12681170833333333,
                    "durationTicks": 70,
                    "midi": 59,
                    "name": "B3",
                    "ticks": 7920,
                    "time": 14.347839,
                    "velocity": 0.4330708661417323
                },
                {
                    "duration": 0.12681170833333333,
                    "durationTicks": 70,
                    "midi": 67,
                    "name": "G4",
                    "ticks": 7920,
                    "time": 14.347839,
                    "velocity": 0.4330708661417323
                },
                {
                    "duration": 0.13043489999999913,
                    "durationTicks": 72,
                    "midi": 64,
                    "name": "E4",
                    "ticks": 8400,
                    "time": 15.217405000000001,
                    "velocity": 0.36220472440944884
                },
                {
                    "duration": 0.13043489999999913,
                    "durationTicks": 72,
                    "midi": 62,
                    "name": "D4",
                    "ticks": 8400,
                    "time": 15.217405000000001,
                    "velocity": 0.36220472440944884
                },
                {
                    "duration": 0.13043489999999913,
                    "durationTicks": 72,
                    "midi": 59,
                    "name": "B3",
                    "ticks": 8400,
                    "time": 15.217405000000001,
                    "velocity": 0.36220472440944884
                },
                {
                    "duration": 0.13043489999999913,
                    "durationTicks": 72,
                    "midi": 67,
                    "name": "G4",
                    "ticks": 8400,
                    "time": 15.217405000000001,
                    "velocity": 0.36220472440944884
                },
                {
                    "duration": 0.5615947083333328,
                    "durationTicks": 310,
                    "midi": 64,
                    "name": "E4",
                    "ticks": 8810,
                    "time": 15.960159291666669,
                    "velocity": 0.3543307086614173
                },
                {
                    "duration": 0.5615947083333328,
                    "durationTicks": 310,
                    "midi": 62,
                    "name": "D4",
                    "ticks": 8810,
                    "time": 15.960159291666669,
                    "velocity": 0.3543307086614173
                },
                {
                    "duration": 0.5615947083333328,
                    "durationTicks": 310,
                    "midi": 59,
                    "name": "B3",
                    "ticks": 8810,
                    "time": 15.960159291666669,
                    "velocity": 0.3543307086614173
                },
                {
                    "duration": 0.5615947083333328,
                    "durationTicks": 310,
                    "midi": 67,
                    "name": "G4",
                    "ticks": 8810,
                    "time": 15.960159291666669,
                    "velocity": 0.3543307086614173
                },
                {
                    "duration": 0.8586964250000015,
                    "durationTicks": 474,
                    "midi": 76,
                    "name": "E5",
                    "ticks": 9126,
                    "time": 16.532623575,
                    "velocity": 0.47244094488188976
                },
                {
                    "duration": 0.8586964250000015,
                    "durationTicks": 474,
                    "midi": 59,
                    "name": "B3",
                    "ticks": 9126,
                    "time": 16.532623575,
                    "velocity": 0.3228346456692913
                },
                {
                    "duration": 0.8586964250000015,
                    "durationTicks": 474,
                    "midi": 64,
                    "name": "E4",
                    "ticks": 9126,
                    "time": 16.532623575,
                    "velocity": 0.29133858267716534
                },
                {
                    "duration": 0.8297108916666645,
                    "durationTicks": 458,
                    "midi": 62,
                    "name": "D4",
                    "ticks": 9142,
                    "time": 16.561609108333336,
                    "velocity": 0.4330708661417323
                },
                {
                    "duration": 0.8115949333333319,
                    "durationTicks": 448,
                    "midi": 68,
                    "name": "G#4",
                    "ticks": 9152,
                    "time": 16.57972506666667,
                    "velocity": 0.25984251968503935
                },
                {
                    "duration": 0.5362323666666668,
                    "durationTicks": 296,
                    "midi": 71,
                    "name": "B4",
                    "ticks": 9304,
                    "time": 16.855087633333333,
                    "velocity": 0.5118110236220472
                },
                {
                    "duration": 0.09420298333333221,
                    "durationTicks": 52,
                    "midi": 67,
                    "name": "G4",
                    "ticks": 9776,
                    "time": 17.71016086666667,
                    "velocity": 0.3543307086614173
                },
                {
                    "duration": 0.09420298333333221,
                    "durationTicks": 52,
                    "midi": 64,
                    "name": "E4",
                    "ticks": 9776,
                    "time": 17.71016086666667,
                    "velocity": 0.3543307086614173
                },
                {
                    "duration": 0.09420298333333221,
                    "durationTicks": 52,
                    "midi": 60,
                    "name": "C4",
                    "ticks": 9776,
                    "time": 17.71016086666667,
                    "velocity": 0.3543307086614173
                },
                {
                    "duration": 0.09420298333333221,
                    "durationTicks": 52,
                    "midi": 69,
                    "name": "A4",
                    "ticks": 9776,
                    "time": 17.71016086666667,
                    "velocity": 0.3543307086614173
                },
                {
                    "duration": 0.8115949333333319,
                    "durationTicks": 448,
                    "midi": 67,
                    "name": "G4",
                    "ticks": 10094,
                    "time": 18.286248341666667,
                    "velocity": 0.4330708661417323
                },
                {
                    "duration": 0.8115949333333319,
                    "durationTicks": 448,
                    "midi": 64,
                    "name": "E4",
                    "ticks": 10094,
                    "time": 18.286248341666667,
                    "velocity": 0.4330708661417323
                },
                {
                    "duration": 0.8115949333333319,
                    "durationTicks": 448,
                    "midi": 60,
                    "name": "C4",
                    "ticks": 10094,
                    "time": 18.286248341666667,
                    "velocity": 0.4330708661417323
                },
                {
                    "duration": 0.8115949333333319,
                    "durationTicks": 448,
                    "midi": 69,
                    "name": "A4",
                    "ticks": 10094,
                    "time": 18.286248341666667,
                    "velocity": 0.4330708661417323
                },
                {
                    "duration": 0.09420298333333577,
                    "durationTicks": 52,
                    "midi": 66,
                    "name": "F#4",
                    "ticks": 10736,
                    "time": 19.449292866666667,
                    "velocity": 0.3543307086614173
                },
                {
                    "duration": 0.09420298333333577,
                    "durationTicks": 52,
                    "midi": 64,
                    "name": "E4",
                    "ticks": 10736,
                    "time": 19.449292866666667,
                    "velocity": 0.3543307086614173
                },
                {
                    "duration": 0.09420298333333577,
                    "durationTicks": 52,
                    "midi": 60,
                    "name": "C4",
                    "ticks": 10736,
                    "time": 19.449292866666667,
                    "velocity": 0.3543307086614173
                },
                {
                    "duration": 0.09420298333333577,
                    "durationTicks": 52,
                    "midi": 69,
                    "name": "A4",
                    "ticks": 10736,
                    "time": 19.449292866666667,
                    "velocity": 0.3543307086614173
                },
                {
                    "duration": 0.8115949333333354,
                    "durationTicks": 448,
                    "midi": 66,
                    "name": "F#4",
                    "ticks": 11054,
                    "time": 20.025380341666665,
                    "velocity": 0.4330708661417323
                },
                {
                    "duration": 0.8115949333333354,
                    "durationTicks": 448,
                    "midi": 64,
                    "name": "E4",
                    "ticks": 11054,
                    "time": 20.025380341666665,
                    "velocity": 0.4330708661417323
                },
                {
                    "duration": 0.8115949333333354,
                    "durationTicks": 448,
                    "midi": 60,
                    "name": "C4",
                    "ticks": 11054,
                    "time": 20.025380341666665,
                    "velocity": 0.4330708661417323
                },
                {
                    "duration": 0.8115949333333354,
                    "durationTicks": 448,
                    "midi": 69,
                    "name": "A4",
                    "ticks": 11054,
                    "time": 20.025380341666665,
                    "velocity": 0.4330708661417323
                },
                {
                    "duration": 0.14855085833333348,
                    "durationTicks": 82,
                    "midi": 66,
                    "name": "F#4",
                    "ticks": 11682,
                    "time": 21.163062525,
                    "velocity": 0.3937007874015748
                },
                {
                    "duration": 0.14855085833333348,
                    "durationTicks": 82,
                    "midi": 62,
                    "name": "D4",
                    "ticks": 11682,
                    "time": 21.163062525,
                    "velocity": 0.3937007874015748
                },
                {
                    "duration": 0.14855085833333348,
                    "durationTicks": 82,
                    "midi": 59,
                    "name": "B3",
                    "ticks": 11682,
                    "time": 21.163062525,
                    "velocity": 0.3937007874015748
                },
                {
                    "duration": 0.14855085833333348,
                    "durationTicks": 82,
                    "midi": 69,
                    "name": "A4",
                    "ticks": 11682,
                    "time": 21.163062525,
                    "velocity": 0.3937007874015748
                },
                {
                    "duration": 0.14492766666667123,
                    "durationTicks": 80,
                    "midi": 66,
                    "name": "F#4",
                    "ticks": 12178,
                    "time": 22.061614058333333,
                    "velocity": 0.3858267716535433
                },
                {
                    "duration": 0.14492766666667123,
                    "durationTicks": 80,
                    "midi": 62,
                    "name": "D4",
                    "ticks": 12178,
                    "time": 22.061614058333333,
                    "velocity": 0.3858267716535433
                },
                {
                    "duration": 0.14492766666667123,
                    "durationTicks": 80,
                    "midi": 59,
                    "name": "B3",
                    "ticks": 12178,
                    "time": 22.061614058333333,
                    "velocity": 0.3858267716535433
                },
                {
                    "duration": 0.14492766666667123,
                    "durationTicks": 80,
                    "midi": 69,
                    "name": "A4",
                    "ticks": 12178,
                    "time": 22.061614058333333,
                    "velocity": 0.3858267716535433
                },
                {
                    "duration": 0.13768128333333607,
                    "durationTicks": 76,
                    "midi": 64,
                    "name": "E4",
                    "ticks": 12720,
                    "time": 23.043499,
                    "velocity": 0.36220472440944884
                },
                {
                    "duration": 0.13768128333333607,
                    "durationTicks": 76,
                    "midi": 62,
                    "name": "D4",
                    "ticks": 12720,
                    "time": 23.043499,
                    "velocity": 0.36220472440944884
                },
                {
                    "duration": 0.13768128333333607,
                    "durationTicks": 76,
                    "midi": 59,
                    "name": "B3",
                    "ticks": 12720,
                    "time": 23.043499,
                    "velocity": 0.36220472440944884
                },
                {
                    "duration": 0.13768128333333607,
                    "durationTicks": 76,
                    "midi": 67,
                    "name": "G4",
                    "ticks": 12720,
                    "time": 23.043499,
                    "velocity": 0.36220472440944884
                },
                {
                    "duration": 0.1594204333333309,
                    "durationTicks": 88,
                    "midi": 64,
                    "name": "E4",
                    "ticks": 13200,
                    "time": 23.913065000000003,
                    "velocity": 0.3858267716535433
                },
                {
                    "duration": 0.1594204333333309,
                    "durationTicks": 88,
                    "midi": 62,
                    "name": "D4",
                    "ticks": 13200,
                    "time": 23.913065000000003,
                    "velocity": 0.3858267716535433
                },
                {
                    "duration": 0.1594204333333309,
                    "durationTicks": 88,
                    "midi": 59,
                    "name": "B3",
                    "ticks": 13200,
                    "time": 23.913065000000003,
                    "velocity": 0.3858267716535433
                },
                {
                    "duration": 0.1594204333333309,
                    "durationTicks": 88,
                    "midi": 67,
                    "name": "G4",
                    "ticks": 13200,
                    "time": 23.913065000000003,
                    "velocity": 0.3858267716535433
                },
                {
                    "duration": 0.14855085833333348,
                    "durationTicks": 82,
                    "midi": 66,
                    "name": "F#4",
                    "ticks": 13602,
                    "time": 24.641326525,
                    "velocity": 0.3937007874015748
                },
                {
                    "duration": 0.14855085833333348,
                    "durationTicks": 82,
                    "midi": 64,
                    "name": "E4",
                    "ticks": 13602,
                    "time": 24.641326525,
                    "velocity": 0.3937007874015748
                },
                {
                    "duration": 0.14855085833333348,
                    "durationTicks": 82,
                    "midi": 60,
                    "name": "C4",
                    "ticks": 13602,
                    "time": 24.641326525,
                    "velocity": 0.3937007874015748
                },
                {
                    "duration": 0.14855085833333348,
                    "durationTicks": 82,
                    "midi": 69,
                    "name": "A4",
                    "ticks": 13602,
                    "time": 24.641326525,
                    "velocity": 0.3937007874015748
                },
                {
                    "duration": 0.14492766666666768,
                    "durationTicks": 80,
                    "midi": 66,
                    "name": "F#4",
                    "ticks": 14098,
                    "time": 25.539878058333336,
                    "velocity": 0.3858267716535433
                },
                {
                    "duration": 0.14492766666666768,
                    "durationTicks": 80,
                    "midi": 64,
                    "name": "E4",
                    "ticks": 14098,
                    "time": 25.539878058333336,
                    "velocity": 0.3858267716535433
                },
                {
                    "duration": 0.14492766666666768,
                    "durationTicks": 80,
                    "midi": 60,
                    "name": "C4",
                    "ticks": 14098,
                    "time": 25.539878058333336,
                    "velocity": 0.3858267716535433
                },
                {
                    "duration": 0.14492766666666768,
                    "durationTicks": 80,
                    "midi": 69,
                    "name": "A4",
                    "ticks": 14098,
                    "time": 25.539878058333336,
                    "velocity": 0.3858267716535433
                },
                {
                    "duration": 0.12681170833333155,
                    "durationTicks": 70,
                    "midi": 63,
                    "name": "D#4",
                    "ticks": 14640,
                    "time": 26.521763000000004,
                    "velocity": 0.4330708661417323
                },
                {
                    "duration": 0.12681170833333155,
                    "durationTicks": 70,
                    "midi": 59,
                    "name": "B3",
                    "ticks": 14640,
                    "time": 26.521763000000004,
                    "velocity": 0.4330708661417323
                },
                {
                    "duration": 0.12681170833333155,
                    "durationTicks": 70,
                    "midi": 57,
                    "name": "A3",
                    "ticks": 14640,
                    "time": 26.521763000000004,
                    "velocity": 0.4330708661417323
                },
                {
                    "duration": 0.12681170833333155,
                    "durationTicks": 70,
                    "midi": 66,
                    "name": "F#4",
                    "ticks": 14640,
                    "time": 26.521763000000004,
                    "velocity": 0.4330708661417323
                },
                {
                    "duration": 0.13043489999999736,
                    "durationTicks": 72,
                    "midi": 63,
                    "name": "D#4",
                    "ticks": 15120,
                    "time": 27.391329000000002,
                    "velocity": 0.36220472440944884
                },
                {
                    "duration": 0.13043489999999736,
                    "durationTicks": 72,
                    "midi": 59,
                    "name": "B3",
                    "ticks": 15120,
                    "time": 27.391329000000002,
                    "velocity": 0.36220472440944884
                },
                {
                    "duration": 0.13043489999999736,
                    "durationTicks": 72,
                    "midi": 57,
                    "name": "A3",
                    "ticks": 15120,
                    "time": 27.391329000000002,
                    "velocity": 0.36220472440944884
                },
                {
                    "duration": 0.13043489999999736,
                    "durationTicks": 72,
                    "midi": 66,
                    "name": "F#4",
                    "ticks": 15120,
                    "time": 27.391329000000002,
                    "velocity": 0.36220472440944884
                },
                {
                    "duration": 0.1268117083333351,
                    "durationTicks": 70,
                    "midi": 64,
                    "name": "E4",
                    "ticks": 15600,
                    "time": 28.260895,
                    "velocity": 0.4330708661417323
                },
                {
                    "duration": 0.1268117083333351,
                    "durationTicks": 70,
                    "midi": 61,
                    "name": "C#4",
                    "ticks": 15600,
                    "time": 28.260895,
                    "velocity": 0.4330708661417323
                },
                {
                    "duration": 0.1268117083333351,
                    "durationTicks": 70,
                    "midi": 59,
                    "name": "B3",
                    "ticks": 15600,
                    "time": 28.260895,
                    "velocity": 0.4330708661417323
                },
                {
                    "duration": 0.1268117083333351,
                    "durationTicks": 70,
                    "midi": 67,
                    "name": "G4",
                    "ticks": 15600,
                    "time": 28.260895,
                    "velocity": 0.4330708661417323
                },
                {
                    "duration": 0.1304349000000009,
                    "durationTicks": 72,
                    "midi": 64,
                    "name": "E4",
                    "ticks": 16080,
                    "time": 29.130461,
                    "velocity": 0.36220472440944884
                },
                {
                    "duration": 0.1304349000000009,
                    "durationTicks": 72,
                    "midi": 61,
                    "name": "C#4",
                    "ticks": 16080,
                    "time": 29.130461,
                    "velocity": 0.36220472440944884
                },
                {
                    "duration": 0.1304349000000009,
                    "durationTicks": 72,
                    "midi": 59,
                    "name": "B3",
                    "ticks": 16080,
                    "time": 29.130461,
                    "velocity": 0.36220472440944884
                },
                {
                    "duration": 0.1304349000000009,
                    "durationTicks": 72,
                    "midi": 67,
                    "name": "G4",
                    "ticks": 16080,
                    "time": 29.130461,
                    "velocity": 0.36220472440944884
                },
                {
                    "duration": 0.11594213333333059,
                    "durationTicks": 64,
                    "midi": 64,
                    "name": "E4",
                    "ticks": 16560,
                    "time": 30.000027000000003,
                    "velocity": 0.36220472440944884
                },
                {
                    "duration": 0.11594213333333059,
                    "durationTicks": 64,
                    "midi": 61,
                    "name": "C#4",
                    "ticks": 16560,
                    "time": 30.000027000000003,
                    "velocity": 0.36220472440944884
                },
                {
                    "duration": 0.11594213333333059,
                    "durationTicks": 64,
                    "midi": 59,
                    "name": "B3",
                    "ticks": 16560,
                    "time": 30.000027000000003,
                    "velocity": 0.36220472440944884
                },
                {
                    "duration": 0.11594213333333059,
                    "durationTicks": 64,
                    "midi": 67,
                    "name": "G4",
                    "ticks": 16560,
                    "time": 30.000027000000003,
                    "velocity": 0.36220472440944884
                },
                {
                    "duration": 0.11594213333333414,
                    "durationTicks": 64,
                    "midi": 64,
                    "name": "E4",
                    "ticks": 17040,
                    "time": 30.869593000000002,
                    "velocity": 0.4251968503937008
                },
                {
                    "duration": 0.11594213333333414,
                    "durationTicks": 64,
                    "midi": 61,
                    "name": "C#4",
                    "ticks": 17040,
                    "time": 30.869593000000002,
                    "velocity": 0.4251968503937008
                },
                {
                    "duration": 0.11594213333333414,
                    "durationTicks": 64,
                    "midi": 59,
                    "name": "B3",
                    "ticks": 17040,
                    "time": 30.869593000000002,
                    "velocity": 0.4251968503937008
                },
                {
                    "duration": 0.11594213333333414,
                    "durationTicks": 64,
                    "midi": 67,
                    "name": "G4",
                    "ticks": 17040,
                    "time": 30.869593000000002,
                    "velocity": 0.4251968503937008
                },
                {
                    "duration": 1.7391320000000015,
                    "durationTicks": 960,
                    "midi": 60,
                    "name": "C4",
                    "ticks": 17280,
                    "time": 31.304376,
                    "velocity": 0.3937007874015748
                },
                {
                    "duration": 1.7391320000000015,
                    "durationTicks": 960,
                    "midi": 57,
                    "name": "A3",
                    "ticks": 17280,
                    "time": 31.304376,
                    "velocity": 0.3937007874015748
                },
                {
                    "duration": 1.7391320000000015,
                    "durationTicks": 960,
                    "midi": 54,
                    "name": "F#3",
                    "ticks": 17280,
                    "time": 31.304376,
                    "velocity": 0.3937007874015748
                },
                {
                    "duration": 1.7391320000000015,
                    "durationTicks": 960,
                    "midi": 52,
                    "name": "E3",
                    "ticks": 17280,
                    "time": 31.304376,
                    "velocity": 0.3937007874015748
                },
                {
                    "duration": 0.13768128333332896,
                    "durationTicks": 76,
                    "midi": 63,
                    "name": "D#4",
                    "ticks": 18480,
                    "time": 33.478291000000006,
                    "velocity": 0.3700787401574803
                },
                {
                    "duration": 0.13768128333332896,
                    "durationTicks": 76,
                    "midi": 59,
                    "name": "B3",
                    "ticks": 18480,
                    "time": 33.478291000000006,
                    "velocity": 0.3700787401574803
                },
                {
                    "duration": 0.13768128333332896,
                    "durationTicks": 76,
                    "midi": 57,
                    "name": "A3",
                    "ticks": 18480,
                    "time": 33.478291000000006,
                    "velocity": 0.3700787401574803
                },
                {
                    "duration": 0.13768128333332896,
                    "durationTicks": 76,
                    "midi": 66,
                    "name": "F#4",
                    "ticks": 18480,
                    "time": 33.478291000000006,
                    "velocity": 0.3700787401574803
                },
                {
                    "duration": 0.1594204333333309,
                    "durationTicks": 88,
                    "midi": 63,
                    "name": "D#4",
                    "ticks": 18888,
                    "time": 34.2174221,
                    "velocity": 0.3543307086614173
                },
                {
                    "duration": 0.1594204333333309,
                    "durationTicks": 88,
                    "midi": 59,
                    "name": "B3",
                    "ticks": 18888,
                    "time": 34.2174221,
                    "velocity": 0.3543307086614173
                },
                {
                    "duration": 0.1594204333333309,
                    "durationTicks": 88,
                    "midi": 57,
                    "name": "A3",
                    "ticks": 18888,
                    "time": 34.2174221,
                    "velocity": 0.3543307086614173
                },
                {
                    "duration": 0.1594204333333309,
                    "durationTicks": 88,
                    "midi": 66,
                    "name": "F#4",
                    "ticks": 18888,
                    "time": 34.2174221,
                    "velocity": 0.3543307086614173
                },
                {
                    "duration": 2.6050748083333346,
                    "durationTicks": 1438,
                    "midi": 71,
                    "name": "B4",
                    "ticks": 19612,
                    "time": 35.529017483333334,
                    "velocity": 0.47244094488188976
                },
                {
                    "duration": 2.6050748083333346,
                    "durationTicks": 1438,
                    "midi": 55,
                    "name": "G3",
                    "ticks": 19612,
                    "time": 35.529017483333334,
                    "velocity": 0.47244094488188976
                },
                {
                    "duration": 2.6050748083333346,
                    "durationTicks": 1438,
                    "midi": 66,
                    "name": "F#4",
                    "ticks": 19612,
                    "time": 35.529017483333334,
                    "velocity": 0.47244094488188976
                },
                {
                    "duration": 2.6050748083333346,
                    "durationTicks": 1438,
                    "midi": 62,
                    "name": "D4",
                    "ticks": 19612,
                    "time": 35.529017483333334,
                    "velocity": 0.47244094488188976
                },
                {
                    "duration": 1.739131999999998,
                    "durationTicks": 960,
                    "midi": 64,
                    "name": "E4",
                    "ticks": 21120,
                    "time": 38.260904000000004,
                    "velocity": 0.3937007874015748
                },
                {
                    "duration": 1.739131999999998,
                    "durationTicks": 960,
                    "midi": 60,
                    "name": "C4",
                    "ticks": 21120,
                    "time": 38.260904000000004,
                    "velocity": 0.3937007874015748
                },
                {
                    "duration": 1.739131999999998,
                    "durationTicks": 960,
                    "midi": 71,
                    "name": "B4",
                    "ticks": 21120,
                    "time": 38.260904000000004,
                    "velocity": 0.3937007874015748
                },
                {
                    "duration": 1.739131999999998,
                    "durationTicks": 960,
                    "midi": 55,
                    "name": "G3",
                    "ticks": 21120,
                    "time": 38.260904000000004,
                    "velocity": 0.3937007874015748
                },
                {
                    "duration": 0.9927545166666718,
                    "durationTicks": 548,
                    "midi": 71,
                    "name": "B4",
                    "ticks": 22492,
                    "time": 40.746413483333335,
                    "velocity": 0.3937007874015748
                },
                {
                    "duration": 0.9927545166666718,
                    "durationTicks": 548,
                    "midi": 54,
                    "name": "F#3",
                    "ticks": 22492,
                    "time": 40.746413483333335,
                    "velocity": 0.3937007874015748
                },
                {
                    "duration": 0.9927545166666718,
                    "durationTicks": 548,
                    "midi": 64,
                    "name": "E4",
                    "ticks": 22492,
                    "time": 40.746413483333335,
                    "velocity": 0.3937007874015748
                },
                {
                    "duration": 0.9927545166666718,
                    "durationTicks": 548,
                    "midi": 60,
                    "name": "C4",
                    "ticks": 22492,
                    "time": 40.746413483333335,
                    "velocity": 0.3937007874015748
                },
                {
                    "duration": 3.478263999999996,
                    "durationTicks": 1920,
                    "midi": 62,
                    "name": "D4",
                    "ticks": 23040,
                    "time": 41.73916800000001,
                    "velocity": 0.47244094488188976
                },
                {
                    "duration": 3.478263999999996,
                    "durationTicks": 1920,
                    "midi": 59,
                    "name": "B3",
                    "ticks": 23040,
                    "time": 41.73916800000001,
                    "velocity": 0.47244094488188976
                },
                {
                    "duration": 3.478263999999996,
                    "durationTicks": 1920,
                    "midi": 57,
                    "name": "A3",
                    "ticks": 23040,
                    "time": 41.73916800000001,
                    "velocity": 0.47244094488188976
                },
                {
                    "duration": 3.478263999999996,
                    "durationTicks": 1920,
                    "midi": 54,
                    "name": "F#3",
                    "ticks": 23040,
                    "time": 41.73916800000001,
                    "velocity": 0.47244094488188976
                },
                {
                    "duration": 0.13768128333332896,
                    "durationTicks": 76,
                    "midi": 66,
                    "name": "F#4",
                    "ticks": 25200,
                    "time": 45.652215000000005,
                    "velocity": 0.3700787401574803
                },
                {
                    "duration": 0.13768128333332896,
                    "durationTicks": 76,
                    "midi": 64,
                    "name": "E4",
                    "ticks": 25200,
                    "time": 45.652215000000005,
                    "velocity": 0.3700787401574803
                },
                {
                    "duration": 0.13768128333332896,
                    "durationTicks": 76,
                    "midi": 60,
                    "name": "C4",
                    "ticks": 25200,
                    "time": 45.652215000000005,
                    "velocity": 0.3700787401574803
                },
                {
                    "duration": 0.13768128333332896,
                    "durationTicks": 76,
                    "midi": 69,
                    "name": "A4",
                    "ticks": 25200,
                    "time": 45.652215000000005,
                    "velocity": 0.3700787401574803
                },
                {
                    "duration": 0.1594204333333309,
                    "durationTicks": 88,
                    "midi": 66,
                    "name": "F#4",
                    "ticks": 25608,
                    "time": 46.39134610000001,
                    "velocity": 0.3543307086614173
                },
                {
                    "duration": 0.1594204333333309,
                    "durationTicks": 88,
                    "midi": 64,
                    "name": "E4",
                    "ticks": 25608,
                    "time": 46.39134610000001,
                    "velocity": 0.3543307086614173
                },
                {
                    "duration": 0.1594204333333309,
                    "durationTicks": 88,
                    "midi": 60,
                    "name": "C4",
                    "ticks": 25608,
                    "time": 46.39134610000001,
                    "velocity": 0.3543307086614173
                },
                {
                    "duration": 0.1594204333333309,
                    "durationTicks": 88,
                    "midi": 69,
                    "name": "A4",
                    "ticks": 25608,
                    "time": 46.39134610000001,
                    "velocity": 0.3543307086614173
                },
                {
                    "duration": 1.739132000000005,
                    "durationTicks": 960,
                    "midi": 67,
                    "name": "G4",
                    "ticks": 25920,
                    "time": 46.956564,
                    "velocity": 0.3937007874015748
                },
                {
                    "duration": 1.739132000000005,
                    "durationTicks": 960,
                    "midi": 63,
                    "name": "D#4",
                    "ticks": 25920,
                    "time": 46.956564,
                    "velocity": 0.3937007874015748
                },
                {
                    "duration": 1.739132000000005,
                    "durationTicks": 960,
                    "midi": 72,
                    "name": "C5",
                    "ticks": 25920,
                    "time": 46.956564,
                    "velocity": 0.3937007874015748
                },
                {
                    "duration": 1.739132000000005,
                    "durationTicks": 960,
                    "midi": 57,
                    "name": "A3",
                    "ticks": 25920,
                    "time": 46.956564,
                    "velocity": 0.3937007874015748
                },
                {
                    "duration": 0.869565999999999,
                    "durationTicks": 480,
                    "midi": 62,
                    "name": "D4",
                    "ticks": 26880,
                    "time": 48.695696000000005,
                    "velocity": 0.47244094488188976
                },
                {
                    "duration": 0.869565999999999,
                    "durationTicks": 480,
                    "midi": 66,
                    "name": "F#4",
                    "ticks": 26880,
                    "time": 48.695696000000005,
                    "velocity": 0.47244094488188976
                },
                {
                    "duration": 0.869565999999999,
                    "durationTicks": 480,
                    "midi": 55,
                    "name": "G3",
                    "ticks": 26880,
                    "time": 48.695696000000005,
                    "velocity": 0.47244094488188976
                },
                {
                    "duration": 0.869565999999999,
                    "durationTicks": 480,
                    "midi": 59,
                    "name": "B3",
                    "ticks": 26880,
                    "time": 48.695696000000005,
                    "velocity": 0.47244094488188976
                },
                {
                    "duration": 0.869565999999999,
                    "durationTicks": 480,
                    "midi": 70,
                    "name": "A#4",
                    "ticks": 27360,
                    "time": 49.565262000000004,
                    "velocity": 0.3937007874015748
                },
                {
                    "duration": 0.869565999999999,
                    "durationTicks": 480,
                    "midi": 55,
                    "name": "G3",
                    "ticks": 27360,
                    "time": 49.565262000000004,
                    "velocity": 0.3937007874015748
                },
                {
                    "duration": 0.869565999999999,
                    "durationTicks": 480,
                    "midi": 65,
                    "name": "F4",
                    "ticks": 27360,
                    "time": 49.565262000000004,
                    "velocity": 0.3937007874015748
                },
                {
                    "duration": 0.869565999999999,
                    "durationTicks": 480,
                    "midi": 61,
                    "name": "C#4",
                    "ticks": 27360,
                    "time": 49.565262000000004,
                    "velocity": 0.3937007874015748
                },
                {
                    "duration": 0.869565999999999,
                    "durationTicks": 480,
                    "midi": 60,
                    "name": "C4",
                    "ticks": 27840,
                    "time": 50.434828,
                    "velocity": 0.3937007874015748
                },
                {
                    "duration": 0.869565999999999,
                    "durationTicks": 480,
                    "midi": 64,
                    "name": "E4",
                    "ticks": 27840,
                    "time": 50.434828,
                    "velocity": 0.3937007874015748
                },
                {
                    "duration": 0.869565999999999,
                    "durationTicks": 480,
                    "midi": 53,
                    "name": "F3",
                    "ticks": 27840,
                    "time": 50.434828,
                    "velocity": 0.3937007874015748
                },
                {
                    "duration": 0.869565999999999,
                    "durationTicks": 480,
                    "midi": 57,
                    "name": "A3",
                    "ticks": 27840,
                    "time": 50.434828,
                    "velocity": 0.3937007874015748
                },
                {
                    "duration": 0.869565999999999,
                    "durationTicks": 480,
                    "midi": 70,
                    "name": "A#4",
                    "ticks": 28320,
                    "time": 51.304394,
                    "velocity": 0.3937007874015748
                },
                {
                    "duration": 0.869565999999999,
                    "durationTicks": 480,
                    "midi": 53,
                    "name": "F3",
                    "ticks": 28320,
                    "time": 51.304394,
                    "velocity": 0.3937007874015748
                },
                {
                    "duration": 0.869565999999999,
                    "durationTicks": 480,
                    "midi": 63,
                    "name": "D#4",
                    "ticks": 28320,
                    "time": 51.304394,
                    "velocity": 0.3937007874015748
                },
                {
                    "duration": 0.869565999999999,
                    "durationTicks": 480,
                    "midi": 59,
                    "name": "B3",
                    "ticks": 28320,
                    "time": 51.304394,
                    "velocity": 0.3937007874015748
                },
                {
                    "duration": 1.739132000000005,
                    "durationTicks": 960,
                    "midi": 67,
                    "name": "G4",
                    "ticks": 28800,
                    "time": 52.17396,
                    "velocity": 0.3937007874015748
                },
                {
                    "duration": 1.739132000000005,
                    "durationTicks": 960,
                    "midi": 52,
                    "name": "E3",
                    "ticks": 28800,
                    "time": 52.17396,
                    "velocity": 0.3937007874015748
                },
                {
                    "duration": 1.739132000000005,
                    "durationTicks": 960,
                    "midi": 62,
                    "name": "D4",
                    "ticks": 28800,
                    "time": 52.17396,
                    "velocity": 0.3937007874015748
                },
                {
                    "duration": 1.739132000000005,
                    "durationTicks": 960,
                    "midi": 59,
                    "name": "B3",
                    "ticks": 28800,
                    "time": 52.17396,
                    "velocity": 0.3937007874015748
                },
                {
                    "duration": 0.869565999999999,
                    "durationTicks": 480,
                    "midi": 52,
                    "name": "E3",
                    "ticks": 29760,
                    "time": 53.913092000000006,
                    "velocity": 0.47244094488188976
                },
                {
                    "duration": 0.869565999999999,
                    "durationTicks": 480,
                    "midi": 54,
                    "name": "F#3",
                    "ticks": 29760,
                    "time": 53.913092000000006,
                    "velocity": 0.47244094488188976
                },
                {
                    "duration": 0.869565999999999,
                    "durationTicks": 480,
                    "midi": 57,
                    "name": "A3",
                    "ticks": 29760,
                    "time": 53.913092000000006,
                    "velocity": 0.47244094488188976
                },
                {
                    "duration": 0.869565999999999,
                    "durationTicks": 480,
                    "midi": 60,
                    "name": "C4",
                    "ticks": 29760,
                    "time": 53.913092000000006,
                    "velocity": 0.47244094488188976
                },
                {
                    "duration": 0.869565999999999,
                    "durationTicks": 480,
                    "midi": 57,
                    "name": "A3",
                    "ticks": 30240,
                    "time": 54.782658000000005,
                    "velocity": 0.4251968503937008
                },
                {
                    "duration": 0.869565999999999,
                    "durationTicks": 480,
                    "midi": 63,
                    "name": "D#4",
                    "ticks": 30240,
                    "time": 54.782658000000005,
                    "velocity": 0.23622047244094488
                },
                {
                    "duration": 0.869565999999999,
                    "durationTicks": 480,
                    "midi": 54,
                    "name": "F#3",
                    "ticks": 30240,
                    "time": 54.782658000000005,
                    "velocity": 0.28346456692913385
                },
                {
                    "duration": 0.869565999999999,
                    "durationTicks": 480,
                    "midi": 59,
                    "name": "B3",
                    "ticks": 30240,
                    "time": 54.782658000000005,
                    "velocity": 0.2755905511811024
                },
                {
                    "duration": 0.2934785249999976,
                    "durationTicks": 162,
                    "midi": 69,
                    "name": "A4",
                    "ticks": 30240,
                    "time": 54.782658000000005,
                    "velocity": 0.5433070866141733
                },
                {
                    "duration": 0.2536234166666631,
                    "durationTicks": 140,
                    "midi": 75,
                    "name": "D#5",
                    "ticks": 30240,
                    "time": 54.782658000000005,
                    "velocity": 0.47244094488188976
                },
                {
                    "duration": 0.5507251333333301,
                    "durationTicks": 304,
                    "midi": 71,
                    "name": "B4",
                    "ticks": 30416,
                    "time": 55.101498866666674,
                    "velocity": 0.47244094488188976
                },
                {
                    "duration": 0.5507251333333301,
                    "durationTicks": 304,
                    "midi": 66,
                    "name": "F#4",
                    "ticks": 30416,
                    "time": 55.101498866666674,
                    "velocity": 0.4566929133858268
                },
                {
                    "duration": 3.478264000000003,
                    "durationTicks": 1920,
                    "midi": 71,
                    "name": "B4",
                    "ticks": 30720,
                    "time": 55.652224000000004,
                    "velocity": 0.47244094488188976
                },
                {
                    "duration": 3.478264000000003,
                    "durationTicks": 1920,
                    "midi": 55,
                    "name": "G3",
                    "ticks": 30720,
                    "time": 55.652224000000004,
                    "velocity": 0.47244094488188976
                },
                {
                    "duration": 3.478264000000003,
                    "durationTicks": 1920,
                    "midi": 66,
                    "name": "F#4",
                    "ticks": 30720,
                    "time": 55.652224000000004,
                    "velocity": 0.47244094488188976
                },
                {
                    "duration": 3.478264000000003,
                    "durationTicks": 1920,
                    "midi": 62,
                    "name": "D4",
                    "ticks": 30720,
                    "time": 55.652224000000004,
                    "velocity": 0.47244094488188976
                },
                {
                    "duration": 1.739131999999998,
                    "durationTicks": 960,
                    "midi": 64,
                    "name": "E4",
                    "ticks": 32640,
                    "time": 59.13048800000001,
                    "velocity": 0.3937007874015748
                },
                {
                    "duration": 1.739131999999998,
                    "durationTicks": 960,
                    "midi": 60,
                    "name": "C4",
                    "ticks": 32640,
                    "time": 59.13048800000001,
                    "velocity": 0.3937007874015748
                },
                {
                    "duration": 1.739131999999998,
                    "durationTicks": 960,
                    "midi": 57,
                    "name": "A3",
                    "ticks": 32640,
                    "time": 59.13048800000001,
                    "velocity": 0.3937007874015748
                },
                {
                    "duration": 1.739131999999998,
                    "durationTicks": 960,
                    "midi": 55,
                    "name": "G3",
                    "ticks": 32640,
                    "time": 59.13048800000001,
                    "velocity": 0.3937007874015748
                },
                {
                    "duration": 0.13768128333332896,
                    "durationTicks": 76,
                    "midi": 66,
                    "name": "F#4",
                    "ticks": 33840,
                    "time": 61.30440300000001,
                    "velocity": 0.3700787401574803
                },
                {
                    "duration": 0.13768128333332896,
                    "durationTicks": 76,
                    "midi": 64,
                    "name": "E4",
                    "ticks": 33840,
                    "time": 61.30440300000001,
                    "velocity": 0.3700787401574803
                },
                {
                    "duration": 0.13768128333332896,
                    "durationTicks": 76,
                    "midi": 60,
                    "name": "C4",
                    "ticks": 33840,
                    "time": 61.30440300000001,
                    "velocity": 0.3700787401574803
                },
                {
                    "duration": 0.13768128333332896,
                    "durationTicks": 76,
                    "midi": 69,
                    "name": "A4",
                    "ticks": 33840,
                    "time": 61.30440300000001,
                    "velocity": 0.3700787401574803
                },
                {
                    "duration": 0.1594204333333309,
                    "durationTicks": 88,
                    "midi": 66,
                    "name": "F#4",
                    "ticks": 34248,
                    "time": 62.0435341,
                    "velocity": 0.3543307086614173
                },
                {
                    "duration": 0.1594204333333309,
                    "durationTicks": 88,
                    "midi": 64,
                    "name": "E4",
                    "ticks": 34248,
                    "time": 62.0435341,
                    "velocity": 0.3543307086614173
                },
                {
                    "duration": 0.1594204333333309,
                    "durationTicks": 88,
                    "midi": 60,
                    "name": "C4",
                    "ticks": 34248,
                    "time": 62.0435341,
                    "velocity": 0.3543307086614173
                },
                {
                    "duration": 0.1594204333333309,
                    "durationTicks": 88,
                    "midi": 69,
                    "name": "A4",
                    "ticks": 34248,
                    "time": 62.0435341,
                    "velocity": 0.3543307086614173
                },
                {
                    "duration": 1.739132000000005,
                    "durationTicks": 960,
                    "midi": 62,
                    "name": "D4",
                    "ticks": 34560,
                    "time": 62.608752,
                    "velocity": 0.3937007874015748
                },
                {
                    "duration": 1.739132000000005,
                    "durationTicks": 960,
                    "midi": 59,
                    "name": "B3",
                    "ticks": 34560,
                    "time": 62.608752,
                    "velocity": 0.3937007874015748
                },
                {
                    "duration": 1.739132000000005,
                    "durationTicks": 960,
                    "midi": 69,
                    "name": "A4",
                    "ticks": 34560,
                    "time": 62.608752,
                    "velocity": 0.3937007874015748
                },
                {
                    "duration": 1.739132000000005,
                    "durationTicks": 960,
                    "midi": 54,
                    "name": "F#3",
                    "ticks": 34560,
                    "time": 62.608752,
                    "velocity": 0.3937007874015748
                },
                {
                    "duration": 0.239130650000007,
                    "durationTicks": 132,
                    "midi": 59,
                    "name": "B3",
                    "ticks": 35760,
                    "time": 64.782667,
                    "velocity": 0.30708661417322836
                },
                {
                    "duration": 0.239130650000007,
                    "durationTicks": 132,
                    "midi": 62,
                    "name": "D4",
                    "ticks": 35760,
                    "time": 64.782667,
                    "velocity": 0.30708661417322836
                },
                {
                    "duration": 0.239130650000007,
                    "durationTicks": 132,
                    "midi": 52,
                    "name": "E3",
                    "ticks": 35760,
                    "time": 64.782667,
                    "velocity": 0.30708661417322836
                },
                {
                    "duration": 0.239130650000007,
                    "durationTicks": 132,
                    "midi": 55,
                    "name": "G3",
                    "ticks": 35760,
                    "time": 64.782667,
                    "velocity": 0.30708661417322836
                },
                {
                    "duration": 0.13043489999999736,
                    "durationTicks": 72,
                    "midi": 59,
                    "name": "B3",
                    "ticks": 35928,
                    "time": 65.0870151,
                    "velocity": 0.3228346456692913
                },
                {
                    "duration": 0.13043489999999736,
                    "durationTicks": 72,
                    "midi": 62,
                    "name": "D4",
                    "ticks": 35928,
                    "time": 65.0870151,
                    "velocity": 0.3228346456692913
                },
                {
                    "duration": 0.13043489999999736,
                    "durationTicks": 72,
                    "midi": 52,
                    "name": "E3",
                    "ticks": 35928,
                    "time": 65.0870151,
                    "velocity": 0.3228346456692913
                },
                {
                    "duration": 0.13043489999999736,
                    "durationTicks": 72,
                    "midi": 55,
                    "name": "G3",
                    "ticks": 35928,
                    "time": 65.0870151,
                    "velocity": 0.3228346456692913
                },
                {
                    "duration": 0.1992755416666796,
                    "durationTicks": 110,
                    "midi": 59,
                    "name": "B3",
                    "ticks": 36000,
                    "time": 65.21745,
                    "velocity": 0.3700787401574803
                },
                {
                    "duration": 0.1992755416666796,
                    "durationTicks": 110,
                    "midi": 62,
                    "name": "D4",
                    "ticks": 36000,
                    "time": 65.21745,
                    "velocity": 0.3700787401574803
                },
                {
                    "duration": 0.1992755416666796,
                    "durationTicks": 110,
                    "midi": 52,
                    "name": "E3",
                    "ticks": 36000,
                    "time": 65.21745,
                    "velocity": 0.3700787401574803
                },
                {
                    "duration": 0.1992755416666796,
                    "durationTicks": 110,
                    "midi": 55,
                    "name": "G3",
                    "ticks": 36000,
                    "time": 65.21745,
                    "velocity": 0.3700787401574803
                },
                {
                    "duration": 0.13043490000001157,
                    "durationTicks": 72,
                    "midi": 59,
                    "name": "B3",
                    "ticks": 36168,
                    "time": 65.5217981,
                    "velocity": 0.4409448818897638
                },
                {
                    "duration": 0.13043490000001157,
                    "durationTicks": 72,
                    "midi": 62,
                    "name": "D4",
                    "ticks": 36168,
                    "time": 65.5217981,
                    "velocity": 0.4409448818897638
                },
                {
                    "duration": 0.13043490000001157,
                    "durationTicks": 72,
                    "midi": 52,
                    "name": "E3",
                    "ticks": 36168,
                    "time": 65.5217981,
                    "velocity": 0.4409448818897638
                },
                {
                    "duration": 0.13043490000001157,
                    "durationTicks": 72,
                    "midi": 55,
                    "name": "G3",
                    "ticks": 36168,
                    "time": 65.5217981,
                    "velocity": 0.4409448818897638
                },
                {
                    "duration": 0.2137683083333286,
                    "durationTicks": 118,
                    "midi": 59,
                    "name": "B3",
                    "ticks": 36240,
                    "time": 65.65223300000001,
                    "velocity": 0.5275590551181102
                },
                {
                    "duration": 0.2137683083333286,
                    "durationTicks": 118,
                    "midi": 62,
                    "name": "D4",
                    "ticks": 36240,
                    "time": 65.65223300000001,
                    "velocity": 0.5275590551181102
                },
                {
                    "duration": 0.2137683083333286,
                    "durationTicks": 118,
                    "midi": 52,
                    "name": "E3",
                    "ticks": 36240,
                    "time": 65.65223300000001,
                    "velocity": 0.5275590551181102
                },
                {
                    "duration": 0.2137683083333286,
                    "durationTicks": 118,
                    "midi": 55,
                    "name": "G3",
                    "ticks": 36240,
                    "time": 65.65223300000001,
                    "velocity": 0.5275590551181102
                },
                {
                    "duration": 0.9927545166666647,
                    "durationTicks": 548,
                    "midi": 60,
                    "name": "C4",
                    "ticks": 36892,
                    "time": 66.83339348333334,
                    "velocity": 0.3937007874015748
                },
                {
                    "duration": 0.9927545166666647,
                    "durationTicks": 548,
                    "midi": 57,
                    "name": "A3",
                    "ticks": 36892,
                    "time": 66.83339348333334,
                    "velocity": 0.3937007874015748
                },
                {
                    "duration": 0.9927545166666647,
                    "durationTicks": 548,
                    "midi": 66,
                    "name": "F#4",
                    "ticks": 36892,
                    "time": 66.83339348333334,
                    "velocity": 0.3937007874015748
                },
                {
                    "duration": 0.9927545166666647,
                    "durationTicks": 548,
                    "midi": 52,
                    "name": "E3",
                    "ticks": 36892,
                    "time": 66.83339348333334,
                    "velocity": 0.3937007874015748
                },
                {
                    "duration": 0.13768128333333607,
                    "durationTicks": 76,
                    "midi": 63,
                    "name": "D#4",
                    "ticks": 37680,
                    "time": 68.260931,
                    "velocity": 0.3700787401574803
                },
                {
                    "duration": 0.13768128333333607,
                    "durationTicks": 76,
                    "midi": 59,
                    "name": "B3",
                    "ticks": 37680,
                    "time": 68.260931,
                    "velocity": 0.3700787401574803
                },
                {
                    "duration": 0.13768128333333607,
                    "durationTicks": 76,
                    "midi": 57,
                    "name": "A3",
                    "ticks": 37680,
                    "time": 68.260931,
                    "velocity": 0.3700787401574803
                },
                {
                    "duration": 0.13768128333333607,
                    "durationTicks": 76,
                    "midi": 66,
                    "name": "F#4",
                    "ticks": 37680,
                    "time": 68.260931,
                    "velocity": 0.3700787401574803
                },
                {
                    "duration": 0.159420433333338,
                    "durationTicks": 88,
                    "midi": 63,
                    "name": "D#4",
                    "ticks": 38088,
                    "time": 69.0000621,
                    "velocity": 0.3543307086614173
                },
                {
                    "duration": 0.159420433333338,
                    "durationTicks": 88,
                    "midi": 59,
                    "name": "B3",
                    "ticks": 38088,
                    "time": 69.0000621,
                    "velocity": 0.3543307086614173
                },
                {
                    "duration": 0.159420433333338,
                    "durationTicks": 88,
                    "midi": 57,
                    "name": "A3",
                    "ticks": 38088,
                    "time": 69.0000621,
                    "velocity": 0.3543307086614173
                },
                {
                    "duration": 0.159420433333338,
                    "durationTicks": 88,
                    "midi": 66,
                    "name": "F#4",
                    "ticks": 38088,
                    "time": 69.0000621,
                    "velocity": 0.3543307086614173
                },
                {
                    "duration": 0.9927545166666647,
                    "durationTicks": 548,
                    "midi": 71,
                    "name": "B4",
                    "ticks": 38812,
                    "time": 70.31165748333333,
                    "velocity": 0.3937007874015748
                },
                {
                    "duration": 0.9927545166666647,
                    "durationTicks": 548,
                    "midi": 55,
                    "name": "G3",
                    "ticks": 38812,
                    "time": 70.31165748333333,
                    "velocity": 0.3937007874015748
                },
                {
                    "duration": 0.9927545166666647,
                    "durationTicks": 548,
                    "midi": 64,
                    "name": "E4",
                    "ticks": 38812,
                    "time": 70.31165748333333,
                    "velocity": 0.3937007874015748
                },
                {
                    "duration": 0.9927545166666647,
                    "durationTicks": 548,
                    "midi": 62,
                    "name": "D4",
                    "ticks": 38812,
                    "time": 70.31165748333333,
                    "velocity": 0.3937007874015748
                },
                {
                    "duration": 0.8695660000000061,
                    "durationTicks": 480,
                    "midi": 62,
                    "name": "D4",
                    "ticks": 39360,
                    "time": 71.304412,
                    "velocity": 0.3937007874015748
                },
                {
                    "duration": 0.8695660000000061,
                    "durationTicks": 480,
                    "midi": 64,
                    "name": "E4",
                    "ticks": 39360,
                    "time": 71.304412,
                    "velocity": 0.3937007874015748
                },
                {
                    "duration": 0.8695660000000061,
                    "durationTicks": 480,
                    "midi": 55,
                    "name": "G3",
                    "ticks": 39360,
                    "time": 71.304412,
                    "velocity": 0.3937007874015748
                },
                {
                    "duration": 0.8695660000000061,
                    "durationTicks": 480,
                    "midi": 71,
                    "name": "B4",
                    "ticks": 39360,
                    "time": 71.304412,
                    "velocity": 0.3937007874015748
                },
                {
                    "duration": 0.8695660000000061,
                    "durationTicks": 480,
                    "midi": 59,
                    "name": "B3",
                    "ticks": 39840,
                    "time": 72.173978,
                    "velocity": 0.47244094488188976
                },
                {
                    "duration": 0.8695660000000061,
                    "durationTicks": 480,
                    "midi": 56,
                    "name": "G#3",
                    "ticks": 39840,
                    "time": 72.173978,
                    "velocity": 0.47244094488188976
                },
                {
                    "duration": 0.8695660000000061,
                    "durationTicks": 480,
                    "midi": 66,
                    "name": "F#4",
                    "ticks": 39840,
                    "time": 72.173978,
                    "velocity": 0.47244094488188976
                },
                {
                    "duration": 0.8695660000000061,
                    "durationTicks": 480,
                    "midi": 62,
                    "name": "D4",
                    "ticks": 39840,
                    "time": 72.173978,
                    "velocity": 0.47244094488188976
                },
                {
                    "duration": 0.13768128333333607,
                    "durationTicks": 76,
                    "midi": 67,
                    "name": "G4",
                    "ticks": 40560,
                    "time": 73.47832700000001,
                    "velocity": 0.3700787401574803
                },
                {
                    "duration": 0.13768128333333607,
                    "durationTicks": 76,
                    "midi": 64,
                    "name": "E4",
                    "ticks": 40560,
                    "time": 73.47832700000001,
                    "velocity": 0.3700787401574803
                },
                {
                    "duration": 0.13768128333333607,
                    "durationTicks": 76,
                    "midi": 60,
                    "name": "C4",
                    "ticks": 40560,
                    "time": 73.47832700000001,
                    "velocity": 0.3700787401574803
                },
                {
                    "duration": 0.13768128333333607,
                    "durationTicks": 76,
                    "midi": 69,
                    "name": "A4",
                    "ticks": 40560,
                    "time": 73.47832700000001,
                    "velocity": 0.3700787401574803
                },
                {
                    "duration": 0.159420433333338,
                    "durationTicks": 88,
                    "midi": 67,
                    "name": "G4",
                    "ticks": 40968,
                    "time": 74.2174581,
                    "velocity": 0.3543307086614173
                },
                {
                    "duration": 0.159420433333338,
                    "durationTicks": 88,
                    "midi": 64,
                    "name": "E4",
                    "ticks": 40968,
                    "time": 74.2174581,
                    "velocity": 0.3543307086614173
                },
                {
                    "duration": 0.159420433333338,
                    "durationTicks": 88,
                    "midi": 60,
                    "name": "C4",
                    "ticks": 40968,
                    "time": 74.2174581,
                    "velocity": 0.3543307086614173
                },
                {
                    "duration": 0.159420433333338,
                    "durationTicks": 88,
                    "midi": 69,
                    "name": "A4",
                    "ticks": 40968,
                    "time": 74.2174581,
                    "velocity": 0.3543307086614173
                },
                {
                    "duration": 1.739131999999998,
                    "durationTicks": 960,
                    "midi": 71,
                    "name": "B4",
                    "ticks": 41280,
                    "time": 74.78267600000001,
                    "velocity": 0.3937007874015748
                },
                {
                    "duration": 1.739131999999998,
                    "durationTicks": 960,
                    "midi": 54,
                    "name": "F#3",
                    "ticks": 41280,
                    "time": 74.78267600000001,
                    "velocity": 0.3937007874015748
                },
                {
                    "duration": 1.739131999999998,
                    "durationTicks": 960,
                    "midi": 64,
                    "name": "E4",
                    "ticks": 41280,
                    "time": 74.78267600000001,
                    "velocity": 0.3937007874015748
                },
                {
                    "duration": 1.739131999999998,
                    "durationTicks": 960,
                    "midi": 60,
                    "name": "C4",
                    "ticks": 41280,
                    "time": 74.78267600000001,
                    "velocity": 0.3937007874015748
                },
                {
                    "duration": 1.739131999999998,
                    "durationTicks": 960,
                    "midi": 62,
                    "name": "D4",
                    "ticks": 42240,
                    "time": 76.52180800000001,
                    "velocity": 0.3937007874015748
                },
                {
                    "duration": 1.739131999999998,
                    "durationTicks": 960,
                    "midi": 59,
                    "name": "B3",
                    "ticks": 42240,
                    "time": 76.52180800000001,
                    "velocity": 0.3937007874015748
                },
                {
                    "duration": 1.739131999999998,
                    "durationTicks": 960,
                    "midi": 57,
                    "name": "A3",
                    "ticks": 42240,
                    "time": 76.52180800000001,
                    "velocity": 0.3937007874015748
                },
                {
                    "duration": 1.739131999999998,
                    "durationTicks": 960,
                    "midi": 54,
                    "name": "F#3",
                    "ticks": 42240,
                    "time": 76.52180800000001,
                    "velocity": 0.3937007874015748
                },
                {
                    "duration": 0.239130650000007,
                    "durationTicks": 132,
                    "midi": 59,
                    "name": "B3",
                    "ticks": 43440,
                    "time": 78.695723,
                    "velocity": 0.30708661417322836
                },
                {
                    "duration": 0.239130650000007,
                    "durationTicks": 132,
                    "midi": 62,
                    "name": "D4",
                    "ticks": 43440,
                    "time": 78.695723,
                    "velocity": 0.30708661417322836
                },
                {
                    "duration": 0.239130650000007,
                    "durationTicks": 132,
                    "midi": 52,
                    "name": "E3",
                    "ticks": 43440,
                    "time": 78.695723,
                    "velocity": 0.30708661417322836
                },
                {
                    "duration": 0.239130650000007,
                    "durationTicks": 132,
                    "midi": 67,
                    "name": "G4",
                    "ticks": 43440,
                    "time": 78.695723,
                    "velocity": 0.30708661417322836
                },
                {
                    "duration": 0.13043490000001157,
                    "durationTicks": 72,
                    "midi": 59,
                    "name": "B3",
                    "ticks": 43608,
                    "time": 79.0000711,
                    "velocity": 0.3228346456692913
                },
                {
                    "duration": 0.13043490000001157,
                    "durationTicks": 72,
                    "midi": 62,
                    "name": "D4",
                    "ticks": 43608,
                    "time": 79.0000711,
                    "velocity": 0.3228346456692913
                },
                {
                    "duration": 0.13043490000001157,
                    "durationTicks": 72,
                    "midi": 52,
                    "name": "E3",
                    "ticks": 43608,
                    "time": 79.0000711,
                    "velocity": 0.3228346456692913
                },
                {
                    "duration": 0.13043490000001157,
                    "durationTicks": 72,
                    "midi": 67,
                    "name": "G4",
                    "ticks": 43608,
                    "time": 79.0000711,
                    "velocity": 0.3228346456692913
                },
                {
                    "duration": 0.1992755416666654,
                    "durationTicks": 110,
                    "midi": 59,
                    "name": "B3",
                    "ticks": 43680,
                    "time": 79.13050600000001,
                    "velocity": 0.3700787401574803
                },
                {
                    "duration": 0.1992755416666654,
                    "durationTicks": 110,
                    "midi": 62,
                    "name": "D4",
                    "ticks": 43680,
                    "time": 79.13050600000001,
                    "velocity": 0.3700787401574803
                },
                {
                    "duration": 0.1992755416666654,
                    "durationTicks": 110,
                    "midi": 52,
                    "name": "E3",
                    "ticks": 43680,
                    "time": 79.13050600000001,
                    "velocity": 0.3700787401574803
                },
                {
                    "duration": 0.1992755416666654,
                    "durationTicks": 110,
                    "midi": 67,
                    "name": "G4",
                    "ticks": 43680,
                    "time": 79.13050600000001,
                    "velocity": 0.3700787401574803
                },
                {
                    "duration": 0.13043490000001157,
                    "durationTicks": 72,
                    "midi": 59,
                    "name": "B3",
                    "ticks": 43848,
                    "time": 79.4348541,
                    "velocity": 0.4409448818897638
                },
                {
                    "duration": 0.13043490000001157,
                    "durationTicks": 72,
                    "midi": 62,
                    "name": "D4",
                    "ticks": 43848,
                    "time": 79.4348541,
                    "velocity": 0.4409448818897638
                },
                {
                    "duration": 0.13043490000001157,
                    "durationTicks": 72,
                    "midi": 52,
                    "name": "E3",
                    "ticks": 43848,
                    "time": 79.4348541,
                    "velocity": 0.4409448818897638
                },
                {
                    "duration": 0.13043490000001157,
                    "durationTicks": 72,
                    "midi": 67,
                    "name": "G4",
                    "ticks": 43848,
                    "time": 79.4348541,
                    "velocity": 0.4409448818897638
                },
                {
                    "duration": 0.2137683083333286,
                    "durationTicks": 118,
                    "midi": 59,
                    "name": "B3",
                    "ticks": 43920,
                    "time": 79.565289,
                    "velocity": 0.5275590551181102
                },
                {
                    "duration": 0.2137683083333286,
                    "durationTicks": 118,
                    "midi": 62,
                    "name": "D4",
                    "ticks": 43920,
                    "time": 79.565289,
                    "velocity": 0.5275590551181102
                },
                {
                    "duration": 0.2137683083333286,
                    "durationTicks": 118,
                    "midi": 52,
                    "name": "E3",
                    "ticks": 43920,
                    "time": 79.565289,
                    "velocity": 0.5275590551181102
                },
                {
                    "duration": 0.2137683083333286,
                    "durationTicks": 118,
                    "midi": 67,
                    "name": "G4",
                    "ticks": 43920,
                    "time": 79.565289,
                    "velocity": 0.5275590551181102
                },
                {
                    "duration": 1.739131999999998,
                    "durationTicks": 960,
                    "midi": 60,
                    "name": "C4",
                    "ticks": 44160,
                    "time": 80.000072,
                    "velocity": 0.3937007874015748
                },
                {
                    "duration": 1.739131999999998,
                    "durationTicks": 960,
                    "midi": 57,
                    "name": "A3",
                    "ticks": 44160,
                    "time": 80.000072,
                    "velocity": 0.3937007874015748
                },
                {
                    "duration": 1.739131999999998,
                    "durationTicks": 960,
                    "midi": 66,
                    "name": "F#4",
                    "ticks": 44160,
                    "time": 80.000072,
                    "velocity": 0.3937007874015748
                },
                {
                    "duration": 1.739131999999998,
                    "durationTicks": 960,
                    "midi": 52,
                    "name": "E3",
                    "ticks": 44160,
                    "time": 80.000072,
                    "velocity": 0.3937007874015748
                },
                {
                    "duration": 0.13768128333332186,
                    "durationTicks": 76,
                    "midi": 63,
                    "name": "D#4",
                    "ticks": 45360,
                    "time": 82.17398700000001,
                    "velocity": 0.3700787401574803
                },
                {
                    "duration": 0.13768128333332186,
                    "durationTicks": 76,
                    "midi": 59,
                    "name": "B3",
                    "ticks": 45360,
                    "time": 82.17398700000001,
                    "velocity": 0.3700787401574803
                },
                {
                    "duration": 0.13768128333332186,
                    "durationTicks": 76,
                    "midi": 57,
                    "name": "A3",
                    "ticks": 45360,
                    "time": 82.17398700000001,
                    "velocity": 0.3700787401574803
                },
                {
                    "duration": 0.13768128333332186,
                    "durationTicks": 76,
                    "midi": 66,
                    "name": "F#4",
                    "ticks": 45360,
                    "time": 82.17398700000001,
                    "velocity": 0.3700787401574803
                },
                {
                    "duration": 0.159420433333338,
                    "durationTicks": 88,
                    "midi": 63,
                    "name": "D#4",
                    "ticks": 45768,
                    "time": 82.9131181,
                    "velocity": 0.3543307086614173
                },
                {
                    "duration": 0.159420433333338,
                    "durationTicks": 88,
                    "midi": 59,
                    "name": "B3",
                    "ticks": 45768,
                    "time": 82.9131181,
                    "velocity": 0.3543307086614173
                },
                {
                    "duration": 0.159420433333338,
                    "durationTicks": 88,
                    "midi": 57,
                    "name": "A3",
                    "ticks": 45768,
                    "time": 82.9131181,
                    "velocity": 0.3543307086614173
                },
                {
                    "duration": 0.159420433333338,
                    "durationTicks": 88,
                    "midi": 66,
                    "name": "F#4",
                    "ticks": 45768,
                    "time": 82.9131181,
                    "velocity": 0.3543307086614173
                },
                {
                    "duration": 2.6050748083333275,
                    "durationTicks": 1438,
                    "midi": 59,
                    "name": "B3",
                    "ticks": 46492,
                    "time": 84.22471348333335,
                    "velocity": 0.47244094488188976
                },
                {
                    "duration": 2.6050748083333275,
                    "durationTicks": 1438,
                    "midi": 55,
                    "name": "G3",
                    "ticks": 46492,
                    "time": 84.22471348333335,
                    "velocity": 0.47244094488188976
                },
                {
                    "duration": 2.6050748083333275,
                    "durationTicks": 1438,
                    "midi": 64,
                    "name": "E4",
                    "ticks": 46492,
                    "time": 84.22471348333335,
                    "velocity": 0.47244094488188976
                },
                {
                    "duration": 2.6050748083333275,
                    "durationTicks": 1438,
                    "midi": 61,
                    "name": "C#4",
                    "ticks": 46492,
                    "time": 84.22471348333335,
                    "velocity": 0.47244094488188976
                },
                {
                    "duration": 1.739131999999998,
                    "durationTicks": 960,
                    "midi": 72,
                    "name": "C5",
                    "ticks": 48000,
                    "time": 86.95660000000001,
                    "velocity": 0.3937007874015748
                },
                {
                    "duration": 1.739131999999998,
                    "durationTicks": 960,
                    "midi": 57,
                    "name": "A3",
                    "ticks": 48000,
                    "time": 86.95660000000001,
                    "velocity": 0.3937007874015748
                },
                {
                    "duration": 1.739131999999998,
                    "durationTicks": 960,
                    "midi": 66,
                    "name": "F#4",
                    "ticks": 48000,
                    "time": 86.95660000000001,
                    "velocity": 0.3937007874015748
                },
                {
                    "duration": 1.739131999999998,
                    "durationTicks": 960,
                    "midi": 64,
                    "name": "E4",
                    "ticks": 48000,
                    "time": 86.95660000000001,
                    "velocity": 0.3937007874015748
                },
                {
                    "duration": 1.739131999999998,
                    "durationTicks": 960,
                    "midi": 66,
                    "name": "F#4",
                    "ticks": 48960,
                    "time": 88.695732,
                    "velocity": 0.3937007874015748
                },
                {
                    "duration": 1.739131999999998,
                    "durationTicks": 960,
                    "midi": 63,
                    "name": "D#4",
                    "ticks": 48960,
                    "time": 88.695732,
                    "velocity": 0.3937007874015748
                },
                {
                    "duration": 1.739131999999998,
                    "durationTicks": 960,
                    "midi": 60,
                    "name": "C4",
                    "ticks": 48960,
                    "time": 88.695732,
                    "velocity": 0.3937007874015748
                },
                {
                    "duration": 1.739131999999998,
                    "durationTicks": 960,
                    "midi": 57,
                    "name": "A3",
                    "ticks": 48960,
                    "time": 88.695732,
                    "velocity": 0.3937007874015748
                },
                {
                    "duration": 3.478263999999996,
                    "durationTicks": 1920,
                    "midi": 59,
                    "name": "B3",
                    "ticks": 49920,
                    "time": 90.434864,
                    "velocity": 0.47244094488188976
                },
                {
                    "duration": 3.478263999999996,
                    "durationTicks": 1920,
                    "midi": 55,
                    "name": "G3",
                    "ticks": 49920,
                    "time": 90.434864,
                    "velocity": 0.47244094488188976
                },
                {
                    "duration": 3.478263999999996,
                    "durationTicks": 1920,
                    "midi": 64,
                    "name": "E4",
                    "ticks": 49920,
                    "time": 90.434864,
                    "velocity": 0.47244094488188976
                },
                {
                    "duration": 3.478263999999996,
                    "durationTicks": 1920,
                    "midi": 62,
                    "name": "D4",
                    "ticks": 49920,
                    "time": 90.434864,
                    "velocity": 0.47244094488188976
                },
                {
                    "duration": 0.13768128333332186,
                    "durationTicks": 76,
                    "midi": 67,
                    "name": "G4",
                    "ticks": 52080,
                    "time": 94.34791100000001,
                    "velocity": 0.3700787401574803
                },
                {
                    "duration": 0.13768128333332186,
                    "durationTicks": 76,
                    "midi": 64,
                    "name": "E4",
                    "ticks": 52080,
                    "time": 94.34791100000001,
                    "velocity": 0.3700787401574803
                },
                {
                    "duration": 0.13768128333332186,
                    "durationTicks": 76,
                    "midi": 60,
                    "name": "C4",
                    "ticks": 52080,
                    "time": 94.34791100000001,
                    "velocity": 0.3700787401574803
                },
                {
                    "duration": 0.13768128333332186,
                    "durationTicks": 76,
                    "midi": 69,
                    "name": "A4",
                    "ticks": 52080,
                    "time": 94.34791100000001,
                    "velocity": 0.3700787401574803
                },
                {
                    "duration": 0.159420433333338,
                    "durationTicks": 88,
                    "midi": 67,
                    "name": "G4",
                    "ticks": 52488,
                    "time": 95.0870421,
                    "velocity": 0.3543307086614173
                },
                {
                    "duration": 0.159420433333338,
                    "durationTicks": 88,
                    "midi": 64,
                    "name": "E4",
                    "ticks": 52488,
                    "time": 95.0870421,
                    "velocity": 0.3543307086614173
                },
                {
                    "duration": 0.159420433333338,
                    "durationTicks": 88,
                    "midi": 60,
                    "name": "C4",
                    "ticks": 52488,
                    "time": 95.0870421,
                    "velocity": 0.3543307086614173
                },
                {
                    "duration": 0.159420433333338,
                    "durationTicks": 88,
                    "midi": 69,
                    "name": "A4",
                    "ticks": 52488,
                    "time": 95.0870421,
                    "velocity": 0.3543307086614173
                },
                {
                    "duration": 0.13768128333333607,
                    "durationTicks": 76,
                    "midi": 66,
                    "name": "F#4",
                    "ticks": 53040,
                    "time": 96.08704300000001,
                    "velocity": 0.3700787401574803
                },
                {
                    "duration": 0.13768128333333607,
                    "durationTicks": 76,
                    "midi": 64,
                    "name": "E4",
                    "ticks": 53040,
                    "time": 96.08704300000001,
                    "velocity": 0.3700787401574803
                },
                {
                    "duration": 0.13768128333333607,
                    "durationTicks": 76,
                    "midi": 60,
                    "name": "C4",
                    "ticks": 53040,
                    "time": 96.08704300000001,
                    "velocity": 0.3700787401574803
                },
                {
                    "duration": 0.13768128333333607,
                    "durationTicks": 76,
                    "midi": 71,
                    "name": "B4",
                    "ticks": 53040,
                    "time": 96.08704300000001,
                    "velocity": 0.3700787401574803
                },
                {
                    "duration": 0.159420433333338,
                    "durationTicks": 88,
                    "midi": 66,
                    "name": "F#4",
                    "ticks": 53448,
                    "time": 96.8261741,
                    "velocity": 0.3543307086614173
                },
                {
                    "duration": 0.159420433333338,
                    "durationTicks": 88,
                    "midi": 64,
                    "name": "E4",
                    "ticks": 53448,
                    "time": 96.8261741,
                    "velocity": 0.3543307086614173
                },
                {
                    "duration": 0.159420433333338,
                    "durationTicks": 88,
                    "midi": 60,
                    "name": "C4",
                    "ticks": 53448,
                    "time": 96.8261741,
                    "velocity": 0.3543307086614173
                },
                {
                    "duration": 0.159420433333338,
                    "durationTicks": 88,
                    "midi": 71,
                    "name": "B4",
                    "ticks": 53448,
                    "time": 96.8261741,
                    "velocity": 0.3543307086614173
                },
                {
                    "duration": 3.478263999999996,
                    "durationTicks": 1920,
                    "midi": 62,
                    "name": "D4",
                    "ticks": 53760,
                    "time": 97.39139200000001,
                    "velocity": 0.47244094488188976
                },
                {
                    "duration": 3.478263999999996,
                    "durationTicks": 1920,
                    "midi": 59,
                    "name": "B3",
                    "ticks": 53760,
                    "time": 97.39139200000001,
                    "velocity": 0.47244094488188976
                },
                {
                    "duration": 3.478263999999996,
                    "durationTicks": 1920,
                    "midi": 69,
                    "name": "A4",
                    "ticks": 53760,
                    "time": 97.39139200000001,
                    "velocity": 0.47244094488188976
                },
                {
                    "duration": 3.478263999999996,
                    "durationTicks": 1920,
                    "midi": 54,
                    "name": "F#3",
                    "ticks": 53760,
                    "time": 97.39139200000001,
                    "velocity": 0.47244094488188976
                },
                {
                    "duration": 1.739131999999998,
                    "durationTicks": 960,
                    "midi": 60,
                    "name": "C4",
                    "ticks": 55680,
                    "time": 100.869656,
                    "velocity": 0.3937007874015748
                },
                {
                    "duration": 1.739131999999998,
                    "durationTicks": 960,
                    "midi": 57,
                    "name": "A3",
                    "ticks": 55680,
                    "time": 100.869656,
                    "velocity": 0.3937007874015748
                },
                {
                    "duration": 1.739131999999998,
                    "durationTicks": 960,
                    "midi": 66,
                    "name": "F#4",
                    "ticks": 55680,
                    "time": 100.869656,
                    "velocity": 0.3937007874015748
                },
                {
                    "duration": 1.739131999999998,
                    "durationTicks": 960,
                    "midi": 52,
                    "name": "E3",
                    "ticks": 55680,
                    "time": 100.869656,
                    "velocity": 0.3937007874015748
                },
                {
                    "duration": 1.739131999999998,
                    "durationTicks": 960,
                    "midi": 66,
                    "name": "F#4",
                    "ticks": 56640,
                    "time": 102.608788,
                    "velocity": 0.3937007874015748
                },
                {
                    "duration": 1.739131999999998,
                    "durationTicks": 960,
                    "midi": 63,
                    "name": "D#4",
                    "ticks": 56640,
                    "time": 102.608788,
                    "velocity": 0.3937007874015748
                },
                {
                    "duration": 1.739131999999998,
                    "durationTicks": 960,
                    "midi": 74,
                    "name": "D5",
                    "ticks": 56640,
                    "time": 102.608788,
                    "velocity": 0.3937007874015748
                },
                {
                    "duration": 1.739131999999998,
                    "durationTicks": 960,
                    "midi": 57,
                    "name": "A3",
                    "ticks": 56640,
                    "time": 102.608788,
                    "velocity": 0.3937007874015748
                },
                {
                    "duration": 0.8695660000000061,
                    "durationTicks": 480,
                    "midi": 62,
                    "name": "D4",
                    "ticks": 57600,
                    "time": 104.34792,
                    "velocity": 0.3937007874015748
                },
                {
                    "duration": 0.8695660000000061,
                    "durationTicks": 480,
                    "midi": 66,
                    "name": "F#4",
                    "ticks": 57600,
                    "time": 104.34792,
                    "velocity": 0.3937007874015748
                },
                {
                    "duration": 0.8695660000000061,
                    "durationTicks": 480,
                    "midi": 55,
                    "name": "G3",
                    "ticks": 57600,
                    "time": 104.34792,
                    "velocity": 0.3937007874015748
                },
                {
                    "duration": 0.8695660000000061,
                    "durationTicks": 480,
                    "midi": 59,
                    "name": "B3",
                    "ticks": 57600,
                    "time": 104.34792,
                    "velocity": 0.3937007874015748
                },
                {
                    "duration": 0.8695660000000061,
                    "durationTicks": 480,
                    "midi": 70,
                    "name": "A#4",
                    "ticks": 58080,
                    "time": 105.21748600000001,
                    "velocity": 0.3937007874015748
                },
                {
                    "duration": 0.8695660000000061,
                    "durationTicks": 480,
                    "midi": 55,
                    "name": "G3",
                    "ticks": 58080,
                    "time": 105.21748600000001,
                    "velocity": 0.3937007874015748
                },
                {
                    "duration": 0.8695660000000061,
                    "durationTicks": 480,
                    "midi": 65,
                    "name": "F4",
                    "ticks": 58080,
                    "time": 105.21748600000001,
                    "velocity": 0.3937007874015748
                },
                {
                    "duration": 0.8695660000000061,
                    "durationTicks": 480,
                    "midi": 61,
                    "name": "C#4",
                    "ticks": 58080,
                    "time": 105.21748600000001,
                    "velocity": 0.3937007874015748
                },
                {
                    "duration": 0.8695659999999918,
                    "durationTicks": 480,
                    "midi": 60,
                    "name": "C4",
                    "ticks": 58560,
                    "time": 106.08705200000001,
                    "velocity": 0.3937007874015748
                },
                {
                    "duration": 0.8695659999999918,
                    "durationTicks": 480,
                    "midi": 62,
                    "name": "D4",
                    "ticks": 58560,
                    "time": 106.08705200000001,
                    "velocity": 0.3937007874015748
                },
                {
                    "duration": 0.8695659999999918,
                    "durationTicks": 480,
                    "midi": 53,
                    "name": "F3",
                    "ticks": 58560,
                    "time": 106.08705200000001,
                    "velocity": 0.3937007874015748
                },
                {
                    "duration": 0.8695659999999918,
                    "durationTicks": 480,
                    "midi": 69,
                    "name": "A4",
                    "ticks": 58560,
                    "time": 106.08705200000001,
                    "velocity": 0.3937007874015748
                },
                {
                    "duration": 0.8695660000000061,
                    "durationTicks": 480,
                    "midi": 59,
                    "name": "B3",
                    "ticks": 59040,
                    "time": 106.956618,
                    "velocity": 0.4251968503937008
                },
                {
                    "duration": 0.8695660000000061,
                    "durationTicks": 480,
                    "midi": 65,
                    "name": "F4",
                    "ticks": 59040,
                    "time": 106.956618,
                    "velocity": 0.23622047244094488
                },
                {
                    "duration": 0.8695660000000061,
                    "durationTicks": 480,
                    "midi": 56,
                    "name": "G#3",
                    "ticks": 59040,
                    "time": 106.956618,
                    "velocity": 0.28346456692913385
                },
                {
                    "duration": 0.8695660000000061,
                    "durationTicks": 480,
                    "midi": 63,
                    "name": "D#4",
                    "ticks": 59040,
                    "time": 106.956618,
                    "velocity": 0.2755905511811024
                },
                {
                    "duration": 0.2934785250000118,
                    "durationTicks": 162,
                    "midi": 71,
                    "name": "B4",
                    "ticks": 59040,
                    "time": 106.956618,
                    "velocity": 0.5433070866141733
                },
                {
                    "duration": 0.2536234166666702,
                    "durationTicks": 140,
                    "midi": 77,
                    "name": "F5",
                    "ticks": 59040,
                    "time": 106.956618,
                    "velocity": 0.47244094488188976
                },
                {
                    "duration": 0.5507251333333443,
                    "durationTicks": 304,
                    "midi": 75,
                    "name": "D#5",
                    "ticks": 59216,
                    "time": 107.27545886666667,
                    "velocity": 0.47244094488188976
                },
                {
                    "duration": 0.5507251333333443,
                    "durationTicks": 304,
                    "midi": 68,
                    "name": "G#4",
                    "ticks": 59216,
                    "time": 107.27545886666667,
                    "velocity": 0.4566929133858268
                },
                {
                    "duration": 0.13768128333333607,
                    "durationTicks": 76,
                    "midi": 64,
                    "name": "E4",
                    "ticks": 59760,
                    "time": 108.26096700000001,
                    "velocity": 0.3700787401574803
                },
                {
                    "duration": 0.13768128333333607,
                    "durationTicks": 76,
                    "midi": 62,
                    "name": "D4",
                    "ticks": 59760,
                    "time": 108.26096700000001,
                    "velocity": 0.3700787401574803
                },
                {
                    "duration": 0.13768128333333607,
                    "durationTicks": 76,
                    "midi": 59,
                    "name": "B3",
                    "ticks": 59760,
                    "time": 108.26096700000001,
                    "velocity": 0.3700787401574803
                },
                {
                    "duration": 0.13768128333333607,
                    "durationTicks": 76,
                    "midi": 67,
                    "name": "G4",
                    "ticks": 59760,
                    "time": 108.26096700000001,
                    "velocity": 0.3700787401574803
                },
                {
                    "duration": 0.159420433333338,
                    "durationTicks": 88,
                    "midi": 64,
                    "name": "E4",
                    "ticks": 60168,
                    "time": 109.0000981,
                    "velocity": 0.3543307086614173
                },
                {
                    "duration": 0.159420433333338,
                    "durationTicks": 88,
                    "midi": 62,
                    "name": "D4",
                    "ticks": 60168,
                    "time": 109.0000981,
                    "velocity": 0.3543307086614173
                },
                {
                    "duration": 0.159420433333338,
                    "durationTicks": 88,
                    "midi": 59,
                    "name": "B3",
                    "ticks": 60168,
                    "time": 109.0000981,
                    "velocity": 0.3543307086614173
                },
                {
                    "duration": 0.159420433333338,
                    "durationTicks": 88,
                    "midi": 67,
                    "name": "G4",
                    "ticks": 60168,
                    "time": 109.0000981,
                    "velocity": 0.3543307086614173
                },
                {
                    "duration": 0.8695659999999918,
                    "durationTicks": 480,
                    "midi": 52,
                    "name": "E3",
                    "ticks": 60480,
                    "time": 109.56531600000001,
                    "velocity": 0.3937007874015748
                },
                {
                    "duration": 0.8695659999999918,
                    "durationTicks": 480,
                    "midi": 66,
                    "name": "F#4",
                    "ticks": 60480,
                    "time": 109.56531600000001,
                    "velocity": 0.3937007874015748
                },
                {
                    "duration": 0.8695659999999918,
                    "durationTicks": 480,
                    "midi": 57,
                    "name": "A3",
                    "ticks": 60480,
                    "time": 109.56531600000001,
                    "velocity": 0.3937007874015748
                },
                {
                    "duration": 0.8695659999999918,
                    "durationTicks": 480,
                    "midi": 60,
                    "name": "C4",
                    "ticks": 60480,
                    "time": 109.56531600000001,
                    "velocity": 0.3937007874015748
                },
                {
                    "duration": 0.8695660000000061,
                    "durationTicks": 480,
                    "midi": 67,
                    "name": "G4",
                    "ticks": 60960,
                    "time": 110.434882,
                    "velocity": 0.47244094488188976
                },
                {
                    "duration": 0.8695660000000061,
                    "durationTicks": 480,
                    "midi": 63,
                    "name": "D#4",
                    "ticks": 60960,
                    "time": 110.434882,
                    "velocity": 0.47244094488188976
                },
                {
                    "duration": 0.8695660000000061,
                    "durationTicks": 480,
                    "midi": 72,
                    "name": "C5",
                    "ticks": 60960,
                    "time": 110.434882,
                    "velocity": 0.47244094488188976
                },
                {
                    "duration": 0.8695660000000061,
                    "durationTicks": 480,
                    "midi": 57,
                    "name": "A3",
                    "ticks": 60960,
                    "time": 110.434882,
                    "velocity": 0.47244094488188976
                },
                {
                    "duration": 3.478263999999996,
                    "durationTicks": 1920,
                    "midi": 59,
                    "name": "B3",
                    "ticks": 61440,
                    "time": 111.30444800000001,
                    "velocity": 0.47244094488188976
                },
                {
                    "duration": 3.478263999999996,
                    "durationTicks": 1920,
                    "midi": 55,
                    "name": "G3",
                    "ticks": 61440,
                    "time": 111.30444800000001,
                    "velocity": 0.47244094488188976
                },
                {
                    "duration": 3.478263999999996,
                    "durationTicks": 1920,
                    "midi": 64,
                    "name": "E4",
                    "ticks": 61440,
                    "time": 111.30444800000001,
                    "velocity": 0.47244094488188976
                },
                {
                    "duration": 3.478263999999996,
                    "durationTicks": 1920,
                    "midi": 62,
                    "name": "D4",
                    "ticks": 61440,
                    "time": 111.30444800000001,
                    "velocity": 0.47244094488188976
                },
                {
                    "duration": 0.094202983333318,
                    "durationTicks": 52,
                    "midi": 67,
                    "name": "G4",
                    "ticks": 63536,
                    "time": 115.10155286666668,
                    "velocity": 0.3543307086614173
                },
                {
                    "duration": 0.094202983333318,
                    "durationTicks": 52,
                    "midi": 64,
                    "name": "E4",
                    "ticks": 63536,
                    "time": 115.10155286666668,
                    "velocity": 0.3543307086614173
                },
                {
                    "duration": 0.094202983333318,
                    "durationTicks": 52,
                    "midi": 60,
                    "name": "C4",
                    "ticks": 63536,
                    "time": 115.10155286666668,
                    "velocity": 0.3543307086614173
                },
                {
                    "duration": 0.094202983333318,
                    "durationTicks": 52,
                    "midi": 69,
                    "name": "A4",
                    "ticks": 63536,
                    "time": 115.10155286666668,
                    "velocity": 0.3543307086614173
                },
                {
                    "duration": 0.811594933333339,
                    "durationTicks": 448,
                    "midi": 67,
                    "name": "G4",
                    "ticks": 63854,
                    "time": 115.67764034166667,
                    "velocity": 0.4330708661417323
                },
                {
                    "duration": 0.811594933333339,
                    "durationTicks": 448,
                    "midi": 64,
                    "name": "E4",
                    "ticks": 63854,
                    "time": 115.67764034166667,
                    "velocity": 0.4330708661417323
                },
                {
                    "duration": 0.811594933333339,
                    "durationTicks": 448,
                    "midi": 60,
                    "name": "C4",
                    "ticks": 63854,
                    "time": 115.67764034166667,
                    "velocity": 0.4330708661417323
                },
                {
                    "duration": 0.811594933333339,
                    "durationTicks": 448,
                    "midi": 69,
                    "name": "A4",
                    "ticks": 63854,
                    "time": 115.67764034166667,
                    "velocity": 0.4330708661417323
                },
                {
                    "duration": 0.13768128333332186,
                    "durationTicks": 76,
                    "midi": 66,
                    "name": "F#4",
                    "ticks": 64560,
                    "time": 116.95662700000001,
                    "velocity": 0.36220472440944884
                },
                {
                    "duration": 0.13768128333332186,
                    "durationTicks": 76,
                    "midi": 64,
                    "name": "E4",
                    "ticks": 64560,
                    "time": 116.95662700000001,
                    "velocity": 0.36220472440944884
                },
                {
                    "duration": 0.13768128333332186,
                    "durationTicks": 76,
                    "midi": 60,
                    "name": "C4",
                    "ticks": 64560,
                    "time": 116.95662700000001,
                    "velocity": 0.36220472440944884
                },
                {
                    "duration": 0.13768128333332186,
                    "durationTicks": 76,
                    "midi": 69,
                    "name": "A4",
                    "ticks": 64560,
                    "time": 116.95662700000001,
                    "velocity": 0.36220472440944884
                },
                {
                    "duration": 0.159420433333338,
                    "durationTicks": 88,
                    "midi": 66,
                    "name": "F#4",
                    "ticks": 65040,
                    "time": 117.826193,
                    "velocity": 0.3858267716535433
                },
                {
                    "duration": 0.159420433333338,
                    "durationTicks": 88,
                    "midi": 64,
                    "name": "E4",
                    "ticks": 65040,
                    "time": 117.826193,
                    "velocity": 0.3858267716535433
                },
                {
                    "duration": 0.159420433333338,
                    "durationTicks": 88,
                    "midi": 60,
                    "name": "C4",
                    "ticks": 65040,
                    "time": 117.826193,
                    "velocity": 0.3858267716535433
                },
                {
                    "duration": 0.159420433333338,
                    "durationTicks": 88,
                    "midi": 69,
                    "name": "A4",
                    "ticks": 65040,
                    "time": 117.826193,
                    "velocity": 0.3858267716535433
                },
                {
                    "duration": 0.14855085833332282,
                    "durationTicks": 82,
                    "midi": 66,
                    "name": "F#4",
                    "ticks": 65442,
                    "time": 118.55445452500001,
                    "velocity": 0.3937007874015748
                },
                {
                    "duration": 0.14855085833332282,
                    "durationTicks": 82,
                    "midi": 62,
                    "name": "D4",
                    "ticks": 65442,
                    "time": 118.55445452500001,
                    "velocity": 0.3937007874015748
                },
                {
                    "duration": 0.14855085833332282,
                    "durationTicks": 82,
                    "midi": 59,
                    "name": "B3",
                    "ticks": 65442,
                    "time": 118.55445452500001,
                    "velocity": 0.3937007874015748
                },
                {
                    "duration": 0.14855085833332282,
                    "durationTicks": 82,
                    "midi": 69,
                    "name": "A4",
                    "ticks": 65442,
                    "time": 118.55445452500001,
                    "velocity": 0.3937007874015748
                },
                {
                    "duration": 0.14492766666666057,
                    "durationTicks": 80,
                    "midi": 66,
                    "name": "F#4",
                    "ticks": 65938,
                    "time": 119.45300605833334,
                    "velocity": 0.3858267716535433
                },
                {
                    "duration": 0.14492766666666057,
                    "durationTicks": 80,
                    "midi": 62,
                    "name": "D4",
                    "ticks": 65938,
                    "time": 119.45300605833334,
                    "velocity": 0.3858267716535433
                },
                {
                    "duration": 0.14492766666666057,
                    "durationTicks": 80,
                    "midi": 59,
                    "name": "B3",
                    "ticks": 65938,
                    "time": 119.45300605833334,
                    "velocity": 0.3858267716535433
                },
                {
                    "duration": 0.14492766666666057,
                    "durationTicks": 80,
                    "midi": 69,
                    "name": "A4",
                    "ticks": 65938,
                    "time": 119.45300605833334,
                    "velocity": 0.3858267716535433
                },
                {
                    "duration": 0.13768128333333607,
                    "durationTicks": 76,
                    "midi": 64,
                    "name": "E4",
                    "ticks": 66480,
                    "time": 120.43489100000001,
                    "velocity": 0.3700787401574803
                },
                {
                    "duration": 0.13768128333333607,
                    "durationTicks": 76,
                    "midi": 62,
                    "name": "D4",
                    "ticks": 66480,
                    "time": 120.43489100000001,
                    "velocity": 0.3700787401574803
                },
                {
                    "duration": 0.13768128333333607,
                    "durationTicks": 76,
                    "midi": 59,
                    "name": "B3",
                    "ticks": 66480,
                    "time": 120.43489100000001,
                    "velocity": 0.3700787401574803
                },
                {
                    "duration": 0.13768128333333607,
                    "durationTicks": 76,
                    "midi": 67,
                    "name": "G4",
                    "ticks": 66480,
                    "time": 120.43489100000001,
                    "velocity": 0.3700787401574803
                },
                {
                    "duration": 0.159420433333338,
                    "durationTicks": 88,
                    "midi": 64,
                    "name": "E4",
                    "ticks": 66888,
                    "time": 121.1740221,
                    "velocity": 0.3543307086614173
                },
                {
                    "duration": 0.159420433333338,
                    "durationTicks": 88,
                    "midi": 62,
                    "name": "D4",
                    "ticks": 66888,
                    "time": 121.1740221,
                    "velocity": 0.3543307086614173
                },
                {
                    "duration": 0.159420433333338,
                    "durationTicks": 88,
                    "midi": 59,
                    "name": "B3",
                    "ticks": 66888,
                    "time": 121.1740221,
                    "velocity": 0.3543307086614173
                },
                {
                    "duration": 0.159420433333338,
                    "durationTicks": 88,
                    "midi": 67,
                    "name": "G4",
                    "ticks": 66888,
                    "time": 121.1740221,
                    "velocity": 0.3543307086614173
                },
                {
                    "duration": 0.14855085833332282,
                    "durationTicks": 82,
                    "midi": 66,
                    "name": "F#4",
                    "ticks": 67362,
                    "time": 122.032718525,
                    "velocity": 0.3937007874015748
                },
                {
                    "duration": 0.14855085833332282,
                    "durationTicks": 82,
                    "midi": 64,
                    "name": "E4",
                    "ticks": 67362,
                    "time": 122.032718525,
                    "velocity": 0.3937007874015748
                },
                {
                    "duration": 0.14855085833332282,
                    "durationTicks": 82,
                    "midi": 60,
                    "name": "C4",
                    "ticks": 67362,
                    "time": 122.032718525,
                    "velocity": 0.3937007874015748
                },
                {
                    "duration": 0.14855085833332282,
                    "durationTicks": 82,
                    "midi": 69,
                    "name": "A4",
                    "ticks": 67362,
                    "time": 122.032718525,
                    "velocity": 0.3937007874015748
                },
                {
                    "duration": 0.14492766666666057,
                    "durationTicks": 80,
                    "midi": 66,
                    "name": "F#4",
                    "ticks": 67858,
                    "time": 122.93127005833334,
                    "velocity": 0.3858267716535433
                },
                {
                    "duration": 0.14492766666666057,
                    "durationTicks": 80,
                    "midi": 64,
                    "name": "E4",
                    "ticks": 67858,
                    "time": 122.93127005833334,
                    "velocity": 0.3858267716535433
                },
                {
                    "duration": 0.14492766666666057,
                    "durationTicks": 80,
                    "midi": 60,
                    "name": "C4",
                    "ticks": 67858,
                    "time": 122.93127005833334,
                    "velocity": 0.3858267716535433
                },
                {
                    "duration": 0.14492766666666057,
                    "durationTicks": 80,
                    "midi": 69,
                    "name": "A4",
                    "ticks": 67858,
                    "time": 122.93127005833334,
                    "velocity": 0.3858267716535433
                },
                {
                    "duration": 0.13768128333333607,
                    "durationTicks": 76,
                    "midi": 63,
                    "name": "D#4",
                    "ticks": 68400,
                    "time": 123.913155,
                    "velocity": 0.3700787401574803
                },
                {
                    "duration": 0.13768128333333607,
                    "durationTicks": 76,
                    "midi": 59,
                    "name": "B3",
                    "ticks": 68400,
                    "time": 123.913155,
                    "velocity": 0.3700787401574803
                },
                {
                    "duration": 0.13768128333333607,
                    "durationTicks": 76,
                    "midi": 57,
                    "name": "A3",
                    "ticks": 68400,
                    "time": 123.913155,
                    "velocity": 0.3700787401574803
                },
                {
                    "duration": 0.13768128333333607,
                    "durationTicks": 76,
                    "midi": 66,
                    "name": "F#4",
                    "ticks": 68400,
                    "time": 123.913155,
                    "velocity": 0.3700787401574803
                },
                {
                    "duration": 0.159420433333338,
                    "durationTicks": 88,
                    "midi": 63,
                    "name": "D#4",
                    "ticks": 68808,
                    "time": 124.6522861,
                    "velocity": 0.3543307086614173
                },
                {
                    "duration": 0.159420433333338,
                    "durationTicks": 88,
                    "midi": 59,
                    "name": "B3",
                    "ticks": 68808,
                    "time": 124.6522861,
                    "velocity": 0.3543307086614173
                },
                {
                    "duration": 0.159420433333338,
                    "durationTicks": 88,
                    "midi": 57,
                    "name": "A3",
                    "ticks": 68808,
                    "time": 124.6522861,
                    "velocity": 0.3543307086614173
                },
                {
                    "duration": 0.159420433333338,
                    "durationTicks": 88,
                    "midi": 66,
                    "name": "F#4",
                    "ticks": 68808,
                    "time": 124.6522861,
                    "velocity": 0.3543307086614173
                },
                {
                    "duration": 0.1268117083333351,
                    "durationTicks": 70,
                    "midi": 64,
                    "name": "E4",
                    "ticks": 69360,
                    "time": 125.65228700000002,
                    "velocity": 0.4330708661417323
                },
                {
                    "duration": 0.1268117083333351,
                    "durationTicks": 70,
                    "midi": 62,
                    "name": "D4",
                    "ticks": 69360,
                    "time": 125.65228700000002,
                    "velocity": 0.4330708661417323
                },
                {
                    "duration": 0.1268117083333351,
                    "durationTicks": 70,
                    "midi": 59,
                    "name": "B3",
                    "ticks": 69360,
                    "time": 125.65228700000002,
                    "velocity": 0.4330708661417323
                },
                {
                    "duration": 0.1268117083333351,
                    "durationTicks": 70,
                    "midi": 67,
                    "name": "G4",
                    "ticks": 69360,
                    "time": 125.65228700000002,
                    "velocity": 0.4330708661417323
                },
                {
                    "duration": 0.13043490000001157,
                    "durationTicks": 72,
                    "midi": 64,
                    "name": "E4",
                    "ticks": 69840,
                    "time": 126.52185300000001,
                    "velocity": 0.36220472440944884
                },
                {
                    "duration": 0.13043490000001157,
                    "durationTicks": 72,
                    "midi": 62,
                    "name": "D4",
                    "ticks": 69840,
                    "time": 126.52185300000001,
                    "velocity": 0.36220472440944884
                },
                {
                    "duration": 0.13043490000001157,
                    "durationTicks": 72,
                    "midi": 59,
                    "name": "B3",
                    "ticks": 69840,
                    "time": 126.52185300000001,
                    "velocity": 0.36220472440944884
                },
                {
                    "duration": 0.13043490000001157,
                    "durationTicks": 72,
                    "midi": 67,
                    "name": "G4",
                    "ticks": 69840,
                    "time": 126.52185300000001,
                    "velocity": 0.36220472440944884
                },
                {
                    "duration": 0.12318851666668706,
                    "durationTicks": 68,
                    "midi": 64,
                    "name": "E4",
                    "ticks": 70262,
                    "time": 127.28634644166667,
                    "velocity": 0.3937007874015748
                },
                {
                    "duration": 0.12318851666668706,
                    "durationTicks": 68,
                    "midi": 62,
                    "name": "D4",
                    "ticks": 70262,
                    "time": 127.28634644166667,
                    "velocity": 0.3937007874015748
                },
                {
                    "duration": 0.12318851666668706,
                    "durationTicks": 68,
                    "midi": 59,
                    "name": "B3",
                    "ticks": 70262,
                    "time": 127.28634644166667,
                    "velocity": 0.3937007874015748
                },
                {
                    "duration": 0.12318851666668706,
                    "durationTicks": 68,
                    "midi": 67,
                    "name": "G4",
                    "ticks": 70262,
                    "time": 127.28634644166667,
                    "velocity": 0.3937007874015748
                },
                {
                    "duration": 0.12318851666665864,
                    "durationTicks": 68,
                    "midi": 64,
                    "name": "E4",
                    "ticks": 70742,
                    "time": 128.1559124416667,
                    "velocity": 0.3937007874015748
                },
                {
                    "duration": 0.12318851666665864,
                    "durationTicks": 68,
                    "midi": 62,
                    "name": "D4",
                    "ticks": 70742,
                    "time": 128.1559124416667,
                    "velocity": 0.3937007874015748
                },
                {
                    "duration": 0.12318851666665864,
                    "durationTicks": 68,
                    "midi": 59,
                    "name": "B3",
                    "ticks": 70742,
                    "time": 128.1559124416667,
                    "velocity": 0.3937007874015748
                },
                {
                    "duration": 0.12318851666665864,
                    "durationTicks": 68,
                    "midi": 68,
                    "name": "G#4",
                    "ticks": 70742,
                    "time": 128.1559124416667,
                    "velocity": 0.3937007874015748
                },
                {
                    "duration": 0.12681170833334932,
                    "durationTicks": 70,
                    "midi": 67,
                    "name": "G4",
                    "ticks": 71280,
                    "time": 129.130551,
                    "velocity": 0.4330708661417323
                },
                {
                    "duration": 0.12681170833334932,
                    "durationTicks": 70,
                    "midi": 64,
                    "name": "E4",
                    "ticks": 71280,
                    "time": 129.130551,
                    "velocity": 0.4330708661417323
                },
                {
                    "duration": 0.12681170833334932,
                    "durationTicks": 70,
                    "midi": 60,
                    "name": "C4",
                    "ticks": 71280,
                    "time": 129.130551,
                    "velocity": 0.4330708661417323
                },
                {
                    "duration": 0.12681170833334932,
                    "durationTicks": 70,
                    "midi": 69,
                    "name": "A4",
                    "ticks": 71280,
                    "time": 129.130551,
                    "velocity": 0.4330708661417323
                },
                {
                    "duration": 0.13043489999998314,
                    "durationTicks": 72,
                    "midi": 67,
                    "name": "G4",
                    "ticks": 71760,
                    "time": 130.00011700000002,
                    "velocity": 0.36220472440944884
                },
                {
                    "duration": 0.13043489999998314,
                    "durationTicks": 72,
                    "midi": 64,
                    "name": "E4",
                    "ticks": 71760,
                    "time": 130.00011700000002,
                    "velocity": 0.36220472440944884
                },
                {
                    "duration": 0.13043489999998314,
                    "durationTicks": 72,
                    "midi": 60,
                    "name": "C4",
                    "ticks": 71760,
                    "time": 130.00011700000002,
                    "velocity": 0.36220472440944884
                },
                {
                    "duration": 0.13043489999998314,
                    "durationTicks": 72,
                    "midi": 69,
                    "name": "A4",
                    "ticks": 71760,
                    "time": 130.00011700000002,
                    "velocity": 0.36220472440944884
                },
                {
                    "duration": 0.13768128333333607,
                    "durationTicks": 76,
                    "midi": 66,
                    "name": "F#4",
                    "ticks": 72240,
                    "time": 130.869683,
                    "velocity": 0.3700787401574803
                },
                {
                    "duration": 0.13768128333333607,
                    "durationTicks": 76,
                    "midi": 64,
                    "name": "E4",
                    "ticks": 72240,
                    "time": 130.869683,
                    "velocity": 0.3700787401574803
                },
                {
                    "duration": 0.13768128333333607,
                    "durationTicks": 76,
                    "midi": 60,
                    "name": "C4",
                    "ticks": 72240,
                    "time": 130.869683,
                    "velocity": 0.3700787401574803
                },
                {
                    "duration": 0.13768128333333607,
                    "durationTicks": 76,
                    "midi": 69,
                    "name": "A4",
                    "ticks": 72240,
                    "time": 130.869683,
                    "velocity": 0.3700787401574803
                },
                {
                    "duration": 0.15942043333330957,
                    "durationTicks": 88,
                    "midi": 66,
                    "name": "F#4",
                    "ticks": 72648,
                    "time": 131.60881410000002,
                    "velocity": 0.3543307086614173
                },
                {
                    "duration": 0.15942043333330957,
                    "durationTicks": 88,
                    "midi": 64,
                    "name": "E4",
                    "ticks": 72648,
                    "time": 131.60881410000002,
                    "velocity": 0.3543307086614173
                },
                {
                    "duration": 0.15942043333330957,
                    "durationTicks": 88,
                    "midi": 60,
                    "name": "C4",
                    "ticks": 72648,
                    "time": 131.60881410000002,
                    "velocity": 0.3543307086614173
                },
                {
                    "duration": 0.15942043333330957,
                    "durationTicks": 88,
                    "midi": 69,
                    "name": "A4",
                    "ticks": 72648,
                    "time": 131.60881410000002,
                    "velocity": 0.3543307086614173
                },
                {
                    "duration": 0.13768128333330765,
                    "durationTicks": 76,
                    "midi": 66,
                    "name": "F#4",
                    "ticks": 73200,
                    "time": 132.60881500000002,
                    "velocity": 0.3700787401574803
                },
                {
                    "duration": 0.13768128333330765,
                    "durationTicks": 76,
                    "midi": 62,
                    "name": "D4",
                    "ticks": 73200,
                    "time": 132.60881500000002,
                    "velocity": 0.3700787401574803
                },
                {
                    "duration": 0.13768128333330765,
                    "durationTicks": 76,
                    "midi": 59,
                    "name": "B3",
                    "ticks": 73200,
                    "time": 132.60881500000002,
                    "velocity": 0.3700787401574803
                },
                {
                    "duration": 0.13768128333330765,
                    "durationTicks": 76,
                    "midi": 69,
                    "name": "A4",
                    "ticks": 73200,
                    "time": 132.60881500000002,
                    "velocity": 0.3700787401574803
                },
                {
                    "duration": 0.159420433333338,
                    "durationTicks": 88,
                    "midi": 66,
                    "name": "F#4",
                    "ticks": 73608,
                    "time": 133.3479461,
                    "velocity": 0.3543307086614173
                },
                {
                    "duration": 0.159420433333338,
                    "durationTicks": 88,
                    "midi": 62,
                    "name": "D4",
                    "ticks": 73608,
                    "time": 133.3479461,
                    "velocity": 0.3543307086614173
                },
                {
                    "duration": 0.159420433333338,
                    "durationTicks": 88,
                    "midi": 59,
                    "name": "B3",
                    "ticks": 73608,
                    "time": 133.3479461,
                    "velocity": 0.3543307086614173
                },
                {
                    "duration": 0.159420433333338,
                    "durationTicks": 88,
                    "midi": 69,
                    "name": "A4",
                    "ticks": 73608,
                    "time": 133.3479461,
                    "velocity": 0.3543307086614173
                },
                {
                    "duration": 0.14855085833332282,
                    "durationTicks": 82,
                    "midi": 64,
                    "name": "E4",
                    "ticks": 74082,
                    "time": 134.206642525,
                    "velocity": 0.3937007874015748
                },
                {
                    "duration": 0.14855085833332282,
                    "durationTicks": 82,
                    "midi": 62,
                    "name": "D4",
                    "ticks": 74082,
                    "time": 134.206642525,
                    "velocity": 0.3937007874015748
                },
                {
                    "duration": 0.14855085833332282,
                    "durationTicks": 82,
                    "midi": 59,
                    "name": "B3",
                    "ticks": 74082,
                    "time": 134.206642525,
                    "velocity": 0.3937007874015748
                },
                {
                    "duration": 0.14855085833332282,
                    "durationTicks": 82,
                    "midi": 67,
                    "name": "G4",
                    "ticks": 74082,
                    "time": 134.206642525,
                    "velocity": 0.3937007874015748
                },
                {
                    "duration": 0.14492766666666057,
                    "durationTicks": 80,
                    "midi": 64,
                    "name": "E4",
                    "ticks": 74578,
                    "time": 135.10519405833335,
                    "velocity": 0.3858267716535433
                },
                {
                    "duration": 0.14492766666666057,
                    "durationTicks": 80,
                    "midi": 62,
                    "name": "D4",
                    "ticks": 74578,
                    "time": 135.10519405833335,
                    "velocity": 0.3858267716535433
                },
                {
                    "duration": 0.14492766666666057,
                    "durationTicks": 80,
                    "midi": 59,
                    "name": "B3",
                    "ticks": 74578,
                    "time": 135.10519405833335,
                    "velocity": 0.3858267716535433
                },
                {
                    "duration": 0.14492766666666057,
                    "durationTicks": 80,
                    "midi": 67,
                    "name": "G4",
                    "ticks": 74578,
                    "time": 135.10519405833335,
                    "velocity": 0.3858267716535433
                },
                {
                    "duration": 0.1268117083333209,
                    "durationTicks": 70,
                    "midi": 66,
                    "name": "F#4",
                    "ticks": 75120,
                    "time": 136.08707900000002,
                    "velocity": 0.4330708661417323
                },
                {
                    "duration": 0.1268117083333209,
                    "durationTicks": 70,
                    "midi": 64,
                    "name": "E4",
                    "ticks": 75120,
                    "time": 136.08707900000002,
                    "velocity": 0.4330708661417323
                },
                {
                    "duration": 0.1268117083333209,
                    "durationTicks": 70,
                    "midi": 60,
                    "name": "C4",
                    "ticks": 75120,
                    "time": 136.08707900000002,
                    "velocity": 0.4330708661417323
                },
                {
                    "duration": 0.1268117083333209,
                    "durationTicks": 70,
                    "midi": 69,
                    "name": "A4",
                    "ticks": 75120,
                    "time": 136.08707900000002,
                    "velocity": 0.4330708661417323
                },
                {
                    "duration": 0.13043490000001157,
                    "durationTicks": 72,
                    "midi": 66,
                    "name": "F#4",
                    "ticks": 75600,
                    "time": 136.956645,
                    "velocity": 0.36220472440944884
                },
                {
                    "duration": 0.13043490000001157,
                    "durationTicks": 72,
                    "midi": 64,
                    "name": "E4",
                    "ticks": 75600,
                    "time": 136.956645,
                    "velocity": 0.36220472440944884
                },
                {
                    "duration": 0.13043490000001157,
                    "durationTicks": 72,
                    "midi": 60,
                    "name": "C4",
                    "ticks": 75600,
                    "time": 136.956645,
                    "velocity": 0.36220472440944884
                },
                {
                    "duration": 0.13043490000001157,
                    "durationTicks": 72,
                    "midi": 69,
                    "name": "A4",
                    "ticks": 75600,
                    "time": 136.956645,
                    "velocity": 0.36220472440944884
                },
                {
                    "duration": 0.13768128333333607,
                    "durationTicks": 76,
                    "midi": 63,
                    "name": "D#4",
                    "ticks": 76080,
                    "time": 137.826211,
                    "velocity": 0.3700787401574803
                },
                {
                    "duration": 0.13768128333333607,
                    "durationTicks": 76,
                    "midi": 59,
                    "name": "B3",
                    "ticks": 76080,
                    "time": 137.826211,
                    "velocity": 0.3700787401574803
                },
                {
                    "duration": 0.13768128333333607,
                    "durationTicks": 76,
                    "midi": 57,
                    "name": "A3",
                    "ticks": 76080,
                    "time": 137.826211,
                    "velocity": 0.3700787401574803
                },
                {
                    "duration": 0.13768128333333607,
                    "durationTicks": 76,
                    "midi": 66,
                    "name": "F#4",
                    "ticks": 76080,
                    "time": 137.826211,
                    "velocity": 0.3700787401574803
                },
                {
                    "duration": 0.159420433333338,
                    "durationTicks": 88,
                    "midi": 63,
                    "name": "D#4",
                    "ticks": 76488,
                    "time": 138.5653421,
                    "velocity": 0.3543307086614173
                },
                {
                    "duration": 0.159420433333338,
                    "durationTicks": 88,
                    "midi": 59,
                    "name": "B3",
                    "ticks": 76488,
                    "time": 138.5653421,
                    "velocity": 0.3543307086614173
                },
                {
                    "duration": 0.159420433333338,
                    "durationTicks": 88,
                    "midi": 57,
                    "name": "A3",
                    "ticks": 76488,
                    "time": 138.5653421,
                    "velocity": 0.3543307086614173
                },
                {
                    "duration": 0.159420433333338,
                    "durationTicks": 88,
                    "midi": 66,
                    "name": "F#4",
                    "ticks": 76488,
                    "time": 138.5653421,
                    "velocity": 0.3543307086614173
                },
                {
                    "duration": 0.13768128333333607,
                    "durationTicks": 76,
                    "midi": 64,
                    "name": "E4",
                    "ticks": 77040,
                    "time": 139.565343,
                    "velocity": 0.3700787401574803
                },
                {
                    "duration": 0.13768128333333607,
                    "durationTicks": 76,
                    "midi": 61,
                    "name": "C#4",
                    "ticks": 77040,
                    "time": 139.565343,
                    "velocity": 0.3700787401574803
                },
                {
                    "duration": 0.13768128333333607,
                    "durationTicks": 76,
                    "midi": 59,
                    "name": "B3",
                    "ticks": 77040,
                    "time": 139.565343,
                    "velocity": 0.3700787401574803
                },
                {
                    "duration": 0.13768128333333607,
                    "durationTicks": 76,
                    "midi": 67,
                    "name": "G4",
                    "ticks": 77040,
                    "time": 139.565343,
                    "velocity": 0.3700787401574803
                },
                {
                    "duration": 0.159420433333338,
                    "durationTicks": 88,
                    "midi": 64,
                    "name": "E4",
                    "ticks": 77448,
                    "time": 140.3044741,
                    "velocity": 0.3543307086614173
                },
                {
                    "duration": 0.159420433333338,
                    "durationTicks": 88,
                    "midi": 61,
                    "name": "C#4",
                    "ticks": 77448,
                    "time": 140.3044741,
                    "velocity": 0.3543307086614173
                },
                {
                    "duration": 0.159420433333338,
                    "durationTicks": 88,
                    "midi": 59,
                    "name": "B3",
                    "ticks": 77448,
                    "time": 140.3044741,
                    "velocity": 0.3543307086614173
                },
                {
                    "duration": 0.159420433333338,
                    "durationTicks": 88,
                    "midi": 67,
                    "name": "G4",
                    "ticks": 77448,
                    "time": 140.3044741,
                    "velocity": 0.3543307086614173
                },
                {
                    "duration": 0.12318851666668706,
                    "durationTicks": 68,
                    "midi": 64,
                    "name": "E4",
                    "ticks": 78000,
                    "time": 141.304475,
                    "velocity": 0.41732283464566927
                },
                {
                    "duration": 0.12318851666668706,
                    "durationTicks": 68,
                    "midi": 61,
                    "name": "C#4",
                    "ticks": 78000,
                    "time": 141.304475,
                    "velocity": 0.41732283464566927
                },
                {
                    "duration": 0.12318851666668706,
                    "durationTicks": 68,
                    "midi": 59,
                    "name": "B3",
                    "ticks": 78000,
                    "time": 141.304475,
                    "velocity": 0.41732283464566927
                },
                {
                    "duration": 0.12318851666668706,
                    "durationTicks": 68,
                    "midi": 67,
                    "name": "G4",
                    "ticks": 78000,
                    "time": 141.304475,
                    "velocity": 0.41732283464566927
                },
                {
                    "duration": 0.144927666666689,
                    "durationTicks": 80,
                    "midi": 64,
                    "name": "E4",
                    "ticks": 78408,
                    "time": 142.0436061,
                    "velocity": 0.4330708661417323
                },
                {
                    "duration": 0.144927666666689,
                    "durationTicks": 80,
                    "midi": 61,
                    "name": "C#4",
                    "ticks": 78408,
                    "time": 142.0436061,
                    "velocity": 0.4330708661417323
                },
                {
                    "duration": 0.144927666666689,
                    "durationTicks": 80,
                    "midi": 59,
                    "name": "B3",
                    "ticks": 78408,
                    "time": 142.0436061,
                    "velocity": 0.4330708661417323
                },
                {
                    "duration": 0.144927666666689,
                    "durationTicks": 80,
                    "midi": 67,
                    "name": "G4",
                    "ticks": 78408,
                    "time": 142.0436061,
                    "velocity": 0.4330708661417323
                },
                {
                    "duration": 1.7391320000000121,
                    "durationTicks": 960,
                    "midi": 60,
                    "name": "C4",
                    "ticks": 78720,
                    "time": 142.608824,
                    "velocity": 0.3937007874015748
                },
                {
                    "duration": 1.7391320000000121,
                    "durationTicks": 960,
                    "midi": 57,
                    "name": "A3",
                    "ticks": 78720,
                    "time": 142.608824,
                    "velocity": 0.3937007874015748
                },
                {
                    "duration": 1.7391320000000121,
                    "durationTicks": 960,
                    "midi": 66,
                    "name": "F#4",
                    "ticks": 78720,
                    "time": 142.608824,
                    "velocity": 0.3937007874015748
                },
                {
                    "duration": 1.7391320000000121,
                    "durationTicks": 960,
                    "midi": 52,
                    "name": "E3",
                    "ticks": 78720,
                    "time": 142.608824,
                    "velocity": 0.3937007874015748
                },
                {
                    "duration": 1.7391320000000121,
                    "durationTicks": 960,
                    "midi": 67,
                    "name": "G4",
                    "ticks": 79680,
                    "time": 144.347956,
                    "velocity": 0.3937007874015748
                },
                {
                    "duration": 1.7391320000000121,
                    "durationTicks": 960,
                    "midi": 63,
                    "name": "D#4",
                    "ticks": 79680,
                    "time": 144.347956,
                    "velocity": 0.3937007874015748
                },
                {
                    "duration": 1.7391320000000121,
                    "durationTicks": 960,
                    "midi": 72,
                    "name": "C5",
                    "ticks": 79680,
                    "time": 144.347956,
                    "velocity": 0.3937007874015748
                },
                {
                    "duration": 1.7391320000000121,
                    "durationTicks": 960,
                    "midi": 57,
                    "name": "A3",
                    "ticks": 79680,
                    "time": 144.347956,
                    "velocity": 0.3937007874015748
                },
                {
                    "duration": 3.478263999999996,
                    "durationTicks": 1920,
                    "midi": 59,
                    "name": "B3",
                    "ticks": 80640,
                    "time": 146.08708800000002,
                    "velocity": 0.47244094488188976
                },
                {
                    "duration": 3.478263999999996,
                    "durationTicks": 1920,
                    "midi": 55,
                    "name": "G3",
                    "ticks": 80640,
                    "time": 146.08708800000002,
                    "velocity": 0.47244094488188976
                },
                {
                    "duration": 3.478263999999996,
                    "durationTicks": 1920,
                    "midi": 64,
                    "name": "E4",
                    "ticks": 80640,
                    "time": 146.08708800000002,
                    "velocity": 0.47244094488188976
                },
                {
                    "duration": 3.478263999999996,
                    "durationTicks": 1920,
                    "midi": 62,
                    "name": "D4",
                    "ticks": 80640,
                    "time": 146.08708800000002,
                    "velocity": 0.47244094488188976
                },
                {
                    "duration": 0.9927545166666789,
                    "durationTicks": 548,
                    "midi": 64,
                    "name": "E4",
                    "ticks": 82972,
                    "time": 150.31172948333332,
                    "velocity": 0.3937007874015748
                },
                {
                    "duration": 0.9927545166666789,
                    "durationTicks": 548,
                    "midi": 60,
                    "name": "C4",
                    "ticks": 82972,
                    "time": 150.31172948333332,
                    "velocity": 0.3937007874015748
                },
                {
                    "duration": 0.9927545166666789,
                    "durationTicks": 548,
                    "midi": 69,
                    "name": "A4",
                    "ticks": 82972,
                    "time": 150.31172948333332,
                    "velocity": 0.3937007874015748
                },
                {
                    "duration": 0.9927545166666789,
                    "durationTicks": 548,
                    "midi": 55,
                    "name": "G3",
                    "ticks": 82972,
                    "time": 150.31172948333332,
                    "velocity": 0.3937007874015748
                },
                {
                    "duration": 1.7391320000000121,
                    "durationTicks": 960,
                    "midi": 59,
                    "name": "B3",
                    "ticks": 83520,
                    "time": 151.304484,
                    "velocity": 0.3937007874015748
                },
                {
                    "duration": 1.7391320000000121,
                    "durationTicks": 960,
                    "midi": 54,
                    "name": "F#3",
                    "ticks": 83520,
                    "time": 151.304484,
                    "velocity": 0.3937007874015748
                },
                {
                    "duration": 1.7391320000000121,
                    "durationTicks": 960,
                    "midi": 64,
                    "name": "E4",
                    "ticks": 83520,
                    "time": 151.304484,
                    "velocity": 0.3937007874015748
                },
                {
                    "duration": 1.7391320000000121,
                    "durationTicks": 960,
                    "midi": 60,
                    "name": "C4",
                    "ticks": 83520,
                    "time": 151.304484,
                    "velocity": 0.3937007874015748
                },
                {
                    "duration": 3.478263999999996,
                    "durationTicks": 1920,
                    "midi": 62,
                    "name": "D4",
                    "ticks": 84480,
                    "time": 153.04361600000001,
                    "velocity": 0.47244094488188976
                },
                {
                    "duration": 3.478263999999996,
                    "durationTicks": 1920,
                    "midi": 59,
                    "name": "B3",
                    "ticks": 84480,
                    "time": 153.04361600000001,
                    "velocity": 0.47244094488188976
                },
                {
                    "duration": 3.478263999999996,
                    "durationTicks": 1920,
                    "midi": 69,
                    "name": "A4",
                    "ticks": 84480,
                    "time": 153.04361600000001,
                    "velocity": 0.47244094488188976
                },
                {
                    "duration": 3.478263999999996,
                    "durationTicks": 1920,
                    "midi": 54,
                    "name": "F#3",
                    "ticks": 84480,
                    "time": 153.04361600000001,
                    "velocity": 0.47244094488188976
                },
                {
                    "duration": 0.13768128333333607,
                    "durationTicks": 76,
                    "midi": 66,
                    "name": "F#4",
                    "ticks": 86640,
                    "time": 156.95666300000002,
                    "velocity": 0.3700787401574803
                },
                {
                    "duration": 0.13768128333333607,
                    "durationTicks": 76,
                    "midi": 64,
                    "name": "E4",
                    "ticks": 86640,
                    "time": 156.95666300000002,
                    "velocity": 0.3700787401574803
                },
                {
                    "duration": 0.13768128333333607,
                    "durationTicks": 76,
                    "midi": 60,
                    "name": "C4",
                    "ticks": 86640,
                    "time": 156.95666300000002,
                    "velocity": 0.3700787401574803
                },
                {
                    "duration": 0.13768128333333607,
                    "durationTicks": 76,
                    "midi": 69,
                    "name": "A4",
                    "ticks": 86640,
                    "time": 156.95666300000002,
                    "velocity": 0.3700787401574803
                },
                {
                    "duration": 0.159420433333338,
                    "durationTicks": 88,
                    "midi": 66,
                    "name": "F#4",
                    "ticks": 87048,
                    "time": 157.6957941,
                    "velocity": 0.3543307086614173
                },
                {
                    "duration": 0.159420433333338,
                    "durationTicks": 88,
                    "midi": 64,
                    "name": "E4",
                    "ticks": 87048,
                    "time": 157.6957941,
                    "velocity": 0.3543307086614173
                },
                {
                    "duration": 0.159420433333338,
                    "durationTicks": 88,
                    "midi": 60,
                    "name": "C4",
                    "ticks": 87048,
                    "time": 157.6957941,
                    "velocity": 0.3543307086614173
                },
                {
                    "duration": 0.159420433333338,
                    "durationTicks": 88,
                    "midi": 69,
                    "name": "A4",
                    "ticks": 87048,
                    "time": 157.6957941,
                    "velocity": 0.3543307086614173
                },
                {
                    "duration": 1.7391319999999837,
                    "durationTicks": 960,
                    "midi": 67,
                    "name": "G4",
                    "ticks": 87360,
                    "time": 158.26101200000002,
                    "velocity": 0.3937007874015748
                },
                {
                    "duration": 1.7391319999999837,
                    "durationTicks": 960,
                    "midi": 63,
                    "name": "D#4",
                    "ticks": 87360,
                    "time": 158.26101200000002,
                    "velocity": 0.3937007874015748
                },
                {
                    "duration": 1.7391319999999837,
                    "durationTicks": 960,
                    "midi": 72,
                    "name": "C5",
                    "ticks": 87360,
                    "time": 158.26101200000002,
                    "velocity": 0.3937007874015748
                },
                {
                    "duration": 1.7391319999999837,
                    "durationTicks": 960,
                    "midi": 57,
                    "name": "A3",
                    "ticks": 87360,
                    "time": 158.26101200000002,
                    "velocity": 0.3937007874015748
                },
                {
                    "duration": 0.8695659999999918,
                    "durationTicks": 480,
                    "midi": 62,
                    "name": "D4",
                    "ticks": 88320,
                    "time": 160.000144,
                    "velocity": 0.3937007874015748
                },
                {
                    "duration": 0.8695659999999918,
                    "durationTicks": 480,
                    "midi": 64,
                    "name": "E4",
                    "ticks": 88320,
                    "time": 160.000144,
                    "velocity": 0.3937007874015748
                },
                {
                    "duration": 0.8695659999999918,
                    "durationTicks": 480,
                    "midi": 55,
                    "name": "G3",
                    "ticks": 88320,
                    "time": 160.000144,
                    "velocity": 0.3937007874015748
                },
                {
                    "duration": 0.8695659999999918,
                    "durationTicks": 480,
                    "midi": 59,
                    "name": "B3",
                    "ticks": 88320,
                    "time": 160.000144,
                    "velocity": 0.3937007874015748
                },
                {
                    "duration": 0.8695660000000203,
                    "durationTicks": 480,
                    "midi": 60,
                    "name": "C4",
                    "ticks": 88800,
                    "time": 160.86971,
                    "velocity": 0.47244094488188976
                },
                {
                    "duration": 0.8695660000000203,
                    "durationTicks": 480,
                    "midi": 55,
                    "name": "G3",
                    "ticks": 88800,
                    "time": 160.86971,
                    "velocity": 0.47244094488188976
                },
                {
                    "duration": 0.8695660000000203,
                    "durationTicks": 480,
                    "midi": 65,
                    "name": "F4",
                    "ticks": 88800,
                    "time": 160.86971,
                    "velocity": 0.47244094488188976
                },
                {
                    "duration": 0.8695660000000203,
                    "durationTicks": 480,
                    "midi": 61,
                    "name": "C#4",
                    "ticks": 88800,
                    "time": 160.86971,
                    "velocity": 0.47244094488188976
                },
                {
                    "duration": 0.8695659999999918,
                    "durationTicks": 480,
                    "midi": 60,
                    "name": "C4",
                    "ticks": 89280,
                    "time": 161.73927600000002,
                    "velocity": 0.47244094488188976
                },
                {
                    "duration": 0.8695659999999918,
                    "durationTicks": 480,
                    "midi": 64,
                    "name": "E4",
                    "ticks": 89280,
                    "time": 161.73927600000002,
                    "velocity": 0.47244094488188976
                },
                {
                    "duration": 0.8695659999999918,
                    "durationTicks": 480,
                    "midi": 53,
                    "name": "F3",
                    "ticks": 89280,
                    "time": 161.73927600000002,
                    "velocity": 0.47244094488188976
                },
                {
                    "duration": 0.8695659999999918,
                    "durationTicks": 480,
                    "midi": 69,
                    "name": "A4",
                    "ticks": 89280,
                    "time": 161.73927600000002,
                    "velocity": 0.47244094488188976
                },
                {
                    "duration": 0.8695659999999918,
                    "durationTicks": 480,
                    "midi": 59,
                    "name": "B3",
                    "ticks": 89760,
                    "time": 162.608842,
                    "velocity": 0.4251968503937008
                },
                {
                    "duration": 0.8695659999999918,
                    "durationTicks": 480,
                    "midi": 65,
                    "name": "F4",
                    "ticks": 89760,
                    "time": 162.608842,
                    "velocity": 0.23622047244094488
                },
                {
                    "duration": 0.8695659999999918,
                    "durationTicks": 480,
                    "midi": 56,
                    "name": "G#3",
                    "ticks": 89760,
                    "time": 162.608842,
                    "velocity": 0.28346456692913385
                },
                {
                    "duration": 0.8695659999999918,
                    "durationTicks": 480,
                    "midi": 63,
                    "name": "D#4",
                    "ticks": 89760,
                    "time": 162.608842,
                    "velocity": 0.2755905511811024
                },
                {
                    "duration": 0.2934785250000118,
                    "durationTicks": 162,
                    "midi": 71,
                    "name": "B4",
                    "ticks": 89760,
                    "time": 162.608842,
                    "velocity": 0.5433070866141733
                },
                {
                    "duration": 0.2536234166666702,
                    "durationTicks": 140,
                    "midi": 77,
                    "name": "F5",
                    "ticks": 89760,
                    "time": 162.608842,
                    "velocity": 0.47244094488188976
                },
                {
                    "duration": 0.5507251333333159,
                    "durationTicks": 304,
                    "midi": 75,
                    "name": "D#5",
                    "ticks": 89936,
                    "time": 162.9276828666667,
                    "velocity": 0.47244094488188976
                },
                {
                    "duration": 0.5507251333333159,
                    "durationTicks": 304,
                    "midi": 68,
                    "name": "G#4",
                    "ticks": 89936,
                    "time": 162.9276828666667,
                    "velocity": 0.4566929133858268
                },
                {
                    "duration": 1.7391320000000121,
                    "durationTicks": 960,
                    "midi": 55,
                    "name": "G3",
                    "ticks": 90240,
                    "time": 163.478408,
                    "velocity": 0.3937007874015748
                },
                {
                    "duration": 1.7391320000000121,
                    "durationTicks": 960,
                    "midi": 52,
                    "name": "E3",
                    "ticks": 90240,
                    "time": 163.478408,
                    "velocity": 0.3937007874015748
                },
                {
                    "duration": 1.7391320000000121,
                    "durationTicks": 960,
                    "midi": 62,
                    "name": "D4",
                    "ticks": 90240,
                    "time": 163.478408,
                    "velocity": 0.3937007874015748
                },
                {
                    "duration": 1.7391320000000121,
                    "durationTicks": 960,
                    "midi": 59,
                    "name": "B3",
                    "ticks": 90240,
                    "time": 163.478408,
                    "velocity": 0.3937007874015748
                },
                {
                    "duration": 0.8695659999999918,
                    "durationTicks": 480,
                    "midi": 52,
                    "name": "E3",
                    "ticks": 91200,
                    "time": 165.21754,
                    "velocity": 0.47244094488188976
                },
                {
                    "duration": 0.8695659999999918,
                    "durationTicks": 480,
                    "midi": 66,
                    "name": "F#4",
                    "ticks": 91200,
                    "time": 165.21754,
                    "velocity": 0.47244094488188976
                },
                {
                    "duration": 0.8695659999999918,
                    "durationTicks": 480,
                    "midi": 57,
                    "name": "A3",
                    "ticks": 91200,
                    "time": 165.21754,
                    "velocity": 0.47244094488188976
                },
                {
                    "duration": 0.8695659999999918,
                    "durationTicks": 480,
                    "midi": 60,
                    "name": "C4",
                    "ticks": 91200,
                    "time": 165.21754,
                    "velocity": 0.47244094488188976
                },
                {
                    "duration": 0.8695660000000203,
                    "durationTicks": 480,
                    "midi": 57,
                    "name": "A3",
                    "ticks": 91680,
                    "time": 166.087106,
                    "velocity": 0.4251968503937008
                },
                {
                    "duration": 0.8695660000000203,
                    "durationTicks": 480,
                    "midi": 63,
                    "name": "D#4",
                    "ticks": 91680,
                    "time": 166.087106,
                    "velocity": 0.23622047244094488
                },
                {
                    "duration": 0.8695660000000203,
                    "durationTicks": 480,
                    "midi": 54,
                    "name": "F#3",
                    "ticks": 91680,
                    "time": 166.087106,
                    "velocity": 0.28346456692913385
                },
                {
                    "duration": 0.8695660000000203,
                    "durationTicks": 480,
                    "midi": 59,
                    "name": "B3",
                    "ticks": 91680,
                    "time": 166.087106,
                    "velocity": 0.2755905511811024
                },
                {
                    "duration": 0.2934785250000118,
                    "durationTicks": 162,
                    "midi": 69,
                    "name": "A4",
                    "ticks": 91680,
                    "time": 166.087106,
                    "velocity": 0.5433070866141733
                },
                {
                    "duration": 0.2536234166666702,
                    "durationTicks": 140,
                    "midi": 75,
                    "name": "D#5",
                    "ticks": 91680,
                    "time": 166.087106,
                    "velocity": 0.47244094488188976
                },
                {
                    "duration": 0.5507251333333443,
                    "durationTicks": 304,
                    "midi": 71,
                    "name": "B4",
                    "ticks": 91856,
                    "time": 166.40594686666668,
                    "velocity": 0.47244094488188976
                },
                {
                    "duration": 0.5507251333333443,
                    "durationTicks": 304,
                    "midi": 66,
                    "name": "F#4",
                    "ticks": 91856,
                    "time": 166.40594686666668,
                    "velocity": 0.4566929133858268
                },
                {
                    "duration": 0.9927545166666789,
                    "durationTicks": 548,
                    "midi": 71,
                    "name": "B4",
                    "ticks": 92572,
                    "time": 167.70304948333333,
                    "velocity": 0.3937007874015748
                },
                {
                    "duration": 0.9927545166666789,
                    "durationTicks": 548,
                    "midi": 55,
                    "name": "G3",
                    "ticks": 92572,
                    "time": 167.70304948333333,
                    "velocity": 0.3937007874015748
                },
                {
                    "duration": 0.9927545166666789,
                    "durationTicks": 548,
                    "midi": 64,
                    "name": "E4",
                    "ticks": 92572,
                    "time": 167.70304948333333,
                    "velocity": 0.3937007874015748
                },
                {
                    "duration": 0.9927545166666789,
                    "durationTicks": 548,
                    "midi": 62,
                    "name": "D4",
                    "ticks": 92572,
                    "time": 167.70304948333333,
                    "velocity": 0.3937007874015748
                },
                {
                    "duration": 1.7391320000000121,
                    "durationTicks": 960,
                    "midi": 59,
                    "name": "B3",
                    "ticks": 93120,
                    "time": 168.695804,
                    "velocity": 0.3937007874015748
                },
                {
                    "duration": 1.7391320000000121,
                    "durationTicks": 960,
                    "midi": 55,
                    "name": "G3",
                    "ticks": 93120,
                    "time": 168.695804,
                    "velocity": 0.3937007874015748
                },
                {
                    "duration": 1.7391320000000121,
                    "durationTicks": 960,
                    "midi": 64,
                    "name": "E4",
                    "ticks": 93120,
                    "time": 168.695804,
                    "velocity": 0.3937007874015748
                },
                {
                    "duration": 1.7391320000000121,
                    "durationTicks": 960,
                    "midi": 62,
                    "name": "D4",
                    "ticks": 93120,
                    "time": 168.695804,
                    "velocity": 0.3937007874015748
                },
                {
                    "duration": 1.4963781583333287,
                    "durationTicks": 826,
                    "midi": 67,
                    "name": "G4",
                    "ticks": 94080,
                    "time": 170.43493600000002,
                    "velocity": 0.4015748031496063
                },
                {
                    "duration": 1.485508583333342,
                    "durationTicks": 820,
                    "midi": 61,
                    "name": "C#4",
                    "ticks": 94080,
                    "time": 170.43493600000002,
                    "velocity": 0.49606299212598426
                },
                {
                    "duration": 1.46376943333334,
                    "durationTicks": 808,
                    "midi": 59,
                    "name": "B3",
                    "ticks": 94080,
                    "time": 170.43493600000002,
                    "velocity": 0.25984251968503935
                },
                {
                    "duration": 1.46376943333334,
                    "durationTicks": 808,
                    "midi": 64,
                    "name": "E4",
                    "ticks": 94080,
                    "time": 170.43493600000002,
                    "velocity": 0.3464566929133858
                },
                {
                    "duration": 0.2862321416666873,
                    "durationTicks": 158,
                    "midi": 83,
                    "name": "B5",
                    "ticks": 94320,
                    "time": 170.869719,
                    "velocity": 0.5354330708661418
                },
                {
                    "duration": 0.3478264000000024,
                    "durationTicks": 192,
                    "midi": 78,
                    "name": "F#5",
                    "ticks": 94496,
                    "time": 171.18855986666668,
                    "velocity": 0.3464566929133858
                },
                {
                    "duration": 0.14492766666666057,
                    "durationTicks": 80,
                    "midi": 83,
                    "name": "B5",
                    "ticks": 94736,
                    "time": 171.6233428666667,
                    "velocity": 0.4881889763779528
                },
                {
                    "duration": 0.07246383333333029,
                    "durationTicks": 40,
                    "midi": 78,
                    "name": "F#5",
                    "ticks": 94816,
                    "time": 171.76827053333335,
                    "velocity": 0.2992125984251969
                },
                {
                    "duration": 0.15579724166667575,
                    "durationTicks": 86,
                    "midi": 67,
                    "name": "G4",
                    "ticks": 95040,
                    "time": 172.174068,
                    "velocity": 0.4409448818897638
                },
                {
                    "duration": 0.10507255833334739,
                    "durationTicks": 58,
                    "midi": 64,
                    "name": "E4",
                    "ticks": 95040,
                    "time": 172.174068,
                    "velocity": 0.33858267716535434
                },
                {
                    "duration": 0.11231894166667189,
                    "durationTicks": 62,
                    "midi": 59,
                    "name": "B3",
                    "ticks": 95040,
                    "time": 172.174068,
                    "velocity": 0.31496062992125984
                },
                {
                    "duration": 0.10507255833334739,
                    "durationTicks": 58,
                    "midi": 61,
                    "name": "C#4",
                    "ticks": 95040,
                    "time": 172.174068,
                    "velocity": 0.41732283464566927
                },
                {
                    "duration": 0.10507255833334739,
                    "durationTicks": 58,
                    "midi": 78,
                    "name": "F#5",
                    "ticks": 95040,
                    "time": 172.174068,
                    "velocity": 0.41732283464566927
                },
                {
                    "duration": 0.10507255833334739,
                    "durationTicks": 58,
                    "midi": 83,
                    "name": "B5",
                    "ticks": 95040,
                    "time": 172.174068,
                    "velocity": 0.5669291338582677
                },
                {
                    "duration": 0.985508133333326,
                    "durationTicks": 544,
                    "midi": 64,
                    "name": "E4",
                    "ticks": 95456,
                    "time": 172.9276918666667,
                    "velocity": 0.2992125984251969
                },
                {
                    "duration": 0.985508133333326,
                    "durationTicks": 544,
                    "midi": 61,
                    "name": "C#4",
                    "ticks": 95456,
                    "time": 172.9276918666667,
                    "velocity": 0.4409448818897638
                },
                {
                    "duration": 0.985508133333326,
                    "durationTicks": 544,
                    "midi": 67,
                    "name": "G4",
                    "ticks": 95456,
                    "time": 172.9276918666667,
                    "velocity": 0.3228346456692913
                },
                {
                    "duration": 0.985508133333326,
                    "durationTicks": 544,
                    "midi": 59,
                    "name": "B3",
                    "ticks": 95456,
                    "time": 172.9276918666667,
                    "velocity": 0.23622047244094488
                },
                {
                    "duration": 0.985508133333326,
                    "durationTicks": 544,
                    "midi": 88,
                    "name": "E6",
                    "ticks": 95456,
                    "time": 172.9276918666667,
                    "velocity": 0.4881889763779528
                },
                {
                    "duration": 0.985508133333326,
                    "durationTicks": 544,
                    "midi": 78,
                    "name": "F#5",
                    "ticks": 95456,
                    "time": 172.9276918666667,
                    "velocity": 0.4094488188976378
                },
                {
                    "duration": 0.985508133333326,
                    "durationTicks": 544,
                    "midi": 83,
                    "name": "B5",
                    "ticks": 95456,
                    "time": 172.9276918666667,
                    "velocity": 0.47244094488188976
                }
            ],
            "endOfTrackTicks": 96000
        },
        {
            "channel": 3,
            "controlChanges": {
                "7": [
                    {
                        "number": 7,
                        "ticks": 0,
                        "time": 0,
                        "value": 0.7480314960629921
                    }
                ],
                "10": [
                    {
                        "number": 10,
                        "ticks": 0,
                        "time": 0,
                        "value": 0.4251968503937008
                    }
                ],
                "91": [
                    {
                        "number": 91,
                        "ticks": 0,
                        "time": 0,
                        "value": 0.31496062992125984
                    }
                ],
                "93": [
                    {
                        "number": 93,
                        "ticks": 0,
                        "time": 0,
                        "value": 0
                    }
                ],
                "123": [
                    {
                        "number": 123,
                        "ticks": 0,
                        "time": 0,
                        "value": 0
                    }
                ]
            },
            "pitchBends": [],
            "instrument": {
                "family": "piano",
                "name": "electric piano 1",
                "number": 4
            },
            "name": "Melody / Rhodes & mute trump",
            "notes": [
                {
                    "duration": 0.5289859833333335,
                    "durationTicks": 292,
                    "midi": 64,
                    "name": "E4",
                    "ticks": 1124,
                    "time": 2.036233716666667,
                    "velocity": 0.8582677165354331
                },
                {
                    "duration": 0.1630436249999998,
                    "durationTicks": 90,
                    "midi": 66,
                    "name": "F#4",
                    "ticks": 1450,
                    "time": 2.626813958333334,
                    "velocity": 0.8582677165354331
                },
                {
                    "duration": 0.27536256666666636,
                    "durationTicks": 152,
                    "midi": 67,
                    "name": "G4",
                    "ticks": 1690,
                    "time": 3.061596958333334,
                    "velocity": 0.8582677165354331
                },
                {
                    "duration": 1.9855090333333334,
                    "durationTicks": 1096,
                    "midi": 72,
                    "name": "C5",
                    "ticks": 1882,
                    "time": 3.4094233583333335,
                    "velocity": 0.9291338582677166
                },
                {
                    "duration": 0.40942065833333263,
                    "durationTicks": 226,
                    "midi": 62,
                    "name": "D4",
                    "ticks": 3076,
                    "time": 5.572468783333334,
                    "velocity": 0.8582677165354331
                },
                {
                    "duration": 0.17753639166666701,
                    "durationTicks": 98,
                    "midi": 64,
                    "name": "E4",
                    "ticks": 3392,
                    "time": 6.144933066666667,
                    "velocity": 0.7874015748031497
                },
                {
                    "duration": 0.2717393750000001,
                    "durationTicks": 150,
                    "midi": 66,
                    "name": "F#4",
                    "ticks": 3608,
                    "time": 6.536237766666667,
                    "velocity": 0.7716535433070866
                },
                {
                    "duration": 0.5543483250000012,
                    "durationTicks": 306,
                    "midi": 71,
                    "name": "B4",
                    "ticks": 3858,
                    "time": 6.989136725,
                    "velocity": 0.8740157480314961
                },
                {
                    "duration": 1.1956532499999994,
                    "durationTicks": 660,
                    "midi": 71,
                    "name": "B4",
                    "ticks": 4264,
                    "time": 7.724644633333334,
                    "velocity": 0.7874015748031497
                },
                {
                    "duration": 0.34058001666666726,
                    "durationTicks": 188,
                    "midi": 60,
                    "name": "C4",
                    "ticks": 4996,
                    "time": 9.050732783333334,
                    "velocity": 0.905511811023622
                },
                {
                    "duration": 0.17753639166666524,
                    "durationTicks": 98,
                    "midi": 62,
                    "name": "D4",
                    "ticks": 5304,
                    "time": 9.608704300000001,
                    "velocity": 0.8267716535433071
                },
                {
                    "duration": 0.27536256666666503,
                    "durationTicks": 152,
                    "midi": 64,
                    "name": "E4",
                    "ticks": 5528,
                    "time": 10.014501766666669,
                    "velocity": 0.7716535433070866
                },
                {
                    "duration": 2.094204783333332,
                    "durationTicks": 1156,
                    "midi": 69,
                    "name": "A4",
                    "ticks": 5698,
                    "time": 10.322473058333335,
                    "velocity": 0.8031496062992126
                },
                {
                    "duration": 0.5072468333333333,
                    "durationTicks": 280,
                    "midi": 59,
                    "name": "B3",
                    "ticks": 6914,
                    "time": 12.525373591666668,
                    "velocity": 0.8031496062992126
                },
                {
                    "duration": 0.6449281166666676,
                    "durationTicks": 356,
                    "midi": 61,
                    "name": "C#4",
                    "ticks": 7214,
                    "time": 13.068852341666668,
                    "velocity": 0.8031496062992126
                },
                {
                    "duration": 0.2282610750000007,
                    "durationTicks": 126,
                    "midi": 63,
                    "name": "D#4",
                    "ticks": 7550,
                    "time": 13.677548541666667,
                    "velocity": 0.7716535433070866
                },
                {
                    "duration": 1.6920305083333336,
                    "durationTicks": 934,
                    "midi": 67,
                    "name": "G4",
                    "ticks": 7708,
                    "time": 13.963780683333335,
                    "velocity": 0.8267716535433071
                },
                {
                    "duration": 0.4239134250000003,
                    "durationTicks": 234,
                    "midi": 64,
                    "name": "E4",
                    "ticks": 8820,
                    "time": 15.978275250000001,
                    "velocity": 0.84251968503937
                },
                {
                    "duration": 0.16304362500000025,
                    "durationTicks": 90,
                    "midi": 66,
                    "name": "F#4",
                    "ticks": 9146,
                    "time": 16.568855491666667,
                    "velocity": 0.7716535433070866
                },
                {
                    "duration": 0.2608698000000018,
                    "durationTicks": 144,
                    "midi": 67,
                    "name": "G4",
                    "ticks": 9368,
                    "time": 16.971029766666668,
                    "velocity": 0.8267716535433071
                },
                {
                    "duration": 1.9094220083333333,
                    "durationTicks": 1054,
                    "midi": 72,
                    "name": "C5",
                    "ticks": 9548,
                    "time": 17.297117016666668,
                    "velocity": 0.9291338582677166
                },
                {
                    "duration": 0.3876815083333369,
                    "durationTicks": 214,
                    "midi": 62,
                    "name": "D4",
                    "ticks": 10752,
                    "time": 19.4782784,
                    "velocity": 0.9606299212598425
                },
                {
                    "duration": 0.14492766666666768,
                    "durationTicks": 80,
                    "midi": 64,
                    "name": "E4",
                    "ticks": 11068,
                    "time": 20.050742683333336,
                    "velocity": 0.84251968503937
                },
                {
                    "duration": 0.19927554166666894,
                    "durationTicks": 110,
                    "midi": 66,
                    "name": "F#4",
                    "ticks": 11292,
                    "time": 20.45654015,
                    "velocity": 0.889763779527559
                },
                {
                    "duration": 0.5615947083333381,
                    "durationTicks": 310,
                    "midi": 71,
                    "name": "B4",
                    "ticks": 11530,
                    "time": 20.887699958333332,
                    "velocity": 0.84251968503937
                },
                {
                    "duration": 1.1086966499999988,
                    "durationTicks": 612,
                    "midi": 71,
                    "name": "B4",
                    "ticks": 11928,
                    "time": 21.6087151,
                    "velocity": 0.8031496062992126
                },
                {
                    "duration": 0.42391342500000206,
                    "durationTicks": 234,
                    "midi": 60,
                    "name": "C4",
                    "ticks": 12672,
                    "time": 22.9565424,
                    "velocity": 0.8267716535433071
                },
                {
                    "duration": 0.1739132000000012,
                    "durationTicks": 96,
                    "midi": 62,
                    "name": "D4",
                    "ticks": 12982,
                    "time": 23.518137108333335,
                    "velocity": 0.8582677165354331
                },
                {
                    "duration": 0.26086979999999826,
                    "durationTicks": 144,
                    "midi": 64,
                    "name": "E4",
                    "ticks": 13212,
                    "time": 23.93480415,
                    "velocity": 0.7716535433070866
                },
                {
                    "duration": 2.050726483333335,
                    "durationTicks": 1132,
                    "midi": 69,
                    "name": "A4",
                    "ticks": 13380,
                    "time": 24.23915225,
                    "velocity": 0.8582677165354331
                },
                {
                    "duration": 0.43115980833333367,
                    "durationTicks": 238,
                    "midi": 66,
                    "name": "F#4",
                    "ticks": 14582,
                    "time": 26.416690441666667,
                    "velocity": 0.905511811023622
                },
                {
                    "duration": 0.24275384166666214,
                    "durationTicks": 134,
                    "midi": 69,
                    "name": "A4",
                    "ticks": 14902,
                    "time": 26.996401108333338,
                    "velocity": 0.8031496062992126
                },
                {
                    "duration": 0.2934785250000047,
                    "durationTicks": 162,
                    "midi": 67,
                    "name": "G4",
                    "ticks": 15126,
                    "time": 27.402198575,
                    "velocity": 0.7086614173228346
                },
                {
                    "duration": 24.26813778333333,
                    "durationTicks": 13396,
                    "midi": 64,
                    "name": "E4",
                    "ticks": 15312,
                    "time": 27.7391554,
                    "velocity": 0.8267716535433071
                },
                {
                    "duration": 5.724642833333334,
                    "durationTicks": 3160,
                    "midi": 64,
                    "name": "E4",
                    "ticks": 28578,
                    "time": 51.77178572500001,
                    "velocity": 0.8267716535433071
                },
                {
                    "duration": 0.9818849416666637,
                    "durationTicks": 542,
                    "midi": 69,
                    "name": "A4",
                    "ticks": 28832,
                    "time": 52.231931066666675,
                    "velocity": 0.8267716535433071
                },
                {
                    "duration": 0.4746381083333375,
                    "durationTicks": 262,
                    "midi": 67,
                    "name": "G4",
                    "ticks": 29476,
                    "time": 53.398598783333334,
                    "velocity": 0.84251968503937
                },
                {
                    "duration": 0.7753630166666667,
                    "durationTicks": 428,
                    "midi": 66,
                    "name": "F#4",
                    "ticks": 29782,
                    "time": 53.95294710833334,
                    "velocity": 0.8031496062992126
                },
                {
                    "duration": 0.17029000833333896,
                    "durationTicks": 94,
                    "midi": 67,
                    "name": "G4",
                    "ticks": 30274,
                    "time": 54.844252258333334,
                    "velocity": 0.8031496062992126
                },
                {
                    "duration": 0.20289873333333475,
                    "durationTicks": 112,
                    "midi": 59,
                    "name": "B3",
                    "ticks": 30510,
                    "time": 55.271788875000006,
                    "velocity": 0.8031496062992126
                },
                {
                    "duration": 58.23193646666667,
                    "durationTicks": 32144,
                    "midi": 64,
                    "name": "E4",
                    "ticks": 30674,
                    "time": 55.56889059166667,
                    "velocity": 0.7401574803149606
                },
                {
                    "duration": 4.257250208333346,
                    "durationTicks": 2350,
                    "midi": 64,
                    "name": "E4",
                    "ticks": 62580,
                    "time": 113.36966725,
                    "velocity": 0.9606299212598425
                },
                {
                    "duration": 0.159420433333338,
                    "durationTicks": 88,
                    "midi": 66,
                    "name": "F#4",
                    "ticks": 62908,
                    "time": 113.96387068333334,
                    "velocity": 0.9291338582677166
                },
                {
                    "duration": 0.2789857583333202,
                    "durationTicks": 154,
                    "midi": 67,
                    "name": "G4",
                    "ticks": 63120,
                    "time": 114.34792900000001,
                    "velocity": 0.8267716535433071
                },
                {
                    "duration": 1.6775377416666686,
                    "durationTicks": 926,
                    "midi": 72,
                    "name": "C5",
                    "ticks": 63304,
                    "time": 114.68126263333333,
                    "velocity": 0.9448818897637795
                },
                {
                    "duration": 0.40942065833333174,
                    "durationTicks": 226,
                    "midi": 62,
                    "name": "D4",
                    "ticks": 64516,
                    "time": 116.87691678333334,
                    "velocity": 0.8582677165354331
                },
                {
                    "duration": 4.144931266666674,
                    "durationTicks": 2288,
                    "midi": 64,
                    "name": "E4",
                    "ticks": 64832,
                    "time": 117.44938106666667,
                    "velocity": 0.7874015748031497
                },
                {
                    "duration": 0.2717393750000099,
                    "durationTicks": 150,
                    "midi": 66,
                    "name": "F#4",
                    "ticks": 65048,
                    "time": 117.84068576666668,
                    "velocity": 0.7716535433070866
                },
                {
                    "duration": 0.5543483250000207,
                    "durationTicks": 306,
                    "midi": 71,
                    "name": "B4",
                    "ticks": 65298,
                    "time": 118.293584725,
                    "velocity": 0.8740157480314961
                },
                {
                    "duration": 1.1956532500000066,
                    "durationTicks": 660,
                    "midi": 71,
                    "name": "B4",
                    "ticks": 65704,
                    "time": 119.02909263333333,
                    "velocity": 0.7874015748031497
                },
                {
                    "duration": 0.3405800166666779,
                    "durationTicks": 188,
                    "midi": 60,
                    "name": "C4",
                    "ticks": 66436,
                    "time": 120.35518078333334,
                    "velocity": 0.905511811023622
                },
                {
                    "duration": 0.17753639166664925,
                    "durationTicks": 98,
                    "midi": 62,
                    "name": "D4",
                    "ticks": 66744,
                    "time": 120.91315230000002,
                    "velocity": 0.8267716535433071
                },
                {
                    "duration": 6.387686908333322,
                    "durationTicks": 3526,
                    "midi": 64,
                    "name": "E4",
                    "ticks": 66968,
                    "time": 121.31894976666669,
                    "velocity": 0.7716535433070866
                },
                {
                    "duration": 2.094204783333325,
                    "durationTicks": 1156,
                    "midi": 69,
                    "name": "A4",
                    "ticks": 67138,
                    "time": 121.62692105833335,
                    "velocity": 0.8031496062992126
                },
                {
                    "duration": 0.5072468333333404,
                    "durationTicks": 280,
                    "midi": 59,
                    "name": "B3",
                    "ticks": 68354,
                    "time": 123.82982159166667,
                    "velocity": 0.8031496062992126
                },
                {
                    "duration": 0.6449281166666765,
                    "durationTicks": 356,
                    "midi": 61,
                    "name": "C#4",
                    "ticks": 68654,
                    "time": 124.37330034166668,
                    "velocity": 0.8031496062992126
                },
                {
                    "duration": 0.22826107500002024,
                    "durationTicks": 126,
                    "midi": 63,
                    "name": "D#4",
                    "ticks": 68990,
                    "time": 124.98199654166666,
                    "velocity": 0.7716535433070866
                },
                {
                    "duration": 1.6920305083333176,
                    "durationTicks": 934,
                    "midi": 67,
                    "name": "G4",
                    "ticks": 69148,
                    "time": 125.26822868333335,
                    "velocity": 0.8267716535433071
                },
                {
                    "duration": 4.2173951000000045,
                    "durationTicks": 2328,
                    "midi": 64,
                    "name": "E4",
                    "ticks": 70260,
                    "time": 127.28272325,
                    "velocity": 0.84251968503937
                },
                {
                    "duration": 0.16304362500001446,
                    "durationTicks": 90,
                    "midi": 66,
                    "name": "F#4",
                    "ticks": 70586,
                    "time": 127.87330349166668,
                    "velocity": 0.7716535433070866
                },
                {
                    "duration": 0.2608697999999947,
                    "durationTicks": 144,
                    "midi": 67,
                    "name": "G4",
                    "ticks": 70808,
                    "time": 128.27547776666668,
                    "velocity": 0.8267716535433071
                },
                {
                    "duration": 1.9094220083333369,
                    "durationTicks": 1054,
                    "midi": 72,
                    "name": "C5",
                    "ticks": 70988,
                    "time": 128.60156501666668,
                    "velocity": 0.9291338582677166
                },
                {
                    "duration": 0.387681508333344,
                    "durationTicks": 214,
                    "midi": 62,
                    "name": "D4",
                    "ticks": 72192,
                    "time": 130.7827264,
                    "velocity": 0.9606299212598425
                },
                {
                    "duration": 4.144931266666646,
                    "durationTicks": 2288,
                    "midi": 64,
                    "name": "E4",
                    "ticks": 72508,
                    "time": 131.35519068333335,
                    "velocity": 0.84251968503937
                },
                {
                    "duration": 0.1992755416666796,
                    "durationTicks": 110,
                    "midi": 66,
                    "name": "F#4",
                    "ticks": 72732,
                    "time": 131.76098815,
                    "velocity": 0.889763779527559
                },
                {
                    "duration": 0.561594708333331,
                    "durationTicks": 310,
                    "midi": 71,
                    "name": "B4",
                    "ticks": 72970,
                    "time": 132.19214795833335,
                    "velocity": 0.84251968503937
                },
                {
                    "duration": 1.108696650000013,
                    "durationTicks": 612,
                    "midi": 71,
                    "name": "B4",
                    "ticks": 73368,
                    "time": 132.9131631,
                    "velocity": 0.8031496062992126
                },
                {
                    "duration": 0.42391342499996654,
                    "durationTicks": 234,
                    "midi": 60,
                    "name": "C4",
                    "ticks": 74112,
                    "time": 134.26099040000003,
                    "velocity": 0.8267716535433071
                },
                {
                    "duration": 0.17391320000001542,
                    "durationTicks": 96,
                    "midi": 62,
                    "name": "D4",
                    "ticks": 74422,
                    "time": 134.82258510833333,
                    "velocity": 0.8582677165354331
                },
                {
                    "duration": 28.072489033333312,
                    "durationTicks": 15496,
                    "midi": 64,
                    "name": "E4",
                    "ticks": 74652,
                    "time": 135.23925215000003,
                    "velocity": 0.7716535433070866
                },
                {
                    "duration": 2.050726483333335,
                    "durationTicks": 1132,
                    "midi": 69,
                    "name": "A4",
                    "ticks": 74820,
                    "time": 135.54360025,
                    "velocity": 0.8582677165354331
                },
                {
                    "duration": 0.43115980833331946,
                    "durationTicks": 238,
                    "midi": 66,
                    "name": "F#4",
                    "ticks": 76022,
                    "time": 137.72113844166668,
                    "velocity": 0.905511811023622
                },
                {
                    "duration": 0.24275384166668346,
                    "durationTicks": 134,
                    "midi": 69,
                    "name": "A4",
                    "ticks": 76342,
                    "time": 138.30084910833332,
                    "velocity": 0.8031496062992126
                },
                {
                    "duration": 0.2934785249999834,
                    "durationTicks": 162,
                    "midi": 67,
                    "name": "G4",
                    "ticks": 76566,
                    "time": 138.706646575,
                    "velocity": 0.7086614173228346
                },
                {
                    "duration": 29.757273158333334,
                    "durationTicks": 16426,
                    "midi": 64,
                    "name": "E4",
                    "ticks": 76752,
                    "time": 139.04360340000002,
                    "velocity": 0.8267716535433071
                },
                {
                    "duration": 6.376817333333349,
                    "durationTicks": 3520,
                    "midi": 64,
                    "name": "E4",
                    "ticks": 90018,
                    "time": 163.076233725,
                    "velocity": 0.8267716535433071
                },
                {
                    "duration": 0.9818849416666637,
                    "durationTicks": 542,
                    "midi": 69,
                    "name": "A4",
                    "ticks": 90272,
                    "time": 163.53637906666668,
                    "velocity": 0.8267716535433071
                },
                {
                    "duration": 0.47463810833335174,
                    "durationTicks": 262,
                    "midi": 67,
                    "name": "G4",
                    "ticks": 90916,
                    "time": 164.70304678333335,
                    "velocity": 0.84251968503937
                },
                {
                    "duration": 0.775363016666688,
                    "durationTicks": 428,
                    "midi": 66,
                    "name": "F#4",
                    "ticks": 91222,
                    "time": 165.25739510833333,
                    "velocity": 0.8031496062992126
                },
                {
                    "duration": 0.17029000833335317,
                    "durationTicks": 94,
                    "midi": 67,
                    "name": "G4",
                    "ticks": 91714,
                    "time": 166.14870025833335,
                    "velocity": 0.8031496062992126
                },
                {
                    "duration": 0.20289873333331343,
                    "durationTicks": 112,
                    "midi": 59,
                    "name": "B3",
                    "ticks": 91950,
                    "time": 166.576236875,
                    "velocity": 0.8031496062992126
                },
                {
                    "duration": 7.043484599999999,
                    "durationTicks": 3888,
                    "midi": 64,
                    "name": "E4",
                    "ticks": 92114,
                    "time": 166.87333859166668,
                    "velocity": 0.7401574803149606
                },
                {
                    "duration": 0.159420433333338,
                    "durationTicks": 88,
                    "midi": 66,
                    "name": "F#4",
                    "ticks": 93628,
                    "time": 169.61609468333336,
                    "velocity": 0.9291338582677166
                },
                {
                    "duration": 0.2789857583333344,
                    "durationTicks": 154,
                    "midi": 67,
                    "name": "G4",
                    "ticks": 93840,
                    "time": 170.000153,
                    "velocity": 0.8267716535433071
                },
                {
                    "duration": 1.6775377416666686,
                    "durationTicks": 926,
                    "midi": 72,
                    "name": "C5",
                    "ticks": 94024,
                    "time": 170.33348663333334,
                    "velocity": 0.9448818897637795
                },
                {
                    "duration": 0.3985510833333308,
                    "durationTicks": 220,
                    "midi": 78,
                    "name": "F#5",
                    "ticks": 94294,
                    "time": 170.82261750833334,
                    "velocity": 0.7559055118110236
                },
                {
                    "duration": 0.8369572749999747,
                    "durationTicks": 462,
                    "midi": 76,
                    "name": "E5",
                    "ticks": 94464,
                    "time": 171.13058880000003,
                    "velocity": 0.6299212598425197
                },
                {
                    "duration": 0.4057974666666553,
                    "durationTicks": 224,
                    "midi": 73,
                    "name": "C#5",
                    "ticks": 94620,
                    "time": 171.41319775000002,
                    "velocity": 0.5748031496062992
                },
                {
                    "duration": 0.35507278333335535,
                    "durationTicks": 196,
                    "midi": 71,
                    "name": "B4",
                    "ticks": 94774,
                    "time": 171.69218350833333,
                    "velocity": 0.6299212598425197
                },
                {
                    "duration": 0.46376853333333656,
                    "durationTicks": 256,
                    "midi": 67,
                    "name": "G4",
                    "ticks": 94918,
                    "time": 171.95305330833335,
                    "velocity": 0.6220472440944882
                }
            ],
            "endOfTrackTicks": 96002
        },
        {
            "channel": 3,
            "controlChanges": {},
            "pitchBends": [],
            "instrument": {
                "family": "brass",
                "name": "muted trumpet",
                "number": 59
            },
            "name": "",
            "notes": [
                {
                    "duration": 0.1666668166666696,
                    "durationTicks": 92,
                    "midi": 64,
                    "name": "E4",
                    "ticks": 16718,
                    "time": 30.28625914166667,
                    "velocity": 0.9606299212598425
                },
                {
                    "duration": 0.22101469166667087,
                    "durationTicks": 122,
                    "midi": 63,
                    "name": "D#4",
                    "ticks": 16884,
                    "time": 30.586984049999998,
                    "velocity": 0.5984251968503937
                },
                {
                    "duration": 0.2898553333333318,
                    "durationTicks": 160,
                    "midi": 64,
                    "name": "E4",
                    "ticks": 17054,
                    "time": 30.89495534166667,
                    "velocity": 0.7716535433070866
                },
                {
                    "duration": 0.6050730083333313,
                    "durationTicks": 334,
                    "midi": 66,
                    "name": "F#4",
                    "ticks": 17298,
                    "time": 31.336984725000004,
                    "velocity": 0.8740157480314961
                },
                {
                    "duration": 0.2608697999999947,
                    "durationTicks": 144,
                    "midi": 59,
                    "name": "B3",
                    "ticks": 17650,
                    "time": 31.97466645833334,
                    "velocity": 0.6299212598425197
                },
                {
                    "duration": 1.2391315499999962,
                    "durationTicks": 684,
                    "midi": 66,
                    "name": "F#4",
                    "ticks": 17808,
                    "time": 32.260898600000004,
                    "velocity": 0.6929133858267716
                },
                {
                    "duration": 0.28260895000000374,
                    "durationTicks": 156,
                    "midi": 66,
                    "name": "F#4",
                    "ticks": 18638,
                    "time": 33.764523141666665,
                    "velocity": 1
                },
                {
                    "duration": 0.18478277500000218,
                    "durationTicks": 102,
                    "midi": 64,
                    "name": "E4",
                    "ticks": 18810,
                    "time": 34.076117625,
                    "velocity": 0.7401574803149606
                },
                {
                    "duration": 0.17753639166666346,
                    "durationTicks": 98,
                    "midi": 66,
                    "name": "F#4",
                    "ticks": 18970,
                    "time": 34.36597295833334,
                    "velocity": 0.84251968503937
                },
                {
                    "duration": 1.7753639166666701,
                    "durationTicks": 980,
                    "midi": 67,
                    "name": "G4",
                    "ticks": 19156,
                    "time": 34.70292978333333,
                    "velocity": 0.8267716535433071
                },
                {
                    "duration": 0.31521767500000664,
                    "durationTicks": 174,
                    "midi": 67,
                    "name": "G4",
                    "ticks": 20360,
                    "time": 36.884091166666664,
                    "velocity": 0.8740157480314961
                },
                {
                    "duration": 0.126811708333328,
                    "durationTicks": 70,
                    "midi": 66,
                    "name": "F#4",
                    "ticks": 20676,
                    "time": 37.45655545,
                    "velocity": 0.9291338582677166
                },
                {
                    "duration": 0.206521924999997,
                    "durationTicks": 114,
                    "midi": 67,
                    "name": "G4",
                    "ticks": 20890,
                    "time": 37.84423695833334,
                    "velocity": 0.8267716535433071
                },
                {
                    "duration": 2.119567124999996,
                    "durationTicks": 1170,
                    "midi": 69,
                    "name": "A4",
                    "ticks": 21074,
                    "time": 38.17757059166667,
                    "velocity": 0.84251968503937
                },
                {
                    "duration": 0.5144932166666649,
                    "durationTicks": 284,
                    "midi": 62,
                    "name": "D4",
                    "ticks": 22272,
                    "time": 40.347862400000004,
                    "velocity": 0.905511811023622
                },
                {
                    "duration": 0.583333858333333,
                    "durationTicks": 322,
                    "midi": 74,
                    "name": "D5",
                    "ticks": 22572,
                    "time": 40.89134115,
                    "velocity": 0.8740157480314961
                },
                {
                    "duration": 0.2644929916666712,
                    "durationTicks": 146,
                    "midi": 72,
                    "name": "C5",
                    "ticks": 22918,
                    "time": 41.51815330833333,
                    "velocity": 0.84251968503937
                },
                {
                    "duration": 2.507248633333333,
                    "durationTicks": 1384,
                    "midi": 71,
                    "name": "B4",
                    "ticks": 23076,
                    "time": 41.804385450000005,
                    "velocity": 0.7559055118110236
                },
                {
                    "duration": 0.1666668166666696,
                    "durationTicks": 92,
                    "midi": 70,
                    "name": "A#4",
                    "ticks": 24642,
                    "time": 44.641344525,
                    "velocity": 0.9448818897637795
                },
                {
                    "duration": 0.1920291583333409,
                    "durationTicks": 106,
                    "midi": 71,
                    "name": "B4",
                    "ticks": 24800,
                    "time": 44.92757666666667,
                    "velocity": 0.8267716535433071
                },
                {
                    "duration": 0.5289859833333352,
                    "durationTicks": 292,
                    "midi": 72,
                    "name": "C5",
                    "ticks": 24974,
                    "time": 45.242794341666674,
                    "velocity": 0.889763779527559
                },
                {
                    "duration": 0.28260895000000374,
                    "durationTicks": 156,
                    "midi": 72,
                    "name": "C5",
                    "ticks": 25314,
                    "time": 45.858736925,
                    "velocity": 0.84251968503937
                },
                {
                    "duration": 0.21014511666666635,
                    "durationTicks": 116,
                    "midi": 69,
                    "name": "A4",
                    "ticks": 25480,
                    "time": 46.15946183333334,
                    "velocity": 0.8031496062992126
                },
                {
                    "duration": 0.2717393750000028,
                    "durationTicks": 150,
                    "midi": 69,
                    "name": "A4",
                    "ticks": 25666,
                    "time": 46.49641865833333,
                    "velocity": 0.7559055118110236
                },
                {
                    "duration": 1.0724647333333266,
                    "durationTicks": 592,
                    "midi": 66,
                    "name": "F#4",
                    "ticks": 25862,
                    "time": 46.851491441666674,
                    "velocity": 0.8267716535433071
                },
                {
                    "duration": 0.1992755416666654,
                    "durationTicks": 110,
                    "midi": 71,
                    "name": "B4",
                    "ticks": 26572,
                    "time": 48.137724483333336,
                    "velocity": 0.84251968503937
                },
                {
                    "duration": 0.45652215000000496,
                    "durationTicks": 252,
                    "midi": 72,
                    "name": "C5",
                    "ticks": 26624,
                    "time": 48.23192746666667,
                    "velocity": 0.8031496062992126
                },
                {
                    "duration": 0.5434787500000056,
                    "durationTicks": 300,
                    "midi": 71,
                    "name": "B4",
                    "ticks": 26896,
                    "time": 48.72468153333333,
                    "velocity": 0.84251968503937
                },
                {
                    "duration": 106.15951583333333,
                    "durationTicks": 58600,
                    "midi": 71,
                    "name": "B4",
                    "ticks": 27300,
                    "time": 49.45656625,
                    "velocity": 0.84251968503937
                },
                {
                    "duration": 0.1666668166666625,
                    "durationTicks": 92,
                    "midi": 64,
                    "name": "E4",
                    "ticks": 78158,
                    "time": 141.59070714166668,
                    "velocity": 0.9606299212598425
                },
                {
                    "duration": 0.2210146916666531,
                    "durationTicks": 122,
                    "midi": 63,
                    "name": "D#4",
                    "ticks": 78324,
                    "time": 141.89143205000002,
                    "velocity": 0.5984251968503937
                },
                {
                    "duration": 0.28985533333334956,
                    "durationTicks": 160,
                    "midi": 64,
                    "name": "E4",
                    "ticks": 78494,
                    "time": 142.19940334166668,
                    "velocity": 0.7716535433070866
                },
                {
                    "duration": 0.6050730083333065,
                    "durationTicks": 334,
                    "midi": 66,
                    "name": "F#4",
                    "ticks": 78738,
                    "time": 142.64143272500002,
                    "velocity": 0.8740157480314961
                },
                {
                    "duration": 0.2608697999999947,
                    "durationTicks": 144,
                    "midi": 59,
                    "name": "B3",
                    "ticks": 79090,
                    "time": 143.27911445833334,
                    "velocity": 0.6299212598425197
                },
                {
                    "duration": 1.2391315500000246,
                    "durationTicks": 684,
                    "midi": 66,
                    "name": "F#4",
                    "ticks": 79248,
                    "time": 143.5653466,
                    "velocity": 0.6929133858267716
                },
                {
                    "duration": 0.28260894999999664,
                    "durationTicks": 156,
                    "midi": 66,
                    "name": "F#4",
                    "ticks": 80078,
                    "time": 145.06897114166668,
                    "velocity": 1
                },
                {
                    "duration": 0.18478277500000218,
                    "durationTicks": 102,
                    "midi": 64,
                    "name": "E4",
                    "ticks": 80250,
                    "time": 145.380565625,
                    "velocity": 0.7401574803149606
                },
                {
                    "duration": 0.17753639166664925,
                    "durationTicks": 98,
                    "midi": 66,
                    "name": "F#4",
                    "ticks": 80410,
                    "time": 145.67042095833335,
                    "velocity": 0.84251968503937
                },
                {
                    "duration": 1.775363916666663,
                    "durationTicks": 980,
                    "midi": 67,
                    "name": "G4",
                    "ticks": 80596,
                    "time": 146.00737778333334,
                    "velocity": 0.8267716535433071
                },
                {
                    "duration": 0.31521767500001374,
                    "durationTicks": 174,
                    "midi": 67,
                    "name": "G4",
                    "ticks": 81800,
                    "time": 148.18853916666666,
                    "velocity": 0.8740157480314961
                },
                {
                    "duration": 0.12681170833334932,
                    "durationTicks": 70,
                    "midi": 66,
                    "name": "F#4",
                    "ticks": 82116,
                    "time": 148.76100345,
                    "velocity": 0.9291338582677166
                },
                {
                    "duration": 0.20652192499997568,
                    "durationTicks": 114,
                    "midi": 67,
                    "name": "G4",
                    "ticks": 82330,
                    "time": 149.14868495833335,
                    "velocity": 0.8267716535433071
                },
                {
                    "duration": 2.119567125000003,
                    "durationTicks": 1170,
                    "midi": 69,
                    "name": "A4",
                    "ticks": 82514,
                    "time": 149.48201859166667,
                    "velocity": 0.84251968503937
                },
                {
                    "duration": 0.5144932166666933,
                    "durationTicks": 284,
                    "midi": 62,
                    "name": "D4",
                    "ticks": 83712,
                    "time": 151.6523104,
                    "velocity": 0.905511811023622
                },
                {
                    "duration": 0.5833338583333045,
                    "durationTicks": 322,
                    "midi": 74,
                    "name": "D5",
                    "ticks": 84012,
                    "time": 152.19578915000002,
                    "velocity": 0.8740157480314961
                },
                {
                    "duration": 0.26449299166665696,
                    "durationTicks": 146,
                    "midi": 72,
                    "name": "C5",
                    "ticks": 84358,
                    "time": 152.82260130833336,
                    "velocity": 0.84251968503937
                },
                {
                    "duration": 3.3152203749999956,
                    "durationTicks": 1830,
                    "midi": 71,
                    "name": "B4",
                    "ticks": 84516,
                    "time": 153.10883345,
                    "velocity": 0.7559055118110236
                },
                {
                    "duration": 0.1666668166666625,
                    "durationTicks": 92,
                    "midi": 70,
                    "name": "A#4",
                    "ticks": 86082,
                    "time": 155.94579252500003,
                    "velocity": 0.9448818897637795
                },
                {
                    "duration": 3.409423358333356,
                    "durationTicks": 1882,
                    "midi": 71,
                    "name": "B4",
                    "ticks": 86240,
                    "time": 156.23202466666666,
                    "velocity": 0.8267716535433071
                },
                {
                    "duration": 0.5289859833333139,
                    "durationTicks": 292,
                    "midi": 72,
                    "name": "C5",
                    "ticks": 86414,
                    "time": 156.54724234166667,
                    "velocity": 0.889763779527559
                },
                {
                    "duration": 0.28260894999999664,
                    "durationTicks": 156,
                    "midi": 72,
                    "name": "C5",
                    "ticks": 86754,
                    "time": 157.16318492500002,
                    "velocity": 0.84251968503937
                },
                {
                    "duration": 0.21014511666663793,
                    "durationTicks": 116,
                    "midi": 69,
                    "name": "A4",
                    "ticks": 86920,
                    "time": 157.46390983333336,
                    "velocity": 0.8031496062992126
                },
                {
                    "duration": 0.27173937499998146,
                    "durationTicks": 150,
                    "midi": 69,
                    "name": "A4",
                    "ticks": 87106,
                    "time": 157.80086665833335,
                    "velocity": 0.7559055118110236
                },
                {
                    "duration": 1.0724647333333337,
                    "durationTicks": 592,
                    "midi": 66,
                    "name": "F#4",
                    "ticks": 87302,
                    "time": 158.15593944166667,
                    "velocity": 0.8267716535433071
                },
                {
                    "duration": 1.130435800000015,
                    "durationTicks": 624,
                    "midi": 71,
                    "name": "B4",
                    "ticks": 88012,
                    "time": 159.44217248333334,
                    "velocity": 0.84251968503937
                },
                {
                    "duration": 0.45652215000001206,
                    "durationTicks": 252,
                    "midi": 72,
                    "name": "C5",
                    "ticks": 88064,
                    "time": 159.53637546666667,
                    "velocity": 0.8031496062992126
                }
            ]
        },
        {
            "channel": 4,
            "controlChanges": {
                "7": [
                    {
                        "number": 7,
                        "ticks": 0,
                        "time": 0,
                        "value": 0.7086614173228346
                    }
                ],
                "10": [
                    {
                        "number": 10,
                        "ticks": 0,
                        "time": 0,
                        "value": 0.5826771653543307
                    }
                ],
                "91": [
                    {
                        "number": 91,
                        "ticks": 0,
                        "time": 0,
                        "value": 0.31496062992125984
                    }
                ],
                "93": [
                    {
                        "number": 93,
                        "ticks": 0,
                        "time": 0,
                        "value": 0
                    }
                ],
                "123": [
                    {
                        "number": 123,
                        "ticks": 0,
                        "time": 0,
                        "value": 0
                    }
                ]
            },
            "pitchBends": [],
            "instrument": {
                "family": "reed",
                "name": "tenor sax",
                "number": 66
            },
            "name": "Solo / Tenor sax",
            "notes": [
                {
                    "duration": 0.19565234999998893,
                    "durationTicks": 108,
                    "midi": 57,
                    "name": "A3",
                    "ticks": 32662,
                    "time": 59.17034310833334,
                    "velocity": 0.7874015748031497
                },
                {
                    "duration": 0.09057979166665575,
                    "durationTicks": 50,
                    "midi": 59,
                    "name": "B3",
                    "ticks": 32810,
                    "time": 59.438459291666675,
                    "velocity": 0.9921259842519685
                },
                {
                    "duration": 0.15942043333332379,
                    "durationTicks": 88,
                    "midi": 60,
                    "name": "C4",
                    "ticks": 32900,
                    "time": 59.601502916666675,
                    "velocity": 0.9133858267716536
                },
                {
                    "duration": 0.1195653250000035,
                    "durationTicks": 66,
                    "midi": 62,
                    "name": "D4",
                    "ticks": 33038,
                    "time": 59.85150314166667,
                    "velocity": 1
                },
                {
                    "duration": 0.17753639166667057,
                    "durationTicks": 98,
                    "midi": 64,
                    "name": "E4",
                    "ticks": 33132,
                    "time": 60.02179315000001,
                    "velocity": 0.905511811023622
                },
                {
                    "duration": 0.10144936666667093,
                    "durationTicks": 56,
                    "midi": 60,
                    "name": "C4",
                    "ticks": 33278,
                    "time": 60.28628614166667,
                    "velocity": 1
                },
                {
                    "duration": 0.10144936666667093,
                    "durationTicks": 56,
                    "midi": 59,
                    "name": "B3",
                    "ticks": 33370,
                    "time": 60.452952958333334,
                    "velocity": 0.7559055118110236
                },
                {
                    "duration": 0.0869565999999935,
                    "durationTicks": 48,
                    "midi": 60,
                    "name": "C4",
                    "ticks": 33426,
                    "time": 60.554402325000005,
                    "velocity": 0.6692913385826772
                },
                {
                    "duration": 0.13043490000000446,
                    "durationTicks": 72,
                    "midi": 59,
                    "name": "B3",
                    "ticks": 33472,
                    "time": 60.637735733333336,
                    "velocity": 0.6692913385826772
                },
                {
                    "duration": 0.1195653250000035,
                    "durationTicks": 66,
                    "midi": 57,
                    "name": "A3",
                    "ticks": 33532,
                    "time": 60.74643148333334,
                    "velocity": 0.8110236220472441
                },
                {
                    "duration": 0.16304362500000025,
                    "durationTicks": 90,
                    "midi": 63,
                    "name": "D#4",
                    "ticks": 33618,
                    "time": 60.902228725,
                    "velocity": 0.984251968503937
                },
                {
                    "duration": 0.11594213333334125,
                    "durationTicks": 64,
                    "midi": 65,
                    "name": "F4",
                    "ticks": 33758,
                    "time": 61.15585214166667,
                    "velocity": 0.9448818897637795
                },
                {
                    "duration": 0.16304362500000025,
                    "durationTicks": 90,
                    "midi": 62,
                    "name": "D4",
                    "ticks": 33858,
                    "time": 61.337011724999996,
                    "velocity": 0.8661417322834646
                },
                {
                    "duration": 0.10507255833331897,
                    "durationTicks": 58,
                    "midi": 60,
                    "name": "C4",
                    "ticks": 34002,
                    "time": 61.59788152500001,
                    "velocity": 0.8503937007874016
                },
                {
                    "duration": 0.18115958333334703,
                    "durationTicks": 100,
                    "midi": 58,
                    "name": "A#3",
                    "ticks": 34106,
                    "time": 61.78628749166666,
                    "velocity": 0.8740157480314961
                },
                {
                    "duration": 0.12318851666667996,
                    "durationTicks": 68,
                    "midi": 50,
                    "name": "D3",
                    "ticks": 34256,
                    "time": 62.058026866666665,
                    "velocity": 0.3464566929133858
                },
                {
                    "duration": 0.159420433333338,
                    "durationTicks": 88,
                    "midi": 54,
                    "name": "F#3",
                    "ticks": 34334,
                    "time": 62.19933134166667,
                    "velocity": 0.7322834645669292
                },
                {
                    "duration": 0.5688410916666697,
                    "durationTicks": 314,
                    "midi": 57,
                    "name": "A3",
                    "ticks": 34492,
                    "time": 62.48556348333334,
                    "velocity": 1
                },
                {
                    "duration": 0.19565235000000314,
                    "durationTicks": 108,
                    "midi": 55,
                    "name": "G3",
                    "ticks": 34816,
                    "time": 63.07252053333334,
                    "velocity": 0.7322834645669292
                },
                {
                    "duration": 0.13043490000000446,
                    "durationTicks": 72,
                    "midi": 54,
                    "name": "F#3",
                    "ticks": 34988,
                    "time": 63.38411501666667,
                    "velocity": 0.8346456692913385
                },
                {
                    "duration": 0.13768128333332896,
                    "durationTicks": 76,
                    "midi": 50,
                    "name": "D3",
                    "ticks": 35228,
                    "time": 63.81889801666667,
                    "velocity": 0.6299212598425197
                },
                {
                    "duration": 0.1666668166666554,
                    "durationTicks": 92,
                    "midi": 52,
                    "name": "E3",
                    "ticks": 35316,
                    "time": 63.97831845000001,
                    "velocity": 0.5590551181102362
                },
                {
                    "duration": 0.1195653250000106,
                    "durationTicks": 66,
                    "midi": 54,
                    "name": "F#3",
                    "ticks": 35448,
                    "time": 64.2174491,
                    "velocity": 1
                },
                {
                    "duration": 0.14855085833333703,
                    "durationTicks": 82,
                    "midi": 55,
                    "name": "G3",
                    "ticks": 35560,
                    "time": 64.42034783333334,
                    "velocity": 0.8346456692913385
                },
                {
                    "duration": 0.15579724166666153,
                    "durationTicks": 86,
                    "midi": 57,
                    "name": "A3",
                    "ticks": 35694,
                    "time": 64.66310167500001,
                    "velocity": 0.984251968503937
                },
                {
                    "duration": 0.15579724166666153,
                    "durationTicks": 86,
                    "midi": 54,
                    "name": "F#3",
                    "ticks": 35790,
                    "time": 64.83701487500001,
                    "velocity": 0.7716535433070866
                },
                {
                    "duration": 0.12318851666667285,
                    "durationTicks": 68,
                    "midi": 50,
                    "name": "D3",
                    "ticks": 35936,
                    "time": 65.10150786666667,
                    "velocity": 0.7480314960629921
                },
                {
                    "duration": 0.3260872500000005,
                    "durationTicks": 180,
                    "midi": 47,
                    "name": "B2",
                    "ticks": 36030,
                    "time": 65.271797875,
                    "velocity": 0.3228346456692913
                },
                {
                    "duration": 0.25000022499999375,
                    "durationTicks": 138,
                    "midi": 45,
                    "name": "A2",
                    "ticks": 36260,
                    "time": 65.68846491666667,
                    "velocity": 0.4645669291338583
                },
                {
                    "duration": 0.2463770333333315,
                    "durationTicks": 136,
                    "midi": 51,
                    "name": "D#3",
                    "ticks": 37944,
                    "time": 68.7391923,
                    "velocity": 0.7952755905511811
                },
                {
                    "duration": 0.12318851666665864,
                    "durationTicks": 68,
                    "midi": 52,
                    "name": "E3",
                    "ticks": 38098,
                    "time": 69.01817805833335,
                    "velocity": 0.8503937007874016
                },
                {
                    "duration": 0.16304362500000025,
                    "durationTicks": 90,
                    "midi": 54,
                    "name": "F#3",
                    "ticks": 38190,
                    "time": 69.18484487500001,
                    "velocity": 0.8188976377952756
                },
                {
                    "duration": 0.14492766666667478,
                    "durationTicks": 80,
                    "midi": 57,
                    "name": "A3",
                    "ticks": 38318,
                    "time": 69.41672914166666,
                    "velocity": 0.952755905511811
                },
                {
                    "duration": 0.2789857583333344,
                    "durationTicks": 154,
                    "midi": 55,
                    "name": "G3",
                    "ticks": 38426,
                    "time": 69.61238149166667,
                    "velocity": 0.8267716535433071
                },
                {
                    "duration": 0.09057979166666996,
                    "durationTicks": 50,
                    "midi": 59,
                    "name": "B3",
                    "ticks": 39616,
                    "time": 71.76818053333334,
                    "velocity": 0.5511811023622047
                },
                {
                    "duration": 0.09782617499999446,
                    "durationTicks": 54,
                    "midi": 62,
                    "name": "D4",
                    "ticks": 39694,
                    "time": 71.90948500833335,
                    "velocity": 0.7874015748031497
                },
                {
                    "duration": 0.12318851666667285,
                    "durationTicks": 68,
                    "midi": 65,
                    "name": "F4",
                    "ticks": 39776,
                    "time": 72.05803586666667,
                    "velocity": 0.9921259842519685
                },
                {
                    "duration": 0.18478277500000218,
                    "durationTicks": 102,
                    "midi": 68,
                    "name": "G#4",
                    "ticks": 39866,
                    "time": 72.22107949166667,
                    "velocity": 1
                },
                {
                    "duration": 0.36231916666667985,
                    "durationTicks": 200,
                    "midi": 71,
                    "name": "B4",
                    "ticks": 40028,
                    "time": 72.51455801666667,
                    "velocity": 1
                },
                {
                    "duration": 0.09782617500000867,
                    "durationTicks": 54,
                    "midi": 70,
                    "name": "A#4",
                    "ticks": 40272,
                    "time": 72.9565874,
                    "velocity": 1
                },
                {
                    "duration": 0.22463788333331536,
                    "durationTicks": 124,
                    "midi": 69,
                    "name": "A4",
                    "ticks": 40364,
                    "time": 73.12325421666668,
                    "velocity": 0.952755905511811
                },
                {
                    "duration": 0.13768128333333607,
                    "durationTicks": 76,
                    "midi": 64,
                    "name": "E4",
                    "ticks": 40514,
                    "time": 73.39499359166668,
                    "velocity": 1
                },
                {
                    "duration": 0.22463788333332957,
                    "durationTicks": 124,
                    "midi": 60,
                    "name": "C4",
                    "ticks": 40604,
                    "time": 73.55803721666668,
                    "velocity": 0.8582677165354331
                },
                {
                    "duration": 0.12318851666667285,
                    "durationTicks": 68,
                    "midi": 57,
                    "name": "A3",
                    "ticks": 40758,
                    "time": 73.837022975,
                    "velocity": 0.8346456692913385
                },
                {
                    "duration": 0.22463788333332957,
                    "durationTicks": 124,
                    "midi": 68,
                    "name": "G#4",
                    "ticks": 40834,
                    "time": 73.97470425833335,
                    "velocity": 1
                },
                {
                    "duration": 0.11231894166665768,
                    "durationTicks": 62,
                    "midi": 64,
                    "name": "E4",
                    "ticks": 41000,
                    "time": 74.27542916666668,
                    "velocity": 0.5511811023622047
                },
                {
                    "duration": 0.18840596666666443,
                    "durationTicks": 104,
                    "midi": 67,
                    "name": "G4",
                    "ticks": 41068,
                    "time": 74.39861768333334,
                    "velocity": 1
                },
                {
                    "duration": 0.15579724166666153,
                    "durationTicks": 86,
                    "midi": 64,
                    "name": "E4",
                    "ticks": 41220,
                    "time": 74.67398025,
                    "velocity": 1
                },
                {
                    "duration": 0.2463770333333315,
                    "durationTicks": 136,
                    "midi": 60,
                    "name": "C4",
                    "ticks": 41302,
                    "time": 74.82253110833334,
                    "velocity": 0.905511811023622
                },
                {
                    "duration": 0.09057979166666996,
                    "durationTicks": 50,
                    "midi": 57,
                    "name": "A3",
                    "ticks": 41460,
                    "time": 75.10876325000001,
                    "velocity": 0.5905511811023622
                },
                {
                    "duration": 0.25000022500000796,
                    "durationTicks": 138,
                    "midi": 66,
                    "name": "F#4",
                    "ticks": 41536,
                    "time": 75.24644453333333,
                    "velocity": 1
                },
                {
                    "duration": 0.12318851666667285,
                    "durationTicks": 68,
                    "midi": 67,
                    "name": "G4",
                    "ticks": 41704,
                    "time": 75.55079263333334,
                    "velocity": 1
                },
                {
                    "duration": 0.13043490000001157,
                    "durationTicks": 72,
                    "midi": 64,
                    "name": "E4",
                    "ticks": 41940,
                    "time": 75.97832925,
                    "velocity": 1
                },
                {
                    "duration": 0.1195653250000106,
                    "durationTicks": 66,
                    "midi": 65,
                    "name": "F4",
                    "ticks": 42168,
                    "time": 76.3913731,
                    "velocity": 1
                },
                {
                    "duration": 0.17029000833333896,
                    "durationTicks": 94,
                    "midi": 66,
                    "name": "F#4",
                    "ticks": 42280,
                    "time": 76.59427183333334,
                    "velocity": 1
                },
                {
                    "duration": 0.1268117083333209,
                    "durationTicks": 70,
                    "midi": 64,
                    "name": "E4",
                    "ticks": 42418,
                    "time": 76.84427205833335,
                    "velocity": 1
                },
                {
                    "duration": 0.21376830833334282,
                    "durationTicks": 118,
                    "midi": 62,
                    "name": "D4",
                    "ticks": 42526,
                    "time": 77.03992440833333,
                    "velocity": 0.7559055118110236
                },
                {
                    "duration": 0.15217404999999928,
                    "durationTicks": 84,
                    "midi": 60,
                    "name": "C4",
                    "ticks": 42666,
                    "time": 77.293547825,
                    "velocity": 0.937007874015748
                },
                {
                    "duration": 0.2681161833333334,
                    "durationTicks": 148,
                    "midi": 59,
                    "name": "B3",
                    "ticks": 42756,
                    "time": 77.45659145,
                    "velocity": 0.9448818897637795
                },
                {
                    "duration": 0.12318851666667285,
                    "durationTicks": 68,
                    "midi": 55,
                    "name": "G3",
                    "ticks": 42902,
                    "time": 77.72108444166666,
                    "velocity": 0.8503937007874016
                },
                {
                    "duration": 0.17753639166666346,
                    "durationTicks": 98,
                    "midi": 57,
                    "name": "A3",
                    "ticks": 42988,
                    "time": 77.87688168333334,
                    "velocity": 0.8503937007874016
                },
                {
                    "duration": 0.14492766666667478,
                    "durationTicks": 80,
                    "midi": 59,
                    "name": "B3",
                    "ticks": 43128,
                    "time": 78.1305051,
                    "velocity": 1
                },
                {
                    "duration": 0.15942043333332379,
                    "durationTicks": 88,
                    "midi": 64,
                    "name": "E4",
                    "ticks": 43220,
                    "time": 78.29717191666667,
                    "velocity": 0.8740157480314961
                },
                {
                    "duration": 0.11231894166667189,
                    "durationTicks": 62,
                    "midi": 57,
                    "name": "A3",
                    "ticks": 43356,
                    "time": 78.54354895,
                    "velocity": 0.7795275590551181
                },
                {
                    "duration": 0.15217404999999928,
                    "durationTicks": 84,
                    "midi": 64,
                    "name": "E4",
                    "ticks": 43590,
                    "time": 78.96746237500001,
                    "velocity": 0.9763779527559056
                },
                {
                    "duration": 0.1811595833333257,
                    "durationTicks": 100,
                    "midi": 59,
                    "name": "B3",
                    "ticks": 43700,
                    "time": 79.16673791666668,
                    "velocity": 0.7322834645669292
                },
                {
                    "duration": 0.11594213333331993,
                    "durationTicks": 64,
                    "midi": 57,
                    "name": "A3",
                    "ticks": 43820,
                    "time": 79.38412941666668,
                    "velocity": 0.7716535433070866
                },
                {
                    "duration": 0.3731887416666524,
                    "durationTicks": 206,
                    "midi": 52,
                    "name": "E3",
                    "ticks": 43910,
                    "time": 79.54717304166668,
                    "velocity": 0.4409448818897638
                },
                {
                    "duration": 0.253623416666656,
                    "durationTicks": 140,
                    "midi": 54,
                    "name": "F#3",
                    "ticks": 44412,
                    "time": 80.45659415000002,
                    "velocity": 0.7952755905511811
                },
                {
                    "duration": 0.14855085833333703,
                    "durationTicks": 82,
                    "midi": 59,
                    "name": "B3",
                    "ticks": 44562,
                    "time": 80.72833352500001,
                    "velocity": 0.9133858267716536
                },
                {
                    "duration": 0.7028991833333151,
                    "durationTicks": 388,
                    "midi": 60,
                    "name": "C4",
                    "ticks": 44644,
                    "time": 80.87688438333335,
                    "velocity": 1
                },
                {
                    "duration": 0.13768128333332186,
                    "durationTicks": 76,
                    "midi": 59,
                    "name": "B3",
                    "ticks": 45040,
                    "time": 81.59427633333334,
                    "velocity": 0.937007874015748
                },
                {
                    "duration": 0.25000022500000796,
                    "durationTicks": 138,
                    "midi": 57,
                    "name": "A3",
                    "ticks": 45126,
                    "time": 81.750073575,
                    "velocity": 0.7322834645669292
                },
                {
                    "duration": 0.30434809999999857,
                    "durationTicks": 168,
                    "midi": 57,
                    "name": "A3",
                    "ticks": 45352,
                    "time": 82.15949423333333,
                    "velocity": 0.8582677165354331
                },
                {
                    "duration": 0.1340580916666596,
                    "durationTicks": 74,
                    "midi": 63,
                    "name": "D#4",
                    "ticks": 45504,
                    "time": 82.4348568,
                    "velocity": 0.952755905511811
                },
                {
                    "duration": 0.6050730083333349,
                    "durationTicks": 334,
                    "midi": 65,
                    "name": "F4",
                    "ticks": 45600,
                    "time": 82.60877,
                    "velocity": 0.9763779527559056
                },
                {
                    "duration": 0.29710171666667406,
                    "durationTicks": 164,
                    "midi": 69,
                    "name": "A4",
                    "ticks": 47300,
                    "time": 85.68848291666667,
                    "velocity": 1
                },
                {
                    "duration": 0.0724638333333445,
                    "durationTicks": 40,
                    "midi": 66,
                    "name": "F#4",
                    "ticks": 47484,
                    "time": 86.02181655,
                    "velocity": 0.5196850393700787
                },
                {
                    "duration": 0.2644929916666712,
                    "durationTicks": 146,
                    "midi": 67,
                    "name": "G4",
                    "ticks": 47536,
                    "time": 86.11601953333334,
                    "velocity": 1
                },
                {
                    "duration": 0.13043490000001157,
                    "durationTicks": 72,
                    "midi": 64,
                    "name": "E4",
                    "ticks": 47688,
                    "time": 86.3913821,
                    "velocity": 1
                },
                {
                    "duration": 0.1811595833333257,
                    "durationTicks": 100,
                    "midi": 59,
                    "name": "B3",
                    "ticks": 48020,
                    "time": 86.99283191666667,
                    "velocity": 1
                },
                {
                    "duration": 0.14492766666666057,
                    "durationTicks": 80,
                    "midi": 60,
                    "name": "C4",
                    "ticks": 48140,
                    "time": 87.21022341666668,
                    "velocity": 0.6535433070866141
                },
                {
                    "duration": 0.14855085833333703,
                    "durationTicks": 82,
                    "midi": 59,
                    "name": "B3",
                    "ticks": 48194,
                    "time": 87.30804959166667,
                    "velocity": 0.7322834645669292
                },
                {
                    "duration": 0.13043489999999736,
                    "durationTicks": 72,
                    "midi": 58,
                    "name": "A#3",
                    "ticks": 48262,
                    "time": 87.43123810833335,
                    "velocity": 0.8740157480314961
                },
                {
                    "duration": 0.10507255833331897,
                    "durationTicks": 58,
                    "midi": 59,
                    "name": "B3",
                    "ticks": 48410,
                    "time": 87.69935429166668,
                    "velocity": 0.9448818897637795
                },
                {
                    "duration": 0.2065219249999899,
                    "durationTicks": 114,
                    "midi": 71,
                    "name": "B4",
                    "ticks": 48494,
                    "time": 87.85152834166668,
                    "velocity": 1
                },
                {
                    "duration": 0.06159425833332932,
                    "durationTicks": 34,
                    "midi": 59,
                    "name": "B3",
                    "ticks": 48900,
                    "time": 88.58703625000001,
                    "velocity": 0.8346456692913385
                },
                {
                    "duration": 0.18478277500000218,
                    "durationTicks": 102,
                    "midi": 59,
                    "name": "B3",
                    "ticks": 48970,
                    "time": 88.71384795833333,
                    "velocity": 1
                },
                {
                    "duration": 0.14492766666667478,
                    "durationTicks": 80,
                    "midi": 60,
                    "name": "C4",
                    "ticks": 49098,
                    "time": 88.945732225,
                    "velocity": 0.7874015748031497
                },
                {
                    "duration": 0.13768128333333607,
                    "durationTicks": 76,
                    "midi": 59,
                    "name": "B3",
                    "ticks": 49136,
                    "time": 89.01457286666667,
                    "velocity": 0.984251968503937
                },
                {
                    "duration": 0.19202915833332668,
                    "durationTicks": 106,
                    "midi": 58,
                    "name": "A#3",
                    "ticks": 49192,
                    "time": 89.11602223333334,
                    "velocity": 0.5118110236220472
                },
                {
                    "duration": 0.11956532499998218,
                    "durationTicks": 66,
                    "midi": 59,
                    "name": "B3",
                    "ticks": 49362,
                    "time": 89.42399352500001,
                    "velocity": 0.8110236220472441
                },
                {
                    "duration": 0.2137683083333286,
                    "durationTicks": 118,
                    "midi": 69,
                    "name": "A4",
                    "ticks": 49438,
                    "time": 89.56167480833334,
                    "velocity": 1
                },
                {
                    "duration": 0.11594213333334835,
                    "durationTicks": 64,
                    "midi": 69,
                    "name": "A4",
                    "ticks": 49832,
                    "time": 90.27544356666667,
                    "velocity": 0.984251968503937
                },
                {
                    "duration": 0.24275384166666925,
                    "durationTicks": 134,
                    "midi": 67,
                    "name": "G4",
                    "ticks": 49934,
                    "time": 90.46022634166667,
                    "velocity": 0.8346456692913385
                },
                {
                    "duration": 0.1739132000000012,
                    "durationTicks": 96,
                    "midi": 66,
                    "name": "F#4",
                    "ticks": 50080,
                    "time": 90.72471933333334,
                    "velocity": 0.6220472440944882
                },
                {
                    "duration": 0.17753639166666346,
                    "durationTicks": 98,
                    "midi": 67,
                    "name": "G4",
                    "ticks": 50166,
                    "time": 90.88051657500002,
                    "velocity": 0.9133858267716536
                },
                {
                    "duration": 0.14855085833333703,
                    "durationTicks": 82,
                    "midi": 69,
                    "name": "A4",
                    "ticks": 50316,
                    "time": 91.15225595000001,
                    "velocity": 0.8661417322834646
                },
                {
                    "duration": 0.173913199999987,
                    "durationTicks": 96,
                    "midi": 71,
                    "name": "B4",
                    "ticks": 50412,
                    "time": 91.32616915000001,
                    "velocity": 0.8267716535433071
                },
                {
                    "duration": 0.1666668166666625,
                    "durationTicks": 92,
                    "midi": 66,
                    "name": "F#4",
                    "ticks": 50554,
                    "time": 91.58341575833335,
                    "velocity": 0.9133858267716536
                },
                {
                    "duration": 0.26449299166665696,
                    "durationTicks": 146,
                    "midi": 64,
                    "name": "E4",
                    "ticks": 50644,
                    "time": 91.74645938333335,
                    "velocity": 0.6929133858267716
                },
                {
                    "duration": 0.26811618333334764,
                    "durationTicks": 148,
                    "midi": 69,
                    "name": "A4",
                    "ticks": 50880,
                    "time": 92.173996,
                    "velocity": 0.984251968503937
                },
                {
                    "duration": 0.14855085833333703,
                    "durationTicks": 82,
                    "midi": 66,
                    "name": "F#4",
                    "ticks": 51044,
                    "time": 92.47109771666668,
                    "velocity": 0.6692913385826772
                },
                {
                    "duration": 0.22463788333332957,
                    "durationTicks": 124,
                    "midi": 67,
                    "name": "G4",
                    "ticks": 51122,
                    "time": 92.61240219166667,
                    "velocity": 0.9133858267716536
                },
                {
                    "duration": 0.17753639166666346,
                    "durationTicks": 98,
                    "midi": 63,
                    "name": "D#4",
                    "ticks": 51276,
                    "time": 92.89138795000001,
                    "velocity": 0.7795275590551181
                },
                {
                    "duration": 0.18478277500000218,
                    "durationTicks": 102,
                    "midi": 64,
                    "name": "E4",
                    "ticks": 51370,
                    "time": 93.06167795833333,
                    "velocity": 0.5748031496062992
                },
                {
                    "duration": 0.13768128333333607,
                    "durationTicks": 76,
                    "midi": 65,
                    "name": "F4",
                    "ticks": 51452,
                    "time": 93.21022881666667,
                    "velocity": 0.7559055118110236
                },
                {
                    "duration": 0.17029000833333896,
                    "durationTicks": 94,
                    "midi": 66,
                    "name": "F#4",
                    "ticks": 51512,
                    "time": 93.31892456666667,
                    "velocity": 0.9133858267716536
                },
                {
                    "duration": 0.18840596666666443,
                    "durationTicks": 104,
                    "midi": 64,
                    "name": "E4",
                    "ticks": 51604,
                    "time": 93.48559138333334,
                    "velocity": 0.889763779527559
                },
                {
                    "duration": 0.14855085833333703,
                    "durationTicks": 82,
                    "midi": 62,
                    "name": "D4",
                    "ticks": 51750,
                    "time": 93.750084375,
                    "velocity": 0.984251968503937
                },
                {
                    "duration": 0.24275384166666925,
                    "durationTicks": 134,
                    "midi": 64,
                    "name": "E4",
                    "ticks": 51866,
                    "time": 93.96022949166667,
                    "velocity": 0.7322834645669292
                },
                {
                    "duration": 0.22463788333332957,
                    "durationTicks": 124,
                    "midi": 75,
                    "name": "D#5",
                    "ticks": 52100,
                    "time": 94.38414291666668,
                    "velocity": 1
                },
                {
                    "duration": 0.1992755416666796,
                    "durationTicks": 110,
                    "midi": 74,
                    "name": "D5",
                    "ticks": 52342,
                    "time": 94.82254910833333,
                    "velocity": 1
                },
                {
                    "duration": 0.21014511666666635,
                    "durationTicks": 116,
                    "midi": 71,
                    "name": "B4",
                    "ticks": 52500,
                    "time": 95.10878125,
                    "velocity": 0.9291338582677166
                },
                {
                    "duration": 0.23188426666666828,
                    "durationTicks": 128,
                    "midi": 67,
                    "name": "G4",
                    "ticks": 52592,
                    "time": 95.27544806666667,
                    "velocity": 0.8582677165354331
                },
                {
                    "duration": 0.11594213333333414,
                    "durationTicks": 64,
                    "midi": 64,
                    "name": "E4",
                    "ticks": 52746,
                    "time": 95.554433825,
                    "velocity": 0.6614173228346457
                },
                {
                    "duration": 0.22463788333334378,
                    "durationTicks": 124,
                    "midi": 73,
                    "name": "C#5",
                    "ticks": 52830,
                    "time": 95.706607875,
                    "velocity": 1
                },
                {
                    "duration": 0.06159425833334353,
                    "durationTicks": 34,
                    "midi": 70,
                    "name": "A#4",
                    "ticks": 53006,
                    "time": 96.02544874166666,
                    "velocity": 0.3779527559055118
                },
                {
                    "duration": 0.28260895000001085,
                    "durationTicks": 156,
                    "midi": 72,
                    "name": "C5",
                    "ticks": 53064,
                    "time": 96.1305213,
                    "velocity": 1
                },
                {
                    "duration": 0.18478277500000218,
                    "durationTicks": 102,
                    "midi": 69,
                    "name": "A4",
                    "ticks": 53462,
                    "time": 96.85153644166667,
                    "velocity": 0.9921259842519685
                },
                {
                    "duration": 0.21376830833334282,
                    "durationTicks": 118,
                    "midi": 70,
                    "name": "A#4",
                    "ticks": 53556,
                    "time": 97.02182645,
                    "velocity": 0.9133858267716536
                },
                {
                    "duration": 0.4601453416666601,
                    "durationTicks": 254,
                    "midi": 71,
                    "name": "B4",
                    "ticks": 53710,
                    "time": 97.30081220833334,
                    "velocity": 0.9921259842519685
                },
                {
                    "duration": 0.09420298333333221,
                    "durationTicks": 52,
                    "midi": 66,
                    "name": "F#4",
                    "ticks": 53954,
                    "time": 97.74284159166668,
                    "velocity": 0.5354330708661418
                },
                {
                    "duration": 0.30434809999999857,
                    "durationTicks": 168,
                    "midi": 69,
                    "name": "A4",
                    "ticks": 54014,
                    "time": 97.85153734166667,
                    "velocity": 1
                },
                {
                    "duration": 0.10507255833333318,
                    "durationTicks": 58,
                    "midi": 66,
                    "name": "F#4",
                    "ticks": 54188,
                    "time": 98.16675501666667,
                    "velocity": 0.5039370078740157
                },
                {
                    "duration": 0.2644929916666712,
                    "durationTicks": 146,
                    "midi": 67,
                    "name": "G4",
                    "ticks": 54258,
                    "time": 98.293566725,
                    "velocity": 0.889763779527559
                },
                {
                    "duration": 0.21739150000000507,
                    "durationTicks": 120,
                    "midi": 64,
                    "name": "E4",
                    "ticks": 54422,
                    "time": 98.59066844166666,
                    "velocity": 0.7795275590551181
                },
                {
                    "duration": 0.1992755416666654,
                    "durationTicks": 110,
                    "midi": 59,
                    "name": "B3",
                    "ticks": 55710,
                    "time": 100.92400387500001,
                    "velocity": 0.7401574803149606
                },
                {
                    "duration": 0.17029000833333896,
                    "durationTicks": 94,
                    "midi": 60,
                    "name": "C4",
                    "ticks": 55830,
                    "time": 101.141395375,
                    "velocity": 1
                },
                {
                    "duration": 0.159420433333338,
                    "durationTicks": 88,
                    "midi": 64,
                    "name": "E4",
                    "ticks": 55958,
                    "time": 101.37327964166667,
                    "velocity": 0.9448818897637795
                },
                {
                    "duration": 0.07608702500000675,
                    "durationTicks": 42,
                    "midi": 66,
                    "name": "F#4",
                    "ticks": 56088,
                    "time": 101.6087871,
                    "velocity": 1
                },
                {
                    "duration": 0.24275384166666925,
                    "durationTicks": 134,
                    "midi": 71,
                    "name": "B4",
                    "ticks": 56184,
                    "time": 101.7827003,
                    "velocity": 1
                },
                {
                    "duration": 0.11594213333333414,
                    "durationTicks": 64,
                    "midi": 69,
                    "name": "A4",
                    "ticks": 56342,
                    "time": 102.06893244166668,
                    "velocity": 0.5748031496062992
                },
                {
                    "duration": 0.2065219249999899,
                    "durationTicks": 114,
                    "midi": 71,
                    "name": "B4",
                    "ticks": 56428,
                    "time": 102.22472968333335,
                    "velocity": 1
                },
                {
                    "duration": 0.05797106666666707,
                    "durationTicks": 32,
                    "midi": 69,
                    "name": "A4",
                    "ticks": 56574,
                    "time": 102.48922267500001,
                    "velocity": 0.6377952755905512
                },
                {
                    "duration": 0.25724660833333246,
                    "durationTicks": 142,
                    "midi": 74,
                    "name": "D5",
                    "ticks": 56662,
                    "time": 102.64864310833335,
                    "velocity": 1
                },
                {
                    "duration": 0.3804351250000053,
                    "durationTicks": 210,
                    "midi": 72,
                    "name": "C5",
                    "ticks": 56808,
                    "time": 102.9131361,
                    "velocity": 0.984251968503937
                },
                {
                    "duration": 0.2463770333333315,
                    "durationTicks": 136,
                    "midi": 67,
                    "name": "G4",
                    "ticks": 56998,
                    "time": 103.25733930833334,
                    "velocity": 0.8976377952755905
                },
                {
                    "duration": 0.27536256666667214,
                    "durationTicks": 152,
                    "midi": 63,
                    "name": "D#4",
                    "ticks": 57142,
                    "time": 103.51820910833334,
                    "velocity": 1
                },
                {
                    "duration": 0.26449299166665696,
                    "durationTicks": 146,
                    "midi": 62,
                    "name": "D4",
                    "ticks": 57306,
                    "time": 103.81531082500001,
                    "velocity": 0.9133858267716536
                },
                {
                    "duration": 0.2210146916666531,
                    "durationTicks": 122,
                    "midi": 60,
                    "name": "C4",
                    "ticks": 57472,
                    "time": 104.11603573333335,
                    "velocity": 0.9133858267716536
                },
                {
                    "duration": 0.3405800166666779,
                    "durationTicks": 188,
                    "midi": 59,
                    "name": "B3",
                    "ticks": 57626,
                    "time": 104.39502149166667,
                    "velocity": 0.889763779527559
                },
                {
                    "duration": 0.3260872500000005,
                    "durationTicks": 180,
                    "midi": 69,
                    "name": "A4",
                    "ticks": 57798,
                    "time": 104.706615975,
                    "velocity": 1
                },
                {
                    "duration": 0.25724660833333246,
                    "durationTicks": 142,
                    "midi": 66,
                    "name": "F#4",
                    "ticks": 57970,
                    "time": 105.01821045833334,
                    "velocity": 0.968503937007874
                },
                {
                    "duration": 0.2608698000000089,
                    "durationTicks": 144,
                    "midi": 67,
                    "name": "G4",
                    "ticks": 58120,
                    "time": 105.28994983333334,
                    "velocity": 0.952755905511811
                },
                {
                    "duration": 0.1739132000000012,
                    "durationTicks": 96,
                    "midi": 61,
                    "name": "C#4",
                    "ticks": 58274,
                    "time": 105.56893559166667,
                    "velocity": 0.937007874015748
                },
                {
                    "duration": 0.15217404999999928,
                    "durationTicks": 84,
                    "midi": 67,
                    "name": "G4",
                    "ticks": 59660,
                    "time": 108.07980741666668,
                    "velocity": 1
                },
                {
                    "duration": 0.17029000833333896,
                    "durationTicks": 94,
                    "midi": 69,
                    "name": "A4",
                    "ticks": 59782,
                    "time": 108.30082210833334,
                    "velocity": 1
                },
                {
                    "duration": 0.15217404999999928,
                    "durationTicks": 84,
                    "midi": 70,
                    "name": "A#4",
                    "ticks": 59916,
                    "time": 108.54357595,
                    "velocity": 1
                },
                {
                    "duration": 0.2137683083333144,
                    "durationTicks": 118,
                    "midi": 71,
                    "name": "B4",
                    "ticks": 60020,
                    "time": 108.73198191666668,
                    "velocity": 0.9921259842519685
                },
                {
                    "duration": 0.13768128333333607,
                    "durationTicks": 76,
                    "midi": 67,
                    "name": "G4",
                    "ticks": 60170,
                    "time": 109.00372129166668,
                    "velocity": 0.968503937007874
                },
                {
                    "duration": 0.21739150000000507,
                    "durationTicks": 120,
                    "midi": 64,
                    "name": "E4",
                    "ticks": 60260,
                    "time": 109.16676491666668,
                    "velocity": 0.6535433070866141
                },
                {
                    "duration": 0.13405809166667382,
                    "durationTicks": 74,
                    "midi": 65,
                    "name": "F4",
                    "ticks": 60410,
                    "time": 109.43850429166667,
                    "velocity": 1
                },
                {
                    "duration": 0.22463788333332957,
                    "durationTicks": 124,
                    "midi": 66,
                    "name": "F#4",
                    "ticks": 60508,
                    "time": 109.61604068333334,
                    "velocity": 0.9291338582677166
                },
                {
                    "duration": 0.13768128333332186,
                    "durationTicks": 76,
                    "midi": 69,
                    "name": "A4",
                    "ticks": 60652,
                    "time": 109.87691048333335,
                    "velocity": 1
                },
                {
                    "duration": 0.21739149999999086,
                    "durationTicks": 120,
                    "midi": 63,
                    "name": "D#4",
                    "ticks": 60746,
                    "time": 110.04720049166667,
                    "velocity": 0.7401574803149606
                },
                {
                    "duration": 0.13043489999999736,
                    "durationTicks": 72,
                    "midi": 61,
                    "name": "C#4",
                    "ticks": 60892,
                    "time": 110.31169348333334,
                    "velocity": 0.9291338582677166
                },
                {
                    "duration": 0.23188426666666828,
                    "durationTicks": 128,
                    "midi": 60,
                    "name": "C4",
                    "ticks": 60980,
                    "time": 110.47111391666668,
                    "velocity": 0.6771653543307087
                },
                {
                    "duration": 0.09782617499999446,
                    "durationTicks": 54,
                    "midi": 63,
                    "name": "D#4",
                    "ticks": 61134,
                    "time": 110.750099675,
                    "velocity": 1
                },
                {
                    "duration": 0.1920291583333409,
                    "durationTicks": 106,
                    "midi": 66,
                    "name": "F#4",
                    "ticks": 61224,
                    "time": 110.9131433,
                    "velocity": 0.7952755905511811
                },
                {
                    "duration": 0.13405809166667382,
                    "durationTicks": 74,
                    "midi": 69,
                    "name": "A4",
                    "ticks": 61366,
                    "time": 111.17038990833333,
                    "velocity": 1
                },
                {
                    "duration": 0.25000022500000796,
                    "durationTicks": 138,
                    "midi": 67,
                    "name": "G4",
                    "ticks": 61464,
                    "time": 111.34792630000001,
                    "velocity": 0.9291338582677166
                },
                {
                    "duration": 0.07608702500000675,
                    "durationTicks": 42,
                    "midi": 63,
                    "name": "D#4",
                    "ticks": 61624,
                    "time": 111.63778163333333,
                    "velocity": 0.5748031496062992
                },
                {
                    "duration": 0.21739150000000507,
                    "durationTicks": 120,
                    "midi": 64,
                    "name": "E4",
                    "ticks": 61934,
                    "time": 112.19937634166668,
                    "velocity": 0.5433070866141733
                },
                {
                    "duration": 0.159420433333338,
                    "durationTicks": 88,
                    "midi": 66,
                    "name": "F#4",
                    "ticks": 62080,
                    "time": 112.46386933333335,
                    "velocity": 1
                },
                {
                    "duration": 0.21739150000000507,
                    "durationTicks": 120,
                    "midi": 67,
                    "name": "G4",
                    "ticks": 62164,
                    "time": 112.61604338333333,
                    "velocity": 0.7322834645669292
                },
                {
                    "duration": 0.11594213333336256,
                    "durationTicks": 64,
                    "midi": 69,
                    "name": "A4",
                    "ticks": 62316,
                    "time": 112.89140594999999,
                    "velocity": 1
                },
                {
                    "duration": 0.17029000833335317,
                    "durationTicks": 94,
                    "midi": 71,
                    "name": "B4",
                    "ticks": 62434,
                    "time": 113.10517425833334,
                    "velocity": 0.905511811023622
                },
                {
                    "duration": 0.1268117083333351,
                    "durationTicks": 70,
                    "midi": 67,
                    "name": "G4",
                    "ticks": 62568,
                    "time": 113.3479281,
                    "velocity": 0.9133858267716536
                },
                {
                    "duration": 0.17029000833332475,
                    "durationTicks": 94,
                    "midi": 66,
                    "name": "F#4",
                    "ticks": 62664,
                    "time": 113.52184130000002,
                    "velocity": 0.7795275590551181
                },
                {
                    "duration": 0.11231894166667189,
                    "durationTicks": 62,
                    "midi": 64,
                    "name": "E4",
                    "ticks": 62806,
                    "time": 113.77908790833334,
                    "velocity": 0.7559055118110236
                },
                {
                    "duration": 0.20289873333335606,
                    "durationTicks": 112,
                    "midi": 63,
                    "name": "D#4",
                    "ticks": 62900,
                    "time": 113.94937791666666,
                    "velocity": 0.7322834645669292
                },
                {
                    "duration": 0.11231894166667189,
                    "durationTicks": 62,
                    "midi": 66,
                    "name": "F#4",
                    "ticks": 63046,
                    "time": 114.21387090833333,
                    "velocity": 0.9448818897637795
                }
            ],
            "endOfTrackTicks": 63108
        },
        {
            "channel": 5,
            "controlChanges": {
                "7": [
                    {
                        "number": 7,
                        "ticks": 0,
                        "time": 0,
                        "value": 0.7874015748031497
                    }
                ],
                "10": [
                    {
                        "number": 10,
                        "ticks": 0,
                        "time": 0,
                        "value": 0.6220472440944882
                    }
                ],
                "64": [
                    {
                        "number": 64,
                        "ticks": 0,
                        "time": 0,
                        "value": 0
                    },
                    {
                        "number": 64,
                        "ticks": 96000,
                        "time": 173.91320000000002,
                        "value": 0
                    }
                ],
                "91": [
                    {
                        "number": 91,
                        "ticks": 0,
                        "time": 0,
                        "value": 0.9448818897637795
                    }
                ],
                "93": [
                    {
                        "number": 93,
                        "ticks": 0,
                        "time": 0,
                        "value": 0.3937007874015748
                    }
                ],
                "123": [
                    {
                        "number": 123,
                        "ticks": 0,
                        "time": 0,
                        "value": 0
                    }
                ]
            },
            "pitchBends": [],
            "instrument": {
                "family": "ensemble",
                "name": "string ensemble 2",
                "number": 49
            },
            "name": "Strings / Slow strings",
            "notes": [
                {
                    "duration": 1.728262424999997,
                    "durationTicks": 954,
                    "midi": 69,
                    "name": "A4",
                    "ticks": 17286,
                    "time": 31.315245575000006,
                    "velocity": 0.25984251968503935
                },
                {
                    "duration": 1.7246392333333347,
                    "durationTicks": 952,
                    "midi": 64,
                    "name": "E4",
                    "ticks": 17288,
                    "time": 31.318868766666668,
                    "velocity": 0.25984251968503935
                },
                {
                    "duration": 1.728262424999997,
                    "durationTicks": 954,
                    "midi": 69,
                    "name": "A4",
                    "ticks": 18246,
                    "time": 33.054377575000004,
                    "velocity": 0.25984251968503935
                },
                {
                    "duration": 1.7246392333333347,
                    "durationTicks": 952,
                    "midi": 63,
                    "name": "D#4",
                    "ticks": 18248,
                    "time": 33.058000766666666,
                    "velocity": 0.25984251968503935
                },
                {
                    "duration": 3.4637712333333326,
                    "durationTicks": 1912,
                    "midi": 67,
                    "name": "G4",
                    "ticks": 19206,
                    "time": 34.793509575,
                    "velocity": 0.25984251968503935
                },
                {
                    "duration": 3.4637712333333326,
                    "durationTicks": 1912,
                    "midi": 62,
                    "name": "D4",
                    "ticks": 19208,
                    "time": 34.79713276666667,
                    "velocity": 0.25984251968503935
                },
                {
                    "duration": 1.728262424999997,
                    "durationTicks": 954,
                    "midi": 67,
                    "name": "G4",
                    "ticks": 21126,
                    "time": 38.271773575000005,
                    "velocity": 0.25984251968503935
                },
                {
                    "duration": 1.7246392333333347,
                    "durationTicks": 952,
                    "midi": 60,
                    "name": "C4",
                    "ticks": 21128,
                    "time": 38.27539676666667,
                    "velocity": 0.25984251968503935
                },
                {
                    "duration": 1.728262425000004,
                    "durationTicks": 954,
                    "midi": 72,
                    "name": "C5",
                    "ticks": 22086,
                    "time": 40.010905575,
                    "velocity": 0.25984251968503935
                },
                {
                    "duration": 1.7246392333333347,
                    "durationTicks": 952,
                    "midi": 66,
                    "name": "F#4",
                    "ticks": 22088,
                    "time": 40.01452876666667,
                    "velocity": 0.25984251968503935
                },
                {
                    "duration": 3.4637712333333255,
                    "durationTicks": 1912,
                    "midi": 71,
                    "name": "B4",
                    "ticks": 23046,
                    "time": 41.75003757500001,
                    "velocity": 0.25984251968503935
                },
                {
                    "duration": 3.4637712333333326,
                    "durationTicks": 1912,
                    "midi": 66,
                    "name": "F#4",
                    "ticks": 23048,
                    "time": 41.75366076666667,
                    "velocity": 0.25984251968503935
                },
                {
                    "duration": 1.728262424999997,
                    "durationTicks": 954,
                    "midi": 69,
                    "name": "A4",
                    "ticks": 24966,
                    "time": 45.228301575,
                    "velocity": 0.25984251968503935
                },
                {
                    "duration": 1.7246392333333347,
                    "durationTicks": 952,
                    "midi": 64,
                    "name": "E4",
                    "ticks": 24968,
                    "time": 45.231924766666666,
                    "velocity": 0.25984251968503935
                },
                {
                    "duration": 1.728262424999997,
                    "durationTicks": 954,
                    "midi": 69,
                    "name": "A4",
                    "ticks": 25926,
                    "time": 46.96743357500001,
                    "velocity": 0.25984251968503935
                },
                {
                    "duration": 1.7246392333333347,
                    "durationTicks": 952,
                    "midi": 63,
                    "name": "D#4",
                    "ticks": 25928,
                    "time": 46.97105676666667,
                    "velocity": 0.25984251968503935
                },
                {
                    "duration": 0.858696424999998,
                    "durationTicks": 474,
                    "midi": 67,
                    "name": "G4",
                    "ticks": 26886,
                    "time": 48.706565575000006,
                    "velocity": 0.25984251968503935
                },
                {
                    "duration": 0.8550732333333357,
                    "durationTicks": 472,
                    "midi": 62,
                    "name": "D4",
                    "ticks": 26888,
                    "time": 48.71018876666667,
                    "velocity": 0.25984251968503935
                },
                {
                    "duration": 0.858696424999998,
                    "durationTicks": 474,
                    "midi": 67,
                    "name": "G4",
                    "ticks": 27366,
                    "time": 49.576131575000005,
                    "velocity": 0.25984251968503935
                },
                {
                    "duration": 0.8550732333333357,
                    "durationTicks": 472,
                    "midi": 61,
                    "name": "C#4",
                    "ticks": 27368,
                    "time": 49.57975476666667,
                    "velocity": 0.25984251968503935
                },
                {
                    "duration": 0.858696424999998,
                    "durationTicks": 474,
                    "midi": 72,
                    "name": "C5",
                    "ticks": 27846,
                    "time": 50.445697575000004,
                    "velocity": 0.25984251968503935
                },
                {
                    "duration": 0.8550732333333357,
                    "durationTicks": 472,
                    "midi": 65,
                    "name": "F4",
                    "ticks": 27848,
                    "time": 50.449320766666666,
                    "velocity": 0.25984251968503935
                },
                {
                    "duration": 0.858696424999998,
                    "durationTicks": 474,
                    "midi": 71,
                    "name": "B4",
                    "ticks": 28326,
                    "time": 51.315263575,
                    "velocity": 0.25984251968503935
                },
                {
                    "duration": 0.8550732333333286,
                    "durationTicks": 472,
                    "midi": 65,
                    "name": "F4",
                    "ticks": 28328,
                    "time": 51.31888676666667,
                    "velocity": 0.25984251968503935
                },
                {
                    "duration": 1.728262424999997,
                    "durationTicks": 954,
                    "midi": 71,
                    "name": "B4",
                    "ticks": 28806,
                    "time": 52.18482957500001,
                    "velocity": 0.25984251968503935
                },
                {
                    "duration": 1.7246392333333347,
                    "durationTicks": 952,
                    "midi": 64,
                    "name": "E4",
                    "ticks": 28808,
                    "time": 52.18845276666667,
                    "velocity": 0.25984251968503935
                },
                {
                    "duration": 0.858696424999998,
                    "durationTicks": 474,
                    "midi": 69,
                    "name": "A4",
                    "ticks": 29766,
                    "time": 53.92396157500001,
                    "velocity": 0.25984251968503935
                },
                {
                    "duration": 0.8550732333333357,
                    "durationTicks": 472,
                    "midi": 64,
                    "name": "E4",
                    "ticks": 29768,
                    "time": 53.92758476666667,
                    "velocity": 0.25984251968503935
                },
                {
                    "duration": 0.858696424999998,
                    "durationTicks": 474,
                    "midi": 69,
                    "name": "A4",
                    "ticks": 30246,
                    "time": 54.793527575000006,
                    "velocity": 0.25984251968503935
                },
                {
                    "duration": 0.8550732333333357,
                    "durationTicks": 472,
                    "midi": 63,
                    "name": "D#4",
                    "ticks": 30248,
                    "time": 54.79715076666667,
                    "velocity": 0.25984251968503935
                },
                {
                    "duration": 3.4637712333333326,
                    "durationTicks": 1912,
                    "midi": 67,
                    "name": "G4",
                    "ticks": 30726,
                    "time": 55.663093575000005,
                    "velocity": 0.25984251968503935
                },
                {
                    "duration": 3.4637712333333397,
                    "durationTicks": 1912,
                    "midi": 62,
                    "name": "D4",
                    "ticks": 30728,
                    "time": 55.66671676666667,
                    "velocity": 0.25984251968503935
                },
                {
                    "duration": 1.728262424999997,
                    "durationTicks": 954,
                    "midi": 67,
                    "name": "G4",
                    "ticks": 32646,
                    "time": 59.14135757500001,
                    "velocity": 0.25984251968503935
                },
                {
                    "duration": 1.7246392333333347,
                    "durationTicks": 952,
                    "midi": 60,
                    "name": "C4",
                    "ticks": 32648,
                    "time": 59.14498076666667,
                    "velocity": 0.25984251968503935
                },
                {
                    "duration": 1.728262424999997,
                    "durationTicks": 954,
                    "midi": 72,
                    "name": "C5",
                    "ticks": 33606,
                    "time": 60.880489575000006,
                    "velocity": 0.25984251968503935
                },
                {
                    "duration": 1.7246392333333347,
                    "durationTicks": 952,
                    "midi": 66,
                    "name": "F#4",
                    "ticks": 33608,
                    "time": 60.88411276666667,
                    "velocity": 0.25984251968503935
                },
                {
                    "duration": 1.728262425000004,
                    "durationTicks": 954,
                    "midi": 71,
                    "name": "B4",
                    "ticks": 34566,
                    "time": 62.619621575000004,
                    "velocity": 0.25984251968503935
                },
                {
                    "duration": 1.7246392333333347,
                    "durationTicks": 952,
                    "midi": 66,
                    "name": "F#4",
                    "ticks": 34568,
                    "time": 62.62324476666667,
                    "velocity": 0.25984251968503935
                },
                {
                    "duration": 1.728262424999997,
                    "durationTicks": 954,
                    "midi": 71,
                    "name": "B4",
                    "ticks": 35526,
                    "time": 64.35875357500001,
                    "velocity": 0.25984251968503935
                },
                {
                    "duration": 1.7246392333333347,
                    "durationTicks": 952,
                    "midi": 64,
                    "name": "E4",
                    "ticks": 35528,
                    "time": 64.36237676666667,
                    "velocity": 0.25984251968503935
                },
                {
                    "duration": 1.728262424999997,
                    "durationTicks": 954,
                    "midi": 69,
                    "name": "A4",
                    "ticks": 36486,
                    "time": 66.097885575,
                    "velocity": 0.25984251968503935
                },
                {
                    "duration": 1.7246392333333347,
                    "durationTicks": 952,
                    "midi": 64,
                    "name": "E4",
                    "ticks": 36488,
                    "time": 66.10150876666667,
                    "velocity": 0.25984251968503935
                },
                {
                    "duration": 1.728262424999997,
                    "durationTicks": 954,
                    "midi": 69,
                    "name": "A4",
                    "ticks": 37446,
                    "time": 67.837017575,
                    "velocity": 0.25984251968503935
                },
                {
                    "duration": 1.7246392333333347,
                    "durationTicks": 952,
                    "midi": 63,
                    "name": "D#4",
                    "ticks": 37448,
                    "time": 67.84064076666667,
                    "velocity": 0.25984251968503935
                },
                {
                    "duration": 1.728262424999997,
                    "durationTicks": 954,
                    "midi": 67,
                    "name": "G4",
                    "ticks": 38406,
                    "time": 69.576149575,
                    "velocity": 0.25984251968503935
                },
                {
                    "duration": 1.7246392333333347,
                    "durationTicks": 952,
                    "midi": 62,
                    "name": "D4",
                    "ticks": 38408,
                    "time": 69.57977276666666,
                    "velocity": 0.25984251968503935
                },
                {
                    "duration": 0.8586964249999909,
                    "durationTicks": 474,
                    "midi": 67,
                    "name": "G4",
                    "ticks": 39366,
                    "time": 71.31528157500001,
                    "velocity": 0.25984251968503935
                },
                {
                    "duration": 0.8550732333333286,
                    "durationTicks": 472,
                    "midi": 62,
                    "name": "D4",
                    "ticks": 39368,
                    "time": 71.31890476666668,
                    "velocity": 0.25984251968503935
                },
                {
                    "duration": 0.8586964250000051,
                    "durationTicks": 474,
                    "midi": 68,
                    "name": "G#4",
                    "ticks": 39846,
                    "time": 72.184847575,
                    "velocity": 0.25984251968503935
                },
                {
                    "duration": 0.8550732333333428,
                    "durationTicks": 472,
                    "midi": 62,
                    "name": "D4",
                    "ticks": 39848,
                    "time": 72.18847076666667,
                    "velocity": 0.25984251968503935
                },
                {
                    "duration": 1.728262424999997,
                    "durationTicks": 954,
                    "midi": 67,
                    "name": "G4",
                    "ticks": 40326,
                    "time": 73.05441357500001,
                    "velocity": 0.25984251968503935
                },
                {
                    "duration": 1.7246392333333347,
                    "durationTicks": 952,
                    "midi": 60,
                    "name": "C4",
                    "ticks": 40328,
                    "time": 73.05803676666667,
                    "velocity": 0.25984251968503935
                },
                {
                    "duration": 1.728262424999997,
                    "durationTicks": 954,
                    "midi": 72,
                    "name": "C5",
                    "ticks": 41286,
                    "time": 74.79354557500001,
                    "velocity": 0.25984251968503935
                },
                {
                    "duration": 1.7246392333333347,
                    "durationTicks": 952,
                    "midi": 66,
                    "name": "F#4",
                    "ticks": 41288,
                    "time": 74.79716876666667,
                    "velocity": 0.25984251968503935
                },
                {
                    "duration": 1.728262424999997,
                    "durationTicks": 954,
                    "midi": 71,
                    "name": "B4",
                    "ticks": 42246,
                    "time": 76.53267757500001,
                    "velocity": 0.25984251968503935
                },
                {
                    "duration": 1.7246392333333347,
                    "durationTicks": 952,
                    "midi": 66,
                    "name": "F#4",
                    "ticks": 42248,
                    "time": 76.53630076666667,
                    "velocity": 0.25984251968503935
                },
                {
                    "duration": 1.728262424999997,
                    "durationTicks": 954,
                    "midi": 71,
                    "name": "B4",
                    "ticks": 43206,
                    "time": 78.271809575,
                    "velocity": 0.25984251968503935
                },
                {
                    "duration": 1.7246392333333347,
                    "durationTicks": 952,
                    "midi": 64,
                    "name": "E4",
                    "ticks": 43208,
                    "time": 78.27543276666667,
                    "velocity": 0.25984251968503935
                },
                {
                    "duration": 1.728262424999997,
                    "durationTicks": 954,
                    "midi": 69,
                    "name": "A4",
                    "ticks": 44166,
                    "time": 80.010941575,
                    "velocity": 0.25984251968503935
                },
                {
                    "duration": 1.7246392333333347,
                    "durationTicks": 952,
                    "midi": 64,
                    "name": "E4",
                    "ticks": 44168,
                    "time": 80.01456476666667,
                    "velocity": 0.25984251968503935
                },
                {
                    "duration": 1.7282624250000111,
                    "durationTicks": 954,
                    "midi": 69,
                    "name": "A4",
                    "ticks": 45126,
                    "time": 81.750073575,
                    "velocity": 0.25984251968503935
                },
                {
                    "duration": 1.7246392333333347,
                    "durationTicks": 952,
                    "midi": 63,
                    "name": "D#4",
                    "ticks": 45128,
                    "time": 81.75369676666668,
                    "velocity": 0.25984251968503935
                },
                {
                    "duration": 3.4637712333333326,
                    "durationTicks": 1912,
                    "midi": 67,
                    "name": "G4",
                    "ticks": 46086,
                    "time": 83.48920557500001,
                    "velocity": 0.25984251968503935
                },
                {
                    "duration": 3.4637712333333326,
                    "durationTicks": 1912,
                    "midi": 61,
                    "name": "C#4",
                    "ticks": 46088,
                    "time": 83.49282876666668,
                    "velocity": 0.25984251968503935
                },
                {
                    "duration": 1.728262424999997,
                    "durationTicks": 954,
                    "midi": 69,
                    "name": "A4",
                    "ticks": 48006,
                    "time": 86.96746957500001,
                    "velocity": 0.25984251968503935
                },
                {
                    "duration": 1.7246392333333347,
                    "durationTicks": 952,
                    "midi": 64,
                    "name": "E4",
                    "ticks": 48008,
                    "time": 86.97109276666667,
                    "velocity": 0.25984251968503935
                },
                {
                    "duration": 1.728262424999997,
                    "durationTicks": 954,
                    "midi": 69,
                    "name": "A4",
                    "ticks": 48966,
                    "time": 88.70660157500001,
                    "velocity": 0.25984251968503935
                },
                {
                    "duration": 1.7246392333333347,
                    "durationTicks": 952,
                    "midi": 63,
                    "name": "D#4",
                    "ticks": 48968,
                    "time": 88.71022476666667,
                    "velocity": 0.25984251968503935
                },
                {
                    "duration": 3.4637712333333326,
                    "durationTicks": 1912,
                    "midi": 67,
                    "name": "G4",
                    "ticks": 49926,
                    "time": 90.445733575,
                    "velocity": 0.25984251968503935
                },
                {
                    "duration": 3.4637712333333326,
                    "durationTicks": 1912,
                    "midi": 62,
                    "name": "D4",
                    "ticks": 49928,
                    "time": 90.44935676666667,
                    "velocity": 0.25984251968503935
                },
                {
                    "duration": 1.728262424999997,
                    "durationTicks": 954,
                    "midi": 67,
                    "name": "G4",
                    "ticks": 51846,
                    "time": 93.92399757500002,
                    "velocity": 0.25984251968503935
                },
                {
                    "duration": 1.7246392333333347,
                    "durationTicks": 952,
                    "midi": 60,
                    "name": "C4",
                    "ticks": 51848,
                    "time": 93.92762076666668,
                    "velocity": 0.25984251968503935
                },
                {
                    "duration": 1.728262424999997,
                    "durationTicks": 954,
                    "midi": 72,
                    "name": "C5",
                    "ticks": 52806,
                    "time": 95.66312957500001,
                    "velocity": 0.25984251968503935
                },
                {
                    "duration": 1.7246392333333347,
                    "durationTicks": 952,
                    "midi": 66,
                    "name": "F#4",
                    "ticks": 52808,
                    "time": 95.66675276666668,
                    "velocity": 0.25984251968503935
                },
                {
                    "duration": 3.4637712333333326,
                    "durationTicks": 1912,
                    "midi": 71,
                    "name": "B4",
                    "ticks": 53766,
                    "time": 97.40226157500001,
                    "velocity": 0.25984251968503935
                },
                {
                    "duration": 3.4637712333333326,
                    "durationTicks": 1912,
                    "midi": 66,
                    "name": "F#4",
                    "ticks": 53768,
                    "time": 97.40588476666667,
                    "velocity": 0.25984251968503935
                },
                {
                    "duration": 1.728262424999997,
                    "durationTicks": 954,
                    "midi": 69,
                    "name": "A4",
                    "ticks": 55686,
                    "time": 100.88052557500001,
                    "velocity": 0.25984251968503935
                },
                {
                    "duration": 1.7246392333333347,
                    "durationTicks": 952,
                    "midi": 64,
                    "name": "E4",
                    "ticks": 55688,
                    "time": 100.88414876666667,
                    "velocity": 0.25984251968503935
                },
                {
                    "duration": 1.728262424999997,
                    "durationTicks": 954,
                    "midi": 69,
                    "name": "A4",
                    "ticks": 56646,
                    "time": 102.619657575,
                    "velocity": 0.25984251968503935
                },
                {
                    "duration": 1.7246392333333347,
                    "durationTicks": 952,
                    "midi": 63,
                    "name": "D#4",
                    "ticks": 56648,
                    "time": 102.62328076666667,
                    "velocity": 0.25984251968503935
                },
                {
                    "duration": 0.8586964250000051,
                    "durationTicks": 474,
                    "midi": 67,
                    "name": "G4",
                    "ticks": 57606,
                    "time": 104.358789575,
                    "velocity": 0.25984251968503935
                },
                {
                    "duration": 0.8550732333333286,
                    "durationTicks": 472,
                    "midi": 62,
                    "name": "D4",
                    "ticks": 57608,
                    "time": 104.36241276666668,
                    "velocity": 0.25984251968503935
                },
                {
                    "duration": 0.8586964250000051,
                    "durationTicks": 474,
                    "midi": 67,
                    "name": "G4",
                    "ticks": 58086,
                    "time": 105.22835557500001,
                    "velocity": 0.25984251968503935
                },
                {
                    "duration": 0.8550732333333428,
                    "durationTicks": 472,
                    "midi": 61,
                    "name": "C#4",
                    "ticks": 58088,
                    "time": 105.23197876666667,
                    "velocity": 0.25984251968503935
                },
                {
                    "duration": 0.8586964249999909,
                    "durationTicks": 474,
                    "midi": 72,
                    "name": "C5",
                    "ticks": 58566,
                    "time": 106.09792157500002,
                    "velocity": 0.25984251968503935
                },
                {
                    "duration": 0.8550732333333286,
                    "durationTicks": 472,
                    "midi": 65,
                    "name": "F4",
                    "ticks": 58568,
                    "time": 106.10154476666668,
                    "velocity": 0.25984251968503935
                },
                {
                    "duration": 0.8586964250000051,
                    "durationTicks": 474,
                    "midi": 71,
                    "name": "B4",
                    "ticks": 59046,
                    "time": 106.967487575,
                    "velocity": 0.25984251968503935
                },
                {
                    "duration": 0.8550732333333428,
                    "durationTicks": 472,
                    "midi": 65,
                    "name": "F4",
                    "ticks": 59048,
                    "time": 106.97111076666667,
                    "velocity": 0.25984251968503935
                },
                {
                    "duration": 1.728262424999997,
                    "durationTicks": 954,
                    "midi": 71,
                    "name": "B4",
                    "ticks": 59526,
                    "time": 107.83705357500001,
                    "velocity": 0.25984251968503935
                },
                {
                    "duration": 1.7246392333333347,
                    "durationTicks": 952,
                    "midi": 64,
                    "name": "E4",
                    "ticks": 59528,
                    "time": 107.84067676666668,
                    "velocity": 0.25984251968503935
                },
                {
                    "duration": 0.8586964249999909,
                    "durationTicks": 474,
                    "midi": 69,
                    "name": "A4",
                    "ticks": 60486,
                    "time": 109.57618557500001,
                    "velocity": 0.25984251968503935
                },
                {
                    "duration": 0.8550732333333286,
                    "durationTicks": 472,
                    "midi": 64,
                    "name": "E4",
                    "ticks": 60488,
                    "time": 109.57980876666667,
                    "velocity": 0.25984251968503935
                },
                {
                    "duration": 0.8586964249999909,
                    "durationTicks": 474,
                    "midi": 69,
                    "name": "A4",
                    "ticks": 60966,
                    "time": 110.44575157500002,
                    "velocity": 0.25984251968503935
                },
                {
                    "duration": 0.8550732333333286,
                    "durationTicks": 472,
                    "midi": 63,
                    "name": "D#4",
                    "ticks": 60968,
                    "time": 110.44937476666668,
                    "velocity": 0.25984251968503935
                },
                {
                    "duration": 3.463771233333347,
                    "durationTicks": 1912,
                    "midi": 67,
                    "name": "G4",
                    "ticks": 61446,
                    "time": 111.315317575,
                    "velocity": 0.25984251968503935
                },
                {
                    "duration": 3.4637712333333184,
                    "durationTicks": 1912,
                    "midi": 62,
                    "name": "D4",
                    "ticks": 61448,
                    "time": 111.31894076666669,
                    "velocity": 0.25984251968503935
                },
                {
                    "duration": 1.728262424999997,
                    "durationTicks": 954,
                    "midi": 69,
                    "name": "A4",
                    "ticks": 78726,
                    "time": 142.619693575,
                    "velocity": 0.25984251968503935
                },
                {
                    "duration": 1.7246392333333347,
                    "durationTicks": 952,
                    "midi": 64,
                    "name": "E4",
                    "ticks": 78728,
                    "time": 142.62331676666668,
                    "velocity": 0.25984251968503935
                },
                {
                    "duration": 1.7282624250000254,
                    "durationTicks": 954,
                    "midi": 69,
                    "name": "A4",
                    "ticks": 79686,
                    "time": 144.358825575,
                    "velocity": 0.25984251968503935
                },
                {
                    "duration": 1.7246392333333347,
                    "durationTicks": 952,
                    "midi": 63,
                    "name": "D#4",
                    "ticks": 79688,
                    "time": 144.3624487666667,
                    "velocity": 0.25984251968503935
                },
                {
                    "duration": 3.463771233333347,
                    "durationTicks": 1912,
                    "midi": 67,
                    "name": "G4",
                    "ticks": 80646,
                    "time": 146.097957575,
                    "velocity": 0.25984251968503935
                },
                {
                    "duration": 3.4637712333333184,
                    "durationTicks": 1912,
                    "midi": 62,
                    "name": "D4",
                    "ticks": 80648,
                    "time": 146.1015807666667,
                    "velocity": 0.25984251968503935
                },
                {
                    "duration": 1.728262424999997,
                    "durationTicks": 954,
                    "midi": 67,
                    "name": "G4",
                    "ticks": 82566,
                    "time": 149.576221575,
                    "velocity": 0.25984251968503935
                },
                {
                    "duration": 1.7246392333333063,
                    "durationTicks": 952,
                    "midi": 60,
                    "name": "C4",
                    "ticks": 82568,
                    "time": 149.5798447666667,
                    "velocity": 0.25984251968503935
                },
                {
                    "duration": 1.7282624250000254,
                    "durationTicks": 954,
                    "midi": 72,
                    "name": "C5",
                    "ticks": 83526,
                    "time": 151.315353575,
                    "velocity": 0.25984251968503935
                },
                {
                    "duration": 1.7246392333333347,
                    "durationTicks": 952,
                    "midi": 66,
                    "name": "F#4",
                    "ticks": 83528,
                    "time": 151.31897676666668,
                    "velocity": 0.25984251968503935
                },
                {
                    "duration": 3.463771233333347,
                    "durationTicks": 1912,
                    "midi": 71,
                    "name": "B4",
                    "ticks": 84486,
                    "time": 153.054485575,
                    "velocity": 0.25984251968503935
                },
                {
                    "duration": 3.4637712333333184,
                    "durationTicks": 1912,
                    "midi": 66,
                    "name": "F#4",
                    "ticks": 84488,
                    "time": 153.0581087666667,
                    "velocity": 0.25984251968503935
                },
                {
                    "duration": 1.7282624250000254,
                    "durationTicks": 954,
                    "midi": 69,
                    "name": "A4",
                    "ticks": 86406,
                    "time": 156.532749575,
                    "velocity": 0.25984251968503935
                },
                {
                    "duration": 1.7246392333333347,
                    "durationTicks": 952,
                    "midi": 64,
                    "name": "E4",
                    "ticks": 86408,
                    "time": 156.5363727666667,
                    "velocity": 0.25984251968503935
                },
                {
                    "duration": 1.728262424999997,
                    "durationTicks": 954,
                    "midi": 69,
                    "name": "A4",
                    "ticks": 87366,
                    "time": 158.271881575,
                    "velocity": 0.25984251968503935
                },
                {
                    "duration": 1.7246392333333063,
                    "durationTicks": 952,
                    "midi": 63,
                    "name": "D#4",
                    "ticks": 87368,
                    "time": 158.2755047666667,
                    "velocity": 0.25984251968503935
                },
                {
                    "duration": 0.8586964250000051,
                    "durationTicks": 474,
                    "midi": 67,
                    "name": "G4",
                    "ticks": 88326,
                    "time": 160.011013575,
                    "velocity": 0.25984251968503935
                },
                {
                    "duration": 0.8550732333333144,
                    "durationTicks": 472,
                    "midi": 62,
                    "name": "D4",
                    "ticks": 88328,
                    "time": 160.01463676666668,
                    "velocity": 0.25984251968503935
                },
                {
                    "duration": 0.8586964250000051,
                    "durationTicks": 474,
                    "midi": 67,
                    "name": "G4",
                    "ticks": 88806,
                    "time": 160.880579575,
                    "velocity": 0.25984251968503935
                },
                {
                    "duration": 0.8550732333333144,
                    "durationTicks": 472,
                    "midi": 61,
                    "name": "C#4",
                    "ticks": 88808,
                    "time": 160.8842027666667,
                    "velocity": 0.25984251968503935
                },
                {
                    "duration": 0.8586964250000051,
                    "durationTicks": 474,
                    "midi": 72,
                    "name": "C5",
                    "ticks": 89286,
                    "time": 161.750145575,
                    "velocity": 0.25984251968503935
                },
                {
                    "duration": 0.8550732333333144,
                    "durationTicks": 472,
                    "midi": 65,
                    "name": "F4",
                    "ticks": 89288,
                    "time": 161.7537687666667,
                    "velocity": 0.25984251968503935
                },
                {
                    "duration": 0.8586964250000051,
                    "durationTicks": 474,
                    "midi": 71,
                    "name": "B4",
                    "ticks": 89766,
                    "time": 162.619711575,
                    "velocity": 0.25984251968503935
                },
                {
                    "duration": 0.8550732333333144,
                    "durationTicks": 472,
                    "midi": 65,
                    "name": "F4",
                    "ticks": 89768,
                    "time": 162.6233347666667,
                    "velocity": 0.25984251968503935
                },
                {
                    "duration": 1.7282624250000254,
                    "durationTicks": 954,
                    "midi": 71,
                    "name": "B4",
                    "ticks": 90246,
                    "time": 163.489277575,
                    "velocity": 0.25984251968503935
                },
                {
                    "duration": 1.7246392333333347,
                    "durationTicks": 952,
                    "midi": 64,
                    "name": "E4",
                    "ticks": 90248,
                    "time": 163.49290076666668,
                    "velocity": 0.25984251968503935
                },
                {
                    "duration": 0.8586964250000051,
                    "durationTicks": 474,
                    "midi": 69,
                    "name": "A4",
                    "ticks": 91206,
                    "time": 165.228409575,
                    "velocity": 0.25984251968503935
                },
                {
                    "duration": 0.8550732333333144,
                    "durationTicks": 472,
                    "midi": 64,
                    "name": "E4",
                    "ticks": 91208,
                    "time": 165.2320327666667,
                    "velocity": 0.25984251968503935
                },
                {
                    "duration": 0.8586964250000335,
                    "durationTicks": 474,
                    "midi": 69,
                    "name": "A4",
                    "ticks": 91686,
                    "time": 166.097975575,
                    "velocity": 0.25984251968503935
                },
                {
                    "duration": 0.8550732333333428,
                    "durationTicks": 472,
                    "midi": 63,
                    "name": "D#4",
                    "ticks": 91688,
                    "time": 166.10159876666668,
                    "velocity": 0.25984251968503935
                },
                {
                    "duration": 1.728262424999997,
                    "durationTicks": 954,
                    "midi": 67,
                    "name": "G4",
                    "ticks": 92166,
                    "time": 166.967541575,
                    "velocity": 0.25984251968503935
                },
                {
                    "duration": 1.7246392333333063,
                    "durationTicks": 952,
                    "midi": 62,
                    "name": "D4",
                    "ticks": 92168,
                    "time": 166.9711647666667,
                    "velocity": 0.25984251968503935
                },
                {
                    "duration": 1.7282624250000254,
                    "durationTicks": 954,
                    "midi": 67,
                    "name": "G4",
                    "ticks": 93126,
                    "time": 168.706673575,
                    "velocity": 0.25984251968503935
                },
                {
                    "duration": 1.7246392333333347,
                    "durationTicks": 952,
                    "midi": 62,
                    "name": "D4",
                    "ticks": 93128,
                    "time": 168.7102967666667,
                    "velocity": 0.25984251968503935
                },
                {
                    "duration": 3.463771233333347,
                    "durationTicks": 1912,
                    "midi": 67,
                    "name": "G4",
                    "ticks": 94086,
                    "time": 170.445805575,
                    "velocity": 0.31496062992125984
                },
                {
                    "duration": 3.4637712333333184,
                    "durationTicks": 1912,
                    "midi": 61,
                    "name": "C#4",
                    "ticks": 94088,
                    "time": 170.4494287666667,
                    "velocity": 0.31496062992125984
                }
            ],
            "endOfTrackTicks": 96000
        },
        {
            "channel": 6,
            "controlChanges": {
                "7": [
                    {
                        "number": 7,
                        "ticks": 0,
                        "time": 0,
                        "value": 0.7086614173228346
                    }
                ],
                "10": [
                    {
                        "number": 10,
                        "ticks": 0,
                        "time": 0,
                        "value": 0.5039370078740157
                    }
                ],
                "64": [
                    {
                        "number": 64,
                        "ticks": 0,
                        "time": 0,
                        "value": 0
                    },
                    {
                        "number": 64,
                        "ticks": 17280,
                        "time": 31.304376,
                        "value": 1
                    },
                    {
                        "number": 64,
                        "ticks": 17520,
                        "time": 31.739159,
                        "value": 0
                    },
                    {
                        "number": 64,
                        "ticks": 17760,
                        "time": 32.173942000000004,
                        "value": 1
                    },
                    {
                        "number": 64,
                        "ticks": 18000,
                        "time": 32.608725,
                        "value": 0
                    },
                    {
                        "number": 64,
                        "ticks": 18240,
                        "time": 33.043508,
                        "value": 0
                    },
                    {
                        "number": 64,
                        "ticks": 18240,
                        "time": 33.043508,
                        "value": 0
                    },
                    {
                        "number": 64,
                        "ticks": 18240,
                        "time": 33.043508,
                        "value": 1
                    },
                    {
                        "number": 64,
                        "ticks": 18480,
                        "time": 33.478291000000006,
                        "value": 0
                    },
                    {
                        "number": 64,
                        "ticks": 18720,
                        "time": 33.913074,
                        "value": 1
                    },
                    {
                        "number": 64,
                        "ticks": 18960,
                        "time": 34.347857000000005,
                        "value": 0
                    },
                    {
                        "number": 64,
                        "ticks": 19200,
                        "time": 34.78264,
                        "value": 0
                    },
                    {
                        "number": 64,
                        "ticks": 19200,
                        "time": 34.78264,
                        "value": 0
                    },
                    {
                        "number": 64,
                        "ticks": 19200,
                        "time": 34.78264,
                        "value": 1
                    },
                    {
                        "number": 64,
                        "ticks": 19440,
                        "time": 35.217423000000004,
                        "value": 0
                    },
                    {
                        "number": 64,
                        "ticks": 19680,
                        "time": 35.652206,
                        "value": 1
                    },
                    {
                        "number": 64,
                        "ticks": 19920,
                        "time": 36.086989,
                        "value": 0
                    },
                    {
                        "number": 64,
                        "ticks": 20160,
                        "time": 36.521772000000006,
                        "value": 1
                    },
                    {
                        "number": 64,
                        "ticks": 20400,
                        "time": 36.956555,
                        "value": 0
                    },
                    {
                        "number": 64,
                        "ticks": 20640,
                        "time": 37.391338000000005,
                        "value": 1
                    },
                    {
                        "number": 64,
                        "ticks": 20880,
                        "time": 37.826121,
                        "value": 0
                    },
                    {
                        "number": 64,
                        "ticks": 27840,
                        "time": 50.434828,
                        "value": 1
                    },
                    {
                        "number": 64,
                        "ticks": 28080,
                        "time": 50.869611000000006,
                        "value": 0
                    },
                    {
                        "number": 64,
                        "ticks": 28320,
                        "time": 51.304394,
                        "value": 0
                    },
                    {
                        "number": 64,
                        "ticks": 28320,
                        "time": 51.304394,
                        "value": 0
                    },
                    {
                        "number": 64,
                        "ticks": 30720,
                        "time": 55.652224000000004,
                        "value": 1
                    },
                    {
                        "number": 64,
                        "ticks": 30960,
                        "time": 56.08700700000001,
                        "value": 0
                    },
                    {
                        "number": 64,
                        "ticks": 31200,
                        "time": 56.52179,
                        "value": 1
                    },
                    {
                        "number": 64,
                        "ticks": 31440,
                        "time": 56.956573000000006,
                        "value": 0
                    },
                    {
                        "number": 64,
                        "ticks": 31680,
                        "time": 57.391356,
                        "value": 1
                    },
                    {
                        "number": 64,
                        "ticks": 31920,
                        "time": 57.826139000000005,
                        "value": 0
                    },
                    {
                        "number": 64,
                        "ticks": 32160,
                        "time": 58.260922,
                        "value": 1
                    },
                    {
                        "number": 64,
                        "ticks": 32400,
                        "time": 58.695705000000004,
                        "value": 0
                    },
                    {
                        "number": 64,
                        "ticks": 32640,
                        "time": 59.13048800000001,
                        "value": 1
                    },
                    {
                        "number": 64,
                        "ticks": 32880,
                        "time": 59.565271,
                        "value": 0
                    },
                    {
                        "number": 64,
                        "ticks": 33120,
                        "time": 60.000054000000006,
                        "value": 1
                    },
                    {
                        "number": 64,
                        "ticks": 33360,
                        "time": 60.434837,
                        "value": 0
                    },
                    {
                        "number": 64,
                        "ticks": 33600,
                        "time": 60.869620000000005,
                        "value": 0
                    },
                    {
                        "number": 64,
                        "ticks": 33600,
                        "time": 60.869620000000005,
                        "value": 0
                    },
                    {
                        "number": 64,
                        "ticks": 33600,
                        "time": 60.869620000000005,
                        "value": 1
                    },
                    {
                        "number": 64,
                        "ticks": 33840,
                        "time": 61.30440300000001,
                        "value": 0
                    },
                    {
                        "number": 64,
                        "ticks": 34080,
                        "time": 61.739186000000004,
                        "value": 1
                    },
                    {
                        "number": 64,
                        "ticks": 34320,
                        "time": 62.17396900000001,
                        "value": 0
                    },
                    {
                        "number": 64,
                        "ticks": 34560,
                        "time": 62.608752,
                        "value": 0
                    },
                    {
                        "number": 64,
                        "ticks": 34560,
                        "time": 62.608752,
                        "value": 0
                    },
                    {
                        "number": 64,
                        "ticks": 35520,
                        "time": 64.34788400000001,
                        "value": 1
                    },
                    {
                        "number": 64,
                        "ticks": 35760,
                        "time": 64.782667,
                        "value": 0
                    },
                    {
                        "number": 64,
                        "ticks": 36000,
                        "time": 65.21745,
                        "value": 1
                    },
                    {
                        "number": 64,
                        "ticks": 36240,
                        "time": 65.65223300000001,
                        "value": 0
                    },
                    {
                        "number": 64,
                        "ticks": 36480,
                        "time": 66.087016,
                        "value": 0
                    },
                    {
                        "number": 64,
                        "ticks": 36480,
                        "time": 66.087016,
                        "value": 0
                    },
                    {
                        "number": 64,
                        "ticks": 39360,
                        "time": 71.304412,
                        "value": 1
                    },
                    {
                        "number": 64,
                        "ticks": 39600,
                        "time": 71.73919500000001,
                        "value": 0
                    },
                    {
                        "number": 64,
                        "ticks": 39840,
                        "time": 72.173978,
                        "value": 0
                    },
                    {
                        "number": 64,
                        "ticks": 39840,
                        "time": 72.173978,
                        "value": 0
                    },
                    {
                        "number": 64,
                        "ticks": 43200,
                        "time": 78.26094,
                        "value": 1
                    },
                    {
                        "number": 64,
                        "ticks": 43440,
                        "time": 78.695723,
                        "value": 0
                    },
                    {
                        "number": 64,
                        "ticks": 43680,
                        "time": 79.13050600000001,
                        "value": 1
                    },
                    {
                        "number": 64,
                        "ticks": 43920,
                        "time": 79.565289,
                        "value": 0
                    },
                    {
                        "number": 64,
                        "ticks": 44160,
                        "time": 80.000072,
                        "value": 0
                    },
                    {
                        "number": 64,
                        "ticks": 44160,
                        "time": 80.000072,
                        "value": 0
                    },
                    {
                        "number": 64,
                        "ticks": 49920,
                        "time": 90.434864,
                        "value": 1
                    },
                    {
                        "number": 64,
                        "ticks": 50160,
                        "time": 90.869647,
                        "value": 0
                    },
                    {
                        "number": 64,
                        "ticks": 50400,
                        "time": 91.30443000000001,
                        "value": 1
                    },
                    {
                        "number": 64,
                        "ticks": 50640,
                        "time": 91.739213,
                        "value": 0
                    },
                    {
                        "number": 64,
                        "ticks": 50880,
                        "time": 92.173996,
                        "value": 1
                    },
                    {
                        "number": 64,
                        "ticks": 51120,
                        "time": 92.60877900000001,
                        "value": 0
                    },
                    {
                        "number": 64,
                        "ticks": 51360,
                        "time": 93.04356200000001,
                        "value": 1
                    },
                    {
                        "number": 64,
                        "ticks": 51600,
                        "time": 93.478345,
                        "value": 0
                    },
                    {
                        "number": 64,
                        "ticks": 59520,
                        "time": 107.82618400000001,
                        "value": 1
                    },
                    {
                        "number": 64,
                        "ticks": 59760,
                        "time": 108.26096700000001,
                        "value": 0
                    },
                    {
                        "number": 64,
                        "ticks": 60000,
                        "time": 108.69575,
                        "value": 1
                    },
                    {
                        "number": 64,
                        "ticks": 60240,
                        "time": 109.13053300000001,
                        "value": 0
                    },
                    {
                        "number": 64,
                        "ticks": 60480,
                        "time": 109.56531600000001,
                        "value": 0
                    },
                    {
                        "number": 64,
                        "ticks": 60480,
                        "time": 109.56531600000001,
                        "value": 0
                    },
                    {
                        "number": 64,
                        "ticks": 60480,
                        "time": 109.56531600000001,
                        "value": 1
                    },
                    {
                        "number": 64,
                        "ticks": 60720,
                        "time": 110.000099,
                        "value": 0
                    },
                    {
                        "number": 64,
                        "ticks": 60960,
                        "time": 110.434882,
                        "value": 0
                    },
                    {
                        "number": 64,
                        "ticks": 60960,
                        "time": 110.434882,
                        "value": 0
                    },
                    {
                        "number": 64,
                        "ticks": 78720,
                        "time": 142.608824,
                        "value": 1
                    },
                    {
                        "number": 64,
                        "ticks": 78960,
                        "time": 143.043607,
                        "value": 0
                    },
                    {
                        "number": 64,
                        "ticks": 79200,
                        "time": 143.47839000000002,
                        "value": 1
                    },
                    {
                        "number": 64,
                        "ticks": 79440,
                        "time": 143.913173,
                        "value": 0
                    },
                    {
                        "number": 64,
                        "ticks": 79680,
                        "time": 144.347956,
                        "value": 0
                    },
                    {
                        "number": 64,
                        "ticks": 79680,
                        "time": 144.347956,
                        "value": 0
                    },
                    {
                        "number": 64,
                        "ticks": 80640,
                        "time": 146.08708800000002,
                        "value": 1
                    },
                    {
                        "number": 64,
                        "ticks": 80880,
                        "time": 146.521871,
                        "value": 0
                    },
                    {
                        "number": 64,
                        "ticks": 81120,
                        "time": 146.95665400000001,
                        "value": 1
                    },
                    {
                        "number": 64,
                        "ticks": 81360,
                        "time": 147.391437,
                        "value": 0
                    },
                    {
                        "number": 64,
                        "ticks": 81600,
                        "time": 147.82622,
                        "value": 1
                    },
                    {
                        "number": 64,
                        "ticks": 81840,
                        "time": 148.26100300000002,
                        "value": 0
                    },
                    {
                        "number": 64,
                        "ticks": 82080,
                        "time": 148.695786,
                        "value": 1
                    },
                    {
                        "number": 64,
                        "ticks": 82320,
                        "time": 149.130569,
                        "value": 0
                    },
                    {
                        "number": 64,
                        "ticks": 82560,
                        "time": 149.56535200000002,
                        "value": 1
                    },
                    {
                        "number": 64,
                        "ticks": 82800,
                        "time": 150.000135,
                        "value": 0
                    },
                    {
                        "number": 64,
                        "ticks": 83040,
                        "time": 150.434918,
                        "value": 1
                    },
                    {
                        "number": 64,
                        "ticks": 83280,
                        "time": 150.86970100000002,
                        "value": 0
                    },
                    {
                        "number": 64,
                        "ticks": 83520,
                        "time": 151.304484,
                        "value": 0
                    },
                    {
                        "number": 64,
                        "ticks": 83520,
                        "time": 151.304484,
                        "value": 0
                    },
                    {
                        "number": 64,
                        "ticks": 88800,
                        "time": 160.86971,
                        "value": 1
                    },
                    {
                        "number": 64,
                        "ticks": 89040,
                        "time": 161.304493,
                        "value": 0
                    },
                    {
                        "number": 64,
                        "ticks": 89280,
                        "time": 161.73927600000002,
                        "value": 0
                    },
                    {
                        "number": 64,
                        "ticks": 89280,
                        "time": 161.73927600000002,
                        "value": 0
                    },
                    {
                        "number": 64,
                        "ticks": 89760,
                        "time": 162.608842,
                        "value": 1
                    },
                    {
                        "number": 64,
                        "ticks": 90000,
                        "time": 163.04362500000002,
                        "value": 0
                    },
                    {
                        "number": 64,
                        "ticks": 90240,
                        "time": 163.478408,
                        "value": 0
                    },
                    {
                        "number": 64,
                        "ticks": 90240,
                        "time": 163.478408,
                        "value": 0
                    },
                    {
                        "number": 64,
                        "ticks": 93120,
                        "time": 168.695804,
                        "value": 1
                    },
                    {
                        "number": 64,
                        "ticks": 93360,
                        "time": 169.13058700000002,
                        "value": 0
                    },
                    {
                        "number": 64,
                        "ticks": 93600,
                        "time": 169.56537,
                        "value": 1
                    },
                    {
                        "number": 64,
                        "ticks": 93840,
                        "time": 170.000153,
                        "value": 0
                    },
                    {
                        "number": 64,
                        "ticks": 94080,
                        "time": 170.43493600000002,
                        "value": 0
                    },
                    {
                        "number": 64,
                        "ticks": 94080,
                        "time": 170.43493600000002,
                        "value": 0
                    },
                    {
                        "number": 64,
                        "ticks": 94160,
                        "time": 170.57986366666668,
                        "value": 1
                    },
                    {
                        "number": 64,
                        "ticks": 94320,
                        "time": 170.869719,
                        "value": 0
                    },
                    {
                        "number": 64,
                        "ticks": 94640,
                        "time": 171.44942966666667,
                        "value": 1
                    },
                    {
                        "number": 64,
                        "ticks": 94800,
                        "time": 171.73928500000002,
                        "value": 0
                    },
                    {
                        "number": 64,
                        "ticks": 95040,
                        "time": 172.174068,
                        "value": 1
                    },
                    {
                        "number": 64,
                        "ticks": 95360,
                        "time": 172.75377866666668,
                        "value": 0
                    },
                    {
                        "number": 64,
                        "ticks": 95520,
                        "time": 173.04363400000003,
                        "value": 1
                    },
                    {
                        "number": 64,
                        "ticks": 95760,
                        "time": 173.478417,
                        "value": 0
                    },
                    {
                        "number": 64,
                        "ticks": 96000,
                        "time": 173.91320000000002,
                        "value": 0
                    }
                ],
                "91": [
                    {
                        "number": 91,
                        "ticks": 0,
                        "time": 0,
                        "value": 0.31496062992125984
                    }
                ],
                "93": [
                    {
                        "number": 93,
                        "ticks": 0,
                        "time": 0,
                        "value": 0
                    }
                ],
                "123": [
                    {
                        "number": 123,
                        "ticks": 0,
                        "time": 0,
                        "value": 0
                    }
                ]
            },
            "pitchBends": [],
            "instrument": {
                "family": "guitar",
                "name": "acoustic guitar (nylon)",
                "number": 24
            },
            "name": "Guitar / Nylon string",
            "notes": [
                {
                    "duration": 0.11594213333333325,
                    "durationTicks": 64,
                    "midi": 55,
                    "name": "G3",
                    "ticks": 2158,
                    "time": 3.909423808333334,
                    "velocity": 0.47244094488188976
                },
                {
                    "duration": 0.11594213333333325,
                    "durationTicks": 64,
                    "midi": 60,
                    "name": "C4",
                    "ticks": 2164,
                    "time": 3.920293383333334,
                    "velocity": 0.2440944881889764
                },
                {
                    "duration": 0.13043490000000002,
                    "durationTicks": 72,
                    "midi": 60,
                    "name": "C4",
                    "ticks": 2640,
                    "time": 4.7826130000000004,
                    "velocity": 0.4094488188976378
                },
                {
                    "duration": 0.11594213333333325,
                    "durationTicks": 64,
                    "midi": 55,
                    "name": "G3",
                    "ticks": 2640,
                    "time": 4.7826130000000004,
                    "velocity": 0.5196850393700787
                },
                {
                    "duration": 0.11594213333333325,
                    "durationTicks": 64,
                    "midi": 60,
                    "name": "C4",
                    "ticks": 3118,
                    "time": 5.648555808333334,
                    "velocity": 0.47244094488188976
                },
                {
                    "duration": 0.11594213333333325,
                    "durationTicks": 64,
                    "midi": 66,
                    "name": "F#4",
                    "ticks": 3124,
                    "time": 5.659425383333334,
                    "velocity": 0.2440944881889764
                },
                {
                    "duration": 0.1304349000000009,
                    "durationTicks": 72,
                    "midi": 66,
                    "name": "F#4",
                    "ticks": 3600,
                    "time": 6.521745,
                    "velocity": 0.4094488188976378
                },
                {
                    "duration": 0.11594213333333414,
                    "durationTicks": 64,
                    "midi": 60,
                    "name": "C4",
                    "ticks": 3600,
                    "time": 6.521745,
                    "velocity": 0.5196850393700787
                },
                {
                    "duration": 0.11594213333333325,
                    "durationTicks": 64,
                    "midi": 59,
                    "name": "B3",
                    "ticks": 4078,
                    "time": 7.387687808333334,
                    "velocity": 0.47244094488188976
                },
                {
                    "duration": 0.11594213333333414,
                    "durationTicks": 64,
                    "midi": 66,
                    "name": "F#4",
                    "ticks": 4084,
                    "time": 7.398557383333333,
                    "velocity": 0.2440944881889764
                },
                {
                    "duration": 0.1304349000000009,
                    "durationTicks": 72,
                    "midi": 66,
                    "name": "F#4",
                    "ticks": 4560,
                    "time": 8.260877,
                    "velocity": 0.4094488188976378
                },
                {
                    "duration": 0.11594213333333236,
                    "durationTicks": 64,
                    "midi": 59,
                    "name": "B3",
                    "ticks": 4560,
                    "time": 8.260877,
                    "velocity": 0.5196850393700787
                },
                {
                    "duration": 0.11594213333333414,
                    "durationTicks": 64,
                    "midi": 59,
                    "name": "B3",
                    "ticks": 5038,
                    "time": 9.126819808333334,
                    "velocity": 0.47244094488188976
                },
                {
                    "duration": 0.11594213333333414,
                    "durationTicks": 64,
                    "midi": 64,
                    "name": "E4",
                    "ticks": 5044,
                    "time": 9.137689383333333,
                    "velocity": 0.2440944881889764
                },
                {
                    "duration": 0.1304349000000009,
                    "durationTicks": 72,
                    "midi": 64,
                    "name": "E4",
                    "ticks": 5520,
                    "time": 10.000009,
                    "velocity": 0.4094488188976378
                },
                {
                    "duration": 0.11594213333333414,
                    "durationTicks": 64,
                    "midi": 59,
                    "name": "B3",
                    "ticks": 5520,
                    "time": 10.000009,
                    "velocity": 0.5196850393700787
                },
                {
                    "duration": 0.11594213333333414,
                    "durationTicks": 64,
                    "midi": 57,
                    "name": "A3",
                    "ticks": 5998,
                    "time": 10.865951808333334,
                    "velocity": 0.47244094488188976
                },
                {
                    "duration": 0.11594213333333414,
                    "durationTicks": 64,
                    "midi": 64,
                    "name": "E4",
                    "ticks": 6004,
                    "time": 10.876821383333334,
                    "velocity": 0.2440944881889764
                },
                {
                    "duration": 0.1304349000000009,
                    "durationTicks": 72,
                    "midi": 64,
                    "name": "E4",
                    "ticks": 6480,
                    "time": 11.739141,
                    "velocity": 0.4094488188976378
                },
                {
                    "duration": 0.11594213333333414,
                    "durationTicks": 64,
                    "midi": 57,
                    "name": "A3",
                    "ticks": 6480,
                    "time": 11.739141,
                    "velocity": 0.5196850393700787
                },
                {
                    "duration": 0.11594213333333236,
                    "durationTicks": 64,
                    "midi": 57,
                    "name": "A3",
                    "ticks": 6958,
                    "time": 12.605083808333335,
                    "velocity": 0.47244094488188976
                },
                {
                    "duration": 0.11594213333333414,
                    "durationTicks": 64,
                    "midi": 63,
                    "name": "D#4",
                    "ticks": 6964,
                    "time": 12.615953383333334,
                    "velocity": 0.2440944881889764
                },
                {
                    "duration": 0.13043489999999913,
                    "durationTicks": 72,
                    "midi": 63,
                    "name": "D#4",
                    "ticks": 7440,
                    "time": 13.478273000000002,
                    "velocity": 0.4094488188976378
                },
                {
                    "duration": 0.11594213333333236,
                    "durationTicks": 64,
                    "midi": 57,
                    "name": "A3",
                    "ticks": 7440,
                    "time": 13.478273000000002,
                    "velocity": 0.5196850393700787
                },
                {
                    "duration": 0.11594213333333236,
                    "durationTicks": 64,
                    "midi": 55,
                    "name": "G3",
                    "ticks": 7918,
                    "time": 14.344215808333335,
                    "velocity": 0.47244094488188976
                },
                {
                    "duration": 0.11594213333333236,
                    "durationTicks": 64,
                    "midi": 62,
                    "name": "D4",
                    "ticks": 7924,
                    "time": 14.355085383333334,
                    "velocity": 0.2440944881889764
                },
                {
                    "duration": 0.13043489999999913,
                    "durationTicks": 72,
                    "midi": 62,
                    "name": "D4",
                    "ticks": 8400,
                    "time": 15.217405000000001,
                    "velocity": 0.4094488188976378
                },
                {
                    "duration": 0.11594213333333236,
                    "durationTicks": 64,
                    "midi": 55,
                    "name": "G3",
                    "ticks": 8400,
                    "time": 15.217405000000001,
                    "velocity": 0.5196850393700787
                },
                {
                    "duration": 0.11594213333333059,
                    "durationTicks": 64,
                    "midi": 55,
                    "name": "G3",
                    "ticks": 8878,
                    "time": 16.083347808333336,
                    "velocity": 0.47244094488188976
                },
                {
                    "duration": 0.11594213333333414,
                    "durationTicks": 64,
                    "midi": 62,
                    "name": "D4",
                    "ticks": 8884,
                    "time": 16.094217383333334,
                    "velocity": 0.2440944881889764
                },
                {
                    "duration": 0.11594213333333414,
                    "durationTicks": 64,
                    "midi": 56,
                    "name": "G#3",
                    "ticks": 9358,
                    "time": 16.952913808333335,
                    "velocity": 0.47244094488188976
                },
                {
                    "duration": 0.11594213333333414,
                    "durationTicks": 64,
                    "midi": 62,
                    "name": "D4",
                    "ticks": 9364,
                    "time": 16.963783383333332,
                    "velocity": 0.2440944881889764
                },
                {
                    "duration": 0.11594213333333414,
                    "durationTicks": 64,
                    "midi": 55,
                    "name": "G3",
                    "ticks": 9838,
                    "time": 17.822479808333334,
                    "velocity": 0.47244094488188976
                },
                {
                    "duration": 0.11594213333333059,
                    "durationTicks": 64,
                    "midi": 60,
                    "name": "C4",
                    "ticks": 9844,
                    "time": 17.833349383333335,
                    "velocity": 0.2440944881889764
                },
                {
                    "duration": 0.13043489999999736,
                    "durationTicks": 72,
                    "midi": 60,
                    "name": "C4",
                    "ticks": 10320,
                    "time": 18.695669000000002,
                    "velocity": 0.4094488188976378
                },
                {
                    "duration": 0.11594213333333059,
                    "durationTicks": 64,
                    "midi": 55,
                    "name": "G3",
                    "ticks": 10320,
                    "time": 18.695669000000002,
                    "velocity": 0.5196850393700787
                },
                {
                    "duration": 0.11594213333333414,
                    "durationTicks": 64,
                    "midi": 60,
                    "name": "C4",
                    "ticks": 10798,
                    "time": 19.561611808333335,
                    "velocity": 0.47244094488188976
                },
                {
                    "duration": 0.11594213333333414,
                    "durationTicks": 64,
                    "midi": 66,
                    "name": "F#4",
                    "ticks": 10804,
                    "time": 19.572481383333333,
                    "velocity": 0.2440944881889764
                },
                {
                    "duration": 0.1304349000000009,
                    "durationTicks": 72,
                    "midi": 66,
                    "name": "F#4",
                    "ticks": 11280,
                    "time": 20.434801,
                    "velocity": 0.4094488188976378
                },
                {
                    "duration": 0.11594213333333414,
                    "durationTicks": 64,
                    "midi": 60,
                    "name": "C4",
                    "ticks": 11280,
                    "time": 20.434801,
                    "velocity": 0.5196850393700787
                },
                {
                    "duration": 0.11594213333333414,
                    "durationTicks": 64,
                    "midi": 59,
                    "name": "B3",
                    "ticks": 11758,
                    "time": 21.300743808333333,
                    "velocity": 0.47244094488188976
                },
                {
                    "duration": 0.11594213333333414,
                    "durationTicks": 64,
                    "midi": 66,
                    "name": "F#4",
                    "ticks": 11764,
                    "time": 21.311613383333334,
                    "velocity": 0.2440944881889764
                },
                {
                    "duration": 0.13043489999999736,
                    "durationTicks": 72,
                    "midi": 66,
                    "name": "F#4",
                    "ticks": 12240,
                    "time": 22.173933,
                    "velocity": 0.4094488188976378
                },
                {
                    "duration": 0.11594213333333414,
                    "durationTicks": 64,
                    "midi": 59,
                    "name": "B3",
                    "ticks": 12240,
                    "time": 22.173933,
                    "velocity": 0.5196850393700787
                },
                {
                    "duration": 0.11594213333333414,
                    "durationTicks": 64,
                    "midi": 59,
                    "name": "B3",
                    "ticks": 12718,
                    "time": 23.039875808333335,
                    "velocity": 0.47244094488188976
                },
                {
                    "duration": 0.11594213333333059,
                    "durationTicks": 64,
                    "midi": 64,
                    "name": "E4",
                    "ticks": 12724,
                    "time": 23.050745383333336,
                    "velocity": 0.2440944881889764
                },
                {
                    "duration": 0.13043489999999736,
                    "durationTicks": 72,
                    "midi": 64,
                    "name": "E4",
                    "ticks": 13200,
                    "time": 23.913065000000003,
                    "velocity": 0.4094488188976378
                },
                {
                    "duration": 0.11594213333333059,
                    "durationTicks": 64,
                    "midi": 59,
                    "name": "B3",
                    "ticks": 13200,
                    "time": 23.913065000000003,
                    "velocity": 0.5196850393700787
                },
                {
                    "duration": 0.11594213333333059,
                    "durationTicks": 64,
                    "midi": 57,
                    "name": "A3",
                    "ticks": 13678,
                    "time": 24.779007808333336,
                    "velocity": 0.47244094488188976
                },
                {
                    "duration": 0.11594213333333414,
                    "durationTicks": 64,
                    "midi": 64,
                    "name": "E4",
                    "ticks": 13684,
                    "time": 24.789877383333334,
                    "velocity": 0.2440944881889764
                },
                {
                    "duration": 0.1304349000000009,
                    "durationTicks": 72,
                    "midi": 64,
                    "name": "E4",
                    "ticks": 14160,
                    "time": 25.652197,
                    "velocity": 0.4094488188976378
                },
                {
                    "duration": 0.11594213333333414,
                    "durationTicks": 64,
                    "midi": 57,
                    "name": "A3",
                    "ticks": 14160,
                    "time": 25.652197,
                    "velocity": 0.5196850393700787
                },
                {
                    "duration": 0.11594213333333414,
                    "durationTicks": 64,
                    "midi": 57,
                    "name": "A3",
                    "ticks": 14638,
                    "time": 26.518139808333334,
                    "velocity": 0.47244094488188976
                },
                {
                    "duration": 0.11594213333333414,
                    "durationTicks": 64,
                    "midi": 63,
                    "name": "D#4",
                    "ticks": 14644,
                    "time": 26.529009383333335,
                    "velocity": 0.2440944881889764
                },
                {
                    "duration": 0.13043489999999736,
                    "durationTicks": 72,
                    "midi": 63,
                    "name": "D#4",
                    "ticks": 15120,
                    "time": 27.391329000000002,
                    "velocity": 0.4094488188976378
                },
                {
                    "duration": 0.11594213333333414,
                    "durationTicks": 64,
                    "midi": 57,
                    "name": "A3",
                    "ticks": 15120,
                    "time": 27.391329000000002,
                    "velocity": 0.5196850393700787
                },
                {
                    "duration": 0.1159421333333377,
                    "durationTicks": 64,
                    "midi": 55,
                    "name": "G3",
                    "ticks": 15598,
                    "time": 28.257271808333332,
                    "velocity": 0.47244094488188976
                },
                {
                    "duration": 0.11594213333333059,
                    "durationTicks": 64,
                    "midi": 61,
                    "name": "C#4",
                    "ticks": 15604,
                    "time": 28.268141383333337,
                    "velocity": 0.2440944881889764
                },
                {
                    "duration": 0.1304349000000009,
                    "durationTicks": 72,
                    "midi": 61,
                    "name": "C#4",
                    "ticks": 16080,
                    "time": 29.130461,
                    "velocity": 0.4094488188976378
                },
                {
                    "duration": 0.11594213333333414,
                    "durationTicks": 64,
                    "midi": 55,
                    "name": "G3",
                    "ticks": 16080,
                    "time": 29.130461,
                    "velocity": 0.5196850393700787
                },
                {
                    "duration": 0.10869574999999898,
                    "durationTicks": 60,
                    "midi": 55,
                    "name": "G3",
                    "ticks": 16568,
                    "time": 30.01451976666667,
                    "velocity": 0.47244094488188976
                },
                {
                    "duration": 0.11594213333333059,
                    "durationTicks": 64,
                    "midi": 61,
                    "name": "C#4",
                    "ticks": 16568,
                    "time": 30.01451976666667,
                    "velocity": 0.31496062992125984
                },
                {
                    "duration": 0.12318851666666575,
                    "durationTicks": 68,
                    "midi": 61,
                    "name": "C#4",
                    "ticks": 17046,
                    "time": 30.880462575000006,
                    "velocity": 0.4094488188976378
                },
                {
                    "duration": 0.11594213333333414,
                    "durationTicks": 64,
                    "midi": 55,
                    "name": "G3",
                    "ticks": 17050,
                    "time": 30.887708958333338,
                    "velocity": 0.5196850393700787
                },
                {
                    "duration": 0.40942065833333174,
                    "durationTicks": 226,
                    "midi": 57,
                    "name": "A3",
                    "ticks": 17284,
                    "time": 31.311622383333336,
                    "velocity": 0.33070866141732286
                },
                {
                    "duration": 0.4202902333333327,
                    "durationTicks": 232,
                    "midi": 64,
                    "name": "E4",
                    "ticks": 17288,
                    "time": 31.318868766666668,
                    "velocity": 0.2755905511811024
                },
                {
                    "duration": 0.07608702499999964,
                    "durationTicks": 42,
                    "midi": 57,
                    "name": "A3",
                    "ticks": 17524,
                    "time": 31.746405383333336,
                    "velocity": 0.4251968503937008
                },
                {
                    "duration": 0.061594258333332874,
                    "durationTicks": 34,
                    "midi": 64,
                    "name": "E4",
                    "ticks": 17530,
                    "time": 31.757274958333337,
                    "velocity": 0.4015748031496063
                },
                {
                    "duration": 0.41666704166666335,
                    "durationTicks": 230,
                    "midi": 57,
                    "name": "A3",
                    "ticks": 17766,
                    "time": 32.184811575000005,
                    "velocity": 0.31496062992125984
                },
                {
                    "duration": 0.4275366166666714,
                    "durationTicks": 236,
                    "midi": 64,
                    "name": "E4",
                    "ticks": 17770,
                    "time": 32.192057958333336,
                    "velocity": 0.25984251968503935
                },
                {
                    "duration": 0.09057979166666286,
                    "durationTicks": 50,
                    "midi": 57,
                    "name": "A3",
                    "ticks": 18004,
                    "time": 32.61597138333334,
                    "velocity": 0.3937007874015748
                },
                {
                    "duration": 0.07608702499999964,
                    "durationTicks": 42,
                    "midi": 64,
                    "name": "E4",
                    "ticks": 18010,
                    "time": 32.62684095833334,
                    "velocity": 0.3937007874015748
                },
                {
                    "duration": 0.40942065833333174,
                    "durationTicks": 226,
                    "midi": 57,
                    "name": "A3",
                    "ticks": 18244,
                    "time": 33.050754383333334,
                    "velocity": 0.33070866141732286
                },
                {
                    "duration": 0.4202902333333398,
                    "durationTicks": 232,
                    "midi": 63,
                    "name": "D#4",
                    "ticks": 18248,
                    "time": 33.058000766666666,
                    "velocity": 0.2755905511811024
                },
                {
                    "duration": 0.07608702499999964,
                    "durationTicks": 42,
                    "midi": 57,
                    "name": "A3",
                    "ticks": 18484,
                    "time": 33.48553738333334,
                    "velocity": 0.4251968503937008
                },
                {
                    "duration": 0.06159425833332932,
                    "durationTicks": 34,
                    "midi": 63,
                    "name": "D#4",
                    "ticks": 18490,
                    "time": 33.49640695833334,
                    "velocity": 0.4015748031496063
                },
                {
                    "duration": 0.41666704166666335,
                    "durationTicks": 230,
                    "midi": 57,
                    "name": "A3",
                    "ticks": 18726,
                    "time": 33.923943575,
                    "velocity": 0.31496062992125984
                },
                {
                    "duration": 0.4275366166666714,
                    "durationTicks": 236,
                    "midi": 63,
                    "name": "D#4",
                    "ticks": 18730,
                    "time": 33.931189958333334,
                    "velocity": 0.25984251968503935
                },
                {
                    "duration": 0.09057979166666286,
                    "durationTicks": 50,
                    "midi": 57,
                    "name": "A3",
                    "ticks": 18964,
                    "time": 34.355103383333336,
                    "velocity": 0.3937007874015748
                },
                {
                    "duration": 0.07608702499999964,
                    "durationTicks": 42,
                    "midi": 63,
                    "name": "D#4",
                    "ticks": 18970,
                    "time": 34.36597295833334,
                    "velocity": 0.3937007874015748
                },
                {
                    "duration": 0.40942065833333174,
                    "durationTicks": 226,
                    "midi": 55,
                    "name": "G3",
                    "ticks": 19204,
                    "time": 34.78988638333333,
                    "velocity": 0.33070866141732286
                },
                {
                    "duration": 0.4202902333333327,
                    "durationTicks": 232,
                    "midi": 62,
                    "name": "D4",
                    "ticks": 19208,
                    "time": 34.79713276666667,
                    "velocity": 0.2755905511811024
                },
                {
                    "duration": 0.07608702499999964,
                    "durationTicks": 42,
                    "midi": 55,
                    "name": "G3",
                    "ticks": 19444,
                    "time": 35.224669383333335,
                    "velocity": 0.4251968503937008
                },
                {
                    "duration": 0.06159425833333643,
                    "durationTicks": 34,
                    "midi": 62,
                    "name": "D4",
                    "ticks": 19450,
                    "time": 35.235538958333336,
                    "velocity": 0.4015748031496063
                },
                {
                    "duration": 0.41666704166666335,
                    "durationTicks": 230,
                    "midi": 55,
                    "name": "G3",
                    "ticks": 19686,
                    "time": 35.66307557500001,
                    "velocity": 0.31496062992125984
                },
                {
                    "duration": 0.4275366166666643,
                    "durationTicks": 236,
                    "midi": 62,
                    "name": "D4",
                    "ticks": 19690,
                    "time": 35.67032195833334,
                    "velocity": 0.25984251968503935
                },
                {
                    "duration": 0.09057979166666286,
                    "durationTicks": 50,
                    "midi": 55,
                    "name": "G3",
                    "ticks": 19924,
                    "time": 36.094235383333334,
                    "velocity": 0.3937007874015748
                },
                {
                    "duration": 0.07608702499999964,
                    "durationTicks": 42,
                    "midi": 62,
                    "name": "D4",
                    "ticks": 19930,
                    "time": 36.105104958333335,
                    "velocity": 0.3937007874015748
                },
                {
                    "duration": 0.40942065833333174,
                    "durationTicks": 226,
                    "midi": 55,
                    "name": "G3",
                    "ticks": 20166,
                    "time": 36.53264157500001,
                    "velocity": 0.31496062992125984
                },
                {
                    "duration": 0.40942065833333174,
                    "durationTicks": 226,
                    "midi": 62,
                    "name": "D4",
                    "ticks": 20170,
                    "time": 36.53988795833334,
                    "velocity": 0.25984251968503935
                },
                {
                    "duration": 0.06159425833333643,
                    "durationTicks": 34,
                    "midi": 62,
                    "name": "D4",
                    "ticks": 20400,
                    "time": 36.956555,
                    "velocity": 0.3937007874015748
                },
                {
                    "duration": 0.07608702499999964,
                    "durationTicks": 42,
                    "midi": 55,
                    "name": "G3",
                    "ticks": 20402,
                    "time": 36.96017819166667,
                    "velocity": 0.4015748031496063
                },
                {
                    "duration": 0.4057974666666695,
                    "durationTicks": 224,
                    "midi": 55,
                    "name": "G3",
                    "ticks": 20648,
                    "time": 37.40583076666667,
                    "velocity": 0.31496062992125984
                },
                {
                    "duration": 0.42391342500000206,
                    "durationTicks": 234,
                    "midi": 62,
                    "name": "D4",
                    "ticks": 20648,
                    "time": 37.40583076666667,
                    "velocity": 0.2677165354330709
                },
                {
                    "duration": 0.06884064166666803,
                    "durationTicks": 38,
                    "midi": 55,
                    "name": "G3",
                    "ticks": 20882,
                    "time": 37.82974419166667,
                    "velocity": 0.41732283464566927
                },
                {
                    "duration": 0.11594213333334125,
                    "durationTicks": 64,
                    "midi": 55,
                    "name": "G3",
                    "ticks": 21358,
                    "time": 38.69206380833333,
                    "velocity": 0.47244094488188976
                },
                {
                    "duration": 0.11594213333332704,
                    "durationTicks": 64,
                    "midi": 60,
                    "name": "C4",
                    "ticks": 21364,
                    "time": 38.70293338333334,
                    "velocity": 0.2440944881889764
                },
                {
                    "duration": 0.13043489999999736,
                    "durationTicks": 72,
                    "midi": 60,
                    "name": "C4",
                    "ticks": 21840,
                    "time": 39.565253000000006,
                    "velocity": 0.4094488188976378
                },
                {
                    "duration": 0.11594213333332704,
                    "durationTicks": 64,
                    "midi": 55,
                    "name": "G3",
                    "ticks": 21840,
                    "time": 39.565253000000006,
                    "velocity": 0.5196850393700787
                },
                {
                    "duration": 0.11594213333333414,
                    "durationTicks": 64,
                    "midi": 60,
                    "name": "C4",
                    "ticks": 22318,
                    "time": 40.431195808333335,
                    "velocity": 0.47244094488188976
                },
                {
                    "duration": 0.11594213333333414,
                    "durationTicks": 64,
                    "midi": 66,
                    "name": "F#4",
                    "ticks": 22324,
                    "time": 40.442065383333336,
                    "velocity": 0.2440944881889764
                },
                {
                    "duration": 0.13043489999999736,
                    "durationTicks": 72,
                    "midi": 66,
                    "name": "F#4",
                    "ticks": 22800,
                    "time": 41.304385,
                    "velocity": 0.4094488188976378
                },
                {
                    "duration": 0.11594213333333414,
                    "durationTicks": 64,
                    "midi": 60,
                    "name": "C4",
                    "ticks": 22800,
                    "time": 41.304385,
                    "velocity": 0.5196850393700787
                },
                {
                    "duration": 0.11594213333334125,
                    "durationTicks": 64,
                    "midi": 59,
                    "name": "B3",
                    "ticks": 23278,
                    "time": 42.17032780833333,
                    "velocity": 0.47244094488188976
                },
                {
                    "duration": 0.11594213333333414,
                    "durationTicks": 64,
                    "midi": 66,
                    "name": "F#4",
                    "ticks": 23284,
                    "time": 42.181197383333334,
                    "velocity": 0.2440944881889764
                },
                {
                    "duration": 0.13043489999999736,
                    "durationTicks": 72,
                    "midi": 66,
                    "name": "F#4",
                    "ticks": 23760,
                    "time": 43.043517,
                    "velocity": 0.4094488188976378
                },
                {
                    "duration": 0.11594213333333414,
                    "durationTicks": 64,
                    "midi": 59,
                    "name": "B3",
                    "ticks": 23760,
                    "time": 43.043517,
                    "velocity": 0.5196850393700787
                },
                {
                    "duration": 0.10869574999999543,
                    "durationTicks": 60,
                    "midi": 59,
                    "name": "B3",
                    "ticks": 24248,
                    "time": 43.92757576666667,
                    "velocity": 0.47244094488188976
                },
                {
                    "duration": 0.11594213333333414,
                    "durationTicks": 64,
                    "midi": 66,
                    "name": "F#4",
                    "ticks": 24248,
                    "time": 43.92757576666667,
                    "velocity": 0.31496062992125984
                },
                {
                    "duration": 0.12318851666666575,
                    "durationTicks": 68,
                    "midi": 66,
                    "name": "F#4",
                    "ticks": 24726,
                    "time": 44.79351857500001,
                    "velocity": 0.4094488188976378
                },
                {
                    "duration": 0.11594213333333414,
                    "durationTicks": 64,
                    "midi": 59,
                    "name": "B3",
                    "ticks": 24730,
                    "time": 44.80076495833334,
                    "velocity": 0.5196850393700787
                },
                {
                    "duration": 0.11594213333333414,
                    "durationTicks": 64,
                    "midi": 57,
                    "name": "A3",
                    "ticks": 25198,
                    "time": 45.648591808333336,
                    "velocity": 0.47244094488188976
                },
                {
                    "duration": 0.11594213333333414,
                    "durationTicks": 64,
                    "midi": 64,
                    "name": "E4",
                    "ticks": 25204,
                    "time": 45.65946138333334,
                    "velocity": 0.2440944881889764
                },
                {
                    "duration": 0.13043489999999736,
                    "durationTicks": 72,
                    "midi": 64,
                    "name": "E4",
                    "ticks": 25680,
                    "time": 46.521781000000004,
                    "velocity": 0.4094488188976378
                },
                {
                    "duration": 0.11594213333333414,
                    "durationTicks": 64,
                    "midi": 57,
                    "name": "A3",
                    "ticks": 25680,
                    "time": 46.521781000000004,
                    "velocity": 0.5196850393700787
                },
                {
                    "duration": 0.11594213333334125,
                    "durationTicks": 64,
                    "midi": 57,
                    "name": "A3",
                    "ticks": 26158,
                    "time": 47.387723808333334,
                    "velocity": 0.47244094488188976
                },
                {
                    "duration": 0.11594213333333414,
                    "durationTicks": 64,
                    "midi": 63,
                    "name": "D#4",
                    "ticks": 26164,
                    "time": 47.398593383333335,
                    "velocity": 0.2440944881889764
                },
                {
                    "duration": 0.13043489999999736,
                    "durationTicks": 72,
                    "midi": 63,
                    "name": "D#4",
                    "ticks": 26640,
                    "time": 48.260913,
                    "velocity": 0.4094488188976378
                },
                {
                    "duration": 0.11594213333333414,
                    "durationTicks": 64,
                    "midi": 57,
                    "name": "A3",
                    "ticks": 26640,
                    "time": 48.260913,
                    "velocity": 0.5196850393700787
                },
                {
                    "duration": 0.11594213333334125,
                    "durationTicks": 64,
                    "midi": 55,
                    "name": "G3",
                    "ticks": 27118,
                    "time": 49.12685580833333,
                    "velocity": 0.47244094488188976
                },
                {
                    "duration": 0.11594213333332704,
                    "durationTicks": 64,
                    "midi": 62,
                    "name": "D4",
                    "ticks": 27124,
                    "time": 49.13772538333334,
                    "velocity": 0.2440944881889764
                },
                {
                    "duration": 0.11594213333334125,
                    "durationTicks": 64,
                    "midi": 55,
                    "name": "G3",
                    "ticks": 27598,
                    "time": 49.99642180833333,
                    "velocity": 0.47244094488188976
                },
                {
                    "duration": 0.11594213333332704,
                    "durationTicks": 64,
                    "midi": 61,
                    "name": "C#4",
                    "ticks": 27604,
                    "time": 50.00729138333334,
                    "velocity": 0.2440944881889764
                },
                {
                    "duration": 0.40942065833333174,
                    "durationTicks": 226,
                    "midi": 60,
                    "name": "C4",
                    "ticks": 27844,
                    "time": 50.442074383333335,
                    "velocity": 0.33070866141732286
                },
                {
                    "duration": 0.4202902333333398,
                    "durationTicks": 232,
                    "midi": 65,
                    "name": "F4",
                    "ticks": 27848,
                    "time": 50.449320766666666,
                    "velocity": 0.2755905511811024
                },
                {
                    "duration": 0.07608702499999964,
                    "durationTicks": 42,
                    "midi": 60,
                    "name": "C4",
                    "ticks": 28084,
                    "time": 50.87685738333334,
                    "velocity": 0.4251968503937008
                },
                {
                    "duration": 0.06159425833333643,
                    "durationTicks": 34,
                    "midi": 65,
                    "name": "F4",
                    "ticks": 28090,
                    "time": 50.88772695833334,
                    "velocity": 0.4015748031496063
                },
                {
                    "duration": 0.11594213333333414,
                    "durationTicks": 64,
                    "midi": 59,
                    "name": "B3",
                    "ticks": 28558,
                    "time": 51.735553808333336,
                    "velocity": 0.47244094488188976
                },
                {
                    "duration": 0.11594213333333414,
                    "durationTicks": 64,
                    "midi": 65,
                    "name": "F4",
                    "ticks": 28564,
                    "time": 51.74642338333334,
                    "velocity": 0.2440944881889764
                },
                {
                    "duration": 0.11594213333334125,
                    "durationTicks": 64,
                    "midi": 59,
                    "name": "B3",
                    "ticks": 29038,
                    "time": 52.605119808333335,
                    "velocity": 0.47244094488188976
                },
                {
                    "duration": 0.11594213333333414,
                    "durationTicks": 64,
                    "midi": 64,
                    "name": "E4",
                    "ticks": 29044,
                    "time": 52.615989383333336,
                    "velocity": 0.2440944881889764
                },
                {
                    "duration": 0.13043489999999736,
                    "durationTicks": 72,
                    "midi": 64,
                    "name": "E4",
                    "ticks": 29520,
                    "time": 53.478309,
                    "velocity": 0.4094488188976378
                },
                {
                    "duration": 0.11594213333333414,
                    "durationTicks": 64,
                    "midi": 59,
                    "name": "B3",
                    "ticks": 29520,
                    "time": 53.478309,
                    "velocity": 0.5196850393700787
                },
                {
                    "duration": 0.11594213333334125,
                    "durationTicks": 64,
                    "midi": 57,
                    "name": "A3",
                    "ticks": 29998,
                    "time": 54.34425180833333,
                    "velocity": 0.47244094488188976
                },
                {
                    "duration": 0.11594213333333414,
                    "durationTicks": 64,
                    "midi": 64,
                    "name": "E4",
                    "ticks": 30004,
                    "time": 54.35512138333333,
                    "velocity": 0.2440944881889764
                },
                {
                    "duration": 0.11594213333334125,
                    "durationTicks": 64,
                    "midi": 57,
                    "name": "A3",
                    "ticks": 30478,
                    "time": 55.21381780833333,
                    "velocity": 0.47244094488188976
                },
                {
                    "duration": 0.11594213333332704,
                    "durationTicks": 64,
                    "midi": 63,
                    "name": "D#4",
                    "ticks": 30484,
                    "time": 55.22468738333334,
                    "velocity": 0.2440944881889764
                },
                {
                    "duration": 0.40942065833333174,
                    "durationTicks": 226,
                    "midi": 55,
                    "name": "G3",
                    "ticks": 30724,
                    "time": 55.65947038333334,
                    "velocity": 0.33070866141732286
                },
                {
                    "duration": 0.4202902333333398,
                    "durationTicks": 232,
                    "midi": 62,
                    "name": "D4",
                    "ticks": 30728,
                    "time": 55.66671676666667,
                    "velocity": 0.2755905511811024
                },
                {
                    "duration": 0.07608702499999254,
                    "durationTicks": 42,
                    "midi": 55,
                    "name": "G3",
                    "ticks": 30964,
                    "time": 56.094253383333346,
                    "velocity": 0.4251968503937008
                },
                {
                    "duration": 0.06159425833333643,
                    "durationTicks": 34,
                    "midi": 62,
                    "name": "D4",
                    "ticks": 30970,
                    "time": 56.10512295833333,
                    "velocity": 0.4015748031496063
                },
                {
                    "duration": 0.41666704166666335,
                    "durationTicks": 230,
                    "midi": 55,
                    "name": "G3",
                    "ticks": 31206,
                    "time": 56.532659575000004,
                    "velocity": 0.31496062992125984
                },
                {
                    "duration": 0.4275366166666714,
                    "durationTicks": 236,
                    "midi": 62,
                    "name": "D4",
                    "ticks": 31210,
                    "time": 56.539905958333335,
                    "velocity": 0.25984251968503935
                },
                {
                    "duration": 0.09057979166665575,
                    "durationTicks": 50,
                    "midi": 55,
                    "name": "G3",
                    "ticks": 31444,
                    "time": 56.963819383333345,
                    "velocity": 0.3937007874015748
                },
                {
                    "duration": 0.07608702500000675,
                    "durationTicks": 42,
                    "midi": 62,
                    "name": "D4",
                    "ticks": 31450,
                    "time": 56.97468895833333,
                    "velocity": 0.3937007874015748
                },
                {
                    "duration": 0.40942065833333174,
                    "durationTicks": 226,
                    "midi": 55,
                    "name": "G3",
                    "ticks": 31686,
                    "time": 57.40222557500001,
                    "velocity": 0.31496062992125984
                },
                {
                    "duration": 0.40942065833333174,
                    "durationTicks": 226,
                    "midi": 62,
                    "name": "D4",
                    "ticks": 31690,
                    "time": 57.409471958333334,
                    "velocity": 0.25984251968503935
                },
                {
                    "duration": 0.06159425833333643,
                    "durationTicks": 34,
                    "midi": 62,
                    "name": "D4",
                    "ticks": 31920,
                    "time": 57.826139000000005,
                    "velocity": 0.3937007874015748
                },
                {
                    "duration": 0.07608702500000675,
                    "durationTicks": 42,
                    "midi": 55,
                    "name": "G3",
                    "ticks": 31922,
                    "time": 57.82976219166667,
                    "velocity": 0.4015748031496063
                },
                {
                    "duration": 0.4057974666666695,
                    "durationTicks": 224,
                    "midi": 55,
                    "name": "G3",
                    "ticks": 32168,
                    "time": 58.27541476666667,
                    "velocity": 0.31496062992125984
                },
                {
                    "duration": 0.42391342499999496,
                    "durationTicks": 234,
                    "midi": 62,
                    "name": "D4",
                    "ticks": 32168,
                    "time": 58.27541476666667,
                    "velocity": 0.2677165354330709
                },
                {
                    "duration": 0.06884064166666803,
                    "durationTicks": 38,
                    "midi": 55,
                    "name": "G3",
                    "ticks": 32402,
                    "time": 58.699328191666666,
                    "velocity": 0.41732283464566927
                },
                {
                    "duration": 0.40942065833333174,
                    "durationTicks": 226,
                    "midi": 55,
                    "name": "G3",
                    "ticks": 32644,
                    "time": 59.137734383333346,
                    "velocity": 0.33070866141732286
                },
                {
                    "duration": 0.4202902333333327,
                    "durationTicks": 232,
                    "midi": 60,
                    "name": "C4",
                    "ticks": 32648,
                    "time": 59.14498076666667,
                    "velocity": 0.2755905511811024
                },
                {
                    "duration": 0.07608702499999254,
                    "durationTicks": 42,
                    "midi": 55,
                    "name": "G3",
                    "ticks": 32884,
                    "time": 59.57251738333334,
                    "velocity": 0.4251968503937008
                },
                {
                    "duration": 0.06159425833333643,
                    "durationTicks": 34,
                    "midi": 60,
                    "name": "C4",
                    "ticks": 32890,
                    "time": 59.583386958333335,
                    "velocity": 0.4015748031496063
                },
                {
                    "duration": 0.41666704166665625,
                    "durationTicks": 230,
                    "midi": 55,
                    "name": "G3",
                    "ticks": 33126,
                    "time": 60.01092357500001,
                    "velocity": 0.31496062992125984
                },
                {
                    "duration": 0.4275366166666785,
                    "durationTicks": 236,
                    "midi": 60,
                    "name": "C4",
                    "ticks": 33130,
                    "time": 60.01816995833333,
                    "velocity": 0.25984251968503935
                },
                {
                    "duration": 0.09057979166666286,
                    "durationTicks": 50,
                    "midi": 55,
                    "name": "G3",
                    "ticks": 33364,
                    "time": 60.44208338333334,
                    "velocity": 0.3937007874015748
                },
                {
                    "duration": 0.07608702500000675,
                    "durationTicks": 42,
                    "midi": 60,
                    "name": "C4",
                    "ticks": 33370,
                    "time": 60.452952958333334,
                    "velocity": 0.3937007874015748
                },
                {
                    "duration": 0.40942065833333174,
                    "durationTicks": 226,
                    "midi": 60,
                    "name": "C4",
                    "ticks": 33604,
                    "time": 60.87686638333334,
                    "velocity": 0.33070866141732286
                },
                {
                    "duration": 0.4202902333333398,
                    "durationTicks": 232,
                    "midi": 66,
                    "name": "F#4",
                    "ticks": 33608,
                    "time": 60.88411276666667,
                    "velocity": 0.2755905511811024
                },
                {
                    "duration": 0.07608702499999254,
                    "durationTicks": 42,
                    "midi": 60,
                    "name": "C4",
                    "ticks": 33844,
                    "time": 61.31164938333335,
                    "velocity": 0.4251968503937008
                },
                {
                    "duration": 0.06159425833333643,
                    "durationTicks": 34,
                    "midi": 66,
                    "name": "F#4",
                    "ticks": 33850,
                    "time": 61.32251895833333,
                    "velocity": 0.4015748031496063
                },
                {
                    "duration": 0.41666704166666335,
                    "durationTicks": 230,
                    "midi": 60,
                    "name": "C4",
                    "ticks": 34086,
                    "time": 61.750055575000005,
                    "velocity": 0.31496062992125984
                },
                {
                    "duration": 0.4275366166666714,
                    "durationTicks": 236,
                    "midi": 66,
                    "name": "F#4",
                    "ticks": 34090,
                    "time": 61.757301958333336,
                    "velocity": 0.25984251968503935
                },
                {
                    "duration": 0.09057979166665575,
                    "durationTicks": 50,
                    "midi": 60,
                    "name": "C4",
                    "ticks": 34324,
                    "time": 62.181215383333345,
                    "velocity": 0.3937007874015748
                },
                {
                    "duration": 0.07608702500000675,
                    "durationTicks": 42,
                    "midi": 66,
                    "name": "F#4",
                    "ticks": 34330,
                    "time": 62.19208495833333,
                    "velocity": 0.3937007874015748
                },
                {
                    "duration": 0.11594213333332704,
                    "durationTicks": 64,
                    "midi": 59,
                    "name": "B3",
                    "ticks": 34798,
                    "time": 63.03991180833334,
                    "velocity": 0.47244094488188976
                },
                {
                    "duration": 0.11594213333332704,
                    "durationTicks": 64,
                    "midi": 66,
                    "name": "F#4",
                    "ticks": 34804,
                    "time": 63.050781383333344,
                    "velocity": 0.2440944881889764
                },
                {
                    "duration": 0.13043490000000446,
                    "durationTicks": 72,
                    "midi": 66,
                    "name": "F#4",
                    "ticks": 35280,
                    "time": 63.913101000000005,
                    "velocity": 0.4094488188976378
                },
                {
                    "duration": 0.11594213333334125,
                    "durationTicks": 64,
                    "midi": 59,
                    "name": "B3",
                    "ticks": 35280,
                    "time": 63.913101000000005,
                    "velocity": 0.5196850393700787
                },
                {
                    "duration": 0.40942065833333174,
                    "durationTicks": 226,
                    "midi": 59,
                    "name": "B3",
                    "ticks": 35524,
                    "time": 64.35513038333335,
                    "velocity": 0.33070866141732286
                },
                {
                    "duration": 0.4202902333333327,
                    "durationTicks": 232,
                    "midi": 64,
                    "name": "E4",
                    "ticks": 35528,
                    "time": 64.36237676666667,
                    "velocity": 0.2755905511811024
                },
                {
                    "duration": 0.07608702499999254,
                    "durationTicks": 42,
                    "midi": 59,
                    "name": "B3",
                    "ticks": 35764,
                    "time": 64.78991338333334,
                    "velocity": 0.4251968503937008
                },
                {
                    "duration": 0.06159425833334353,
                    "durationTicks": 34,
                    "midi": 64,
                    "name": "E4",
                    "ticks": 35770,
                    "time": 64.80078295833333,
                    "velocity": 0.4015748031496063
                },
                {
                    "duration": 0.41666704166667046,
                    "durationTicks": 230,
                    "midi": 59,
                    "name": "B3",
                    "ticks": 36006,
                    "time": 65.228319575,
                    "velocity": 0.31496062992125984
                },
                {
                    "duration": 0.4275366166666714,
                    "durationTicks": 236,
                    "midi": 64,
                    "name": "E4",
                    "ticks": 36010,
                    "time": 65.23556595833334,
                    "velocity": 0.25984251968503935
                },
                {
                    "duration": 0.09057979166665575,
                    "durationTicks": 50,
                    "midi": 59,
                    "name": "B3",
                    "ticks": 36244,
                    "time": 65.65947938333335,
                    "velocity": 0.3937007874015748
                },
                {
                    "duration": 0.07608702500000675,
                    "durationTicks": 42,
                    "midi": 64,
                    "name": "E4",
                    "ticks": 36250,
                    "time": 65.67034895833334,
                    "velocity": 0.3937007874015748
                },
                {
                    "duration": 0.11594213333333414,
                    "durationTicks": 64,
                    "midi": 57,
                    "name": "A3",
                    "ticks": 36718,
                    "time": 66.51817580833334,
                    "velocity": 0.47244094488188976
                },
                {
                    "duration": 0.11594213333333414,
                    "durationTicks": 64,
                    "midi": 64,
                    "name": "E4",
                    "ticks": 36724,
                    "time": 66.52904538333334,
                    "velocity": 0.2440944881889764
                },
                {
                    "duration": 0.13043489999999736,
                    "durationTicks": 72,
                    "midi": 64,
                    "name": "E4",
                    "ticks": 37200,
                    "time": 67.39136500000001,
                    "velocity": 0.4094488188976378
                },
                {
                    "duration": 0.11594213333333414,
                    "durationTicks": 64,
                    "midi": 57,
                    "name": "A3",
                    "ticks": 37200,
                    "time": 67.39136500000001,
                    "velocity": 0.5196850393700787
                },
                {
                    "duration": 0.11594213333333414,
                    "durationTicks": 64,
                    "midi": 57,
                    "name": "A3",
                    "ticks": 37678,
                    "time": 68.25730780833334,
                    "velocity": 0.47244094488188976
                },
                {
                    "duration": 0.11594213333333414,
                    "durationTicks": 64,
                    "midi": 63,
                    "name": "D#4",
                    "ticks": 37684,
                    "time": 68.26817738333334,
                    "velocity": 0.2440944881889764
                },
                {
                    "duration": 0.13043489999999736,
                    "durationTicks": 72,
                    "midi": 63,
                    "name": "D#4",
                    "ticks": 38160,
                    "time": 69.130497,
                    "velocity": 0.4094488188976378
                },
                {
                    "duration": 0.11594213333333414,
                    "durationTicks": 64,
                    "midi": 57,
                    "name": "A3",
                    "ticks": 38160,
                    "time": 69.130497,
                    "velocity": 0.5196850393700787
                },
                {
                    "duration": 0.11594213333333414,
                    "durationTicks": 64,
                    "midi": 55,
                    "name": "G3",
                    "ticks": 38638,
                    "time": 69.99643980833334,
                    "velocity": 0.47244094488188976
                },
                {
                    "duration": 0.11594213333331993,
                    "durationTicks": 64,
                    "midi": 62,
                    "name": "D4",
                    "ticks": 38644,
                    "time": 70.00730938333335,
                    "velocity": 0.2440944881889764
                },
                {
                    "duration": 0.13043490000001157,
                    "durationTicks": 72,
                    "midi": 62,
                    "name": "D4",
                    "ticks": 39120,
                    "time": 70.869629,
                    "velocity": 0.4094488188976378
                },
                {
                    "duration": 0.11594213333333414,
                    "durationTicks": 64,
                    "midi": 55,
                    "name": "G3",
                    "ticks": 39120,
                    "time": 70.869629,
                    "velocity": 0.5196850393700787
                },
                {
                    "duration": 0.40942065833333174,
                    "durationTicks": 226,
                    "midi": 55,
                    "name": "G3",
                    "ticks": 39364,
                    "time": 71.31165838333334,
                    "velocity": 0.33070866141732286
                },
                {
                    "duration": 0.4202902333333327,
                    "durationTicks": 232,
                    "midi": 62,
                    "name": "D4",
                    "ticks": 39368,
                    "time": 71.31890476666668,
                    "velocity": 0.2755905511811024
                },
                {
                    "duration": 0.07608702499999254,
                    "durationTicks": 42,
                    "midi": 55,
                    "name": "G3",
                    "ticks": 39604,
                    "time": 71.74644138333335,
                    "velocity": 0.4251968503937008
                },
                {
                    "duration": 0.06159425833334353,
                    "durationTicks": 34,
                    "midi": 62,
                    "name": "D4",
                    "ticks": 39610,
                    "time": 71.75731095833333,
                    "velocity": 0.4015748031496063
                },
                {
                    "duration": 0.11594213333333414,
                    "durationTicks": 64,
                    "midi": 56,
                    "name": "G#3",
                    "ticks": 40078,
                    "time": 72.60513780833334,
                    "velocity": 0.47244094488188976
                },
                {
                    "duration": 0.11594213333333414,
                    "durationTicks": 64,
                    "midi": 62,
                    "name": "D4",
                    "ticks": 40084,
                    "time": 72.61600738333334,
                    "velocity": 0.2440944881889764
                },
                {
                    "duration": 0.11594213333331993,
                    "durationTicks": 64,
                    "midi": 55,
                    "name": "G3",
                    "ticks": 40558,
                    "time": 73.47470380833335,
                    "velocity": 0.47244094488188976
                },
                {
                    "duration": 0.11594213333331993,
                    "durationTicks": 64,
                    "midi": 60,
                    "name": "C4",
                    "ticks": 40564,
                    "time": 73.48557338333335,
                    "velocity": 0.2440944881889764
                },
                {
                    "duration": 0.13043490000001157,
                    "durationTicks": 72,
                    "midi": 60,
                    "name": "C4",
                    "ticks": 41040,
                    "time": 74.347893,
                    "velocity": 0.4094488188976378
                },
                {
                    "duration": 0.11594213333334835,
                    "durationTicks": 64,
                    "midi": 55,
                    "name": "G3",
                    "ticks": 41040,
                    "time": 74.347893,
                    "velocity": 0.5196850393700787
                },
                {
                    "duration": 0.11594213333331993,
                    "durationTicks": 64,
                    "midi": 60,
                    "name": "C4",
                    "ticks": 41518,
                    "time": 75.21383580833334,
                    "velocity": 0.47244094488188976
                },
                {
                    "duration": 0.11594213333333414,
                    "durationTicks": 64,
                    "midi": 66,
                    "name": "F#4",
                    "ticks": 41524,
                    "time": 75.22470538333334,
                    "velocity": 0.2440944881889764
                },
                {
                    "duration": 0.13043489999999736,
                    "durationTicks": 72,
                    "midi": 66,
                    "name": "F#4",
                    "ticks": 42000,
                    "time": 76.08702500000001,
                    "velocity": 0.4094488188976378
                },
                {
                    "duration": 0.11594213333333414,
                    "durationTicks": 64,
                    "midi": 60,
                    "name": "C4",
                    "ticks": 42000,
                    "time": 76.08702500000001,
                    "velocity": 0.5196850393700787
                },
                {
                    "duration": 0.11594213333333414,
                    "durationTicks": 64,
                    "midi": 59,
                    "name": "B3",
                    "ticks": 42478,
                    "time": 76.95296780833334,
                    "velocity": 0.47244094488188976
                },
                {
                    "duration": 0.11594213333333414,
                    "durationTicks": 64,
                    "midi": 66,
                    "name": "F#4",
                    "ticks": 42484,
                    "time": 76.96383738333334,
                    "velocity": 0.2440944881889764
                },
                {
                    "duration": 0.13043489999999736,
                    "durationTicks": 72,
                    "midi": 66,
                    "name": "F#4",
                    "ticks": 42960,
                    "time": 77.82615700000001,
                    "velocity": 0.4094488188976378
                },
                {
                    "duration": 0.11594213333333414,
                    "durationTicks": 64,
                    "midi": 59,
                    "name": "B3",
                    "ticks": 42960,
                    "time": 77.82615700000001,
                    "velocity": 0.5196850393700787
                },
                {
                    "duration": 0.40942065833333174,
                    "durationTicks": 226,
                    "midi": 59,
                    "name": "B3",
                    "ticks": 43204,
                    "time": 78.26818638333334,
                    "velocity": 0.33070866141732286
                },
                {
                    "duration": 0.4202902333333327,
                    "durationTicks": 232,
                    "midi": 64,
                    "name": "E4",
                    "ticks": 43208,
                    "time": 78.27543276666667,
                    "velocity": 0.2755905511811024
                },
                {
                    "duration": 0.07608702499999254,
                    "durationTicks": 42,
                    "midi": 59,
                    "name": "B3",
                    "ticks": 43444,
                    "time": 78.70296938333334,
                    "velocity": 0.4251968503937008
                },
                {
                    "duration": 0.06159425833332932,
                    "durationTicks": 34,
                    "midi": 64,
                    "name": "E4",
                    "ticks": 43450,
                    "time": 78.71383895833334,
                    "velocity": 0.4015748031496063
                },
                {
                    "duration": 0.41666704166665625,
                    "durationTicks": 230,
                    "midi": 59,
                    "name": "B3",
                    "ticks": 43686,
                    "time": 79.14137557500001,
                    "velocity": 0.31496062992125984
                },
                {
                    "duration": 0.4275366166666714,
                    "durationTicks": 236,
                    "midi": 64,
                    "name": "E4",
                    "ticks": 43690,
                    "time": 79.14862195833334,
                    "velocity": 0.25984251968503935
                },
                {
                    "duration": 0.09057979166665575,
                    "durationTicks": 50,
                    "midi": 59,
                    "name": "B3",
                    "ticks": 43924,
                    "time": 79.57253538333335,
                    "velocity": 0.3937007874015748
                },
                {
                    "duration": 0.07608702500000675,
                    "durationTicks": 42,
                    "midi": 64,
                    "name": "E4",
                    "ticks": 43930,
                    "time": 79.58340495833333,
                    "velocity": 0.3937007874015748
                },
                {
                    "duration": 0.11594213333333414,
                    "durationTicks": 64,
                    "midi": 57,
                    "name": "A3",
                    "ticks": 44398,
                    "time": 80.43123180833334,
                    "velocity": 0.47244094488188976
                },
                {
                    "duration": 0.11594213333331993,
                    "durationTicks": 64,
                    "midi": 64,
                    "name": "E4",
                    "ticks": 44404,
                    "time": 80.44210138333335,
                    "velocity": 0.2440944881889764
                },
                {
                    "duration": 0.13043490000001157,
                    "durationTicks": 72,
                    "midi": 64,
                    "name": "E4",
                    "ticks": 44880,
                    "time": 81.304421,
                    "velocity": 0.4094488188976378
                },
                {
                    "duration": 0.11594213333333414,
                    "durationTicks": 64,
                    "midi": 57,
                    "name": "A3",
                    "ticks": 44880,
                    "time": 81.304421,
                    "velocity": 0.5196850393700787
                },
                {
                    "duration": 0.11594213333331993,
                    "durationTicks": 64,
                    "midi": 57,
                    "name": "A3",
                    "ticks": 45358,
                    "time": 82.17036380833335,
                    "velocity": 0.47244094488188976
                },
                {
                    "duration": 0.11594213333331993,
                    "durationTicks": 64,
                    "midi": 63,
                    "name": "D#4",
                    "ticks": 45364,
                    "time": 82.18123338333335,
                    "velocity": 0.2440944881889764
                },
                {
                    "duration": 0.13043490000001157,
                    "durationTicks": 72,
                    "midi": 63,
                    "name": "D#4",
                    "ticks": 45840,
                    "time": 83.043553,
                    "velocity": 0.4094488188976378
                },
                {
                    "duration": 0.11594213333334835,
                    "durationTicks": 64,
                    "midi": 57,
                    "name": "A3",
                    "ticks": 45840,
                    "time": 83.043553,
                    "velocity": 0.5196850393700787
                },
                {
                    "duration": 0.11594213333331993,
                    "durationTicks": 64,
                    "midi": 55,
                    "name": "G3",
                    "ticks": 46318,
                    "time": 83.90949580833335,
                    "velocity": 0.47244094488188976
                },
                {
                    "duration": 0.11594213333331993,
                    "durationTicks": 64,
                    "midi": 61,
                    "name": "C#4",
                    "ticks": 46324,
                    "time": 83.92036538333335,
                    "velocity": 0.2440944881889764
                },
                {
                    "duration": 0.13043490000001157,
                    "durationTicks": 72,
                    "midi": 61,
                    "name": "C#4",
                    "ticks": 46800,
                    "time": 84.782685,
                    "velocity": 0.4094488188976378
                },
                {
                    "duration": 0.11594213333334835,
                    "durationTicks": 64,
                    "midi": 55,
                    "name": "G3",
                    "ticks": 46800,
                    "time": 84.782685,
                    "velocity": 0.5196850393700787
                },
                {
                    "duration": 0.10869574999999543,
                    "durationTicks": 60,
                    "midi": 55,
                    "name": "G3",
                    "ticks": 47288,
                    "time": 85.66674376666667,
                    "velocity": 0.47244094488188976
                },
                {
                    "duration": 0.11594213333333414,
                    "durationTicks": 64,
                    "midi": 61,
                    "name": "C#4",
                    "ticks": 47288,
                    "time": 85.66674376666667,
                    "velocity": 0.31496062992125984
                },
                {
                    "duration": 0.12318851666665864,
                    "durationTicks": 68,
                    "midi": 61,
                    "name": "C#4",
                    "ticks": 47766,
                    "time": 86.53268657500001,
                    "velocity": 0.4094488188976378
                },
                {
                    "duration": 0.11594213333333414,
                    "durationTicks": 64,
                    "midi": 55,
                    "name": "G3",
                    "ticks": 47770,
                    "time": 86.53993295833334,
                    "velocity": 0.5196850393700787
                },
                {
                    "duration": 0.11594213333333414,
                    "durationTicks": 64,
                    "midi": 57,
                    "name": "A3",
                    "ticks": 48238,
                    "time": 87.38775980833334,
                    "velocity": 0.47244094488188976
                },
                {
                    "duration": 0.11594213333333414,
                    "durationTicks": 64,
                    "midi": 64,
                    "name": "E4",
                    "ticks": 48244,
                    "time": 87.39862938333334,
                    "velocity": 0.2440944881889764
                },
                {
                    "duration": 0.13043489999999736,
                    "durationTicks": 72,
                    "midi": 64,
                    "name": "E4",
                    "ticks": 48720,
                    "time": 88.26094900000001,
                    "velocity": 0.4094488188976378
                },
                {
                    "duration": 0.11594213333333414,
                    "durationTicks": 64,
                    "midi": 57,
                    "name": "A3",
                    "ticks": 48720,
                    "time": 88.26094900000001,
                    "velocity": 0.5196850393700787
                },
                {
                    "duration": 0.11594213333333414,
                    "durationTicks": 64,
                    "midi": 57,
                    "name": "A3",
                    "ticks": 49198,
                    "time": 89.12689180833334,
                    "velocity": 0.47244094488188976
                },
                {
                    "duration": 0.11594213333333414,
                    "durationTicks": 64,
                    "midi": 63,
                    "name": "D#4",
                    "ticks": 49204,
                    "time": 89.13776138333334,
                    "velocity": 0.2440944881889764
                },
                {
                    "duration": 0.13043489999999736,
                    "durationTicks": 72,
                    "midi": 63,
                    "name": "D#4",
                    "ticks": 49680,
                    "time": 90.00008100000001,
                    "velocity": 0.4094488188976378
                },
                {
                    "duration": 0.11594213333333414,
                    "durationTicks": 64,
                    "midi": 57,
                    "name": "A3",
                    "ticks": 49680,
                    "time": 90.00008100000001,
                    "velocity": 0.5196850393700787
                },
                {
                    "duration": 0.40942065833333174,
                    "durationTicks": 226,
                    "midi": 55,
                    "name": "G3",
                    "ticks": 49924,
                    "time": 90.44211038333334,
                    "velocity": 0.33070866141732286
                },
                {
                    "duration": 0.4202902333333327,
                    "durationTicks": 232,
                    "midi": 62,
                    "name": "D4",
                    "ticks": 49928,
                    "time": 90.44935676666667,
                    "velocity": 0.2755905511811024
                },
                {
                    "duration": 0.07608702499999254,
                    "durationTicks": 42,
                    "midi": 55,
                    "name": "G3",
                    "ticks": 50164,
                    "time": 90.87689338333334,
                    "velocity": 0.4251968503937008
                },
                {
                    "duration": 0.06159425833332932,
                    "durationTicks": 34,
                    "midi": 62,
                    "name": "D4",
                    "ticks": 50170,
                    "time": 90.88776295833334,
                    "velocity": 0.4015748031496063
                },
                {
                    "duration": 0.41666704166665625,
                    "durationTicks": 230,
                    "midi": 55,
                    "name": "G3",
                    "ticks": 50406,
                    "time": 91.31529957500001,
                    "velocity": 0.31496062992125984
                },
                {
                    "duration": 0.4275366166666714,
                    "durationTicks": 236,
                    "midi": 62,
                    "name": "D4",
                    "ticks": 50410,
                    "time": 91.32254595833334,
                    "velocity": 0.25984251968503935
                },
                {
                    "duration": 0.09057979166665575,
                    "durationTicks": 50,
                    "midi": 55,
                    "name": "G3",
                    "ticks": 50644,
                    "time": 91.74645938333335,
                    "velocity": 0.3937007874015748
                },
                {
                    "duration": 0.07608702500000675,
                    "durationTicks": 42,
                    "midi": 62,
                    "name": "D4",
                    "ticks": 50650,
                    "time": 91.75732895833333,
                    "velocity": 0.3937007874015748
                },
                {
                    "duration": 0.40942065833333174,
                    "durationTicks": 226,
                    "midi": 55,
                    "name": "G3",
                    "ticks": 50886,
                    "time": 92.184865575,
                    "velocity": 0.31496062992125984
                },
                {
                    "duration": 0.40942065833333174,
                    "durationTicks": 226,
                    "midi": 62,
                    "name": "D4",
                    "ticks": 50890,
                    "time": 92.19211195833334,
                    "velocity": 0.25984251968503935
                },
                {
                    "duration": 0.06159425833332932,
                    "durationTicks": 34,
                    "midi": 62,
                    "name": "D4",
                    "ticks": 51120,
                    "time": 92.60877900000001,
                    "velocity": 0.3937007874015748
                },
                {
                    "duration": 0.07608702500000675,
                    "durationTicks": 42,
                    "midi": 55,
                    "name": "G3",
                    "ticks": 51122,
                    "time": 92.61240219166667,
                    "velocity": 0.4015748031496063
                },
                {
                    "duration": 0.4057974666666695,
                    "durationTicks": 224,
                    "midi": 55,
                    "name": "G3",
                    "ticks": 51368,
                    "time": 93.05805476666667,
                    "velocity": 0.31496062992125984
                },
                {
                    "duration": 0.42391342499999496,
                    "durationTicks": 234,
                    "midi": 62,
                    "name": "D4",
                    "ticks": 51368,
                    "time": 93.05805476666667,
                    "velocity": 0.2677165354330709
                },
                {
                    "duration": 0.06884064166666803,
                    "durationTicks": 38,
                    "midi": 55,
                    "name": "G3",
                    "ticks": 51602,
                    "time": 93.48196819166667,
                    "velocity": 0.41732283464566927
                },
                {
                    "duration": 0.11594213333331993,
                    "durationTicks": 64,
                    "midi": 55,
                    "name": "G3",
                    "ticks": 52078,
                    "time": 94.34428780833335,
                    "velocity": 0.47244094488188976
                },
                {
                    "duration": 0.11594213333331993,
                    "durationTicks": 64,
                    "midi": 60,
                    "name": "C4",
                    "ticks": 52084,
                    "time": 94.35515738333335,
                    "velocity": 0.2440944881889764
                },
                {
                    "duration": 0.13043490000001157,
                    "durationTicks": 72,
                    "midi": 60,
                    "name": "C4",
                    "ticks": 52560,
                    "time": 95.217477,
                    "velocity": 0.4094488188976378
                },
                {
                    "duration": 0.11594213333334835,
                    "durationTicks": 64,
                    "midi": 55,
                    "name": "G3",
                    "ticks": 52560,
                    "time": 95.217477,
                    "velocity": 0.5196850393700787
                },
                {
                    "duration": 0.11594213333331993,
                    "durationTicks": 64,
                    "midi": 60,
                    "name": "C4",
                    "ticks": 53038,
                    "time": 96.08341980833335,
                    "velocity": 0.47244094488188976
                },
                {
                    "duration": 0.11594213333331993,
                    "durationTicks": 64,
                    "midi": 66,
                    "name": "F#4",
                    "ticks": 53044,
                    "time": 96.09428938333335,
                    "velocity": 0.2440944881889764
                },
                {
                    "duration": 0.13043490000001157,
                    "durationTicks": 72,
                    "midi": 66,
                    "name": "F#4",
                    "ticks": 53520,
                    "time": 96.956609,
                    "velocity": 0.4094488188976378
                },
                {
                    "duration": 0.11594213333334835,
                    "durationTicks": 64,
                    "midi": 60,
                    "name": "C4",
                    "ticks": 53520,
                    "time": 96.956609,
                    "velocity": 0.5196850393700787
                },
                {
                    "duration": 0.11594213333331993,
                    "durationTicks": 64,
                    "midi": 59,
                    "name": "B3",
                    "ticks": 53998,
                    "time": 97.82255180833334,
                    "velocity": 0.47244094488188976
                },
                {
                    "duration": 0.11594213333333414,
                    "durationTicks": 64,
                    "midi": 66,
                    "name": "F#4",
                    "ticks": 54004,
                    "time": 97.83342138333335,
                    "velocity": 0.2440944881889764
                },
                {
                    "duration": 0.13043489999999736,
                    "durationTicks": 72,
                    "midi": 66,
                    "name": "F#4",
                    "ticks": 54480,
                    "time": 98.69574100000001,
                    "velocity": 0.4094488188976378
                },
                {
                    "duration": 0.11594213333333414,
                    "durationTicks": 64,
                    "midi": 59,
                    "name": "B3",
                    "ticks": 54480,
                    "time": 98.69574100000001,
                    "velocity": 0.5196850393700787
                },
                {
                    "duration": 0.10869575000000964,
                    "durationTicks": 60,
                    "midi": 59,
                    "name": "B3",
                    "ticks": 54968,
                    "time": 99.57979976666667,
                    "velocity": 0.47244094488188976
                },
                {
                    "duration": 0.11594213333334835,
                    "durationTicks": 64,
                    "midi": 66,
                    "name": "F#4",
                    "ticks": 54968,
                    "time": 99.57979976666667,
                    "velocity": 0.31496062992125984
                },
                {
                    "duration": 0.12318851666665864,
                    "durationTicks": 68,
                    "midi": 66,
                    "name": "F#4",
                    "ticks": 55446,
                    "time": 100.44574257500001,
                    "velocity": 0.4094488188976378
                },
                {
                    "duration": 0.11594213333333414,
                    "durationTicks": 64,
                    "midi": 59,
                    "name": "B3",
                    "ticks": 55450,
                    "time": 100.45298895833334,
                    "velocity": 0.5196850393700787
                },
                {
                    "duration": 0.11594213333333414,
                    "durationTicks": 64,
                    "midi": 57,
                    "name": "A3",
                    "ticks": 55918,
                    "time": 101.30081580833334,
                    "velocity": 0.47244094488188976
                },
                {
                    "duration": 0.11594213333333414,
                    "durationTicks": 64,
                    "midi": 64,
                    "name": "E4",
                    "ticks": 55924,
                    "time": 101.31168538333334,
                    "velocity": 0.2440944881889764
                },
                {
                    "duration": 0.13043489999999736,
                    "durationTicks": 72,
                    "midi": 64,
                    "name": "E4",
                    "ticks": 56400,
                    "time": 102.17400500000001,
                    "velocity": 0.4094488188976378
                },
                {
                    "duration": 0.11594213333333414,
                    "durationTicks": 64,
                    "midi": 57,
                    "name": "A3",
                    "ticks": 56400,
                    "time": 102.17400500000001,
                    "velocity": 0.5196850393700787
                },
                {
                    "duration": 0.11594213333333414,
                    "durationTicks": 64,
                    "midi": 57,
                    "name": "A3",
                    "ticks": 56878,
                    "time": 103.03994780833334,
                    "velocity": 0.47244094488188976
                },
                {
                    "duration": 0.11594213333331993,
                    "durationTicks": 64,
                    "midi": 63,
                    "name": "D#4",
                    "ticks": 56884,
                    "time": 103.05081738333335,
                    "velocity": 0.2440944881889764
                },
                {
                    "duration": 0.13043490000001157,
                    "durationTicks": 72,
                    "midi": 63,
                    "name": "D#4",
                    "ticks": 57360,
                    "time": 103.913137,
                    "velocity": 0.4094488188976378
                },
                {
                    "duration": 0.11594213333333414,
                    "durationTicks": 64,
                    "midi": 57,
                    "name": "A3",
                    "ticks": 57360,
                    "time": 103.913137,
                    "velocity": 0.5196850393700787
                },
                {
                    "duration": 0.11594213333331993,
                    "durationTicks": 64,
                    "midi": 55,
                    "name": "G3",
                    "ticks": 57838,
                    "time": 104.77907980833335,
                    "velocity": 0.47244094488188976
                },
                {
                    "duration": 0.11594213333331993,
                    "durationTicks": 64,
                    "midi": 62,
                    "name": "D4",
                    "ticks": 57844,
                    "time": 104.78994938333335,
                    "velocity": 0.2440944881889764
                },
                {
                    "duration": 0.11594213333333414,
                    "durationTicks": 64,
                    "midi": 55,
                    "name": "G3",
                    "ticks": 58318,
                    "time": 105.64864580833334,
                    "velocity": 0.47244094488188976
                },
                {
                    "duration": 0.11594213333333414,
                    "durationTicks": 64,
                    "midi": 61,
                    "name": "C#4",
                    "ticks": 58324,
                    "time": 105.65951538333334,
                    "velocity": 0.2440944881889764
                },
                {
                    "duration": 0.11594213333331993,
                    "durationTicks": 64,
                    "midi": 60,
                    "name": "C4",
                    "ticks": 58798,
                    "time": 106.51821180833335,
                    "velocity": 0.47244094488188976
                },
                {
                    "duration": 0.11594213333331993,
                    "durationTicks": 64,
                    "midi": 65,
                    "name": "F4",
                    "ticks": 58804,
                    "time": 106.52908138333335,
                    "velocity": 0.2440944881889764
                },
                {
                    "duration": 0.11594213333333414,
                    "durationTicks": 64,
                    "midi": 59,
                    "name": "B3",
                    "ticks": 59278,
                    "time": 107.38777780833334,
                    "velocity": 0.47244094488188976
                },
                {
                    "duration": 0.11594213333333414,
                    "durationTicks": 64,
                    "midi": 65,
                    "name": "F4",
                    "ticks": 59284,
                    "time": 107.39864738333334,
                    "velocity": 0.2440944881889764
                },
                {
                    "duration": 0.40942065833333174,
                    "durationTicks": 226,
                    "midi": 59,
                    "name": "B3",
                    "ticks": 59524,
                    "time": 107.83343038333335,
                    "velocity": 0.33070866141732286
                },
                {
                    "duration": 0.4202902333333327,
                    "durationTicks": 232,
                    "midi": 64,
                    "name": "E4",
                    "ticks": 59528,
                    "time": 107.84067676666668,
                    "velocity": 0.2755905511811024
                },
                {
                    "duration": 0.07608702499999254,
                    "durationTicks": 42,
                    "midi": 59,
                    "name": "B3",
                    "ticks": 59764,
                    "time": 108.26821338333335,
                    "velocity": 0.4251968503937008
                },
                {
                    "duration": 0.06159425833334353,
                    "durationTicks": 34,
                    "midi": 64,
                    "name": "E4",
                    "ticks": 59770,
                    "time": 108.27908295833333,
                    "velocity": 0.4015748031496063
                },
                {
                    "duration": 0.41666704166667046,
                    "durationTicks": 230,
                    "midi": 59,
                    "name": "B3",
                    "ticks": 60006,
                    "time": 108.706619575,
                    "velocity": 0.31496062992125984
                },
                {
                    "duration": 0.4275366166666714,
                    "durationTicks": 236,
                    "midi": 64,
                    "name": "E4",
                    "ticks": 60010,
                    "time": 108.71386595833334,
                    "velocity": 0.25984251968503935
                },
                {
                    "duration": 0.09057979166665575,
                    "durationTicks": 50,
                    "midi": 59,
                    "name": "B3",
                    "ticks": 60244,
                    "time": 109.13777938333335,
                    "velocity": 0.3937007874015748
                },
                {
                    "duration": 0.07608702500000675,
                    "durationTicks": 42,
                    "midi": 64,
                    "name": "E4",
                    "ticks": 60250,
                    "time": 109.14864895833334,
                    "velocity": 0.3937007874015748
                },
                {
                    "duration": 0.40942065833333174,
                    "durationTicks": 226,
                    "midi": 57,
                    "name": "A3",
                    "ticks": 60484,
                    "time": 109.57256238333335,
                    "velocity": 0.33070866141732286
                },
                {
                    "duration": 0.4202902333333327,
                    "durationTicks": 232,
                    "midi": 64,
                    "name": "E4",
                    "ticks": 60488,
                    "time": 109.57980876666667,
                    "velocity": 0.2755905511811024
                },
                {
                    "duration": 0.07608702499999254,
                    "durationTicks": 42,
                    "midi": 57,
                    "name": "A3",
                    "ticks": 60724,
                    "time": 110.00734538333334,
                    "velocity": 0.4251968503937008
                },
                {
                    "duration": 0.06159425833334353,
                    "durationTicks": 34,
                    "midi": 64,
                    "name": "E4",
                    "ticks": 60730,
                    "time": 110.01821495833333,
                    "velocity": 0.4015748031496063
                },
                {
                    "duration": 0.11594213333331993,
                    "durationTicks": 64,
                    "midi": 57,
                    "name": "A3",
                    "ticks": 61198,
                    "time": 110.86604180833335,
                    "velocity": 0.47244094488188976
                },
                {
                    "duration": 0.11594213333331993,
                    "durationTicks": 64,
                    "midi": 63,
                    "name": "D#4",
                    "ticks": 61204,
                    "time": 110.87691138333335,
                    "velocity": 0.2440944881889764
                },
                {
                    "duration": 0.11594213333333414,
                    "durationTicks": 64,
                    "midi": 55,
                    "name": "G3",
                    "ticks": 61678,
                    "time": 111.73560780833334,
                    "velocity": 0.47244094488188976
                },
                {
                    "duration": 0.11594213333336256,
                    "durationTicks": 64,
                    "midi": 62,
                    "name": "D4",
                    "ticks": 61684,
                    "time": 111.74647738333333,
                    "velocity": 0.2440944881889764
                },
                {
                    "duration": 0.13043489999999736,
                    "durationTicks": 72,
                    "midi": 62,
                    "name": "D4",
                    "ticks": 62160,
                    "time": 112.60879700000001,
                    "velocity": 0.4094488188976378
                },
                {
                    "duration": 0.11594213333331993,
                    "durationTicks": 64,
                    "midi": 55,
                    "name": "G3",
                    "ticks": 62160,
                    "time": 112.60879700000001,
                    "velocity": 0.5196850393700787
                },
                {
                    "duration": 0.10869575000000964,
                    "durationTicks": 60,
                    "midi": 55,
                    "name": "G3",
                    "ticks": 62648,
                    "time": 113.49285576666668,
                    "velocity": 0.47244094488188976
                },
                {
                    "duration": 0.11594213333333414,
                    "durationTicks": 64,
                    "midi": 62,
                    "name": "D4",
                    "ticks": 62648,
                    "time": 113.49285576666668,
                    "velocity": 0.31496062992125984
                },
                {
                    "duration": 0.12318851666668706,
                    "durationTicks": 68,
                    "midi": 62,
                    "name": "D4",
                    "ticks": 63126,
                    "time": 114.358798575,
                    "velocity": 0.4094488188976378
                },
                {
                    "duration": 0.11594213333333414,
                    "durationTicks": 64,
                    "midi": 55,
                    "name": "G3",
                    "ticks": 63130,
                    "time": 114.36604495833335,
                    "velocity": 0.5196850393700787
                },
                {
                    "duration": 0.11594213333331993,
                    "durationTicks": 64,
                    "midi": 55,
                    "name": "G3",
                    "ticks": 63598,
                    "time": 115.21387180833335,
                    "velocity": 0.47244094488188976
                },
                {
                    "duration": 0.11594213333334835,
                    "durationTicks": 64,
                    "midi": 60,
                    "name": "C4",
                    "ticks": 63604,
                    "time": 115.22474138333334,
                    "velocity": 0.2440944881889764
                },
                {
                    "duration": 0.13043490000001157,
                    "durationTicks": 72,
                    "midi": 60,
                    "name": "C4",
                    "ticks": 64080,
                    "time": 116.087061,
                    "velocity": 0.4094488188976378
                },
                {
                    "duration": 0.11594213333333414,
                    "durationTicks": 64,
                    "midi": 55,
                    "name": "G3",
                    "ticks": 64080,
                    "time": 116.087061,
                    "velocity": 0.5196850393700787
                },
                {
                    "duration": 0.11594213333331993,
                    "durationTicks": 64,
                    "midi": 60,
                    "name": "C4",
                    "ticks": 64558,
                    "time": 116.95300380833335,
                    "velocity": 0.47244094488188976
                },
                {
                    "duration": 0.11594213333334835,
                    "durationTicks": 64,
                    "midi": 66,
                    "name": "F#4",
                    "ticks": 64564,
                    "time": 116.96387338333334,
                    "velocity": 0.2440944881889764
                },
                {
                    "duration": 0.13043490000001157,
                    "durationTicks": 72,
                    "midi": 66,
                    "name": "F#4",
                    "ticks": 65040,
                    "time": 117.826193,
                    "velocity": 0.4094488188976378
                },
                {
                    "duration": 0.11594213333333414,
                    "durationTicks": 64,
                    "midi": 60,
                    "name": "C4",
                    "ticks": 65040,
                    "time": 117.826193,
                    "velocity": 0.5196850393700787
                },
                {
                    "duration": 0.11594213333331993,
                    "durationTicks": 64,
                    "midi": 59,
                    "name": "B3",
                    "ticks": 65518,
                    "time": 118.69213580833335,
                    "velocity": 0.47244094488188976
                },
                {
                    "duration": 0.11594213333334835,
                    "durationTicks": 64,
                    "midi": 66,
                    "name": "F#4",
                    "ticks": 65524,
                    "time": 118.70300538333333,
                    "velocity": 0.2440944881889764
                },
                {
                    "duration": 0.13043490000001157,
                    "durationTicks": 72,
                    "midi": 66,
                    "name": "F#4",
                    "ticks": 66000,
                    "time": 119.565325,
                    "velocity": 0.4094488188976378
                },
                {
                    "duration": 0.11594213333333414,
                    "durationTicks": 64,
                    "midi": 59,
                    "name": "B3",
                    "ticks": 66000,
                    "time": 119.565325,
                    "velocity": 0.5196850393700787
                },
                {
                    "duration": 0.11594213333331993,
                    "durationTicks": 64,
                    "midi": 59,
                    "name": "B3",
                    "ticks": 66478,
                    "time": 120.43126780833335,
                    "velocity": 0.47244094488188976
                },
                {
                    "duration": 0.11594213333334835,
                    "durationTicks": 64,
                    "midi": 64,
                    "name": "E4",
                    "ticks": 66484,
                    "time": 120.44213738333333,
                    "velocity": 0.2440944881889764
                },
                {
                    "duration": 0.13043489999999736,
                    "durationTicks": 72,
                    "midi": 64,
                    "name": "E4",
                    "ticks": 66960,
                    "time": 121.30445700000001,
                    "velocity": 0.4094488188976378
                },
                {
                    "duration": 0.11594213333331993,
                    "durationTicks": 64,
                    "midi": 59,
                    "name": "B3",
                    "ticks": 66960,
                    "time": 121.30445700000001,
                    "velocity": 0.5196850393700787
                },
                {
                    "duration": 0.11594213333333414,
                    "durationTicks": 64,
                    "midi": 57,
                    "name": "A3",
                    "ticks": 67438,
                    "time": 122.17039980833334,
                    "velocity": 0.47244094488188976
                },
                {
                    "duration": 0.11594213333336256,
                    "durationTicks": 64,
                    "midi": 64,
                    "name": "E4",
                    "ticks": 67444,
                    "time": 122.18126938333333,
                    "velocity": 0.2440944881889764
                },
                {
                    "duration": 0.13043489999999736,
                    "durationTicks": 72,
                    "midi": 64,
                    "name": "E4",
                    "ticks": 67920,
                    "time": 123.04358900000001,
                    "velocity": 0.4094488188976378
                },
                {
                    "duration": 0.11594213333331993,
                    "durationTicks": 64,
                    "midi": 57,
                    "name": "A3",
                    "ticks": 67920,
                    "time": 123.04358900000001,
                    "velocity": 0.5196850393700787
                },
                {
                    "duration": 0.11594213333333414,
                    "durationTicks": 64,
                    "midi": 57,
                    "name": "A3",
                    "ticks": 68398,
                    "time": 123.90953180833334,
                    "velocity": 0.47244094488188976
                },
                {
                    "duration": 0.11594213333334835,
                    "durationTicks": 64,
                    "midi": 63,
                    "name": "D#4",
                    "ticks": 68404,
                    "time": 123.92040138333334,
                    "velocity": 0.2440944881889764
                },
                {
                    "duration": 0.13043489999999736,
                    "durationTicks": 72,
                    "midi": 63,
                    "name": "D#4",
                    "ticks": 68880,
                    "time": 124.78272100000001,
                    "velocity": 0.4094488188976378
                },
                {
                    "duration": 0.11594213333331993,
                    "durationTicks": 64,
                    "midi": 57,
                    "name": "A3",
                    "ticks": 68880,
                    "time": 124.78272100000001,
                    "velocity": 0.5196850393700787
                },
                {
                    "duration": 0.11594213333333414,
                    "durationTicks": 64,
                    "midi": 55,
                    "name": "G3",
                    "ticks": 69358,
                    "time": 125.64866380833334,
                    "velocity": 0.47244094488188976
                },
                {
                    "duration": 0.11594213333334835,
                    "durationTicks": 64,
                    "midi": 62,
                    "name": "D4",
                    "ticks": 69364,
                    "time": 125.65953338333334,
                    "velocity": 0.2440944881889764
                },
                {
                    "duration": 0.13043490000001157,
                    "durationTicks": 72,
                    "midi": 62,
                    "name": "D4",
                    "ticks": 69840,
                    "time": 126.52185300000001,
                    "velocity": 0.4094488188976378
                },
                {
                    "duration": 0.11594213333333414,
                    "durationTicks": 64,
                    "midi": 55,
                    "name": "G3",
                    "ticks": 69840,
                    "time": 126.52185300000001,
                    "velocity": 0.5196850393700787
                },
                {
                    "duration": 0.11594213333331993,
                    "durationTicks": 64,
                    "midi": 55,
                    "name": "G3",
                    "ticks": 70318,
                    "time": 127.38779580833335,
                    "velocity": 0.47244094488188976
                },
                {
                    "duration": 0.11594213333334835,
                    "durationTicks": 64,
                    "midi": 62,
                    "name": "D4",
                    "ticks": 70324,
                    "time": 127.39866538333334,
                    "velocity": 0.2440944881889764
                },
                {
                    "duration": 0.11594213333333414,
                    "durationTicks": 64,
                    "midi": 56,
                    "name": "G#3",
                    "ticks": 70798,
                    "time": 128.25736180833334,
                    "velocity": 0.47244094488188976
                },
                {
                    "duration": 0.11594213333336256,
                    "durationTicks": 64,
                    "midi": 62,
                    "name": "D4",
                    "ticks": 70804,
                    "time": 128.26823138333333,
                    "velocity": 0.2440944881889764
                },
                {
                    "duration": 0.11594213333333414,
                    "durationTicks": 64,
                    "midi": 55,
                    "name": "G3",
                    "ticks": 71278,
                    "time": 129.12692780833333,
                    "velocity": 0.47244094488188976
                },
                {
                    "duration": 0.11594213333333414,
                    "durationTicks": 64,
                    "midi": 60,
                    "name": "C4",
                    "ticks": 71284,
                    "time": 129.13779738333335,
                    "velocity": 0.2440944881889764
                },
                {
                    "duration": 0.13043489999998314,
                    "durationTicks": 72,
                    "midi": 60,
                    "name": "C4",
                    "ticks": 71760,
                    "time": 130.00011700000002,
                    "velocity": 0.4094488188976378
                },
                {
                    "duration": 0.11594213333330572,
                    "durationTicks": 64,
                    "midi": 55,
                    "name": "G3",
                    "ticks": 71760,
                    "time": 130.00011700000002,
                    "velocity": 0.5196850393700787
                },
                {
                    "duration": 0.11594213333333414,
                    "durationTicks": 64,
                    "midi": 60,
                    "name": "C4",
                    "ticks": 72238,
                    "time": 130.86605980833335,
                    "velocity": 0.47244094488188976
                },
                {
                    "duration": 0.11594213333336256,
                    "durationTicks": 64,
                    "midi": 66,
                    "name": "F#4",
                    "ticks": 72244,
                    "time": 130.87692938333333,
                    "velocity": 0.2440944881889764
                },
                {
                    "duration": 0.13043490000001157,
                    "durationTicks": 72,
                    "midi": 66,
                    "name": "F#4",
                    "ticks": 72720,
                    "time": 131.739249,
                    "velocity": 0.4094488188976378
                },
                {
                    "duration": 0.11594213333333414,
                    "durationTicks": 64,
                    "midi": 60,
                    "name": "C4",
                    "ticks": 72720,
                    "time": 131.739249,
                    "velocity": 0.5196850393700787
                },
                {
                    "duration": 0.11594213333330572,
                    "durationTicks": 64,
                    "midi": 59,
                    "name": "B3",
                    "ticks": 73198,
                    "time": 132.60519180833336,
                    "velocity": 0.47244094488188976
                },
                {
                    "duration": 0.11594213333333414,
                    "durationTicks": 64,
                    "midi": 66,
                    "name": "F#4",
                    "ticks": 73204,
                    "time": 132.61606138333335,
                    "velocity": 0.2440944881889764
                },
                {
                    "duration": 0.13043490000001157,
                    "durationTicks": 72,
                    "midi": 66,
                    "name": "F#4",
                    "ticks": 73680,
                    "time": 133.478381,
                    "velocity": 0.4094488188976378
                },
                {
                    "duration": 0.11594213333333414,
                    "durationTicks": 64,
                    "midi": 59,
                    "name": "B3",
                    "ticks": 73680,
                    "time": 133.478381,
                    "velocity": 0.5196850393700787
                },
                {
                    "duration": 0.11594213333333414,
                    "durationTicks": 64,
                    "midi": 59,
                    "name": "B3",
                    "ticks": 74158,
                    "time": 134.34432380833334,
                    "velocity": 0.47244094488188976
                },
                {
                    "duration": 0.11594213333336256,
                    "durationTicks": 64,
                    "midi": 64,
                    "name": "E4",
                    "ticks": 74164,
                    "time": 134.35519338333333,
                    "velocity": 0.2440944881889764
                },
                {
                    "duration": 0.13043490000001157,
                    "durationTicks": 72,
                    "midi": 64,
                    "name": "E4",
                    "ticks": 74640,
                    "time": 135.217513,
                    "velocity": 0.4094488188976378
                },
                {
                    "duration": 0.11594213333333414,
                    "durationTicks": 64,
                    "midi": 59,
                    "name": "B3",
                    "ticks": 74640,
                    "time": 135.217513,
                    "velocity": 0.5196850393700787
                },
                {
                    "duration": 0.11594213333330572,
                    "durationTicks": 64,
                    "midi": 57,
                    "name": "A3",
                    "ticks": 75118,
                    "time": 136.08345580833335,
                    "velocity": 0.47244094488188976
                },
                {
                    "duration": 0.11594213333333414,
                    "durationTicks": 64,
                    "midi": 64,
                    "name": "E4",
                    "ticks": 75124,
                    "time": 136.09432538333334,
                    "velocity": 0.2440944881889764
                },
                {
                    "duration": 0.13043490000001157,
                    "durationTicks": 72,
                    "midi": 64,
                    "name": "E4",
                    "ticks": 75600,
                    "time": 136.956645,
                    "velocity": 0.4094488188976378
                },
                {
                    "duration": 0.11594213333333414,
                    "durationTicks": 64,
                    "midi": 57,
                    "name": "A3",
                    "ticks": 75600,
                    "time": 136.956645,
                    "velocity": 0.5196850393700787
                },
                {
                    "duration": 0.11594213333333414,
                    "durationTicks": 64,
                    "midi": 57,
                    "name": "A3",
                    "ticks": 76078,
                    "time": 137.82258780833334,
                    "velocity": 0.47244094488188976
                },
                {
                    "duration": 0.11594213333336256,
                    "durationTicks": 64,
                    "midi": 63,
                    "name": "D#4",
                    "ticks": 76084,
                    "time": 137.83345738333333,
                    "velocity": 0.2440944881889764
                },
                {
                    "duration": 0.13043489999998314,
                    "durationTicks": 72,
                    "midi": 63,
                    "name": "D#4",
                    "ticks": 76560,
                    "time": 138.69577700000002,
                    "velocity": 0.4094488188976378
                },
                {
                    "duration": 0.11594213333330572,
                    "durationTicks": 64,
                    "midi": 57,
                    "name": "A3",
                    "ticks": 76560,
                    "time": 138.69577700000002,
                    "velocity": 0.5196850393700787
                },
                {
                    "duration": 0.11594213333333414,
                    "durationTicks": 64,
                    "midi": 55,
                    "name": "G3",
                    "ticks": 77038,
                    "time": 139.56171980833335,
                    "velocity": 0.47244094488188976
                },
                {
                    "duration": 0.11594213333336256,
                    "durationTicks": 64,
                    "midi": 61,
                    "name": "C#4",
                    "ticks": 77044,
                    "time": 139.57258938333334,
                    "velocity": 0.2440944881889764
                },
                {
                    "duration": 0.13043490000001157,
                    "durationTicks": 72,
                    "midi": 61,
                    "name": "C#4",
                    "ticks": 77520,
                    "time": 140.434909,
                    "velocity": 0.4094488188976378
                },
                {
                    "duration": 0.11594213333333414,
                    "durationTicks": 64,
                    "midi": 55,
                    "name": "G3",
                    "ticks": 77520,
                    "time": 140.434909,
                    "velocity": 0.5196850393700787
                },
                {
                    "duration": 0.10869575000000964,
                    "durationTicks": 60,
                    "midi": 55,
                    "name": "G3",
                    "ticks": 78008,
                    "time": 141.31896776666667,
                    "velocity": 0.47244094488188976
                },
                {
                    "duration": 0.11594213333333414,
                    "durationTicks": 64,
                    "midi": 61,
                    "name": "C#4",
                    "ticks": 78008,
                    "time": 141.31896776666667,
                    "velocity": 0.31496062992125984
                },
                {
                    "duration": 0.12318851666668706,
                    "durationTicks": 68,
                    "midi": 61,
                    "name": "C#4",
                    "ticks": 78486,
                    "time": 142.184910575,
                    "velocity": 0.4094488188976378
                },
                {
                    "duration": 0.11594213333333414,
                    "durationTicks": 64,
                    "midi": 55,
                    "name": "G3",
                    "ticks": 78490,
                    "time": 142.19215695833336,
                    "velocity": 0.5196850393700787
                },
                {
                    "duration": 0.40942065833334595,
                    "durationTicks": 226,
                    "midi": 57,
                    "name": "A3",
                    "ticks": 78724,
                    "time": 142.61607038333332,
                    "velocity": 0.33070866141732286
                },
                {
                    "duration": 0.4202902333333327,
                    "durationTicks": 232,
                    "midi": 64,
                    "name": "E4",
                    "ticks": 78728,
                    "time": 142.62331676666668,
                    "velocity": 0.2755905511811024
                },
                {
                    "duration": 0.07608702500002096,
                    "durationTicks": 42,
                    "midi": 57,
                    "name": "A3",
                    "ticks": 78964,
                    "time": 143.05085338333333,
                    "velocity": 0.4251968503937008
                },
                {
                    "duration": 0.06159425833334353,
                    "durationTicks": 34,
                    "midi": 64,
                    "name": "E4",
                    "ticks": 78970,
                    "time": 143.06172295833335,
                    "velocity": 0.4015748031496063
                },
                {
                    "duration": 0.41666704166667046,
                    "durationTicks": 230,
                    "midi": 57,
                    "name": "A3",
                    "ticks": 79206,
                    "time": 143.489259575,
                    "velocity": 0.31496062992125984
                },
                {
                    "duration": 0.4275366166666288,
                    "durationTicks": 236,
                    "midi": 64,
                    "name": "E4",
                    "ticks": 79210,
                    "time": 143.49650595833336,
                    "velocity": 0.25984251968503935
                },
                {
                    "duration": 0.09057979166669838,
                    "durationTicks": 50,
                    "midi": 57,
                    "name": "A3",
                    "ticks": 79444,
                    "time": 143.92041938333332,
                    "velocity": 0.3937007874015748
                },
                {
                    "duration": 0.07608702499999254,
                    "durationTicks": 42,
                    "midi": 64,
                    "name": "E4",
                    "ticks": 79450,
                    "time": 143.93128895833334,
                    "velocity": 0.3937007874015748
                },
                {
                    "duration": 0.11594213333330572,
                    "durationTicks": 64,
                    "midi": 57,
                    "name": "A3",
                    "ticks": 79918,
                    "time": 144.77911580833336,
                    "velocity": 0.47244094488188976
                },
                {
                    "duration": 0.11594213333333414,
                    "durationTicks": 64,
                    "midi": 63,
                    "name": "D#4",
                    "ticks": 79924,
                    "time": 144.78998538333335,
                    "velocity": 0.2440944881889764
                },
                {
                    "duration": 0.13043490000001157,
                    "durationTicks": 72,
                    "midi": 63,
                    "name": "D#4",
                    "ticks": 80400,
                    "time": 145.652305,
                    "velocity": 0.4094488188976378
                },
                {
                    "duration": 0.11594213333333414,
                    "durationTicks": 64,
                    "midi": 57,
                    "name": "A3",
                    "ticks": 80400,
                    "time": 145.652305,
                    "velocity": 0.5196850393700787
                },
                {
                    "duration": 0.40942065833331753,
                    "durationTicks": 226,
                    "midi": 55,
                    "name": "G3",
                    "ticks": 80644,
                    "time": 146.09433438333335,
                    "velocity": 0.33070866141732286
                },
                {
                    "duration": 0.4202902333333043,
                    "durationTicks": 232,
                    "midi": 62,
                    "name": "D4",
                    "ticks": 80648,
                    "time": 146.1015807666667,
                    "velocity": 0.2755905511811024
                },
                {
                    "duration": 0.07608702500002096,
                    "durationTicks": 42,
                    "midi": 55,
                    "name": "G3",
                    "ticks": 80884,
                    "time": 146.52911738333333,
                    "velocity": 0.4251968503937008
                },
                {
                    "duration": 0.06159425833334353,
                    "durationTicks": 34,
                    "midi": 62,
                    "name": "D4",
                    "ticks": 80890,
                    "time": 146.53998695833334,
                    "velocity": 0.4015748031496063
                },
                {
                    "duration": 0.41666704166667046,
                    "durationTicks": 230,
                    "midi": 55,
                    "name": "G3",
                    "ticks": 81126,
                    "time": 146.967523575,
                    "velocity": 0.31496062992125984
                },
                {
                    "duration": 0.4275366166666572,
                    "durationTicks": 236,
                    "midi": 62,
                    "name": "D4",
                    "ticks": 81130,
                    "time": 146.97476995833335,
                    "velocity": 0.25984251968503935
                },
                {
                    "duration": 0.09057979166666996,
                    "durationTicks": 50,
                    "midi": 55,
                    "name": "G3",
                    "ticks": 81364,
                    "time": 147.39868338333335,
                    "velocity": 0.3937007874015748
                },
                {
                    "duration": 0.07608702499996411,
                    "durationTicks": 42,
                    "midi": 62,
                    "name": "D4",
                    "ticks": 81370,
                    "time": 147.40955295833336,
                    "velocity": 0.3937007874015748
                },
                {
                    "duration": 0.40942065833334595,
                    "durationTicks": 226,
                    "midi": 55,
                    "name": "G3",
                    "ticks": 81606,
                    "time": 147.837089575,
                    "velocity": 0.31496062992125984
                },
                {
                    "duration": 0.40942065833334595,
                    "durationTicks": 226,
                    "midi": 62,
                    "name": "D4",
                    "ticks": 81610,
                    "time": 147.84433595833335,
                    "velocity": 0.25984251968503935
                },
                {
                    "duration": 0.06159425833331511,
                    "durationTicks": 34,
                    "midi": 62,
                    "name": "D4",
                    "ticks": 81840,
                    "time": 148.26100300000002,
                    "velocity": 0.3937007874015748
                },
                {
                    "duration": 0.07608702499999254,
                    "durationTicks": 42,
                    "midi": 55,
                    "name": "G3",
                    "ticks": 81842,
                    "time": 148.26462619166668,
                    "velocity": 0.4015748031496063
                },
                {
                    "duration": 0.4057974666666553,
                    "durationTicks": 224,
                    "midi": 55,
                    "name": "G3",
                    "ticks": 82088,
                    "time": 148.71027876666668,
                    "velocity": 0.31496062992125984
                },
                {
                    "duration": 0.42391342499999496,
                    "durationTicks": 234,
                    "midi": 62,
                    "name": "D4",
                    "ticks": 82088,
                    "time": 148.71027876666668,
                    "velocity": 0.2677165354330709
                },
                {
                    "duration": 0.06884064166666803,
                    "durationTicks": 38,
                    "midi": 55,
                    "name": "G3",
                    "ticks": 82322,
                    "time": 149.13419219166667,
                    "velocity": 0.41732283464566927
                },
                {
                    "duration": 0.40942065833331753,
                    "durationTicks": 226,
                    "midi": 55,
                    "name": "G3",
                    "ticks": 82564,
                    "time": 149.57259838333334,
                    "velocity": 0.33070866141732286
                },
                {
                    "duration": 0.4202902333333043,
                    "durationTicks": 232,
                    "midi": 60,
                    "name": "C4",
                    "ticks": 82568,
                    "time": 149.5798447666667,
                    "velocity": 0.2755905511811024
                },
                {
                    "duration": 0.07608702500002096,
                    "durationTicks": 42,
                    "midi": 55,
                    "name": "G3",
                    "ticks": 82804,
                    "time": 150.00738138333332,
                    "velocity": 0.4251968503937008
                },
                {
                    "duration": 0.06159425833334353,
                    "durationTicks": 34,
                    "midi": 60,
                    "name": "C4",
                    "ticks": 82810,
                    "time": 150.01825095833334,
                    "velocity": 0.4015748031496063
                },
                {
                    "duration": 0.4166670416666989,
                    "durationTicks": 230,
                    "midi": 55,
                    "name": "G3",
                    "ticks": 83046,
                    "time": 150.445787575,
                    "velocity": 0.31496062992125984
                },
                {
                    "duration": 0.4275366166666572,
                    "durationTicks": 236,
                    "midi": 60,
                    "name": "C4",
                    "ticks": 83050,
                    "time": 150.45303395833335,
                    "velocity": 0.25984251968503935
                },
                {
                    "duration": 0.09057979166666996,
                    "durationTicks": 50,
                    "midi": 55,
                    "name": "G3",
                    "ticks": 83284,
                    "time": 150.87694738333334,
                    "velocity": 0.3937007874015748
                },
                {
                    "duration": 0.07608702499996411,
                    "durationTicks": 42,
                    "midi": 60,
                    "name": "C4",
                    "ticks": 83290,
                    "time": 150.88781695833336,
                    "velocity": 0.3937007874015748
                },
                {
                    "duration": 0.11594213333333414,
                    "durationTicks": 64,
                    "midi": 60,
                    "name": "C4",
                    "ticks": 83758,
                    "time": 151.73564380833335,
                    "velocity": 0.47244094488188976
                },
                {
                    "duration": 0.11594213333336256,
                    "durationTicks": 64,
                    "midi": 66,
                    "name": "F#4",
                    "ticks": 83764,
                    "time": 151.74651338333334,
                    "velocity": 0.2440944881889764
                },
                {
                    "duration": 0.13043490000001157,
                    "durationTicks": 72,
                    "midi": 66,
                    "name": "F#4",
                    "ticks": 84240,
                    "time": 152.608833,
                    "velocity": 0.4094488188976378
                },
                {
                    "duration": 0.11594213333333414,
                    "durationTicks": 64,
                    "midi": 60,
                    "name": "C4",
                    "ticks": 84240,
                    "time": 152.608833,
                    "velocity": 0.5196850393700787
                },
                {
                    "duration": 0.11594213333333414,
                    "durationTicks": 64,
                    "midi": 59,
                    "name": "B3",
                    "ticks": 84718,
                    "time": 153.47477580833333,
                    "velocity": 0.47244094488188976
                },
                {
                    "duration": 0.11594213333333414,
                    "durationTicks": 64,
                    "midi": 66,
                    "name": "F#4",
                    "ticks": 84724,
                    "time": 153.48564538333335,
                    "velocity": 0.2440944881889764
                },
                {
                    "duration": 0.13043490000001157,
                    "durationTicks": 72,
                    "midi": 66,
                    "name": "F#4",
                    "ticks": 85200,
                    "time": 154.34796500000002,
                    "velocity": 0.4094488188976378
                },
                {
                    "duration": 0.11594213333333414,
                    "durationTicks": 64,
                    "midi": 59,
                    "name": "B3",
                    "ticks": 85200,
                    "time": 154.34796500000002,
                    "velocity": 0.5196850393700787
                },
                {
                    "duration": 0.10869575000000964,
                    "durationTicks": 60,
                    "midi": 59,
                    "name": "B3",
                    "ticks": 85688,
                    "time": 155.23202376666669,
                    "velocity": 0.47244094488188976
                },
                {
                    "duration": 0.11594213333333414,
                    "durationTicks": 64,
                    "midi": 66,
                    "name": "F#4",
                    "ticks": 85688,
                    "time": 155.23202376666669,
                    "velocity": 0.31496062992125984
                },
                {
                    "duration": 0.12318851666665864,
                    "durationTicks": 68,
                    "midi": 66,
                    "name": "F#4",
                    "ticks": 86166,
                    "time": 156.09796657500002,
                    "velocity": 0.4094488188976378
                },
                {
                    "duration": 0.11594213333333414,
                    "durationTicks": 64,
                    "midi": 59,
                    "name": "B3",
                    "ticks": 86170,
                    "time": 156.10521295833334,
                    "velocity": 0.5196850393700787
                },
                {
                    "duration": 0.11594213333330572,
                    "durationTicks": 64,
                    "midi": 57,
                    "name": "A3",
                    "ticks": 86638,
                    "time": 156.95303980833336,
                    "velocity": 0.47244094488188976
                },
                {
                    "duration": 0.11594213333333414,
                    "durationTicks": 64,
                    "midi": 64,
                    "name": "E4",
                    "ticks": 86644,
                    "time": 156.96390938333334,
                    "velocity": 0.2440944881889764
                },
                {
                    "duration": 0.13043490000001157,
                    "durationTicks": 72,
                    "midi": 64,
                    "name": "E4",
                    "ticks": 87120,
                    "time": 157.826229,
                    "velocity": 0.4094488188976378
                },
                {
                    "duration": 0.11594213333333414,
                    "durationTicks": 64,
                    "midi": 57,
                    "name": "A3",
                    "ticks": 87120,
                    "time": 157.826229,
                    "velocity": 0.5196850393700787
                },
                {
                    "duration": 0.11594213333333414,
                    "durationTicks": 64,
                    "midi": 57,
                    "name": "A3",
                    "ticks": 87598,
                    "time": 158.69217180833334,
                    "velocity": 0.47244094488188976
                },
                {
                    "duration": 0.11594213333336256,
                    "durationTicks": 64,
                    "midi": 63,
                    "name": "D#4",
                    "ticks": 87604,
                    "time": 158.70304138333333,
                    "velocity": 0.2440944881889764
                },
                {
                    "duration": 0.13043489999998314,
                    "durationTicks": 72,
                    "midi": 63,
                    "name": "D#4",
                    "ticks": 88080,
                    "time": 159.56536100000002,
                    "velocity": 0.4094488188976378
                },
                {
                    "duration": 0.11594213333330572,
                    "durationTicks": 64,
                    "midi": 57,
                    "name": "A3",
                    "ticks": 88080,
                    "time": 159.56536100000002,
                    "velocity": 0.5196850393700787
                },
                {
                    "duration": 0.11594213333333414,
                    "durationTicks": 64,
                    "midi": 55,
                    "name": "G3",
                    "ticks": 88558,
                    "time": 160.43130380833335,
                    "velocity": 0.47244094488188976
                },
                {
                    "duration": 0.11594213333336256,
                    "durationTicks": 64,
                    "midi": 62,
                    "name": "D4",
                    "ticks": 88564,
                    "time": 160.44217338333334,
                    "velocity": 0.2440944881889764
                },
                {
                    "duration": 0.40942065833331753,
                    "durationTicks": 226,
                    "midi": 55,
                    "name": "G3",
                    "ticks": 88804,
                    "time": 160.87695638333335,
                    "velocity": 0.33070866141732286
                },
                {
                    "duration": 0.4202902333333043,
                    "durationTicks": 232,
                    "midi": 61,
                    "name": "C#4",
                    "ticks": 88808,
                    "time": 160.8842027666667,
                    "velocity": 0.2755905511811024
                },
                {
                    "duration": 0.07608702500002096,
                    "durationTicks": 42,
                    "midi": 55,
                    "name": "G3",
                    "ticks": 89044,
                    "time": 161.31173938333333,
                    "velocity": 0.4251968503937008
                },
                {
                    "duration": 0.06159425833334353,
                    "durationTicks": 34,
                    "midi": 61,
                    "name": "C#4",
                    "ticks": 89050,
                    "time": 161.32260895833335,
                    "velocity": 0.4015748031496063
                },
                {
                    "duration": 0.11594213333333414,
                    "durationTicks": 64,
                    "midi": 60,
                    "name": "C4",
                    "ticks": 89518,
                    "time": 162.17043580833334,
                    "velocity": 0.47244094488188976
                },
                {
                    "duration": 0.11594213333336256,
                    "durationTicks": 64,
                    "midi": 65,
                    "name": "F4",
                    "ticks": 89524,
                    "time": 162.18130538333332,
                    "velocity": 0.2440944881889764
                },
                {
                    "duration": 0.40942065833334595,
                    "durationTicks": 226,
                    "midi": 59,
                    "name": "B3",
                    "ticks": 89764,
                    "time": 162.61608838333333,
                    "velocity": 0.33070866141732286
                },
                {
                    "duration": 0.4202902333333327,
                    "durationTicks": 232,
                    "midi": 65,
                    "name": "F4",
                    "ticks": 89768,
                    "time": 162.6233347666667,
                    "velocity": 0.2755905511811024
                },
                {
                    "duration": 0.07608702499999254,
                    "durationTicks": 42,
                    "midi": 59,
                    "name": "B3",
                    "ticks": 90004,
                    "time": 163.05087138333334,
                    "velocity": 0.4251968503937008
                },
                {
                    "duration": 0.06159425833331511,
                    "durationTicks": 34,
                    "midi": 65,
                    "name": "F4",
                    "ticks": 90010,
                    "time": 163.06174095833336,
                    "velocity": 0.4015748031496063
                },
                {
                    "duration": 0.11594213333333414,
                    "durationTicks": 64,
                    "midi": 59,
                    "name": "B3",
                    "ticks": 90478,
                    "time": 163.90956780833335,
                    "velocity": 0.47244094488188976
                },
                {
                    "duration": 0.11594213333336256,
                    "durationTicks": 64,
                    "midi": 64,
                    "name": "E4",
                    "ticks": 90484,
                    "time": 163.92043738333334,
                    "velocity": 0.2440944881889764
                },
                {
                    "duration": 0.13043490000001157,
                    "durationTicks": 72,
                    "midi": 64,
                    "name": "E4",
                    "ticks": 90960,
                    "time": 164.782757,
                    "velocity": 0.4094488188976378
                },
                {
                    "duration": 0.11594213333333414,
                    "durationTicks": 64,
                    "midi": 59,
                    "name": "B3",
                    "ticks": 90960,
                    "time": 164.782757,
                    "velocity": 0.5196850393700787
                },
                {
                    "duration": 0.11594213333330572,
                    "durationTicks": 64,
                    "midi": 57,
                    "name": "A3",
                    "ticks": 91438,
                    "time": 165.64869980833336,
                    "velocity": 0.47244094488188976
                },
                {
                    "duration": 0.11594213333333414,
                    "durationTicks": 64,
                    "midi": 64,
                    "name": "E4",
                    "ticks": 91444,
                    "time": 165.65956938333335,
                    "velocity": 0.2440944881889764
                },
                {
                    "duration": 0.11594213333333414,
                    "durationTicks": 64,
                    "midi": 57,
                    "name": "A3",
                    "ticks": 91918,
                    "time": 166.51826580833335,
                    "velocity": 0.47244094488188976
                },
                {
                    "duration": 0.11594213333336256,
                    "durationTicks": 64,
                    "midi": 63,
                    "name": "D#4",
                    "ticks": 91924,
                    "time": 166.52913538333334,
                    "velocity": 0.2440944881889764
                },
                {
                    "duration": 0.11594213333333414,
                    "durationTicks": 64,
                    "midi": 55,
                    "name": "G3",
                    "ticks": 92398,
                    "time": 167.38783180833335,
                    "velocity": 0.47244094488188976
                },
                {
                    "duration": 0.11594213333336256,
                    "durationTicks": 64,
                    "midi": 62,
                    "name": "D4",
                    "ticks": 92404,
                    "time": 167.39870138333333,
                    "velocity": 0.2440944881889764
                },
                {
                    "duration": 0.13043490000001157,
                    "durationTicks": 72,
                    "midi": 62,
                    "name": "D4",
                    "ticks": 92880,
                    "time": 168.261021,
                    "velocity": 0.4094488188976378
                },
                {
                    "duration": 0.11594213333333414,
                    "durationTicks": 64,
                    "midi": 55,
                    "name": "G3",
                    "ticks": 92880,
                    "time": 168.261021,
                    "velocity": 0.5196850393700787
                },
                {
                    "duration": 0.40942065833334595,
                    "durationTicks": 226,
                    "midi": 55,
                    "name": "G3",
                    "ticks": 93124,
                    "time": 168.70305038333333,
                    "velocity": 0.33070866141732286
                },
                {
                    "duration": 0.4202902333333327,
                    "durationTicks": 232,
                    "midi": 62,
                    "name": "D4",
                    "ticks": 93128,
                    "time": 168.7102967666667,
                    "velocity": 0.2755905511811024
                },
                {
                    "duration": 0.07608702499999254,
                    "durationTicks": 42,
                    "midi": 55,
                    "name": "G3",
                    "ticks": 93364,
                    "time": 169.13783338333334,
                    "velocity": 0.4251968503937008
                },
                {
                    "duration": 0.06159425833331511,
                    "durationTicks": 34,
                    "midi": 62,
                    "name": "D4",
                    "ticks": 93370,
                    "time": 169.14870295833336,
                    "velocity": 0.4015748031496063
                },
                {
                    "duration": 0.4166670416666989,
                    "durationTicks": 230,
                    "midi": 55,
                    "name": "G3",
                    "ticks": 93606,
                    "time": 169.576239575,
                    "velocity": 0.31496062992125984
                },
                {
                    "duration": 0.4275366166666572,
                    "durationTicks": 236,
                    "midi": 62,
                    "name": "D4",
                    "ticks": 93610,
                    "time": 169.58348595833334,
                    "velocity": 0.25984251968503935
                },
                {
                    "duration": 0.09057979166669838,
                    "durationTicks": 50,
                    "midi": 55,
                    "name": "G3",
                    "ticks": 93844,
                    "time": 170.00739938333334,
                    "velocity": 0.3937007874015748
                },
                {
                    "duration": 0.07608702499999254,
                    "durationTicks": 42,
                    "midi": 62,
                    "name": "D4",
                    "ticks": 93850,
                    "time": 170.01826895833335,
                    "velocity": 0.3937007874015748
                },
                {
                    "duration": 0.3478264000000024,
                    "durationTicks": 192,
                    "midi": 61,
                    "name": "C#4",
                    "ticks": 94080,
                    "time": 170.43493600000002,
                    "velocity": 0.4251968503937008
                },
                {
                    "duration": 0.2681161833333192,
                    "durationTicks": 148,
                    "midi": 55,
                    "name": "G3",
                    "ticks": 94082,
                    "time": 170.43855919166668,
                    "velocity": 0.48031496062992124
                },
                {
                    "duration": 0.04347830000003228,
                    "durationTicks": 24,
                    "midi": 55,
                    "name": "G3",
                    "ticks": 94324,
                    "time": 170.87696538333333,
                    "velocity": 0.4015748031496063
                },
                {
                    "duration": 0.043478300000003856,
                    "durationTicks": 24,
                    "midi": 61,
                    "name": "C#4",
                    "ticks": 94330,
                    "time": 170.88783495833334,
                    "velocity": 0.2047244094488189
                },
                {
                    "duration": 0.14492766666666057,
                    "durationTicks": 80,
                    "midi": 55,
                    "name": "G3",
                    "ticks": 94562,
                    "time": 171.30812519166668,
                    "velocity": 0.4251968503937008
                },
                {
                    "duration": 0.173913199999987,
                    "durationTicks": 96,
                    "midi": 61,
                    "name": "C#4",
                    "ticks": 94572,
                    "time": 171.32624115000002,
                    "velocity": 0.33070866141732286
                },
                {
                    "duration": 0.03260872499998868,
                    "durationTicks": 18,
                    "midi": 55,
                    "name": "G3",
                    "ticks": 94802,
                    "time": 171.7429081916667,
                    "velocity": 0.4645669291338583
                },
                {
                    "duration": 0.04710149166666611,
                    "durationTicks": 26,
                    "midi": 61,
                    "name": "C#4",
                    "ticks": 94812,
                    "time": 171.76102415000003,
                    "velocity": 0.36220472440944884
                },
                {
                    "duration": 0.05434787500001903,
                    "durationTicks": 30,
                    "midi": 55,
                    "name": "G3",
                    "ticks": 95042,
                    "time": 172.17769119166667,
                    "velocity": 0.4094488188976378
                },
                {
                    "duration": 0.06884064166666803,
                    "durationTicks": 38,
                    "midi": 61,
                    "name": "C#4",
                    "ticks": 95050,
                    "time": 172.19218395833335,
                    "velocity": 0.3228346456692913
                },
                {
                    "duration": 0.14492766666666057,
                    "durationTicks": 80,
                    "midi": 55,
                    "name": "G3",
                    "ticks": 95282,
                    "time": 172.61247419166668,
                    "velocity": 0.25196850393700787
                },
                {
                    "duration": 0.14492766666666057,
                    "durationTicks": 80,
                    "midi": 61,
                    "name": "C#4",
                    "ticks": 95290,
                    "time": 172.62696695833336,
                    "velocity": 0.14173228346456693
                },
                {
                    "duration": 0.7934789749999993,
                    "durationTicks": 438,
                    "midi": 55,
                    "name": "G3",
                    "ticks": 95448,
                    "time": 172.9131991,
                    "velocity": 0.47244094488188976
                },
                {
                    "duration": 0.7934789750000277,
                    "durationTicks": 438,
                    "midi": 61,
                    "name": "C#4",
                    "ticks": 95452,
                    "time": 172.92044548333334,
                    "velocity": 0.3228346456692913
                }
            ],
            "endOfTrackTicks": 96000
        },
        {
            "channel": 9,
            "controlChanges": {
                "7": [
                    {
                        "number": 7,
                        "ticks": 0,
                        "time": 0,
                        "value": 0.7086614173228346
                    }
                ],
                "10": [
                    {
                        "number": 10,
                        "ticks": 0,
                        "time": 0,
                        "value": 0.5039370078740157
                    }
                ],
                "91": [
                    {
                        "number": 91,
                        "ticks": 0,
                        "time": 0,
                        "value": 0.31496062992125984
                    }
                ],
                "93": [
                    {
                        "number": 93,
                        "ticks": 0,
                        "time": 0,
                        "value": 0
                    }
                ],
                "123": [
                    {
                        "number": 123,
                        "ticks": 0,
                        "time": 0,
                        "value": 0
                    }
                ]
            },
            "pitchBends": [],
            "instrument": {
                "family": "drums",
                "name": "brush kit",
                "number": 40
            },
            "name": "Drums / Wire brush",
            "notes": [
                {
                    "duration": 0.09057979166666685,
                    "durationTicks": 50,
                    "midi": 38,
                    "name": "D2",
                    "ticks": 1920,
                    "time": 3.4782640000000002,
                    "velocity": 0.6299212598425197
                },
                {
                    "duration": 0.09057979166666685,
                    "durationTicks": 50,
                    "midi": 49,
                    "name": "C#3",
                    "ticks": 1920,
                    "time": 3.4782640000000002,
                    "velocity": 0.23622047244094488
                },
                {
                    "duration": 0.09057979166666641,
                    "durationTicks": 50,
                    "midi": 38,
                    "name": "D2",
                    "ticks": 2098,
                    "time": 3.8007280583333336,
                    "velocity": 0.23622047244094488
                },
                {
                    "duration": 0.09057979166666685,
                    "durationTicks": 50,
                    "midi": 38,
                    "name": "D2",
                    "ticks": 2160,
                    "time": 3.913047,
                    "velocity": 0.7874015748031497
                },
                {
                    "duration": 0.09057979166666685,
                    "durationTicks": 50,
                    "midi": 42,
                    "name": "F#2",
                    "ticks": 2160,
                    "time": 3.913047,
                    "velocity": 0.5511811023622047
                },
                {
                    "duration": 0.09057979166666641,
                    "durationTicks": 50,
                    "midi": 38,
                    "name": "D2",
                    "ticks": 2338,
                    "time": 4.2355110583333335,
                    "velocity": 0.7086614173228346
                },
                {
                    "duration": 0.0905797916666673,
                    "durationTicks": 50,
                    "midi": 38,
                    "name": "D2",
                    "ticks": 2400,
                    "time": 4.34783,
                    "velocity": 0.6299212598425197
                },
                {
                    "duration": 0.09057979166666641,
                    "durationTicks": 50,
                    "midi": 38,
                    "name": "D2",
                    "ticks": 2578,
                    "time": 4.670294058333334,
                    "velocity": 0.4251968503937008
                },
                {
                    "duration": 0.09057979166666641,
                    "durationTicks": 50,
                    "midi": 38,
                    "name": "D2",
                    "ticks": 2640,
                    "time": 4.7826130000000004,
                    "velocity": 0.7874015748031497
                },
                {
                    "duration": 0.09057979166666641,
                    "durationTicks": 50,
                    "midi": 42,
                    "name": "F#2",
                    "ticks": 2640,
                    "time": 4.7826130000000004,
                    "velocity": 0.6299212598425197
                },
                {
                    "duration": 0.09057979166666552,
                    "durationTicks": 50,
                    "midi": 38,
                    "name": "D2",
                    "ticks": 2818,
                    "time": 5.105077058333334,
                    "velocity": 0.5511811023622047
                },
                {
                    "duration": 0.09057979166666641,
                    "durationTicks": 50,
                    "midi": 38,
                    "name": "D2",
                    "ticks": 2880,
                    "time": 5.217396000000001,
                    "velocity": 0.6299212598425197
                },
                {
                    "duration": 0.0905797916666673,
                    "durationTicks": 50,
                    "midi": 38,
                    "name": "D2",
                    "ticks": 3052,
                    "time": 5.528990483333334,
                    "velocity": 0.23622047244094488
                },
                {
                    "duration": 0.0905797916666673,
                    "durationTicks": 50,
                    "midi": 38,
                    "name": "D2",
                    "ticks": 3120,
                    "time": 5.652179,
                    "velocity": 0.7874015748031497
                },
                {
                    "duration": 0.0905797916666673,
                    "durationTicks": 50,
                    "midi": 42,
                    "name": "F#2",
                    "ticks": 3120,
                    "time": 5.652179,
                    "velocity": 0.5511811023622047
                },
                {
                    "duration": 0.09057979166666641,
                    "durationTicks": 50,
                    "midi": 38,
                    "name": "D2",
                    "ticks": 3292,
                    "time": 5.963773483333334,
                    "velocity": 0.7086614173228346
                },
                {
                    "duration": 0.09057979166666641,
                    "durationTicks": 50,
                    "midi": 38,
                    "name": "D2",
                    "ticks": 3360,
                    "time": 6.086962000000001,
                    "velocity": 0.6299212598425197
                },
                {
                    "duration": 0.0905797916666673,
                    "durationTicks": 50,
                    "midi": 38,
                    "name": "D2",
                    "ticks": 3532,
                    "time": 6.3985564833333335,
                    "velocity": 0.15748031496062992
                },
                {
                    "duration": 0.0905797916666673,
                    "durationTicks": 50,
                    "midi": 38,
                    "name": "D2",
                    "ticks": 3600,
                    "time": 6.521745,
                    "velocity": 0.7874015748031497
                },
                {
                    "duration": 0.0905797916666673,
                    "durationTicks": 50,
                    "midi": 42,
                    "name": "F#2",
                    "ticks": 3600,
                    "time": 6.521745,
                    "velocity": 0.6299212598425197
                },
                {
                    "duration": 0.0905797916666673,
                    "durationTicks": 50,
                    "midi": 37,
                    "name": "C#2",
                    "ticks": 3600,
                    "time": 6.521745,
                    "velocity": 0.47244094488188976
                },
                {
                    "duration": 0.0905797916666673,
                    "durationTicks": 50,
                    "midi": 38,
                    "name": "D2",
                    "ticks": 3772,
                    "time": 6.833339483333334,
                    "velocity": 0.5511811023622047
                },
                {
                    "duration": 0.09057979166666641,
                    "durationTicks": 50,
                    "midi": 38,
                    "name": "D2",
                    "ticks": 3840,
                    "time": 6.9565280000000005,
                    "velocity": 0.6299212598425197
                },
                {
                    "duration": 0.0905797916666673,
                    "durationTicks": 50,
                    "midi": 38,
                    "name": "D2",
                    "ticks": 4012,
                    "time": 7.268122483333333,
                    "velocity": 0.23622047244094488
                },
                {
                    "duration": 0.09057979166666552,
                    "durationTicks": 50,
                    "midi": 38,
                    "name": "D2",
                    "ticks": 4080,
                    "time": 7.391311000000001,
                    "velocity": 0.7874015748031497
                },
                {
                    "duration": 0.09057979166666552,
                    "durationTicks": 50,
                    "midi": 42,
                    "name": "F#2",
                    "ticks": 4080,
                    "time": 7.391311000000001,
                    "velocity": 0.5511811023622047
                },
                {
                    "duration": 0.09057979166666819,
                    "durationTicks": 50,
                    "midi": 38,
                    "name": "D2",
                    "ticks": 4252,
                    "time": 7.702905483333333,
                    "velocity": 0.7086614173228346
                },
                {
                    "duration": 0.09057979166666641,
                    "durationTicks": 50,
                    "midi": 38,
                    "name": "D2",
                    "ticks": 4320,
                    "time": 7.826094,
                    "velocity": 0.6299212598425197
                },
                {
                    "duration": 0.09057979166666819,
                    "durationTicks": 50,
                    "midi": 38,
                    "name": "D2",
                    "ticks": 4492,
                    "time": 8.137688483333333,
                    "velocity": 0.15748031496062992
                },
                {
                    "duration": 0.09057979166666641,
                    "durationTicks": 50,
                    "midi": 38,
                    "name": "D2",
                    "ticks": 4560,
                    "time": 8.260877,
                    "velocity": 0.7874015748031497
                },
                {
                    "duration": 0.09057979166666641,
                    "durationTicks": 50,
                    "midi": 42,
                    "name": "F#2",
                    "ticks": 4560,
                    "time": 8.260877,
                    "velocity": 0.6299212598425197
                },
                {
                    "duration": 0.09057979166666641,
                    "durationTicks": 50,
                    "midi": 37,
                    "name": "C#2",
                    "ticks": 4560,
                    "time": 8.260877,
                    "velocity": 0.47244094488188976
                },
                {
                    "duration": 0.09057979166666819,
                    "durationTicks": 50,
                    "midi": 38,
                    "name": "D2",
                    "ticks": 4732,
                    "time": 8.572471483333333,
                    "velocity": 0.5511811023622047
                },
                {
                    "duration": 0.09057979166666641,
                    "durationTicks": 50,
                    "midi": 38,
                    "name": "D2",
                    "ticks": 4800,
                    "time": 8.69566,
                    "velocity": 0.6299212598425197
                },
                {
                    "duration": 0.09057979166666641,
                    "durationTicks": 50,
                    "midi": 38,
                    "name": "D2",
                    "ticks": 4972,
                    "time": 9.007254483333334,
                    "velocity": 0.23622047244094488
                },
                {
                    "duration": 0.09057979166666463,
                    "durationTicks": 50,
                    "midi": 38,
                    "name": "D2",
                    "ticks": 5040,
                    "time": 9.130443000000001,
                    "velocity": 0.7874015748031497
                },
                {
                    "duration": 0.09057979166666463,
                    "durationTicks": 50,
                    "midi": 42,
                    "name": "F#2",
                    "ticks": 5040,
                    "time": 9.130443000000001,
                    "velocity": 0.5511811023622047
                },
                {
                    "duration": 0.09057979166666819,
                    "durationTicks": 50,
                    "midi": 38,
                    "name": "D2",
                    "ticks": 5212,
                    "time": 9.442037483333333,
                    "velocity": 0.7086614173228346
                },
                {
                    "duration": 0.09057979166666641,
                    "durationTicks": 50,
                    "midi": 38,
                    "name": "D2",
                    "ticks": 5280,
                    "time": 9.565226000000001,
                    "velocity": 0.6299212598425197
                },
                {
                    "duration": 0.09057979166666819,
                    "durationTicks": 50,
                    "midi": 38,
                    "name": "D2",
                    "ticks": 5452,
                    "time": 9.876820483333333,
                    "velocity": 0.15748031496062992
                },
                {
                    "duration": 0.09057979166666641,
                    "durationTicks": 50,
                    "midi": 38,
                    "name": "D2",
                    "ticks": 5520,
                    "time": 10.000009,
                    "velocity": 0.7874015748031497
                },
                {
                    "duration": 0.09057979166666641,
                    "durationTicks": 50,
                    "midi": 42,
                    "name": "F#2",
                    "ticks": 5520,
                    "time": 10.000009,
                    "velocity": 0.6299212598425197
                },
                {
                    "duration": 0.09057979166666641,
                    "durationTicks": 50,
                    "midi": 37,
                    "name": "C#2",
                    "ticks": 5520,
                    "time": 10.000009,
                    "velocity": 0.47244094488188976
                },
                {
                    "duration": 0.09057979166666641,
                    "durationTicks": 50,
                    "midi": 38,
                    "name": "D2",
                    "ticks": 5692,
                    "time": 10.311603483333334,
                    "velocity": 0.5511811023622047
                },
                {
                    "duration": 0.09057979166666463,
                    "durationTicks": 50,
                    "midi": 38,
                    "name": "D2",
                    "ticks": 5760,
                    "time": 10.434792000000002,
                    "velocity": 0.6299212598425197
                },
                {
                    "duration": 0.09057979166666819,
                    "durationTicks": 50,
                    "midi": 38,
                    "name": "D2",
                    "ticks": 5932,
                    "time": 10.746386483333334,
                    "velocity": 0.15748031496062992
                },
                {
                    "duration": 0.09057979166666641,
                    "durationTicks": 50,
                    "midi": 38,
                    "name": "D2",
                    "ticks": 6000,
                    "time": 10.869575000000001,
                    "velocity": 0.7874015748031497
                },
                {
                    "duration": 0.09057979166666641,
                    "durationTicks": 50,
                    "midi": 42,
                    "name": "F#2",
                    "ticks": 6000,
                    "time": 10.869575000000001,
                    "velocity": 0.5511811023622047
                },
                {
                    "duration": 0.09057979166666819,
                    "durationTicks": 50,
                    "midi": 38,
                    "name": "D2",
                    "ticks": 6172,
                    "time": 11.181169483333333,
                    "velocity": 0.7086614173228346
                },
                {
                    "duration": 0.09057979166666641,
                    "durationTicks": 50,
                    "midi": 38,
                    "name": "D2",
                    "ticks": 6240,
                    "time": 11.304358,
                    "velocity": 0.6299212598425197
                },
                {
                    "duration": 0.09057979166666641,
                    "durationTicks": 50,
                    "midi": 38,
                    "name": "D2",
                    "ticks": 6412,
                    "time": 11.615952483333334,
                    "velocity": 0.15748031496062992
                },
                {
                    "duration": 0.09057979166666641,
                    "durationTicks": 50,
                    "midi": 38,
                    "name": "D2",
                    "ticks": 6480,
                    "time": 11.739141,
                    "velocity": 0.7874015748031497
                },
                {
                    "duration": 0.09057979166666641,
                    "durationTicks": 50,
                    "midi": 42,
                    "name": "F#2",
                    "ticks": 6480,
                    "time": 11.739141,
                    "velocity": 0.6299212598425197
                },
                {
                    "duration": 0.09057979166666641,
                    "durationTicks": 50,
                    "midi": 37,
                    "name": "C#2",
                    "ticks": 6480,
                    "time": 11.739141,
                    "velocity": 0.47244094488188976
                },
                {
                    "duration": 0.09057979166666819,
                    "durationTicks": 50,
                    "midi": 38,
                    "name": "D2",
                    "ticks": 6652,
                    "time": 12.050735483333334,
                    "velocity": 0.5511811023622047
                },
                {
                    "duration": 0.09057979166666641,
                    "durationTicks": 50,
                    "midi": 38,
                    "name": "D2",
                    "ticks": 6720,
                    "time": 12.173924000000001,
                    "velocity": 0.6299212598425197
                },
                {
                    "duration": 0.09057979166666641,
                    "durationTicks": 50,
                    "midi": 38,
                    "name": "D2",
                    "ticks": 6898,
                    "time": 12.496388058333334,
                    "velocity": 0.23622047244094488
                },
                {
                    "duration": 0.09057979166666641,
                    "durationTicks": 50,
                    "midi": 38,
                    "name": "D2",
                    "ticks": 6960,
                    "time": 12.608707,
                    "velocity": 0.7874015748031497
                },
                {
                    "duration": 0.09057979166666641,
                    "durationTicks": 50,
                    "midi": 42,
                    "name": "F#2",
                    "ticks": 6960,
                    "time": 12.608707,
                    "velocity": 0.5511811023622047
                },
                {
                    "duration": 0.09057979166666641,
                    "durationTicks": 50,
                    "midi": 38,
                    "name": "D2",
                    "ticks": 7138,
                    "time": 12.931171058333334,
                    "velocity": 0.7086614173228346
                },
                {
                    "duration": 0.09057979166666641,
                    "durationTicks": 50,
                    "midi": 38,
                    "name": "D2",
                    "ticks": 7200,
                    "time": 13.04349,
                    "velocity": 0.6299212598425197
                },
                {
                    "duration": 0.09057979166666641,
                    "durationTicks": 50,
                    "midi": 38,
                    "name": "D2",
                    "ticks": 7378,
                    "time": 13.365954058333335,
                    "velocity": 0.15748031496062992
                },
                {
                    "duration": 0.09057979166666641,
                    "durationTicks": 50,
                    "midi": 38,
                    "name": "D2",
                    "ticks": 7440,
                    "time": 13.478273000000002,
                    "velocity": 0.7874015748031497
                },
                {
                    "duration": 0.09057979166666641,
                    "durationTicks": 50,
                    "midi": 42,
                    "name": "F#2",
                    "ticks": 7440,
                    "time": 13.478273000000002,
                    "velocity": 0.6299212598425197
                },
                {
                    "duration": 0.09057979166666641,
                    "durationTicks": 50,
                    "midi": 38,
                    "name": "D2",
                    "ticks": 7618,
                    "time": 13.800737058333334,
                    "velocity": 0.5511811023622047
                },
                {
                    "duration": 0.09057979166666819,
                    "durationTicks": 50,
                    "midi": 38,
                    "name": "D2",
                    "ticks": 7680,
                    "time": 13.913056000000001,
                    "velocity": 0.6299212598425197
                },
                {
                    "duration": 0.09057979166666463,
                    "durationTicks": 50,
                    "midi": 38,
                    "name": "D2",
                    "ticks": 7852,
                    "time": 14.224650483333335,
                    "velocity": 0.15748031496062992
                },
                {
                    "duration": 0.09057979166666819,
                    "durationTicks": 50,
                    "midi": 38,
                    "name": "D2",
                    "ticks": 7920,
                    "time": 14.347839,
                    "velocity": 0.7874015748031497
                },
                {
                    "duration": 0.09057979166666819,
                    "durationTicks": 50,
                    "midi": 42,
                    "name": "F#2",
                    "ticks": 7920,
                    "time": 14.347839,
                    "velocity": 0.5511811023622047
                },
                {
                    "duration": 0.09057979166666463,
                    "durationTicks": 50,
                    "midi": 38,
                    "name": "D2",
                    "ticks": 8092,
                    "time": 14.659433483333336,
                    "velocity": 0.7086614173228346
                },
                {
                    "duration": 0.09057979166666641,
                    "durationTicks": 50,
                    "midi": 38,
                    "name": "D2",
                    "ticks": 8160,
                    "time": 14.782622000000002,
                    "velocity": 0.6299212598425197
                },
                {
                    "duration": 0.09057979166666463,
                    "durationTicks": 50,
                    "midi": 38,
                    "name": "D2",
                    "ticks": 8332,
                    "time": 15.094216483333335,
                    "velocity": 0.15748031496062992
                },
                {
                    "duration": 0.09057979166666819,
                    "durationTicks": 50,
                    "midi": 38,
                    "name": "D2",
                    "ticks": 8400,
                    "time": 15.217405000000001,
                    "velocity": 0.7874015748031497
                },
                {
                    "duration": 0.09057979166666819,
                    "durationTicks": 50,
                    "midi": 42,
                    "name": "F#2",
                    "ticks": 8400,
                    "time": 15.217405000000001,
                    "velocity": 0.6299212598425197
                },
                {
                    "duration": 0.09057979166666819,
                    "durationTicks": 50,
                    "midi": 37,
                    "name": "C#2",
                    "ticks": 8400,
                    "time": 15.217405000000001,
                    "velocity": 0.47244094488188976
                },
                {
                    "duration": 0.09057979166666463,
                    "durationTicks": 50,
                    "midi": 38,
                    "name": "D2",
                    "ticks": 8572,
                    "time": 15.528999483333335,
                    "velocity": 0.5511811023622047
                },
                {
                    "duration": 0.09057979166666819,
                    "durationTicks": 50,
                    "midi": 38,
                    "name": "D2",
                    "ticks": 8640,
                    "time": 15.652188,
                    "velocity": 0.6299212598425197
                },
                {
                    "duration": 0.09057979166666286,
                    "durationTicks": 50,
                    "midi": 38,
                    "name": "D2",
                    "ticks": 8812,
                    "time": 15.963782483333336,
                    "velocity": 0.15748031496062992
                },
                {
                    "duration": 0.09057979166666641,
                    "durationTicks": 50,
                    "midi": 38,
                    "name": "D2",
                    "ticks": 8880,
                    "time": 16.086971000000002,
                    "velocity": 0.7874015748031497
                },
                {
                    "duration": 0.09057979166666641,
                    "durationTicks": 50,
                    "midi": 42,
                    "name": "F#2",
                    "ticks": 8880,
                    "time": 16.086971000000002,
                    "velocity": 0.5511811023622047
                },
                {
                    "duration": 0.09057979166666286,
                    "durationTicks": 50,
                    "midi": 38,
                    "name": "D2",
                    "ticks": 9052,
                    "time": 16.398565483333336,
                    "velocity": 0.7086614173228346
                },
                {
                    "duration": 0.09057979166666641,
                    "durationTicks": 50,
                    "midi": 38,
                    "name": "D2",
                    "ticks": 9120,
                    "time": 16.521754,
                    "velocity": 0.6299212598425197
                },
                {
                    "duration": 0.09057979166666641,
                    "durationTicks": 50,
                    "midi": 38,
                    "name": "D2",
                    "ticks": 9292,
                    "time": 16.833348483333335,
                    "velocity": 0.15748031496062992
                },
                {
                    "duration": 0.09057979166666641,
                    "durationTicks": 50,
                    "midi": 48,
                    "name": "C3",
                    "ticks": 9292,
                    "time": 16.833348483333335,
                    "velocity": 0.31496062992125984
                },
                {
                    "duration": 0.09057979166666641,
                    "durationTicks": 50,
                    "midi": 38,
                    "name": "D2",
                    "ticks": 9360,
                    "time": 16.956537,
                    "velocity": 0.7874015748031497
                },
                {
                    "duration": 0.09057979166666641,
                    "durationTicks": 50,
                    "midi": 42,
                    "name": "F#2",
                    "ticks": 9360,
                    "time": 16.956537,
                    "velocity": 0.6299212598425197
                },
                {
                    "duration": 0.09057979166666641,
                    "durationTicks": 50,
                    "midi": 37,
                    "name": "C#2",
                    "ticks": 9360,
                    "time": 16.956537,
                    "velocity": 0.47244094488188976
                },
                {
                    "duration": 0.09057979166666641,
                    "durationTicks": 50,
                    "midi": 48,
                    "name": "C3",
                    "ticks": 9360,
                    "time": 16.956537,
                    "velocity": 0.3937007874015748
                },
                {
                    "duration": 0.09057979166666641,
                    "durationTicks": 50,
                    "midi": 38,
                    "name": "D2",
                    "ticks": 9532,
                    "time": 17.268131483333335,
                    "velocity": 0.5511811023622047
                },
                {
                    "duration": 0.09057979166666996,
                    "durationTicks": 50,
                    "midi": 38,
                    "name": "D2",
                    "ticks": 9600,
                    "time": 17.39132,
                    "velocity": 0.6299212598425197
                },
                {
                    "duration": 0.09057979166666641,
                    "durationTicks": 50,
                    "midi": 38,
                    "name": "D2",
                    "ticks": 9778,
                    "time": 17.713784058333335,
                    "velocity": 0.23622047244094488
                },
                {
                    "duration": 0.09057979166666996,
                    "durationTicks": 50,
                    "midi": 38,
                    "name": "D2",
                    "ticks": 9840,
                    "time": 17.826103,
                    "velocity": 0.7874015748031497
                },
                {
                    "duration": 0.09057979166666996,
                    "durationTicks": 50,
                    "midi": 42,
                    "name": "F#2",
                    "ticks": 9840,
                    "time": 17.826103,
                    "velocity": 0.5511811023622047
                },
                {
                    "duration": 0.09057979166666641,
                    "durationTicks": 50,
                    "midi": 38,
                    "name": "D2",
                    "ticks": 10018,
                    "time": 18.148567058333335,
                    "velocity": 0.7086614173228346
                },
                {
                    "duration": 0.09057979166666641,
                    "durationTicks": 50,
                    "midi": 38,
                    "name": "D2",
                    "ticks": 10080,
                    "time": 18.260886000000003,
                    "velocity": 0.6299212598425197
                },
                {
                    "duration": 0.09057979166666996,
                    "durationTicks": 50,
                    "midi": 38,
                    "name": "D2",
                    "ticks": 10258,
                    "time": 18.583350058333334,
                    "velocity": 0.15748031496062992
                },
                {
                    "duration": 0.09057979166666641,
                    "durationTicks": 50,
                    "midi": 38,
                    "name": "D2",
                    "ticks": 10320,
                    "time": 18.695669000000002,
                    "velocity": 0.7874015748031497
                },
                {
                    "duration": 0.09057979166666641,
                    "durationTicks": 50,
                    "midi": 42,
                    "name": "F#2",
                    "ticks": 10320,
                    "time": 18.695669000000002,
                    "velocity": 0.6299212598425197
                },
                {
                    "duration": 0.09057979166666996,
                    "durationTicks": 50,
                    "midi": 38,
                    "name": "D2",
                    "ticks": 10498,
                    "time": 19.018133058333333,
                    "velocity": 0.5511811023622047
                },
                {
                    "duration": 0.09057979166666641,
                    "durationTicks": 50,
                    "midi": 38,
                    "name": "D2",
                    "ticks": 10560,
                    "time": 19.130452000000002,
                    "velocity": 0.6299212598425197
                },
                {
                    "duration": 0.09057979166666641,
                    "durationTicks": 50,
                    "midi": 38,
                    "name": "D2",
                    "ticks": 10738,
                    "time": 19.452916058333336,
                    "velocity": 0.23622047244094488
                },
                {
                    "duration": 0.09057979166666641,
                    "durationTicks": 50,
                    "midi": 38,
                    "name": "D2",
                    "ticks": 10800,
                    "time": 19.565235,
                    "velocity": 0.7874015748031497
                },
                {
                    "duration": 0.09057979166666641,
                    "durationTicks": 50,
                    "midi": 42,
                    "name": "F#2",
                    "ticks": 10800,
                    "time": 19.565235,
                    "velocity": 0.5511811023622047
                },
                {
                    "duration": 0.09057979166666641,
                    "durationTicks": 50,
                    "midi": 38,
                    "name": "D2",
                    "ticks": 10978,
                    "time": 19.887699058333336,
                    "velocity": 0.7086614173228346
                },
                {
                    "duration": 0.09057979166666996,
                    "durationTicks": 50,
                    "midi": 38,
                    "name": "D2",
                    "ticks": 11040,
                    "time": 20.000018,
                    "velocity": 0.6299212598425197
                },
                {
                    "duration": 0.09057979166666641,
                    "durationTicks": 50,
                    "midi": 38,
                    "name": "D2",
                    "ticks": 11218,
                    "time": 20.322482058333335,
                    "velocity": 0.15748031496062992
                },
                {
                    "duration": 0.09057979166666996,
                    "durationTicks": 50,
                    "midi": 38,
                    "name": "D2",
                    "ticks": 11280,
                    "time": 20.434801,
                    "velocity": 0.7874015748031497
                },
                {
                    "duration": 0.09057979166666996,
                    "durationTicks": 50,
                    "midi": 42,
                    "name": "F#2",
                    "ticks": 11280,
                    "time": 20.434801,
                    "velocity": 0.6299212598425197
                },
                {
                    "duration": 0.09057979166666641,
                    "durationTicks": 50,
                    "midi": 38,
                    "name": "D2",
                    "ticks": 11458,
                    "time": 20.757265058333335,
                    "velocity": 0.5511811023622047
                },
                {
                    "duration": 0.09057979166666641,
                    "durationTicks": 50,
                    "midi": 38,
                    "name": "D2",
                    "ticks": 11520,
                    "time": 20.869584000000003,
                    "velocity": 0.6299212598425197
                },
                {
                    "duration": 0.09057979166666286,
                    "durationTicks": 50,
                    "midi": 38,
                    "name": "D2",
                    "ticks": 11692,
                    "time": 21.181178483333337,
                    "velocity": 0.15748031496062992
                },
                {
                    "duration": 0.09057979166666641,
                    "durationTicks": 50,
                    "midi": 38,
                    "name": "D2",
                    "ticks": 11760,
                    "time": 21.304367000000003,
                    "velocity": 0.7874015748031497
                },
                {
                    "duration": 0.09057979166666641,
                    "durationTicks": 50,
                    "midi": 42,
                    "name": "F#2",
                    "ticks": 11760,
                    "time": 21.304367000000003,
                    "velocity": 0.5511811023622047
                },
                {
                    "duration": 0.09057979166666286,
                    "durationTicks": 50,
                    "midi": 38,
                    "name": "D2",
                    "ticks": 11932,
                    "time": 21.615961483333336,
                    "velocity": 0.7086614173228346
                },
                {
                    "duration": 0.09057979166666641,
                    "durationTicks": 50,
                    "midi": 38,
                    "name": "D2",
                    "ticks": 12000,
                    "time": 21.739150000000002,
                    "velocity": 0.6299212598425197
                },
                {
                    "duration": 0.09057979166666286,
                    "durationTicks": 50,
                    "midi": 38,
                    "name": "D2",
                    "ticks": 12172,
                    "time": 22.050744483333336,
                    "velocity": 0.15748031496062992
                },
                {
                    "duration": 0.09057979166666641,
                    "durationTicks": 50,
                    "midi": 38,
                    "name": "D2",
                    "ticks": 12240,
                    "time": 22.173933,
                    "velocity": 0.7874015748031497
                },
                {
                    "duration": 0.09057979166666641,
                    "durationTicks": 50,
                    "midi": 42,
                    "name": "F#2",
                    "ticks": 12240,
                    "time": 22.173933,
                    "velocity": 0.6299212598425197
                },
                {
                    "duration": 0.09057979166666641,
                    "durationTicks": 50,
                    "midi": 37,
                    "name": "C#2",
                    "ticks": 12240,
                    "time": 22.173933,
                    "velocity": 0.47244094488188976
                },
                {
                    "duration": 0.09057979166666641,
                    "durationTicks": 50,
                    "midi": 38,
                    "name": "D2",
                    "ticks": 12412,
                    "time": 22.485527483333335,
                    "velocity": 0.5511811023622047
                },
                {
                    "duration": 0.09057979166666641,
                    "durationTicks": 50,
                    "midi": 38,
                    "name": "D2",
                    "ticks": 12480,
                    "time": 22.608716,
                    "velocity": 0.6299212598425197
                },
                {
                    "duration": 0.09057979166666641,
                    "durationTicks": 50,
                    "midi": 38,
                    "name": "D2",
                    "ticks": 12658,
                    "time": 22.931180058333336,
                    "velocity": 0.23622047244094488
                },
                {
                    "duration": 0.09057979166666996,
                    "durationTicks": 50,
                    "midi": 38,
                    "name": "D2",
                    "ticks": 12720,
                    "time": 23.043499,
                    "velocity": 0.7874015748031497
                },
                {
                    "duration": 0.09057979166666996,
                    "durationTicks": 50,
                    "midi": 42,
                    "name": "F#2",
                    "ticks": 12720,
                    "time": 23.043499,
                    "velocity": 0.5511811023622047
                },
                {
                    "duration": 0.09057979166666641,
                    "durationTicks": 50,
                    "midi": 38,
                    "name": "D2",
                    "ticks": 12898,
                    "time": 23.365963058333335,
                    "velocity": 0.7086614173228346
                },
                {
                    "duration": 0.09057979166666996,
                    "durationTicks": 50,
                    "midi": 38,
                    "name": "D2",
                    "ticks": 12960,
                    "time": 23.478282,
                    "velocity": 0.6299212598425197
                },
                {
                    "duration": 0.09057979166666641,
                    "durationTicks": 50,
                    "midi": 38,
                    "name": "D2",
                    "ticks": 13138,
                    "time": 23.800746058333335,
                    "velocity": 0.15748031496062992
                },
                {
                    "duration": 0.09057979166666641,
                    "durationTicks": 50,
                    "midi": 38,
                    "name": "D2",
                    "ticks": 13200,
                    "time": 23.913065000000003,
                    "velocity": 0.7874015748031497
                },
                {
                    "duration": 0.09057979166666641,
                    "durationTicks": 50,
                    "midi": 42,
                    "name": "F#2",
                    "ticks": 13200,
                    "time": 23.913065000000003,
                    "velocity": 0.6299212598425197
                },
                {
                    "duration": 0.09057979166666996,
                    "durationTicks": 50,
                    "midi": 38,
                    "name": "D2",
                    "ticks": 13378,
                    "time": 24.235529058333334,
                    "velocity": 0.5511811023622047
                },
                {
                    "duration": 0.09057979166666641,
                    "durationTicks": 50,
                    "midi": 38,
                    "name": "D2",
                    "ticks": 13440,
                    "time": 24.347848000000003,
                    "velocity": 0.6299212598425197
                },
                {
                    "duration": 0.09057979166666286,
                    "durationTicks": 50,
                    "midi": 38,
                    "name": "D2",
                    "ticks": 13612,
                    "time": 24.659442483333336,
                    "velocity": 0.23622047244094488
                },
                {
                    "duration": 0.09057979166666641,
                    "durationTicks": 50,
                    "midi": 38,
                    "name": "D2",
                    "ticks": 13680,
                    "time": 24.782631000000002,
                    "velocity": 0.7874015748031497
                },
                {
                    "duration": 0.09057979166666641,
                    "durationTicks": 50,
                    "midi": 42,
                    "name": "F#2",
                    "ticks": 13680,
                    "time": 24.782631000000002,
                    "velocity": 0.5511811023622047
                },
                {
                    "duration": 0.09057979166666641,
                    "durationTicks": 50,
                    "midi": 38,
                    "name": "D2",
                    "ticks": 13852,
                    "time": 25.094225483333336,
                    "velocity": 0.7086614173228346
                },
                {
                    "duration": 0.09057979166666641,
                    "durationTicks": 50,
                    "midi": 38,
                    "name": "D2",
                    "ticks": 13920,
                    "time": 25.217414,
                    "velocity": 0.6299212598425197
                },
                {
                    "duration": 0.09057979166666641,
                    "durationTicks": 50,
                    "midi": 38,
                    "name": "D2",
                    "ticks": 14092,
                    "time": 25.529008483333335,
                    "velocity": 0.15748031496062992
                },
                {
                    "duration": 0.09057979166666996,
                    "durationTicks": 50,
                    "midi": 38,
                    "name": "D2",
                    "ticks": 14160,
                    "time": 25.652197,
                    "velocity": 0.7874015748031497
                },
                {
                    "duration": 0.09057979166666996,
                    "durationTicks": 50,
                    "midi": 42,
                    "name": "F#2",
                    "ticks": 14160,
                    "time": 25.652197,
                    "velocity": 0.6299212598425197
                },
                {
                    "duration": 0.09057979166666996,
                    "durationTicks": 50,
                    "midi": 37,
                    "name": "C#2",
                    "ticks": 14160,
                    "time": 25.652197,
                    "velocity": 0.47244094488188976
                },
                {
                    "duration": 0.09057979166666641,
                    "durationTicks": 50,
                    "midi": 38,
                    "name": "D2",
                    "ticks": 14332,
                    "time": 25.963791483333335,
                    "velocity": 0.5511811023622047
                },
                {
                    "duration": 0.09057979166666996,
                    "durationTicks": 50,
                    "midi": 38,
                    "name": "D2",
                    "ticks": 14400,
                    "time": 26.08698,
                    "velocity": 0.6299212598425197
                },
                {
                    "duration": 0.09057979166666286,
                    "durationTicks": 50,
                    "midi": 38,
                    "name": "D2",
                    "ticks": 14572,
                    "time": 26.398574483333338,
                    "velocity": 0.23622047244094488
                },
                {
                    "duration": 0.09057979166666641,
                    "durationTicks": 50,
                    "midi": 38,
                    "name": "D2",
                    "ticks": 14640,
                    "time": 26.521763000000004,
                    "velocity": 0.7874015748031497
                },
                {
                    "duration": 0.09057979166666641,
                    "durationTicks": 50,
                    "midi": 42,
                    "name": "F#2",
                    "ticks": 14640,
                    "time": 26.521763000000004,
                    "velocity": 0.5511811023622047
                },
                {
                    "duration": 0.09057979166666286,
                    "durationTicks": 50,
                    "midi": 38,
                    "name": "D2",
                    "ticks": 14812,
                    "time": 26.833357483333337,
                    "velocity": 0.7086614173228346
                },
                {
                    "duration": 0.09057979166666641,
                    "durationTicks": 50,
                    "midi": 38,
                    "name": "D2",
                    "ticks": 14880,
                    "time": 26.956546000000003,
                    "velocity": 0.6299212598425197
                },
                {
                    "duration": 0.09057979166666286,
                    "durationTicks": 50,
                    "midi": 38,
                    "name": "D2",
                    "ticks": 15052,
                    "time": 27.268140483333337,
                    "velocity": 0.15748031496062992
                },
                {
                    "duration": 0.09057979166666641,
                    "durationTicks": 50,
                    "midi": 38,
                    "name": "D2",
                    "ticks": 15120,
                    "time": 27.391329000000002,
                    "velocity": 0.7874015748031497
                },
                {
                    "duration": 0.09057979166666641,
                    "durationTicks": 50,
                    "midi": 42,
                    "name": "F#2",
                    "ticks": 15120,
                    "time": 27.391329000000002,
                    "velocity": 0.6299212598425197
                },
                {
                    "duration": 0.09057979166666641,
                    "durationTicks": 50,
                    "midi": 37,
                    "name": "C#2",
                    "ticks": 15120,
                    "time": 27.391329000000002,
                    "velocity": 0.47244094488188976
                },
                {
                    "duration": 0.09057979166666286,
                    "durationTicks": 50,
                    "midi": 38,
                    "name": "D2",
                    "ticks": 15292,
                    "time": 27.702923483333336,
                    "velocity": 0.5511811023622047
                },
                {
                    "duration": 0.09057979166666286,
                    "durationTicks": 50,
                    "midi": 38,
                    "name": "D2",
                    "ticks": 15360,
                    "time": 27.826112000000002,
                    "velocity": 0.6299212598425197
                },
                {
                    "duration": 0.09057979166666996,
                    "durationTicks": 50,
                    "midi": 38,
                    "name": "D2",
                    "ticks": 15538,
                    "time": 28.148576058333333,
                    "velocity": 0.23622047244094488
                },
                {
                    "duration": 0.09057979166666641,
                    "durationTicks": 50,
                    "midi": 38,
                    "name": "D2",
                    "ticks": 15600,
                    "time": 28.260895,
                    "velocity": 0.7874015748031497
                },
                {
                    "duration": 0.09057979166666641,
                    "durationTicks": 50,
                    "midi": 42,
                    "name": "F#2",
                    "ticks": 15600,
                    "time": 28.260895,
                    "velocity": 0.5511811023622047
                },
                {
                    "duration": 0.09057979166666996,
                    "durationTicks": 50,
                    "midi": 38,
                    "name": "D2",
                    "ticks": 15778,
                    "time": 28.583359058333333,
                    "velocity": 0.7086614173228346
                },
                {
                    "duration": 0.09057979166666641,
                    "durationTicks": 50,
                    "midi": 38,
                    "name": "D2",
                    "ticks": 15840,
                    "time": 28.695678,
                    "velocity": 0.6299212598425197
                },
                {
                    "duration": 0.09057979166666996,
                    "durationTicks": 50,
                    "midi": 38,
                    "name": "D2",
                    "ticks": 16018,
                    "time": 29.018142058333332,
                    "velocity": 0.15748031496062992
                },
                {
                    "duration": 0.09057979166666641,
                    "durationTicks": 50,
                    "midi": 38,
                    "name": "D2",
                    "ticks": 16080,
                    "time": 29.130461,
                    "velocity": 0.7874015748031497
                },
                {
                    "duration": 0.09057979166666641,
                    "durationTicks": 50,
                    "midi": 42,
                    "name": "F#2",
                    "ticks": 16080,
                    "time": 29.130461,
                    "velocity": 0.6299212598425197
                },
                {
                    "duration": 0.09057979166667351,
                    "durationTicks": 50,
                    "midi": 38,
                    "name": "D2",
                    "ticks": 16258,
                    "time": 29.45292505833333,
                    "velocity": 0.5511811023622047
                },
                {
                    "duration": 0.09057979166666286,
                    "durationTicks": 50,
                    "midi": 38,
                    "name": "D2",
                    "ticks": 16320,
                    "time": 29.565244000000003,
                    "velocity": 0.6299212598425197
                },
                {
                    "duration": 0.09057979166666286,
                    "durationTicks": 50,
                    "midi": 38,
                    "name": "D2",
                    "ticks": 16492,
                    "time": 29.876838483333337,
                    "velocity": 0.15748031496062992
                },
                {
                    "duration": 0.09057979166666286,
                    "durationTicks": 50,
                    "midi": 38,
                    "name": "D2",
                    "ticks": 16560,
                    "time": 30.000027000000003,
                    "velocity": 0.7874015748031497
                },
                {
                    "duration": 0.09057979166666286,
                    "durationTicks": 50,
                    "midi": 42,
                    "name": "F#2",
                    "ticks": 16560,
                    "time": 30.000027000000003,
                    "velocity": 0.5511811023622047
                },
                {
                    "duration": 0.09057979166666286,
                    "durationTicks": 50,
                    "midi": 38,
                    "name": "D2",
                    "ticks": 16732,
                    "time": 30.311621483333337,
                    "velocity": 0.7086614173228346
                },
                {
                    "duration": 0.09057979166666286,
                    "durationTicks": 50,
                    "midi": 38,
                    "name": "D2",
                    "ticks": 16800,
                    "time": 30.434810000000002,
                    "velocity": 0.6299212598425197
                },
                {
                    "duration": 0.09057979166666641,
                    "durationTicks": 50,
                    "midi": 38,
                    "name": "D2",
                    "ticks": 16972,
                    "time": 30.746404483333336,
                    "velocity": 0.15748031496062992
                },
                {
                    "duration": 0.09057979166666641,
                    "durationTicks": 50,
                    "midi": 48,
                    "name": "C3",
                    "ticks": 16972,
                    "time": 30.746404483333336,
                    "velocity": 0.31496062992125984
                },
                {
                    "duration": 0.09057979166666641,
                    "durationTicks": 50,
                    "midi": 38,
                    "name": "D2",
                    "ticks": 17040,
                    "time": 30.869593000000002,
                    "velocity": 0.7874015748031497
                },
                {
                    "duration": 0.09057979166666641,
                    "durationTicks": 50,
                    "midi": 42,
                    "name": "F#2",
                    "ticks": 17040,
                    "time": 30.869593000000002,
                    "velocity": 0.6299212598425197
                },
                {
                    "duration": 0.09057979166666641,
                    "durationTicks": 50,
                    "midi": 37,
                    "name": "C#2",
                    "ticks": 17040,
                    "time": 30.869593000000002,
                    "velocity": 0.47244094488188976
                },
                {
                    "duration": 0.09057979166666641,
                    "durationTicks": 50,
                    "midi": 48,
                    "name": "C3",
                    "ticks": 17040,
                    "time": 30.869593000000002,
                    "velocity": 0.3937007874015748
                },
                {
                    "duration": 0.09057979166666641,
                    "durationTicks": 50,
                    "midi": 38,
                    "name": "D2",
                    "ticks": 17212,
                    "time": 31.181187483333336,
                    "velocity": 0.5511811023622047
                },
                {
                    "duration": 0.09057979166666641,
                    "durationTicks": 50,
                    "midi": 38,
                    "name": "D2",
                    "ticks": 17280,
                    "time": 31.304376,
                    "velocity": 0.6299212598425197
                },
                {
                    "duration": 0.09057979166666641,
                    "durationTicks": 50,
                    "midi": 49,
                    "name": "C#3",
                    "ticks": 17280,
                    "time": 31.304376,
                    "velocity": 0.2755905511811024
                },
                {
                    "duration": 0.09057979166666286,
                    "durationTicks": 50,
                    "midi": 38,
                    "name": "D2",
                    "ticks": 17456,
                    "time": 31.62321686666667,
                    "velocity": 0.15748031496062992
                },
                {
                    "duration": 0.09057979166666641,
                    "durationTicks": 50,
                    "midi": 38,
                    "name": "D2",
                    "ticks": 17520,
                    "time": 31.739159,
                    "velocity": 0.7874015748031497
                },
                {
                    "duration": 0.09057979166666641,
                    "durationTicks": 50,
                    "midi": 42,
                    "name": "F#2",
                    "ticks": 17520,
                    "time": 31.739159,
                    "velocity": 0.5511811023622047
                },
                {
                    "duration": 0.09057979166666286,
                    "durationTicks": 50,
                    "midi": 38,
                    "name": "D2",
                    "ticks": 17696,
                    "time": 32.05799986666667,
                    "velocity": 0.7086614173228346
                },
                {
                    "duration": 0.09057979166666286,
                    "durationTicks": 50,
                    "midi": 38,
                    "name": "D2",
                    "ticks": 17760,
                    "time": 32.173942000000004,
                    "velocity": 0.6299212598425197
                },
                {
                    "duration": 0.09057979166666286,
                    "durationTicks": 50,
                    "midi": 38,
                    "name": "D2",
                    "ticks": 17936,
                    "time": 32.49278286666667,
                    "velocity": 0.15748031496062992
                },
                {
                    "duration": 0.09057979166666996,
                    "durationTicks": 50,
                    "midi": 38,
                    "name": "D2",
                    "ticks": 18000,
                    "time": 32.608725,
                    "velocity": 0.7874015748031497
                },
                {
                    "duration": 0.09057979166666996,
                    "durationTicks": 50,
                    "midi": 42,
                    "name": "F#2",
                    "ticks": 18000,
                    "time": 32.608725,
                    "velocity": 0.6299212598425197
                },
                {
                    "duration": 0.09057979166666996,
                    "durationTicks": 50,
                    "midi": 37,
                    "name": "C#2",
                    "ticks": 18000,
                    "time": 32.608725,
                    "velocity": 0.5511811023622047
                },
                {
                    "duration": 0.09057979166666286,
                    "durationTicks": 50,
                    "midi": 38,
                    "name": "D2",
                    "ticks": 18176,
                    "time": 32.92756586666667,
                    "velocity": 0.5511811023622047
                },
                {
                    "duration": 0.09057979166666286,
                    "durationTicks": 50,
                    "midi": 38,
                    "name": "D2",
                    "ticks": 18240,
                    "time": 33.043508,
                    "velocity": 0.6299212598425197
                },
                {
                    "duration": 0.09057979166666996,
                    "durationTicks": 50,
                    "midi": 38,
                    "name": "D2",
                    "ticks": 18418,
                    "time": 33.365972058333334,
                    "velocity": 0.15748031496062992
                },
                {
                    "duration": 0.09057979166666286,
                    "durationTicks": 50,
                    "midi": 38,
                    "name": "D2",
                    "ticks": 18480,
                    "time": 33.478291000000006,
                    "velocity": 0.7874015748031497
                },
                {
                    "duration": 0.09057979166666286,
                    "durationTicks": 50,
                    "midi": 42,
                    "name": "F#2",
                    "ticks": 18480,
                    "time": 33.478291000000006,
                    "velocity": 0.5511811023622047
                },
                {
                    "duration": 0.09057979166667707,
                    "durationTicks": 50,
                    "midi": 38,
                    "name": "D2",
                    "ticks": 18658,
                    "time": 33.80075505833333,
                    "velocity": 0.7086614173228346
                },
                {
                    "duration": 0.09057979166666286,
                    "durationTicks": 50,
                    "midi": 38,
                    "name": "D2",
                    "ticks": 18720,
                    "time": 33.913074,
                    "velocity": 0.6299212598425197
                },
                {
                    "duration": 0.09057979166666996,
                    "durationTicks": 50,
                    "midi": 38,
                    "name": "D2",
                    "ticks": 18898,
                    "time": 34.23553805833333,
                    "velocity": 0.15748031496062992
                },
                {
                    "duration": 0.09057979166666286,
                    "durationTicks": 50,
                    "midi": 38,
                    "name": "D2",
                    "ticks": 18960,
                    "time": 34.347857000000005,
                    "velocity": 0.7874015748031497
                },
                {
                    "duration": 0.09057979166666286,
                    "durationTicks": 50,
                    "midi": 42,
                    "name": "F#2",
                    "ticks": 18960,
                    "time": 34.347857000000005,
                    "velocity": 0.6299212598425197
                },
                {
                    "duration": 0.09057979166666286,
                    "durationTicks": 50,
                    "midi": 37,
                    "name": "C#2",
                    "ticks": 18960,
                    "time": 34.347857000000005,
                    "velocity": 0.5511811023622047
                },
                {
                    "duration": 0.09057979166666996,
                    "durationTicks": 50,
                    "midi": 38,
                    "name": "D2",
                    "ticks": 19138,
                    "time": 34.670321058333336,
                    "velocity": 0.5511811023622047
                },
                {
                    "duration": 0.09057979166666286,
                    "durationTicks": 50,
                    "midi": 38,
                    "name": "D2",
                    "ticks": 19200,
                    "time": 34.78264,
                    "velocity": 0.6299212598425197
                },
                {
                    "duration": 0.09057979166666996,
                    "durationTicks": 50,
                    "midi": 38,
                    "name": "D2",
                    "ticks": 19378,
                    "time": 35.10510405833333,
                    "velocity": 0.15748031496062992
                },
                {
                    "duration": 0.09057979166666286,
                    "durationTicks": 50,
                    "midi": 38,
                    "name": "D2",
                    "ticks": 19440,
                    "time": 35.217423000000004,
                    "velocity": 0.7874015748031497
                },
                {
                    "duration": 0.09057979166666286,
                    "durationTicks": 50,
                    "midi": 42,
                    "name": "F#2",
                    "ticks": 19440,
                    "time": 35.217423000000004,
                    "velocity": 0.5511811023622047
                },
                {
                    "duration": 0.09057979166666996,
                    "durationTicks": 50,
                    "midi": 38,
                    "name": "D2",
                    "ticks": 19618,
                    "time": 35.539887058333335,
                    "velocity": 0.7086614173228346
                },
                {
                    "duration": 0.09057979166666996,
                    "durationTicks": 50,
                    "midi": 38,
                    "name": "D2",
                    "ticks": 19680,
                    "time": 35.652206,
                    "velocity": 0.6299212598425197
                },
                {
                    "duration": 0.09057979166666996,
                    "durationTicks": 50,
                    "midi": 38,
                    "name": "D2",
                    "ticks": 19858,
                    "time": 35.97467005833333,
                    "velocity": 0.15748031496062992
                },
                {
                    "duration": 0.09057979166666286,
                    "durationTicks": 50,
                    "midi": 38,
                    "name": "D2",
                    "ticks": 19920,
                    "time": 36.086989,
                    "velocity": 0.7874015748031497
                },
                {
                    "duration": 0.09057979166666286,
                    "durationTicks": 50,
                    "midi": 42,
                    "name": "F#2",
                    "ticks": 19920,
                    "time": 36.086989,
                    "velocity": 0.6299212598425197
                },
                {
                    "duration": 0.09057979166666286,
                    "durationTicks": 50,
                    "midi": 37,
                    "name": "C#2",
                    "ticks": 19920,
                    "time": 36.086989,
                    "velocity": 0.5511811023622047
                },
                {
                    "duration": 0.09057979166666996,
                    "durationTicks": 50,
                    "midi": 38,
                    "name": "D2",
                    "ticks": 20098,
                    "time": 36.409453058333334,
                    "velocity": 0.5511811023622047
                },
                {
                    "duration": 0.09057979166666286,
                    "durationTicks": 50,
                    "midi": 38,
                    "name": "D2",
                    "ticks": 20160,
                    "time": 36.521772000000006,
                    "velocity": 0.6299212598425197
                },
                {
                    "duration": 0.09057979166666286,
                    "durationTicks": 50,
                    "midi": 38,
                    "name": "D2",
                    "ticks": 20332,
                    "time": 36.833366483333336,
                    "velocity": 0.15748031496062992
                },
                {
                    "duration": 0.09057979166666286,
                    "durationTicks": 50,
                    "midi": 38,
                    "name": "D2",
                    "ticks": 20400,
                    "time": 36.956555,
                    "velocity": 0.7874015748031497
                },
                {
                    "duration": 0.09057979166666286,
                    "durationTicks": 50,
                    "midi": 42,
                    "name": "F#2",
                    "ticks": 20400,
                    "time": 36.956555,
                    "velocity": 0.5511811023622047
                },
                {
                    "duration": 0.09057979166666286,
                    "durationTicks": 50,
                    "midi": 38,
                    "name": "D2",
                    "ticks": 20572,
                    "time": 37.26814948333334,
                    "velocity": 0.7086614173228346
                },
                {
                    "duration": 0.09057979166666286,
                    "durationTicks": 50,
                    "midi": 38,
                    "name": "D2",
                    "ticks": 20640,
                    "time": 37.391338000000005,
                    "velocity": 0.6299212598425197
                },
                {
                    "duration": 0.09057979166666996,
                    "durationTicks": 50,
                    "midi": 38,
                    "name": "D2",
                    "ticks": 20812,
                    "time": 37.702932483333335,
                    "velocity": 0.15748031496062992
                },
                {
                    "duration": 0.09057979166666996,
                    "durationTicks": 50,
                    "midi": 38,
                    "name": "D2",
                    "ticks": 20880,
                    "time": 37.826121,
                    "velocity": 0.7874015748031497
                },
                {
                    "duration": 0.09057979166666996,
                    "durationTicks": 50,
                    "midi": 42,
                    "name": "F#2",
                    "ticks": 20880,
                    "time": 37.826121,
                    "velocity": 0.6299212598425197
                },
                {
                    "duration": 0.09057979166666996,
                    "durationTicks": 50,
                    "midi": 37,
                    "name": "C#2",
                    "ticks": 20880,
                    "time": 37.826121,
                    "velocity": 0.5511811023622047
                },
                {
                    "duration": 0.09057979166666286,
                    "durationTicks": 50,
                    "midi": 38,
                    "name": "D2",
                    "ticks": 21052,
                    "time": 38.13771548333334,
                    "velocity": 0.5511811023622047
                },
                {
                    "duration": 0.09057979166666286,
                    "durationTicks": 50,
                    "midi": 38,
                    "name": "D2",
                    "ticks": 21120,
                    "time": 38.260904000000004,
                    "velocity": 0.6299212598425197
                },
                {
                    "duration": 0.09057979166666996,
                    "durationTicks": 50,
                    "midi": 38,
                    "name": "D2",
                    "ticks": 21298,
                    "time": 38.583368058333335,
                    "velocity": 0.15748031496062992
                },
                {
                    "duration": 0.09057979166666996,
                    "durationTicks": 50,
                    "midi": 38,
                    "name": "D2",
                    "ticks": 21360,
                    "time": 38.695687,
                    "velocity": 0.7874015748031497
                },
                {
                    "duration": 0.09057979166666996,
                    "durationTicks": 50,
                    "midi": 42,
                    "name": "F#2",
                    "ticks": 21360,
                    "time": 38.695687,
                    "velocity": 0.5511811023622047
                },
                {
                    "duration": 0.09057979166666996,
                    "durationTicks": 50,
                    "midi": 38,
                    "name": "D2",
                    "ticks": 21538,
                    "time": 39.01815105833333,
                    "velocity": 0.7086614173228346
                },
                {
                    "duration": 0.09057979166666286,
                    "durationTicks": 50,
                    "midi": 38,
                    "name": "D2",
                    "ticks": 21600,
                    "time": 39.13047,
                    "velocity": 0.6299212598425197
                },
                {
                    "duration": 0.09057979166666996,
                    "durationTicks": 50,
                    "midi": 38,
                    "name": "D2",
                    "ticks": 21778,
                    "time": 39.452934058333334,
                    "velocity": 0.15748031496062992
                },
                {
                    "duration": 0.09057979166666286,
                    "durationTicks": 50,
                    "midi": 38,
                    "name": "D2",
                    "ticks": 21840,
                    "time": 39.565253000000006,
                    "velocity": 0.7874015748031497
                },
                {
                    "duration": 0.09057979166666286,
                    "durationTicks": 50,
                    "midi": 42,
                    "name": "F#2",
                    "ticks": 21840,
                    "time": 39.565253000000006,
                    "velocity": 0.6299212598425197
                },
                {
                    "duration": 0.09057979166666286,
                    "durationTicks": 50,
                    "midi": 37,
                    "name": "C#2",
                    "ticks": 21840,
                    "time": 39.565253000000006,
                    "velocity": 0.5511811023622047
                },
                {
                    "duration": 0.09057979166666996,
                    "durationTicks": 50,
                    "midi": 38,
                    "name": "D2",
                    "ticks": 22018,
                    "time": 39.88771705833334,
                    "velocity": 0.5511811023622047
                },
                {
                    "duration": 0.09057979166666286,
                    "durationTicks": 50,
                    "midi": 38,
                    "name": "D2",
                    "ticks": 22080,
                    "time": 40.000036,
                    "velocity": 0.6299212598425197
                },
                {
                    "duration": 0.09057979166666996,
                    "durationTicks": 50,
                    "midi": 38,
                    "name": "D2",
                    "ticks": 22258,
                    "time": 40.32250005833333,
                    "velocity": 0.15748031496062992
                },
                {
                    "duration": 0.09057979166666286,
                    "durationTicks": 50,
                    "midi": 38,
                    "name": "D2",
                    "ticks": 22320,
                    "time": 40.434819000000005,
                    "velocity": 0.7874015748031497
                },
                {
                    "duration": 0.09057979166666286,
                    "durationTicks": 50,
                    "midi": 42,
                    "name": "F#2",
                    "ticks": 22320,
                    "time": 40.434819000000005,
                    "velocity": 0.5511811023622047
                },
                {
                    "duration": 0.09057979166666996,
                    "durationTicks": 50,
                    "midi": 38,
                    "name": "D2",
                    "ticks": 22498,
                    "time": 40.757283058333336,
                    "velocity": 0.7086614173228346
                },
                {
                    "duration": 0.09057979166666996,
                    "durationTicks": 50,
                    "midi": 38,
                    "name": "D2",
                    "ticks": 22560,
                    "time": 40.869602,
                    "velocity": 0.6299212598425197
                },
                {
                    "duration": 0.09057979166666996,
                    "durationTicks": 50,
                    "midi": 38,
                    "name": "D2",
                    "ticks": 22738,
                    "time": 41.19206605833333,
                    "velocity": 0.15748031496062992
                },
                {
                    "duration": 0.09057979166666286,
                    "durationTicks": 50,
                    "midi": 38,
                    "name": "D2",
                    "ticks": 22800,
                    "time": 41.304385,
                    "velocity": 0.7874015748031497
                },
                {
                    "duration": 0.09057979166666286,
                    "durationTicks": 50,
                    "midi": 42,
                    "name": "F#2",
                    "ticks": 22800,
                    "time": 41.304385,
                    "velocity": 0.6299212598425197
                },
                {
                    "duration": 0.09057979166666286,
                    "durationTicks": 50,
                    "midi": 37,
                    "name": "C#2",
                    "ticks": 22800,
                    "time": 41.304385,
                    "velocity": 0.5511811023622047
                },
                {
                    "duration": 0.09057979166666996,
                    "durationTicks": 50,
                    "midi": 38,
                    "name": "D2",
                    "ticks": 22978,
                    "time": 41.626849058333335,
                    "velocity": 0.5511811023622047
                },
                {
                    "duration": 0.09057979166666286,
                    "durationTicks": 50,
                    "midi": 38,
                    "name": "D2",
                    "ticks": 23040,
                    "time": 41.73916800000001,
                    "velocity": 0.6299212598425197
                },
                {
                    "duration": 0.09057979166666286,
                    "durationTicks": 50,
                    "midi": 38,
                    "name": "D2",
                    "ticks": 23212,
                    "time": 42.05076248333334,
                    "velocity": 0.15748031496062992
                },
                {
                    "duration": 0.09057979166666286,
                    "durationTicks": 50,
                    "midi": 38,
                    "name": "D2",
                    "ticks": 23280,
                    "time": 42.173951,
                    "velocity": 0.7874015748031497
                },
                {
                    "duration": 0.09057979166666286,
                    "durationTicks": 50,
                    "midi": 42,
                    "name": "F#2",
                    "ticks": 23280,
                    "time": 42.173951,
                    "velocity": 0.5511811023622047
                },
                {
                    "duration": 0.09057979166666286,
                    "durationTicks": 50,
                    "midi": 38,
                    "name": "D2",
                    "ticks": 23452,
                    "time": 42.48554548333334,
                    "velocity": 0.7086614173228346
                },
                {
                    "duration": 0.09057979166666286,
                    "durationTicks": 50,
                    "midi": 38,
                    "name": "D2",
                    "ticks": 23520,
                    "time": 42.608734000000005,
                    "velocity": 0.6299212598425197
                },
                {
                    "duration": 0.09057979166666286,
                    "durationTicks": 50,
                    "midi": 38,
                    "name": "D2",
                    "ticks": 23692,
                    "time": 42.920328483333336,
                    "velocity": 0.15748031496062992
                },
                {
                    "duration": 0.09057979166666286,
                    "durationTicks": 50,
                    "midi": 38,
                    "name": "D2",
                    "ticks": 23760,
                    "time": 43.043517,
                    "velocity": 0.7874015748031497
                },
                {
                    "duration": 0.09057979166666286,
                    "durationTicks": 50,
                    "midi": 42,
                    "name": "F#2",
                    "ticks": 23760,
                    "time": 43.043517,
                    "velocity": 0.6299212598425197
                },
                {
                    "duration": 0.09057979166666286,
                    "durationTicks": 50,
                    "midi": 37,
                    "name": "C#2",
                    "ticks": 23760,
                    "time": 43.043517,
                    "velocity": 0.5511811023622047
                },
                {
                    "duration": 0.09057979166666286,
                    "durationTicks": 50,
                    "midi": 38,
                    "name": "D2",
                    "ticks": 23932,
                    "time": 43.35511148333334,
                    "velocity": 0.5511811023622047
                },
                {
                    "duration": 0.09057979166666286,
                    "durationTicks": 50,
                    "midi": 38,
                    "name": "D2",
                    "ticks": 24000,
                    "time": 43.478300000000004,
                    "velocity": 0.6299212598425197
                },
                {
                    "duration": 0.09057979166666996,
                    "durationTicks": 50,
                    "midi": 38,
                    "name": "D2",
                    "ticks": 24172,
                    "time": 43.789894483333335,
                    "velocity": 0.15748031496062992
                },
                {
                    "duration": 0.09057979166666996,
                    "durationTicks": 50,
                    "midi": 38,
                    "name": "D2",
                    "ticks": 24240,
                    "time": 43.913083,
                    "velocity": 0.7874015748031497
                },
                {
                    "duration": 0.09057979166666996,
                    "durationTicks": 50,
                    "midi": 42,
                    "name": "F#2",
                    "ticks": 24240,
                    "time": 43.913083,
                    "velocity": 0.5511811023622047
                },
                {
                    "duration": 0.09057979166666286,
                    "durationTicks": 50,
                    "midi": 38,
                    "name": "D2",
                    "ticks": 24412,
                    "time": 44.22467748333334,
                    "velocity": 0.7086614173228346
                },
                {
                    "duration": 0.09057979166666286,
                    "durationTicks": 50,
                    "midi": 38,
                    "name": "D2",
                    "ticks": 24480,
                    "time": 44.347866,
                    "velocity": 0.6299212598425197
                },
                {
                    "duration": 0.09057979166666286,
                    "durationTicks": 50,
                    "midi": 38,
                    "name": "D2",
                    "ticks": 24652,
                    "time": 44.65946048333334,
                    "velocity": 0.15748031496062992
                },
                {
                    "duration": 0.09057979166666286,
                    "durationTicks": 50,
                    "midi": 48,
                    "name": "C3",
                    "ticks": 24652,
                    "time": 44.65946048333334,
                    "velocity": 0.31496062992125984
                },
                {
                    "duration": 0.09057979166666286,
                    "durationTicks": 50,
                    "midi": 38,
                    "name": "D2",
                    "ticks": 24720,
                    "time": 44.782649000000006,
                    "velocity": 0.7874015748031497
                },
                {
                    "duration": 0.09057979166666286,
                    "durationTicks": 50,
                    "midi": 42,
                    "name": "F#2",
                    "ticks": 24720,
                    "time": 44.782649000000006,
                    "velocity": 0.6299212598425197
                },
                {
                    "duration": 0.09057979166666286,
                    "durationTicks": 50,
                    "midi": 37,
                    "name": "C#2",
                    "ticks": 24720,
                    "time": 44.782649000000006,
                    "velocity": 0.6299212598425197
                },
                {
                    "duration": 0.09057979166666286,
                    "durationTicks": 50,
                    "midi": 45,
                    "name": "A2",
                    "ticks": 24720,
                    "time": 44.782649000000006,
                    "velocity": 0.3937007874015748
                },
                {
                    "duration": 0.09057979166666286,
                    "durationTicks": 50,
                    "midi": 38,
                    "name": "D2",
                    "ticks": 24892,
                    "time": 45.09424348333334,
                    "velocity": 0.5511811023622047
                },
                {
                    "duration": 0.09057979166666286,
                    "durationTicks": 50,
                    "midi": 38,
                    "name": "D2",
                    "ticks": 24960,
                    "time": 45.217432,
                    "velocity": 0.6299212598425197
                },
                {
                    "duration": 0.09057979166666286,
                    "durationTicks": 50,
                    "midi": 38,
                    "name": "D2",
                    "ticks": 25132,
                    "time": 45.52902648333334,
                    "velocity": 0.15748031496062992
                },
                {
                    "duration": 0.09057979166666286,
                    "durationTicks": 50,
                    "midi": 38,
                    "name": "D2",
                    "ticks": 25200,
                    "time": 45.652215000000005,
                    "velocity": 0.7874015748031497
                },
                {
                    "duration": 0.09057979166666286,
                    "durationTicks": 50,
                    "midi": 42,
                    "name": "F#2",
                    "ticks": 25200,
                    "time": 45.652215000000005,
                    "velocity": 0.5511811023622047
                },
                {
                    "duration": 0.09057979166666996,
                    "durationTicks": 50,
                    "midi": 38,
                    "name": "D2",
                    "ticks": 25372,
                    "time": 45.963809483333335,
                    "velocity": 0.7086614173228346
                },
                {
                    "duration": 0.09057979166666996,
                    "durationTicks": 50,
                    "midi": 38,
                    "name": "D2",
                    "ticks": 25440,
                    "time": 46.086998,
                    "velocity": 0.6299212598425197
                },
                {
                    "duration": 0.09057979166666286,
                    "durationTicks": 50,
                    "midi": 38,
                    "name": "D2",
                    "ticks": 25612,
                    "time": 46.39859248333334,
                    "velocity": 0.15748031496062992
                },
                {
                    "duration": 0.09057979166666286,
                    "durationTicks": 50,
                    "midi": 38,
                    "name": "D2",
                    "ticks": 25680,
                    "time": 46.521781000000004,
                    "velocity": 0.7874015748031497
                },
                {
                    "duration": 0.09057979166666286,
                    "durationTicks": 50,
                    "midi": 42,
                    "name": "F#2",
                    "ticks": 25680,
                    "time": 46.521781000000004,
                    "velocity": 0.6299212598425197
                },
                {
                    "duration": 0.09057979166666286,
                    "durationTicks": 50,
                    "midi": 37,
                    "name": "C#2",
                    "ticks": 25680,
                    "time": 46.521781000000004,
                    "velocity": 0.5511811023622047
                },
                {
                    "duration": 0.09057979166666996,
                    "durationTicks": 50,
                    "midi": 38,
                    "name": "D2",
                    "ticks": 25852,
                    "time": 46.833375483333334,
                    "velocity": 0.5511811023622047
                },
                {
                    "duration": 0.09057979166666996,
                    "durationTicks": 50,
                    "midi": 38,
                    "name": "D2",
                    "ticks": 25920,
                    "time": 46.956564,
                    "velocity": 0.6299212598425197
                },
                {
                    "duration": 0.09057979166666286,
                    "durationTicks": 50,
                    "midi": 38,
                    "name": "D2",
                    "ticks": 26096,
                    "time": 47.27540486666667,
                    "velocity": 0.4251968503937008
                },
                {
                    "duration": 0.09057979166666286,
                    "durationTicks": 50,
                    "midi": 38,
                    "name": "D2",
                    "ticks": 26160,
                    "time": 47.391347,
                    "velocity": 0.7874015748031497
                },
                {
                    "duration": 0.09057979166666286,
                    "durationTicks": 50,
                    "midi": 42,
                    "name": "F#2",
                    "ticks": 26160,
                    "time": 47.391347,
                    "velocity": 0.5511811023622047
                },
                {
                    "duration": 0.09057979166666286,
                    "durationTicks": 50,
                    "midi": 38,
                    "name": "D2",
                    "ticks": 26336,
                    "time": 47.71018786666667,
                    "velocity": 0.7086614173228346
                },
                {
                    "duration": 0.09057979166666286,
                    "durationTicks": 50,
                    "midi": 38,
                    "name": "D2",
                    "ticks": 26400,
                    "time": 47.826130000000006,
                    "velocity": 0.6299212598425197
                },
                {
                    "duration": 0.09057979166666996,
                    "durationTicks": 50,
                    "midi": 38,
                    "name": "D2",
                    "ticks": 26576,
                    "time": 48.14497086666667,
                    "velocity": 0.15748031496062992
                },
                {
                    "duration": 0.09057979166666286,
                    "durationTicks": 50,
                    "midi": 38,
                    "name": "D2",
                    "ticks": 26640,
                    "time": 48.260913,
                    "velocity": 0.7874015748031497
                },
                {
                    "duration": 0.09057979166666286,
                    "durationTicks": 50,
                    "midi": 42,
                    "name": "F#2",
                    "ticks": 26640,
                    "time": 48.260913,
                    "velocity": 0.6299212598425197
                },
                {
                    "duration": 0.09057979166666286,
                    "durationTicks": 50,
                    "midi": 37,
                    "name": "C#2",
                    "ticks": 26640,
                    "time": 48.260913,
                    "velocity": 0.5511811023622047
                },
                {
                    "duration": 0.09057979166666286,
                    "durationTicks": 50,
                    "midi": 38,
                    "name": "D2",
                    "ticks": 26816,
                    "time": 48.57975386666667,
                    "velocity": 0.5511811023622047
                },
                {
                    "duration": 0.09057979166666286,
                    "durationTicks": 50,
                    "midi": 38,
                    "name": "D2",
                    "ticks": 26880,
                    "time": 48.695696000000005,
                    "velocity": 0.6299212598425197
                },
                {
                    "duration": 0.09057979166666996,
                    "durationTicks": 50,
                    "midi": 38,
                    "name": "D2",
                    "ticks": 27052,
                    "time": 49.007290483333335,
                    "velocity": 0.15748031496062992
                },
                {
                    "duration": 0.09057979166666996,
                    "durationTicks": 50,
                    "midi": 38,
                    "name": "D2",
                    "ticks": 27120,
                    "time": 49.130479,
                    "velocity": 0.7874015748031497
                },
                {
                    "duration": 0.09057979166666996,
                    "durationTicks": 50,
                    "midi": 42,
                    "name": "F#2",
                    "ticks": 27120,
                    "time": 49.130479,
                    "velocity": 0.5511811023622047
                },
                {
                    "duration": 0.09057979166666286,
                    "durationTicks": 50,
                    "midi": 38,
                    "name": "D2",
                    "ticks": 27292,
                    "time": 49.44207348333334,
                    "velocity": 0.7086614173228346
                },
                {
                    "duration": 0.09057979166666286,
                    "durationTicks": 50,
                    "midi": 38,
                    "name": "D2",
                    "ticks": 27360,
                    "time": 49.565262000000004,
                    "velocity": 0.6299212598425197
                },
                {
                    "duration": 0.09057979166666996,
                    "durationTicks": 50,
                    "midi": 38,
                    "name": "D2",
                    "ticks": 27532,
                    "time": 49.876856483333334,
                    "velocity": 0.15748031496062992
                },
                {
                    "duration": 0.09057979166666996,
                    "durationTicks": 50,
                    "midi": 38,
                    "name": "D2",
                    "ticks": 27600,
                    "time": 50.000045,
                    "velocity": 0.7874015748031497
                },
                {
                    "duration": 0.09057979166666996,
                    "durationTicks": 50,
                    "midi": 42,
                    "name": "F#2",
                    "ticks": 27600,
                    "time": 50.000045,
                    "velocity": 0.6299212598425197
                },
                {
                    "duration": 0.09057979166666996,
                    "durationTicks": 50,
                    "midi": 37,
                    "name": "C#2",
                    "ticks": 27600,
                    "time": 50.000045,
                    "velocity": 0.5511811023622047
                },
                {
                    "duration": 0.09057979166666286,
                    "durationTicks": 50,
                    "midi": 38,
                    "name": "D2",
                    "ticks": 27772,
                    "time": 50.31163948333334,
                    "velocity": 0.5511811023622047
                },
                {
                    "duration": 0.09057979166666286,
                    "durationTicks": 50,
                    "midi": 38,
                    "name": "D2",
                    "ticks": 27840,
                    "time": 50.434828,
                    "velocity": 0.6299212598425197
                },
                {
                    "duration": 0.09057979166666286,
                    "durationTicks": 50,
                    "midi": 38,
                    "name": "D2",
                    "ticks": 28012,
                    "time": 50.74642248333334,
                    "velocity": 0.15748031496062992
                },
                {
                    "duration": 0.09057979166666286,
                    "durationTicks": 50,
                    "midi": 38,
                    "name": "D2",
                    "ticks": 28080,
                    "time": 50.869611000000006,
                    "velocity": 0.7874015748031497
                },
                {
                    "duration": 0.09057979166666286,
                    "durationTicks": 50,
                    "midi": 42,
                    "name": "F#2",
                    "ticks": 28080,
                    "time": 50.869611000000006,
                    "velocity": 0.5511811023622047
                },
                {
                    "duration": 0.09057979166666286,
                    "durationTicks": 50,
                    "midi": 38,
                    "name": "D2",
                    "ticks": 28252,
                    "time": 51.181205483333336,
                    "velocity": 0.7086614173228346
                },
                {
                    "duration": 0.09057979166666286,
                    "durationTicks": 50,
                    "midi": 38,
                    "name": "D2",
                    "ticks": 28320,
                    "time": 51.304394,
                    "velocity": 0.6299212598425197
                },
                {
                    "duration": 0.09057979166666286,
                    "durationTicks": 50,
                    "midi": 38,
                    "name": "D2",
                    "ticks": 28492,
                    "time": 51.61598848333334,
                    "velocity": 0.15748031496062992
                },
                {
                    "duration": 0.09057979166666286,
                    "durationTicks": 50,
                    "midi": 38,
                    "name": "D2",
                    "ticks": 28560,
                    "time": 51.739177000000005,
                    "velocity": 0.7874015748031497
                },
                {
                    "duration": 0.09057979166666286,
                    "durationTicks": 50,
                    "midi": 42,
                    "name": "F#2",
                    "ticks": 28560,
                    "time": 51.739177000000005,
                    "velocity": 0.6299212598425197
                },
                {
                    "duration": 0.09057979166666286,
                    "durationTicks": 50,
                    "midi": 37,
                    "name": "C#2",
                    "ticks": 28560,
                    "time": 51.739177000000005,
                    "velocity": 0.5511811023622047
                },
                {
                    "duration": 0.09057979166666996,
                    "durationTicks": 50,
                    "midi": 38,
                    "name": "D2",
                    "ticks": 28732,
                    "time": 52.050771483333335,
                    "velocity": 0.5511811023622047
                },
                {
                    "duration": 0.09057979166666996,
                    "durationTicks": 50,
                    "midi": 38,
                    "name": "D2",
                    "ticks": 28800,
                    "time": 52.17396,
                    "velocity": 0.6299212598425197
                },
                {
                    "duration": 0.09057979166666286,
                    "durationTicks": 50,
                    "midi": 38,
                    "name": "D2",
                    "ticks": 28972,
                    "time": 52.48555448333334,
                    "velocity": 0.15748031496062992
                },
                {
                    "duration": 0.09057979166666286,
                    "durationTicks": 50,
                    "midi": 38,
                    "name": "D2",
                    "ticks": 29040,
                    "time": 52.608743000000004,
                    "velocity": 0.7874015748031497
                },
                {
                    "duration": 0.09057979166666286,
                    "durationTicks": 50,
                    "midi": 42,
                    "name": "F#2",
                    "ticks": 29040,
                    "time": 52.608743000000004,
                    "velocity": 0.5511811023622047
                },
                {
                    "duration": 0.09057979166666286,
                    "durationTicks": 50,
                    "midi": 38,
                    "name": "D2",
                    "ticks": 29212,
                    "time": 52.92033748333334,
                    "velocity": 0.7086614173228346
                },
                {
                    "duration": 0.09057979166666286,
                    "durationTicks": 50,
                    "midi": 38,
                    "name": "D2",
                    "ticks": 29280,
                    "time": 53.04352600000001,
                    "velocity": 0.6299212598425197
                },
                {
                    "duration": 0.09057979166666286,
                    "durationTicks": 50,
                    "midi": 38,
                    "name": "D2",
                    "ticks": 29452,
                    "time": 53.35512048333334,
                    "velocity": 0.15748031496062992
                },
                {
                    "duration": 0.09057979166666286,
                    "durationTicks": 50,
                    "midi": 38,
                    "name": "D2",
                    "ticks": 29520,
                    "time": 53.478309,
                    "velocity": 0.7874015748031497
                },
                {
                    "duration": 0.09057979166666286,
                    "durationTicks": 50,
                    "midi": 42,
                    "name": "F#2",
                    "ticks": 29520,
                    "time": 53.478309,
                    "velocity": 0.6299212598425197
                },
                {
                    "duration": 0.09057979166666286,
                    "durationTicks": 50,
                    "midi": 37,
                    "name": "C#2",
                    "ticks": 29520,
                    "time": 53.478309,
                    "velocity": 0.5511811023622047
                },
                {
                    "duration": 0.09057979166666286,
                    "durationTicks": 50,
                    "midi": 38,
                    "name": "D2",
                    "ticks": 29692,
                    "time": 53.78990348333334,
                    "velocity": 0.5511811023622047
                },
                {
                    "duration": 0.09057979166666286,
                    "durationTicks": 50,
                    "midi": 38,
                    "name": "D2",
                    "ticks": 29760,
                    "time": 53.913092000000006,
                    "velocity": 0.6299212598425197
                },
                {
                    "duration": 0.09057979166666286,
                    "durationTicks": 50,
                    "midi": 38,
                    "name": "D2",
                    "ticks": 29932,
                    "time": 54.224686483333336,
                    "velocity": 0.15748031496062992
                },
                {
                    "duration": 0.09057979166666996,
                    "durationTicks": 50,
                    "midi": 38,
                    "name": "D2",
                    "ticks": 30000,
                    "time": 54.347875,
                    "velocity": 0.7874015748031497
                },
                {
                    "duration": 0.09057979166666996,
                    "durationTicks": 50,
                    "midi": 42,
                    "name": "F#2",
                    "ticks": 30000,
                    "time": 54.347875,
                    "velocity": 0.5511811023622047
                },
                {
                    "duration": 0.09057979166666286,
                    "durationTicks": 50,
                    "midi": 38,
                    "name": "D2",
                    "ticks": 30172,
                    "time": 54.65946948333334,
                    "velocity": 0.7086614173228346
                },
                {
                    "duration": 0.09057979166666286,
                    "durationTicks": 50,
                    "midi": 38,
                    "name": "D2",
                    "ticks": 30240,
                    "time": 54.782658000000005,
                    "velocity": 0.6299212598425197
                },
                {
                    "duration": 0.09057979166666996,
                    "durationTicks": 50,
                    "midi": 38,
                    "name": "D2",
                    "ticks": 30412,
                    "time": 55.094252483333335,
                    "velocity": 0.15748031496062992
                },
                {
                    "duration": 0.09057979166666996,
                    "durationTicks": 50,
                    "midi": 38,
                    "name": "D2",
                    "ticks": 30480,
                    "time": 55.217441,
                    "velocity": 0.7874015748031497
                },
                {
                    "duration": 0.09057979166666996,
                    "durationTicks": 50,
                    "midi": 42,
                    "name": "F#2",
                    "ticks": 30480,
                    "time": 55.217441,
                    "velocity": 0.6299212598425197
                },
                {
                    "duration": 0.09057979166666996,
                    "durationTicks": 50,
                    "midi": 37,
                    "name": "C#2",
                    "ticks": 30480,
                    "time": 55.217441,
                    "velocity": 0.5511811023622047
                },
                {
                    "duration": 0.09057979166666286,
                    "durationTicks": 50,
                    "midi": 38,
                    "name": "D2",
                    "ticks": 30652,
                    "time": 55.52903548333334,
                    "velocity": 0.5511811023622047
                },
                {
                    "duration": 0.09057979166666996,
                    "durationTicks": 50,
                    "midi": 38,
                    "name": "D2",
                    "ticks": 30720,
                    "time": 55.652224000000004,
                    "velocity": 0.6299212598425197
                },
                {
                    "duration": 0.09057979166665575,
                    "durationTicks": 50,
                    "midi": 38,
                    "name": "D2",
                    "ticks": 30898,
                    "time": 55.97468805833334,
                    "velocity": 0.15748031496062992
                },
                {
                    "duration": 0.09057979166666996,
                    "durationTicks": 50,
                    "midi": 38,
                    "name": "D2",
                    "ticks": 30960,
                    "time": 56.08700700000001,
                    "velocity": 0.7874015748031497
                },
                {
                    "duration": 0.09057979166666996,
                    "durationTicks": 50,
                    "midi": 42,
                    "name": "F#2",
                    "ticks": 30960,
                    "time": 56.08700700000001,
                    "velocity": 0.5511811023622047
                },
                {
                    "duration": 0.09057979166666286,
                    "durationTicks": 50,
                    "midi": 38,
                    "name": "D2",
                    "ticks": 31138,
                    "time": 56.40947105833334,
                    "velocity": 0.7086614173228346
                },
                {
                    "duration": 0.09057979166666996,
                    "durationTicks": 50,
                    "midi": 38,
                    "name": "D2",
                    "ticks": 31200,
                    "time": 56.52179,
                    "velocity": 0.6299212598425197
                },
                {
                    "duration": 0.09057979166665575,
                    "durationTicks": 50,
                    "midi": 38,
                    "name": "D2",
                    "ticks": 31378,
                    "time": 56.84425405833334,
                    "velocity": 0.15748031496062992
                },
                {
                    "duration": 0.09057979166666996,
                    "durationTicks": 50,
                    "midi": 38,
                    "name": "D2",
                    "ticks": 31440,
                    "time": 56.956573000000006,
                    "velocity": 0.7874015748031497
                },
                {
                    "duration": 0.09057979166666996,
                    "durationTicks": 50,
                    "midi": 42,
                    "name": "F#2",
                    "ticks": 31440,
                    "time": 56.956573000000006,
                    "velocity": 0.6299212598425197
                },
                {
                    "duration": 0.09057979166666996,
                    "durationTicks": 50,
                    "midi": 37,
                    "name": "C#2",
                    "ticks": 31440,
                    "time": 56.956573000000006,
                    "velocity": 0.5511811023622047
                },
                {
                    "duration": 0.09057979166665575,
                    "durationTicks": 50,
                    "midi": 38,
                    "name": "D2",
                    "ticks": 31618,
                    "time": 57.279037058333344,
                    "velocity": 0.5511811023622047
                },
                {
                    "duration": 0.09057979166666996,
                    "durationTicks": 50,
                    "midi": 38,
                    "name": "D2",
                    "ticks": 31680,
                    "time": 57.391356,
                    "velocity": 0.6299212598425197
                },
                {
                    "duration": 0.09057979166666996,
                    "durationTicks": 50,
                    "midi": 38,
                    "name": "D2",
                    "ticks": 31852,
                    "time": 57.70295048333334,
                    "velocity": 0.15748031496062992
                },
                {
                    "duration": 0.09057979166666996,
                    "durationTicks": 50,
                    "midi": 38,
                    "name": "D2",
                    "ticks": 31920,
                    "time": 57.826139000000005,
                    "velocity": 0.7874015748031497
                },
                {
                    "duration": 0.09057979166666996,
                    "durationTicks": 50,
                    "midi": 42,
                    "name": "F#2",
                    "ticks": 31920,
                    "time": 57.826139000000005,
                    "velocity": 0.5511811023622047
                },
                {
                    "duration": 0.09057979166667707,
                    "durationTicks": 50,
                    "midi": 38,
                    "name": "D2",
                    "ticks": 32092,
                    "time": 58.137733483333335,
                    "velocity": 0.7086614173228346
                },
                {
                    "duration": 0.09057979166667707,
                    "durationTicks": 50,
                    "midi": 38,
                    "name": "D2",
                    "ticks": 32160,
                    "time": 58.260922,
                    "velocity": 0.6299212598425197
                },
                {
                    "duration": 0.09057979166666996,
                    "durationTicks": 50,
                    "midi": 38,
                    "name": "D2",
                    "ticks": 32332,
                    "time": 58.57251648333334,
                    "velocity": 0.15748031496062992
                },
                {
                    "duration": 0.09057979166666996,
                    "durationTicks": 50,
                    "midi": 48,
                    "name": "C3",
                    "ticks": 32332,
                    "time": 58.57251648333334,
                    "velocity": 0.31496062992125984
                },
                {
                    "duration": 0.09057979166666996,
                    "durationTicks": 50,
                    "midi": 38,
                    "name": "D2",
                    "ticks": 32400,
                    "time": 58.695705000000004,
                    "velocity": 0.7874015748031497
                },
                {
                    "duration": 0.09057979166666996,
                    "durationTicks": 50,
                    "midi": 42,
                    "name": "F#2",
                    "ticks": 32400,
                    "time": 58.695705000000004,
                    "velocity": 0.6299212598425197
                },
                {
                    "duration": 0.09057979166666996,
                    "durationTicks": 50,
                    "midi": 37,
                    "name": "C#2",
                    "ticks": 32400,
                    "time": 58.695705000000004,
                    "velocity": 0.6299212598425197
                },
                {
                    "duration": 0.09057979166666996,
                    "durationTicks": 50,
                    "midi": 45,
                    "name": "A2",
                    "ticks": 32400,
                    "time": 58.695705000000004,
                    "velocity": 0.3937007874015748
                },
                {
                    "duration": 0.09057979166666996,
                    "durationTicks": 50,
                    "midi": 38,
                    "name": "D2",
                    "ticks": 32572,
                    "time": 59.00729948333334,
                    "velocity": 0.5511811023622047
                },
                {
                    "duration": 0.09057979166666996,
                    "durationTicks": 50,
                    "midi": 38,
                    "name": "D2",
                    "ticks": 32640,
                    "time": 59.13048800000001,
                    "velocity": 0.6299212598425197
                },
                {
                    "duration": 0.09057979166666996,
                    "durationTicks": 50,
                    "midi": 38,
                    "name": "D2",
                    "ticks": 32816,
                    "time": 59.44932886666667,
                    "velocity": 0.15748031496062992
                },
                {
                    "duration": 0.09057979166666996,
                    "durationTicks": 50,
                    "midi": 38,
                    "name": "D2",
                    "ticks": 32880,
                    "time": 59.565271,
                    "velocity": 0.7874015748031497
                },
                {
                    "duration": 0.09057979166666996,
                    "durationTicks": 50,
                    "midi": 42,
                    "name": "F#2",
                    "ticks": 32880,
                    "time": 59.565271,
                    "velocity": 0.5511811023622047
                },
                {
                    "duration": 0.09057979166666996,
                    "durationTicks": 50,
                    "midi": 38,
                    "name": "D2",
                    "ticks": 33056,
                    "time": 59.884111866666665,
                    "velocity": 0.7086614173228346
                },
                {
                    "duration": 0.09057979166666996,
                    "durationTicks": 50,
                    "midi": 38,
                    "name": "D2",
                    "ticks": 33120,
                    "time": 60.000054000000006,
                    "velocity": 0.6299212598425197
                },
                {
                    "duration": 0.09057979166666996,
                    "durationTicks": 50,
                    "midi": 38,
                    "name": "D2",
                    "ticks": 33296,
                    "time": 60.31889486666667,
                    "velocity": 0.15748031496062992
                },
                {
                    "duration": 0.09057979166666996,
                    "durationTicks": 50,
                    "midi": 38,
                    "name": "D2",
                    "ticks": 33360,
                    "time": 60.434837,
                    "velocity": 0.7874015748031497
                },
                {
                    "duration": 0.09057979166666996,
                    "durationTicks": 50,
                    "midi": 42,
                    "name": "F#2",
                    "ticks": 33360,
                    "time": 60.434837,
                    "velocity": 0.6299212598425197
                },
                {
                    "duration": 0.09057979166666996,
                    "durationTicks": 50,
                    "midi": 37,
                    "name": "C#2",
                    "ticks": 33360,
                    "time": 60.434837,
                    "velocity": 0.5511811023622047
                },
                {
                    "duration": 0.09057979166666996,
                    "durationTicks": 50,
                    "midi": 38,
                    "name": "D2",
                    "ticks": 33536,
                    "time": 60.75367786666666,
                    "velocity": 0.5511811023622047
                },
                {
                    "duration": 0.09057979166666996,
                    "durationTicks": 50,
                    "midi": 38,
                    "name": "D2",
                    "ticks": 33600,
                    "time": 60.869620000000005,
                    "velocity": 0.6299212598425197
                },
                {
                    "duration": 0.09057979166666996,
                    "durationTicks": 50,
                    "midi": 38,
                    "name": "D2",
                    "ticks": 33776,
                    "time": 61.18846086666667,
                    "velocity": 0.15748031496062992
                },
                {
                    "duration": 0.09057979166666996,
                    "durationTicks": 50,
                    "midi": 38,
                    "name": "D2",
                    "ticks": 33840,
                    "time": 61.30440300000001,
                    "velocity": 0.7874015748031497
                },
                {
                    "duration": 0.09057979166666996,
                    "durationTicks": 50,
                    "midi": 42,
                    "name": "F#2",
                    "ticks": 33840,
                    "time": 61.30440300000001,
                    "velocity": 0.5511811023622047
                },
                {
                    "duration": 0.09057979166667707,
                    "durationTicks": 50,
                    "midi": 38,
                    "name": "D2",
                    "ticks": 34016,
                    "time": 61.62324386666666,
                    "velocity": 0.7086614173228346
                },
                {
                    "duration": 0.09057979166666996,
                    "durationTicks": 50,
                    "midi": 38,
                    "name": "D2",
                    "ticks": 34080,
                    "time": 61.739186000000004,
                    "velocity": 0.6299212598425197
                },
                {
                    "duration": 0.09057979166666996,
                    "durationTicks": 50,
                    "midi": 38,
                    "name": "D2",
                    "ticks": 34256,
                    "time": 62.058026866666665,
                    "velocity": 0.15748031496062992
                },
                {
                    "duration": 0.09057979166666996,
                    "durationTicks": 50,
                    "midi": 38,
                    "name": "D2",
                    "ticks": 34320,
                    "time": 62.17396900000001,
                    "velocity": 0.7874015748031497
                },
                {
                    "duration": 0.09057979166666996,
                    "durationTicks": 50,
                    "midi": 42,
                    "name": "F#2",
                    "ticks": 34320,
                    "time": 62.17396900000001,
                    "velocity": 0.6299212598425197
                },
                {
                    "duration": 0.09057979166666996,
                    "durationTicks": 50,
                    "midi": 37,
                    "name": "C#2",
                    "ticks": 34320,
                    "time": 62.17396900000001,
                    "velocity": 0.5511811023622047
                },
                {
                    "duration": 0.09057979166666996,
                    "durationTicks": 50,
                    "midi": 38,
                    "name": "D2",
                    "ticks": 34496,
                    "time": 62.49280986666667,
                    "velocity": 0.5511811023622047
                },
                {
                    "duration": 0.09057979166666996,
                    "durationTicks": 50,
                    "midi": 38,
                    "name": "D2",
                    "ticks": 34560,
                    "time": 62.608752,
                    "velocity": 0.6299212598425197
                },
                {
                    "duration": 0.09057979166666996,
                    "durationTicks": 50,
                    "midi": 38,
                    "name": "D2",
                    "ticks": 34736,
                    "time": 62.927592866666664,
                    "velocity": 0.15748031496062992
                },
                {
                    "duration": 0.09057979166666996,
                    "durationTicks": 50,
                    "midi": 38,
                    "name": "D2",
                    "ticks": 34800,
                    "time": 63.043535000000006,
                    "velocity": 0.7874015748031497
                },
                {
                    "duration": 0.09057979166666996,
                    "durationTicks": 50,
                    "midi": 42,
                    "name": "F#2",
                    "ticks": 34800,
                    "time": 63.043535000000006,
                    "velocity": 0.5511811023622047
                },
                {
                    "duration": 0.09057979166666996,
                    "durationTicks": 50,
                    "midi": 38,
                    "name": "D2",
                    "ticks": 34976,
                    "time": 63.36237586666667,
                    "velocity": 0.7086614173228346
                },
                {
                    "duration": 0.09057979166667707,
                    "durationTicks": 50,
                    "midi": 38,
                    "name": "D2",
                    "ticks": 35040,
                    "time": 63.478318,
                    "velocity": 0.6299212598425197
                },
                {
                    "duration": 0.09057979166666996,
                    "durationTicks": 50,
                    "midi": 38,
                    "name": "D2",
                    "ticks": 35216,
                    "time": 63.79715886666666,
                    "velocity": 0.4251968503937008
                },
                {
                    "duration": 0.09057979166667707,
                    "durationTicks": 50,
                    "midi": 38,
                    "name": "D2",
                    "ticks": 35280,
                    "time": 63.913101000000005,
                    "velocity": 0.7874015748031497
                },
                {
                    "duration": 0.09057979166667707,
                    "durationTicks": 50,
                    "midi": 42,
                    "name": "F#2",
                    "ticks": 35280,
                    "time": 63.913101000000005,
                    "velocity": 0.6299212598425197
                },
                {
                    "duration": 0.09057979166667707,
                    "durationTicks": 50,
                    "midi": 37,
                    "name": "C#2",
                    "ticks": 35280,
                    "time": 63.913101000000005,
                    "velocity": 0.5511811023622047
                },
                {
                    "duration": 0.09057979166666996,
                    "durationTicks": 50,
                    "midi": 38,
                    "name": "D2",
                    "ticks": 35456,
                    "time": 64.23194186666666,
                    "velocity": 0.5511811023622047
                },
                {
                    "duration": 0.09057979166666996,
                    "durationTicks": 50,
                    "midi": 38,
                    "name": "D2",
                    "ticks": 35520,
                    "time": 64.34788400000001,
                    "velocity": 0.6299212598425197
                },
                {
                    "duration": 0.09057979166666996,
                    "durationTicks": 50,
                    "midi": 38,
                    "name": "D2",
                    "ticks": 35692,
                    "time": 64.65947848333334,
                    "velocity": 0.15748031496062992
                },
                {
                    "duration": 0.09057979166666996,
                    "durationTicks": 50,
                    "midi": 38,
                    "name": "D2",
                    "ticks": 35760,
                    "time": 64.782667,
                    "velocity": 0.7874015748031497
                },
                {
                    "duration": 0.09057979166666996,
                    "durationTicks": 50,
                    "midi": 42,
                    "name": "F#2",
                    "ticks": 35760,
                    "time": 64.782667,
                    "velocity": 0.5511811023622047
                },
                {
                    "duration": 0.09057979166666996,
                    "durationTicks": 50,
                    "midi": 38,
                    "name": "D2",
                    "ticks": 35932,
                    "time": 65.09426148333334,
                    "velocity": 0.7086614173228346
                },
                {
                    "duration": 0.09057979166666996,
                    "durationTicks": 50,
                    "midi": 38,
                    "name": "D2",
                    "ticks": 36000,
                    "time": 65.21745,
                    "velocity": 0.6299212598425197
                },
                {
                    "duration": 0.09057979166666996,
                    "durationTicks": 50,
                    "midi": 38,
                    "name": "D2",
                    "ticks": 36172,
                    "time": 65.52904448333334,
                    "velocity": 0.15748031496062992
                },
                {
                    "duration": 0.09057979166666996,
                    "durationTicks": 50,
                    "midi": 38,
                    "name": "D2",
                    "ticks": 36240,
                    "time": 65.65223300000001,
                    "velocity": 0.7874015748031497
                },
                {
                    "duration": 0.09057979166666996,
                    "durationTicks": 50,
                    "midi": 42,
                    "name": "F#2",
                    "ticks": 36240,
                    "time": 65.65223300000001,
                    "velocity": 0.6299212598425197
                },
                {
                    "duration": 0.09057979166666996,
                    "durationTicks": 50,
                    "midi": 37,
                    "name": "C#2",
                    "ticks": 36240,
                    "time": 65.65223300000001,
                    "velocity": 0.5511811023622047
                },
                {
                    "duration": 0.09057979166666996,
                    "durationTicks": 50,
                    "midi": 38,
                    "name": "D2",
                    "ticks": 36412,
                    "time": 65.96382748333333,
                    "velocity": 0.5511811023622047
                },
                {
                    "duration": 0.09057979166666996,
                    "durationTicks": 50,
                    "midi": 38,
                    "name": "D2",
                    "ticks": 36480,
                    "time": 66.087016,
                    "velocity": 0.6299212598425197
                },
                {
                    "duration": 0.09057979166665575,
                    "durationTicks": 50,
                    "midi": 38,
                    "name": "D2",
                    "ticks": 36658,
                    "time": 66.40948005833334,
                    "velocity": 0.15748031496062992
                },
                {
                    "duration": 0.09057979166666996,
                    "durationTicks": 50,
                    "midi": 38,
                    "name": "D2",
                    "ticks": 36720,
                    "time": 66.521799,
                    "velocity": 0.7874015748031497
                },
                {
                    "duration": 0.09057979166666996,
                    "durationTicks": 50,
                    "midi": 42,
                    "name": "F#2",
                    "ticks": 36720,
                    "time": 66.521799,
                    "velocity": 0.5511811023622047
                },
                {
                    "duration": 0.09057979166665575,
                    "durationTicks": 50,
                    "midi": 38,
                    "name": "D2",
                    "ticks": 36898,
                    "time": 66.84426305833334,
                    "velocity": 0.7086614173228346
                },
                {
                    "duration": 0.09057979166666996,
                    "durationTicks": 50,
                    "midi": 38,
                    "name": "D2",
                    "ticks": 36960,
                    "time": 66.95658200000001,
                    "velocity": 0.6299212598425197
                },
                {
                    "duration": 0.09057979166666996,
                    "durationTicks": 50,
                    "midi": 38,
                    "name": "D2",
                    "ticks": 37138,
                    "time": 67.27904605833334,
                    "velocity": 0.15748031496062992
                },
                {
                    "duration": 0.09057979166666996,
                    "durationTicks": 50,
                    "midi": 38,
                    "name": "D2",
                    "ticks": 37200,
                    "time": 67.39136500000001,
                    "velocity": 0.7874015748031497
                },
                {
                    "duration": 0.09057979166666996,
                    "durationTicks": 50,
                    "midi": 42,
                    "name": "F#2",
                    "ticks": 37200,
                    "time": 67.39136500000001,
                    "velocity": 0.6299212598425197
                },
                {
                    "duration": 0.09057979166666996,
                    "durationTicks": 50,
                    "midi": 37,
                    "name": "C#2",
                    "ticks": 37200,
                    "time": 67.39136500000001,
                    "velocity": 0.5511811023622047
                },
                {
                    "duration": 0.09057979166665575,
                    "durationTicks": 50,
                    "midi": 38,
                    "name": "D2",
                    "ticks": 37378,
                    "time": 67.71382905833335,
                    "velocity": 0.5511811023622047
                },
                {
                    "duration": 0.09057979166666996,
                    "durationTicks": 50,
                    "midi": 38,
                    "name": "D2",
                    "ticks": 37440,
                    "time": 67.826148,
                    "velocity": 0.6299212598425197
                },
                {
                    "duration": 0.09057979166666996,
                    "durationTicks": 50,
                    "midi": 38,
                    "name": "D2",
                    "ticks": 37612,
                    "time": 68.13774248333334,
                    "velocity": 0.15748031496062992
                },
                {
                    "duration": 0.09057979166666996,
                    "durationTicks": 50,
                    "midi": 38,
                    "name": "D2",
                    "ticks": 37680,
                    "time": 68.260931,
                    "velocity": 0.7874015748031497
                },
                {
                    "duration": 0.09057979166666996,
                    "durationTicks": 50,
                    "midi": 42,
                    "name": "F#2",
                    "ticks": 37680,
                    "time": 68.260931,
                    "velocity": 0.5511811023622047
                },
                {
                    "duration": 0.09057979166666996,
                    "durationTicks": 50,
                    "midi": 38,
                    "name": "D2",
                    "ticks": 37852,
                    "time": 68.57252548333334,
                    "velocity": 0.7086614173228346
                },
                {
                    "duration": 0.09057979166666996,
                    "durationTicks": 50,
                    "midi": 38,
                    "name": "D2",
                    "ticks": 37920,
                    "time": 68.69571400000001,
                    "velocity": 0.6299212598425197
                },
                {
                    "duration": 0.09057979166668417,
                    "durationTicks": 50,
                    "midi": 38,
                    "name": "D2",
                    "ticks": 38092,
                    "time": 69.00730848333333,
                    "velocity": 0.15748031496062992
                },
                {
                    "duration": 0.09057979166666996,
                    "durationTicks": 50,
                    "midi": 38,
                    "name": "D2",
                    "ticks": 38160,
                    "time": 69.130497,
                    "velocity": 0.7874015748031497
                },
                {
                    "duration": 0.09057979166666996,
                    "durationTicks": 50,
                    "midi": 42,
                    "name": "F#2",
                    "ticks": 38160,
                    "time": 69.130497,
                    "velocity": 0.6299212598425197
                },
                {
                    "duration": 0.09057979166666996,
                    "durationTicks": 50,
                    "midi": 37,
                    "name": "C#2",
                    "ticks": 38160,
                    "time": 69.130497,
                    "velocity": 0.5511811023622047
                },
                {
                    "duration": 0.09057979166666996,
                    "durationTicks": 50,
                    "midi": 38,
                    "name": "D2",
                    "ticks": 38332,
                    "time": 69.44209148333334,
                    "velocity": 0.5511811023622047
                },
                {
                    "duration": 0.09057979166666996,
                    "durationTicks": 50,
                    "midi": 38,
                    "name": "D2",
                    "ticks": 38400,
                    "time": 69.56528,
                    "velocity": 0.6299212598425197
                },
                {
                    "duration": 0.09057979166666996,
                    "durationTicks": 50,
                    "midi": 38,
                    "name": "D2",
                    "ticks": 38576,
                    "time": 69.88412086666666,
                    "velocity": 0.15748031496062992
                },
                {
                    "duration": 0.09057979166666996,
                    "durationTicks": 50,
                    "midi": 38,
                    "name": "D2",
                    "ticks": 38640,
                    "time": 70.00006300000001,
                    "velocity": 0.7874015748031497
                },
                {
                    "duration": 0.09057979166666996,
                    "durationTicks": 50,
                    "midi": 42,
                    "name": "F#2",
                    "ticks": 38640,
                    "time": 70.00006300000001,
                    "velocity": 0.5511811023622047
                },
                {
                    "duration": 0.09057979166668417,
                    "durationTicks": 50,
                    "midi": 38,
                    "name": "D2",
                    "ticks": 38816,
                    "time": 70.31890386666666,
                    "velocity": 0.7086614173228346
                },
                {
                    "duration": 0.09057979166666996,
                    "durationTicks": 50,
                    "midi": 38,
                    "name": "D2",
                    "ticks": 38880,
                    "time": 70.43484600000001,
                    "velocity": 0.6299212598425197
                },
                {
                    "duration": 0.09057979166666996,
                    "durationTicks": 50,
                    "midi": 38,
                    "name": "D2",
                    "ticks": 39056,
                    "time": 70.75368686666667,
                    "velocity": 0.4251968503937008
                },
                {
                    "duration": 0.09057979166666996,
                    "durationTicks": 50,
                    "midi": 38,
                    "name": "D2",
                    "ticks": 39120,
                    "time": 70.869629,
                    "velocity": 0.7874015748031497
                },
                {
                    "duration": 0.09057979166666996,
                    "durationTicks": 50,
                    "midi": 42,
                    "name": "F#2",
                    "ticks": 39120,
                    "time": 70.869629,
                    "velocity": 0.6299212598425197
                },
                {
                    "duration": 0.09057979166666996,
                    "durationTicks": 50,
                    "midi": 37,
                    "name": "C#2",
                    "ticks": 39120,
                    "time": 70.869629,
                    "velocity": 0.5511811023622047
                },
                {
                    "duration": 0.09057979166666996,
                    "durationTicks": 50,
                    "midi": 38,
                    "name": "D2",
                    "ticks": 39296,
                    "time": 71.18846986666667,
                    "velocity": 0.5511811023622047
                },
                {
                    "duration": 0.09057979166666996,
                    "durationTicks": 50,
                    "midi": 38,
                    "name": "D2",
                    "ticks": 39360,
                    "time": 71.304412,
                    "velocity": 0.6299212598425197
                },
                {
                    "duration": 0.09057979166666996,
                    "durationTicks": 50,
                    "midi": 38,
                    "name": "D2",
                    "ticks": 39532,
                    "time": 71.61600648333334,
                    "velocity": 0.15748031496062992
                },
                {
                    "duration": 0.09057979166666996,
                    "durationTicks": 50,
                    "midi": 38,
                    "name": "D2",
                    "ticks": 39600,
                    "time": 71.73919500000001,
                    "velocity": 0.7874015748031497
                },
                {
                    "duration": 0.09057979166666996,
                    "durationTicks": 50,
                    "midi": 42,
                    "name": "F#2",
                    "ticks": 39600,
                    "time": 71.73919500000001,
                    "velocity": 0.5511811023622047
                },
                {
                    "duration": 0.09057979166668417,
                    "durationTicks": 50,
                    "midi": 38,
                    "name": "D2",
                    "ticks": 39772,
                    "time": 72.05078948333333,
                    "velocity": 0.7086614173228346
                },
                {
                    "duration": 0.09057979166666996,
                    "durationTicks": 50,
                    "midi": 38,
                    "name": "D2",
                    "ticks": 39840,
                    "time": 72.173978,
                    "velocity": 0.6299212598425197
                },
                {
                    "duration": 0.09057979166666996,
                    "durationTicks": 50,
                    "midi": 38,
                    "name": "D2",
                    "ticks": 40012,
                    "time": 72.48557248333334,
                    "velocity": 0.15748031496062992
                },
                {
                    "duration": 0.09057979166666996,
                    "durationTicks": 50,
                    "midi": 48,
                    "name": "C3",
                    "ticks": 40012,
                    "time": 72.48557248333334,
                    "velocity": 0.31496062992125984
                },
                {
                    "duration": 0.09057979166666996,
                    "durationTicks": 50,
                    "midi": 38,
                    "name": "D2",
                    "ticks": 40080,
                    "time": 72.608761,
                    "velocity": 0.7874015748031497
                },
                {
                    "duration": 0.09057979166666996,
                    "durationTicks": 50,
                    "midi": 42,
                    "name": "F#2",
                    "ticks": 40080,
                    "time": 72.608761,
                    "velocity": 0.6299212598425197
                },
                {
                    "duration": 0.09057979166666996,
                    "durationTicks": 50,
                    "midi": 37,
                    "name": "C#2",
                    "ticks": 40080,
                    "time": 72.608761,
                    "velocity": 0.6299212598425197
                },
                {
                    "duration": 0.09057979166666996,
                    "durationTicks": 50,
                    "midi": 45,
                    "name": "A2",
                    "ticks": 40080,
                    "time": 72.608761,
                    "velocity": 0.3937007874015748
                },
                {
                    "duration": 0.09057979166666996,
                    "durationTicks": 50,
                    "midi": 38,
                    "name": "D2",
                    "ticks": 40252,
                    "time": 72.92035548333334,
                    "velocity": 0.5511811023622047
                },
                {
                    "duration": 0.09057979166666996,
                    "durationTicks": 50,
                    "midi": 38,
                    "name": "D2",
                    "ticks": 40320,
                    "time": 73.04354400000001,
                    "velocity": 0.6299212598425197
                },
                {
                    "duration": 0.09057979166666996,
                    "durationTicks": 50,
                    "midi": 49,
                    "name": "C#3",
                    "ticks": 40320,
                    "time": 73.04354400000001,
                    "velocity": 0.2755905511811024
                },
                {
                    "duration": 0.09057979166666996,
                    "durationTicks": 50,
                    "midi": 38,
                    "name": "D2",
                    "ticks": 40496,
                    "time": 73.36238486666667,
                    "velocity": 0.15748031496062992
                },
                {
                    "duration": 0.09057979166666996,
                    "durationTicks": 50,
                    "midi": 38,
                    "name": "D2",
                    "ticks": 40560,
                    "time": 73.47832700000001,
                    "velocity": 0.7874015748031497
                },
                {
                    "duration": 0.09057979166666996,
                    "durationTicks": 50,
                    "midi": 42,
                    "name": "F#2",
                    "ticks": 40560,
                    "time": 73.47832700000001,
                    "velocity": 0.5511811023622047
                },
                {
                    "duration": 0.09057979166666996,
                    "durationTicks": 50,
                    "midi": 38,
                    "name": "D2",
                    "ticks": 40736,
                    "time": 73.79716786666667,
                    "velocity": 0.7086614173228346
                },
                {
                    "duration": 0.09057979166666996,
                    "durationTicks": 50,
                    "midi": 38,
                    "name": "D2",
                    "ticks": 40800,
                    "time": 73.91311,
                    "velocity": 0.6299212598425197
                },
                {
                    "duration": 0.09057979166666996,
                    "durationTicks": 50,
                    "midi": 38,
                    "name": "D2",
                    "ticks": 40976,
                    "time": 74.23195086666666,
                    "velocity": 0.15748031496062992
                },
                {
                    "duration": 0.09057979166666996,
                    "durationTicks": 50,
                    "midi": 38,
                    "name": "D2",
                    "ticks": 41040,
                    "time": 74.347893,
                    "velocity": 0.7874015748031497
                },
                {
                    "duration": 0.09057979166666996,
                    "durationTicks": 50,
                    "midi": 42,
                    "name": "F#2",
                    "ticks": 41040,
                    "time": 74.347893,
                    "velocity": 0.6299212598425197
                },
                {
                    "duration": 0.09057979166666996,
                    "durationTicks": 50,
                    "midi": 37,
                    "name": "C#2",
                    "ticks": 41040,
                    "time": 74.347893,
                    "velocity": 0.5511811023622047
                },
                {
                    "duration": 0.09057979166666996,
                    "durationTicks": 50,
                    "midi": 38,
                    "name": "D2",
                    "ticks": 41216,
                    "time": 74.66673386666666,
                    "velocity": 0.5511811023622047
                },
                {
                    "duration": 0.09057979166666996,
                    "durationTicks": 50,
                    "midi": 38,
                    "name": "D2",
                    "ticks": 41280,
                    "time": 74.78267600000001,
                    "velocity": 0.6299212598425197
                },
                {
                    "duration": 0.09057979166666996,
                    "durationTicks": 50,
                    "midi": 38,
                    "name": "D2",
                    "ticks": 41452,
                    "time": 75.09427048333335,
                    "velocity": 0.15748031496062992
                },
                {
                    "duration": 0.09057979166666996,
                    "durationTicks": 50,
                    "midi": 38,
                    "name": "D2",
                    "ticks": 41520,
                    "time": 75.217459,
                    "velocity": 0.7874015748031497
                },
                {
                    "duration": 0.09057979166666996,
                    "durationTicks": 50,
                    "midi": 42,
                    "name": "F#2",
                    "ticks": 41520,
                    "time": 75.217459,
                    "velocity": 0.5511811023622047
                },
                {
                    "duration": 0.09057979166666996,
                    "durationTicks": 50,
                    "midi": 38,
                    "name": "D2",
                    "ticks": 41692,
                    "time": 75.52905348333334,
                    "velocity": 0.7086614173228346
                },
                {
                    "duration": 0.09057979166666996,
                    "durationTicks": 50,
                    "midi": 38,
                    "name": "D2",
                    "ticks": 41760,
                    "time": 75.652242,
                    "velocity": 0.6299212598425197
                },
                {
                    "duration": 0.09057979166666996,
                    "durationTicks": 50,
                    "midi": 38,
                    "name": "D2",
                    "ticks": 41932,
                    "time": 75.96383648333334,
                    "velocity": 0.15748031496062992
                },
                {
                    "duration": 0.09057979166666996,
                    "durationTicks": 50,
                    "midi": 38,
                    "name": "D2",
                    "ticks": 42000,
                    "time": 76.08702500000001,
                    "velocity": 0.7874015748031497
                },
                {
                    "duration": 0.09057979166666996,
                    "durationTicks": 50,
                    "midi": 42,
                    "name": "F#2",
                    "ticks": 42000,
                    "time": 76.08702500000001,
                    "velocity": 0.6299212598425197
                },
                {
                    "duration": 0.09057979166666996,
                    "durationTicks": 50,
                    "midi": 37,
                    "name": "C#2",
                    "ticks": 42000,
                    "time": 76.08702500000001,
                    "velocity": 0.5511811023622047
                },
                {
                    "duration": 0.09057979166666996,
                    "durationTicks": 50,
                    "midi": 38,
                    "name": "D2",
                    "ticks": 42172,
                    "time": 76.39861948333333,
                    "velocity": 0.5511811023622047
                },
                {
                    "duration": 0.09057979166666996,
                    "durationTicks": 50,
                    "midi": 38,
                    "name": "D2",
                    "ticks": 42240,
                    "time": 76.52180800000001,
                    "velocity": 0.6299212598425197
                },
                {
                    "duration": 0.09057979166665575,
                    "durationTicks": 50,
                    "midi": 38,
                    "name": "D2",
                    "ticks": 42418,
                    "time": 76.84427205833335,
                    "velocity": 0.15748031496062992
                },
                {
                    "duration": 0.09057979166666996,
                    "durationTicks": 50,
                    "midi": 38,
                    "name": "D2",
                    "ticks": 42480,
                    "time": 76.956591,
                    "velocity": 0.7874015748031497
                },
                {
                    "duration": 0.09057979166666996,
                    "durationTicks": 50,
                    "midi": 42,
                    "name": "F#2",
                    "ticks": 42480,
                    "time": 76.956591,
                    "velocity": 0.5511811023622047
                },
                {
                    "duration": 0.09057979166665575,
                    "durationTicks": 50,
                    "midi": 38,
                    "name": "D2",
                    "ticks": 42658,
                    "time": 77.27905505833334,
                    "velocity": 0.7086614173228346
                },
                {
                    "duration": 0.09057979166668417,
                    "durationTicks": 50,
                    "midi": 38,
                    "name": "D2",
                    "ticks": 42720,
                    "time": 77.391374,
                    "velocity": 0.6299212598425197
                },
                {
                    "duration": 0.09057979166666996,
                    "durationTicks": 50,
                    "midi": 38,
                    "name": "D2",
                    "ticks": 42898,
                    "time": 77.71383805833334,
                    "velocity": 0.15748031496062992
                },
                {
                    "duration": 0.09057979166666996,
                    "durationTicks": 50,
                    "midi": 38,
                    "name": "D2",
                    "ticks": 42960,
                    "time": 77.82615700000001,
                    "velocity": 0.7874015748031497
                },
                {
                    "duration": 0.09057979166666996,
                    "durationTicks": 50,
                    "midi": 42,
                    "name": "F#2",
                    "ticks": 42960,
                    "time": 77.82615700000001,
                    "velocity": 0.6299212598425197
                },
                {
                    "duration": 0.09057979166666996,
                    "durationTicks": 50,
                    "midi": 37,
                    "name": "C#2",
                    "ticks": 42960,
                    "time": 77.82615700000001,
                    "velocity": 0.5511811023622047
                },
                {
                    "duration": 0.09057979166665575,
                    "durationTicks": 50,
                    "midi": 38,
                    "name": "D2",
                    "ticks": 43138,
                    "time": 78.14862105833335,
                    "velocity": 0.5511811023622047
                },
                {
                    "duration": 0.09057979166666996,
                    "durationTicks": 50,
                    "midi": 38,
                    "name": "D2",
                    "ticks": 43200,
                    "time": 78.26094,
                    "velocity": 0.6299212598425197
                },
                {
                    "duration": 0.09057979166665575,
                    "durationTicks": 50,
                    "midi": 38,
                    "name": "D2",
                    "ticks": 43378,
                    "time": 78.58340405833334,
                    "velocity": 0.15748031496062992
                },
                {
                    "duration": 0.09057979166666996,
                    "durationTicks": 50,
                    "midi": 38,
                    "name": "D2",
                    "ticks": 43440,
                    "time": 78.695723,
                    "velocity": 0.7874015748031497
                },
                {
                    "duration": 0.09057979166666996,
                    "durationTicks": 50,
                    "midi": 42,
                    "name": "F#2",
                    "ticks": 43440,
                    "time": 78.695723,
                    "velocity": 0.5511811023622047
                },
                {
                    "duration": 0.09057979166665575,
                    "durationTicks": 50,
                    "midi": 38,
                    "name": "D2",
                    "ticks": 43618,
                    "time": 79.01818705833334,
                    "velocity": 0.7086614173228346
                },
                {
                    "duration": 0.09057979166666996,
                    "durationTicks": 50,
                    "midi": 38,
                    "name": "D2",
                    "ticks": 43680,
                    "time": 79.13050600000001,
                    "velocity": 0.6299212598425197
                },
                {
                    "duration": 0.09057979166666996,
                    "durationTicks": 50,
                    "midi": 38,
                    "name": "D2",
                    "ticks": 43858,
                    "time": 79.45297005833334,
                    "velocity": 0.15748031496062992
                },
                {
                    "duration": 0.09057979166666996,
                    "durationTicks": 50,
                    "midi": 38,
                    "name": "D2",
                    "ticks": 43920,
                    "time": 79.565289,
                    "velocity": 0.7874015748031497
                },
                {
                    "duration": 0.09057979166666996,
                    "durationTicks": 50,
                    "midi": 42,
                    "name": "F#2",
                    "ticks": 43920,
                    "time": 79.565289,
                    "velocity": 0.6299212598425197
                },
                {
                    "duration": 0.09057979166666996,
                    "durationTicks": 50,
                    "midi": 37,
                    "name": "C#2",
                    "ticks": 43920,
                    "time": 79.565289,
                    "velocity": 0.5511811023622047
                },
                {
                    "duration": 0.09057979166665575,
                    "durationTicks": 50,
                    "midi": 38,
                    "name": "D2",
                    "ticks": 44098,
                    "time": 79.88775305833335,
                    "velocity": 0.5511811023622047
                },
                {
                    "duration": 0.09057979166666996,
                    "durationTicks": 50,
                    "midi": 38,
                    "name": "D2",
                    "ticks": 44160,
                    "time": 80.000072,
                    "velocity": 0.6299212598425197
                },
                {
                    "duration": 0.09057979166666996,
                    "durationTicks": 50,
                    "midi": 38,
                    "name": "D2",
                    "ticks": 44332,
                    "time": 80.31166648333334,
                    "velocity": 0.15748031496062992
                },
                {
                    "duration": 0.09057979166668417,
                    "durationTicks": 50,
                    "midi": 38,
                    "name": "D2",
                    "ticks": 44400,
                    "time": 80.434855,
                    "velocity": 0.7874015748031497
                },
                {
                    "duration": 0.09057979166668417,
                    "durationTicks": 50,
                    "midi": 42,
                    "name": "F#2",
                    "ticks": 44400,
                    "time": 80.434855,
                    "velocity": 0.5511811023622047
                },
                {
                    "duration": 0.09057979166666996,
                    "durationTicks": 50,
                    "midi": 38,
                    "name": "D2",
                    "ticks": 44572,
                    "time": 80.74644948333334,
                    "velocity": 0.7086614173228346
                },
                {
                    "duration": 0.09057979166666996,
                    "durationTicks": 50,
                    "midi": 38,
                    "name": "D2",
                    "ticks": 44640,
                    "time": 80.86963800000001,
                    "velocity": 0.6299212598425197
                },
                {
                    "duration": 0.09057979166666996,
                    "durationTicks": 50,
                    "midi": 38,
                    "name": "D2",
                    "ticks": 44812,
                    "time": 81.18123248333335,
                    "velocity": 0.15748031496062992
                },
                {
                    "duration": 0.09057979166666996,
                    "durationTicks": 50,
                    "midi": 38,
                    "name": "D2",
                    "ticks": 44880,
                    "time": 81.304421,
                    "velocity": 0.7874015748031497
                },
                {
                    "duration": 0.09057979166666996,
                    "durationTicks": 50,
                    "midi": 42,
                    "name": "F#2",
                    "ticks": 44880,
                    "time": 81.304421,
                    "velocity": 0.6299212598425197
                },
                {
                    "duration": 0.09057979166666996,
                    "durationTicks": 50,
                    "midi": 37,
                    "name": "C#2",
                    "ticks": 44880,
                    "time": 81.304421,
                    "velocity": 0.5511811023622047
                },
                {
                    "duration": 0.09057979166666996,
                    "durationTicks": 50,
                    "midi": 38,
                    "name": "D2",
                    "ticks": 45052,
                    "time": 81.61601548333334,
                    "velocity": 0.5511811023622047
                },
                {
                    "duration": 0.09057979166666996,
                    "durationTicks": 50,
                    "midi": 38,
                    "name": "D2",
                    "ticks": 45120,
                    "time": 81.739204,
                    "velocity": 0.6299212598425197
                },
                {
                    "duration": 0.09057979166666996,
                    "durationTicks": 50,
                    "midi": 38,
                    "name": "D2",
                    "ticks": 45296,
                    "time": 82.05804486666666,
                    "velocity": 0.15748031496062992
                },
                {
                    "duration": 0.09057979166666996,
                    "durationTicks": 50,
                    "midi": 38,
                    "name": "D2",
                    "ticks": 45360,
                    "time": 82.17398700000001,
                    "velocity": 0.7874015748031497
                },
                {
                    "duration": 0.09057979166666996,
                    "durationTicks": 50,
                    "midi": 42,
                    "name": "F#2",
                    "ticks": 45360,
                    "time": 82.17398700000001,
                    "velocity": 0.5511811023622047
                },
                {
                    "duration": 0.09057979166666996,
                    "durationTicks": 50,
                    "midi": 38,
                    "name": "D2",
                    "ticks": 45536,
                    "time": 82.49282786666667,
                    "velocity": 0.7086614173228346
                },
                {
                    "duration": 0.09057979166666996,
                    "durationTicks": 50,
                    "midi": 38,
                    "name": "D2",
                    "ticks": 45600,
                    "time": 82.60877,
                    "velocity": 0.6299212598425197
                },
                {
                    "duration": 0.09057979166666996,
                    "durationTicks": 50,
                    "midi": 38,
                    "name": "D2",
                    "ticks": 45776,
                    "time": 82.92761086666667,
                    "velocity": 0.15748031496062992
                },
                {
                    "duration": 0.09057979166666996,
                    "durationTicks": 50,
                    "midi": 38,
                    "name": "D2",
                    "ticks": 45840,
                    "time": 83.043553,
                    "velocity": 0.7874015748031497
                },
                {
                    "duration": 0.09057979166666996,
                    "durationTicks": 50,
                    "midi": 42,
                    "name": "F#2",
                    "ticks": 45840,
                    "time": 83.043553,
                    "velocity": 0.6299212598425197
                },
                {
                    "duration": 0.09057979166666996,
                    "durationTicks": 50,
                    "midi": 37,
                    "name": "C#2",
                    "ticks": 45840,
                    "time": 83.043553,
                    "velocity": 0.5511811023622047
                },
                {
                    "duration": 0.09057979166666996,
                    "durationTicks": 50,
                    "midi": 38,
                    "name": "D2",
                    "ticks": 46016,
                    "time": 83.36239386666666,
                    "velocity": 0.5511811023622047
                },
                {
                    "duration": 0.09057979166666996,
                    "durationTicks": 50,
                    "midi": 38,
                    "name": "D2",
                    "ticks": 46080,
                    "time": 83.47833600000001,
                    "velocity": 0.6299212598425197
                },
                {
                    "duration": 0.09057979166666996,
                    "durationTicks": 50,
                    "midi": 38,
                    "name": "D2",
                    "ticks": 46258,
                    "time": 83.80080005833334,
                    "velocity": 0.15748031496062992
                },
                {
                    "duration": 0.09057979166666996,
                    "durationTicks": 50,
                    "midi": 38,
                    "name": "D2",
                    "ticks": 46320,
                    "time": 83.91311900000001,
                    "velocity": 0.7874015748031497
                },
                {
                    "duration": 0.09057979166666996,
                    "durationTicks": 50,
                    "midi": 42,
                    "name": "F#2",
                    "ticks": 46320,
                    "time": 83.91311900000001,
                    "velocity": 0.5511811023622047
                },
                {
                    "duration": 0.09057979166665575,
                    "durationTicks": 50,
                    "midi": 38,
                    "name": "D2",
                    "ticks": 46498,
                    "time": 84.23558305833335,
                    "velocity": 0.7086614173228346
                },
                {
                    "duration": 0.09057979166666996,
                    "durationTicks": 50,
                    "midi": 38,
                    "name": "D2",
                    "ticks": 46560,
                    "time": 84.347902,
                    "velocity": 0.6299212598425197
                },
                {
                    "duration": 0.09057979166665575,
                    "durationTicks": 50,
                    "midi": 38,
                    "name": "D2",
                    "ticks": 46738,
                    "time": 84.67036605833334,
                    "velocity": 0.15748031496062992
                },
                {
                    "duration": 0.09057979166666996,
                    "durationTicks": 50,
                    "midi": 38,
                    "name": "D2",
                    "ticks": 46800,
                    "time": 84.782685,
                    "velocity": 0.7874015748031497
                },
                {
                    "duration": 0.09057979166666996,
                    "durationTicks": 50,
                    "midi": 42,
                    "name": "F#2",
                    "ticks": 46800,
                    "time": 84.782685,
                    "velocity": 0.6299212598425197
                },
                {
                    "duration": 0.09057979166666996,
                    "durationTicks": 50,
                    "midi": 37,
                    "name": "C#2",
                    "ticks": 46800,
                    "time": 84.782685,
                    "velocity": 0.5511811023622047
                },
                {
                    "duration": 0.09057979166665575,
                    "durationTicks": 50,
                    "midi": 38,
                    "name": "D2",
                    "ticks": 46978,
                    "time": 85.10514905833334,
                    "velocity": 0.5511811023622047
                },
                {
                    "duration": 0.09057979166666996,
                    "durationTicks": 50,
                    "midi": 38,
                    "name": "D2",
                    "ticks": 47040,
                    "time": 85.21746800000001,
                    "velocity": 0.6299212598425197
                },
                {
                    "duration": 0.09057979166666996,
                    "durationTicks": 50,
                    "midi": 38,
                    "name": "D2",
                    "ticks": 47212,
                    "time": 85.52906248333333,
                    "velocity": 0.15748031496062992
                },
                {
                    "duration": 0.09057979166666996,
                    "durationTicks": 50,
                    "midi": 38,
                    "name": "D2",
                    "ticks": 47280,
                    "time": 85.652251,
                    "velocity": 0.7874015748031497
                },
                {
                    "duration": 0.09057979166666996,
                    "durationTicks": 50,
                    "midi": 42,
                    "name": "F#2",
                    "ticks": 47280,
                    "time": 85.652251,
                    "velocity": 0.5511811023622047
                },
                {
                    "duration": 0.09057979166666996,
                    "durationTicks": 50,
                    "midi": 38,
                    "name": "D2",
                    "ticks": 47452,
                    "time": 85.96384548333334,
                    "velocity": 0.7086614173228346
                },
                {
                    "duration": 0.09057979166666996,
                    "durationTicks": 50,
                    "midi": 38,
                    "name": "D2",
                    "ticks": 47520,
                    "time": 86.087034,
                    "velocity": 0.6299212598425197
                },
                {
                    "duration": 0.09057979166666996,
                    "durationTicks": 50,
                    "midi": 38,
                    "name": "D2",
                    "ticks": 47692,
                    "time": 86.39862848333334,
                    "velocity": 0.15748031496062992
                },
                {
                    "duration": 0.09057979166666996,
                    "durationTicks": 50,
                    "midi": 48,
                    "name": "C3",
                    "ticks": 47692,
                    "time": 86.39862848333334,
                    "velocity": 0.31496062992125984
                },
                {
                    "duration": 0.09057979166666996,
                    "durationTicks": 50,
                    "midi": 38,
                    "name": "D2",
                    "ticks": 47760,
                    "time": 86.52181700000001,
                    "velocity": 0.7874015748031497
                },
                {
                    "duration": 0.09057979166666996,
                    "durationTicks": 50,
                    "midi": 42,
                    "name": "F#2",
                    "ticks": 47760,
                    "time": 86.52181700000001,
                    "velocity": 0.6299212598425197
                },
                {
                    "duration": 0.09057979166666996,
                    "durationTicks": 50,
                    "midi": 37,
                    "name": "C#2",
                    "ticks": 47760,
                    "time": 86.52181700000001,
                    "velocity": 0.6299212598425197
                },
                {
                    "duration": 0.09057979166666996,
                    "durationTicks": 50,
                    "midi": 45,
                    "name": "A2",
                    "ticks": 47760,
                    "time": 86.52181700000001,
                    "velocity": 0.3937007874015748
                },
                {
                    "duration": 0.09057979166666996,
                    "durationTicks": 50,
                    "midi": 38,
                    "name": "D2",
                    "ticks": 47932,
                    "time": 86.83341148333334,
                    "velocity": 0.5511811023622047
                },
                {
                    "duration": 0.09057979166666996,
                    "durationTicks": 50,
                    "midi": 38,
                    "name": "D2",
                    "ticks": 48000,
                    "time": 86.95660000000001,
                    "velocity": 0.6299212598425197
                },
                {
                    "duration": 0.09057979166666996,
                    "durationTicks": 50,
                    "midi": 49,
                    "name": "C#3",
                    "ticks": 48000,
                    "time": 86.95660000000001,
                    "velocity": 0.2755905511811024
                },
                {
                    "duration": 0.09057979166666996,
                    "durationTicks": 50,
                    "midi": 38,
                    "name": "D2",
                    "ticks": 48176,
                    "time": 87.27544086666667,
                    "velocity": 0.15748031496062992
                },
                {
                    "duration": 0.09057979166666996,
                    "durationTicks": 50,
                    "midi": 38,
                    "name": "D2",
                    "ticks": 48240,
                    "time": 87.391383,
                    "velocity": 0.7874015748031497
                },
                {
                    "duration": 0.09057979166666996,
                    "durationTicks": 50,
                    "midi": 42,
                    "name": "F#2",
                    "ticks": 48240,
                    "time": 87.391383,
                    "velocity": 0.5511811023622047
                },
                {
                    "duration": 0.09057979166666996,
                    "durationTicks": 50,
                    "midi": 38,
                    "name": "D2",
                    "ticks": 48416,
                    "time": 87.71022386666667,
                    "velocity": 0.7086614173228346
                },
                {
                    "duration": 0.09057979166666996,
                    "durationTicks": 50,
                    "midi": 38,
                    "name": "D2",
                    "ticks": 48480,
                    "time": 87.826166,
                    "velocity": 0.6299212598425197
                },
                {
                    "duration": 0.09057979166666996,
                    "durationTicks": 50,
                    "midi": 38,
                    "name": "D2",
                    "ticks": 48656,
                    "time": 88.14500686666666,
                    "velocity": 0.15748031496062992
                },
                {
                    "duration": 0.09057979166666996,
                    "durationTicks": 50,
                    "midi": 38,
                    "name": "D2",
                    "ticks": 48720,
                    "time": 88.26094900000001,
                    "velocity": 0.7874015748031497
                },
                {
                    "duration": 0.09057979166666996,
                    "durationTicks": 50,
                    "midi": 42,
                    "name": "F#2",
                    "ticks": 48720,
                    "time": 88.26094900000001,
                    "velocity": 0.6299212598425197
                },
                {
                    "duration": 0.09057979166666996,
                    "durationTicks": 50,
                    "midi": 37,
                    "name": "C#2",
                    "ticks": 48720,
                    "time": 88.26094900000001,
                    "velocity": 0.5511811023622047
                },
                {
                    "duration": 0.09057979166666996,
                    "durationTicks": 50,
                    "midi": 38,
                    "name": "D2",
                    "ticks": 48896,
                    "time": 88.57978986666667,
                    "velocity": 0.5511811023622047
                },
                {
                    "duration": 0.09057979166666996,
                    "durationTicks": 50,
                    "midi": 38,
                    "name": "D2",
                    "ticks": 48960,
                    "time": 88.695732,
                    "velocity": 0.6299212598425197
                },
                {
                    "duration": 0.09057979166665575,
                    "durationTicks": 50,
                    "midi": 38,
                    "name": "D2",
                    "ticks": 49138,
                    "time": 89.01819605833334,
                    "velocity": 0.15748031496062992
                },
                {
                    "duration": 0.09057979166666996,
                    "durationTicks": 50,
                    "midi": 38,
                    "name": "D2",
                    "ticks": 49200,
                    "time": 89.130515,
                    "velocity": 0.7874015748031497
                },
                {
                    "duration": 0.09057979166666996,
                    "durationTicks": 50,
                    "midi": 42,
                    "name": "F#2",
                    "ticks": 49200,
                    "time": 89.130515,
                    "velocity": 0.5511811023622047
                },
                {
                    "duration": 0.09057979166665575,
                    "durationTicks": 50,
                    "midi": 38,
                    "name": "D2",
                    "ticks": 49378,
                    "time": 89.45297905833334,
                    "velocity": 0.7086614173228346
                },
                {
                    "duration": 0.09057979166666996,
                    "durationTicks": 50,
                    "midi": 38,
                    "name": "D2",
                    "ticks": 49440,
                    "time": 89.56529800000001,
                    "velocity": 0.6299212598425197
                },
                {
                    "duration": 0.09057979166666996,
                    "durationTicks": 50,
                    "midi": 38,
                    "name": "D2",
                    "ticks": 49618,
                    "time": 89.88776205833334,
                    "velocity": 0.15748031496062992
                },
                {
                    "duration": 0.09057979166666996,
                    "durationTicks": 50,
                    "midi": 38,
                    "name": "D2",
                    "ticks": 49680,
                    "time": 90.00008100000001,
                    "velocity": 0.7874015748031497
                },
                {
                    "duration": 0.09057979166666996,
                    "durationTicks": 50,
                    "midi": 42,
                    "name": "F#2",
                    "ticks": 49680,
                    "time": 90.00008100000001,
                    "velocity": 0.6299212598425197
                },
                {
                    "duration": 0.09057979166666996,
                    "durationTicks": 50,
                    "midi": 37,
                    "name": "C#2",
                    "ticks": 49680,
                    "time": 90.00008100000001,
                    "velocity": 0.5511811023622047
                },
                {
                    "duration": 0.09057979166665575,
                    "durationTicks": 50,
                    "midi": 38,
                    "name": "D2",
                    "ticks": 49858,
                    "time": 90.32254505833335,
                    "velocity": 0.5511811023622047
                },
                {
                    "duration": 0.09057979166666996,
                    "durationTicks": 50,
                    "midi": 38,
                    "name": "D2",
                    "ticks": 49920,
                    "time": 90.434864,
                    "velocity": 0.6299212598425197
                },
                {
                    "duration": 0.09057979166666996,
                    "durationTicks": 50,
                    "midi": 38,
                    "name": "D2",
                    "ticks": 50092,
                    "time": 90.74645848333334,
                    "velocity": 0.15748031496062992
                },
                {
                    "duration": 0.09057979166666996,
                    "durationTicks": 50,
                    "midi": 38,
                    "name": "D2",
                    "ticks": 50160,
                    "time": 90.869647,
                    "velocity": 0.7874015748031497
                },
                {
                    "duration": 0.09057979166666996,
                    "durationTicks": 50,
                    "midi": 42,
                    "name": "F#2",
                    "ticks": 50160,
                    "time": 90.869647,
                    "velocity": 0.5511811023622047
                },
                {
                    "duration": 0.09057979166666996,
                    "durationTicks": 50,
                    "midi": 38,
                    "name": "D2",
                    "ticks": 50332,
                    "time": 91.18124148333334,
                    "velocity": 0.7086614173228346
                },
                {
                    "duration": 0.09057979166666996,
                    "durationTicks": 50,
                    "midi": 38,
                    "name": "D2",
                    "ticks": 50400,
                    "time": 91.30443000000001,
                    "velocity": 0.6299212598425197
                },
                {
                    "duration": 0.09057979166668417,
                    "durationTicks": 50,
                    "midi": 38,
                    "name": "D2",
                    "ticks": 50572,
                    "time": 91.61602448333333,
                    "velocity": 0.15748031496062992
                },
                {
                    "duration": 0.09057979166666996,
                    "durationTicks": 50,
                    "midi": 38,
                    "name": "D2",
                    "ticks": 50640,
                    "time": 91.739213,
                    "velocity": 0.7874015748031497
                },
                {
                    "duration": 0.09057979166666996,
                    "durationTicks": 50,
                    "midi": 42,
                    "name": "F#2",
                    "ticks": 50640,
                    "time": 91.739213,
                    "velocity": 0.6299212598425197
                },
                {
                    "duration": 0.09057979166666996,
                    "durationTicks": 50,
                    "midi": 37,
                    "name": "C#2",
                    "ticks": 50640,
                    "time": 91.739213,
                    "velocity": 0.5511811023622047
                },
                {
                    "duration": 0.09057979166666996,
                    "durationTicks": 50,
                    "midi": 38,
                    "name": "D2",
                    "ticks": 50812,
                    "time": 92.05080748333334,
                    "velocity": 0.5511811023622047
                },
                {
                    "duration": 0.09057979166666996,
                    "durationTicks": 50,
                    "midi": 38,
                    "name": "D2",
                    "ticks": 50880,
                    "time": 92.173996,
                    "velocity": 0.6299212598425197
                },
                {
                    "duration": 0.09057979166666996,
                    "durationTicks": 50,
                    "midi": 38,
                    "name": "D2",
                    "ticks": 51056,
                    "time": 92.49283686666666,
                    "velocity": 0.15748031496062992
                },
                {
                    "duration": 0.09057979166666996,
                    "durationTicks": 50,
                    "midi": 38,
                    "name": "D2",
                    "ticks": 51120,
                    "time": 92.60877900000001,
                    "velocity": 0.7874015748031497
                },
                {
                    "duration": 0.09057979166666996,
                    "durationTicks": 50,
                    "midi": 42,
                    "name": "F#2",
                    "ticks": 51120,
                    "time": 92.60877900000001,
                    "velocity": 0.5511811023622047
                },
                {
                    "duration": 0.09057979166666996,
                    "durationTicks": 50,
                    "midi": 38,
                    "name": "D2",
                    "ticks": 51296,
                    "time": 92.92761986666667,
                    "velocity": 0.7086614173228346
                },
                {
                    "duration": 0.09057979166666996,
                    "durationTicks": 50,
                    "midi": 38,
                    "name": "D2",
                    "ticks": 51360,
                    "time": 93.04356200000001,
                    "velocity": 0.6299212598425197
                },
                {
                    "duration": 0.09057979166666996,
                    "durationTicks": 50,
                    "midi": 38,
                    "name": "D2",
                    "ticks": 51536,
                    "time": 93.36240286666667,
                    "velocity": 0.15748031496062992
                },
                {
                    "duration": 0.09057979166666996,
                    "durationTicks": 50,
                    "midi": 38,
                    "name": "D2",
                    "ticks": 51600,
                    "time": 93.478345,
                    "velocity": 0.7874015748031497
                },
                {
                    "duration": 0.09057979166666996,
                    "durationTicks": 50,
                    "midi": 42,
                    "name": "F#2",
                    "ticks": 51600,
                    "time": 93.478345,
                    "velocity": 0.6299212598425197
                },
                {
                    "duration": 0.09057979166666996,
                    "durationTicks": 50,
                    "midi": 37,
                    "name": "C#2",
                    "ticks": 51600,
                    "time": 93.478345,
                    "velocity": 0.5511811023622047
                },
                {
                    "duration": 0.09057979166666996,
                    "durationTicks": 50,
                    "midi": 38,
                    "name": "D2",
                    "ticks": 51776,
                    "time": 93.79718586666667,
                    "velocity": 0.5511811023622047
                },
                {
                    "duration": 0.09057979166666996,
                    "durationTicks": 50,
                    "midi": 38,
                    "name": "D2",
                    "ticks": 51840,
                    "time": 93.913128,
                    "velocity": 0.6299212598425197
                },
                {
                    "duration": 0.09057979166666996,
                    "durationTicks": 50,
                    "midi": 38,
                    "name": "D2",
                    "ticks": 52018,
                    "time": 94.23559205833334,
                    "velocity": 0.15748031496062992
                },
                {
                    "duration": 0.09057979166666996,
                    "durationTicks": 50,
                    "midi": 38,
                    "name": "D2",
                    "ticks": 52080,
                    "time": 94.34791100000001,
                    "velocity": 0.7874015748031497
                },
                {
                    "duration": 0.09057979166666996,
                    "durationTicks": 50,
                    "midi": 42,
                    "name": "F#2",
                    "ticks": 52080,
                    "time": 94.34791100000001,
                    "velocity": 0.5511811023622047
                },
                {
                    "duration": 0.09057979166665575,
                    "durationTicks": 50,
                    "midi": 38,
                    "name": "D2",
                    "ticks": 52258,
                    "time": 94.67037505833335,
                    "velocity": 0.7086614173228346
                },
                {
                    "duration": 0.09057979166666996,
                    "durationTicks": 50,
                    "midi": 38,
                    "name": "D2",
                    "ticks": 52320,
                    "time": 94.782694,
                    "velocity": 0.6299212598425197
                },
                {
                    "duration": 0.09057979166665575,
                    "durationTicks": 50,
                    "midi": 38,
                    "name": "D2",
                    "ticks": 52498,
                    "time": 95.10515805833334,
                    "velocity": 0.15748031496062992
                },
                {
                    "duration": 0.09057979166666996,
                    "durationTicks": 50,
                    "midi": 38,
                    "name": "D2",
                    "ticks": 52560,
                    "time": 95.217477,
                    "velocity": 0.7874015748031497
                },
                {
                    "duration": 0.09057979166666996,
                    "durationTicks": 50,
                    "midi": 42,
                    "name": "F#2",
                    "ticks": 52560,
                    "time": 95.217477,
                    "velocity": 0.6299212598425197
                },
                {
                    "duration": 0.09057979166666996,
                    "durationTicks": 50,
                    "midi": 37,
                    "name": "C#2",
                    "ticks": 52560,
                    "time": 95.217477,
                    "velocity": 0.5511811023622047
                },
                {
                    "duration": 0.09057979166665575,
                    "durationTicks": 50,
                    "midi": 38,
                    "name": "D2",
                    "ticks": 52738,
                    "time": 95.53994105833334,
                    "velocity": 0.5511811023622047
                },
                {
                    "duration": 0.09057979166666996,
                    "durationTicks": 50,
                    "midi": 38,
                    "name": "D2",
                    "ticks": 52800,
                    "time": 95.65226000000001,
                    "velocity": 0.6299212598425197
                },
                {
                    "duration": 0.09057979166666996,
                    "durationTicks": 50,
                    "midi": 38,
                    "name": "D2",
                    "ticks": 52978,
                    "time": 95.97472405833334,
                    "velocity": 0.15748031496062992
                },
                {
                    "duration": 0.09057979166666996,
                    "durationTicks": 50,
                    "midi": 38,
                    "name": "D2",
                    "ticks": 53040,
                    "time": 96.08704300000001,
                    "velocity": 0.7874015748031497
                },
                {
                    "duration": 0.09057979166666996,
                    "durationTicks": 50,
                    "midi": 42,
                    "name": "F#2",
                    "ticks": 53040,
                    "time": 96.08704300000001,
                    "velocity": 0.5511811023622047
                },
                {
                    "duration": 0.09057979166665575,
                    "durationTicks": 50,
                    "midi": 38,
                    "name": "D2",
                    "ticks": 53218,
                    "time": 96.40950705833335,
                    "velocity": 0.7086614173228346
                },
                {
                    "duration": 0.09057979166666996,
                    "durationTicks": 50,
                    "midi": 38,
                    "name": "D2",
                    "ticks": 53280,
                    "time": 96.521826,
                    "velocity": 0.6299212598425197
                },
                {
                    "duration": 0.09057979166665575,
                    "durationTicks": 50,
                    "midi": 38,
                    "name": "D2",
                    "ticks": 53458,
                    "time": 96.84429005833334,
                    "velocity": 0.15748031496062992
                },
                {
                    "duration": 0.09057979166668417,
                    "durationTicks": 50,
                    "midi": 38,
                    "name": "D2",
                    "ticks": 53520,
                    "time": 96.956609,
                    "velocity": 0.7874015748031497
                },
                {
                    "duration": 0.09057979166668417,
                    "durationTicks": 50,
                    "midi": 42,
                    "name": "F#2",
                    "ticks": 53520,
                    "time": 96.956609,
                    "velocity": 0.6299212598425197
                },
                {
                    "duration": 0.09057979166668417,
                    "durationTicks": 50,
                    "midi": 37,
                    "name": "C#2",
                    "ticks": 53520,
                    "time": 96.956609,
                    "velocity": 0.5511811023622047
                },
                {
                    "duration": 0.09057979166666996,
                    "durationTicks": 50,
                    "midi": 38,
                    "name": "D2",
                    "ticks": 53698,
                    "time": 97.27907305833334,
                    "velocity": 0.5511811023622047
                },
                {
                    "duration": 0.09057979166666996,
                    "durationTicks": 50,
                    "midi": 38,
                    "name": "D2",
                    "ticks": 53760,
                    "time": 97.39139200000001,
                    "velocity": 0.6299212598425197
                },
                {
                    "duration": 0.09057979166666996,
                    "durationTicks": 50,
                    "midi": 38,
                    "name": "D2",
                    "ticks": 53932,
                    "time": 97.70298648333335,
                    "velocity": 0.15748031496062992
                },
                {
                    "duration": 0.09057979166666996,
                    "durationTicks": 50,
                    "midi": 38,
                    "name": "D2",
                    "ticks": 54000,
                    "time": 97.826175,
                    "velocity": 0.7874015748031497
                },
                {
                    "duration": 0.09057979166666996,
                    "durationTicks": 50,
                    "midi": 42,
                    "name": "F#2",
                    "ticks": 54000,
                    "time": 97.826175,
                    "velocity": 0.5511811023622047
                },
                {
                    "duration": 0.09057979166666996,
                    "durationTicks": 50,
                    "midi": 38,
                    "name": "D2",
                    "ticks": 54172,
                    "time": 98.13776948333334,
                    "velocity": 0.7086614173228346
                },
                {
                    "duration": 0.09057979166666996,
                    "durationTicks": 50,
                    "midi": 38,
                    "name": "D2",
                    "ticks": 54240,
                    "time": 98.260958,
                    "velocity": 0.6299212598425197
                },
                {
                    "duration": 0.09057979166666996,
                    "durationTicks": 50,
                    "midi": 38,
                    "name": "D2",
                    "ticks": 54412,
                    "time": 98.57255248333334,
                    "velocity": 0.15748031496062992
                },
                {
                    "duration": 0.09057979166666996,
                    "durationTicks": 50,
                    "midi": 38,
                    "name": "D2",
                    "ticks": 54480,
                    "time": 98.69574100000001,
                    "velocity": 0.7874015748031497
                },
                {
                    "duration": 0.09057979166666996,
                    "durationTicks": 50,
                    "midi": 42,
                    "name": "F#2",
                    "ticks": 54480,
                    "time": 98.69574100000001,
                    "velocity": 0.6299212598425197
                },
                {
                    "duration": 0.09057979166666996,
                    "durationTicks": 50,
                    "midi": 37,
                    "name": "C#2",
                    "ticks": 54480,
                    "time": 98.69574100000001,
                    "velocity": 0.5511811023622047
                },
                {
                    "duration": 0.09057979166666996,
                    "durationTicks": 50,
                    "midi": 38,
                    "name": "D2",
                    "ticks": 54652,
                    "time": 99.00733548333334,
                    "velocity": 0.5511811023622047
                },
                {
                    "duration": 0.09057979166666996,
                    "durationTicks": 50,
                    "midi": 38,
                    "name": "D2",
                    "ticks": 54720,
                    "time": 99.13052400000001,
                    "velocity": 0.6299212598425197
                },
                {
                    "duration": 0.09057979166666996,
                    "durationTicks": 50,
                    "midi": 38,
                    "name": "D2",
                    "ticks": 54892,
                    "time": 99.44211848333335,
                    "velocity": 0.15748031496062992
                },
                {
                    "duration": 0.09057979166666996,
                    "durationTicks": 50,
                    "midi": 38,
                    "name": "D2",
                    "ticks": 54960,
                    "time": 99.565307,
                    "velocity": 0.7874015748031497
                },
                {
                    "duration": 0.09057979166666996,
                    "durationTicks": 50,
                    "midi": 42,
                    "name": "F#2",
                    "ticks": 54960,
                    "time": 99.565307,
                    "velocity": 0.5511811023622047
                },
                {
                    "duration": 0.09057979166666996,
                    "durationTicks": 50,
                    "midi": 38,
                    "name": "D2",
                    "ticks": 55132,
                    "time": 99.87690148333334,
                    "velocity": 0.7086614173228346
                },
                {
                    "duration": 0.09057979166668417,
                    "durationTicks": 50,
                    "midi": 38,
                    "name": "D2",
                    "ticks": 55200,
                    "time": 100.00009,
                    "velocity": 0.6299212598425197
                },
                {
                    "duration": 0.09057979166666996,
                    "durationTicks": 50,
                    "midi": 38,
                    "name": "D2",
                    "ticks": 55372,
                    "time": 100.31168448333334,
                    "velocity": 0.15748031496062992
                },
                {
                    "duration": 0.09057979166666996,
                    "durationTicks": 50,
                    "midi": 48,
                    "name": "C3",
                    "ticks": 55372,
                    "time": 100.31168448333334,
                    "velocity": 0.31496062992125984
                },
                {
                    "duration": 0.09057979166666996,
                    "durationTicks": 50,
                    "midi": 38,
                    "name": "D2",
                    "ticks": 55440,
                    "time": 100.43487300000001,
                    "velocity": 0.7874015748031497
                },
                {
                    "duration": 0.09057979166666996,
                    "durationTicks": 50,
                    "midi": 42,
                    "name": "F#2",
                    "ticks": 55440,
                    "time": 100.43487300000001,
                    "velocity": 0.6299212598425197
                },
                {
                    "duration": 0.09057979166666996,
                    "durationTicks": 50,
                    "midi": 37,
                    "name": "C#2",
                    "ticks": 55440,
                    "time": 100.43487300000001,
                    "velocity": 0.6299212598425197
                },
                {
                    "duration": 0.09057979166666996,
                    "durationTicks": 50,
                    "midi": 45,
                    "name": "A2",
                    "ticks": 55440,
                    "time": 100.43487300000001,
                    "velocity": 0.3937007874015748
                },
                {
                    "duration": 0.09057979166666996,
                    "durationTicks": 50,
                    "midi": 38,
                    "name": "D2",
                    "ticks": 55612,
                    "time": 100.74646748333335,
                    "velocity": 0.5511811023622047
                },
                {
                    "duration": 0.09057979166666996,
                    "durationTicks": 50,
                    "midi": 38,
                    "name": "D2",
                    "ticks": 55680,
                    "time": 100.869656,
                    "velocity": 0.6299212598425197
                },
                {
                    "duration": 0.09057979166666996,
                    "durationTicks": 50,
                    "midi": 38,
                    "name": "D2",
                    "ticks": 55856,
                    "time": 101.18849686666667,
                    "velocity": 0.15748031496062992
                },
                {
                    "duration": 0.09057979166666996,
                    "durationTicks": 50,
                    "midi": 38,
                    "name": "D2",
                    "ticks": 55920,
                    "time": 101.304439,
                    "velocity": 0.7874015748031497
                },
                {
                    "duration": 0.09057979166666996,
                    "durationTicks": 50,
                    "midi": 42,
                    "name": "F#2",
                    "ticks": 55920,
                    "time": 101.304439,
                    "velocity": 0.5511811023622047
                },
                {
                    "duration": 0.09057979166666996,
                    "durationTicks": 50,
                    "midi": 38,
                    "name": "D2",
                    "ticks": 56096,
                    "time": 101.62327986666666,
                    "velocity": 0.7086614173228346
                },
                {
                    "duration": 0.09057979166666996,
                    "durationTicks": 50,
                    "midi": 38,
                    "name": "D2",
                    "ticks": 56160,
                    "time": 101.73922200000001,
                    "velocity": 0.6299212598425197
                },
                {
                    "duration": 0.09057979166666996,
                    "durationTicks": 50,
                    "midi": 38,
                    "name": "D2",
                    "ticks": 56336,
                    "time": 102.05806286666667,
                    "velocity": 0.15748031496062992
                },
                {
                    "duration": 0.09057979166666996,
                    "durationTicks": 50,
                    "midi": 38,
                    "name": "D2",
                    "ticks": 56400,
                    "time": 102.17400500000001,
                    "velocity": 0.7874015748031497
                },
                {
                    "duration": 0.09057979166666996,
                    "durationTicks": 50,
                    "midi": 42,
                    "name": "F#2",
                    "ticks": 56400,
                    "time": 102.17400500000001,
                    "velocity": 0.6299212598425197
                },
                {
                    "duration": 0.09057979166666996,
                    "durationTicks": 50,
                    "midi": 37,
                    "name": "C#2",
                    "ticks": 56400,
                    "time": 102.17400500000001,
                    "velocity": 0.5511811023622047
                },
                {
                    "duration": 0.09057979166666996,
                    "durationTicks": 50,
                    "midi": 38,
                    "name": "D2",
                    "ticks": 56576,
                    "time": 102.49284586666667,
                    "velocity": 0.5511811023622047
                },
                {
                    "duration": 0.09057979166666996,
                    "durationTicks": 50,
                    "midi": 38,
                    "name": "D2",
                    "ticks": 56640,
                    "time": 102.608788,
                    "velocity": 0.6299212598425197
                },
                {
                    "duration": 0.09057979166666996,
                    "durationTicks": 50,
                    "midi": 38,
                    "name": "D2",
                    "ticks": 56816,
                    "time": 102.92762886666667,
                    "velocity": 0.4251968503937008
                },
                {
                    "duration": 0.09057979166666996,
                    "durationTicks": 50,
                    "midi": 38,
                    "name": "D2",
                    "ticks": 56880,
                    "time": 103.04357100000001,
                    "velocity": 0.7874015748031497
                },
                {
                    "duration": 0.09057979166666996,
                    "durationTicks": 50,
                    "midi": 42,
                    "name": "F#2",
                    "ticks": 56880,
                    "time": 103.04357100000001,
                    "velocity": 0.5511811023622047
                },
                {
                    "duration": 0.09057979166668417,
                    "durationTicks": 50,
                    "midi": 38,
                    "name": "D2",
                    "ticks": 57056,
                    "time": 103.36241186666666,
                    "velocity": 0.7086614173228346
                },
                {
                    "duration": 0.09057979166666996,
                    "durationTicks": 50,
                    "midi": 38,
                    "name": "D2",
                    "ticks": 57120,
                    "time": 103.47835400000001,
                    "velocity": 0.6299212598425197
                },
                {
                    "duration": 0.09057979166666996,
                    "durationTicks": 50,
                    "midi": 38,
                    "name": "D2",
                    "ticks": 57296,
                    "time": 103.79719486666667,
                    "velocity": 0.15748031496062992
                },
                {
                    "duration": 0.09057979166666996,
                    "durationTicks": 50,
                    "midi": 38,
                    "name": "D2",
                    "ticks": 57360,
                    "time": 103.913137,
                    "velocity": 0.7874015748031497
                },
                {
                    "duration": 0.09057979166666996,
                    "durationTicks": 50,
                    "midi": 42,
                    "name": "F#2",
                    "ticks": 57360,
                    "time": 103.913137,
                    "velocity": 0.6299212598425197
                },
                {
                    "duration": 0.09057979166666996,
                    "durationTicks": 50,
                    "midi": 37,
                    "name": "C#2",
                    "ticks": 57360,
                    "time": 103.913137,
                    "velocity": 0.5511811023622047
                },
                {
                    "duration": 0.09057979166666996,
                    "durationTicks": 50,
                    "midi": 38,
                    "name": "D2",
                    "ticks": 57536,
                    "time": 104.23197786666667,
                    "velocity": 0.5511811023622047
                },
                {
                    "duration": 0.09057979166666996,
                    "durationTicks": 50,
                    "midi": 38,
                    "name": "D2",
                    "ticks": 57600,
                    "time": 104.34792,
                    "velocity": 0.6299212598425197
                },
                {
                    "duration": 0.09057979166666996,
                    "durationTicks": 50,
                    "midi": 38,
                    "name": "D2",
                    "ticks": 57772,
                    "time": 104.65951448333334,
                    "velocity": 0.15748031496062992
                },
                {
                    "duration": 0.09057979166666996,
                    "durationTicks": 50,
                    "midi": 38,
                    "name": "D2",
                    "ticks": 57840,
                    "time": 104.78270300000001,
                    "velocity": 0.7874015748031497
                },
                {
                    "duration": 0.09057979166666996,
                    "durationTicks": 50,
                    "midi": 42,
                    "name": "F#2",
                    "ticks": 57840,
                    "time": 104.78270300000001,
                    "velocity": 0.5511811023622047
                },
                {
                    "duration": 0.09057979166668417,
                    "durationTicks": 50,
                    "midi": 38,
                    "name": "D2",
                    "ticks": 58012,
                    "time": 105.09429748333334,
                    "velocity": 0.7086614173228346
                },
                {
                    "duration": 0.09057979166666996,
                    "durationTicks": 50,
                    "midi": 38,
                    "name": "D2",
                    "ticks": 58080,
                    "time": 105.21748600000001,
                    "velocity": 0.6299212598425197
                },
                {
                    "duration": 0.09057979166666996,
                    "durationTicks": 50,
                    "midi": 38,
                    "name": "D2",
                    "ticks": 58252,
                    "time": 105.52908048333335,
                    "velocity": 0.15748031496062992
                },
                {
                    "duration": 0.09057979166666996,
                    "durationTicks": 50,
                    "midi": 38,
                    "name": "D2",
                    "ticks": 58320,
                    "time": 105.652269,
                    "velocity": 0.7874015748031497
                },
                {
                    "duration": 0.09057979166666996,
                    "durationTicks": 50,
                    "midi": 42,
                    "name": "F#2",
                    "ticks": 58320,
                    "time": 105.652269,
                    "velocity": 0.6299212598425197
                },
                {
                    "duration": 0.09057979166666996,
                    "durationTicks": 50,
                    "midi": 37,
                    "name": "C#2",
                    "ticks": 58320,
                    "time": 105.652269,
                    "velocity": 0.5511811023622047
                },
                {
                    "duration": 0.09057979166666996,
                    "durationTicks": 50,
                    "midi": 38,
                    "name": "D2",
                    "ticks": 58492,
                    "time": 105.96386348333334,
                    "velocity": 0.5511811023622047
                },
                {
                    "duration": 0.09057979166666996,
                    "durationTicks": 50,
                    "midi": 38,
                    "name": "D2",
                    "ticks": 58560,
                    "time": 106.08705200000001,
                    "velocity": 0.6299212598425197
                },
                {
                    "duration": 0.09057979166666996,
                    "durationTicks": 50,
                    "midi": 38,
                    "name": "D2",
                    "ticks": 58738,
                    "time": 106.40951605833334,
                    "velocity": 0.15748031496062992
                },
                {
                    "duration": 0.09057979166666996,
                    "durationTicks": 50,
                    "midi": 38,
                    "name": "D2",
                    "ticks": 58800,
                    "time": 106.52183500000001,
                    "velocity": 0.7874015748031497
                },
                {
                    "duration": 0.09057979166666996,
                    "durationTicks": 50,
                    "midi": 42,
                    "name": "F#2",
                    "ticks": 58800,
                    "time": 106.52183500000001,
                    "velocity": 0.5511811023622047
                },
                {
                    "duration": 0.09057979166665575,
                    "durationTicks": 50,
                    "midi": 38,
                    "name": "D2",
                    "ticks": 58978,
                    "time": 106.84429905833335,
                    "velocity": 0.7086614173228346
                },
                {
                    "duration": 0.09057979166666996,
                    "durationTicks": 50,
                    "midi": 38,
                    "name": "D2",
                    "ticks": 59040,
                    "time": 106.956618,
                    "velocity": 0.6299212598425197
                },
                {
                    "duration": 0.09057979166665575,
                    "durationTicks": 50,
                    "midi": 38,
                    "name": "D2",
                    "ticks": 59218,
                    "time": 107.27908205833334,
                    "velocity": 0.15748031496062992
                },
                {
                    "duration": 0.09057979166666996,
                    "durationTicks": 50,
                    "midi": 38,
                    "name": "D2",
                    "ticks": 59280,
                    "time": 107.391401,
                    "velocity": 0.7874015748031497
                },
                {
                    "duration": 0.09057979166666996,
                    "durationTicks": 50,
                    "midi": 42,
                    "name": "F#2",
                    "ticks": 59280,
                    "time": 107.391401,
                    "velocity": 0.6299212598425197
                },
                {
                    "duration": 0.09057979166666996,
                    "durationTicks": 50,
                    "midi": 37,
                    "name": "C#2",
                    "ticks": 59280,
                    "time": 107.391401,
                    "velocity": 0.5511811023622047
                },
                {
                    "duration": 0.09057979166665575,
                    "durationTicks": 50,
                    "midi": 38,
                    "name": "D2",
                    "ticks": 59458,
                    "time": 107.71386505833334,
                    "velocity": 0.5511811023622047
                },
                {
                    "duration": 0.09057979166666996,
                    "durationTicks": 50,
                    "midi": 38,
                    "name": "D2",
                    "ticks": 59520,
                    "time": 107.82618400000001,
                    "velocity": 0.6299212598425197
                },
                {
                    "duration": 0.09057979166668417,
                    "durationTicks": 50,
                    "midi": 38,
                    "name": "D2",
                    "ticks": 59692,
                    "time": 108.13777848333334,
                    "velocity": 0.15748031496062992
                },
                {
                    "duration": 0.09057979166666996,
                    "durationTicks": 50,
                    "midi": 38,
                    "name": "D2",
                    "ticks": 59760,
                    "time": 108.26096700000001,
                    "velocity": 0.7874015748031497
                },
                {
                    "duration": 0.09057979166666996,
                    "durationTicks": 50,
                    "midi": 42,
                    "name": "F#2",
                    "ticks": 59760,
                    "time": 108.26096700000001,
                    "velocity": 0.5511811023622047
                },
                {
                    "duration": 0.09057979166666996,
                    "durationTicks": 50,
                    "midi": 38,
                    "name": "D2",
                    "ticks": 59932,
                    "time": 108.57256148333335,
                    "velocity": 0.7086614173228346
                },
                {
                    "duration": 0.09057979166666996,
                    "durationTicks": 50,
                    "midi": 38,
                    "name": "D2",
                    "ticks": 60000,
                    "time": 108.69575,
                    "velocity": 0.6299212598425197
                },
                {
                    "duration": 0.09057979166666996,
                    "durationTicks": 50,
                    "midi": 38,
                    "name": "D2",
                    "ticks": 60172,
                    "time": 109.00734448333334,
                    "velocity": 0.15748031496062992
                },
                {
                    "duration": 0.09057979166666996,
                    "durationTicks": 50,
                    "midi": 38,
                    "name": "D2",
                    "ticks": 60240,
                    "time": 109.13053300000001,
                    "velocity": 0.7874015748031497
                },
                {
                    "duration": 0.09057979166666996,
                    "durationTicks": 50,
                    "midi": 42,
                    "name": "F#2",
                    "ticks": 60240,
                    "time": 109.13053300000001,
                    "velocity": 0.6299212598425197
                },
                {
                    "duration": 0.09057979166666996,
                    "durationTicks": 50,
                    "midi": 37,
                    "name": "C#2",
                    "ticks": 60240,
                    "time": 109.13053300000001,
                    "velocity": 0.5511811023622047
                },
                {
                    "duration": 0.09057979166666996,
                    "durationTicks": 50,
                    "midi": 38,
                    "name": "D2",
                    "ticks": 60412,
                    "time": 109.44212748333334,
                    "velocity": 0.5511811023622047
                },
                {
                    "duration": 0.09057979166666996,
                    "durationTicks": 50,
                    "midi": 38,
                    "name": "D2",
                    "ticks": 60480,
                    "time": 109.56531600000001,
                    "velocity": 0.6299212598425197
                },
                {
                    "duration": 0.09057979166665575,
                    "durationTicks": 50,
                    "midi": 38,
                    "name": "D2",
                    "ticks": 60658,
                    "time": 109.88778005833335,
                    "velocity": 0.15748031496062992
                },
                {
                    "duration": 0.09057979166666996,
                    "durationTicks": 50,
                    "midi": 38,
                    "name": "D2",
                    "ticks": 60720,
                    "time": 110.000099,
                    "velocity": 0.7874015748031497
                },
                {
                    "duration": 0.09057979166666996,
                    "durationTicks": 50,
                    "midi": 42,
                    "name": "F#2",
                    "ticks": 60720,
                    "time": 110.000099,
                    "velocity": 0.5511811023622047
                },
                {
                    "duration": 0.09057979166665575,
                    "durationTicks": 50,
                    "midi": 38,
                    "name": "D2",
                    "ticks": 60898,
                    "time": 110.32256305833334,
                    "velocity": 0.7086614173228346
                },
                {
                    "duration": 0.09057979166666996,
                    "durationTicks": 50,
                    "midi": 38,
                    "name": "D2",
                    "ticks": 60960,
                    "time": 110.434882,
                    "velocity": 0.6299212598425197
                },
                {
                    "duration": 0.09057979166665575,
                    "durationTicks": 50,
                    "midi": 38,
                    "name": "D2",
                    "ticks": 61138,
                    "time": 110.75734605833334,
                    "velocity": 0.15748031496062992
                },
                {
                    "duration": 0.09057979166666996,
                    "durationTicks": 50,
                    "midi": 38,
                    "name": "D2",
                    "ticks": 61200,
                    "time": 110.86966500000001,
                    "velocity": 0.7874015748031497
                },
                {
                    "duration": 0.09057979166666996,
                    "durationTicks": 50,
                    "midi": 42,
                    "name": "F#2",
                    "ticks": 61200,
                    "time": 110.86966500000001,
                    "velocity": 0.6299212598425197
                },
                {
                    "duration": 0.09057979166666996,
                    "durationTicks": 50,
                    "midi": 37,
                    "name": "C#2",
                    "ticks": 61200,
                    "time": 110.86966500000001,
                    "velocity": 0.5511811023622047
                },
                {
                    "duration": 0.09057979166665575,
                    "durationTicks": 50,
                    "midi": 38,
                    "name": "D2",
                    "ticks": 61378,
                    "time": 111.19212905833335,
                    "velocity": 0.5511811023622047
                },
                {
                    "duration": 0.09057979166665575,
                    "durationTicks": 50,
                    "midi": 38,
                    "name": "D2",
                    "ticks": 61440,
                    "time": 111.30444800000001,
                    "velocity": 0.6299212598425197
                },
                {
                    "duration": 0.09057979166665575,
                    "durationTicks": 50,
                    "midi": 38,
                    "name": "D2",
                    "ticks": 61618,
                    "time": 111.62691205833335,
                    "velocity": 0.15748031496062992
                },
                {
                    "duration": 0.09057979166665575,
                    "durationTicks": 50,
                    "midi": 38,
                    "name": "D2",
                    "ticks": 61680,
                    "time": 111.739231,
                    "velocity": 0.7874015748031497
                },
                {
                    "duration": 0.09057979166665575,
                    "durationTicks": 50,
                    "midi": 42,
                    "name": "F#2",
                    "ticks": 61680,
                    "time": 111.739231,
                    "velocity": 0.5511811023622047
                },
                {
                    "duration": 0.09057979166665575,
                    "durationTicks": 50,
                    "midi": 38,
                    "name": "D2",
                    "ticks": 61858,
                    "time": 112.06169505833334,
                    "velocity": 0.7086614173228346
                },
                {
                    "duration": 0.09057979166665575,
                    "durationTicks": 50,
                    "midi": 38,
                    "name": "D2",
                    "ticks": 61920,
                    "time": 112.17401400000001,
                    "velocity": 0.6299212598425197
                },
                {
                    "duration": 0.09057979166666996,
                    "durationTicks": 50,
                    "midi": 38,
                    "name": "D2",
                    "ticks": 62098,
                    "time": 112.49647805833334,
                    "velocity": 0.15748031496062992
                },
                {
                    "duration": 0.09057979166665575,
                    "durationTicks": 50,
                    "midi": 38,
                    "name": "D2",
                    "ticks": 62160,
                    "time": 112.60879700000001,
                    "velocity": 0.7874015748031497
                },
                {
                    "duration": 0.09057979166665575,
                    "durationTicks": 50,
                    "midi": 42,
                    "name": "F#2",
                    "ticks": 62160,
                    "time": 112.60879700000001,
                    "velocity": 0.6299212598425197
                },
                {
                    "duration": 0.09057979166665575,
                    "durationTicks": 50,
                    "midi": 37,
                    "name": "C#2",
                    "ticks": 62160,
                    "time": 112.60879700000001,
                    "velocity": 0.5511811023622047
                },
                {
                    "duration": 0.09057979166665575,
                    "durationTicks": 50,
                    "midi": 38,
                    "name": "D2",
                    "ticks": 62338,
                    "time": 112.93126105833335,
                    "velocity": 0.5511811023622047
                },
                {
                    "duration": 0.09057979166665575,
                    "durationTicks": 50,
                    "midi": 38,
                    "name": "D2",
                    "ticks": 62400,
                    "time": 113.04358,
                    "velocity": 0.6299212598425197
                },
                {
                    "duration": 0.09057979166668417,
                    "durationTicks": 50,
                    "midi": 38,
                    "name": "D2",
                    "ticks": 62572,
                    "time": 113.35517448333333,
                    "velocity": 0.15748031496062992
                },
                {
                    "duration": 0.09057979166666996,
                    "durationTicks": 50,
                    "midi": 38,
                    "name": "D2",
                    "ticks": 62640,
                    "time": 113.478363,
                    "velocity": 0.7874015748031497
                },
                {
                    "duration": 0.09057979166666996,
                    "durationTicks": 50,
                    "midi": 42,
                    "name": "F#2",
                    "ticks": 62640,
                    "time": 113.478363,
                    "velocity": 0.5511811023622047
                },
                {
                    "duration": 0.09057979166668417,
                    "durationTicks": 50,
                    "midi": 38,
                    "name": "D2",
                    "ticks": 62812,
                    "time": 113.78995748333332,
                    "velocity": 0.7086614173228346
                },
                {
                    "duration": 0.09057979166665575,
                    "durationTicks": 50,
                    "midi": 38,
                    "name": "D2",
                    "ticks": 62880,
                    "time": 113.91314600000001,
                    "velocity": 0.6299212598425197
                },
                {
                    "duration": 0.09057979166668417,
                    "durationTicks": 50,
                    "midi": 38,
                    "name": "D2",
                    "ticks": 63052,
                    "time": 114.22474048333333,
                    "velocity": 0.15748031496062992
                },
                {
                    "duration": 0.09057979166668417,
                    "durationTicks": 50,
                    "midi": 48,
                    "name": "C3",
                    "ticks": 63052,
                    "time": 114.22474048333333,
                    "velocity": 0.31496062992125984
                },
                {
                    "duration": 0.09057979166665575,
                    "durationTicks": 50,
                    "midi": 38,
                    "name": "D2",
                    "ticks": 63120,
                    "time": 114.34792900000001,
                    "velocity": 0.7874015748031497
                },
                {
                    "duration": 0.09057979166665575,
                    "durationTicks": 50,
                    "midi": 42,
                    "name": "F#2",
                    "ticks": 63120,
                    "time": 114.34792900000001,
                    "velocity": 0.6299212598425197
                },
                {
                    "duration": 0.09057979166665575,
                    "durationTicks": 50,
                    "midi": 37,
                    "name": "C#2",
                    "ticks": 63120,
                    "time": 114.34792900000001,
                    "velocity": 0.6299212598425197
                },
                {
                    "duration": 0.09057979166665575,
                    "durationTicks": 50,
                    "midi": 45,
                    "name": "A2",
                    "ticks": 63120,
                    "time": 114.34792900000001,
                    "velocity": 0.3937007874015748
                },
                {
                    "duration": 0.09057979166668417,
                    "durationTicks": 50,
                    "midi": 38,
                    "name": "D2",
                    "ticks": 63292,
                    "time": 114.65952348333333,
                    "velocity": 0.5511811023622047
                },
                {
                    "duration": 0.09057979166666996,
                    "durationTicks": 50,
                    "midi": 38,
                    "name": "D2",
                    "ticks": 63360,
                    "time": 114.782712,
                    "velocity": 0.6299212598425197
                },
                {
                    "duration": 0.09057979166668417,
                    "durationTicks": 50,
                    "midi": 38,
                    "name": "D2",
                    "ticks": 63532,
                    "time": 115.09430648333333,
                    "velocity": 0.15748031496062992
                },
                {
                    "duration": 0.09057979166665575,
                    "durationTicks": 50,
                    "midi": 38,
                    "name": "D2",
                    "ticks": 63600,
                    "time": 115.21749500000001,
                    "velocity": 0.7874015748031497
                },
                {
                    "duration": 0.09057979166665575,
                    "durationTicks": 50,
                    "midi": 42,
                    "name": "F#2",
                    "ticks": 63600,
                    "time": 115.21749500000001,
                    "velocity": 0.5511811023622047
                },
                {
                    "duration": 0.09057979166666996,
                    "durationTicks": 50,
                    "midi": 38,
                    "name": "D2",
                    "ticks": 63772,
                    "time": 115.52908948333334,
                    "velocity": 0.7086614173228346
                },
                {
                    "duration": 0.09057979166665575,
                    "durationTicks": 50,
                    "midi": 38,
                    "name": "D2",
                    "ticks": 63840,
                    "time": 115.65227800000001,
                    "velocity": 0.6299212598425197
                },
                {
                    "duration": 0.09057979166668417,
                    "durationTicks": 50,
                    "midi": 38,
                    "name": "D2",
                    "ticks": 64012,
                    "time": 115.96387248333333,
                    "velocity": 0.15748031496062992
                },
                {
                    "duration": 0.09057979166665575,
                    "durationTicks": 50,
                    "midi": 38,
                    "name": "D2",
                    "ticks": 64080,
                    "time": 116.087061,
                    "velocity": 0.7874015748031497
                },
                {
                    "duration": 0.09057979166665575,
                    "durationTicks": 50,
                    "midi": 42,
                    "name": "F#2",
                    "ticks": 64080,
                    "time": 116.087061,
                    "velocity": 0.6299212598425197
                },
                {
                    "duration": 0.09057979166665575,
                    "durationTicks": 50,
                    "midi": 37,
                    "name": "C#2",
                    "ticks": 64080,
                    "time": 116.087061,
                    "velocity": 0.47244094488188976
                },
                {
                    "duration": 0.09057979166668417,
                    "durationTicks": 50,
                    "midi": 38,
                    "name": "D2",
                    "ticks": 64252,
                    "time": 116.39865548333333,
                    "velocity": 0.5511811023622047
                },
                {
                    "duration": 0.09057979166666996,
                    "durationTicks": 50,
                    "midi": 38,
                    "name": "D2",
                    "ticks": 64320,
                    "time": 116.521844,
                    "velocity": 0.6299212598425197
                },
                {
                    "duration": 0.09057979166666996,
                    "durationTicks": 50,
                    "midi": 38,
                    "name": "D2",
                    "ticks": 64498,
                    "time": 116.84430805833334,
                    "velocity": 0.23622047244094488
                },
                {
                    "duration": 0.09057979166665575,
                    "durationTicks": 50,
                    "midi": 38,
                    "name": "D2",
                    "ticks": 64560,
                    "time": 116.95662700000001,
                    "velocity": 0.7874015748031497
                },
                {
                    "duration": 0.09057979166665575,
                    "durationTicks": 50,
                    "midi": 42,
                    "name": "F#2",
                    "ticks": 64560,
                    "time": 116.95662700000001,
                    "velocity": 0.5511811023622047
                },
                {
                    "duration": 0.09057979166665575,
                    "durationTicks": 50,
                    "midi": 38,
                    "name": "D2",
                    "ticks": 64738,
                    "time": 117.27909105833335,
                    "velocity": 0.7086614173228346
                },
                {
                    "duration": 0.09057979166665575,
                    "durationTicks": 50,
                    "midi": 38,
                    "name": "D2",
                    "ticks": 64800,
                    "time": 117.39141000000001,
                    "velocity": 0.6299212598425197
                },
                {
                    "duration": 0.09057979166665575,
                    "durationTicks": 50,
                    "midi": 38,
                    "name": "D2",
                    "ticks": 64978,
                    "time": 117.71387405833335,
                    "velocity": 0.15748031496062992
                },
                {
                    "duration": 0.09057979166666996,
                    "durationTicks": 50,
                    "midi": 38,
                    "name": "D2",
                    "ticks": 65040,
                    "time": 117.826193,
                    "velocity": 0.7874015748031497
                },
                {
                    "duration": 0.09057979166666996,
                    "durationTicks": 50,
                    "midi": 42,
                    "name": "F#2",
                    "ticks": 65040,
                    "time": 117.826193,
                    "velocity": 0.6299212598425197
                },
                {
                    "duration": 0.09057979166665575,
                    "durationTicks": 50,
                    "midi": 38,
                    "name": "D2",
                    "ticks": 65218,
                    "time": 118.14865705833334,
                    "velocity": 0.5511811023622047
                },
                {
                    "duration": 0.09057979166665575,
                    "durationTicks": 50,
                    "midi": 38,
                    "name": "D2",
                    "ticks": 65280,
                    "time": 118.26097600000001,
                    "velocity": 0.6299212598425197
                },
                {
                    "duration": 0.09057979166666996,
                    "durationTicks": 50,
                    "midi": 38,
                    "name": "D2",
                    "ticks": 65452,
                    "time": 118.57257048333334,
                    "velocity": 0.23622047244094488
                },
                {
                    "duration": 0.09057979166665575,
                    "durationTicks": 50,
                    "midi": 38,
                    "name": "D2",
                    "ticks": 65520,
                    "time": 118.69575900000001,
                    "velocity": 0.7874015748031497
                },
                {
                    "duration": 0.09057979166665575,
                    "durationTicks": 50,
                    "midi": 42,
                    "name": "F#2",
                    "ticks": 65520,
                    "time": 118.69575900000001,
                    "velocity": 0.5511811023622047
                },
                {
                    "duration": 0.09057979166668417,
                    "durationTicks": 50,
                    "midi": 38,
                    "name": "D2",
                    "ticks": 65692,
                    "time": 119.00735348333333,
                    "velocity": 0.7086614173228346
                },
                {
                    "duration": 0.09057979166665575,
                    "durationTicks": 50,
                    "midi": 38,
                    "name": "D2",
                    "ticks": 65760,
                    "time": 119.130542,
                    "velocity": 0.6299212598425197
                },
                {
                    "duration": 0.09057979166668417,
                    "durationTicks": 50,
                    "midi": 38,
                    "name": "D2",
                    "ticks": 65932,
                    "time": 119.44213648333333,
                    "velocity": 0.15748031496062992
                },
                {
                    "duration": 0.09057979166666996,
                    "durationTicks": 50,
                    "midi": 38,
                    "name": "D2",
                    "ticks": 66000,
                    "time": 119.565325,
                    "velocity": 0.7874015748031497
                },
                {
                    "duration": 0.09057979166666996,
                    "durationTicks": 50,
                    "midi": 42,
                    "name": "F#2",
                    "ticks": 66000,
                    "time": 119.565325,
                    "velocity": 0.6299212598425197
                },
                {
                    "duration": 0.09057979166666996,
                    "durationTicks": 50,
                    "midi": 37,
                    "name": "C#2",
                    "ticks": 66000,
                    "time": 119.565325,
                    "velocity": 0.47244094488188976
                },
                {
                    "duration": 0.09057979166668417,
                    "durationTicks": 50,
                    "midi": 38,
                    "name": "D2",
                    "ticks": 66172,
                    "time": 119.87691948333332,
                    "velocity": 0.5511811023622047
                },
                {
                    "duration": 0.09057979166665575,
                    "durationTicks": 50,
                    "midi": 38,
                    "name": "D2",
                    "ticks": 66240,
                    "time": 120.00010800000001,
                    "velocity": 0.6299212598425197
                },
                {
                    "duration": 0.09057979166665575,
                    "durationTicks": 50,
                    "midi": 38,
                    "name": "D2",
                    "ticks": 66418,
                    "time": 120.32257205833335,
                    "velocity": 0.23622047244094488
                },
                {
                    "duration": 0.09057979166665575,
                    "durationTicks": 50,
                    "midi": 38,
                    "name": "D2",
                    "ticks": 66480,
                    "time": 120.43489100000001,
                    "velocity": 0.7874015748031497
                },
                {
                    "duration": 0.09057979166665575,
                    "durationTicks": 50,
                    "midi": 42,
                    "name": "F#2",
                    "ticks": 66480,
                    "time": 120.43489100000001,
                    "velocity": 0.5511811023622047
                },
                {
                    "duration": 0.09057979166665575,
                    "durationTicks": 50,
                    "midi": 38,
                    "name": "D2",
                    "ticks": 66658,
                    "time": 120.75735505833335,
                    "velocity": 0.7086614173228346
                },
                {
                    "duration": 0.09057979166666996,
                    "durationTicks": 50,
                    "midi": 38,
                    "name": "D2",
                    "ticks": 66720,
                    "time": 120.869674,
                    "velocity": 0.6299212598425197
                },
                {
                    "duration": 0.09057979166665575,
                    "durationTicks": 50,
                    "midi": 38,
                    "name": "D2",
                    "ticks": 66898,
                    "time": 121.19213805833334,
                    "velocity": 0.15748031496062992
                },
                {
                    "duration": 0.09057979166665575,
                    "durationTicks": 50,
                    "midi": 38,
                    "name": "D2",
                    "ticks": 66960,
                    "time": 121.30445700000001,
                    "velocity": 0.7874015748031497
                },
                {
                    "duration": 0.09057979166665575,
                    "durationTicks": 50,
                    "midi": 42,
                    "name": "F#2",
                    "ticks": 66960,
                    "time": 121.30445700000001,
                    "velocity": 0.6299212598425197
                },
                {
                    "duration": 0.09057979166665575,
                    "durationTicks": 50,
                    "midi": 38,
                    "name": "D2",
                    "ticks": 67138,
                    "time": 121.62692105833335,
                    "velocity": 0.5511811023622047
                },
                {
                    "duration": 0.09057979166665575,
                    "durationTicks": 50,
                    "midi": 38,
                    "name": "D2",
                    "ticks": 67200,
                    "time": 121.73924000000001,
                    "velocity": 0.6299212598425197
                },
                {
                    "duration": 0.09057979166665575,
                    "durationTicks": 50,
                    "midi": 38,
                    "name": "D2",
                    "ticks": 67378,
                    "time": 122.06170405833335,
                    "velocity": 0.23622047244094488
                },
                {
                    "duration": 0.09057979166665575,
                    "durationTicks": 50,
                    "midi": 38,
                    "name": "D2",
                    "ticks": 67440,
                    "time": 122.174023,
                    "velocity": 0.7874015748031497
                },
                {
                    "duration": 0.09057979166665575,
                    "durationTicks": 50,
                    "midi": 42,
                    "name": "F#2",
                    "ticks": 67440,
                    "time": 122.174023,
                    "velocity": 0.5511811023622047
                },
                {
                    "duration": 0.09057979166665575,
                    "durationTicks": 50,
                    "midi": 38,
                    "name": "D2",
                    "ticks": 67618,
                    "time": 122.49648705833334,
                    "velocity": 0.7086614173228346
                },
                {
                    "duration": 0.09057979166665575,
                    "durationTicks": 50,
                    "midi": 38,
                    "name": "D2",
                    "ticks": 67680,
                    "time": 122.60880600000002,
                    "velocity": 0.6299212598425197
                },
                {
                    "duration": 0.09057979166666996,
                    "durationTicks": 50,
                    "midi": 38,
                    "name": "D2",
                    "ticks": 67858,
                    "time": 122.93127005833334,
                    "velocity": 0.15748031496062992
                },
                {
                    "duration": 0.09057979166665575,
                    "durationTicks": 50,
                    "midi": 38,
                    "name": "D2",
                    "ticks": 67920,
                    "time": 123.04358900000001,
                    "velocity": 0.7874015748031497
                },
                {
                    "duration": 0.09057979166665575,
                    "durationTicks": 50,
                    "midi": 42,
                    "name": "F#2",
                    "ticks": 67920,
                    "time": 123.04358900000001,
                    "velocity": 0.6299212598425197
                },
                {
                    "duration": 0.09057979166665575,
                    "durationTicks": 50,
                    "midi": 38,
                    "name": "D2",
                    "ticks": 68098,
                    "time": 123.36605305833335,
                    "velocity": 0.5511811023622047
                },
                {
                    "duration": 0.09057979166665575,
                    "durationTicks": 50,
                    "midi": 38,
                    "name": "D2",
                    "ticks": 68160,
                    "time": 123.47837200000001,
                    "velocity": 0.6299212598425197
                },
                {
                    "duration": 0.09057979166665575,
                    "durationTicks": 50,
                    "midi": 38,
                    "name": "D2",
                    "ticks": 68338,
                    "time": 123.80083605833335,
                    "velocity": 0.23622047244094488
                },
                {
                    "duration": 0.09057979166666996,
                    "durationTicks": 50,
                    "midi": 38,
                    "name": "D2",
                    "ticks": 68400,
                    "time": 123.913155,
                    "velocity": 0.7874015748031497
                },
                {
                    "duration": 0.09057979166666996,
                    "durationTicks": 50,
                    "midi": 42,
                    "name": "F#2",
                    "ticks": 68400,
                    "time": 123.913155,
                    "velocity": 0.5511811023622047
                },
                {
                    "duration": 0.09057979166665575,
                    "durationTicks": 50,
                    "midi": 38,
                    "name": "D2",
                    "ticks": 68578,
                    "time": 124.23561905833334,
                    "velocity": 0.7086614173228346
                },
                {
                    "duration": 0.09057979166665575,
                    "durationTicks": 50,
                    "midi": 38,
                    "name": "D2",
                    "ticks": 68640,
                    "time": 124.34793800000001,
                    "velocity": 0.6299212598425197
                },
                {
                    "duration": 0.09057979166665575,
                    "durationTicks": 50,
                    "midi": 38,
                    "name": "D2",
                    "ticks": 68818,
                    "time": 124.67040205833335,
                    "velocity": 0.15748031496062992
                },
                {
                    "duration": 0.09057979166665575,
                    "durationTicks": 50,
                    "midi": 38,
                    "name": "D2",
                    "ticks": 68880,
                    "time": 124.78272100000001,
                    "velocity": 0.7874015748031497
                },
                {
                    "duration": 0.09057979166665575,
                    "durationTicks": 50,
                    "midi": 42,
                    "name": "F#2",
                    "ticks": 68880,
                    "time": 124.78272100000001,
                    "velocity": 0.6299212598425197
                },
                {
                    "duration": 0.09057979166665575,
                    "durationTicks": 50,
                    "midi": 38,
                    "name": "D2",
                    "ticks": 69058,
                    "time": 125.10518505833335,
                    "velocity": 0.5511811023622047
                },
                {
                    "duration": 0.09057979166665575,
                    "durationTicks": 50,
                    "midi": 38,
                    "name": "D2",
                    "ticks": 69120,
                    "time": 125.217504,
                    "velocity": 0.6299212598425197
                },
                {
                    "duration": 0.09057979166668417,
                    "durationTicks": 50,
                    "midi": 38,
                    "name": "D2",
                    "ticks": 69292,
                    "time": 125.52909848333333,
                    "velocity": 0.15748031496062992
                },
                {
                    "duration": 0.09057979166665575,
                    "durationTicks": 50,
                    "midi": 38,
                    "name": "D2",
                    "ticks": 69360,
                    "time": 125.65228700000002,
                    "velocity": 0.7874015748031497
                },
                {
                    "duration": 0.09057979166665575,
                    "durationTicks": 50,
                    "midi": 42,
                    "name": "F#2",
                    "ticks": 69360,
                    "time": 125.65228700000002,
                    "velocity": 0.5511811023622047
                },
                {
                    "duration": 0.09057979166668417,
                    "durationTicks": 50,
                    "midi": 38,
                    "name": "D2",
                    "ticks": 69532,
                    "time": 125.96388148333332,
                    "velocity": 0.7086614173228346
                },
                {
                    "duration": 0.09057979166665575,
                    "durationTicks": 50,
                    "midi": 38,
                    "name": "D2",
                    "ticks": 69600,
                    "time": 126.08707000000001,
                    "velocity": 0.6299212598425197
                },
                {
                    "duration": 0.09057979166668417,
                    "durationTicks": 50,
                    "midi": 38,
                    "name": "D2",
                    "ticks": 69772,
                    "time": 126.39866448333333,
                    "velocity": 0.15748031496062992
                },
                {
                    "duration": 0.09057979166665575,
                    "durationTicks": 50,
                    "midi": 38,
                    "name": "D2",
                    "ticks": 69840,
                    "time": 126.52185300000001,
                    "velocity": 0.7874015748031497
                },
                {
                    "duration": 0.09057979166665575,
                    "durationTicks": 50,
                    "midi": 42,
                    "name": "F#2",
                    "ticks": 69840,
                    "time": 126.52185300000001,
                    "velocity": 0.6299212598425197
                },
                {
                    "duration": 0.09057979166665575,
                    "durationTicks": 50,
                    "midi": 37,
                    "name": "C#2",
                    "ticks": 69840,
                    "time": 126.52185300000001,
                    "velocity": 0.47244094488188976
                },
                {
                    "duration": 0.09057979166668417,
                    "durationTicks": 50,
                    "midi": 38,
                    "name": "D2",
                    "ticks": 70012,
                    "time": 126.83344748333333,
                    "velocity": 0.5511811023622047
                },
                {
                    "duration": 0.09057979166666996,
                    "durationTicks": 50,
                    "midi": 38,
                    "name": "D2",
                    "ticks": 70080,
                    "time": 126.956636,
                    "velocity": 0.6299212598425197
                },
                {
                    "duration": 0.09057979166668417,
                    "durationTicks": 50,
                    "midi": 38,
                    "name": "D2",
                    "ticks": 70252,
                    "time": 127.26823048333333,
                    "velocity": 0.15748031496062992
                },
                {
                    "duration": 0.09057979166665575,
                    "durationTicks": 50,
                    "midi": 38,
                    "name": "D2",
                    "ticks": 70320,
                    "time": 127.39141900000001,
                    "velocity": 0.7874015748031497
                },
                {
                    "duration": 0.09057979166665575,
                    "durationTicks": 50,
                    "midi": 42,
                    "name": "F#2",
                    "ticks": 70320,
                    "time": 127.39141900000001,
                    "velocity": 0.5511811023622047
                },
                {
                    "duration": 0.09057979166668417,
                    "durationTicks": 50,
                    "midi": 38,
                    "name": "D2",
                    "ticks": 70492,
                    "time": 127.70301348333334,
                    "velocity": 0.7086614173228346
                },
                {
                    "duration": 0.09057979166665575,
                    "durationTicks": 50,
                    "midi": 38,
                    "name": "D2",
                    "ticks": 70560,
                    "time": 127.82620200000001,
                    "velocity": 0.6299212598425197
                },
                {
                    "duration": 0.09057979166669838,
                    "durationTicks": 50,
                    "midi": 38,
                    "name": "D2",
                    "ticks": 70732,
                    "time": 128.13779648333332,
                    "velocity": 0.15748031496062992
                },
                {
                    "duration": 0.09057979166669838,
                    "durationTicks": 50,
                    "midi": 48,
                    "name": "C3",
                    "ticks": 70732,
                    "time": 128.13779648333332,
                    "velocity": 0.31496062992125984
                },
                {
                    "duration": 0.09057979166666996,
                    "durationTicks": 50,
                    "midi": 38,
                    "name": "D2",
                    "ticks": 70800,
                    "time": 128.260985,
                    "velocity": 0.7874015748031497
                },
                {
                    "duration": 0.09057979166666996,
                    "durationTicks": 50,
                    "midi": 42,
                    "name": "F#2",
                    "ticks": 70800,
                    "time": 128.260985,
                    "velocity": 0.6299212598425197
                },
                {
                    "duration": 0.09057979166666996,
                    "durationTicks": 50,
                    "midi": 37,
                    "name": "C#2",
                    "ticks": 70800,
                    "time": 128.260985,
                    "velocity": 0.47244094488188976
                },
                {
                    "duration": 0.09057979166666996,
                    "durationTicks": 50,
                    "midi": 48,
                    "name": "C3",
                    "ticks": 70800,
                    "time": 128.260985,
                    "velocity": 0.3937007874015748
                },
                {
                    "duration": 0.09057979166669838,
                    "durationTicks": 50,
                    "midi": 38,
                    "name": "D2",
                    "ticks": 70972,
                    "time": 128.57257948333333,
                    "velocity": 0.5511811023622047
                },
                {
                    "duration": 0.09057979166664154,
                    "durationTicks": 50,
                    "midi": 38,
                    "name": "D2",
                    "ticks": 71040,
                    "time": 128.69576800000002,
                    "velocity": 0.6299212598425197
                },
                {
                    "duration": 0.09057979166664154,
                    "durationTicks": 50,
                    "midi": 38,
                    "name": "D2",
                    "ticks": 71218,
                    "time": 129.01823205833335,
                    "velocity": 0.23622047244094488
                },
                {
                    "duration": 0.09057979166666996,
                    "durationTicks": 50,
                    "midi": 38,
                    "name": "D2",
                    "ticks": 71280,
                    "time": 129.130551,
                    "velocity": 0.7874015748031497
                },
                {
                    "duration": 0.09057979166666996,
                    "durationTicks": 50,
                    "midi": 42,
                    "name": "F#2",
                    "ticks": 71280,
                    "time": 129.130551,
                    "velocity": 0.5511811023622047
                },
                {
                    "duration": 0.09057979166666996,
                    "durationTicks": 50,
                    "midi": 38,
                    "name": "D2",
                    "ticks": 71458,
                    "time": 129.45301505833334,
                    "velocity": 0.7086614173228346
                },
                {
                    "duration": 0.09057979166666996,
                    "durationTicks": 50,
                    "midi": 38,
                    "name": "D2",
                    "ticks": 71520,
                    "time": 129.565334,
                    "velocity": 0.6299212598425197
                },
                {
                    "duration": 0.09057979166666996,
                    "durationTicks": 50,
                    "midi": 38,
                    "name": "D2",
                    "ticks": 71698,
                    "time": 129.88779805833335,
                    "velocity": 0.15748031496062992
                },
                {
                    "duration": 0.09057979166664154,
                    "durationTicks": 50,
                    "midi": 38,
                    "name": "D2",
                    "ticks": 71760,
                    "time": 130.00011700000002,
                    "velocity": 0.7874015748031497
                },
                {
                    "duration": 0.09057979166664154,
                    "durationTicks": 50,
                    "midi": 42,
                    "name": "F#2",
                    "ticks": 71760,
                    "time": 130.00011700000002,
                    "velocity": 0.6299212598425197
                },
                {
                    "duration": 0.09057979166664154,
                    "durationTicks": 50,
                    "midi": 38,
                    "name": "D2",
                    "ticks": 71938,
                    "time": 130.32258105833336,
                    "velocity": 0.5511811023622047
                },
                {
                    "duration": 0.09057979166666996,
                    "durationTicks": 50,
                    "midi": 38,
                    "name": "D2",
                    "ticks": 72000,
                    "time": 130.4349,
                    "velocity": 0.6299212598425197
                },
                {
                    "duration": 0.09057979166666996,
                    "durationTicks": 50,
                    "midi": 38,
                    "name": "D2",
                    "ticks": 72178,
                    "time": 130.75736405833334,
                    "velocity": 0.23622047244094488
                },
                {
                    "duration": 0.09057979166666996,
                    "durationTicks": 50,
                    "midi": 38,
                    "name": "D2",
                    "ticks": 72240,
                    "time": 130.869683,
                    "velocity": 0.7874015748031497
                },
                {
                    "duration": 0.09057979166666996,
                    "durationTicks": 50,
                    "midi": 42,
                    "name": "F#2",
                    "ticks": 72240,
                    "time": 130.869683,
                    "velocity": 0.5511811023622047
                },
                {
                    "duration": 0.09057979166666996,
                    "durationTicks": 50,
                    "midi": 38,
                    "name": "D2",
                    "ticks": 72418,
                    "time": 131.19214705833335,
                    "velocity": 0.7086614173228346
                },
                {
                    "duration": 0.09057979166664154,
                    "durationTicks": 50,
                    "midi": 38,
                    "name": "D2",
                    "ticks": 72480,
                    "time": 131.30446600000002,
                    "velocity": 0.6299212598425197
                },
                {
                    "duration": 0.09057979166664154,
                    "durationTicks": 50,
                    "midi": 38,
                    "name": "D2",
                    "ticks": 72658,
                    "time": 131.62693005833336,
                    "velocity": 0.15748031496062992
                },
                {
                    "duration": 0.09057979166666996,
                    "durationTicks": 50,
                    "midi": 38,
                    "name": "D2",
                    "ticks": 72720,
                    "time": 131.739249,
                    "velocity": 0.7874015748031497
                },
                {
                    "duration": 0.09057979166666996,
                    "durationTicks": 50,
                    "midi": 42,
                    "name": "F#2",
                    "ticks": 72720,
                    "time": 131.739249,
                    "velocity": 0.6299212598425197
                },
                {
                    "duration": 0.09057979166666996,
                    "durationTicks": 50,
                    "midi": 38,
                    "name": "D2",
                    "ticks": 72898,
                    "time": 132.06171305833334,
                    "velocity": 0.5511811023622047
                },
                {
                    "duration": 0.09057979166666996,
                    "durationTicks": 50,
                    "midi": 38,
                    "name": "D2",
                    "ticks": 72960,
                    "time": 132.174032,
                    "velocity": 0.6299212598425197
                },
                {
                    "duration": 0.09057979166666996,
                    "durationTicks": 50,
                    "midi": 38,
                    "name": "D2",
                    "ticks": 73132,
                    "time": 132.48562648333333,
                    "velocity": 0.15748031496062992
                },
                {
                    "duration": 0.09057979166664154,
                    "durationTicks": 50,
                    "midi": 38,
                    "name": "D2",
                    "ticks": 73200,
                    "time": 132.60881500000002,
                    "velocity": 0.7874015748031497
                },
                {
                    "duration": 0.09057979166664154,
                    "durationTicks": 50,
                    "midi": 42,
                    "name": "F#2",
                    "ticks": 73200,
                    "time": 132.60881500000002,
                    "velocity": 0.5511811023622047
                },
                {
                    "duration": 0.09057979166666996,
                    "durationTicks": 50,
                    "midi": 38,
                    "name": "D2",
                    "ticks": 73372,
                    "time": 132.92040948333334,
                    "velocity": 0.7086614173228346
                },
                {
                    "duration": 0.09057979166666996,
                    "durationTicks": 50,
                    "midi": 38,
                    "name": "D2",
                    "ticks": 73440,
                    "time": 133.043598,
                    "velocity": 0.6299212598425197
                },
                {
                    "duration": 0.09057979166669838,
                    "durationTicks": 50,
                    "midi": 38,
                    "name": "D2",
                    "ticks": 73612,
                    "time": 133.35519248333333,
                    "velocity": 0.15748031496062992
                },
                {
                    "duration": 0.09057979166664154,
                    "durationTicks": 50,
                    "midi": 38,
                    "name": "D2",
                    "ticks": 73680,
                    "time": 133.478381,
                    "velocity": 0.7874015748031497
                },
                {
                    "duration": 0.09057979166664154,
                    "durationTicks": 50,
                    "midi": 42,
                    "name": "F#2",
                    "ticks": 73680,
                    "time": 133.478381,
                    "velocity": 0.6299212598425197
                },
                {
                    "duration": 0.09057979166664154,
                    "durationTicks": 50,
                    "midi": 37,
                    "name": "C#2",
                    "ticks": 73680,
                    "time": 133.478381,
                    "velocity": 0.47244094488188976
                },
                {
                    "duration": 0.09057979166666996,
                    "durationTicks": 50,
                    "midi": 38,
                    "name": "D2",
                    "ticks": 73852,
                    "time": 133.78997548333334,
                    "velocity": 0.5511811023622047
                },
                {
                    "duration": 0.09057979166664154,
                    "durationTicks": 50,
                    "midi": 38,
                    "name": "D2",
                    "ticks": 73920,
                    "time": 133.91316400000002,
                    "velocity": 0.6299212598425197
                },
                {
                    "duration": 0.09057979166666996,
                    "durationTicks": 50,
                    "midi": 38,
                    "name": "D2",
                    "ticks": 74098,
                    "time": 134.23562805833333,
                    "velocity": 0.23622047244094488
                },
                {
                    "duration": 0.09057979166666996,
                    "durationTicks": 50,
                    "midi": 38,
                    "name": "D2",
                    "ticks": 74160,
                    "time": 134.347947,
                    "velocity": 0.7874015748031497
                },
                {
                    "duration": 0.09057979166666996,
                    "durationTicks": 50,
                    "midi": 42,
                    "name": "F#2",
                    "ticks": 74160,
                    "time": 134.347947,
                    "velocity": 0.5511811023622047
                },
                {
                    "duration": 0.09057979166666996,
                    "durationTicks": 50,
                    "midi": 38,
                    "name": "D2",
                    "ticks": 74338,
                    "time": 134.67041105833334,
                    "velocity": 0.7086614173228346
                },
                {
                    "duration": 0.09057979166664154,
                    "durationTicks": 50,
                    "midi": 38,
                    "name": "D2",
                    "ticks": 74400,
                    "time": 134.78273000000002,
                    "velocity": 0.6299212598425197
                },
                {
                    "duration": 0.09057979166664154,
                    "durationTicks": 50,
                    "midi": 38,
                    "name": "D2",
                    "ticks": 74578,
                    "time": 135.10519405833335,
                    "velocity": 0.15748031496062992
                },
                {
                    "duration": 0.09057979166666996,
                    "durationTicks": 50,
                    "midi": 38,
                    "name": "D2",
                    "ticks": 74640,
                    "time": 135.217513,
                    "velocity": 0.7874015748031497
                },
                {
                    "duration": 0.09057979166666996,
                    "durationTicks": 50,
                    "midi": 42,
                    "name": "F#2",
                    "ticks": 74640,
                    "time": 135.217513,
                    "velocity": 0.6299212598425197
                },
                {
                    "duration": 0.09057979166666996,
                    "durationTicks": 50,
                    "midi": 38,
                    "name": "D2",
                    "ticks": 74818,
                    "time": 135.53997705833333,
                    "velocity": 0.5511811023622047
                },
                {
                    "duration": 0.09057979166666996,
                    "durationTicks": 50,
                    "midi": 38,
                    "name": "D2",
                    "ticks": 74880,
                    "time": 135.652296,
                    "velocity": 0.6299212598425197
                },
                {
                    "duration": 0.09057979166669838,
                    "durationTicks": 50,
                    "midi": 38,
                    "name": "D2",
                    "ticks": 75052,
                    "time": 135.96389048333333,
                    "velocity": 0.23622047244094488
                },
                {
                    "duration": 0.09057979166664154,
                    "durationTicks": 50,
                    "midi": 38,
                    "name": "D2",
                    "ticks": 75120,
                    "time": 136.08707900000002,
                    "velocity": 0.7874015748031497
                },
                {
                    "duration": 0.09057979166664154,
                    "durationTicks": 50,
                    "midi": 42,
                    "name": "F#2",
                    "ticks": 75120,
                    "time": 136.08707900000002,
                    "velocity": 0.5511811023622047
                },
                {
                    "duration": 0.09057979166666996,
                    "durationTicks": 50,
                    "midi": 38,
                    "name": "D2",
                    "ticks": 75292,
                    "time": 136.39867348333334,
                    "velocity": 0.7086614173228346
                },
                {
                    "duration": 0.09057979166666996,
                    "durationTicks": 50,
                    "midi": 38,
                    "name": "D2",
                    "ticks": 75360,
                    "time": 136.521862,
                    "velocity": 0.6299212598425197
                },
                {
                    "duration": 0.09057979166669838,
                    "durationTicks": 50,
                    "midi": 38,
                    "name": "D2",
                    "ticks": 75532,
                    "time": 136.83345648333332,
                    "velocity": 0.4251968503937008
                },
                {
                    "duration": 0.09057979166666996,
                    "durationTicks": 50,
                    "midi": 38,
                    "name": "D2",
                    "ticks": 75600,
                    "time": 136.956645,
                    "velocity": 0.7874015748031497
                },
                {
                    "duration": 0.09057979166666996,
                    "durationTicks": 50,
                    "midi": 42,
                    "name": "F#2",
                    "ticks": 75600,
                    "time": 136.956645,
                    "velocity": 0.6299212598425197
                },
                {
                    "duration": 0.09057979166666996,
                    "durationTicks": 50,
                    "midi": 37,
                    "name": "C#2",
                    "ticks": 75600,
                    "time": 136.956645,
                    "velocity": 0.47244094488188976
                },
                {
                    "duration": 0.09057979166666996,
                    "durationTicks": 50,
                    "midi": 38,
                    "name": "D2",
                    "ticks": 75772,
                    "time": 137.26823948333333,
                    "velocity": 0.5511811023622047
                },
                {
                    "duration": 0.09057979166664154,
                    "durationTicks": 50,
                    "midi": 38,
                    "name": "D2",
                    "ticks": 75840,
                    "time": 137.39142800000002,
                    "velocity": 0.6299212598425197
                },
                {
                    "duration": 0.09057979166666996,
                    "durationTicks": 50,
                    "midi": 38,
                    "name": "D2",
                    "ticks": 76012,
                    "time": 137.70302248333334,
                    "velocity": 0.15748031496062992
                },
                {
                    "duration": 0.09057979166666996,
                    "durationTicks": 50,
                    "midi": 38,
                    "name": "D2",
                    "ticks": 76080,
                    "time": 137.826211,
                    "velocity": 0.7874015748031497
                },
                {
                    "duration": 0.09057979166666996,
                    "durationTicks": 50,
                    "midi": 42,
                    "name": "F#2",
                    "ticks": 76080,
                    "time": 137.826211,
                    "velocity": 0.5511811023622047
                },
                {
                    "duration": 0.09057979166669838,
                    "durationTicks": 50,
                    "midi": 38,
                    "name": "D2",
                    "ticks": 76252,
                    "time": 138.13780548333332,
                    "velocity": 0.7086614173228346
                },
                {
                    "duration": 0.09057979166666996,
                    "durationTicks": 50,
                    "midi": 38,
                    "name": "D2",
                    "ticks": 76320,
                    "time": 138.260994,
                    "velocity": 0.6299212598425197
                },
                {
                    "duration": 0.09057979166666996,
                    "durationTicks": 50,
                    "midi": 38,
                    "name": "D2",
                    "ticks": 76492,
                    "time": 138.57258848333333,
                    "velocity": 0.15748031496062992
                },
                {
                    "duration": 0.09057979166664154,
                    "durationTicks": 50,
                    "midi": 38,
                    "name": "D2",
                    "ticks": 76560,
                    "time": 138.69577700000002,
                    "velocity": 0.7874015748031497
                },
                {
                    "duration": 0.09057979166664154,
                    "durationTicks": 50,
                    "midi": 42,
                    "name": "F#2",
                    "ticks": 76560,
                    "time": 138.69577700000002,
                    "velocity": 0.6299212598425197
                },
                {
                    "duration": 0.09057979166664154,
                    "durationTicks": 50,
                    "midi": 37,
                    "name": "C#2",
                    "ticks": 76560,
                    "time": 138.69577700000002,
                    "velocity": 0.47244094488188976
                },
                {
                    "duration": 0.09057979166666996,
                    "durationTicks": 50,
                    "midi": 38,
                    "name": "D2",
                    "ticks": 76732,
                    "time": 139.00737148333334,
                    "velocity": 0.5511811023622047
                },
                {
                    "duration": 0.09057979166666996,
                    "durationTicks": 50,
                    "midi": 38,
                    "name": "D2",
                    "ticks": 76800,
                    "time": 139.13056,
                    "velocity": 0.6299212598425197
                },
                {
                    "duration": 0.09057979166669838,
                    "durationTicks": 50,
                    "midi": 38,
                    "name": "D2",
                    "ticks": 76972,
                    "time": 139.44215448333333,
                    "velocity": 0.15748031496062992
                },
                {
                    "duration": 0.09057979166664154,
                    "durationTicks": 50,
                    "midi": 38,
                    "name": "D2",
                    "ticks": 77040,
                    "time": 139.565343,
                    "velocity": 0.7874015748031497
                },
                {
                    "duration": 0.09057979166664154,
                    "durationTicks": 50,
                    "midi": 42,
                    "name": "F#2",
                    "ticks": 77040,
                    "time": 139.565343,
                    "velocity": 0.5511811023622047
                },
                {
                    "duration": 0.09057979166666996,
                    "durationTicks": 50,
                    "midi": 38,
                    "name": "D2",
                    "ticks": 77212,
                    "time": 139.87693748333334,
                    "velocity": 0.7086614173228346
                },
                {
                    "duration": 0.09057979166664154,
                    "durationTicks": 50,
                    "midi": 38,
                    "name": "D2",
                    "ticks": 77280,
                    "time": 140.00012600000002,
                    "velocity": 0.6299212598425197
                },
                {
                    "duration": 0.09057979166669838,
                    "durationTicks": 50,
                    "midi": 38,
                    "name": "D2",
                    "ticks": 77452,
                    "time": 140.31172048333332,
                    "velocity": 0.15748031496062992
                },
                {
                    "duration": 0.09057979166666996,
                    "durationTicks": 50,
                    "midi": 38,
                    "name": "D2",
                    "ticks": 77520,
                    "time": 140.434909,
                    "velocity": 0.7874015748031497
                },
                {
                    "duration": 0.09057979166666996,
                    "durationTicks": 50,
                    "midi": 42,
                    "name": "F#2",
                    "ticks": 77520,
                    "time": 140.434909,
                    "velocity": 0.6299212598425197
                },
                {
                    "duration": 0.09057979166666996,
                    "durationTicks": 50,
                    "midi": 37,
                    "name": "C#2",
                    "ticks": 77520,
                    "time": 140.434909,
                    "velocity": 0.47244094488188976
                },
                {
                    "duration": 0.09057979166669838,
                    "durationTicks": 50,
                    "midi": 38,
                    "name": "D2",
                    "ticks": 77692,
                    "time": 140.74650348333333,
                    "velocity": 0.5511811023622047
                },
                {
                    "duration": 0.09057979166664154,
                    "durationTicks": 50,
                    "midi": 38,
                    "name": "D2",
                    "ticks": 77760,
                    "time": 140.86969200000001,
                    "velocity": 0.6299212598425197
                },
                {
                    "duration": 0.09057979166666996,
                    "durationTicks": 50,
                    "midi": 38,
                    "name": "D2",
                    "ticks": 77932,
                    "time": 141.18128648333334,
                    "velocity": 0.15748031496062992
                },
                {
                    "duration": 0.09057979166666996,
                    "durationTicks": 50,
                    "midi": 38,
                    "name": "D2",
                    "ticks": 78000,
                    "time": 141.304475,
                    "velocity": 0.7874015748031497
                },
                {
                    "duration": 0.09057979166666996,
                    "durationTicks": 50,
                    "midi": 42,
                    "name": "F#2",
                    "ticks": 78000,
                    "time": 141.304475,
                    "velocity": 0.5511811023622047
                },
                {
                    "duration": 0.09057979166669838,
                    "durationTicks": 50,
                    "midi": 38,
                    "name": "D2",
                    "ticks": 78172,
                    "time": 141.61606948333332,
                    "velocity": 0.7086614173228346
                },
                {
                    "duration": 0.09057979166666996,
                    "durationTicks": 50,
                    "midi": 38,
                    "name": "D2",
                    "ticks": 78240,
                    "time": 141.739258,
                    "velocity": 0.6299212598425197
                },
                {
                    "duration": 0.09057979166669838,
                    "durationTicks": 50,
                    "midi": 38,
                    "name": "D2",
                    "ticks": 78412,
                    "time": 142.05085248333333,
                    "velocity": 0.15748031496062992
                },
                {
                    "duration": 0.09057979166669838,
                    "durationTicks": 50,
                    "midi": 48,
                    "name": "C3",
                    "ticks": 78412,
                    "time": 142.05085248333333,
                    "velocity": 0.31496062992125984
                },
                {
                    "duration": 0.09057979166664154,
                    "durationTicks": 50,
                    "midi": 38,
                    "name": "D2",
                    "ticks": 78480,
                    "time": 142.17404100000002,
                    "velocity": 0.7874015748031497
                },
                {
                    "duration": 0.09057979166664154,
                    "durationTicks": 50,
                    "midi": 42,
                    "name": "F#2",
                    "ticks": 78480,
                    "time": 142.17404100000002,
                    "velocity": 0.6299212598425197
                },
                {
                    "duration": 0.09057979166664154,
                    "durationTicks": 50,
                    "midi": 37,
                    "name": "C#2",
                    "ticks": 78480,
                    "time": 142.17404100000002,
                    "velocity": 0.47244094488188976
                },
                {
                    "duration": 0.09057979166664154,
                    "durationTicks": 50,
                    "midi": 48,
                    "name": "C3",
                    "ticks": 78480,
                    "time": 142.17404100000002,
                    "velocity": 0.3937007874015748
                },
                {
                    "duration": 0.09057979166666996,
                    "durationTicks": 50,
                    "midi": 38,
                    "name": "D2",
                    "ticks": 78652,
                    "time": 142.48563548333334,
                    "velocity": 0.5511811023622047
                },
                {
                    "duration": 0.09057979166666996,
                    "durationTicks": 50,
                    "midi": 38,
                    "name": "D2",
                    "ticks": 78720,
                    "time": 142.608824,
                    "velocity": 0.6299212598425197
                },
                {
                    "duration": 0.09057979166669838,
                    "durationTicks": 50,
                    "midi": 38,
                    "name": "D2",
                    "ticks": 78892,
                    "time": 142.92041848333332,
                    "velocity": 0.15748031496062992
                },
                {
                    "duration": 0.09057979166666996,
                    "durationTicks": 50,
                    "midi": 38,
                    "name": "D2",
                    "ticks": 78960,
                    "time": 143.043607,
                    "velocity": 0.7874015748031497
                },
                {
                    "duration": 0.09057979166666996,
                    "durationTicks": 50,
                    "midi": 42,
                    "name": "F#2",
                    "ticks": 78960,
                    "time": 143.043607,
                    "velocity": 0.5511811023622047
                },
                {
                    "duration": 0.09057979166666996,
                    "durationTicks": 50,
                    "midi": 38,
                    "name": "D2",
                    "ticks": 79132,
                    "time": 143.35520148333333,
                    "velocity": 0.7086614173228346
                },
                {
                    "duration": 0.09057979166664154,
                    "durationTicks": 50,
                    "midi": 38,
                    "name": "D2",
                    "ticks": 79200,
                    "time": 143.47839000000002,
                    "velocity": 0.6299212598425197
                },
                {
                    "duration": 0.09057979166666996,
                    "durationTicks": 50,
                    "midi": 38,
                    "name": "D2",
                    "ticks": 79372,
                    "time": 143.78998448333334,
                    "velocity": 0.15748031496062992
                },
                {
                    "duration": 0.09057979166666996,
                    "durationTicks": 50,
                    "midi": 38,
                    "name": "D2",
                    "ticks": 79440,
                    "time": 143.913173,
                    "velocity": 0.7874015748031497
                },
                {
                    "duration": 0.09057979166666996,
                    "durationTicks": 50,
                    "midi": 42,
                    "name": "F#2",
                    "ticks": 79440,
                    "time": 143.913173,
                    "velocity": 0.6299212598425197
                },
                {
                    "duration": 0.09057979166666996,
                    "durationTicks": 50,
                    "midi": 37,
                    "name": "C#2",
                    "ticks": 79440,
                    "time": 143.913173,
                    "velocity": 0.5511811023622047
                },
                {
                    "duration": 0.09057979166669838,
                    "durationTicks": 50,
                    "midi": 38,
                    "name": "D2",
                    "ticks": 79612,
                    "time": 144.22476748333332,
                    "velocity": 0.5511811023622047
                },
                {
                    "duration": 0.09057979166666996,
                    "durationTicks": 50,
                    "midi": 38,
                    "name": "D2",
                    "ticks": 79680,
                    "time": 144.347956,
                    "velocity": 0.6299212598425197
                },
                {
                    "duration": 0.09057979166666996,
                    "durationTicks": 50,
                    "midi": 38,
                    "name": "D2",
                    "ticks": 79852,
                    "time": 144.65955048333333,
                    "velocity": 0.15748031496062992
                },
                {
                    "duration": 0.09057979166664154,
                    "durationTicks": 50,
                    "midi": 38,
                    "name": "D2",
                    "ticks": 79920,
                    "time": 144.78273900000002,
                    "velocity": 0.7874015748031497
                },
                {
                    "duration": 0.09057979166664154,
                    "durationTicks": 50,
                    "midi": 42,
                    "name": "F#2",
                    "ticks": 79920,
                    "time": 144.78273900000002,
                    "velocity": 0.5511811023622047
                },
                {
                    "duration": 0.09057979166666996,
                    "durationTicks": 50,
                    "midi": 38,
                    "name": "D2",
                    "ticks": 80092,
                    "time": 145.09433348333334,
                    "velocity": 0.7086614173228346
                },
                {
                    "duration": 0.09057979166666996,
                    "durationTicks": 50,
                    "midi": 38,
                    "name": "D2",
                    "ticks": 80160,
                    "time": 145.217522,
                    "velocity": 0.6299212598425197
                },
                {
                    "duration": 0.09057979166669838,
                    "durationTicks": 50,
                    "midi": 38,
                    "name": "D2",
                    "ticks": 80332,
                    "time": 145.52911648333333,
                    "velocity": 0.15748031496062992
                },
                {
                    "duration": 0.09057979166666996,
                    "durationTicks": 50,
                    "midi": 38,
                    "name": "D2",
                    "ticks": 80400,
                    "time": 145.652305,
                    "velocity": 0.7874015748031497
                },
                {
                    "duration": 0.09057979166666996,
                    "durationTicks": 50,
                    "midi": 42,
                    "name": "F#2",
                    "ticks": 80400,
                    "time": 145.652305,
                    "velocity": 0.6299212598425197
                },
                {
                    "duration": 0.09057979166666996,
                    "durationTicks": 50,
                    "midi": 37,
                    "name": "C#2",
                    "ticks": 80400,
                    "time": 145.652305,
                    "velocity": 0.5511811023622047
                },
                {
                    "duration": 0.09057979166666996,
                    "durationTicks": 50,
                    "midi": 38,
                    "name": "D2",
                    "ticks": 80572,
                    "time": 145.96389948333334,
                    "velocity": 0.5511811023622047
                },
                {
                    "duration": 0.09057979166664154,
                    "durationTicks": 50,
                    "midi": 38,
                    "name": "D2",
                    "ticks": 80640,
                    "time": 146.08708800000002,
                    "velocity": 0.6299212598425197
                },
                {
                    "duration": 0.09057979166664154,
                    "durationTicks": 50,
                    "midi": 38,
                    "name": "D2",
                    "ticks": 80818,
                    "time": 146.40955205833336,
                    "velocity": 0.15748031496062992
                },
                {
                    "duration": 0.09057979166666996,
                    "durationTicks": 50,
                    "midi": 38,
                    "name": "D2",
                    "ticks": 80880,
                    "time": 146.521871,
                    "velocity": 0.7874015748031497
                },
                {
                    "duration": 0.09057979166666996,
                    "durationTicks": 50,
                    "midi": 42,
                    "name": "F#2",
                    "ticks": 80880,
                    "time": 146.521871,
                    "velocity": 0.5511811023622047
                },
                {
                    "duration": 0.09057979166666996,
                    "durationTicks": 50,
                    "midi": 38,
                    "name": "D2",
                    "ticks": 81058,
                    "time": 146.84433505833334,
                    "velocity": 0.7086614173228346
                },
                {
                    "duration": 0.09057979166664154,
                    "durationTicks": 50,
                    "midi": 38,
                    "name": "D2",
                    "ticks": 81120,
                    "time": 146.95665400000001,
                    "velocity": 0.6299212598425197
                },
                {
                    "duration": 0.09057979166664154,
                    "durationTicks": 50,
                    "midi": 38,
                    "name": "D2",
                    "ticks": 81298,
                    "time": 147.27911805833335,
                    "velocity": 0.15748031496062992
                },
                {
                    "duration": 0.09057979166666996,
                    "durationTicks": 50,
                    "midi": 38,
                    "name": "D2",
                    "ticks": 81360,
                    "time": 147.391437,
                    "velocity": 0.7874015748031497
                },
                {
                    "duration": 0.09057979166666996,
                    "durationTicks": 50,
                    "midi": 42,
                    "name": "F#2",
                    "ticks": 81360,
                    "time": 147.391437,
                    "velocity": 0.6299212598425197
                },
                {
                    "duration": 0.09057979166666996,
                    "durationTicks": 50,
                    "midi": 37,
                    "name": "C#2",
                    "ticks": 81360,
                    "time": 147.391437,
                    "velocity": 0.5511811023622047
                },
                {
                    "duration": 0.09057979166666996,
                    "durationTicks": 50,
                    "midi": 38,
                    "name": "D2",
                    "ticks": 81538,
                    "time": 147.71390105833333,
                    "velocity": 0.5511811023622047
                },
                {
                    "duration": 0.09057979166666996,
                    "durationTicks": 50,
                    "midi": 38,
                    "name": "D2",
                    "ticks": 81600,
                    "time": 147.82622,
                    "velocity": 0.6299212598425197
                },
                {
                    "duration": 0.09057979166669838,
                    "durationTicks": 50,
                    "midi": 38,
                    "name": "D2",
                    "ticks": 81772,
                    "time": 148.13781448333333,
                    "velocity": 0.15748031496062992
                },
                {
                    "duration": 0.09057979166664154,
                    "durationTicks": 50,
                    "midi": 38,
                    "name": "D2",
                    "ticks": 81840,
                    "time": 148.26100300000002,
                    "velocity": 0.7874015748031497
                },
                {
                    "duration": 0.09057979166664154,
                    "durationTicks": 50,
                    "midi": 42,
                    "name": "F#2",
                    "ticks": 81840,
                    "time": 148.26100300000002,
                    "velocity": 0.5511811023622047
                },
                {
                    "duration": 0.09057979166666996,
                    "durationTicks": 50,
                    "midi": 38,
                    "name": "D2",
                    "ticks": 82012,
                    "time": 148.57259748333334,
                    "velocity": 0.7086614173228346
                },
                {
                    "duration": 0.09057979166666996,
                    "durationTicks": 50,
                    "midi": 38,
                    "name": "D2",
                    "ticks": 82080,
                    "time": 148.695786,
                    "velocity": 0.6299212598425197
                },
                {
                    "duration": 0.09057979166669838,
                    "durationTicks": 50,
                    "midi": 38,
                    "name": "D2",
                    "ticks": 82252,
                    "time": 149.00738048333332,
                    "velocity": 0.15748031496062992
                },
                {
                    "duration": 0.09057979166666996,
                    "durationTicks": 50,
                    "midi": 38,
                    "name": "D2",
                    "ticks": 82320,
                    "time": 149.130569,
                    "velocity": 0.7874015748031497
                },
                {
                    "duration": 0.09057979166666996,
                    "durationTicks": 50,
                    "midi": 42,
                    "name": "F#2",
                    "ticks": 82320,
                    "time": 149.130569,
                    "velocity": 0.6299212598425197
                },
                {
                    "duration": 0.09057979166666996,
                    "durationTicks": 50,
                    "midi": 37,
                    "name": "C#2",
                    "ticks": 82320,
                    "time": 149.130569,
                    "velocity": 0.5511811023622047
                },
                {
                    "duration": 0.09057979166666996,
                    "durationTicks": 50,
                    "midi": 38,
                    "name": "D2",
                    "ticks": 82492,
                    "time": 149.44216348333333,
                    "velocity": 0.5511811023622047
                },
                {
                    "duration": 0.09057979166664154,
                    "durationTicks": 50,
                    "midi": 38,
                    "name": "D2",
                    "ticks": 82560,
                    "time": 149.56535200000002,
                    "velocity": 0.6299212598425197
                },
                {
                    "duration": 0.09057979166664154,
                    "durationTicks": 50,
                    "midi": 38,
                    "name": "D2",
                    "ticks": 82738,
                    "time": 149.88781605833336,
                    "velocity": 0.15748031496062992
                },
                {
                    "duration": 0.09057979166666996,
                    "durationTicks": 50,
                    "midi": 38,
                    "name": "D2",
                    "ticks": 82800,
                    "time": 150.000135,
                    "velocity": 0.7874015748031497
                },
                {
                    "duration": 0.09057979166666996,
                    "durationTicks": 50,
                    "midi": 42,
                    "name": "F#2",
                    "ticks": 82800,
                    "time": 150.000135,
                    "velocity": 0.5511811023622047
                },
                {
                    "duration": 0.09057979166666996,
                    "durationTicks": 50,
                    "midi": 38,
                    "name": "D2",
                    "ticks": 82978,
                    "time": 150.32259905833334,
                    "velocity": 0.7086614173228346
                },
                {
                    "duration": 0.09057979166666996,
                    "durationTicks": 50,
                    "midi": 38,
                    "name": "D2",
                    "ticks": 83040,
                    "time": 150.434918,
                    "velocity": 0.6299212598425197
                },
                {
                    "duration": 0.09057979166666996,
                    "durationTicks": 50,
                    "midi": 38,
                    "name": "D2",
                    "ticks": 83218,
                    "time": 150.75738205833335,
                    "velocity": 0.15748031496062992
                },
                {
                    "duration": 0.09057979166664154,
                    "durationTicks": 50,
                    "midi": 38,
                    "name": "D2",
                    "ticks": 83280,
                    "time": 150.86970100000002,
                    "velocity": 0.7874015748031497
                },
                {
                    "duration": 0.09057979166664154,
                    "durationTicks": 50,
                    "midi": 42,
                    "name": "F#2",
                    "ticks": 83280,
                    "time": 150.86970100000002,
                    "velocity": 0.6299212598425197
                },
                {
                    "duration": 0.09057979166664154,
                    "durationTicks": 50,
                    "midi": 37,
                    "name": "C#2",
                    "ticks": 83280,
                    "time": 150.86970100000002,
                    "velocity": 0.5511811023622047
                },
                {
                    "duration": 0.09057979166664154,
                    "durationTicks": 50,
                    "midi": 38,
                    "name": "D2",
                    "ticks": 83458,
                    "time": 151.19216505833336,
                    "velocity": 0.5511811023622047
                },
                {
                    "duration": 0.09057979166666996,
                    "durationTicks": 50,
                    "midi": 38,
                    "name": "D2",
                    "ticks": 83520,
                    "time": 151.304484,
                    "velocity": 0.6299212598425197
                },
                {
                    "duration": 0.09057979166666996,
                    "durationTicks": 50,
                    "midi": 38,
                    "name": "D2",
                    "ticks": 83698,
                    "time": 151.62694805833334,
                    "velocity": 0.15748031496062992
                },
                {
                    "duration": 0.09057979166666996,
                    "durationTicks": 50,
                    "midi": 38,
                    "name": "D2",
                    "ticks": 83760,
                    "time": 151.739267,
                    "velocity": 0.7874015748031497
                },
                {
                    "duration": 0.09057979166666996,
                    "durationTicks": 50,
                    "midi": 42,
                    "name": "F#2",
                    "ticks": 83760,
                    "time": 151.739267,
                    "velocity": 0.5511811023622047
                },
                {
                    "duration": 0.09057979166664154,
                    "durationTicks": 50,
                    "midi": 38,
                    "name": "D2",
                    "ticks": 83938,
                    "time": 152.06173105833335,
                    "velocity": 0.7086614173228346
                },
                {
                    "duration": 0.09057979166664154,
                    "durationTicks": 50,
                    "midi": 38,
                    "name": "D2",
                    "ticks": 84000,
                    "time": 152.17405000000002,
                    "velocity": 0.6299212598425197
                },
                {
                    "duration": 0.09057979166664154,
                    "durationTicks": 50,
                    "midi": 38,
                    "name": "D2",
                    "ticks": 84178,
                    "time": 152.49651405833336,
                    "velocity": 0.15748031496062992
                },
                {
                    "duration": 0.09057979166666996,
                    "durationTicks": 50,
                    "midi": 38,
                    "name": "D2",
                    "ticks": 84240,
                    "time": 152.608833,
                    "velocity": 0.7874015748031497
                },
                {
                    "duration": 0.09057979166666996,
                    "durationTicks": 50,
                    "midi": 42,
                    "name": "F#2",
                    "ticks": 84240,
                    "time": 152.608833,
                    "velocity": 0.6299212598425197
                },
                {
                    "duration": 0.09057979166666996,
                    "durationTicks": 50,
                    "midi": 37,
                    "name": "C#2",
                    "ticks": 84240,
                    "time": 152.608833,
                    "velocity": 0.5511811023622047
                },
                {
                    "duration": 0.09057979166666996,
                    "durationTicks": 50,
                    "midi": 38,
                    "name": "D2",
                    "ticks": 84418,
                    "time": 152.93129705833334,
                    "velocity": 0.5511811023622047
                },
                {
                    "duration": 0.09057979166664154,
                    "durationTicks": 50,
                    "midi": 38,
                    "name": "D2",
                    "ticks": 84480,
                    "time": 153.04361600000001,
                    "velocity": 0.6299212598425197
                },
                {
                    "duration": 0.09057979166664154,
                    "durationTicks": 50,
                    "midi": 38,
                    "name": "D2",
                    "ticks": 84658,
                    "time": 153.36608005833335,
                    "velocity": 0.15748031496062992
                },
                {
                    "duration": 0.09057979166664154,
                    "durationTicks": 50,
                    "midi": 38,
                    "name": "D2",
                    "ticks": 84720,
                    "time": 153.47839900000002,
                    "velocity": 0.7874015748031497
                },
                {
                    "duration": 0.09057979166664154,
                    "durationTicks": 50,
                    "midi": 42,
                    "name": "F#2",
                    "ticks": 84720,
                    "time": 153.47839900000002,
                    "velocity": 0.5511811023622047
                },
                {
                    "duration": 0.09057979166666996,
                    "durationTicks": 50,
                    "midi": 38,
                    "name": "D2",
                    "ticks": 84898,
                    "time": 153.80086305833333,
                    "velocity": 0.7086614173228346
                },
                {
                    "duration": 0.09057979166666996,
                    "durationTicks": 50,
                    "midi": 38,
                    "name": "D2",
                    "ticks": 84960,
                    "time": 153.913182,
                    "velocity": 0.6299212598425197
                },
                {
                    "duration": 0.09057979166666996,
                    "durationTicks": 50,
                    "midi": 38,
                    "name": "D2",
                    "ticks": 85138,
                    "time": 154.23564605833334,
                    "velocity": 0.15748031496062992
                },
                {
                    "duration": 0.09057979166664154,
                    "durationTicks": 50,
                    "midi": 38,
                    "name": "D2",
                    "ticks": 85200,
                    "time": 154.34796500000002,
                    "velocity": 0.7874015748031497
                },
                {
                    "duration": 0.09057979166664154,
                    "durationTicks": 50,
                    "midi": 42,
                    "name": "F#2",
                    "ticks": 85200,
                    "time": 154.34796500000002,
                    "velocity": 0.6299212598425197
                },
                {
                    "duration": 0.09057979166664154,
                    "durationTicks": 50,
                    "midi": 37,
                    "name": "C#2",
                    "ticks": 85200,
                    "time": 154.34796500000002,
                    "velocity": 0.5511811023622047
                },
                {
                    "duration": 0.09057979166664154,
                    "durationTicks": 50,
                    "midi": 38,
                    "name": "D2",
                    "ticks": 85378,
                    "time": 154.67042905833335,
                    "velocity": 0.5511811023622047
                },
                {
                    "duration": 0.09057979166666996,
                    "durationTicks": 50,
                    "midi": 38,
                    "name": "D2",
                    "ticks": 85440,
                    "time": 154.782748,
                    "velocity": 0.6299212598425197
                },
                {
                    "duration": 0.09057979166669838,
                    "durationTicks": 50,
                    "midi": 38,
                    "name": "D2",
                    "ticks": 85612,
                    "time": 155.09434248333332,
                    "velocity": 0.15748031496062992
                },
                {
                    "duration": 0.09057979166666996,
                    "durationTicks": 50,
                    "midi": 38,
                    "name": "D2",
                    "ticks": 85680,
                    "time": 155.217531,
                    "velocity": 0.7874015748031497
                },
                {
                    "duration": 0.09057979166666996,
                    "durationTicks": 50,
                    "midi": 42,
                    "name": "F#2",
                    "ticks": 85680,
                    "time": 155.217531,
                    "velocity": 0.5511811023622047
                },
                {
                    "duration": 0.09057979166669838,
                    "durationTicks": 50,
                    "midi": 38,
                    "name": "D2",
                    "ticks": 85852,
                    "time": 155.52912548333333,
                    "velocity": 0.7086614173228346
                },
                {
                    "duration": 0.09057979166664154,
                    "durationTicks": 50,
                    "midi": 38,
                    "name": "D2",
                    "ticks": 85920,
                    "time": 155.65231400000002,
                    "velocity": 0.6299212598425197
                },
                {
                    "duration": 0.09057979166666996,
                    "durationTicks": 50,
                    "midi": 38,
                    "name": "D2",
                    "ticks": 86092,
                    "time": 155.96390848333334,
                    "velocity": 0.15748031496062992
                },
                {
                    "duration": 0.09057979166666996,
                    "durationTicks": 50,
                    "midi": 48,
                    "name": "C3",
                    "ticks": 86092,
                    "time": 155.96390848333334,
                    "velocity": 0.31496062992125984
                },
                {
                    "duration": 0.09057979166666996,
                    "durationTicks": 50,
                    "midi": 38,
                    "name": "D2",
                    "ticks": 86160,
                    "time": 156.087097,
                    "velocity": 0.7874015748031497
                },
                {
                    "duration": 0.09057979166666996,
                    "durationTicks": 50,
                    "midi": 42,
                    "name": "F#2",
                    "ticks": 86160,
                    "time": 156.087097,
                    "velocity": 0.6299212598425197
                },
                {
                    "duration": 0.09057979166666996,
                    "durationTicks": 50,
                    "midi": 37,
                    "name": "C#2",
                    "ticks": 86160,
                    "time": 156.087097,
                    "velocity": 0.6299212598425197
                },
                {
                    "duration": 0.09057979166666996,
                    "durationTicks": 50,
                    "midi": 45,
                    "name": "A2",
                    "ticks": 86160,
                    "time": 156.087097,
                    "velocity": 0.3937007874015748
                },
                {
                    "duration": 0.09057979166669838,
                    "durationTicks": 50,
                    "midi": 38,
                    "name": "D2",
                    "ticks": 86332,
                    "time": 156.39869148333332,
                    "velocity": 0.5511811023622047
                },
                {
                    "duration": 0.09057979166666996,
                    "durationTicks": 50,
                    "midi": 38,
                    "name": "D2",
                    "ticks": 86400,
                    "time": 156.52188,
                    "velocity": 0.6299212598425197
                },
                {
                    "duration": 0.09057979166666996,
                    "durationTicks": 50,
                    "midi": 38,
                    "name": "D2",
                    "ticks": 86576,
                    "time": 156.8407208666667,
                    "velocity": 0.15748031496062992
                },
                {
                    "duration": 0.09057979166664154,
                    "durationTicks": 50,
                    "midi": 38,
                    "name": "D2",
                    "ticks": 86640,
                    "time": 156.95666300000002,
                    "velocity": 0.7874015748031497
                },
                {
                    "duration": 0.09057979166664154,
                    "durationTicks": 50,
                    "midi": 42,
                    "name": "F#2",
                    "ticks": 86640,
                    "time": 156.95666300000002,
                    "velocity": 0.5511811023622047
                },
                {
                    "duration": 0.09057979166664154,
                    "durationTicks": 50,
                    "midi": 38,
                    "name": "D2",
                    "ticks": 86816,
                    "time": 157.2755038666667,
                    "velocity": 0.7086614173228346
                },
                {
                    "duration": 0.09057979166666996,
                    "durationTicks": 50,
                    "midi": 38,
                    "name": "D2",
                    "ticks": 86880,
                    "time": 157.391446,
                    "velocity": 0.6299212598425197
                },
                {
                    "duration": 0.09057979166666996,
                    "durationTicks": 50,
                    "midi": 38,
                    "name": "D2",
                    "ticks": 87056,
                    "time": 157.71028686666668,
                    "velocity": 0.15748031496062992
                },
                {
                    "duration": 0.09057979166666996,
                    "durationTicks": 50,
                    "midi": 38,
                    "name": "D2",
                    "ticks": 87120,
                    "time": 157.826229,
                    "velocity": 0.7874015748031497
                },
                {
                    "duration": 0.09057979166666996,
                    "durationTicks": 50,
                    "midi": 42,
                    "name": "F#2",
                    "ticks": 87120,
                    "time": 157.826229,
                    "velocity": 0.6299212598425197
                },
                {
                    "duration": 0.09057979166666996,
                    "durationTicks": 50,
                    "midi": 37,
                    "name": "C#2",
                    "ticks": 87120,
                    "time": 157.826229,
                    "velocity": 0.5511811023622047
                },
                {
                    "duration": 0.09057979166664154,
                    "durationTicks": 50,
                    "midi": 38,
                    "name": "D2",
                    "ticks": 87296,
                    "time": 158.1450698666667,
                    "velocity": 0.5511811023622047
                },
                {
                    "duration": 0.09057979166664154,
                    "durationTicks": 50,
                    "midi": 38,
                    "name": "D2",
                    "ticks": 87360,
                    "time": 158.26101200000002,
                    "velocity": 0.6299212598425197
                },
                {
                    "duration": 0.09057979166664154,
                    "durationTicks": 50,
                    "midi": 38,
                    "name": "D2",
                    "ticks": 87538,
                    "time": 158.58347605833336,
                    "velocity": 0.15748031496062992
                },
                {
                    "duration": 0.09057979166666996,
                    "durationTicks": 50,
                    "midi": 38,
                    "name": "D2",
                    "ticks": 87600,
                    "time": 158.695795,
                    "velocity": 0.7874015748031497
                },
                {
                    "duration": 0.09057979166666996,
                    "durationTicks": 50,
                    "midi": 42,
                    "name": "F#2",
                    "ticks": 87600,
                    "time": 158.695795,
                    "velocity": 0.5511811023622047
                },
                {
                    "duration": 0.09057979166666996,
                    "durationTicks": 50,
                    "midi": 38,
                    "name": "D2",
                    "ticks": 87778,
                    "time": 159.01825905833334,
                    "velocity": 0.7086614173228346
                },
                {
                    "duration": 0.09057979166664154,
                    "durationTicks": 50,
                    "midi": 38,
                    "name": "D2",
                    "ticks": 87840,
                    "time": 159.130578,
                    "velocity": 0.6299212598425197
                },
                {
                    "duration": 0.09057979166664154,
                    "durationTicks": 50,
                    "midi": 38,
                    "name": "D2",
                    "ticks": 88018,
                    "time": 159.45304205833335,
                    "velocity": 0.15748031496062992
                },
                {
                    "duration": 0.09057979166664154,
                    "durationTicks": 50,
                    "midi": 38,
                    "name": "D2",
                    "ticks": 88080,
                    "time": 159.56536100000002,
                    "velocity": 0.7874015748031497
                },
                {
                    "duration": 0.09057979166664154,
                    "durationTicks": 50,
                    "midi": 42,
                    "name": "F#2",
                    "ticks": 88080,
                    "time": 159.56536100000002,
                    "velocity": 0.6299212598425197
                },
                {
                    "duration": 0.09057979166664154,
                    "durationTicks": 50,
                    "midi": 37,
                    "name": "C#2",
                    "ticks": 88080,
                    "time": 159.56536100000002,
                    "velocity": 0.5511811023622047
                },
                {
                    "duration": 0.09057979166666996,
                    "durationTicks": 50,
                    "midi": 38,
                    "name": "D2",
                    "ticks": 88258,
                    "time": 159.88782505833333,
                    "velocity": 0.5511811023622047
                },
                {
                    "duration": 0.09057979166666996,
                    "durationTicks": 50,
                    "midi": 38,
                    "name": "D2",
                    "ticks": 88320,
                    "time": 160.000144,
                    "velocity": 0.6299212598425197
                },
                {
                    "duration": 0.09057979166669838,
                    "durationTicks": 50,
                    "midi": 38,
                    "name": "D2",
                    "ticks": 88492,
                    "time": 160.31173848333333,
                    "velocity": 0.15748031496062992
                },
                {
                    "duration": 0.09057979166664154,
                    "durationTicks": 50,
                    "midi": 38,
                    "name": "D2",
                    "ticks": 88560,
                    "time": 160.43492700000002,
                    "velocity": 0.7874015748031497
                },
                {
                    "duration": 0.09057979166664154,
                    "durationTicks": 50,
                    "midi": 42,
                    "name": "F#2",
                    "ticks": 88560,
                    "time": 160.43492700000002,
                    "velocity": 0.5511811023622047
                },
                {
                    "duration": 0.09057979166666996,
                    "durationTicks": 50,
                    "midi": 38,
                    "name": "D2",
                    "ticks": 88732,
                    "time": 160.74652148333334,
                    "velocity": 0.7086614173228346
                },
                {
                    "duration": 0.09057979166666996,
                    "durationTicks": 50,
                    "midi": 38,
                    "name": "D2",
                    "ticks": 88800,
                    "time": 160.86971,
                    "velocity": 0.6299212598425197
                },
                {
                    "duration": 0.09057979166669838,
                    "durationTicks": 50,
                    "midi": 38,
                    "name": "D2",
                    "ticks": 88972,
                    "time": 161.18130448333332,
                    "velocity": 0.15748031496062992
                },
                {
                    "duration": 0.09057979166666996,
                    "durationTicks": 50,
                    "midi": 38,
                    "name": "D2",
                    "ticks": 89040,
                    "time": 161.304493,
                    "velocity": 0.7874015748031497
                },
                {
                    "duration": 0.09057979166666996,
                    "durationTicks": 50,
                    "midi": 42,
                    "name": "F#2",
                    "ticks": 89040,
                    "time": 161.304493,
                    "velocity": 0.6299212598425197
                },
                {
                    "duration": 0.09057979166666996,
                    "durationTicks": 50,
                    "midi": 37,
                    "name": "C#2",
                    "ticks": 89040,
                    "time": 161.304493,
                    "velocity": 0.5511811023622047
                },
                {
                    "duration": 0.09057979166669838,
                    "durationTicks": 50,
                    "midi": 38,
                    "name": "D2",
                    "ticks": 89212,
                    "time": 161.61608748333333,
                    "velocity": 0.5511811023622047
                },
                {
                    "duration": 0.09057979166664154,
                    "durationTicks": 50,
                    "midi": 38,
                    "name": "D2",
                    "ticks": 89280,
                    "time": 161.73927600000002,
                    "velocity": 0.6299212598425197
                },
                {
                    "duration": 0.09057979166666996,
                    "durationTicks": 50,
                    "midi": 38,
                    "name": "D2",
                    "ticks": 89452,
                    "time": 162.05087048333334,
                    "velocity": 0.15748031496062992
                },
                {
                    "duration": 0.09057979166666996,
                    "durationTicks": 50,
                    "midi": 38,
                    "name": "D2",
                    "ticks": 89520,
                    "time": 162.174059,
                    "velocity": 0.7874015748031497
                },
                {
                    "duration": 0.09057979166666996,
                    "durationTicks": 50,
                    "midi": 42,
                    "name": "F#2",
                    "ticks": 89520,
                    "time": 162.174059,
                    "velocity": 0.5511811023622047
                },
                {
                    "duration": 0.09057979166669838,
                    "durationTicks": 50,
                    "midi": 38,
                    "name": "D2",
                    "ticks": 89692,
                    "time": 162.48565348333332,
                    "velocity": 0.7086614173228346
                },
                {
                    "duration": 0.09057979166666996,
                    "durationTicks": 50,
                    "midi": 38,
                    "name": "D2",
                    "ticks": 89760,
                    "time": 162.608842,
                    "velocity": 0.6299212598425197
                },
                {
                    "duration": 0.09057979166666996,
                    "durationTicks": 50,
                    "midi": 38,
                    "name": "D2",
                    "ticks": 89932,
                    "time": 162.92043648333333,
                    "velocity": 0.15748031496062992
                },
                {
                    "duration": 0.09057979166664154,
                    "durationTicks": 50,
                    "midi": 38,
                    "name": "D2",
                    "ticks": 90000,
                    "time": 163.04362500000002,
                    "velocity": 0.7874015748031497
                },
                {
                    "duration": 0.09057979166664154,
                    "durationTicks": 50,
                    "midi": 42,
                    "name": "F#2",
                    "ticks": 90000,
                    "time": 163.04362500000002,
                    "velocity": 0.6299212598425197
                },
                {
                    "duration": 0.09057979166664154,
                    "durationTicks": 50,
                    "midi": 37,
                    "name": "C#2",
                    "ticks": 90000,
                    "time": 163.04362500000002,
                    "velocity": 0.5511811023622047
                },
                {
                    "duration": 0.09057979166666996,
                    "durationTicks": 50,
                    "midi": 38,
                    "name": "D2",
                    "ticks": 90172,
                    "time": 163.35521948333334,
                    "velocity": 0.5511811023622047
                },
                {
                    "duration": 0.09057979166666996,
                    "durationTicks": 50,
                    "midi": 38,
                    "name": "D2",
                    "ticks": 90240,
                    "time": 163.478408,
                    "velocity": 0.6299212598425197
                },
                {
                    "duration": 0.09057979166666996,
                    "durationTicks": 50,
                    "midi": 38,
                    "name": "D2",
                    "ticks": 90418,
                    "time": 163.80087205833334,
                    "velocity": 0.15748031496062992
                },
                {
                    "duration": 0.09057979166666996,
                    "durationTicks": 50,
                    "midi": 38,
                    "name": "D2",
                    "ticks": 90480,
                    "time": 163.913191,
                    "velocity": 0.7874015748031497
                },
                {
                    "duration": 0.09057979166666996,
                    "durationTicks": 50,
                    "midi": 42,
                    "name": "F#2",
                    "ticks": 90480,
                    "time": 163.913191,
                    "velocity": 0.5511811023622047
                },
                {
                    "duration": 0.09057979166666996,
                    "durationTicks": 50,
                    "midi": 38,
                    "name": "D2",
                    "ticks": 90658,
                    "time": 164.23565505833335,
                    "velocity": 0.7086614173228346
                },
                {
                    "duration": 0.09057979166664154,
                    "durationTicks": 50,
                    "midi": 38,
                    "name": "D2",
                    "ticks": 90720,
                    "time": 164.34797400000002,
                    "velocity": 0.6299212598425197
                },
                {
                    "duration": 0.09057979166664154,
                    "durationTicks": 50,
                    "midi": 38,
                    "name": "D2",
                    "ticks": 90898,
                    "time": 164.67043805833336,
                    "velocity": 0.15748031496062992
                },
                {
                    "duration": 0.09057979166666996,
                    "durationTicks": 50,
                    "midi": 38,
                    "name": "D2",
                    "ticks": 90960,
                    "time": 164.782757,
                    "velocity": 0.7874015748031497
                },
                {
                    "duration": 0.09057979166666996,
                    "durationTicks": 50,
                    "midi": 42,
                    "name": "F#2",
                    "ticks": 90960,
                    "time": 164.782757,
                    "velocity": 0.6299212598425197
                },
                {
                    "duration": 0.09057979166666996,
                    "durationTicks": 50,
                    "midi": 37,
                    "name": "C#2",
                    "ticks": 90960,
                    "time": 164.782757,
                    "velocity": 0.5511811023622047
                },
                {
                    "duration": 0.09057979166666996,
                    "durationTicks": 50,
                    "midi": 38,
                    "name": "D2",
                    "ticks": 91138,
                    "time": 165.10522105833334,
                    "velocity": 0.5511811023622047
                },
                {
                    "duration": 0.09057979166666996,
                    "durationTicks": 50,
                    "midi": 38,
                    "name": "D2",
                    "ticks": 91200,
                    "time": 165.21754,
                    "velocity": 0.6299212598425197
                },
                {
                    "duration": 0.09057979166664154,
                    "durationTicks": 50,
                    "midi": 38,
                    "name": "D2",
                    "ticks": 91378,
                    "time": 165.54000405833335,
                    "velocity": 0.15748031496062992
                },
                {
                    "duration": 0.09057979166664154,
                    "durationTicks": 50,
                    "midi": 38,
                    "name": "D2",
                    "ticks": 91440,
                    "time": 165.65232300000002,
                    "velocity": 0.7874015748031497
                },
                {
                    "duration": 0.09057979166664154,
                    "durationTicks": 50,
                    "midi": 42,
                    "name": "F#2",
                    "ticks": 91440,
                    "time": 165.65232300000002,
                    "velocity": 0.5511811023622047
                },
                {
                    "duration": 0.09057979166664154,
                    "durationTicks": 50,
                    "midi": 38,
                    "name": "D2",
                    "ticks": 91618,
                    "time": 165.97478705833336,
                    "velocity": 0.7086614173228346
                },
                {
                    "duration": 0.09057979166666996,
                    "durationTicks": 50,
                    "midi": 38,
                    "name": "D2",
                    "ticks": 91680,
                    "time": 166.087106,
                    "velocity": 0.6299212598425197
                },
                {
                    "duration": 0.09057979166666996,
                    "durationTicks": 50,
                    "midi": 38,
                    "name": "D2",
                    "ticks": 91858,
                    "time": 166.40957005833334,
                    "velocity": 0.15748031496062992
                },
                {
                    "duration": 0.09057979166664154,
                    "durationTicks": 50,
                    "midi": 38,
                    "name": "D2",
                    "ticks": 91920,
                    "time": 166.52188900000002,
                    "velocity": 0.7874015748031497
                },
                {
                    "duration": 0.09057979166664154,
                    "durationTicks": 50,
                    "midi": 42,
                    "name": "F#2",
                    "ticks": 91920,
                    "time": 166.52188900000002,
                    "velocity": 0.6299212598425197
                },
                {
                    "duration": 0.09057979166664154,
                    "durationTicks": 50,
                    "midi": 37,
                    "name": "C#2",
                    "ticks": 91920,
                    "time": 166.52188900000002,
                    "velocity": 0.5511811023622047
                },
                {
                    "duration": 0.09057979166664154,
                    "durationTicks": 50,
                    "midi": 38,
                    "name": "D2",
                    "ticks": 92098,
                    "time": 166.84435305833335,
                    "velocity": 0.5511811023622047
                },
                {
                    "duration": 0.09057979166664154,
                    "durationTicks": 50,
                    "midi": 38,
                    "name": "D2",
                    "ticks": 92160,
                    "time": 166.95667200000003,
                    "velocity": 0.6299212598425197
                },
                {
                    "duration": 0.09057979166666996,
                    "durationTicks": 50,
                    "midi": 38,
                    "name": "D2",
                    "ticks": 92338,
                    "time": 167.27913605833334,
                    "velocity": 0.15748031496062992
                },
                {
                    "duration": 0.09057979166666996,
                    "durationTicks": 50,
                    "midi": 38,
                    "name": "D2",
                    "ticks": 92400,
                    "time": 167.391455,
                    "velocity": 0.7874015748031497
                },
                {
                    "duration": 0.09057979166666996,
                    "durationTicks": 50,
                    "midi": 42,
                    "name": "F#2",
                    "ticks": 92400,
                    "time": 167.391455,
                    "velocity": 0.5511811023622047
                },
                {
                    "duration": 0.09057979166666996,
                    "durationTicks": 50,
                    "midi": 38,
                    "name": "D2",
                    "ticks": 92578,
                    "time": 167.71391905833335,
                    "velocity": 0.7086614173228346
                },
                {
                    "duration": 0.09057979166664154,
                    "durationTicks": 50,
                    "midi": 38,
                    "name": "D2",
                    "ticks": 92640,
                    "time": 167.82623800000002,
                    "velocity": 0.6299212598425197
                },
                {
                    "duration": 0.09057979166664154,
                    "durationTicks": 50,
                    "midi": 38,
                    "name": "D2",
                    "ticks": 92818,
                    "time": 168.14870205833336,
                    "velocity": 0.15748031496062992
                },
                {
                    "duration": 0.09057979166666996,
                    "durationTicks": 50,
                    "midi": 38,
                    "name": "D2",
                    "ticks": 92880,
                    "time": 168.261021,
                    "velocity": 0.7874015748031497
                },
                {
                    "duration": 0.09057979166666996,
                    "durationTicks": 50,
                    "midi": 42,
                    "name": "F#2",
                    "ticks": 92880,
                    "time": 168.261021,
                    "velocity": 0.6299212598425197
                },
                {
                    "duration": 0.09057979166666996,
                    "durationTicks": 50,
                    "midi": 37,
                    "name": "C#2",
                    "ticks": 92880,
                    "time": 168.261021,
                    "velocity": 0.5511811023622047
                },
                {
                    "duration": 0.09057979166666996,
                    "durationTicks": 50,
                    "midi": 38,
                    "name": "D2",
                    "ticks": 93058,
                    "time": 168.58348505833334,
                    "velocity": 0.5511811023622047
                },
                {
                    "duration": 0.09057979166666996,
                    "durationTicks": 50,
                    "midi": 38,
                    "name": "D2",
                    "ticks": 93120,
                    "time": 168.695804,
                    "velocity": 0.6299212598425197
                },
                {
                    "duration": 0.09057979166666996,
                    "durationTicks": 50,
                    "midi": 38,
                    "name": "D2",
                    "ticks": 93292,
                    "time": 169.00739848333333,
                    "velocity": 0.15748031496062992
                },
                {
                    "duration": 0.09057979166664154,
                    "durationTicks": 50,
                    "midi": 38,
                    "name": "D2",
                    "ticks": 93360,
                    "time": 169.13058700000002,
                    "velocity": 0.7874015748031497
                },
                {
                    "duration": 0.09057979166664154,
                    "durationTicks": 50,
                    "midi": 42,
                    "name": "F#2",
                    "ticks": 93360,
                    "time": 169.13058700000002,
                    "velocity": 0.5511811023622047
                },
                {
                    "duration": 0.09057979166666996,
                    "durationTicks": 50,
                    "midi": 38,
                    "name": "D2",
                    "ticks": 93532,
                    "time": 169.44218148333334,
                    "velocity": 0.7086614173228346
                },
                {
                    "duration": 0.09057979166666996,
                    "durationTicks": 50,
                    "midi": 38,
                    "name": "D2",
                    "ticks": 93600,
                    "time": 169.56537,
                    "velocity": 0.6299212598425197
                },
                {
                    "duration": 0.09057979166669838,
                    "durationTicks": 50,
                    "midi": 38,
                    "name": "D2",
                    "ticks": 93772,
                    "time": 169.87696448333332,
                    "velocity": 0.15748031496062992
                },
                {
                    "duration": 0.09057979166669838,
                    "durationTicks": 50,
                    "midi": 48,
                    "name": "C3",
                    "ticks": 93772,
                    "time": 169.87696448333332,
                    "velocity": 0.31496062992125984
                },
                {
                    "duration": 0.09057979166666996,
                    "durationTicks": 50,
                    "midi": 38,
                    "name": "D2",
                    "ticks": 93840,
                    "time": 170.000153,
                    "velocity": 0.7874015748031497
                },
                {
                    "duration": 0.09057979166666996,
                    "durationTicks": 50,
                    "midi": 42,
                    "name": "F#2",
                    "ticks": 93840,
                    "time": 170.000153,
                    "velocity": 0.6299212598425197
                },
                {
                    "duration": 0.09057979166666996,
                    "durationTicks": 50,
                    "midi": 37,
                    "name": "C#2",
                    "ticks": 93840,
                    "time": 170.000153,
                    "velocity": 0.6299212598425197
                },
                {
                    "duration": 0.09057979166666996,
                    "durationTicks": 50,
                    "midi": 45,
                    "name": "A2",
                    "ticks": 93840,
                    "time": 170.000153,
                    "velocity": 0.3937007874015748
                },
                {
                    "duration": 0.09057979166666996,
                    "durationTicks": 50,
                    "midi": 38,
                    "name": "D2",
                    "ticks": 94012,
                    "time": 170.31174748333333,
                    "velocity": 0.5511811023622047
                },
                {
                    "duration": 0.09057979166664154,
                    "durationTicks": 50,
                    "midi": 38,
                    "name": "D2",
                    "ticks": 94080,
                    "time": 170.43493600000002,
                    "velocity": 0.6299212598425197
                },
                {
                    "duration": 0.09057979166666996,
                    "durationTicks": 50,
                    "midi": 38,
                    "name": "D2",
                    "ticks": 94252,
                    "time": 170.74653048333334,
                    "velocity": 0.15748031496062992
                },
                {
                    "duration": 0.09057979166666996,
                    "durationTicks": 50,
                    "midi": 38,
                    "name": "D2",
                    "ticks": 94320,
                    "time": 170.869719,
                    "velocity": 0.7874015748031497
                },
                {
                    "duration": 0.09057979166666996,
                    "durationTicks": 50,
                    "midi": 42,
                    "name": "F#2",
                    "ticks": 94320,
                    "time": 170.869719,
                    "velocity": 0.5511811023622047
                },
                {
                    "duration": 0.09057979166669838,
                    "durationTicks": 50,
                    "midi": 38,
                    "name": "D2",
                    "ticks": 94492,
                    "time": 171.18131348333333,
                    "velocity": 0.7086614173228346
                },
                {
                    "duration": 0.09057979166666996,
                    "durationTicks": 50,
                    "midi": 38,
                    "name": "D2",
                    "ticks": 94560,
                    "time": 171.304502,
                    "velocity": 0.6299212598425197
                },
                {
                    "duration": 0.09057979166666996,
                    "durationTicks": 50,
                    "midi": 38,
                    "name": "D2",
                    "ticks": 94732,
                    "time": 171.61609648333334,
                    "velocity": 0.15748031496062992
                },
                {
                    "duration": 0.09057979166664154,
                    "durationTicks": 50,
                    "midi": 38,
                    "name": "D2",
                    "ticks": 94800,
                    "time": 171.73928500000002,
                    "velocity": 0.7874015748031497
                },
                {
                    "duration": 0.09057979166664154,
                    "durationTicks": 50,
                    "midi": 42,
                    "name": "F#2",
                    "ticks": 94800,
                    "time": 171.73928500000002,
                    "velocity": 0.6299212598425197
                },
                {
                    "duration": 0.09057979166664154,
                    "durationTicks": 50,
                    "midi": 37,
                    "name": "C#2",
                    "ticks": 94800,
                    "time": 171.73928500000002,
                    "velocity": 0.47244094488188976
                },
                {
                    "duration": 0.09057979166666996,
                    "durationTicks": 50,
                    "midi": 38,
                    "name": "D2",
                    "ticks": 94972,
                    "time": 172.05087948333335,
                    "velocity": 0.5511811023622047
                },
                {
                    "duration": 0.09057979166666996,
                    "durationTicks": 50,
                    "midi": 38,
                    "name": "D2",
                    "ticks": 95040,
                    "time": 172.174068,
                    "velocity": 0.6299212598425197
                },
                {
                    "duration": 0.09057979166666996,
                    "durationTicks": 50,
                    "midi": 48,
                    "name": "C3",
                    "ticks": 95040,
                    "time": 172.174068,
                    "velocity": 0.1968503937007874
                },
                {
                    "duration": 0.09057979166666996,
                    "durationTicks": 50,
                    "midi": 38,
                    "name": "D2",
                    "ticks": 95200,
                    "time": 172.46392333333336,
                    "velocity": 0.15748031496062992
                },
                {
                    "duration": 0.09057979166666996,
                    "durationTicks": 50,
                    "midi": 48,
                    "name": "C3",
                    "ticks": 95200,
                    "time": 172.46392333333336,
                    "velocity": 0.15748031496062992
                },
                {
                    "duration": 0.09057979166664154,
                    "durationTicks": 50,
                    "midi": 38,
                    "name": "D2",
                    "ticks": 95280,
                    "time": 172.60885100000002,
                    "velocity": 0.7874015748031497
                },
                {
                    "duration": 0.09057979166664154,
                    "durationTicks": 50,
                    "midi": 42,
                    "name": "F#2",
                    "ticks": 95280,
                    "time": 172.60885100000002,
                    "velocity": 0.5511811023622047
                },
                {
                    "duration": 0.09057979166664154,
                    "durationTicks": 50,
                    "midi": 45,
                    "name": "A2",
                    "ticks": 95280,
                    "time": 172.60885100000002,
                    "velocity": 0.2047244094488189
                },
                {
                    "duration": 0.09057979166664154,
                    "durationTicks": 50,
                    "midi": 35,
                    "name": "B1",
                    "ticks": 95440,
                    "time": 172.89870633333337,
                    "velocity": 0.3937007874015748
                },
                {
                    "duration": 0.09057979166664154,
                    "durationTicks": 50,
                    "midi": 38,
                    "name": "D2",
                    "ticks": 95440,
                    "time": 172.89870633333337,
                    "velocity": 0.7086614173228346
                },
                {
                    "duration": 0.09057979166664154,
                    "durationTicks": 50,
                    "midi": 49,
                    "name": "C#3",
                    "ticks": 95440,
                    "time": 172.89870633333337,
                    "velocity": 0.2125984251968504
                },
                {
                    "duration": 0.09057979166664154,
                    "durationTicks": 50,
                    "midi": 41,
                    "name": "F2",
                    "ticks": 95440,
                    "time": 172.89870633333337,
                    "velocity": 0.2047244094488189
                }
            ],
            "endOfTrackTicks": 95490
        },
        {
            "channel": 0,
            "controlChanges": {},
            "pitchBends": [],
            "instrument": {
                "family": "piano",
                "name": "acoustic grand piano",
                "number": 0
            },
            "name": "",
            "notes": [],
            "endOfTrackTicks": 0
        },
        {
            "channel": 0,
            "controlChanges": {},
            "pitchBends": [],
            "instrument": {
                "family": "piano",
                "name": "acoustic grand piano",
                "number": 0
            },
            "name": "All instr/Roland Sound Canvas",
            "notes": [],
            "endOfTrackTicks": 0
        },
        {
            "channel": 0,
            "controlChanges": {},
            "pitchBends": [],
            "instrument": {
                "family": "piano",
                "name": "acoustic grand piano",
                "number": 0
            },
            "name": "Freely distrib. /GMidi type1 ",
            "notes": [],
            "endOfTrackTicks": 0
        },
        {
            "channel": 0,
            "controlChanges": {},
            "pitchBends": [],
            "instrument": {
                "family": "piano",
                "name": "acoustic grand piano",
                "number": 0
            },
            "name": "DO NOT attempt to sell this",
            "notes": [],
            "endOfTrackTicks": 0
        },
        {
            "channel": 0,
            "controlChanges": {},
            "pitchBends": [],
            "instrument": {
                "family": "piano",
                "name": "acoustic grand piano",
                "number": 0
            },
            "name": "copyright tune",
            "notes": [],
            "endOfTrackTicks": 0
        },
        {
            "channel": 0,
            "controlChanges": {},
            "pitchBends": [],
            "instrument": {
                "family": "piano",
                "name": "acoustic grand piano",
                "number": 0
            },
            "name": "Contact MEL68@AOL.COM",
            "notes": [],
            "endOfTrackTicks": 0
        },
        {
            "channel": 0,
            "controlChanges": {},
            "pitchBends": [],
            "instrument": {
                "family": "piano",
                "name": "acoustic grand piano",
                "number": 0
            },
            "name": "Run time 2:55 / Ez listening",
            "notes": [],
            "endOfTrackTicks": 0
        },
        {
            "channel": 0,
            "controlChanges": {},
            "pitchBends": [],
            "instrument": {
                "family": "piano",
                "name": "acoustic grand piano",
                "number": 0
            },
            "name": "OCT 11 / 97",
            "notes": [],
            "endOfTrackTicks": 0
        }
    ]
}