{
    "header": {
        "keySignatures": [],
        "meta": [],
        "name": "",
        "ppq": 960,
        "tempos": [],
        "timeSignatures": []
    },
    "tracks": [
        {
            "channel": 8,
            "controlChanges": {},
            "pitchBends": [],
            "instrument": {
                "family": "brass",
                "name": "trombone",
                "number": 57
            },
            "name": "",
            "notes": [
                {
                    "duration": 0.1375,
                    "durationTicks": 264,
                    "midi": 52,
                    "name": "E3",
                    "ticks": 0,
                    "time": 0,
                    "velocity": 0.9606299212598425
                },
                {
                    "duration": 0.20416666666666666,
                    "durationTicks": 392,
                    "midi": 55,
                    "name": "G3",
                    "ticks": 240,
                    "time": 0.125,
                    "velocity": 0.9606299212598425
                },
                {
                    "duration": 0.3125,
                    "durationTicks": 600,
                    "midi": 57,
                    "name": "A3",
                    "ticks": 720,
                    "time": 0.375,
                    "velocity": 0.9606299212598425
                },
                {
                    "duration": 0.1958333333333333,
                    "durationTicks": 376,
                    "midi": 60,
                    "name": "C4",
                    "ticks": 1440,
                    "time": 0.75,
                    "velocity": 0.9606299212598425
                },
                {
                    "duration": 0.23750000000000004,
                    "durationTicks": 456,
                    "midi": 59,
                    "name": "B3",
                    "ticks": 1920,
                    "time": 1,
                    "velocity": 0.9606299212598425
                },
                {
                    "duration": 0.22916666666666674,
                    "durationTicks": 440,
                    "midi": 55,
                    "name": "G3",
                    "ticks": 2400,
                    "time": 1.25,
                    "velocity": 0.9606299212598425
                },
                {
                    "duration": 1.6041666666666665,
                    "durationTicks": 3080,
                    "midi": 57,
                    "name": "A3",
                    "ticks": 2880,
                    "time": 1.5,
                    "velocity": 0.9606299212598425
                },
                {
                    "duration": 0.22083333333333321,
                    "durationTicks": 424,
                    "midi": 52,
                    "name": "E3",
                    "ticks": 7680,
                    "time": 4,
                    "velocity": 0.9606299212598425
                },
                {
                    "duration": 0.07916666666666661,
                    "durationTicks": 152,
                    "midi": 55,
                    "name": "G3",
                    "ticks": 8160,
                    "time": 4.25,
                    "velocity": 0.9606299212598425
                },
                {
                    "duration": 0.33333333333333304,
                    "durationTicks": 640,
                    "midi": 57,
                    "name": "A3",
                    "ticks": 8400,
                    "time": 4.375,
                    "velocity": 0.9606299212598425
                },
                {
                    "duration": 0.30416666666666625,
                    "durationTicks": 584,
                    "midi": 60,
                    "name": "C4",
                    "ticks": 9120,
                    "time": 4.75,
                    "velocity": 0.9606299212598425
                },
                {
                    "duration": 0.19583333333333375,
                    "durationTicks": 376,
                    "midi": 59,
                    "name": "B3",
                    "ticks": 9840,
                    "time": 5.125,
                    "velocity": 0.9606299212598425
                },
                {
                    "duration": 0.09583333333333321,
                    "durationTicks": 184,
                    "midi": 55,
                    "name": "G3",
                    "ticks": 10320,
                    "time": 5.375,
                    "velocity": 0.9606299212598425
                },
                {
                    "duration": 1.3499999999999996,
                    "durationTicks": 2592,
                    "midi": 57,
                    "name": "A3",
                    "ticks": 10560,
                    "time": 5.5,
                    "velocity": 0.9606299212598425
                },
                {
                    "duration": 0.07083333333333286,
                    "durationTicks": 136,
                    "midi": 57,
                    "name": "A3",
                    "ticks": 15360,
                    "time": 8,
                    "velocity": 0.9606299212598425
                },
                {
                    "duration": 0.15000000000000036,
                    "durationTicks": 288,
                    "midi": 57,
                    "name": "A3",
                    "ticks": 15600,
                    "time": 8.125,
                    "velocity": 0.9606299212598425
                },
                {
                    "duration": 0.32083333333333286,
                    "durationTicks": 616,
                    "midi": 60,
                    "name": "C4",
                    "ticks": 16080,
                    "time": 8.375,
                    "velocity": 0.9606299212598425
                },
                {
                    "duration": 0.2375000000000007,
                    "durationTicks": 456,
                    "midi": 64,
                    "name": "E4",
                    "ticks": 16800,
                    "time": 8.75,
                    "velocity": 0.9606299212598425
                },
                {
                    "duration": 0.09999999999999964,
                    "durationTicks": 192,
                    "midi": 62,
                    "name": "D4",
                    "ticks": 17280,
                    "time": 9,
                    "velocity": 0.9606299212598425
                },
                {
                    "duration": 0.09583333333333321,
                    "durationTicks": 184,
                    "midi": 64,
                    "name": "E4",
                    "ticks": 17520,
                    "time": 9.125,
                    "velocity": 0.9606299212598425
                },
                {
                    "duration": 0.3416666666666668,
                    "durationTicks": 656,
                    "midi": 64,
                    "name": "E4",
                    "ticks": 17760,
                    "time": 9.25,
                    "velocity": 0.9606299212598425
                },
                {
                    "duration": 0.4041666666666668,
                    "durationTicks": 776,
                    "midi": 62,
                    "name": "D4",
                    "ticks": 18720,
                    "time": 9.75,
                    "velocity": 0.9606299212598425
                },
                {
                    "duration": 0.08750000000000036,
                    "durationTicks": 168,
                    "midi": 57,
                    "name": "A3",
                    "ticks": 19440,
                    "time": 10.125,
                    "velocity": 0.9606299212598425
                },
                {
                    "duration": 0.16249999999999964,
                    "durationTicks": 312,
                    "midi": 62,
                    "name": "D4",
                    "ticks": 19680,
                    "time": 10.25,
                    "velocity": 0.9606299212598425
                },
                {
                    "duration": 0.21666666666666679,
                    "durationTicks": 416,
                    "midi": 60,
                    "name": "C4",
                    "ticks": 20160,
                    "time": 10.5,
                    "velocity": 0.9606299212598425
                },
                {
                    "duration": 0.21250000000000036,
                    "durationTicks": 408,
                    "midi": 57,
                    "name": "A3",
                    "ticks": 20640,
                    "time": 10.75,
                    "velocity": 0.9606299212598425
                },
                {
                    "duration": 0.2375000000000007,
                    "durationTicks": 456,
                    "midi": 55,
                    "name": "G3",
                    "ticks": 21120,
                    "time": 11,
                    "velocity": 0.9606299212598425
                },
                {
                    "duration": 0.22083333333333321,
                    "durationTicks": 424,
                    "midi": 57,
                    "name": "A3",
                    "ticks": 21600,
                    "time": 11.25,
                    "velocity": 0.9606299212598425
                },
                {
                    "duration": 0.5,
                    "durationTicks": 960,
                    "midi": 57,
                    "name": "A3",
                    "ticks": 22080,
                    "time": 11.5,
                    "velocity": 0.9606299212598425
                },
                {
                    "duration": 0.12916666666666643,
                    "durationTicks": 248,
                    "midi": 60,
                    "name": "C4",
                    "ticks": 23040,
                    "time": 12,
                    "velocity": 0.9606299212598425
                },
                {
                    "duration": 0.11666666666666714,
                    "durationTicks": 224,
                    "midi": 62,
                    "name": "D4",
                    "ticks": 23280,
                    "time": 12.125,
                    "velocity": 0.9606299212598425
                },
                {
                    "duration": 0.6624999999999996,
                    "durationTicks": 1272,
                    "midi": 60,
                    "name": "C4",
                    "ticks": 23520,
                    "time": 12.25,
                    "velocity": 0.9606299212598425
                },
                {
                    "duration": 0.13333333333333286,
                    "durationTicks": 256,
                    "midi": 57,
                    "name": "A3",
                    "ticks": 24960,
                    "time": 13,
                    "velocity": 0.9606299212598425
                },
                {
                    "duration": 0.22083333333333321,
                    "durationTicks": 424,
                    "midi": 55,
                    "name": "G3",
                    "ticks": 25200,
                    "time": 13.125,
                    "velocity": 0.9606299212598425
                },
                {
                    "duration": 0.0625,
                    "durationTicks": 120,
                    "midi": 57,
                    "name": "A3",
                    "ticks": 25680,
                    "time": 13.375,
                    "velocity": 0.9606299212598425
                },
                {
                    "duration": 1.5708333333333329,
                    "durationTicks": 3016,
                    "midi": 57,
                    "name": "A3",
                    "ticks": 25920,
                    "time": 13.5,
                    "velocity": 0.9606299212598425
                },
                {
                    "duration": 0.11250000000000071,
                    "durationTicks": 216,
                    "midi": 52,
                    "name": "E3",
                    "ticks": 30720,
                    "time": 16,
                    "velocity": 0.9606299212598425
                },
                {
                    "duration": 0.14583333333333215,
                    "durationTicks": 280,
                    "midi": 55,
                    "name": "G3",
                    "ticks": 30960,
                    "time": 16.125,
                    "velocity": 0.9606299212598425
                },
                {
                    "duration": 0.30416666666666714,
                    "durationTicks": 584,
                    "midi": 57,
                    "name": "A3",
                    "ticks": 31440,
                    "time": 16.375,
                    "velocity": 0.9606299212598425
                },
                {
                    "duration": 0.23333333333333428,
                    "durationTicks": 448,
                    "midi": 60,
                    "name": "C4",
                    "ticks": 32160,
                    "time": 16.75,
                    "velocity": 0.9606299212598425
                },
                {
                    "duration": 0.220833333333335,
                    "durationTicks": 424,
                    "midi": 59,
                    "name": "B3",
                    "ticks": 32640,
                    "time": 17,
                    "velocity": 0.9606299212598425
                },
                {
                    "duration": 0.18333333333333357,
                    "durationTicks": 352,
                    "midi": 55,
                    "name": "G3",
                    "ticks": 33120,
                    "time": 17.25,
                    "velocity": 0.9606299212598425
                },
                {
                    "duration": 1.6041666666666679,
                    "durationTicks": 3080,
                    "midi": 57,
                    "name": "A3",
                    "ticks": 33600,
                    "time": 17.5,
                    "velocity": 0.9606299212598425
                },
                {
                    "duration": 0.220833333333335,
                    "durationTicks": 424,
                    "midi": 52,
                    "name": "E3",
                    "ticks": 38400,
                    "time": 20,
                    "velocity": 0.9606299212598425
                },
                {
                    "duration": 0.07916666666666572,
                    "durationTicks": 152,
                    "midi": 55,
                    "name": "G3",
                    "ticks": 38880,
                    "time": 20.25,
                    "velocity": 0.9606299212598425
                },
                {
                    "duration": 0.33333333333333215,
                    "durationTicks": 640,
                    "midi": 57,
                    "name": "A3",
                    "ticks": 39120,
                    "time": 20.375,
                    "velocity": 0.9606299212598425
                },
                {
                    "duration": 0.30416666666666714,
                    "durationTicks": 584,
                    "midi": 60,
                    "name": "C4",
                    "ticks": 39840,
                    "time": 20.75,
                    "velocity": 0.9606299212598425
                },
                {
                    "duration": 0.19583333333333286,
                    "durationTicks": 376,
                    "midi": 59,
                    "name": "B3",
                    "ticks": 40560,
                    "time": 21.125,
                    "velocity": 0.9606299212598425
                },
                {
                    "duration": 0.09583333333333499,
                    "durationTicks": 184,
                    "midi": 55,
                    "name": "G3",
                    "ticks": 41040,
                    "time": 21.375,
                    "velocity": 0.9606299212598425
                },
                {
                    "duration": 1.3500000000000014,
                    "durationTicks": 2592,
                    "midi": 57,
                    "name": "A3",
                    "ticks": 41280,
                    "time": 21.5,
                    "velocity": 0.9606299212598425
                },
                {
                    "duration": 0.07083333333333286,
                    "durationTicks": 136,
                    "midi": 57,
                    "name": "A3",
                    "ticks": 46080,
                    "time": 24,
                    "velocity": 0.9606299212598425
                },
                {
                    "duration": 0.14999999999999858,
                    "durationTicks": 288,
                    "midi": 57,
                    "name": "A3",
                    "ticks": 46320,
                    "time": 24.125,
                    "velocity": 0.9606299212598425
                },
                {
                    "duration": 0.32083333333333286,
                    "durationTicks": 616,
                    "midi": 60,
                    "name": "C4",
                    "ticks": 46800,
                    "time": 24.375,
                    "velocity": 0.9606299212598425
                },
                {
                    "duration": 0.2375000000000007,
                    "durationTicks": 456,
                    "midi": 64,
                    "name": "E4",
                    "ticks": 47520,
                    "time": 24.75,
                    "velocity": 0.9606299212598425
                },
                {
                    "duration": 0.10000000000000142,
                    "durationTicks": 192,
                    "midi": 62,
                    "name": "D4",
                    "ticks": 48000,
                    "time": 25,
                    "velocity": 0.9606299212598425
                },
                {
                    "duration": 0.09583333333333499,
                    "durationTicks": 184,
                    "midi": 64,
                    "name": "E4",
                    "ticks": 48240,
                    "time": 25.125,
                    "velocity": 0.9606299212598425
                },
                {
                    "duration": 0.341666666666665,
                    "durationTicks": 656,
                    "midi": 64,
                    "name": "E4",
                    "ticks": 48480,
                    "time": 25.25,
                    "velocity": 0.9606299212598425
                },
                {
                    "duration": 0.404166666666665,
                    "durationTicks": 776,
                    "midi": 62,
                    "name": "D4",
                    "ticks": 49440,
                    "time": 25.75,
                    "velocity": 0.9606299212598425
                },
                {
                    "duration": 0.08749999999999858,
                    "durationTicks": 168,
                    "midi": 57,
                    "name": "A3",
                    "ticks": 50160,
                    "time": 26.125,
                    "velocity": 0.9606299212598425
                },
                {
                    "duration": 0.16250000000000142,
                    "durationTicks": 312,
                    "midi": 62,
                    "name": "D4",
                    "ticks": 50400,
                    "time": 26.25,
                    "velocity": 0.9606299212598425
                },
                {
                    "duration": 0.216666666666665,
                    "durationTicks": 416,
                    "midi": 60,
                    "name": "C4",
                    "ticks": 50880,
                    "time": 26.5,
                    "velocity": 0.9606299212598425
                },
                {
                    "duration": 0.21249999999999858,
                    "durationTicks": 408,
                    "midi": 57,
                    "name": "A3",
                    "ticks": 51360,
                    "time": 26.75,
                    "velocity": 0.9606299212598425
                },
                {
                    "duration": 0.2375000000000007,
                    "durationTicks": 456,
                    "midi": 55,
                    "name": "G3",
                    "ticks": 51840,
                    "time": 27,
                    "velocity": 0.9606299212598425
                },
                {
                    "duration": 0.220833333333335,
                    "durationTicks": 424,
                    "midi": 57,
                    "name": "A3",
                    "ticks": 52320,
                    "time": 27.25,
                    "velocity": 0.9606299212598425
                },
                {
                    "duration": 0.5,
                    "durationTicks": 960,
                    "midi": 57,
                    "name": "A3",
                    "ticks": 52800,
                    "time": 27.5,
                    "velocity": 0.9606299212598425
                },
                {
                    "duration": 0.12916666666666643,
                    "durationTicks": 248,
                    "midi": 60,
                    "name": "C4",
                    "ticks": 53760,
                    "time": 28,
                    "velocity": 0.9606299212598425
                },
                {
                    "duration": 0.11666666666666714,
                    "durationTicks": 224,
                    "midi": 62,
                    "name": "D4",
                    "ticks": 54000,
                    "time": 28.125,
                    "velocity": 0.9606299212598425
                },
                {
                    "duration": 0.6625000000000014,
                    "durationTicks": 1272,
                    "midi": 60,
                    "name": "C4",
                    "ticks": 54240,
                    "time": 28.25,
                    "velocity": 0.9606299212598425
                },
                {
                    "duration": 0.13333333333333286,
                    "durationTicks": 256,
                    "midi": 57,
                    "name": "A3",
                    "ticks": 55680,
                    "time": 29,
                    "velocity": 0.9606299212598425
                },
                {
                    "duration": 0.220833333333335,
                    "durationTicks": 424,
                    "midi": 55,
                    "name": "G3",
                    "ticks": 55920,
                    "time": 29.125,
                    "velocity": 0.9606299212598425
                },
                {
                    "duration": 0.0625,
                    "durationTicks": 120,
                    "midi": 57,
                    "name": "A3",
                    "ticks": 56400,
                    "time": 29.375,
                    "velocity": 0.9606299212598425
                },
                {
                    "duration": 1.5708333333333329,
                    "durationTicks": 3016,
                    "midi": 57,
                    "name": "A3",
                    "ticks": 56640,
                    "time": 29.5,
                    "velocity": 0.9606299212598425
                },
                {
                    "duration": 0.10833333333333428,
                    "durationTicks": 208,
                    "midi": 52,
                    "name": "E3",
                    "ticks": 61200,
                    "time": 31.875,
                    "velocity": 0.9606299212598425
                },
                {
                    "duration": 0.10833333333333428,
                    "durationTicks": 208,
                    "midi": 55,
                    "name": "G3",
                    "ticks": 61440,
                    "time": 32,
                    "velocity": 0.9606299212598425
                },
                {
                    "duration": 0.20000000000000284,
                    "durationTicks": 384,
                    "midi": 57,
                    "name": "A3",
                    "ticks": 61680,
                    "time": 32.125,
                    "velocity": 0.9606299212598425
                },
                {
                    "duration": 0.09166666666666856,
                    "durationTicks": 176,
                    "midi": 55,
                    "name": "G3",
                    "ticks": 62160,
                    "time": 32.375,
                    "velocity": 0.9606299212598425
                },
                {
                    "duration": 0.20416666666666572,
                    "durationTicks": 392,
                    "midi": 57,
                    "name": "A3",
                    "ticks": 62400,
                    "time": 32.5,
                    "velocity": 0.9606299212598425
                },
                {
                    "duration": 0.07916666666666572,
                    "durationTicks": 152,
                    "midi": 55,
                    "name": "G3",
                    "ticks": 62880,
                    "time": 32.75,
                    "velocity": 0.9606299212598425
                },
                {
                    "duration": 0.20416666666666572,
                    "durationTicks": 392,
                    "midi": 57,
                    "name": "A3",
                    "ticks": 63120,
                    "time": 32.875,
                    "velocity": 0.9606299212598425
                },
                {
                    "duration": 0.10000000000000142,
                    "durationTicks": 192,
                    "midi": 55,
                    "name": "G3",
                    "ticks": 63600,
                    "time": 33.125,
                    "velocity": 0.9606299212598425
                },
                {
                    "duration": 0.09583333333333144,
                    "durationTicks": 184,
                    "midi": 57,
                    "name": "A3",
                    "ticks": 63840,
                    "time": 33.25,
                    "velocity": 0.9606299212598425
                },
                {
                    "duration": 0.10000000000000142,
                    "durationTicks": 192,
                    "midi": 52,
                    "name": "E3",
                    "ticks": 64080,
                    "time": 33.375,
                    "velocity": 0.9606299212598425
                },
                {
                    "duration": 0.09166666666666856,
                    "durationTicks": 176,
                    "midi": 55,
                    "name": "G3",
                    "ticks": 64320,
                    "time": 33.5,
                    "velocity": 0.9606299212598425
                },
                {
                    "duration": 0.12916666666666998,
                    "durationTicks": 248,
                    "midi": 57,
                    "name": "A3",
                    "ticks": 64560,
                    "time": 33.625,
                    "velocity": 0.9606299212598425
                },
                {
                    "duration": 0.09166666666666856,
                    "durationTicks": 176,
                    "midi": 55,
                    "name": "G3",
                    "ticks": 65040,
                    "time": 33.875,
                    "velocity": 0.9606299212598425
                },
                {
                    "duration": 0.20416666666666572,
                    "durationTicks": 392,
                    "midi": 60,
                    "name": "C4",
                    "ticks": 65280,
                    "time": 34,
                    "velocity": 0.9606299212598425
                },
                {
                    "duration": 0.09583333333333144,
                    "durationTicks": 184,
                    "midi": 55,
                    "name": "G3",
                    "ticks": 65760,
                    "time": 34.25,
                    "velocity": 0.9606299212598425
                },
                {
                    "duration": 0.21666666666666856,
                    "durationTicks": 416,
                    "midi": 57,
                    "name": "A3",
                    "ticks": 66000,
                    "time": 34.375,
                    "velocity": 0.9606299212598425
                },
                {
                    "duration": 0.09166666666666856,
                    "durationTicks": 176,
                    "midi": 55,
                    "name": "G3",
                    "ticks": 66480,
                    "time": 34.625,
                    "velocity": 0.9606299212598425
                },
                {
                    "duration": 0.10833333333333428,
                    "durationTicks": 208,
                    "midi": 57,
                    "name": "A3",
                    "ticks": 66720,
                    "time": 34.75,
                    "velocity": 0.9606299212598425
                },
                {
                    "duration": 0.11249999999999716,
                    "durationTicks": 216,
                    "midi": 52,
                    "name": "E3",
                    "ticks": 66960,
                    "time": 34.875,
                    "velocity": 0.9606299212598425
                },
                {
                    "duration": 0.10000000000000142,
                    "durationTicks": 192,
                    "midi": 55,
                    "name": "G3",
                    "ticks": 67200,
                    "time": 35,
                    "velocity": 0.9606299212598425
                },
                {
                    "duration": 0.12916666666666998,
                    "durationTicks": 248,
                    "midi": 57,
                    "name": "A3",
                    "ticks": 67440,
                    "time": 35.125,
                    "velocity": 0.9606299212598425
                },
                {
                    "duration": 0.07916666666666572,
                    "durationTicks": 152,
                    "midi": 55,
                    "name": "G3",
                    "ticks": 67920,
                    "time": 35.375,
                    "velocity": 0.9606299212598425
                },
                {
                    "duration": 0.20416666666666572,
                    "durationTicks": 392,
                    "midi": 57,
                    "name": "A3",
                    "ticks": 68160,
                    "time": 35.5,
                    "velocity": 0.9606299212598425
                },
                {
                    "duration": 0.08749999999999858,
                    "durationTicks": 168,
                    "midi": 55,
                    "name": "G3",
                    "ticks": 68640,
                    "time": 35.75,
                    "velocity": 0.9606299212598425
                },
                {
                    "duration": 0.19583333333333286,
                    "durationTicks": 376,
                    "midi": 57,
                    "name": "A3",
                    "ticks": 68880,
                    "time": 35.875,
                    "velocity": 0.9606299212598425
                },
                {
                    "duration": 0.09583333333333144,
                    "durationTicks": 184,
                    "midi": 55,
                    "name": "G3",
                    "ticks": 69360,
                    "time": 36.125,
                    "velocity": 0.9606299212598425
                },
                {
                    "duration": 0.15416666666666856,
                    "durationTicks": 296,
                    "midi": 57,
                    "name": "A3",
                    "ticks": 69600,
                    "time": 36.25,
                    "velocity": 0.9606299212598425
                },
                {
                    "duration": 0.11249999999999716,
                    "durationTicks": 216,
                    "midi": 52,
                    "name": "E3",
                    "ticks": 69840,
                    "time": 36.375,
                    "velocity": 0.9606299212598425
                },
                {
                    "duration": 0.10000000000000142,
                    "durationTicks": 192,
                    "midi": 55,
                    "name": "G3",
                    "ticks": 70080,
                    "time": 36.5,
                    "velocity": 0.9606299212598425
                },
                {
                    "duration": 0.21666666666666856,
                    "durationTicks": 416,
                    "midi": 57,
                    "name": "A3",
                    "ticks": 70320,
                    "time": 36.625,
                    "velocity": 0.9606299212598425
                },
                {
                    "duration": 0.08749999999999858,
                    "durationTicks": 168,
                    "midi": 55,
                    "name": "G3",
                    "ticks": 70800,
                    "time": 36.875,
                    "velocity": 0.9606299212598425
                },
                {
                    "duration": 0.20416666666666572,
                    "durationTicks": 392,
                    "midi": 60,
                    "name": "C4",
                    "ticks": 71040,
                    "time": 37,
                    "velocity": 0.9606299212598425
                },
                {
                    "duration": 0.09583333333333144,
                    "durationTicks": 184,
                    "midi": 55,
                    "name": "G3",
                    "ticks": 71520,
                    "time": 37.25,
                    "velocity": 0.9606299212598425
                },
                {
                    "duration": 0.22083333333333144,
                    "durationTicks": 424,
                    "midi": 57,
                    "name": "A3",
                    "ticks": 71760,
                    "time": 37.375,
                    "velocity": 0.9606299212598425
                },
                {
                    "duration": 0.08749999999999858,
                    "durationTicks": 168,
                    "midi": 55,
                    "name": "G3",
                    "ticks": 72240,
                    "time": 37.625,
                    "velocity": 0.9606299212598425
                },
                {
                    "duration": 0.1458333333333357,
                    "durationTicks": 280,
                    "midi": 57,
                    "name": "A3",
                    "ticks": 72480,
                    "time": 37.75,
                    "velocity": 0.9606299212598425
                },
                {
                    "duration": 0.1041666666666643,
                    "durationTicks": 200,
                    "midi": 52,
                    "name": "E3",
                    "ticks": 72720,
                    "time": 37.875,
                    "velocity": 0.9606299212598425
                },
                {
                    "duration": 0.10000000000000142,
                    "durationTicks": 192,
                    "midi": 55,
                    "name": "G3",
                    "ticks": 72960,
                    "time": 38,
                    "velocity": 0.9606299212598425
                },
                {
                    "duration": 0.2083333333333357,
                    "durationTicks": 400,
                    "midi": 57,
                    "name": "A3",
                    "ticks": 73200,
                    "time": 38.125,
                    "velocity": 0.9606299212598425
                },
                {
                    "duration": 0.07500000000000284,
                    "durationTicks": 144,
                    "midi": 55,
                    "name": "G3",
                    "ticks": 73680,
                    "time": 38.375,
                    "velocity": 0.9606299212598425
                },
                {
                    "duration": 0.20416666666666572,
                    "durationTicks": 392,
                    "midi": 57,
                    "name": "A3",
                    "ticks": 73920,
                    "time": 38.5,
                    "velocity": 0.9606299212598425
                },
                {
                    "duration": 0.07083333333333286,
                    "durationTicks": 136,
                    "midi": 55,
                    "name": "G3",
                    "ticks": 74400,
                    "time": 38.75,
                    "velocity": 0.9606299212598425
                },
                {
                    "duration": 0.21249999999999858,
                    "durationTicks": 408,
                    "midi": 57,
                    "name": "A3",
                    "ticks": 74640,
                    "time": 38.875,
                    "velocity": 0.9606299212598425
                },
                {
                    "duration": 0.07916666666666572,
                    "durationTicks": 152,
                    "midi": 55,
                    "name": "G3",
                    "ticks": 75120,
                    "time": 39.125,
                    "velocity": 0.9606299212598425
                },
                {
                    "duration": 0.23749999999999716,
                    "durationTicks": 456,
                    "midi": 57,
                    "name": "A3",
                    "ticks": 75360,
                    "time": 39.25,
                    "velocity": 0.9606299212598425
                },
                {
                    "duration": 0.08749999999999858,
                    "durationTicks": 168,
                    "midi": 55,
                    "name": "G3",
                    "ticks": 75840,
                    "time": 39.5,
                    "velocity": 0.9606299212598425
                },
                {
                    "duration": 0.21666666666666856,
                    "durationTicks": 416,
                    "midi": 57,
                    "name": "A3",
                    "ticks": 76080,
                    "time": 39.625,
                    "velocity": 0.9606299212598425
                },
                {
                    "duration": 0.0833333333333357,
                    "durationTicks": 160,
                    "midi": 55,
                    "name": "G3",
                    "ticks": 76560,
                    "time": 39.875,
                    "velocity": 0.9606299212598425
                },
                {
                    "duration": 0.20000000000000284,
                    "durationTicks": 384,
                    "midi": 57,
                    "name": "A3",
                    "ticks": 76800,
                    "time": 40,
                    "velocity": 0.9606299212598425
                },
                {
                    "duration": 0.0833333333333357,
                    "durationTicks": 160,
                    "midi": 55,
                    "name": "G3",
                    "ticks": 77280,
                    "time": 40.25,
                    "velocity": 0.9606299212598425
                },
                {
                    "duration": 0.20000000000000284,
                    "durationTicks": 384,
                    "midi": 57,
                    "name": "A3",
                    "ticks": 77520,
                    "time": 40.375,
                    "velocity": 0.9606299212598425
                },
                {
                    "duration": 0.08749999999999858,
                    "durationTicks": 168,
                    "midi": 55,
                    "name": "G3",
                    "ticks": 78000,
                    "time": 40.625,
                    "velocity": 0.9606299212598425
                },
                {
                    "duration": 0.2291666666666643,
                    "durationTicks": 440,
                    "midi": 57,
                    "name": "A3",
                    "ticks": 78240,
                    "time": 40.75,
                    "velocity": 0.9606299212598425
                },
                {
                    "duration": 0.11249999999999716,
                    "durationTicks": 216,
                    "midi": 55,
                    "name": "G3",
                    "ticks": 78720,
                    "time": 41,
                    "velocity": 0.9606299212598425
                },
                {
                    "duration": 0.2291666666666643,
                    "durationTicks": 440,
                    "midi": 57,
                    "name": "A3",
                    "ticks": 78960,
                    "time": 41.125,
                    "velocity": 0.9606299212598425
                },
                {
                    "duration": 0.07500000000000284,
                    "durationTicks": 144,
                    "midi": 55,
                    "name": "G3",
                    "ticks": 79440,
                    "time": 41.375,
                    "velocity": 0.9606299212598425
                },
                {
                    "duration": 0.13750000000000284,
                    "durationTicks": 264,
                    "midi": 60,
                    "name": "C4",
                    "ticks": 79680,
                    "time": 41.5,
                    "velocity": 0.9606299212598425
                },
                {
                    "duration": 0.1666666666666643,
                    "durationTicks": 320,
                    "midi": 64,
                    "name": "E4",
                    "ticks": 80400,
                    "time": 41.875,
                    "velocity": 0.9606299212598425
                },
                {
                    "duration": 0.05416666666666714,
                    "durationTicks": 104,
                    "midi": 64,
                    "name": "E4",
                    "ticks": 80880,
                    "time": 42.125,
                    "velocity": 0.9606299212598425
                },
                {
                    "duration": 0.0833333333333357,
                    "durationTicks": 160,
                    "midi": 64,
                    "name": "E4",
                    "ticks": 81120,
                    "time": 42.25,
                    "velocity": 0.9606299212598425
                },
                {
                    "duration": 0.07916666666666572,
                    "durationTicks": 152,
                    "midi": 64,
                    "name": "E4",
                    "ticks": 81360,
                    "time": 42.375,
                    "velocity": 0.9606299212598425
                },
                {
                    "duration": 0.09166666666666856,
                    "durationTicks": 176,
                    "midi": 67,
                    "name": "G4",
                    "ticks": 81600,
                    "time": 42.5,
                    "velocity": 0.9606299212598425
                },
                {
                    "duration": 0.07500000000000284,
                    "durationTicks": 144,
                    "midi": 67,
                    "name": "G4",
                    "ticks": 81840,
                    "time": 42.625,
                    "velocity": 0.9606299212598425
                },
                {
                    "duration": 0.17083333333333428,
                    "durationTicks": 328,
                    "midi": 64,
                    "name": "E4",
                    "ticks": 82080,
                    "time": 42.75,
                    "velocity": 0.9606299212598425
                },
                {
                    "duration": 0.2083333333333357,
                    "durationTicks": 400,
                    "midi": 62,
                    "name": "D4",
                    "ticks": 82560,
                    "time": 43,
                    "velocity": 0.9606299212598425
                },
                {
                    "duration": 0.10833333333333428,
                    "durationTicks": 208,
                    "midi": 60,
                    "name": "C4",
                    "ticks": 83040,
                    "time": 43.25,
                    "velocity": 0.9606299212598425
                },
                {
                    "duration": 0.19166666666666998,
                    "durationTicks": 368,
                    "midi": 62,
                    "name": "D4",
                    "ticks": 83280,
                    "time": 43.375,
                    "velocity": 0.9606299212598425
                },
                {
                    "duration": 0.1041666666666643,
                    "durationTicks": 200,
                    "midi": 60,
                    "name": "C4",
                    "ticks": 83760,
                    "time": 43.625,
                    "velocity": 0.9606299212598425
                },
                {
                    "duration": 0.07083333333333286,
                    "durationTicks": 136,
                    "midi": 57,
                    "name": "A3",
                    "ticks": 84240,
                    "time": 43.875,
                    "velocity": 0.9606299212598425
                },
                {
                    "duration": 0.07500000000000284,
                    "durationTicks": 144,
                    "midi": 64,
                    "name": "E4",
                    "ticks": 84480,
                    "time": 44,
                    "velocity": 0.9606299212598425
                },
                {
                    "duration": 0.20416666666666572,
                    "durationTicks": 392,
                    "midi": 62,
                    "name": "D4",
                    "ticks": 84720,
                    "time": 44.125,
                    "velocity": 0.9606299212598425
                },
                {
                    "duration": 0.18333333333333002,
                    "durationTicks": 352,
                    "midi": 62,
                    "name": "D4",
                    "ticks": 85200,
                    "time": 44.375,
                    "velocity": 0.9606299212598425
                },
                {
                    "duration": 0.3125,
                    "durationTicks": 600,
                    "midi": 60,
                    "name": "C4",
                    "ticks": 85680,
                    "time": 44.625,
                    "velocity": 0.9606299212598425
                },
                {
                    "duration": 0.1875,
                    "durationTicks": 360,
                    "midi": 57,
                    "name": "A3",
                    "ticks": 86400,
                    "time": 45,
                    "velocity": 0.9606299212598425
                },
                {
                    "duration": 0.14999999999999858,
                    "durationTicks": 288,
                    "midi": 55,
                    "name": "G3",
                    "ticks": 86880,
                    "time": 45.25,
                    "velocity": 0.9606299212598425
                },
                {
                    "duration": 0.8458333333333314,
                    "durationTicks": 1624,
                    "midi": 57,
                    "name": "A3",
                    "ticks": 87360,
                    "time": 45.5,
                    "velocity": 0.9606299212598425
                },
                {
                    "duration": 0.21249999999999858,
                    "durationTicks": 408,
                    "midi": 52,
                    "name": "E3",
                    "ticks": 92160,
                    "time": 48,
                    "velocity": 0.9606299212598425
                },
                {
                    "duration": 0.07916666666666572,
                    "durationTicks": 152,
                    "midi": 55,
                    "name": "G3",
                    "ticks": 92640,
                    "time": 48.25,
                    "velocity": 0.9606299212598425
                },
                {
                    "duration": 0.3125,
                    "durationTicks": 600,
                    "midi": 57,
                    "name": "A3",
                    "ticks": 92880,
                    "time": 48.375,
                    "velocity": 0.9606299212598425
                },
                {
                    "duration": 0.34583333333333144,
                    "durationTicks": 664,
                    "midi": 60,
                    "name": "C4",
                    "ticks": 93600,
                    "time": 48.75,
                    "velocity": 0.9606299212598425
                },
                {
                    "duration": 0.20000000000000284,
                    "durationTicks": 384,
                    "midi": 59,
                    "name": "B3",
                    "ticks": 94320,
                    "time": 49.125,
                    "velocity": 0.9606299212598425
                },
                {
                    "duration": 0.1041666666666643,
                    "durationTicks": 200,
                    "midi": 55,
                    "name": "G3",
                    "ticks": 94800,
                    "time": 49.375,
                    "velocity": 0.9606299212598425
                },
                {
                    "duration": 1.6041666666666643,
                    "durationTicks": 3080,
                    "midi": 57,
                    "name": "A3",
                    "ticks": 95040,
                    "time": 49.5,
                    "velocity": 0.9606299212598425
                },
                {
                    "duration": 0.07083333333333286,
                    "durationTicks": 136,
                    "midi": 57,
                    "name": "A3",
                    "ticks": 99840,
                    "time": 52,
                    "velocity": 0.9606299212598425
                },
                {
                    "duration": 0.14999999999999858,
                    "durationTicks": 288,
                    "midi": 57,
                    "name": "A3",
                    "ticks": 100080,
                    "time": 52.125,
                    "velocity": 0.9606299212598425
                },
                {
                    "duration": 0.32083333333333286,
                    "durationTicks": 616,
                    "midi": 60,
                    "name": "C4",
                    "ticks": 100560,
                    "time": 52.375,
                    "velocity": 0.9606299212598425
                },
                {
                    "duration": 0.23749999999999716,
                    "durationTicks": 456,
                    "midi": 64,
                    "name": "E4",
                    "ticks": 101280,
                    "time": 52.75,
                    "velocity": 0.9606299212598425
                },
                {
                    "duration": 0.10000000000000142,
                    "durationTicks": 192,
                    "midi": 62,
                    "name": "D4",
                    "ticks": 101760,
                    "time": 53,
                    "velocity": 0.9606299212598425
                },
                {
                    "duration": 0.09583333333333144,
                    "durationTicks": 184,
                    "midi": 64,
                    "name": "E4",
                    "ticks": 102000,
                    "time": 53.125,
                    "velocity": 0.9606299212598425
                },
                {
                    "duration": 0.34166666666666856,
                    "durationTicks": 656,
                    "midi": 64,
                    "name": "E4",
                    "ticks": 102240,
                    "time": 53.25,
                    "velocity": 0.9606299212598425
                },
                {
                    "duration": 0.40416666666666856,
                    "durationTicks": 776,
                    "midi": 62,
                    "name": "D4",
                    "ticks": 103200,
                    "time": 53.75,
                    "velocity": 0.9606299212598425
                },
                {
                    "duration": 0.08749999999999858,
                    "durationTicks": 168,
                    "midi": 57,
                    "name": "A3",
                    "ticks": 103920,
                    "time": 54.125,
                    "velocity": 0.9606299212598425
                },
                {
                    "duration": 0.16250000000000142,
                    "durationTicks": 312,
                    "midi": 62,
                    "name": "D4",
                    "ticks": 104160,
                    "time": 54.25,
                    "velocity": 0.9606299212598425
                },
                {
                    "duration": 0.21666666666666856,
                    "durationTicks": 416,
                    "midi": 60,
                    "name": "C4",
                    "ticks": 104640,
                    "time": 54.5,
                    "velocity": 0.9606299212598425
                },
                {
                    "duration": 0.21249999999999858,
                    "durationTicks": 408,
                    "midi": 57,
                    "name": "A3",
                    "ticks": 105120,
                    "time": 54.75,
                    "velocity": 0.9606299212598425
                },
                {
                    "duration": 0.23749999999999716,
                    "durationTicks": 456,
                    "midi": 55,
                    "name": "G3",
                    "ticks": 105600,
                    "time": 55,
                    "velocity": 0.9606299212598425
                },
                {
                    "duration": 0.22083333333333144,
                    "durationTicks": 424,
                    "midi": 57,
                    "name": "A3",
                    "ticks": 106080,
                    "time": 55.25,
                    "velocity": 0.9606299212598425
                },
                {
                    "duration": 0.5,
                    "durationTicks": 960,
                    "midi": 57,
                    "name": "A3",
                    "ticks": 106560,
                    "time": 55.5,
                    "velocity": 0.9606299212598425
                },
                {
                    "duration": 0.12916666666666998,
                    "durationTicks": 248,
                    "midi": 60,
                    "name": "C4",
                    "ticks": 107520,
                    "time": 56,
                    "velocity": 0.9606299212598425
                },
                {
                    "duration": 0.11666666666666714,
                    "durationTicks": 224,
                    "midi": 62,
                    "name": "D4",
                    "ticks": 107760,
                    "time": 56.125,
                    "velocity": 0.9606299212598425
                },
                {
                    "duration": 0.6625000000000014,
                    "durationTicks": 1272,
                    "midi": 60,
                    "name": "C4",
                    "ticks": 108000,
                    "time": 56.25,
                    "velocity": 0.9606299212598425
                },
                {
                    "duration": 0.13333333333333286,
                    "durationTicks": 256,
                    "midi": 57,
                    "name": "A3",
                    "ticks": 109440,
                    "time": 57,
                    "velocity": 0.9606299212598425
                },
                {
                    "duration": 0.22083333333333144,
                    "durationTicks": 424,
                    "midi": 55,
                    "name": "G3",
                    "ticks": 109680,
                    "time": 57.125,
                    "velocity": 0.9606299212598425
                },
                {
                    "duration": 0.0625,
                    "durationTicks": 120,
                    "midi": 57,
                    "name": "A3",
                    "ticks": 110160,
                    "time": 57.375,
                    "velocity": 0.9606299212598425
                },
                {
                    "duration": 1.5708333333333329,
                    "durationTicks": 3016,
                    "midi": 57,
                    "name": "A3",
                    "ticks": 110400,
                    "time": 57.5,
                    "velocity": 0.9606299212598425
                },
                {
                    "duration": 0.21249999999999858,
                    "durationTicks": 408,
                    "midi": 52,
                    "name": "E3",
                    "ticks": 115200,
                    "time": 60,
                    "velocity": 0.9606299212598425
                },
                {
                    "duration": 0.07916666666666572,
                    "durationTicks": 152,
                    "midi": 55,
                    "name": "G3",
                    "ticks": 115680,
                    "time": 60.25,
                    "velocity": 0.9606299212598425
                },
                {
                    "duration": 0.3125,
                    "durationTicks": 600,
                    "midi": 57,
                    "name": "A3",
                    "ticks": 115920,
                    "time": 60.375,
                    "velocity": 0.9606299212598425
                },
                {
                    "duration": 0.34583333333333144,
                    "durationTicks": 664,
                    "midi": 60,
                    "name": "C4",
                    "ticks": 116640,
                    "time": 60.75,
                    "velocity": 0.9606299212598425
                },
                {
                    "duration": 0.20000000000000284,
                    "durationTicks": 384,
                    "midi": 59,
                    "name": "B3",
                    "ticks": 117360,
                    "time": 61.125,
                    "velocity": 0.9606299212598425
                },
                {
                    "duration": 0.1041666666666643,
                    "durationTicks": 200,
                    "midi": 55,
                    "name": "G3",
                    "ticks": 117840,
                    "time": 61.375,
                    "velocity": 0.9606299212598425
                },
                {
                    "duration": 1.6041666666666643,
                    "durationTicks": 3080,
                    "midi": 57,
                    "name": "A3",
                    "ticks": 118080,
                    "time": 61.5,
                    "velocity": 0.9606299212598425
                },
                {
                    "duration": 0.22083333333333144,
                    "durationTicks": 424,
                    "midi": 52,
                    "name": "E3",
                    "ticks": 122880,
                    "time": 64,
                    "velocity": 0.9606299212598425
                },
                {
                    "duration": 0.07916666666666572,
                    "durationTicks": 152,
                    "midi": 55,
                    "name": "G3",
                    "ticks": 123360,
                    "time": 64.25,
                    "velocity": 0.9606299212598425
                },
                {
                    "duration": 0.3333333333333286,
                    "durationTicks": 640,
                    "midi": 57,
                    "name": "A3",
                    "ticks": 123600,
                    "time": 64.375,
                    "velocity": 0.9606299212598425
                },
                {
                    "duration": 0.30416666666666003,
                    "durationTicks": 584,
                    "midi": 60,
                    "name": "C4",
                    "ticks": 124320,
                    "time": 64.75,
                    "velocity": 0.9606299212598425
                },
                {
                    "duration": 0.19583333333333997,
                    "durationTicks": 376,
                    "midi": 59,
                    "name": "B3",
                    "ticks": 125040,
                    "time": 65.125,
                    "velocity": 0.9606299212598425
                },
                {
                    "duration": 0.09583333333333144,
                    "durationTicks": 184,
                    "midi": 55,
                    "name": "G3",
                    "ticks": 125520,
                    "time": 65.375,
                    "velocity": 0.9606299212598425
                },
                {
                    "duration": 1.3499999999999943,
                    "durationTicks": 2592,
                    "midi": 57,
                    "name": "A3",
                    "ticks": 125760,
                    "time": 65.5,
                    "velocity": 0.9606299212598425
                },
                {
                    "duration": 0.07083333333333997,
                    "durationTicks": 136,
                    "midi": 57,
                    "name": "A3",
                    "ticks": 130560,
                    "time": 68,
                    "velocity": 0.9606299212598425
                },
                {
                    "duration": 0.15000000000000568,
                    "durationTicks": 288,
                    "midi": 57,
                    "name": "A3",
                    "ticks": 130800,
                    "time": 68.125,
                    "velocity": 0.9606299212598425
                },
                {
                    "duration": 0.32083333333333997,
                    "durationTicks": 616,
                    "midi": 60,
                    "name": "C4",
                    "ticks": 131280,
                    "time": 68.375,
                    "velocity": 0.9606299212598425
                },
                {
                    "duration": 0.23749999999999716,
                    "durationTicks": 456,
                    "midi": 64,
                    "name": "E4",
                    "ticks": 132000,
                    "time": 68.75,
                    "velocity": 0.9606299212598425
                },
                {
                    "duration": 0.09999999999999432,
                    "durationTicks": 192,
                    "midi": 62,
                    "name": "D4",
                    "ticks": 132480,
                    "time": 69,
                    "velocity": 0.9606299212598425
                },
                {
                    "duration": 0.09583333333333144,
                    "durationTicks": 184,
                    "midi": 64,
                    "name": "E4",
                    "ticks": 132720,
                    "time": 69.125,
                    "velocity": 0.9606299212598425
                },
                {
                    "duration": 0.34166666666666856,
                    "durationTicks": 656,
                    "midi": 64,
                    "name": "E4",
                    "ticks": 132960,
                    "time": 69.25,
                    "velocity": 0.9606299212598425
                },
                {
                    "duration": 0.40416666666666856,
                    "durationTicks": 776,
                    "midi": 62,
                    "name": "D4",
                    "ticks": 133920,
                    "time": 69.75,
                    "velocity": 0.9606299212598425
                },
                {
                    "duration": 0.08750000000000568,
                    "durationTicks": 168,
                    "midi": 57,
                    "name": "A3",
                    "ticks": 134640,
                    "time": 70.125,
                    "velocity": 0.9606299212598425
                },
                {
                    "duration": 0.16249999999999432,
                    "durationTicks": 312,
                    "midi": 62,
                    "name": "D4",
                    "ticks": 134880,
                    "time": 70.25,
                    "velocity": 0.9606299212598425
                },
                {
                    "duration": 0.21666666666666856,
                    "durationTicks": 416,
                    "midi": 60,
                    "name": "C4",
                    "ticks": 135360,
                    "time": 70.5,
                    "velocity": 0.9606299212598425
                },
                {
                    "duration": 0.21250000000000568,
                    "durationTicks": 408,
                    "midi": 57,
                    "name": "A3",
                    "ticks": 135840,
                    "time": 70.75,
                    "velocity": 0.9606299212598425
                },
                {
                    "duration": 0.23749999999999716,
                    "durationTicks": 456,
                    "midi": 55,
                    "name": "G3",
                    "ticks": 136320,
                    "time": 71,
                    "velocity": 0.9606299212598425
                },
                {
                    "duration": 0.22083333333333144,
                    "durationTicks": 424,
                    "midi": 57,
                    "name": "A3",
                    "ticks": 136800,
                    "time": 71.25,
                    "velocity": 0.9606299212598425
                },
                {
                    "duration": 0.5,
                    "durationTicks": 960,
                    "midi": 57,
                    "name": "A3",
                    "ticks": 137280,
                    "time": 71.5,
                    "velocity": 0.9606299212598425
                },
                {
                    "duration": 0.12916666666666288,
                    "durationTicks": 248,
                    "midi": 60,
                    "name": "C4",
                    "ticks": 138240,
                    "time": 72,
                    "velocity": 0.9606299212598425
                },
                {
                    "duration": 0.11666666666666003,
                    "durationTicks": 224,
                    "midi": 62,
                    "name": "D4",
                    "ticks": 138480,
                    "time": 72.125,
                    "velocity": 0.9606299212598425
                },
                {
                    "duration": 0.6624999999999943,
                    "durationTicks": 1272,
                    "midi": 60,
                    "name": "C4",
                    "ticks": 138720,
                    "time": 72.25,
                    "velocity": 0.9606299212598425
                },
                {
                    "duration": 0.13333333333333997,
                    "durationTicks": 256,
                    "midi": 57,
                    "name": "A3",
                    "ticks": 140160,
                    "time": 73,
                    "velocity": 0.9606299212598425
                },
                {
                    "duration": 0.22083333333333144,
                    "durationTicks": 424,
                    "midi": 55,
                    "name": "G3",
                    "ticks": 140400,
                    "time": 73.125,
                    "velocity": 0.9606299212598425
                },
                {
                    "duration": 0.0625,
                    "durationTicks": 120,
                    "midi": 57,
                    "name": "A3",
                    "ticks": 140880,
                    "time": 73.375,
                    "velocity": 0.9606299212598425
                },
                {
                    "duration": 1.57083333333334,
                    "durationTicks": 3016,
                    "midi": 57,
                    "name": "A3",
                    "ticks": 141120,
                    "time": 73.5,
                    "velocity": 0.9606299212598425
                },
                {
                    "duration": 0.21250000000000568,
                    "durationTicks": 408,
                    "midi": 52,
                    "name": "E3",
                    "ticks": 145920,
                    "time": 76,
                    "velocity": 0.9606299212598425
                },
                {
                    "duration": 0.07916666666666572,
                    "durationTicks": 152,
                    "midi": 55,
                    "name": "G3",
                    "ticks": 146400,
                    "time": 76.25,
                    "velocity": 0.9606299212598425
                },
                {
                    "duration": 0.3125,
                    "durationTicks": 600,
                    "midi": 57,
                    "name": "A3",
                    "ticks": 146640,
                    "time": 76.375,
                    "velocity": 0.9606299212598425
                },
                {
                    "duration": 0.34583333333333144,
                    "durationTicks": 664,
                    "midi": 60,
                    "name": "C4",
                    "ticks": 147360,
                    "time": 76.75,
                    "velocity": 0.9606299212598425
                },
                {
                    "duration": 0.20000000000000284,
                    "durationTicks": 384,
                    "midi": 59,
                    "name": "B3",
                    "ticks": 148080,
                    "time": 77.125,
                    "velocity": 0.9606299212598425
                },
                {
                    "duration": 0.1041666666666714,
                    "durationTicks": 200,
                    "midi": 55,
                    "name": "G3",
                    "ticks": 148560,
                    "time": 77.375,
                    "velocity": 0.9606299212598425
                },
                {
                    "duration": 1.6041666666666714,
                    "durationTicks": 3080,
                    "midi": 57,
                    "name": "A3",
                    "ticks": 148800,
                    "time": 77.5,
                    "velocity": 0.9606299212598425
                },
                {
                    "duration": 0.22083333333333144,
                    "durationTicks": 424,
                    "midi": 52,
                    "name": "E3",
                    "ticks": 153600,
                    "time": 80,
                    "velocity": 0.9606299212598425
                },
                {
                    "duration": 0.07916666666666572,
                    "durationTicks": 152,
                    "midi": 55,
                    "name": "G3",
                    "ticks": 154080,
                    "time": 80.25,
                    "velocity": 0.9606299212598425
                },
                {
                    "duration": 0.3333333333333286,
                    "durationTicks": 640,
                    "midi": 57,
                    "name": "A3",
                    "ticks": 154320,
                    "time": 80.375,
                    "velocity": 0.9606299212598425
                },
                {
                    "duration": 0.30416666666666003,
                    "durationTicks": 584,
                    "midi": 60,
                    "name": "C4",
                    "ticks": 155040,
                    "time": 80.75,
                    "velocity": 0.9606299212598425
                },
                {
                    "duration": 0.19583333333333997,
                    "durationTicks": 376,
                    "midi": 59,
                    "name": "B3",
                    "ticks": 155760,
                    "time": 81.125,
                    "velocity": 0.9606299212598425
                },
                {
                    "duration": 0.09583333333333144,
                    "durationTicks": 184,
                    "midi": 55,
                    "name": "G3",
                    "ticks": 156240,
                    "time": 81.375,
                    "velocity": 0.9606299212598425
                },
                {
                    "duration": 1.3499999999999943,
                    "durationTicks": 2592,
                    "midi": 57,
                    "name": "A3",
                    "ticks": 156480,
                    "time": 81.5,
                    "velocity": 0.9606299212598425
                },
                {
                    "duration": 0.07083333333333997,
                    "durationTicks": 136,
                    "midi": 57,
                    "name": "A3",
                    "ticks": 161280,
                    "time": 84,
                    "velocity": 0.9606299212598425
                },
                {
                    "duration": 0.15000000000000568,
                    "durationTicks": 288,
                    "midi": 57,
                    "name": "A3",
                    "ticks": 161520,
                    "time": 84.125,
                    "velocity": 0.9606299212598425
                },
                {
                    "duration": 0.32083333333333997,
                    "durationTicks": 616,
                    "midi": 60,
                    "name": "C4",
                    "ticks": 162000,
                    "time": 84.375,
                    "velocity": 0.9606299212598425
                },
                {
                    "duration": 0.23749999999999716,
                    "durationTicks": 456,
                    "midi": 64,
                    "name": "E4",
                    "ticks": 162720,
                    "time": 84.75,
                    "velocity": 0.9606299212598425
                },
                {
                    "duration": 0.09999999999999432,
                    "durationTicks": 192,
                    "midi": 62,
                    "name": "D4",
                    "ticks": 163200,
                    "time": 85,
                    "velocity": 0.9606299212598425
                },
                {
                    "duration": 0.09583333333333144,
                    "durationTicks": 184,
                    "midi": 64,
                    "name": "E4",
                    "ticks": 163440,
                    "time": 85.125,
                    "velocity": 0.9606299212598425
                },
                {
                    "duration": 0.34166666666666856,
                    "durationTicks": 656,
                    "midi": 64,
                    "name": "E4",
                    "ticks": 163680,
                    "time": 85.25,
                    "velocity": 0.9606299212598425
                },
                {
                    "duration": 0.40416666666666856,
                    "durationTicks": 776,
                    "midi": 62,
                    "name": "D4",
                    "ticks": 164640,
                    "time": 85.75,
                    "velocity": 0.9606299212598425
                },
                {
                    "duration": 0.08750000000000568,
                    "durationTicks": 168,
                    "midi": 57,
                    "name": "A3",
                    "ticks": 165360,
                    "time": 86.125,
                    "velocity": 0.9606299212598425
                },
                {
                    "duration": 0.16249999999999432,
                    "durationTicks": 312,
                    "midi": 62,
                    "name": "D4",
                    "ticks": 165600,
                    "time": 86.25,
                    "velocity": 0.9606299212598425
                },
                {
                    "duration": 0.21666666666666856,
                    "durationTicks": 416,
                    "midi": 60,
                    "name": "C4",
                    "ticks": 166080,
                    "time": 86.5,
                    "velocity": 0.9606299212598425
                },
                {
                    "duration": 0.21250000000000568,
                    "durationTicks": 408,
                    "midi": 57,
                    "name": "A3",
                    "ticks": 166560,
                    "time": 86.75,
                    "velocity": 0.9606299212598425
                },
                {
                    "duration": 0.23749999999999716,
                    "durationTicks": 456,
                    "midi": 55,
                    "name": "G3",
                    "ticks": 167040,
                    "time": 87,
                    "velocity": 0.9606299212598425
                },
                {
                    "duration": 0.22083333333333144,
                    "durationTicks": 424,
                    "midi": 57,
                    "name": "A3",
                    "ticks": 167520,
                    "time": 87.25,
                    "velocity": 0.9606299212598425
                },
                {
                    "duration": 0.5,
                    "durationTicks": 960,
                    "midi": 57,
                    "name": "A3",
                    "ticks": 168000,
                    "time": 87.5,
                    "velocity": 0.9606299212598425
                },
                {
                    "duration": 0.12916666666666288,
                    "durationTicks": 248,
                    "midi": 60,
                    "name": "C4",
                    "ticks": 168960,
                    "time": 88,
                    "velocity": 0.9606299212598425
                },
                {
                    "duration": 0.11666666666666003,
                    "durationTicks": 224,
                    "midi": 62,
                    "name": "D4",
                    "ticks": 169200,
                    "time": 88.125,
                    "velocity": 0.9606299212598425
                },
                {
                    "duration": 0.6624999999999943,
                    "durationTicks": 1272,
                    "midi": 60,
                    "name": "C4",
                    "ticks": 169440,
                    "time": 88.25,
                    "velocity": 0.9606299212598425
                },
                {
                    "duration": 0.13333333333333997,
                    "durationTicks": 256,
                    "midi": 57,
                    "name": "A3",
                    "ticks": 170880,
                    "time": 89,
                    "velocity": 0.9606299212598425
                },
                {
                    "duration": 0.22083333333333144,
                    "durationTicks": 424,
                    "midi": 55,
                    "name": "G3",
                    "ticks": 171120,
                    "time": 89.125,
                    "velocity": 0.9606299212598425
                },
                {
                    "duration": 0.0625,
                    "durationTicks": 120,
                    "midi": 57,
                    "name": "A3",
                    "ticks": 171600,
                    "time": 89.375,
                    "velocity": 0.9606299212598425
                },
                {
                    "duration": 1.57083333333334,
                    "durationTicks": 3016,
                    "midi": 57,
                    "name": "A3",
                    "ticks": 171840,
                    "time": 89.5,
                    "velocity": 0.9606299212598425
                },
                {
                    "duration": 0.10833333333333428,
                    "durationTicks": 208,
                    "midi": 52,
                    "name": "E3",
                    "ticks": 176400,
                    "time": 91.875,
                    "velocity": 0.9606299212598425
                },
                {
                    "duration": 0.10833333333333428,
                    "durationTicks": 208,
                    "midi": 55,
                    "name": "G3",
                    "ticks": 176640,
                    "time": 92,
                    "velocity": 0.9606299212598425
                },
                {
                    "duration": 0.20000000000000284,
                    "durationTicks": 384,
                    "midi": 57,
                    "name": "A3",
                    "ticks": 176880,
                    "time": 92.125,
                    "velocity": 0.9606299212598425
                },
                {
                    "duration": 0.09166666666666856,
                    "durationTicks": 176,
                    "midi": 55,
                    "name": "G3",
                    "ticks": 177360,
                    "time": 92.375,
                    "velocity": 0.9606299212598425
                },
                {
                    "duration": 0.20416666666666572,
                    "durationTicks": 392,
                    "midi": 57,
                    "name": "A3",
                    "ticks": 177600,
                    "time": 92.5,
                    "velocity": 0.9606299212598425
                },
                {
                    "duration": 0.07916666666666572,
                    "durationTicks": 152,
                    "midi": 55,
                    "name": "G3",
                    "ticks": 178080,
                    "time": 92.75,
                    "velocity": 0.9606299212598425
                },
                {
                    "duration": 0.20416666666666572,
                    "durationTicks": 392,
                    "midi": 57,
                    "name": "A3",
                    "ticks": 178320,
                    "time": 92.875,
                    "velocity": 0.9606299212598425
                },
                {
                    "duration": 0.09999999999999432,
                    "durationTicks": 192,
                    "midi": 55,
                    "name": "G3",
                    "ticks": 178800,
                    "time": 93.125,
                    "velocity": 0.9606299212598425
                },
                {
                    "duration": 0.09583333333333144,
                    "durationTicks": 184,
                    "midi": 57,
                    "name": "A3",
                    "ticks": 179040,
                    "time": 93.25,
                    "velocity": 0.9606299212598425
                },
                {
                    "duration": 0.09999999999999432,
                    "durationTicks": 192,
                    "midi": 52,
                    "name": "E3",
                    "ticks": 179280,
                    "time": 93.375,
                    "velocity": 0.9606299212598425
                },
                {
                    "duration": 0.09166666666666856,
                    "durationTicks": 176,
                    "midi": 55,
                    "name": "G3",
                    "ticks": 179520,
                    "time": 93.5,
                    "velocity": 0.9606299212598425
                },
                {
                    "duration": 0.12916666666666288,
                    "durationTicks": 248,
                    "midi": 57,
                    "name": "A3",
                    "ticks": 179760,
                    "time": 93.625,
                    "velocity": 0.9606299212598425
                },
                {
                    "duration": 0.09166666666666856,
                    "durationTicks": 176,
                    "midi": 55,
                    "name": "G3",
                    "ticks": 180240,
                    "time": 93.875,
                    "velocity": 0.9606299212598425
                },
                {
                    "duration": 0.20416666666666572,
                    "durationTicks": 392,
                    "midi": 60,
                    "name": "C4",
                    "ticks": 180480,
                    "time": 94,
                    "velocity": 0.9606299212598425
                },
                {
                    "duration": 0.09583333333333144,
                    "durationTicks": 184,
                    "midi": 55,
                    "name": "G3",
                    "ticks": 180960,
                    "time": 94.25,
                    "velocity": 0.9606299212598425
                },
                {
                    "duration": 0.21666666666666856,
                    "durationTicks": 416,
                    "midi": 57,
                    "name": "A3",
                    "ticks": 181200,
                    "time": 94.375,
                    "velocity": 0.9606299212598425
                },
                {
                    "duration": 0.09166666666666856,
                    "durationTicks": 176,
                    "midi": 55,
                    "name": "G3",
                    "ticks": 181680,
                    "time": 94.625,
                    "velocity": 0.9606299212598425
                },
                {
                    "duration": 0.10833333333333428,
                    "durationTicks": 208,
                    "midi": 57,
                    "name": "A3",
                    "ticks": 181920,
                    "time": 94.75,
                    "velocity": 0.9606299212598425
                },
                {
                    "duration": 0.11249999999999716,
                    "durationTicks": 216,
                    "midi": 52,
                    "name": "E3",
                    "ticks": 182160,
                    "time": 94.875,
                    "velocity": 0.9606299212598425
                },
                {
                    "duration": 0.09999999999999432,
                    "durationTicks": 192,
                    "midi": 55,
                    "name": "G3",
                    "ticks": 182400,
                    "time": 95,
                    "velocity": 0.9606299212598425
                },
                {
                    "duration": 0.12916666666666288,
                    "durationTicks": 248,
                    "midi": 57,
                    "name": "A3",
                    "ticks": 182640,
                    "time": 95.125,
                    "velocity": 0.9606299212598425
                },
                {
                    "duration": 0.07916666666666572,
                    "durationTicks": 152,
                    "midi": 55,
                    "name": "G3",
                    "ticks": 183120,
                    "time": 95.375,
                    "velocity": 0.9606299212598425
                },
                {
                    "duration": 0.20416666666666572,
                    "durationTicks": 392,
                    "midi": 57,
                    "name": "A3",
                    "ticks": 183360,
                    "time": 95.5,
                    "velocity": 0.9606299212598425
                },
                {
                    "duration": 0.08750000000000568,
                    "durationTicks": 168,
                    "midi": 55,
                    "name": "G3",
                    "ticks": 183840,
                    "time": 95.75,
                    "velocity": 0.9606299212598425
                },
                {
                    "duration": 0.19583333333333997,
                    "durationTicks": 376,
                    "midi": 57,
                    "name": "A3",
                    "ticks": 184080,
                    "time": 95.875,
                    "velocity": 0.9606299212598425
                },
                {
                    "duration": 0.09583333333333144,
                    "durationTicks": 184,
                    "midi": 55,
                    "name": "G3",
                    "ticks": 184560,
                    "time": 96.125,
                    "velocity": 0.9606299212598425
                },
                {
                    "duration": 0.15416666666666856,
                    "durationTicks": 296,
                    "midi": 57,
                    "name": "A3",
                    "ticks": 184800,
                    "time": 96.25,
                    "velocity": 0.9606299212598425
                },
                {
                    "duration": 0.11249999999999716,
                    "durationTicks": 216,
                    "midi": 52,
                    "name": "E3",
                    "ticks": 185040,
                    "time": 96.375,
                    "velocity": 0.9606299212598425
                },
                {
                    "duration": 0.09999999999999432,
                    "durationTicks": 192,
                    "midi": 55,
                    "name": "G3",
                    "ticks": 185280,
                    "time": 96.5,
                    "velocity": 0.9606299212598425
                },
                {
                    "duration": 0.21666666666666856,
                    "durationTicks": 416,
                    "midi": 57,
                    "name": "A3",
                    "ticks": 185520,
                    "time": 96.625,
                    "velocity": 0.9606299212598425
                },
                {
                    "duration": 0.08750000000000568,
                    "durationTicks": 168,
                    "midi": 55,
                    "name": "G3",
                    "ticks": 186000,
                    "time": 96.875,
                    "velocity": 0.9606299212598425
                },
                {
                    "duration": 0.20416666666666572,
                    "durationTicks": 392,
                    "midi": 60,
                    "name": "C4",
                    "ticks": 186240,
                    "time": 97,
                    "velocity": 0.9606299212598425
                },
                {
                    "duration": 0.09583333333333144,
                    "durationTicks": 184,
                    "midi": 55,
                    "name": "G3",
                    "ticks": 186720,
                    "time": 97.25,
                    "velocity": 0.9606299212598425
                },
                {
                    "duration": 0.22083333333333144,
                    "durationTicks": 424,
                    "midi": 57,
                    "name": "A3",
                    "ticks": 186960,
                    "time": 97.375,
                    "velocity": 0.9606299212598425
                },
                {
                    "duration": 0.08750000000000568,
                    "durationTicks": 168,
                    "midi": 55,
                    "name": "G3",
                    "ticks": 187440,
                    "time": 97.625,
                    "velocity": 0.9606299212598425
                },
                {
                    "duration": 0.1458333333333286,
                    "durationTicks": 280,
                    "midi": 57,
                    "name": "A3",
                    "ticks": 187680,
                    "time": 97.75,
                    "velocity": 0.9606299212598425
                },
                {
                    "duration": 0.1041666666666714,
                    "durationTicks": 200,
                    "midi": 52,
                    "name": "E3",
                    "ticks": 187920,
                    "time": 97.875,
                    "velocity": 0.9606299212598425
                },
                {
                    "duration": 0.09999999999999432,
                    "durationTicks": 192,
                    "midi": 55,
                    "name": "G3",
                    "ticks": 188160,
                    "time": 98,
                    "velocity": 0.9606299212598425
                },
                {
                    "duration": 0.2083333333333286,
                    "durationTicks": 400,
                    "midi": 57,
                    "name": "A3",
                    "ticks": 188400,
                    "time": 98.125,
                    "velocity": 0.9606299212598425
                },
                {
                    "duration": 0.07500000000000284,
                    "durationTicks": 144,
                    "midi": 55,
                    "name": "G3",
                    "ticks": 188880,
                    "time": 98.375,
                    "velocity": 0.9606299212598425
                },
                {
                    "duration": 0.20416666666666572,
                    "durationTicks": 392,
                    "midi": 57,
                    "name": "A3",
                    "ticks": 189120,
                    "time": 98.5,
                    "velocity": 0.9606299212598425
                },
                {
                    "duration": 0.07083333333333997,
                    "durationTicks": 136,
                    "midi": 55,
                    "name": "G3",
                    "ticks": 189600,
                    "time": 98.75,
                    "velocity": 0.9606299212598425
                },
                {
                    "duration": 0.21250000000000568,
                    "durationTicks": 408,
                    "midi": 57,
                    "name": "A3",
                    "ticks": 189840,
                    "time": 98.875,
                    "velocity": 0.9606299212598425
                },
                {
                    "duration": 0.07916666666666572,
                    "durationTicks": 152,
                    "midi": 55,
                    "name": "G3",
                    "ticks": 190320,
                    "time": 99.125,
                    "velocity": 0.9606299212598425
                },
                {
                    "duration": 0.23749999999999716,
                    "durationTicks": 456,
                    "midi": 57,
                    "name": "A3",
                    "ticks": 190560,
                    "time": 99.25,
                    "velocity": 0.9606299212598425
                },
                {
                    "duration": 0.08750000000000568,
                    "durationTicks": 168,
                    "midi": 55,
                    "name": "G3",
                    "ticks": 191040,
                    "time": 99.5,
                    "velocity": 0.9606299212598425
                },
                {
                    "duration": 0.21666666666666856,
                    "durationTicks": 416,
                    "midi": 57,
                    "name": "A3",
                    "ticks": 191280,
                    "time": 99.625,
                    "velocity": 0.9606299212598425
                },
                {
                    "duration": 0.0833333333333286,
                    "durationTicks": 160,
                    "midi": 55,
                    "name": "G3",
                    "ticks": 191760,
                    "time": 99.875,
                    "velocity": 0.9606299212598425
                },
                {
                    "duration": 0.20000000000000284,
                    "durationTicks": 384,
                    "midi": 57,
                    "name": "A3",
                    "ticks": 192000,
                    "time": 100,
                    "velocity": 0.9606299212598425
                },
                {
                    "duration": 0.0833333333333286,
                    "durationTicks": 160,
                    "midi": 55,
                    "name": "G3",
                    "ticks": 192480,
                    "time": 100.25,
                    "velocity": 0.9606299212598425
                },
                {
                    "duration": 0.20000000000000284,
                    "durationTicks": 384,
                    "midi": 57,
                    "name": "A3",
                    "ticks": 192720,
                    "time": 100.375,
                    "velocity": 0.9606299212598425
                },
                {
                    "duration": 0.08750000000000568,
                    "durationTicks": 168,
                    "midi": 55,
                    "name": "G3",
                    "ticks": 193200,
                    "time": 100.625,
                    "velocity": 0.9606299212598425
                },
                {
                    "duration": 0.2291666666666714,
                    "durationTicks": 440,
                    "midi": 57,
                    "name": "A3",
                    "ticks": 193440,
                    "time": 100.75,
                    "velocity": 0.9606299212598425
                },
                {
                    "duration": 0.11249999999999716,
                    "durationTicks": 216,
                    "midi": 55,
                    "name": "G3",
                    "ticks": 193920,
                    "time": 101,
                    "velocity": 0.9606299212598425
                },
                {
                    "duration": 0.2291666666666714,
                    "durationTicks": 440,
                    "midi": 57,
                    "name": "A3",
                    "ticks": 194160,
                    "time": 101.125,
                    "velocity": 0.9606299212598425
                },
                {
                    "duration": 0.07500000000000284,
                    "durationTicks": 144,
                    "midi": 55,
                    "name": "G3",
                    "ticks": 194640,
                    "time": 101.375,
                    "velocity": 0.9606299212598425
                },
                {
                    "duration": 0.13750000000000284,
                    "durationTicks": 264,
                    "midi": 60,
                    "name": "C4",
                    "ticks": 194880,
                    "time": 101.5,
                    "velocity": 0.9606299212598425
                },
                {
                    "duration": 0.1666666666666714,
                    "durationTicks": 320,
                    "midi": 64,
                    "name": "E4",
                    "ticks": 195600,
                    "time": 101.875,
                    "velocity": 0.9606299212598425
                },
                {
                    "duration": 0.054166666666660035,
                    "durationTicks": 104,
                    "midi": 64,
                    "name": "E4",
                    "ticks": 196080,
                    "time": 102.125,
                    "velocity": 0.9606299212598425
                },
                {
                    "duration": 0.0833333333333286,
                    "durationTicks": 160,
                    "midi": 64,
                    "name": "E4",
                    "ticks": 196320,
                    "time": 102.25,
                    "velocity": 0.9606299212598425
                },
                {
                    "duration": 0.07916666666666572,
                    "durationTicks": 152,
                    "midi": 64,
                    "name": "E4",
                    "ticks": 196560,
                    "time": 102.375,
                    "velocity": 0.9606299212598425
                },
                {
                    "duration": 0.09166666666666856,
                    "durationTicks": 176,
                    "midi": 67,
                    "name": "G4",
                    "ticks": 196800,
                    "time": 102.5,
                    "velocity": 0.9606299212598425
                },
                {
                    "duration": 0.07500000000000284,
                    "durationTicks": 144,
                    "midi": 67,
                    "name": "G4",
                    "ticks": 197040,
                    "time": 102.625,
                    "velocity": 0.9606299212598425
                },
                {
                    "duration": 0.17083333333333428,
                    "durationTicks": 328,
                    "midi": 64,
                    "name": "E4",
                    "ticks": 197280,
                    "time": 102.75,
                    "velocity": 0.9606299212598425
                },
                {
                    "duration": 0.2083333333333286,
                    "durationTicks": 400,
                    "midi": 62,
                    "name": "D4",
                    "ticks": 197760,
                    "time": 103,
                    "velocity": 0.9606299212598425
                },
                {
                    "duration": 0.10833333333333428,
                    "durationTicks": 208,
                    "midi": 60,
                    "name": "C4",
                    "ticks": 198240,
                    "time": 103.25,
                    "velocity": 0.9606299212598425
                },
                {
                    "duration": 0.19166666666666288,
                    "durationTicks": 368,
                    "midi": 62,
                    "name": "D4",
                    "ticks": 198480,
                    "time": 103.375,
                    "velocity": 0.9606299212598425
                },
                {
                    "duration": 0.1041666666666714,
                    "durationTicks": 200,
                    "midi": 60,
                    "name": "C4",
                    "ticks": 198960,
                    "time": 103.625,
                    "velocity": 0.9606299212598425
                },
                {
                    "duration": 0.07083333333333997,
                    "durationTicks": 136,
                    "midi": 57,
                    "name": "A3",
                    "ticks": 199440,
                    "time": 103.875,
                    "velocity": 0.9606299212598425
                },
                {
                    "duration": 0.07500000000000284,
                    "durationTicks": 144,
                    "midi": 64,
                    "name": "E4",
                    "ticks": 199680,
                    "time": 104,
                    "velocity": 0.9606299212598425
                },
                {
                    "duration": 0.20416666666666572,
                    "durationTicks": 392,
                    "midi": 62,
                    "name": "D4",
                    "ticks": 199920,
                    "time": 104.125,
                    "velocity": 0.9606299212598425
                },
                {
                    "duration": 0.18333333333333712,
                    "durationTicks": 352,
                    "midi": 62,
                    "name": "D4",
                    "ticks": 200400,
                    "time": 104.375,
                    "velocity": 0.9606299212598425
                },
                {
                    "duration": 0.3125,
                    "durationTicks": 600,
                    "midi": 60,
                    "name": "C4",
                    "ticks": 200880,
                    "time": 104.625,
                    "velocity": 0.9606299212598425
                },
                {
                    "duration": 0.1875,
                    "durationTicks": 360,
                    "midi": 57,
                    "name": "A3",
                    "ticks": 201600,
                    "time": 105,
                    "velocity": 0.9606299212598425
                },
                {
                    "duration": 0.15000000000000568,
                    "durationTicks": 288,
                    "midi": 55,
                    "name": "G3",
                    "ticks": 202080,
                    "time": 105.25,
                    "velocity": 0.9606299212598425
                },
                {
                    "duration": 0.8458333333333314,
                    "durationTicks": 1624,
                    "midi": 57,
                    "name": "A3",
                    "ticks": 202560,
                    "time": 105.5,
                    "velocity": 0.9606299212598425
                },
                {
                    "duration": 0.21250000000000568,
                    "durationTicks": 408,
                    "midi": 52,
                    "name": "E3",
                    "ticks": 207360,
                    "time": 108,
                    "velocity": 0.9606299212598425
                },
                {
                    "duration": 0.07916666666666572,
                    "durationTicks": 152,
                    "midi": 55,
                    "name": "G3",
                    "ticks": 207840,
                    "time": 108.25,
                    "velocity": 0.9606299212598425
                },
                {
                    "duration": 0.3125,
                    "durationTicks": 600,
                    "midi": 57,
                    "name": "A3",
                    "ticks": 208080,
                    "time": 108.375,
                    "velocity": 0.9606299212598425
                },
                {
                    "duration": 0.34583333333333144,
                    "durationTicks": 664,
                    "midi": 60,
                    "name": "C4",
                    "ticks": 208800,
                    "time": 108.75,
                    "velocity": 0.9606299212598425
                },
                {
                    "duration": 0.20000000000000284,
                    "durationTicks": 384,
                    "midi": 59,
                    "name": "B3",
                    "ticks": 209520,
                    "time": 109.125,
                    "velocity": 0.9606299212598425
                },
                {
                    "duration": 0.1041666666666714,
                    "durationTicks": 200,
                    "midi": 55,
                    "name": "G3",
                    "ticks": 210000,
                    "time": 109.375,
                    "velocity": 0.9606299212598425
                },
                {
                    "duration": 1.6041666666666714,
                    "durationTicks": 3080,
                    "midi": 57,
                    "name": "A3",
                    "ticks": 210240,
                    "time": 109.5,
                    "velocity": 0.9606299212598425
                },
                {
                    "duration": 0.07083333333333997,
                    "durationTicks": 136,
                    "midi": 57,
                    "name": "A3",
                    "ticks": 215040,
                    "time": 112,
                    "velocity": 0.9606299212598425
                },
                {
                    "duration": 0.15000000000000568,
                    "durationTicks": 288,
                    "midi": 57,
                    "name": "A3",
                    "ticks": 215280,
                    "time": 112.125,
                    "velocity": 0.9606299212598425
                },
                {
                    "duration": 0.32083333333333997,
                    "durationTicks": 616,
                    "midi": 60,
                    "name": "C4",
                    "ticks": 215760,
                    "time": 112.375,
                    "velocity": 0.9606299212598425
                },
                {
                    "duration": 0.23749999999999716,
                    "durationTicks": 456,
                    "midi": 64,
                    "name": "E4",
                    "ticks": 216480,
                    "time": 112.75,
                    "velocity": 0.9606299212598425
                },
                {
                    "duration": 0.09999999999999432,
                    "durationTicks": 192,
                    "midi": 62,
                    "name": "D4",
                    "ticks": 216960,
                    "time": 113,
                    "velocity": 0.9606299212598425
                },
                {
                    "duration": 0.09583333333333144,
                    "durationTicks": 184,
                    "midi": 64,
                    "name": "E4",
                    "ticks": 217200,
                    "time": 113.125,
                    "velocity": 0.9606299212598425
                },
                {
                    "duration": 0.34166666666666856,
                    "durationTicks": 656,
                    "midi": 64,
                    "name": "E4",
                    "ticks": 217440,
                    "time": 113.25,
                    "velocity": 0.9606299212598425
                },
                {
                    "duration": 0.40416666666666856,
                    "durationTicks": 776,
                    "midi": 62,
                    "name": "D4",
                    "ticks": 218400,
                    "time": 113.75,
                    "velocity": 0.9606299212598425
                },
                {
                    "duration": 0.08750000000000568,
                    "durationTicks": 168,
                    "midi": 57,
                    "name": "A3",
                    "ticks": 219120,
                    "time": 114.125,
                    "velocity": 0.9606299212598425
                },
                {
                    "duration": 0.16249999999999432,
                    "durationTicks": 312,
                    "midi": 62,
                    "name": "D4",
                    "ticks": 219360,
                    "time": 114.25,
                    "velocity": 0.9606299212598425
                },
                {
                    "duration": 0.21666666666666856,
                    "durationTicks": 416,
                    "midi": 60,
                    "name": "C4",
                    "ticks": 219840,
                    "time": 114.5,
                    "velocity": 0.9606299212598425
                },
                {
                    "duration": 0.21250000000000568,
                    "durationTicks": 408,
                    "midi": 57,
                    "name": "A3",
                    "ticks": 220320,
                    "time": 114.75,
                    "velocity": 0.9606299212598425
                },
                {
                    "duration": 0.23749999999999716,
                    "durationTicks": 456,
                    "midi": 55,
                    "name": "G3",
                    "ticks": 220800,
                    "time": 115,
                    "velocity": 0.9606299212598425
                },
                {
                    "duration": 0.22083333333333144,
                    "durationTicks": 424,
                    "midi": 57,
                    "name": "A3",
                    "ticks": 221280,
                    "time": 115.25,
                    "velocity": 0.9606299212598425
                },
                {
                    "duration": 0.5,
                    "durationTicks": 960,
                    "midi": 57,
                    "name": "A3",
                    "ticks": 221760,
                    "time": 115.5,
                    "velocity": 0.9606299212598425
                },
                {
                    "duration": 0.12916666666666288,
                    "durationTicks": 248,
                    "midi": 60,
                    "name": "C4",
                    "ticks": 222720,
                    "time": 116,
                    "velocity": 0.9606299212598425
                },
                {
                    "duration": 0.11666666666666003,
                    "durationTicks": 224,
                    "midi": 62,
                    "name": "D4",
                    "ticks": 222960,
                    "time": 116.125,
                    "velocity": 0.9606299212598425
                },
                {
                    "duration": 0.6624999999999943,
                    "durationTicks": 1272,
                    "midi": 60,
                    "name": "C4",
                    "ticks": 223200,
                    "time": 116.25,
                    "velocity": 0.9606299212598425
                },
                {
                    "duration": 0.13333333333333997,
                    "durationTicks": 256,
                    "midi": 57,
                    "name": "A3",
                    "ticks": 224640,
                    "time": 117,
                    "velocity": 0.9606299212598425
                },
                {
                    "duration": 0.22083333333333144,
                    "durationTicks": 424,
                    "midi": 55,
                    "name": "G3",
                    "ticks": 224880,
                    "time": 117.125,
                    "velocity": 0.9606299212598425
                },
                {
                    "duration": 0.0625,
                    "durationTicks": 120,
                    "midi": 57,
                    "name": "A3",
                    "ticks": 225360,
                    "time": 117.375,
                    "velocity": 0.9606299212598425
                },
                {
                    "duration": 1.5291666666666686,
                    "durationTicks": 2936,
                    "midi": 57,
                    "name": "A3",
                    "ticks": 225600,
                    "time": 117.5,
                    "velocity": 0.9606299212598425
                },
                {
                    "duration": 0.12083333333333712,
                    "durationTicks": 232,
                    "midi": 60,
                    "name": "C4",
                    "ticks": 230400,
                    "time": 120,
                    "velocity": 0.9606299212598425
                },
                {
                    "duration": 0.13333333333333997,
                    "durationTicks": 256,
                    "midi": 62,
                    "name": "D4",
                    "ticks": 230640,
                    "time": 120.125,
                    "velocity": 0.9606299212598425
                },
                {
                    "duration": 0.6083333333333343,
                    "durationTicks": 1168,
                    "midi": 60,
                    "name": "C4",
                    "ticks": 230880,
                    "time": 120.25,
                    "velocity": 0.9606299212598425
                },
                {
                    "duration": 0.11249999999999716,
                    "durationTicks": 216,
                    "midi": 57,
                    "name": "A3",
                    "ticks": 232320,
                    "time": 121,
                    "velocity": 0.9606299212598425
                },
                {
                    "duration": 0.20416666666666572,
                    "durationTicks": 392,
                    "midi": 55,
                    "name": "G3",
                    "ticks": 232560,
                    "time": 121.125,
                    "velocity": 0.9606299212598425
                },
                {
                    "duration": 0.08750000000000568,
                    "durationTicks": 168,
                    "midi": 57,
                    "name": "A3",
                    "ticks": 233040,
                    "time": 121.375,
                    "velocity": 0.9606299212598425
                },
                {
                    "duration": 1.5291666666666686,
                    "durationTicks": 2936,
                    "midi": 57,
                    "name": "A3",
                    "ticks": 233280,
                    "time": 121.5,
                    "velocity": 0.9606299212598425
                },
                {
                    "duration": 0.12083333333333712,
                    "durationTicks": 232,
                    "midi": 60,
                    "name": "C4",
                    "ticks": 238080,
                    "time": 124,
                    "velocity": 0.9606299212598425
                },
                {
                    "duration": 0.13333333333333997,
                    "durationTicks": 256,
                    "midi": 62,
                    "name": "D4",
                    "ticks": 238320,
                    "time": 124.125,
                    "velocity": 0.9606299212598425
                },
                {
                    "duration": 0.6083333333333343,
                    "durationTicks": 1168,
                    "midi": 60,
                    "name": "C4",
                    "ticks": 238560,
                    "time": 124.25,
                    "velocity": 0.9606299212598425
                },
                {
                    "duration": 0.11249999999999716,
                    "durationTicks": 216,
                    "midi": 57,
                    "name": "A3",
                    "ticks": 240000,
                    "time": 125,
                    "velocity": 0.9606299212598425
                },
                {
                    "duration": 0.20416666666666572,
                    "durationTicks": 392,
                    "midi": 55,
                    "name": "G3",
                    "ticks": 240240,
                    "time": 125.125,
                    "velocity": 0.9606299212598425
                },
                {
                    "duration": 0.08750000000000568,
                    "durationTicks": 168,
                    "midi": 57,
                    "name": "A3",
                    "ticks": 240720,
                    "time": 125.375,
                    "velocity": 0.9606299212598425
                },
                {
                    "duration": 1.5291666666666686,
                    "durationTicks": 2936,
                    "midi": 57,
                    "name": "A3",
                    "ticks": 240960,
                    "time": 125.5,
                    "velocity": 0.9606299212598425
                },
                {
                    "duration": 0.12083333333333712,
                    "durationTicks": 232,
                    "midi": 60,
                    "name": "C4",
                    "ticks": 245760,
                    "time": 128,
                    "velocity": 0.9606299212598425
                },
                {
                    "duration": 0.13333333333332575,
                    "durationTicks": 256,
                    "midi": 62,
                    "name": "D4",
                    "ticks": 246000,
                    "time": 128.125,
                    "velocity": 0.9606299212598425
                },
                {
                    "duration": 0.6083333333333201,
                    "durationTicks": 1168,
                    "midi": 60,
                    "name": "C4",
                    "ticks": 246240,
                    "time": 128.25,
                    "velocity": 0.9606299212598425
                },
                {
                    "duration": 0.11250000000001137,
                    "durationTicks": 216,
                    "midi": 57,
                    "name": "A3",
                    "ticks": 247680,
                    "time": 129,
                    "velocity": 0.9606299212598425
                },
                {
                    "duration": 0.20416666666667993,
                    "durationTicks": 392,
                    "midi": 55,
                    "name": "G3",
                    "ticks": 247920,
                    "time": 129.125,
                    "velocity": 0.9606299212598425
                },
                {
                    "duration": 0.08750000000000568,
                    "durationTicks": 168,
                    "midi": 57,
                    "name": "A3",
                    "ticks": 248400,
                    "time": 129.375,
                    "velocity": 0.9606299212598425
                },
                {
                    "duration": 1.5291666666666686,
                    "durationTicks": 2936,
                    "midi": 57,
                    "name": "A3",
                    "ticks": 248640,
                    "time": 129.5,
                    "velocity": 0.9606299212598425
                }
            ]
        }
    ]
}