{
    "header": {
        "keySignatures": [],
        "meta": [],
        "name": "",
        "ppq": 960,
        "tempos": [],
        "timeSignatures": []
    },
    "tracks": [
        {
            "channel": 0,
            "controlChanges": {
                "0": [
                    {
                        "number": 0,
                        "ticks": 55680,
                        "time": 29,
                        "value": 0
                    }
                ],
                "7": [
                    {
                        "number": 7,
                        "ticks": 55680,
                        "time": 29,
                        "value": 0.6299212598425197
                    }
                ],
                "10": [
                    {
                        "number": 10,
                        "ticks": 55680,
                        "time": 29,
                        "value": 0.5039370078740157
                    }
                ],
                "32": [
                    {
                        "number": 32,
                        "ticks": 55680,
                        "time": 29,
                        "value": 0
                    }
                ],
                "91": [
                    {
                        "number": 91,
                        "ticks": 55680,
                        "time": 29,
                        "value": 0.8661417322834646
                    }
                ],
                "93": [
                    {
                        "number": 93,
                        "ticks": 55680,
                        "time": 29,
                        "value": 0.31496062992125984
                    }
                ]
            },
            "pitchBends": [],
            "instrument": {
                "family": "piano",
                "name": "acoustic grand piano",
                "number": 0
            },
            "name": "",
            "notes": []
        },
        {
            "channel": 4,
            "controlChanges": {
                "11": [
                    {
                        "number": 11,
                        "ticks": 90449,
                        "time": 47.10885416666667,
                        "value": 0.9291338582677166
                    },
                    {
                        "number": 11,
                        "ticks": 90757,
                        "time": 47.26927083333333,
                        "value": 0.8582677165354331
                    },
                    {
                        "number": 11,
                        "ticks": 91065,
                        "time": 47.4296875,
                        "value": 0.7874015748031497
                    },
                    {
                        "number": 11,
                        "ticks": 91372,
                        "time": 47.58958333333333,
                        "value": 0.7165354330708661
                    },
                    {
                        "number": 11,
                        "ticks": 91680,
                        "time": 47.75,
                        "value": 0.6456692913385826
                    },
                    {
                        "number": 11,
                        "ticks": 91988,
                        "time": 47.91041666666667,
                        "value": 0.5748031496062992
                    },
                    {
                        "number": 11,
                        "ticks": 92295,
                        "time": 48.0703125,
                        "value": 0.5039370078740157
                    },
                    {
                        "number": 11,
                        "ticks": 92603,
                        "time": 48.23072916666667,
                        "value": 0.4251968503937008
                    },
                    {
                        "number": 11,
                        "ticks": 92911,
                        "time": 48.39114583333333,
                        "value": 0.3543307086614173
                    },
                    {
                        "number": 11,
                        "ticks": 93218,
                        "time": 48.55104166666667,
                        "value": 0.28346456692913385
                    },
                    {
                        "number": 11,
                        "ticks": 93526,
                        "time": 48.71145833333333,
                        "value": 0.2125984251968504
                    },
                    {
                        "number": 11,
                        "ticks": 93834,
                        "time": 48.871875,
                        "value": 0.14173228346456693
                    }
                ],
                "64": [
                    {
                        "number": 64,
                        "ticks": 78777,
                        "time": 41.0296875,
                        "value": 1
                    },
                    {
                        "number": 64,
                        "ticks": 80162,
                        "time": 41.751041666666666,
                        "value": 0
                    },
                    {
                        "number": 64,
                        "ticks": 86470,
                        "time": 45.036458333333336,
                        "value": 1
                    },
                    {
                        "number": 64,
                        "ticks": 87659,
                        "time": 45.65572916666667,
                        "value": 0
                    },
                    {
                        "number": 64,
                        "ticks": 88716,
                        "time": 46.20625,
                        "value": 1
                    },
                    {
                        "number": 64,
                        "ticks": 90049,
                        "time": 46.90052083333333,
                        "value": 0
                    }
                ]
            },
            "pitchBends": [],
            "instrument": {
                "family": "strings",
                "name": "contrabass",
                "number": 43
            },
            "name": "",
            "notes": [
                {
                    "duration": 0.6302083333333321,
                    "durationTicks": 1210,
                    "midi": 60,
                    "name": "C4",
                    "ticks": 55680,
                    "time": 29,
                    "velocity": 0.8582677165354331
                },
                {
                    "duration": 0.6140624999999993,
                    "durationTicks": 1179,
                    "midi": 69,
                    "name": "A4",
                    "ticks": 55680,
                    "time": 29,
                    "velocity": 0.8031496062992126
                },
                {
                    "duration": 0.6140624999999993,
                    "durationTicks": 1179,
                    "midi": 76,
                    "name": "E5",
                    "ticks": 55680,
                    "time": 29,
                    "velocity": 0.8110236220472441
                },
                {
                    "duration": 0.6463541666666686,
                    "durationTicks": 1241,
                    "midi": 64,
                    "name": "E4",
                    "ticks": 56911,
                    "time": 29.641145833333333,
                    "velocity": 0.84251968503937
                },
                {
                    "duration": 0.6354166666666679,
                    "durationTicks": 1220,
                    "midi": 72,
                    "name": "C5",
                    "ticks": 56911,
                    "time": 29.641145833333333,
                    "velocity": 0.8740157480314961
                },
                {
                    "duration": 0.6302083333333321,
                    "durationTicks": 1210,
                    "midi": 81,
                    "name": "A5",
                    "ticks": 56911,
                    "time": 29.641145833333333,
                    "velocity": 0.8582677165354331
                },
                {
                    "duration": 0.6567708333333329,
                    "durationTicks": 1261,
                    "midi": 67,
                    "name": "G4",
                    "ticks": 58142,
                    "time": 30.282291666666666,
                    "velocity": 0.8110236220472441
                },
                {
                    "duration": 0.6302083333333357,
                    "durationTicks": 1210,
                    "midi": 74,
                    "name": "D5",
                    "ticks": 58142,
                    "time": 30.282291666666666,
                    "velocity": 0.8346456692913385
                },
                {
                    "duration": 0.6302083333333357,
                    "durationTicks": 1210,
                    "midi": 83,
                    "name": "B5",
                    "ticks": 58142,
                    "time": 30.282291666666666,
                    "velocity": 0.7952755905511811
                },
                {
                    "duration": 0.6677083333333336,
                    "durationTicks": 1282,
                    "midi": 62,
                    "name": "D4",
                    "ticks": 59372,
                    "time": 30.922916666666666,
                    "velocity": 0.7952755905511811
                },
                {
                    "duration": 0.6463541666666686,
                    "durationTicks": 1241,
                    "midi": 71,
                    "name": "B4",
                    "ticks": 59372,
                    "time": 30.922916666666666,
                    "velocity": 0.7952755905511811
                },
                {
                    "duration": 0.609375,
                    "durationTicks": 1170,
                    "midi": 79,
                    "name": "G5",
                    "ticks": 59372,
                    "time": 30.922916666666666,
                    "velocity": 0.8740157480314961
                },
                {
                    "duration": 2.265104166666667,
                    "durationTicks": 4349,
                    "midi": 60,
                    "name": "C4",
                    "ticks": 60603,
                    "time": 31.5640625,
                    "velocity": 0.8740157480314961
                },
                {
                    "duration": 2.2437499999999986,
                    "durationTicks": 4308,
                    "midi": 69,
                    "name": "A4",
                    "ticks": 60603,
                    "time": 31.5640625,
                    "velocity": 0.7874015748031497
                },
                {
                    "duration": 2.051562500000003,
                    "durationTicks": 3939,
                    "midi": 76,
                    "name": "E5",
                    "ticks": 60603,
                    "time": 31.5640625,
                    "velocity": 0.8503937007874016
                },
                {
                    "duration": 0.5984375000000028,
                    "durationTicks": 1149,
                    "midi": 60,
                    "name": "C4",
                    "ticks": 65526,
                    "time": 34.128125,
                    "velocity": 0.8188976377952756
                },
                {
                    "duration": 0.6197916666666714,
                    "durationTicks": 1190,
                    "midi": 69,
                    "name": "A4",
                    "ticks": 65526,
                    "time": 34.128125,
                    "velocity": 0.8031496062992126
                },
                {
                    "duration": 0.5984375000000028,
                    "durationTicks": 1149,
                    "midi": 76,
                    "name": "E5",
                    "ticks": 65526,
                    "time": 34.128125,
                    "velocity": 0.8661417322834646
                },
                {
                    "duration": 0.6140625000000028,
                    "durationTicks": 1179,
                    "midi": 64,
                    "name": "E4",
                    "ticks": 66757,
                    "time": 34.76927083333333,
                    "velocity": 0.7952755905511811
                },
                {
                    "duration": 0.6197916666666714,
                    "durationTicks": 1190,
                    "midi": 72,
                    "name": "C5",
                    "ticks": 66757,
                    "time": 34.76927083333333,
                    "velocity": 0.84251968503937
                },
                {
                    "duration": 0.6197916666666714,
                    "durationTicks": 1190,
                    "midi": 81,
                    "name": "A5",
                    "ticks": 66757,
                    "time": 34.76927083333333,
                    "velocity": 0.8031496062992126
                },
                {
                    "duration": 0.66770833333333,
                    "durationTicks": 1282,
                    "midi": 67,
                    "name": "G4",
                    "ticks": 67988,
                    "time": 35.41041666666667,
                    "velocity": 0.889763779527559
                },
                {
                    "duration": 0.6192708333333314,
                    "durationTicks": 1189,
                    "midi": 74,
                    "name": "D5",
                    "ticks": 67988,
                    "time": 35.41041666666667,
                    "velocity": 0.8110236220472441
                },
                {
                    "duration": 0.625,
                    "durationTicks": 1200,
                    "midi": 83,
                    "name": "B5",
                    "ticks": 67988,
                    "time": 35.41041666666667,
                    "velocity": 0.8346456692913385
                },
                {
                    "duration": 0.65208333333333,
                    "durationTicks": 1252,
                    "midi": 62,
                    "name": "D4",
                    "ticks": 69218,
                    "time": 36.05104166666667,
                    "velocity": 0.8267716535433071
                },
                {
                    "duration": 0.6682291666666629,
                    "durationTicks": 1283,
                    "midi": 71,
                    "name": "B4",
                    "ticks": 69218,
                    "time": 36.05104166666667,
                    "velocity": 0.8031496062992126
                },
                {
                    "duration": 0.6411458333333329,
                    "durationTicks": 1231,
                    "midi": 79,
                    "name": "G5",
                    "ticks": 69218,
                    "time": 36.05104166666667,
                    "velocity": 0.8740157480314961
                },
                {
                    "duration": 2.1901041666666643,
                    "durationTicks": 4205,
                    "midi": 60,
                    "name": "C4",
                    "ticks": 70449,
                    "time": 36.6921875,
                    "velocity": 0.8346456692913385
                },
                {
                    "duration": 2.2328124999999943,
                    "durationTicks": 4287,
                    "midi": 69,
                    "name": "A4",
                    "ticks": 70449,
                    "time": 36.6921875,
                    "velocity": 0.8740157480314961
                },
                {
                    "duration": 2.195833333333333,
                    "durationTicks": 4216,
                    "midi": 76,
                    "name": "E5",
                    "ticks": 70449,
                    "time": 36.6921875,
                    "velocity": 0.8267716535433071
                },
                {
                    "duration": 1.91770833333333,
                    "durationTicks": 3682,
                    "midi": 76,
                    "name": "E5",
                    "ticks": 75372,
                    "time": 39.25625,
                    "velocity": 0.8582677165354331
                },
                {
                    "duration": 1.9552083333333314,
                    "durationTicks": 3754,
                    "midi": 71,
                    "name": "B4",
                    "ticks": 75372,
                    "time": 39.25625,
                    "velocity": 0.84251968503937
                },
                {
                    "duration": 1.9125000000000014,
                    "durationTicks": 3672,
                    "midi": 79,
                    "name": "G5",
                    "ticks": 75372,
                    "time": 39.25625,
                    "velocity": 0.8188976377952756
                },
                {
                    "duration": 2.34010416666667,
                    "durationTicks": 4493,
                    "midi": 69,
                    "name": "A4",
                    "ticks": 80295,
                    "time": 41.8203125,
                    "velocity": 0.8031496062992126
                },
                {
                    "duration": 2.3453124999999986,
                    "durationTicks": 4503,
                    "midi": 74,
                    "name": "D5",
                    "ticks": 80295,
                    "time": 41.8203125,
                    "velocity": 0.7874015748031497
                },
                {
                    "duration": 2.3614583333333314,
                    "durationTicks": 4534,
                    "midi": 77,
                    "name": "F5",
                    "ticks": 80295,
                    "time": 41.8203125,
                    "velocity": 0.8346456692913385
                },
                {
                    "duration": 0.7749999999999986,
                    "durationTicks": 1488,
                    "midi": 76,
                    "name": "E5",
                    "ticks": 85218,
                    "time": 44.384375,
                    "velocity": 0.7874015748031497
                },
                {
                    "duration": 0.8229166666666714,
                    "durationTicks": 1580,
                    "midi": 69,
                    "name": "A4",
                    "ticks": 85218,
                    "time": 44.384375,
                    "velocity": 0.8110236220472441
                },
                {
                    "duration": 0.7963541666666671,
                    "durationTicks": 1529,
                    "midi": 72,
                    "name": "C5",
                    "ticks": 85218,
                    "time": 44.384375,
                    "velocity": 0.84251968503937
                },
                {
                    "duration": 0.7906249999999986,
                    "durationTicks": 1518,
                    "midi": 57,
                    "name": "A3",
                    "ticks": 85218,
                    "time": 44.384375,
                    "velocity": 0.8740157480314961
                },
                {
                    "duration": 0.7317708333333357,
                    "durationTicks": 1405,
                    "midi": 64,
                    "name": "E4",
                    "ticks": 87680,
                    "time": 45.666666666666664,
                    "velocity": 0.84251968503937
                },
                {
                    "duration": 0.7479166666666686,
                    "durationTicks": 1436,
                    "midi": 67,
                    "name": "G4",
                    "ticks": 87680,
                    "time": 45.666666666666664,
                    "velocity": 0.84251968503937
                },
                {
                    "duration": 0.7427083333333329,
                    "durationTicks": 1426,
                    "midi": 71,
                    "name": "B4",
                    "ticks": 87680,
                    "time": 45.666666666666664,
                    "velocity": 0.8740157480314961
                },
                {
                    "duration": 0.7427083333333329,
                    "durationTicks": 1426,
                    "midi": 74,
                    "name": "D5",
                    "ticks": 87680,
                    "time": 45.666666666666664,
                    "velocity": 0.8661417322834646
                },
                {
                    "duration": 0.8864583333333371,
                    "durationTicks": 1702,
                    "midi": 72,
                    "name": "C5",
                    "ticks": 90142,
                    "time": 46.94895833333333,
                    "velocity": 0.8346456692913385
                },
                {
                    "duration": 0.6677083333333371,
                    "durationTicks": 1282,
                    "midi": 69,
                    "name": "A4",
                    "ticks": 90142,
                    "time": 46.94895833333333,
                    "velocity": 0.8267716535433071
                },
                {
                    "duration": 1.9229166666666728,
                    "durationTicks": 3692,
                    "midi": 57,
                    "name": "A3",
                    "ticks": 90142,
                    "time": 46.94895833333333,
                    "velocity": 0.8267716535433071
                },
                {
                    "duration": 2.0187500000000043,
                    "durationTicks": 3876,
                    "midi": 76,
                    "name": "E5",
                    "ticks": 90142,
                    "time": 46.94895833333333,
                    "velocity": 0.84251968503937
                }
            ]
        }
    ]
}