{
    "header": {
        "keySignatures": [],
        "meta": [],
        "name": "",
        "ppq": 960,
        "tempos": [],
        "timeSignatures": []
    },
    "tracks": [
        {
            "channel": 0,
            "controlChanges": {},
            "pitchBends": [],
            "instrument": {
                "family": "piano",
                "name": "acoustic grand piano",
                "number": 0
            },
            "name": "",
            "notes": [
                {
                    "duration": 0.12083333333333333,
                    "durationTicks": 232,
                    "midi": 36,
                    "name": "C2",
                    "ticks": 236,
                    "time": 0.12291666666666666,
                    "velocity": 0.6299212598425197
                },
                {
                    "duration": 0.09375,
                    "durationTicks": 180,
                    "midi": 41,
                    "name": "F2",
                    "ticks": 1129,
                    "time": 0.5880208333333333,
                    "velocity": 0.7401574803149606
                },
                {
                    "duration": 0.09218749999999987,
                    "durationTicks": 177,
                    "midi": 36,
                    "name": "C2",
                    "ticks": 2037,
                    "time": 1.0609375,
                    "velocity": 0.5118110236220472
                },
                {
                    "duration": 0.0859375,
                    "durationTicks": 165,
                    "midi": 41,
                    "name": "F2",
                    "ticks": 2922,
                    "time": 1.521875,
                    "velocity": 0.6535433070866141
                },
                {
                    "duration": 0.09791666666666687,
                    "durationTicks": 188,
                    "midi": 36,
                    "name": "C2",
                    "ticks": 3859,
                    "time": 2.009895833333333,
                    "velocity": 0.6299212598425197
                },
                {
                    "duration": 0.0932291666666667,
                    "durationTicks": 179,
                    "midi": 41,
                    "name": "F2",
                    "ticks": 4727,
                    "time": 2.4619791666666666,
                    "velocity": 0.6929133858267716
                },
                {
                    "duration": 0.09791666666666687,
                    "durationTicks": 188,
                    "midi": 36,
                    "name": "C2",
                    "ticks": 5641,
                    "time": 2.9380208333333333,
                    "velocity": 0.5984251968503937
                },
                {
                    "duration": 0.09218750000000009,
                    "durationTicks": 177,
                    "midi": 41,
                    "name": "F2",
                    "ticks": 6491,
                    "time": 3.380729166666667,
                    "velocity": 0.6850393700787402
                },
                {
                    "duration": 0.1020833333333333,
                    "durationTicks": 196,
                    "midi": 36,
                    "name": "C2",
                    "ticks": 7420,
                    "time": 3.8645833333333335,
                    "velocity": 0.5905511811023622
                },
                {
                    "duration": 0.09791666666666732,
                    "durationTicks": 188,
                    "midi": 41,
                    "name": "F2",
                    "ticks": 8258,
                    "time": 4.301041666666666,
                    "velocity": 0.6929133858267716
                },
                {
                    "duration": 0.09999999999999964,
                    "durationTicks": 192,
                    "midi": 36,
                    "name": "C2",
                    "ticks": 9181,
                    "time": 4.781770833333334,
                    "velocity": 0.5984251968503937
                },
                {
                    "duration": 0.10468749999999982,
                    "durationTicks": 201,
                    "midi": 41,
                    "name": "F2",
                    "ticks": 9990,
                    "time": 5.203125,
                    "velocity": 0.6929133858267716
                },
                {
                    "duration": 0.10364583333333321,
                    "durationTicks": 199,
                    "midi": 36,
                    "name": "C2",
                    "ticks": 10921,
                    "time": 5.688020833333334,
                    "velocity": 0.6377952755905512
                },
                {
                    "duration": 0.10104166666666625,
                    "durationTicks": 194,
                    "midi": 41,
                    "name": "F2",
                    "ticks": 11808,
                    "time": 6.15,
                    "velocity": 0.6929133858267716
                },
                {
                    "duration": 0.09166666666666679,
                    "durationTicks": 176,
                    "midi": 36,
                    "name": "C2",
                    "ticks": 12701,
                    "time": 6.615104166666667,
                    "velocity": 0.6299212598425197
                },
                {
                    "duration": 0.10000000000000053,
                    "durationTicks": 192,
                    "midi": 41,
                    "name": "F2",
                    "ticks": 13559,
                    "time": 7.061979166666666,
                    "velocity": 0.6929133858267716
                },
                {
                    "duration": 0.10885416666666625,
                    "durationTicks": 209,
                    "midi": 36,
                    "name": "C2",
                    "ticks": 14490,
                    "time": 7.546875,
                    "velocity": 0.6062992125984252
                },
                {
                    "duration": 0.08125000000000071,
                    "durationTicks": 156,
                    "midi": 41,
                    "name": "F2",
                    "ticks": 15323,
                    "time": 7.980729166666666,
                    "velocity": 0.6929133858267716
                },
                {
                    "duration": 0.09010416666666643,
                    "durationTicks": 173,
                    "midi": 36,
                    "name": "C2",
                    "ticks": 16162,
                    "time": 8.417708333333334,
                    "velocity": 0.6377952755905512
                },
                {
                    "duration": 0.08854166666666607,
                    "durationTicks": 170,
                    "midi": 41,
                    "name": "F2",
                    "ticks": 17033,
                    "time": 8.871354166666666,
                    "velocity": 0.6850393700787402
                },
                {
                    "duration": 0.10885416666666536,
                    "durationTicks": 209,
                    "midi": 36,
                    "name": "C2",
                    "ticks": 17894,
                    "time": 9.319791666666667,
                    "velocity": 0.6141732283464567
                },
                {
                    "duration": 0.07395833333333357,
                    "durationTicks": 142,
                    "midi": 41,
                    "name": "F2",
                    "ticks": 18826,
                    "time": 9.805208333333333,
                    "velocity": 0.6771653543307087
                }
            ]
        }
    ]
}